<?xml version="1.0" encoding="UTF-8"?>
<!-- Generator: visioncortex VTracer 0.6.3 -->
<svg version="1.1" xmlns="http://www.w3.org/2000/svg" width="1280" height="1280">
<path d="M0 0 C87.78 -0.05 175.55 -0.09 279.95 -0.13 C281.35 -0.13 282.74 -0.13 284.13 -0.13 C313.4 -0.14 342.67 -0.15 371.94 -0.15 C386.64 -0.16 401.34 -0.16 416.04 -0.16 C418.26 -0.16 420.48 -0.17 422.7 -0.17 C456.85 -0.18 491.01 -0.19 525.16 -0.21 C525.89 -0.21 526.63 -0.21 527.39 -0.21 C539.23 -0.21 551.07 -0.22 562.91 -0.23 C597.01 -0.25 631.12 -0.27 665.22 -0.27 C666.27 -0.27 666.27 -0.27 667.35 -0.27 C682.74 -0.28 698.13 -0.28 713.52 -0.28 C719.72 -0.28 725.91 -0.28 732.1 -0.28 C732.78 -0.28 733.46 -0.28 734.16 -0.28 C756 -0.29 777.85 -0.3 799.69 -0.32 C822.31 -0.34 844.92 -0.35 867.54 -0.34 C880.58 -0.34 893.63 -0.34 906.67 -0.36 C915.38 -0.37 924.08 -0.37 932.79 -0.37 C937.75 -0.36 942.72 -0.36 947.69 -0.37 C952.2 -0.39 956.72 -0.39 961.23 -0.37 C962.86 -0.37 964.48 -0.37 966.11 -0.38 C980.87 -0.45 980.87 -0.45 988 3 C989.45 3.39 990.91 3.75 992.38 4.06 C996 5 996 5 998 7 C999.92 8.13 1001.86 9.23 1003.81 10.31 C1008.26 12.87 1011.62 15.19 1015 19 C1016.14 19.8 1016.14 19.8 1017.31 20.62 C1018.15 21.31 1018.15 21.31 1019 22 C1019 22.99 1019 23.98 1019 25 C1019.99 25.33 1020.98 25.66 1022 26 C1034 39.08 1034 39.08 1034 45 C1034.66 45 1035.32 45 1036 45 C1037.89 50.33 1039.45 55.6 1040.57 61.15 C1040.94 63.08 1040.94 63.08 1042 65 C1042.11 67.27 1042.15 69.54 1042.16 71.81 C1042.16 72.52 1042.17 73.22 1042.17 73.95 C1042.19 76.34 1042.2 78.72 1042.21 81.11 C1042.21 82.81 1042.22 84.52 1042.24 86.22 C1042.26 90.86 1042.28 95.5 1042.3 100.14 C1042.33 104.98 1042.35 109.82 1042.38 114.67 C1042.43 123.84 1042.47 133.02 1042.52 142.2 C1042.57 152.64 1042.62 163.08 1042.68 173.53 C1042.79 195.02 1042.9 216.51 1043 238 C1044.31 238.01 1045.61 238.02 1046.96 238.02 C1059.29 238.1 1071.61 238.19 1083.94 238.29 C1090.28 238.34 1096.62 238.38 1102.96 238.42 C1109.08 238.46 1115.2 238.51 1121.32 238.56 C1123.65 238.58 1125.98 238.59 1128.31 238.6 C1131.59 238.62 1134.86 238.65 1138.13 238.68 C1139.09 238.68 1140.04 238.69 1141.03 238.69 C1157.83 238.89 1175.81 243.84 1188.27 255.45 C1190.03 257.13 1190.03 257.13 1192.56 258.5 C1197.98 261.83 1201.91 266.5 1205 272 C1205.99 273.3 1206.99 274.59 1208 275.88 C1211.29 280.21 1214 284.4 1214 290 C1214.66 290 1215.32 290 1216 290 C1216.12 290.7 1216.24 291.4 1216.37 292.12 C1216.53 293.03 1216.7 293.94 1216.88 294.88 C1217.04 295.78 1217.2 296.68 1217.37 297.62 C1217.83 300.17 1217.83 300.17 1220 302 C1220.2 304.62 1220.28 307.13 1220.27 309.75 C1220.27 310.51 1220.27 311.28 1220.27 312.07 C1220.27 313.69 1220.27 315.32 1220.26 316.94 C1220.25 319.42 1220.26 321.91 1220.27 324.39 C1220.27 325.97 1220.27 327.54 1220.27 329.12 C1220.27 329.86 1220.27 330.61 1220.28 331.38 C1220.24 335.13 1220.13 336.8 1218 340 C1217.56 341.56 1217.12 343.12 1216.7 344.69 C1215.77 347.78 1214.68 350.79 1213.56 353.81 C1213.15 354.93 1212.74 356.05 1212.32 357.21 C1211 360 1211 360 1208 362 C1207.54 363.16 1207.54 363.16 1207.07 364.34 C1205.04 369.39 1200.62 372.85 1196.81 376.62 C1195.97 377.48 1195.14 378.34 1194.27 379.23 C1189.78 383.72 1186.1 387.07 1180 389 C1180 388.34 1180 387.68 1180 387 C1179.01 387 1178.02 387 1177 387 C1177 387.99 1177 388.98 1177 390 C1177.66 390.33 1178.32 390.66 1179 391 C1176.69 391.33 1174.38 391.66 1172 392 C1171.67 392.99 1171.34 393.98 1171 395 C1169.68 394.67 1168.36 394.34 1167 394 C1167 394.66 1167 395.32 1167 396 C1166.29 396.13 1165.58 396.27 1164.85 396.4 C1163.93 396.58 1163.01 396.76 1162.06 396.94 C1161.15 397.11 1160.23 397.29 1159.29 397.46 C1157.05 397.78 1157.05 397.78 1156 399 C1099.57 399.5 1099.57 399.5 1042 400 C1042 690.4 1042 980.8 1042 1280 C730.15 1280 418.3 1280 97 1280 C96.67 949.01 96.34 618.02 96 277 C44.52 276.67 -6.96 276.34 -60 276 C-60.04 222.46 -60.04 222.46 -60.05 200.08 C-60.05 184.6 -60.06 169.13 -60.08 153.66 C-60.09 142.39 -60.09 131.12 -60.09 119.86 C-60.1 113.89 -60.1 107.92 -60.11 101.95 C-60.11 96.34 -60.11 90.72 -60.11 85.11 C-60.11 83.04 -60.12 80.98 -60.12 78.92 C-60.12 76.11 -60.12 73.3 -60.12 70.49 C-60.12 69.66 -60.13 68.84 -60.13 67.99 C-60.12 64.73 -60.04 62.11 -59 59 C-58.65 57 -58.31 55 -58 53 C-57.34 53 -56.68 53 -56 53 C-56.33 51.68 -56.66 50.36 -57 49 C-56.34 49 -55.68 49 -55 49 C-55 47.68 -55 46.36 -55 45 C-54.34 45 -53.68 45 -53 45 C-52.9 44.24 -52.79 43.47 -52.69 42.69 C-51.93 39.73 -51.13 39.04 -49 37 C-48.86 36.36 -48.71 35.72 -48.56 35.06 C-47.79 32.24 -46.06 31.06 -44 29 C-43.57 28.05 -43.13 27.1 -42.69 26.12 C-40.05 21.25 -36.09 18.25 -31.38 15.44 C-28.46 13.67 -26.33 11.47 -24 9 C-23.51 9.99 -23.51 9.99 -23 11 C-22.13 10.01 -22.13 10.01 -21.25 9 C-19 7 -19 7 -15 7 C-15 6.34 -15 5.68 -15 5 C-13.02 4.27 -11.02 3.61 -9 3 C-8.34 3.33 -7.68 3.66 -7 4 C-7 3.34 -7 2.68 -7 2 C-4.69 2 -2.38 2 0 2 C0 1.34 0 0.68 0 0 Z M1031 41 C1032 43 1032 43 1032 43 Z M1034 46 C1035 49 1035 49 1035 49 Z M1037 58 C1038 60 1038 60 1038 60 Z M1209 357 C1210 359 1210 359 1210 359 Z M1202 364 C1202 364.99 1202 365.98 1202 367 C1202.99 366.67 1203.98 366.34 1205 366 C1205 365.34 1205 364.68 1205 364 C1204.01 364 1203.02 364 1202 364 Z M1186 382 C1187 384 1187 384 1187 384 Z M1184 383 C1184 383.66 1184 384.32 1184 385 C1184.66 384.67 1185.32 384.34 1186 384 C1185.34 383.67 1184.68 383.34 1184 383 Z " fill="#F0F6F7" transform="translate(60,0)"/>
<path d="M0 0 C0.87 0.75 1.74 1.5 2.64 2.28 C25.89 22.64 42.19 49.89 50.87 79.34 C51.62 82.77 51.62 82.77 53 84 C54.59 84.11 56.18 84.14 57.78 84.15 C58.81 84.16 59.84 84.17 60.91 84.18 C62.05 84.18 63.19 84.19 64.37 84.19 C65.57 84.2 66.77 84.21 68 84.21 C70.61 84.23 73.22 84.25 75.82 84.26 C79.95 84.28 84.07 84.31 88.19 84.34 C96.94 84.4 105.69 84.45 114.44 84.5 C123.88 84.56 133.32 84.61 142.76 84.68 C146.86 84.71 150.96 84.73 155.06 84.75 C158.21 84.77 161.35 84.79 164.5 84.81 C165.64 84.81 166.78 84.82 167.96 84.82 C168.99 84.83 170.03 84.84 171.1 84.85 C172 84.85 172.9 84.86 173.84 84.86 C176 85 176 85 178 86 C178.13 94.92 178.26 103.85 178.39 112.77 C178.45 116.92 178.51 121.07 178.57 125.22 C178.86 144.23 179.03 163.25 179.01 182.27 C179.01 184.2 179.01 186.13 179.01 188.06 C179.01 192.71 179 197.35 179 202 C180.45 202 180.45 202 181.93 202 C205.43 201.98 228.93 201.96 252.43 201.95 C263.8 201.94 275.16 201.94 286.53 201.92 C296.43 201.91 306.33 201.91 316.23 201.91 C321.48 201.9 326.73 201.9 331.97 201.89 C336.9 201.89 341.84 201.89 346.77 201.89 C348.59 201.89 350.4 201.88 352.22 201.88 C354.68 201.88 357.15 201.88 359.62 201.88 C360.35 201.88 361.07 201.87 361.82 201.87 C366.77 201.89 366.77 201.89 369 203 C369 493.4 369 783.8 369 1083 C213.57 1083 58.14 1083 -102 1083 C-102.74 1079.32 -103.13 1076.57 -103.13 1072.91 C-103.13 1071.91 -103.13 1070.91 -103.14 1069.88 C-103.13 1068.25 -103.13 1068.25 -103.13 1066.59 C-103.13 1064.86 -103.13 1064.86 -103.13 1063.09 C-103.14 1059.28 -103.14 1055.47 -103.13 1051.66 C-103.13 1049.01 -103.13 1046.36 -103.14 1043.71 C-103.14 1038.16 -103.14 1032.61 -103.13 1027.06 C-103.12 1020.64 -103.13 1014.23 -103.13 1007.82 C-103.14 1002.31 -103.14 996.79 -103.13 991.28 C-103.13 987.99 -103.13 984.7 -103.14 981.41 C-103.14 977.75 -103.13 974.08 -103.13 970.41 C-103.13 969.33 -103.13 968.24 -103.14 967.12 C-103.13 966.12 -103.13 965.12 -103.13 964.09 C-103.13 962.79 -103.13 962.79 -103.13 961.46 C-102.99 958.89 -102.57 956.51 -102 954 C-105.02 952.49 -108.14 952.85 -111.45 952.85 C-112.22 952.84 -113 952.84 -113.8 952.84 C-116.42 952.82 -119.04 952.82 -121.65 952.81 C-123.52 952.8 -125.39 952.79 -127.26 952.79 C-131.3 952.77 -135.33 952.75 -139.37 952.74 C-145.74 952.72 -152.11 952.69 -158.49 952.66 C-173.16 952.6 -187.84 952.54 -202.52 952.49 C-215.97 952.44 -229.42 952.38 -242.87 952.32 C-249.21 952.29 -255.56 952.27 -261.9 952.25 C-265.83 952.24 -269.77 952.22 -273.71 952.2 C-275.54 952.19 -277.37 952.19 -279.21 952.18 C-281.7 952.18 -284.19 952.17 -286.68 952.15 C-287.42 952.15 -288.15 952.15 -288.91 952.15 C-293.89 952.11 -293.89 952.11 -295 951 C-295.09 948.73 -295.12 946.46 -295.11 944.19 C-295.11 943.47 -295.11 942.76 -295.11 942.03 C-295.11 939.66 -295.11 937.3 -295.1 934.93 C-295.1 933.3 -295.09 931.66 -295.09 930.03 C-295.09 925.72 -295.08 921.4 -295.07 917.09 C-295.06 912.69 -295.05 908.3 -295.05 903.9 C-295.04 895.27 -295.02 886.63 -295 878 C-291.99 876.49 -288.89 876.87 -285.58 876.88 C-284.81 876.88 -284.04 876.88 -283.24 876.88 C-280.63 876.88 -278.03 876.88 -275.42 876.89 C-273.56 876.89 -271.7 876.89 -269.84 876.89 C-264.77 876.89 -259.7 876.89 -254.63 876.9 C-249.34 876.9 -244.05 876.91 -238.76 876.91 C-228.73 876.91 -218.7 876.92 -208.68 876.93 C-197.27 876.94 -185.85 876.94 -174.44 876.95 C-150.96 876.96 -127.48 876.98 -104 877 C-103.76 875.13 -103.76 875.13 -103.51 873.23 C-103.42 872.53 -103.33 871.83 -103.23 871.1 C-102.88 867.95 -102.87 864.81 -102.87 861.64 C-102.87 860.95 -102.87 860.26 -102.87 859.56 C-102.86 857.31 -102.86 855.07 -102.87 852.83 C-102.87 851.26 -102.87 849.69 -102.86 848.12 C-102.86 844.84 -102.86 841.56 -102.87 838.28 C-102.88 834.08 -102.87 829.88 -102.87 825.69 C-102.86 822.45 -102.86 819.21 -102.87 815.97 C-102.87 814.42 -102.87 812.88 -102.86 811.33 C-102.86 809.17 -102.87 807.01 -102.87 804.84 C-102.87 803.62 -102.87 802.39 -102.87 801.12 C-102.98 798.54 -103.23 796.45 -104 794 C-107.79 792.78 -111.55 792.87 -115.49 792.89 C-116.25 792.89 -117.01 792.89 -117.79 792.89 C-120.33 792.9 -122.87 792.91 -125.4 792.92 C-127.22 792.92 -129.04 792.92 -130.86 792.93 C-134.78 792.93 -138.7 792.94 -142.62 792.96 C-148.82 792.97 -155.01 792.98 -161.2 792.99 C-178.81 793.02 -196.42 793.05 -214.03 793.1 C-223.75 793.12 -233.48 793.14 -243.2 793.15 C-249.36 793.15 -255.53 793.17 -261.69 793.19 C-265.51 793.2 -269.34 793.21 -273.16 793.21 C-274.94 793.21 -276.72 793.22 -278.5 793.22 C-280.92 793.24 -283.34 793.24 -285.76 793.23 C-286.47 793.24 -287.19 793.25 -287.92 793.25 C-292.77 793.23 -292.77 793.23 -295 791 C-295 766.91 -295 742.82 -295 718 C-199.47 717.5 -199.47 717.5 -102 717 C-102.33 713.04 -102.66 709.08 -103 705 C-103 681.9 -103 658.8 -103 635 C-166.03 635 -229.06 635 -294 635 C-302.12 610.65 -295 583.67 -295 558 C-231.64 558 -168.28 558 -103 558 C-103 530.61 -103 503.22 -103 475 C-166.03 474.67 -229.06 474.34 -294 474 C-296.1 469.8 -296.25 467.95 -296.24 463.35 C-296.24 462.69 -296.25 462.03 -296.25 461.35 C-296.25 459.18 -296.24 457.01 -296.23 454.84 C-296.23 453.33 -296.23 451.82 -296.23 450.3 C-296.23 447.14 -296.22 443.98 -296.21 440.81 C-296.19 436.75 -296.18 432.7 -296.19 428.64 C-296.19 425.52 -296.18 422.4 -296.17 419.28 C-296.17 417.78 -296.17 416.28 -296.17 414.79 C-296.16 412.7 -296.16 410.61 -296.15 408.52 C-296.14 406.74 -296.14 406.74 -296.13 404.92 C-296 402 -296 402 -295 399 C-200.46 398.5 -200.46 398.5 -104 398 C-103.35 394.07 -102.88 391 -102.88 387.14 C-102.88 386.22 -102.88 385.29 -102.88 384.34 C-102.88 383.34 -102.88 382.34 -102.89 381.31 C-102.89 379.72 -102.89 379.72 -102.89 378.09 C-102.89 374.58 -102.89 371.08 -102.9 367.57 C-102.9 365.14 -102.91 362.7 -102.91 360.26 C-102.91 353.86 -102.92 347.46 -102.93 341.06 C-102.94 334.52 -102.95 327.99 -102.95 321.45 C-102.96 308.64 -102.98 295.82 -103 283 C-103.66 283 -104.32 283 -105 283 C-105 282.34 -105 281.68 -105 281 C-105.71 281.03 -106.41 281.07 -107.14 281.11 C-144.67 282.1 -182.55 265.47 -209.76 240.09 C-211.85 238.14 -214 236.28 -216.19 234.44 C-220.19 230.93 -223.63 227.12 -227 223 C-228.16 221.6 -228.16 221.6 -229.34 220.16 C-235.95 211.99 -241.17 203.31 -246 194 C-246.47 193.1 -246.94 192.2 -247.43 191.28 C-265.78 153.56 -267.38 109.76 -254.08 70.28 C-245.77 46.79 -232.53 26.63 -215 9 C-214.5 8.49 -214 7.99 -213.48 7.47 C-156.89 -48.81 -60.16 -53.55 0 0 Z " fill="#E0E1E9" transform="translate(733,197)"/>
<path d="M0 0 C52.1 -0.07 104.19 -0.12 156.29 -0.15 C162.43 -0.16 168.58 -0.16 174.73 -0.16 C175.96 -0.17 177.18 -0.17 178.44 -0.17 C198.27 -0.18 218.1 -0.2 237.92 -0.23 C258.26 -0.26 278.6 -0.28 298.94 -0.28 C311.5 -0.29 324.05 -0.3 336.61 -0.32 C345.21 -0.34 353.82 -0.34 362.42 -0.34 C367.39 -0.34 372.36 -0.34 377.32 -0.36 C381.87 -0.37 386.42 -0.37 390.97 -0.36 C392.61 -0.36 394.25 -0.37 395.9 -0.37 C410.9 -0.46 410.9 -0.46 418 3 C419.45 3.39 420.91 3.75 422.38 4.06 C426 5 426 5 428 7 C429.92 8.13 431.86 9.23 433.81 10.31 C438.26 12.87 441.62 15.19 445 19 C445.76 19.54 446.53 20.07 447.31 20.62 C448.15 21.31 448.15 21.31 449 22 C449 22.99 449 23.98 449 25 C449.99 25.33 450.98 25.66 452 26 C464 39.08 464 39.08 464 45 C464.66 45 465.32 45 466 45 C467.89 50.33 469.45 55.6 470.57 61.15 C470.94 63.08 470.94 63.08 472 65 C472.11 67.27 472.15 69.54 472.16 71.81 C472.16 72.52 472.17 73.22 472.17 73.95 C472.19 76.34 472.2 78.72 472.21 81.11 C472.21 82.81 472.22 84.52 472.24 86.22 C472.26 90.86 472.28 95.5 472.3 100.14 C472.33 104.98 472.35 109.82 472.38 114.67 C472.43 123.84 472.47 133.02 472.52 142.2 C472.57 152.64 472.62 163.08 472.68 173.53 C472.79 195.02 472.9 216.51 473 238 C474.31 238.01 475.61 238.02 476.96 238.02 C489.29 238.1 501.61 238.19 513.94 238.29 C520.28 238.34 526.62 238.38 532.96 238.42 C539.08 238.46 545.2 238.51 551.32 238.56 C553.65 238.58 555.98 238.59 558.31 238.6 C561.59 238.62 564.86 238.65 568.13 238.68 C569.09 238.68 570.04 238.69 571.03 238.69 C587.83 238.89 605.81 243.84 618.27 255.45 C620.03 257.13 620.03 257.13 622.56 258.5 C627.98 261.83 631.91 266.5 635 272 C635.99 273.3 636.99 274.59 638 275.88 C641.29 280.21 644 284.4 644 290 C644.66 290 645.32 290 646 290 C646.12 290.7 646.24 291.4 646.37 292.12 C646.62 293.48 646.62 293.48 646.88 294.88 C647.04 295.78 647.2 296.68 647.37 297.62 C647.83 300.17 647.83 300.17 650 302 C650.2 304.62 650.28 307.13 650.27 309.75 C650.27 310.9 650.27 310.9 650.27 312.07 C650.27 313.69 650.27 315.32 650.26 316.94 C650.25 319.42 650.26 321.91 650.27 324.39 C650.27 325.97 650.27 327.54 650.27 329.12 C650.27 329.86 650.27 330.61 650.28 331.38 C650.24 335.13 650.13 336.8 648 340 C647.56 341.56 647.12 343.12 646.7 344.69 C645.77 347.78 644.68 350.79 643.56 353.81 C643.15 354.93 642.74 356.05 642.32 357.21 C641 360 641 360 638 362 C637.54 363.16 637.54 363.16 637.07 364.34 C635.04 369.39 630.62 372.85 626.81 376.62 C625.97 377.48 625.14 378.34 624.27 379.23 C619.78 383.72 616.1 387.07 610 389 C610 388.34 610 387.68 610 387 C609.01 387 608.02 387 607 387 C607 387.99 607 388.98 607 390 C607.66 390.33 608.32 390.66 609 391 C606.69 391.33 604.38 391.66 602 392 C601.67 392.99 601.34 393.98 601 395 C599.68 394.67 598.36 394.34 597 394 C597 394.66 597 395.32 597 396 C596.29 396.13 595.58 396.27 594.85 396.4 C593.93 396.58 593.01 396.76 592.06 396.94 C591.15 397.11 590.23 397.29 589.29 397.46 C587.05 397.78 587.05 397.78 586 399 C583.4 399.13 580.82 399.2 578.22 399.22 C577.39 399.23 576.55 399.24 575.7 399.26 C572.84 399.29 569.99 399.32 567.14 399.35 C565.05 399.38 562.97 399.4 560.88 399.42 C555.05 399.49 549.22 399.54 543.4 399.59 C539.69 399.62 535.99 399.66 532.29 399.69 C448.86 400.45 365.43 399.59 282 399 C281.86 393.39 281.72 387.78 281.58 382.17 C281.53 380.27 281.48 378.37 281.43 376.47 C280.95 357.59 280.88 338.71 280.93 319.81 C280.94 315.63 280.95 311.44 280.95 307.25 C280.96 299.17 280.98 291.08 281 283 C280.36 283 279.72 282.99 279.05 282.99 C263.44 282.91 247.82 282.82 232.21 282.71 C224.66 282.66 217.11 282.62 209.56 282.58 C202.98 282.55 196.4 282.51 189.82 282.46 C186.33 282.43 182.85 282.41 179.36 282.4 C175.47 282.38 171.59 282.35 167.7 282.32 C165.96 282.32 165.96 282.32 164.18 282.31 C163.13 282.3 162.07 282.29 160.99 282.28 C160.07 282.27 159.15 282.27 158.2 282.26 C156 282 156 282 154 280 C153.26 278.1 153.26 278.1 152.55 275.77 C152.29 274.91 152.02 274.06 151.74 273.17 C151.46 272.25 151.17 271.33 150.88 270.38 C138.28 231.42 110.52 197.39 74.29 178.13 C50.72 166.14 26.24 161.12 0 160 C-1.37 157.26 -1.13 155.09 -1.13 152.03 C-1.13 150.76 -1.13 149.48 -1.14 148.17 C-1.13 146.75 -1.13 145.33 -1.13 143.92 C-1.13 142.43 -1.13 140.94 -1.13 139.45 C-1.14 135.4 -1.14 131.35 -1.13 127.3 C-1.13 123.07 -1.13 118.83 -1.14 114.59 C-1.14 107.47 -1.14 100.36 -1.13 93.24 C-1.12 85.01 -1.13 76.78 -1.13 68.56 C-1.14 61.5 -1.14 54.44 -1.13 47.38 C-1.13 43.16 -1.13 38.94 -1.14 34.72 C-1.14 30.75 -1.14 26.78 -1.13 22.82 C-1.13 21.36 -1.13 19.9 -1.13 18.45 C-1.14 16.46 -1.13 14.47 -1.13 12.48 C-1.13 11.37 -1.13 10.25 -1.13 9.11 C-1 5.99 -0.54 3.07 0 0 Z M461 41 C462 43 462 43 462 43 Z M464 46 C465 49 465 49 465 49 Z M467 58 C468 60 468 60 468 60 Z M639 357 C640 359 640 359 640 359 Z M632 364 C632 364.99 632 365.98 632 367 C632.99 366.67 633.98 366.34 635 366 C635 365.34 635 364.68 635 364 C634.01 364 633.02 364 632 364 Z M616 382 C617 384 617 384 617 384 Z M614 383 C614 383.66 614 384.32 614 385 C614.66 384.67 615.32 384.34 616 384 C615.34 383.67 614.68 383.34 614 383 Z " fill="#E0E1E9" transform="translate(630,0)"/>
<path d="M0 0 C13.78 0.08 27.56 0.18 41.34 0.29 C47.73 0.34 54.13 0.38 60.53 0.42 C66.71 0.46 72.89 0.51 79.07 0.56 C81.42 0.58 83.77 0.59 86.13 0.6 C89.43 0.62 92.74 0.65 96.04 0.68 C97.01 0.68 97.97 0.69 98.97 0.69 C115.8 0.89 133.79 5.82 146.27 17.45 C148.03 19.13 148.03 19.13 150.56 20.5 C155.98 23.83 159.91 28.5 163 34 C163.99 35.3 164.99 36.59 166 37.88 C169.29 42.21 172 46.4 172 52 C172.66 52 173.32 52 174 52 C174.12 52.7 174.24 53.4 174.37 54.12 C174.53 55.03 174.7 55.94 174.88 56.88 C175.04 57.78 175.2 58.68 175.37 59.62 C175.83 62.17 175.83 62.17 178 64 C178.2 66.62 178.28 69.13 178.27 71.75 C178.27 72.51 178.27 73.28 178.27 74.07 C178.27 75.69 178.27 77.32 178.26 78.94 C178.25 81.42 178.26 83.91 178.27 86.39 C178.27 87.97 178.27 89.54 178.27 91.12 C178.27 91.86 178.27 92.61 178.28 93.38 C178.24 97.13 178.13 98.8 176 102 C175.56 103.56 175.12 105.12 174.7 106.69 C173.77 109.78 172.68 112.79 171.56 115.81 C171.15 116.93 170.74 118.05 170.32 119.21 C169 122 169 122 166 124 C165.54 125.16 165.54 125.16 165.07 126.34 C163.04 131.39 158.62 134.85 154.81 138.62 C153.97 139.48 153.14 140.34 152.27 141.23 C147.78 145.72 144.1 149.07 138 151 C138 150.34 138 149.68 138 149 C137.01 149 136.02 149 135 149 C135 149.99 135 150.98 135 152 C135.66 152.33 136.32 152.66 137 153 C134.69 153.33 132.38 153.66 130 154 C129.67 154.99 129.34 155.98 129 157 C127.68 156.67 126.36 156.34 125 156 C125 156.66 125 157.32 125 158 C124.29 158.13 123.58 158.27 122.85 158.4 C121.93 158.58 121.01 158.76 120.06 158.94 C119.15 159.11 118.23 159.29 117.29 159.46 C115.05 159.78 115.05 159.78 114 161 C111.4 161.13 108.82 161.2 106.22 161.22 C104.97 161.24 104.97 161.24 103.7 161.26 C100.84 161.29 97.99 161.32 95.14 161.35 C93.05 161.38 90.97 161.4 88.88 161.42 C83.05 161.49 77.22 161.54 71.4 161.59 C67.69 161.62 63.99 161.66 60.29 161.69 C-23.14 162.45 -106.57 161.59 -190 161 C-190.14 155.39 -190.28 149.78 -190.42 144.17 C-190.47 142.27 -190.52 140.37 -190.57 138.47 C-191.05 119.59 -191.12 100.71 -191.07 81.81 C-191.06 77.63 -191.05 73.44 -191.05 69.25 C-191.04 61.17 -191.02 53.08 -191 45 C-191.66 44.67 -192.32 44.34 -193 44 C-192.01 44 -191.02 44 -190 44 C-190 30.14 -190 16.28 -190 2 C-127.3 2 -64.6 2 0 2 C0 1.34 0 0.68 0 0 Z M167 119 C168 121 168 121 168 121 Z M160 126 C160 126.99 160 127.98 160 129 C160.99 128.67 161.98 128.34 163 128 C163 127.34 163 126.68 163 126 C162.01 126 161.02 126 160 126 Z M144 144 C145 146 145 146 145 146 Z M142 145 C142 145.66 142 146.32 142 147 C142.66 146.67 143.32 146.34 144 146 C143.34 145.67 142.68 145.34 142 145 Z " fill="#FBD34F" transform="translate(1102,238)"/>
<path d="M0 0 C38.12 1.21 75.03 12.21 104 38 C104.87 38.75 105.74 39.5 106.64 40.28 C129.89 60.64 146.19 87.89 154.87 117.34 C155.62 120.77 155.62 120.77 157 122 C158.59 122.11 160.18 122.14 161.78 122.15 C162.81 122.16 163.84 122.17 164.91 122.18 C166.05 122.18 167.19 122.19 168.37 122.19 C169.57 122.2 170.77 122.21 172 122.21 C174.61 122.23 177.22 122.25 179.82 122.26 C183.95 122.28 188.07 122.31 192.19 122.34 C200.94 122.4 209.69 122.45 218.44 122.5 C227.88 122.56 237.32 122.61 246.76 122.68 C250.86 122.71 254.96 122.73 259.06 122.75 C262.21 122.77 265.35 122.79 268.5 122.81 C269.64 122.81 270.78 122.82 271.96 122.82 C272.99 122.83 274.03 122.84 275.1 122.85 C276 122.85 276.9 122.86 277.84 122.86 C280 123 280 123 282 124 C282 148.42 282 172.84 282 198 C240.42 198 198.84 198 156 198 C154.68 203.28 153.36 208.56 152 214 C150 219.5 147.56 224.75 145 230 C144.45 231.12 143.91 232.25 143.34 233.4 C124.89 269.31 91.24 299.09 52.79 311.79 C13.12 324.06 13.12 324.06 1 318 C1 317.33 1 316.67 1 315.98 C1.02 276.58 1.04 237.17 1.05 197.77 C1.05 193.04 1.05 188.31 1.05 183.58 C1.06 182.64 1.06 181.7 1.06 180.73 C1.06 165.47 1.07 150.22 1.08 134.96 C1.09 119.32 1.09 103.67 1.09 88.03 C1.1 78.37 1.1 68.71 1.11 59.05 C1.11 52.43 1.11 45.81 1.11 39.2 C1.11 35.37 1.11 31.55 1.12 27.73 C1.12 23.59 1.12 19.46 1.12 15.32 C1.12 14.1 1.13 12.89 1.13 11.63 C1.13 10.53 1.13 9.43 1.12 8.29 C1.12 7.33 1.12 6.38 1.12 5.39 C1.1 2.85 1.1 2.85 0 0 Z " fill="#97ABFC" transform="translate(629,159)"/>
<path d="M0 0 C12.87 0 25.74 0 39 0 C39 0.66 39 1.32 39 2 C39.67 2.15 40.33 2.29 41.02 2.45 C52.3 5.19 61.17 10.58 70 18 C70.73 18.58 71.46 19.17 72.21 19.77 C90.23 34.79 97.29 54.36 99.6 77.15 C100.29 84.81 100.27 92.46 100.24 100.15 C100.24 101.88 100.25 103.61 100.25 105.34 C100.25 109.99 100.25 114.63 100.24 119.27 C100.23 124.17 100.23 129.06 100.23 133.96 C100.23 142.16 100.22 150.37 100.21 158.58 C100.19 168.04 100.18 177.49 100.19 186.95 C100.19 197.07 100.18 207.2 100.17 217.32 C100.17 220.21 100.17 223.11 100.17 226 C100.17 230.56 100.16 235.13 100.15 239.69 C100.15 241.36 100.15 243.02 100.15 244.68 C100.15 246.97 100.14 249.27 100.13 251.56 C100.13 252.84 100.13 254.11 100.13 255.42 C99.94 261.96 99.43 268.48 99 275 C46.53 275 -5.94 275 -60 275 C-60.04 221.71 -60.04 221.71 -60.05 199.43 C-60.05 184.03 -60.06 168.63 -60.08 153.23 C-60.09 142.02 -60.09 130.8 -60.09 119.59 C-60.1 113.65 -60.1 107.7 -60.11 101.76 C-60.11 96.18 -60.11 90.59 -60.11 85 C-60.11 82.95 -60.12 80.89 -60.12 78.84 C-60.12 76.04 -60.12 73.24 -60.12 70.45 C-60.12 69.63 -60.13 68.81 -60.13 67.96 C-60.12 64.71 -60.04 62.11 -59 59 C-58.65 57 -58.31 55 -58 53 C-57.34 53 -56.68 53 -56 53 C-56.33 51.68 -56.66 50.36 -57 49 C-56.34 49 -55.68 49 -55 49 C-55 47.68 -55 46.36 -55 45 C-54.34 45 -53.68 45 -53 45 C-52.9 44.24 -52.79 43.47 -52.69 42.69 C-51.93 39.73 -51.13 39.04 -49 37 C-48.86 36.36 -48.71 35.72 -48.56 35.06 C-47.79 32.24 -46.06 31.06 -44 29 C-43.57 28.05 -43.13 27.1 -42.69 26.12 C-40.05 21.25 -36.09 18.25 -31.38 15.44 C-28.46 13.67 -26.33 11.47 -24 9 C-23.51 9.99 -23.51 9.99 -23 11 C-22.13 10.01 -22.13 10.01 -21.25 9 C-19 7 -19 7 -15 7 C-15 6.34 -15 5.68 -15 5 C-13.02 4.27 -11.02 3.61 -9 3 C-8.34 3.33 -7.68 3.66 -7 4 C-7 3.34 -7 2.68 -7 2 C-4.69 2 -2.38 2 0 2 C0 1.34 0 0.68 0 0 Z " fill="#DFE0E8" transform="translate(60,0)"/>
<path d="M0 0 C51.47 -0.02 102.94 -0.03 154.4 -0.04 C155.16 -0.04 155.93 -0.04 156.71 -0.04 C173.25 -0.05 189.79 -0.05 206.33 -0.05 C214.44 -0.05 222.55 -0.05 230.66 -0.05 C231.47 -0.06 232.27 -0.06 233.1 -0.06 C259.29 -0.06 285.47 -0.07 311.66 -0.08 C338.55 -0.09 365.45 -0.09 392.34 -0.09 C396.14 -0.09 399.93 -0.09 403.73 -0.09 C404.47 -0.09 405.22 -0.1 405.99 -0.1 C418.04 -0.1 430.08 -0.1 442.13 -0.11 C454.23 -0.11 466.32 -0.11 478.42 -0.11 C484.98 -0.11 491.54 -0.11 498.1 -0.12 C504.09 -0.12 510.09 -0.12 516.08 -0.12 C518.26 -0.12 520.44 -0.12 522.62 -0.12 C525.56 -0.13 528.5 -0.13 531.44 -0.12 C532.31 -0.13 533.17 -0.13 534.06 -0.13 C539.89 -0.11 539.89 -0.11 541 1 C541 25.42 541 49.84 541 75 C362.8 75 184.6 75 1 75 C-1.1 70.8 -1.25 68.95 -1.24 64.35 C-1.24 63.69 -1.25 63.03 -1.25 62.35 C-1.25 60.18 -1.24 58.01 -1.23 55.84 C-1.23 54.33 -1.23 52.82 -1.23 51.3 C-1.23 48.14 -1.22 44.98 -1.21 41.81 C-1.19 37.75 -1.18 33.7 -1.19 29.64 C-1.19 26.52 -1.18 23.4 -1.17 20.28 C-1.17 18.78 -1.17 17.28 -1.17 15.79 C-1.16 13.7 -1.16 11.61 -1.15 9.52 C-1.14 7.74 -1.14 7.74 -1.13 5.92 C-1 3 -1 3 0 0 Z " fill="#52459B" transform="translate(438,596)"/>
<path d="M0 0 C51.47 -0.02 102.94 -0.03 154.4 -0.04 C155.16 -0.04 155.93 -0.04 156.71 -0.04 C173.25 -0.05 189.79 -0.05 206.33 -0.05 C214.44 -0.05 222.55 -0.05 230.66 -0.05 C231.47 -0.06 232.27 -0.06 233.1 -0.06 C259.29 -0.06 285.47 -0.07 311.66 -0.08 C338.55 -0.09 365.45 -0.09 392.34 -0.09 C396.14 -0.09 399.93 -0.09 403.73 -0.09 C404.47 -0.09 405.22 -0.1 405.99 -0.1 C418.04 -0.1 430.08 -0.1 442.13 -0.11 C454.23 -0.11 466.32 -0.11 478.42 -0.11 C484.98 -0.11 491.54 -0.11 498.1 -0.12 C504.09 -0.12 510.09 -0.12 516.08 -0.12 C518.26 -0.12 520.44 -0.12 522.62 -0.12 C525.56 -0.13 528.5 -0.13 531.44 -0.12 C532.31 -0.13 533.17 -0.13 534.06 -0.13 C539.89 -0.11 539.89 -0.11 541 1 C541.09 3.34 541.13 5.66 541.11 8 C541.11 8.73 541.11 9.46 541.11 10.22 C541.11 12.64 541.11 15.07 541.1 17.5 C541.1 19.18 541.09 20.86 541.09 22.54 C541.09 26.97 541.08 31.41 541.07 35.84 C541.06 40.35 541.05 44.87 541.05 49.39 C541.04 58.26 541.02 67.13 541 76 C489.53 75.92 438.06 75.84 386.6 75.76 C385.84 75.76 385.07 75.75 384.29 75.75 C367.75 75.72 351.21 75.7 334.67 75.67 C326.56 75.66 318.45 75.64 310.34 75.63 C309.53 75.63 308.73 75.62 307.9 75.62 C281.71 75.58 255.53 75.54 229.34 75.5 C202.45 75.46 175.55 75.41 148.66 75.37 C144.86 75.36 141.07 75.35 137.27 75.35 C136.15 75.35 136.15 75.35 135.01 75.34 C122.96 75.32 110.92 75.3 98.87 75.29 C86.77 75.27 74.68 75.25 62.58 75.23 C56.02 75.21 49.46 75.2 42.9 75.2 C36.91 75.19 30.91 75.18 24.92 75.16 C22.74 75.16 20.56 75.16 18.38 75.16 C15.44 75.16 12.5 75.15 9.56 75.14 C8.69 75.14 7.83 75.14 6.94 75.14 C1.11 75.11 1.11 75.11 0 74 C-0.09 71.7 -0.12 69.4 -0.11 67.09 C-0.11 66.37 -0.11 65.65 -0.11 64.91 C-0.11 62.51 -0.11 60.11 -0.1 57.71 C-0.1 56.06 -0.09 54.4 -0.09 52.74 C-0.09 48.37 -0.08 44 -0.07 39.63 C-0.06 35.17 -0.05 30.71 -0.05 26.26 C-0.04 17.5 -0.02 8.75 0 0 Z " fill="#52459B" transform="translate(438,755)"/>
<path d="M0 0 C0.91 -0 1.82 -0 2.76 -0 C5.84 -0.01 8.93 -0 12.01 -0 C14.23 -0 16.45 -0 18.67 -0.01 C24.8 -0.01 30.93 -0.01 37.06 -0 C42.98 -0 48.9 -0.01 54.82 -0.01 C67.68 -0.01 80.55 -0.01 93.41 -0.01 C104.67 -0.01 115.92 -0.01 127.18 -0.01 C127.92 -0.01 128.67 -0.01 129.44 -0.01 C132.46 -0.01 135.49 -0.01 138.52 -0.01 C166.93 -0.01 195.33 -0.01 223.74 -0 C249.01 0 274.27 0 299.53 -0 C327.89 -0.01 356.24 -0.01 384.6 -0.01 C387.62 -0.01 390.64 -0.01 393.66 -0.01 C394.41 -0.01 395.15 -0.01 395.92 -0.01 C407.17 -0.01 418.42 -0.01 429.67 -0.01 C442.46 -0.01 455.25 -0.01 468.04 -0.01 C474.57 -0 481.1 -0 487.63 -0.01 C493.6 -0.01 499.57 -0.01 505.54 -0 C507.71 -0 509.88 -0 512.05 -0 C514.98 -0.01 517.91 -0 520.83 0 C521.69 -0 522.55 -0 523.44 -0.01 C529.24 0.01 529.24 0.01 530.35 1.13 C530.45 3.43 530.47 5.73 530.47 8.03 C530.47 8.75 530.47 9.48 530.47 10.22 C530.47 12.62 530.46 15.01 530.45 17.41 C530.45 19.07 530.45 20.73 530.45 22.38 C530.44 26.76 530.43 31.13 530.42 35.5 C530.41 39.96 530.41 44.41 530.4 48.87 C530.39 57.62 530.38 66.37 530.35 75.13 C478.89 75.14 427.42 75.16 375.95 75.17 C375.19 75.17 374.43 75.17 373.64 75.17 C357.11 75.17 340.57 75.17 324.03 75.18 C315.92 75.18 307.81 75.18 299.7 75.18 C298.89 75.18 298.08 75.18 297.25 75.18 C271.07 75.19 244.88 75.19 218.7 75.2 C191.8 75.21 164.91 75.22 138.01 75.22 C134.22 75.22 130.42 75.22 126.63 75.22 C125.88 75.22 125.13 75.22 124.36 75.22 C112.32 75.22 100.27 75.23 88.22 75.23 C76.13 75.24 64.03 75.24 51.94 75.24 C45.38 75.24 38.82 75.24 32.26 75.25 C26.26 75.25 20.27 75.25 14.27 75.25 C12.09 75.25 9.91 75.25 7.74 75.25 C4.79 75.25 1.85 75.25 -1.09 75.25 C-1.95 75.25 -2.82 75.25 -3.71 75.26 C-9.53 75.24 -9.53 75.24 -10.65 74.13 C-10.74 71.86 -10.76 69.58 -10.76 67.31 C-10.76 66.6 -10.76 65.89 -10.76 65.15 C-10.76 62.79 -10.75 60.42 -10.74 58.06 C-10.74 56.42 -10.74 54.79 -10.74 53.15 C-10.73 48.84 -10.73 44.53 -10.71 40.22 C-10.7 35.82 -10.7 31.42 -10.69 27.03 C-10.68 18.39 -10.67 9.76 -10.65 1.13 C-7.33 -0.53 -3.64 -0.01 0 0 Z " fill="#52459B" transform="translate(448.64544773101807,1073.874158859253)"/>
<path d="M0 0 C51.47 -0.02 102.94 -0.03 154.4 -0.04 C155.16 -0.04 155.93 -0.04 156.71 -0.04 C173.25 -0.05 189.79 -0.05 206.33 -0.05 C214.44 -0.05 222.55 -0.05 230.66 -0.05 C231.47 -0.06 232.27 -0.06 233.1 -0.06 C259.29 -0.06 285.47 -0.07 311.66 -0.08 C338.55 -0.09 365.45 -0.09 392.34 -0.09 C396.14 -0.09 399.93 -0.09 403.73 -0.09 C404.47 -0.09 405.22 -0.1 405.99 -0.1 C418.04 -0.1 430.08 -0.1 442.13 -0.11 C454.23 -0.11 466.32 -0.11 478.42 -0.11 C484.98 -0.11 491.54 -0.11 498.1 -0.12 C504.09 -0.12 510.09 -0.12 516.08 -0.12 C518.26 -0.12 520.44 -0.12 522.62 -0.12 C525.56 -0.13 528.5 -0.13 531.44 -0.12 C532.31 -0.13 533.17 -0.13 534.06 -0.13 C539.89 -0.11 539.89 -0.11 541 1 C541.09 3.3 541.12 5.6 541.11 7.91 C541.11 8.63 541.11 9.35 541.11 10.09 C541.11 12.49 541.11 14.89 541.1 17.29 C541.1 18.94 541.09 20.6 541.09 22.26 C541.09 26.63 541.08 31 541.07 35.37 C541.06 39.83 541.05 44.29 541.05 48.74 C541.04 57.5 541.02 66.25 541 75 C489.64 75.03 438.28 75.07 386.92 75.08 C386.17 75.08 385.41 75.09 384.62 75.09 C368.12 75.09 351.61 75.1 335.11 75.1 C327.01 75.1 318.92 75.11 310.82 75.11 C309.62 75.11 309.62 75.11 308.38 75.11 C282.25 75.12 256.13 75.13 230 75.15 C203.16 75.17 176.32 75.18 149.48 75.19 C145.69 75.19 141.9 75.19 138.12 75.19 C137 75.19 137 75.19 135.86 75.19 C123.84 75.19 111.82 75.2 99.8 75.21 C87.72 75.23 75.65 75.23 63.58 75.23 C57.04 75.23 50.49 75.23 43.94 75.24 C37.96 75.25 31.98 75.25 25.99 75.24 C23.82 75.24 21.65 75.24 19.47 75.25 C16.54 75.26 13.6 75.25 10.66 75.25 C9.37 75.25 9.37 75.25 8.06 75.26 C2.23 75.23 2.23 75.23 0 73 C-0.24 69.99 -0.24 69.99 -0.23 66.07 C-0.23 65.36 -0.23 64.65 -0.23 63.91 C-0.23 61.55 -0.21 59.2 -0.2 56.84 C-0.19 55.2 -0.19 53.57 -0.19 51.93 C-0.18 47.63 -0.16 43.33 -0.14 39.02 C-0.12 34.63 -0.11 30.24 -0.1 25.85 C-0.08 17.23 -0.04 8.62 0 0 Z " fill="#52459B" transform="translate(438,915)"/>
<path d="M0 0 C2 2 2 2 2.25 4.27 C2.25 5.23 2.25 6.19 2.25 7.18 C2.25 8.29 2.25 9.39 2.26 10.53 C2.25 11.75 2.25 12.98 2.24 14.24 C2.24 15.53 2.24 16.82 2.25 18.15 C2.25 21.75 2.24 25.35 2.23 28.95 C2.22 32.82 2.23 36.7 2.23 40.58 C2.23 47.29 2.22 54.01 2.21 60.73 C2.2 70.45 2.19 80.16 2.19 89.88 C2.18 105.64 2.17 121.4 2.15 137.16 C2.13 152.47 2.12 167.79 2.11 183.1 C2.11 184.04 2.11 184.99 2.11 185.96 C2.11 190.69 2.1 195.42 2.1 200.16 C2.08 239.44 2.04 278.72 2 318 C-17.86 324.62 -50.2 311.84 -67.99 303.02 C-81.75 296.03 -94.46 287.63 -105.76 277.09 C-107.85 275.14 -110 273.28 -112.19 271.44 C-116.19 267.93 -119.63 264.12 -123 260 C-124.16 258.6 -124.16 258.6 -125.34 257.16 C-131.95 248.99 -137.17 240.31 -142 231 C-142.47 230.1 -142.94 229.2 -143.43 228.28 C-161.78 190.56 -163.38 146.76 -150.08 107.28 C-141.77 83.79 -128.53 63.63 -111 46 C-110.5 45.49 -110 44.99 -109.48 44.47 C-82.37 17.5 -39.18 -4.45 0 0 Z " fill="#AACFFC" transform="translate(629,160)"/>
<path d="M0 0 C24.58 -0.03 49.17 -0.05 73.75 -0.06 C74.74 -0.06 75.72 -0.06 76.73 -0.06 C171.79 -0.1 266.85 0.17 373.92 0.49 C376.95 0.5 379.97 0.51 382.99 0.52 C434.99 0.67 487 0.83 539 1 C539 1.33 539 1.66 539 2 C424.82 2 310.64 2 193 2 C193 26.09 193 50.18 193 75 C167.98 75.02 142.97 75.04 117.95 75.05 C106.34 75.06 94.72 75.06 83.11 75.08 C72.99 75.09 62.87 75.09 52.75 75.09 C47.39 75.1 42.03 75.1 36.66 75.11 C31.62 75.11 26.58 75.11 21.54 75.11 C19.69 75.11 17.83 75.12 15.98 75.12 C13.45 75.12 10.93 75.12 8.41 75.12 C7.29 75.12 7.29 75.12 6.15 75.13 C1.11 75.11 1.11 75.11 0 74 C-0.09 71.7 -0.12 69.4 -0.11 67.09 C-0.11 66.37 -0.11 65.65 -0.11 64.91 C-0.11 62.51 -0.11 60.11 -0.1 57.71 C-0.1 56.06 -0.09 54.4 -0.09 52.74 C-0.09 48.37 -0.08 44 -0.07 39.63 C-0.06 35.17 -0.05 30.71 -0.05 26.26 C-0.04 17.5 -0.02 8.75 0 0 Z " fill="#6C60B5" transform="translate(438,755)"/>
<path d="M0 0 C24.87 -0.05 49.74 -0.08 74.61 -0.1 C86.15 -0.11 97.7 -0.13 109.25 -0.15 C119.31 -0.17 129.37 -0.18 139.43 -0.19 C144.76 -0.19 150.09 -0.2 155.42 -0.21 C160.43 -0.22 165.44 -0.23 170.45 -0.23 C172.3 -0.23 174.14 -0.23 175.98 -0.24 C178.49 -0.25 181 -0.25 183.51 -0.24 C184.61 -0.25 184.61 -0.25 185.74 -0.26 C190.77 -0.23 190.77 -0.23 193 2 C192.67 2.99 192.34 3.98 192 5 C192 28.1 192 51.2 192 75 C128.97 75 65.94 75 1 75 C-1.1 70.8 -1.25 68.95 -1.24 64.35 C-1.24 63.69 -1.25 63.03 -1.25 62.35 C-1.25 60.18 -1.24 58.01 -1.23 55.84 C-1.23 54.33 -1.23 52.82 -1.23 51.3 C-1.23 48.14 -1.22 44.98 -1.21 41.81 C-1.19 37.75 -1.18 33.7 -1.19 29.64 C-1.19 26.52 -1.18 23.4 -1.17 20.28 C-1.17 18.78 -1.17 17.28 -1.17 15.79 C-1.16 13.7 -1.16 11.61 -1.15 9.52 C-1.14 7.74 -1.14 7.74 -1.13 5.92 C-1 3 -1 3 0 0 Z " fill="#6C60B5" transform="translate(438,596)"/>
<path d="M0 0 C0.77 -0 1.55 -0 2.34 -0 C4.95 -0 7.56 0 10.16 0.01 C12.02 0.01 13.89 0.01 15.75 0.01 C20.82 0.01 25.88 0.01 30.95 0.02 C36.24 0.03 41.54 0.03 46.83 0.03 C56.85 0.03 66.88 0.04 76.91 0.05 C88.32 0.06 99.73 0.06 111.14 0.07 C134.62 0.08 158.1 0.1 181.58 0.12 C182.43 4.52 182.71 8.66 182.7 13.14 C182.7 13.81 182.7 14.48 182.7 15.18 C182.7 17.38 182.69 19.59 182.68 21.8 C182.68 23.34 182.68 24.88 182.68 26.42 C182.67 30.45 182.66 34.48 182.65 38.52 C182.64 42.64 182.64 46.76 182.63 50.89 C182.62 58.96 182.61 67.04 182.58 75.12 C157.7 75.14 132.81 75.16 107.93 75.17 C96.37 75.18 84.82 75.18 73.26 75.2 C63.2 75.21 53.13 75.21 43.06 75.21 C37.73 75.22 32.4 75.22 27.06 75.23 C22.05 75.23 17.03 75.23 12.02 75.23 C10.17 75.23 8.33 75.24 6.48 75.24 C3.97 75.24 1.46 75.24 -1.04 75.24 C-1.78 75.24 -2.52 75.25 -3.29 75.25 C-8.3 75.23 -8.3 75.23 -9.42 74.12 C-9.51 71.85 -9.53 69.58 -9.53 67.31 C-9.53 66.59 -9.53 65.88 -9.53 65.15 C-9.53 62.78 -9.52 60.42 -9.51 58.05 C-9.51 56.42 -9.51 54.78 -9.51 53.15 C-9.51 48.84 -9.5 44.52 -9.48 40.21 C-9.47 35.81 -9.47 31.42 -9.46 27.02 C-9.45 18.39 -9.44 9.75 -9.42 1.12 C-6.4 -0.39 -3.3 -0.01 0 0 Z " fill="#6B5FB5" transform="translate(447.4156799316406,1073.8797454833984)"/>
<path d="M0 0 C24.72 -0.05 49.44 -0.08 74.16 -0.1 C85.64 -0.11 97.12 -0.13 108.6 -0.15 C118.6 -0.17 128.6 -0.18 138.6 -0.19 C143.9 -0.19 149.2 -0.2 154.5 -0.21 C159.48 -0.22 164.46 -0.23 169.44 -0.23 C171.28 -0.23 173.11 -0.23 174.94 -0.24 C177.44 -0.25 179.93 -0.25 182.43 -0.24 C183.16 -0.25 183.89 -0.25 184.64 -0.26 C188.32 -0.24 189.85 -0.1 193 2 C193.36 4.97 193.36 4.97 193.34 8.84 C193.34 9.54 193.34 10.24 193.34 10.97 C193.34 13.29 193.32 15.62 193.29 17.95 C193.29 19.56 193.28 21.17 193.28 22.78 C193.27 27.02 193.24 31.27 193.21 35.51 C193.18 39.84 193.16 44.17 193.15 48.5 C193.11 57 193.06 65.5 193 74 C188.4 74.9 183.94 75.14 179.27 75.13 C178.13 75.14 178.13 75.14 176.97 75.14 C174.43 75.15 171.9 75.15 169.37 75.15 C167.55 75.15 165.73 75.15 163.91 75.16 C158.97 75.16 154.04 75.17 149.1 75.17 C144.98 75.17 140.86 75.17 136.75 75.18 C127.04 75.18 117.33 75.19 107.62 75.19 C97.59 75.18 87.56 75.2 77.53 75.21 C68.93 75.22 60.32 75.23 51.72 75.23 C46.57 75.23 41.43 75.23 36.29 75.24 C31.46 75.25 26.63 75.25 21.8 75.24 C20.02 75.24 18.25 75.25 16.47 75.25 C14.06 75.26 11.64 75.25 9.22 75.25 C8.51 75.25 7.8 75.26 7.07 75.26 C2.23 75.23 2.23 75.23 0 73 C-0.24 69.99 -0.24 69.99 -0.23 66.07 C-0.23 65.36 -0.23 64.65 -0.23 63.91 C-0.23 61.55 -0.21 59.2 -0.2 56.84 C-0.19 55.2 -0.19 53.57 -0.19 51.93 C-0.18 47.63 -0.16 43.33 -0.14 39.02 C-0.12 34.63 -0.11 30.24 -0.1 25.85 C-0.08 17.23 -0.04 8.62 0 0 Z " fill="#6C60B6" transform="translate(438,915)"/>
<path d="M0 0 C16.13 0.11 32.27 0.22 48.4 0.34 C55.89 0.39 63.38 0.45 70.87 0.5 C77.4 0.54 83.92 0.59 90.45 0.64 C93.91 0.66 97.37 0.69 100.82 0.71 C104.68 0.73 108.53 0.76 112.39 0.79 C113.54 0.8 114.69 0.81 115.88 0.81 C116.93 0.82 117.97 0.83 119.05 0.84 C119.96 0.85 120.88 0.85 121.82 0.86 C124 1 124 1 126 2 C126 26.42 126 50.84 126 76 C84.42 76 42.84 76 0 76 C0.99 68.74 1.98 61.48 3 54 C4.5 38.24 3.05 23.64 1 8 C0.66 5.33 0.33 2.67 0 0 Z " fill="#6B5FB5" transform="translate(785,281)"/>
<path d="M0 0 C0.69 -0 1.39 -0 2.1 -0 C4.39 0 6.68 0.02 8.97 0.05 C10.55 0.05 12.14 0.06 13.73 0.06 C17.91 0.07 22.08 0.1 26.26 0.13 C30.52 0.17 34.79 0.18 39.05 0.19 C47.41 0.23 55.78 0.28 64.14 0.34 C66.41 3.96 66.39 6.99 66.38 11.2 C66.39 11.89 66.39 12.57 66.39 13.27 C66.39 15.52 66.38 17.76 66.37 20.01 C66.37 21.57 66.37 23.13 66.37 24.69 C66.37 27.96 66.36 31.23 66.35 34.49 C66.33 38.69 66.33 42.89 66.33 47.09 C66.33 50.31 66.32 53.53 66.31 56.75 C66.31 58.3 66.31 59.85 66.31 61.39 C66.31 63.55 66.3 65.71 66.29 67.86 C66.28 69.09 66.28 70.32 66.28 71.59 C66.14 74.34 66.14 74.34 65.14 75.34 C62.92 75.45 60.69 75.49 58.47 75.5 C57.77 75.51 57.07 75.51 56.35 75.52 C54.03 75.53 51.72 75.54 49.4 75.54 C47.79 75.55 46.19 75.56 44.58 75.56 C41.21 75.57 37.84 75.58 34.47 75.58 C30.15 75.59 25.82 75.61 21.5 75.64 C18.18 75.66 14.86 75.66 11.54 75.66 C9.95 75.67 8.36 75.68 6.76 75.69 C4.53 75.71 2.31 75.7 0.08 75.7 C-1.19 75.7 -2.46 75.7 -3.77 75.71 C-6.86 75.34 -6.86 75.34 -8.77 74.23 C-10.41 71.38 -10.24 68.99 -10.25 65.71 C-10.25 65.05 -10.26 64.38 -10.26 63.69 C-10.28 61.48 -10.27 59.27 -10.26 57.06 C-10.26 55.52 -10.26 53.99 -10.27 52.45 C-10.27 49.23 -10.26 46.02 -10.25 42.8 C-10.23 38.67 -10.24 34.55 -10.26 30.42 C-10.27 27.25 -10.27 24.08 -10.26 20.91 C-10.26 19.39 -10.26 17.87 -10.27 16.34 C-10.27 14.22 -10.26 12.09 -10.25 9.97 C-10.24 8.76 -10.24 7.55 -10.24 6.3 C-9.86 3.34 -9.86 3.34 -8.76 1.45 C-5.84 -0.25 -3.36 -0.02 0 0 Z " fill="#AACFFC" transform="translate(289.858154296875,1073.659423828125)"/>
<path d="M0 0 C0.66 -0 1.32 -0.01 2 -0.02 C4.17 -0.03 6.35 -0.04 8.53 -0.04 C10.04 -0.05 11.55 -0.05 13.07 -0.06 C16.24 -0.07 19.41 -0.08 22.58 -0.08 C26.64 -0.08 30.71 -0.11 34.78 -0.14 C37.9 -0.16 41.02 -0.16 44.15 -0.16 C45.65 -0.17 47.15 -0.17 48.65 -0.19 C50.74 -0.2 52.83 -0.2 54.93 -0.2 C56.72 -0.2 56.72 -0.2 58.54 -0.21 C61.46 0.16 61.46 0.16 63.35 1.26 C65.04 4.14 64.83 6.57 64.82 9.9 C64.82 10.58 64.83 11.26 64.83 11.96 C64.83 14.2 64.81 16.45 64.79 18.7 C64.79 20.26 64.79 21.82 64.79 23.38 C64.78 26.65 64.77 29.92 64.75 33.18 C64.72 37.38 64.71 41.58 64.7 45.77 C64.7 48.99 64.69 52.21 64.68 55.44 C64.67 56.98 64.67 58.53 64.66 60.08 C64.66 62.24 64.64 64.4 64.63 66.56 C64.62 67.79 64.61 69.02 64.61 70.28 C64.46 73.16 64.46 73.16 63.46 75.16 C53.98 75.18 44.5 75.2 35.01 75.21 C30.61 75.22 26.21 75.23 21.8 75.24 C17.56 75.25 13.31 75.25 9.06 75.26 C7.44 75.26 5.82 75.26 4.2 75.27 C1.93 75.27 -0.34 75.28 -2.61 75.27 C-3.9 75.28 -5.19 75.28 -6.52 75.28 C-9.54 75.16 -9.54 75.16 -11.54 74.16 C-11.58 65.23 -11.62 56.31 -11.64 47.38 C-11.65 43.23 -11.66 39.09 -11.69 34.94 C-11.71 30.94 -11.72 26.94 -11.72 22.94 C-11.73 21.41 -11.74 19.89 -11.75 18.36 C-11.76 16.22 -11.76 14.09 -11.76 11.95 C-11.77 10.73 -11.77 9.52 -11.78 8.26 C-11.54 5.27 -11.27 3.58 -9.54 1.16 C-6.16 0.03 -3.56 0.02 0 0 Z " fill="#AACFFC" transform="translate(291.53515625,913.8388671875)"/>
<path d="M0 0 C0.68 -0 1.36 -0.01 2.06 -0.02 C4.31 -0.03 6.56 -0.04 8.82 -0.04 C10.38 -0.05 11.94 -0.05 13.5 -0.06 C16.78 -0.07 20.05 -0.08 23.33 -0.08 C27.53 -0.08 31.73 -0.11 35.94 -0.14 C39.16 -0.16 42.39 -0.16 45.61 -0.16 C47.16 -0.17 48.71 -0.17 50.26 -0.19 C52.43 -0.2 54.59 -0.2 56.76 -0.2 C57.99 -0.2 59.22 -0.2 60.49 -0.21 C61.45 -0.09 62.4 0.04 63.38 0.16 C65.81 3.81 65.63 5.54 65.62 9.9 C65.62 10.58 65.63 11.26 65.63 11.96 C65.63 14.2 65.62 16.45 65.61 18.7 C65.61 20.26 65.61 21.82 65.61 23.38 C65.61 26.65 65.6 29.92 65.58 33.18 C65.57 37.38 65.56 41.58 65.56 45.77 C65.56 48.99 65.56 52.21 65.55 55.44 C65.55 56.98 65.55 58.53 65.55 60.08 C65.54 62.24 65.53 64.4 65.52 66.56 C65.52 67.79 65.52 69.02 65.51 70.28 C65.38 73.16 65.38 73.16 64.38 75.16 C55.04 75.23 45.71 75.28 36.37 75.32 C32.04 75.33 27.7 75.35 23.37 75.39 C19.18 75.42 15 75.44 10.82 75.45 C9.22 75.45 7.63 75.46 6.03 75.48 C3.8 75.5 1.56 75.5 -0.67 75.5 C-1.94 75.51 -3.22 75.52 -4.53 75.52 C-7.62 75.16 -7.62 75.16 -9.53 74.04 C-11.15 71.24 -11 68.95 -10.99 65.73 C-11 65.09 -11 64.44 -11 63.77 C-11.01 61.63 -11 59.49 -10.98 57.35 C-10.98 55.86 -10.98 54.38 -10.99 52.89 C-10.99 49.77 -10.98 46.65 -10.96 43.53 C-10.93 39.53 -10.93 35.54 -10.94 31.54 C-10.94 28.47 -10.94 25.39 -10.93 22.32 C-10.92 20.85 -10.92 19.37 -10.92 17.9 C-10.92 15.84 -10.91 13.78 -10.9 11.72 C-10.89 10.55 -10.89 9.37 -10.88 8.17 C-10.63 5.25 -10.24 3.58 -8.62 1.16 C-5.73 -0.28 -3.23 0.02 0 0 Z " fill="#AACFFC" transform="translate(290.62109375,754.8388671875)"/>
<path d="M0 0 C1.04 -0 1.04 -0 2.1 -0 C4.39 0 6.69 0.01 8.98 0.02 C10.57 0.02 12.16 0.02 13.75 0.02 C17.93 0.02 22.12 0.03 26.31 0.04 C30.58 0.06 34.85 0.06 39.11 0.06 C47.49 0.08 55.88 0.09 64.26 0.11 C65.74 3.08 65.37 5.73 65.37 9.04 C65.37 9.75 65.37 10.47 65.37 11.2 C65.37 13.56 65.36 15.92 65.35 18.28 C65.35 19.91 65.35 21.55 65.35 23.18 C65.34 27.48 65.34 31.79 65.32 36.09 C65.31 40.48 65.31 44.87 65.3 49.26 C65.29 57.88 65.28 66.5 65.26 75.11 C55.92 75.16 46.58 75.2 37.25 75.22 C32.91 75.23 28.58 75.24 24.24 75.26 C20.06 75.29 15.88 75.3 11.7 75.3 C10.1 75.31 8.5 75.31 6.91 75.32 C4.67 75.34 2.44 75.34 0.21 75.34 C-1.07 75.35 -2.34 75.35 -3.65 75.35 C-6.74 75.11 -6.74 75.11 -9.74 73.11 C-10.11 70.27 -10.11 70.27 -10.1 66.6 C-10.1 65.93 -10.11 65.26 -10.11 64.57 C-10.11 62.36 -10.09 60.14 -10.07 57.93 C-10.07 56.39 -10.07 54.86 -10.07 53.32 C-10.06 50.1 -10.05 46.87 -10.03 43.65 C-10 39.51 -9.99 35.38 -9.98 31.25 C-9.98 28.07 -9.97 24.9 -9.96 21.72 C-9.95 20.2 -9.95 18.67 -9.94 17.15 C-9.94 15.02 -9.92 12.89 -9.91 10.76 C-9.9 9.54 -9.89 8.33 -9.89 7.08 C-9.74 4.11 -9.74 4.11 -8.74 1.11 C-5.82 -0.35 -3.26 -0.01 0 0 Z " fill="#AACFFC" transform="translate(289.74462890625,595.886474609375)"/>
<path d="M0 0 C33.66 0 67.32 0 102 0 C102 0.33 102 0.66 102 1 C68.34 1 34.68 1 0 1 C0 0.67 0 0.34 0 0 Z " fill="#000000" transform="translate(1104,400)"/>
<path d="M0 0 C0.33 0.66 0.66 1.32 1 2 C-0.65 3.98 -2.3 5.96 -4 8 C-4.66 7.67 -5.32 7.34 -6 7 C-4.02 4.69 -2.04 2.38 0 0 Z M-9 8 C-8.01 8.33 -7.02 8.66 -6 9 C-6.6 9.58 -7.2 10.16 -7.81 10.75 C-10.02 12.89 -10.02 12.89 -11.5 15.25 C-12.24 16.12 -12.24 16.12 -13 17 C-14.32 17 -15.64 17 -17 17 C-15.41 12.7 -12.64 10.6 -9 8 Z " fill="#BAB9CC" transform="translate(35,9)"/>
<path d="" fill="#000000" transform="translate(0,0)"/>
<path d="" fill="#000000" transform="translate(0,0)"/>
<path d="" fill="#FCD450" transform="translate(0,0)"/>
<path d="" fill="#67605C" transform="translate(0,0)"/>
<path d="" fill="#67605C" transform="translate(0,0)"/>
<path d="" fill="#000000" transform="translate(0,0)"/>
<path d="" fill="#FCD450" transform="translate(0,0)"/>
<path d="" fill="#E0E1E9" transform="translate(0,0)"/>
<path d="" fill="#E0E1E9" transform="translate(0,0)"/>
<path d="" fill="#BDBBD9" transform="translate(0,0)"/>
<path d="" fill="#000000" transform="translate(0,0)"/>
</svg>
