<?xml version="1.0" encoding="utf-8"?>
<!-- Uploaded to: SVG Repo, www.svgrepo.com, Generator: SVG Repo Mixer Tools -->
<svg width="800px" height="800px" viewBox="0 0 1024 1024" class="icon"  version="1.1" xmlns="http://www.w3.org/2000/svg">
<path d="M857.96778 110.91033H256.037884c-36.880349 0-66.881213 30.000864-66.881214 66.881213v44.587135h-22.294079c-36.880349 0-66.881213 30.000864-66.881213 66.881213s30.000864 66.881213 66.881213 66.881213h22.294079v89.175293h-22.294079c-36.880349 0-66.881213 30.000864-66.881213 66.881213s30.000864 66.881213 66.881213 66.881213h22.294079v89.174269h-22.294079c-36.880349 0-66.881213 30.000864-66.881213 66.881213 0 36.880349 30.000864 66.881213 66.881213 66.881213h22.294079v44.587135c0 36.880349 30.000864 66.881213 66.881214 66.881213H857.96778c36.880349 0 66.881213-30.000864 66.881213-66.881213V177.791543c0-36.880349-30.000864-66.881213-66.881213-66.881213zM166.863615 311.55397c-12.289696 0-22.294079-10.00336-22.294079-22.294079s10.00336-22.294079 22.294079-22.294079h111.468348c12.289696 0 22.294079 10.00336 22.294079 22.294079s-10.004384 22.294079-22.294079 22.294079H166.863615z m0 222.936695c-12.289696 0-22.294079-10.004384-22.294079-22.294079s10.00336-22.294079 22.294079-22.294079h111.468348c12.289696 0 22.294079 10.004384 22.294079 22.294079s-10.004384 22.294079-22.294079 22.294079H166.863615z m0 222.937719c-12.289696 0-22.294079-10.004384-22.294079-22.294079s10.00336-22.294079 22.294079-22.294079h111.468348c12.289696 0 22.294079 10.00336 22.294079 22.294079 0 12.289696-10.004384 22.294079-22.294079 22.294079H166.863615z m713.398244 89.174269c0 12.289696-10.004384 22.294079-22.294079 22.294079H256.037884c-12.289696 0-22.294079-10.004384-22.294079-22.294079v-44.587135h44.587134c36.880349 0 66.881213-30.000864 66.881213-66.881213 0-36.880349-30.000864-66.881213-66.881213-66.881213h-44.587134v-89.174269h44.587134c36.880349 0 66.881213-30.000864 66.881213-66.881213s-30.000864-66.881213-66.881213-66.881213h-44.587134V356.141104h44.587134c36.880349 0 66.881213-30.000864 66.881213-66.881213s-30.000864-66.881213-66.881213-66.881213h-44.587134v-44.587135c0-12.289696 10.00336-22.294079 22.294079-22.294079H857.96778c12.289696 0 22.294079 10.00336 22.294079 22.294079V846.602653z" fill="#25b3c3" />
<path d="M648.128626 493.542419c21.166781-18.932664 34.567392-46.370742 34.567392-77.006415 0-57.105156-46.292927-103.39706-103.397059-103.39706-57.105156 0-103.398083 46.291903-103.398084 103.39706 0 30.634649 13.401635 58.073752 34.568416 77.006415-45.299758 30.41349-76.077751 86.354488-76.077751 131.997249 0 66.274049 64.87747 85.71456 144.906395 85.71456s144.906394-19.440511 144.906394-85.71456c0.002048-45.64276-30.775945-101.582735-76.075703-131.997249z" fill="#25b3c3" /></svg>