<?xml version="1.0" encoding="UTF-8" standalone="no"?>
<!DOCTYPE svg PUBLIC "-//W3C//DTD SVG 1.1//EN" "http://www.w3.org/Graphics/SVG/1.1/DTD/svg11.dtd">
<svg xmlns="http://www.w3.org/2000/svg" version="1.1" viewBox="0.00 0.00 512.00 512.00">
<path fill="#ff0044" d="
  M 249.32 0.00
  L 262.83 0.00
  C 269.04 0.48 275.10 0.80 281.34 1.79
  Q 285.05 2.38 288.77 2.92
  C 295.36 3.87 301.83 5.77 308.15 7.42
  C 313.13 8.72 317.86 10.68 322.70 12.42
  Q 328.14 14.38 333.18 16.84
  C 338.15 19.26 343.25 21.60 348.06 24.46
  Q 355.80 29.06 360.05 32.00
  Q 411.89 67.80 432.23 127.46
  C 433.98 132.60 435.18 137.93 436.57 143.21
  Q 438.05 148.82 438.80 154.37
  Q 439.40 158.73 440.17 163.33
  Q 440.85 167.45 440.90 171.44
  Q 440.95 175.56 441.28 179.38
  Q 441.78 185.30 441.42 191.25
  Q 440.79 201.61 439.69 209.54
  Q 436.29 234.00 425.38 263.66
  C 418.97 281.10 411.47 297.23 403.34 313.38
  Q 390.81 338.26 373.18 366.54
  C 351.14 401.89 325.78 436.86 299.29 469.84
  Q 284.88 487.78 268.58 506.59
  Q 265.39 510.27 259.19 512.00
  L 252.70 512.00
  Q 246.51 510.16 243.53 506.72
  C 222.05 481.93 205.29 460.88 185.96 435.32
  Q 156.45 396.31 128.27 349.18
  C 122.68 339.82 117.33 329.80 112.04 319.95
  Q 108.86 314.03 105.98 308.03
  Q 98.32 292.11 95.65 286.08
  Q 84.84 261.70 77.79 236.00
  Q 71.67 213.70 70.55 190.74
  Q 70.27 184.92 70.76 179.06
  Q 71.09 175.07 71.12 171.16
  Q 71.14 167.53 71.78 163.62
  Q 72.65 158.27 73.32 153.53
  Q 74.08 148.14 75.60 142.49
  Q 76.68 138.49 77.62 134.72
  C 79.05 128.97 81.27 123.47 83.29 117.96
  C 85.85 110.98 89.53 103.41 93.01 97.04
  Q 114.54 57.65 151.96 31.96
  Q 156.15 29.09 164.04 24.40
  C 168.70 21.64 173.58 19.40 178.47 17.01
  Q 183.92 14.33 189.61 12.30
  C 194.49 10.56 199.35 8.57 204.47 7.25
  C 210.50 5.70 216.66 3.87 222.93 2.96
  Q 226.46 2.45 230.27 1.85
  C 236.74 0.81 242.92 0.47 249.32 0.00
  Z
  M 349.05 185.43
  A 93.05 93.05 0.0 0 0 256.00 92.38
  A 93.05 93.05 0.0 0 0 162.95 185.43
  A 93.05 93.05 0.0 0 0 256.00 278.48
  A 93.05 93.05 0.0 0 0 349.05 185.43
  Z"
/>
</svg>
