<?xml version="1.0" standalone="no"?>
<!DOCTYPE svg PUBLIC "-//W3C//DTD SVG 20010904//EN"
 "http://www.w3.org/TR/2001/REC-SVG-20010904/DTD/svg10.dtd">
<svg version="1.0" xmlns="http://www.w3.org/2000/svg"
 width="1221.000000pt" height="998.000000pt" viewBox="0 0 1221.000000 998.000000"
 preserveAspectRatio="xMidYMid meet">

<g transform="translate(0.000000,998.000000) scale(0.100000,-0.100000)"
fill="#250044" stroke="none">
<path d="M5493 9970 c-140 -28 -239 -142 -252 -287 l-6 -65 -360 -103 c-198
-57 -684 -196 -1080 -310 -868 -249 -798 -229 -865 -248 -30 -8 -113 -31 -184
-52 -104 -30 -131 -34 -137 -23 -15 27 -69 90 -94 110 -112 88 -301 73 -405
-31 -53 -53 -76 -98 -92 -177 -13 -66 -3 -117 38 -200 l26 -51 -453 -499
c-249 -275 -498 -549 -553 -609 -56 -61 -182 -201 -281 -310 -99 -110 -208
-229 -241 -264 l-62 -65 -53 23 c-45 20 -66 23 -139 19 -100 -5 -151 -28 -214
-99 -59 -64 -81 -121 -81 -209 0 -88 22 -145 81 -209 63 -71 114 -94 213 -99
l86 -4 22 -57 c41 -108 147 -388 223 -591 42 -113 132 -351 199 -530 170 -448
168 -445 204 -542 l31 -86 -51 -47 c-74 -66 -103 -132 -103 -232 0 -95 27
-160 91 -222 57 -54 115 -82 189 -88 118 -11 229 43 296 143 25 39 41 53 52
50 40 -12 111 -28 322 -76 124 -28 304 -69 400 -91 96 -22 182 -42 191 -45 12
-3 18 -21 21 -68 14 -171 198 -306 365 -268 30 7 45 6 51 -2 5 -6 51 -93 103
-192 l93 -182 -38 -42 c-113 -126 -116 -300 -7 -422 24 -27 67 -61 95 -76 44
-23 63 -27 141 -27 69 0 98 4 125 19 58 31 118 84 141 126 13 22 29 40 36 40
7 0 122 -27 255 -59 134 -33 295 -72 359 -87 l117 -28 6 -59 c12 -114 87 -216
196 -263 70 -30 190 -26 256 8 101 53 170 157 177 268 l3 45 124 31 c202 50
185 50 214 0 88 -150 307 -195 448 -93 33 25 4 45 300 -205 128 -108 334 -281
458 -385 317 -266 963 -808 1099 -922 63 -53 204 -172 315 -264 110 -93 207
-174 214 -181 11 -11 9 -24 -8 -77 -54 -157 18 -323 169 -393 70 -32 198 -29
267 7 65 33 128 104 154 173 72 194 -63 403 -273 423 l-61 6 -29 105 c-22 75
-26 105 -18 108 28 9 97 70 122 107 34 50 51 104 54 175 l2 55 324 108 c711
236 1051 347 1064 347 8 0 16 -9 20 -19 9 -30 91 -100 143 -124 70 -31 179
-30 253 4 204 95 249 366 86 517 -24 21 -50 41 -58 44 -17 6 -31 -41 270 861
l216 649 65 2 c225 10 371 249 273 447 l-29 58 286 286 286 286 59 -28 c165
-75 361 5 426 177 24 62 24 141 2 211 -13 41 -32 69 -78 116 -72 72 -134 96
-237 92 l-62 -3 -30 65 c-28 62 -216 497 -412 952 -52 120 -94 222 -94 227 0
6 18 26 40 46 22 20 52 61 67 92 24 49 28 69 28 142 0 73 -4 92 -27 135 -79
149 -249 211 -411 150 -10 -5 -34 22 -83 92 -105 151 -131 189 -171 246 -335
477 -543 777 -543 784 0 4 14 26 31 48 87 115 77 281 -24 392 -75 82 -112 98
-227 98 -81 0 -102 -4 -142 -24 -26 -14 -58 -35 -70 -48 -12 -13 -26 -23 -31
-23 -8 0 -109 62 -542 335 -99 62 -225 142 -280 176 -55 34 -146 92 -203 128
l-103 65 8 46 c15 86 6 165 -26 229 -97 190 -345 229 -496 77 -28 -28 -60 -72
-71 -98 -12 -32 -25 -48 -37 -48 -17 0 -491 38 -982 80 -132 11 -404 34 -605
50 -556 46 -499 39 -506 69 -22 103 -98 203 -181 238 -58 25 -134 34 -190 23z
m537 -394 c36 -3 146 -12 245 -21 99 -8 293 -24 430 -35 138 -11 302 -25 365
-30 63 -6 197 -17 298 -25 100 -8 264 -22 364 -30 101 -8 194 -15 209 -15 23
0 27 -5 33 -40 3 -22 16 -61 29 -86 l22 -47 -350 -344 -350 -344 -175 6 c-96
3 -256 10 -355 14 l-180 8 -71 74 c-39 41 -135 144 -214 229 -79 85 -169 182
-200 215 -31 33 -112 121 -180 195 -68 74 -130 141 -137 148 -10 10 -8 21 11
56 13 24 26 53 29 65 5 21 10 22 59 17 29 -3 82 -8 118 -10z m-736 -88 c34
-49 43 -30 -102 -217 -59 -76 -181 -234 -272 -352 -91 -117 -172 -220 -180
-229 -14 -14 -54 -13 -395 2 -209 9 -540 24 -735 32 -888 39 -966 44 -954 56
7 6 473 142 704 206 25 6 108 30 185 52 77 22 241 69 365 105 124 35 268 76
320 92 52 15 124 35 160 45 75 21 535 154 725 210 72 21 135 38 140 38 6 1 23
-17 39 -40z m522 -178 c42 -47 109 -119 148 -160 181 -193 501 -542 505 -551
2 -7 -13 -8 -40 -5 -24 3 -156 10 -294 16 -137 6 -392 17 -565 25 -173 9 -404
19 -512 23 -109 5 -200 11 -203 14 -3 3 58 88 137 190 79 101 201 259 272 351
71 92 132 167 135 167 3 0 24 -7 46 -15 65 -23 171 -19 230 9 28 14 53 24 57
23 3 -1 41 -40 84 -87z m3014 -273 c157 -99 343 -216 414 -261 71 -44 190
-119 265 -166 132 -83 136 -87 134 -119 0 -18 -3 -35 -6 -38 -3 -3 -111 0
-239 6 -509 25 -676 32 -992 46 -181 8 -331 16 -333 18 -2 2 5 33 16 68 10 35
28 100 41 144 12 44 35 123 50 175 16 52 35 121 44 153 16 55 18 57 51 57 71
0 135 21 193 64 31 24 62 41 67 38 6 -4 138 -87 295 -185z m-702 125 l23 -18
-44 -155 c-25 -85 -64 -223 -88 -308 l-42 -153 -191 6 c-105 4 -224 9 -265 13
l-74 6 319 313 c175 172 324 313 329 313 6 0 20 -7 33 -17z m-5233 -497 c88
-3 291 -12 450 -20 160 -8 403 -19 540 -25 138 -6 327 -15 420 -20 94 -5 209
-10 258 -10 51 0 87 -4 87 -10 0 -6 -37 -58 -83 -118 -281 -363 -390 -503
-397 -507 -4 -3 -27 2 -51 11 -199 72 -419 -80 -419 -290 l0 -54 -47 -16 c-88
-27 -217 -68 -278 -86 -33 -10 -163 -51 -290 -90 -126 -40 -309 -96 -405 -126
-96 -30 -233 -73 -303 -95 -71 -22 -131 -38 -134 -35 -6 5 13 254 47 621 11
116 27 300 36 410 9 110 21 205 26 211 4 6 27 15 51 18 51 8 111 43 153 88 36
37 74 104 74 129 0 26 12 31 60 25 25 -3 117 -8 205 -11z m2300 -105 c127 -6
372 -17 545 -25 362 -17 775 -35 806 -35 14 0 72 -56 182 -175 89 -97 162
-179 162 -184 0 -4 -75 -81 -167 -171 -93 -89 -350 -341 -572 -559 -222 -218
-408 -399 -415 -403 -6 -3 -113 -27 -238 -52 -159 -33 -233 -44 -245 -37 -10
5 -82 51 -160 103 -79 51 -226 147 -328 213 -367 238 -460 302 -458 316 2 8 8
37 15 65 15 69 -4 160 -48 226 l-33 48 111 143 c60 78 180 234 266 346 l157
203 95 -6 c52 -3 199 -10 325 -16z m1868 -86 c86 -4 157 -9 157 -12 0 -3 -57
-61 -127 -129 l-128 -123 -127 133 c-70 72 -127 136 -128 141 0 4 44 5 98 2
53 -3 168 -9 255 -12z m-4859 -24 c39 -18 46 -25 46 -50 0 -27 -8 -116 -45
-530 -8 -91 -24 -268 -35 -395 -31 -351 -29 -335 -53 -345 -12 -5 -80 -27
-152 -49 -71 -22 -247 -77 -390 -122 -143 -44 -388 -121 -545 -169 -157 -48
-316 -98 -354 -110 l-69 -23 -19 23 c-11 13 -18 31 -16 41 2 9 150 178 329
375 179 198 487 537 684 754 197 217 394 434 437 482 43 47 88 98 99 112 25
31 25 31 83 6z m5529 -6 c176 -6 207 -9 207 -22 0 -13 -167 -610 -201 -718 -9
-30 -12 -32 -77 -36 -42 -3 -84 -14 -111 -27 l-44 -23 -25 29 c-14 15 -53 57
-86 93 -195 208 -307 330 -337 364 l-33 38 164 160 165 159 85 -5 c47 -3 178
-9 293 -12z m727 -34 c135 -6 380 -17 545 -25 165 -8 373 -17 462 -21 l162 -7
17 -56 c9 -30 25 -68 36 -83 11 -16 18 -32 16 -38 -2 -5 -190 -221 -418 -480
-228 -259 -420 -479 -427 -487 -13 -17 -14 -17 -343 44 -122 22 -200 36 -430
76 l-75 13 -7 50 c-13 104 -71 188 -167 243 -11 7 -8 30 23 132 40 138 162
563 179 623 l10 38 86 -6 c47 -3 196 -11 331 -16z m1345 -302 c14 -6 25 -14
25 -17 0 -4 -11 -56 -25 -116 -14 -61 -32 -137 -39 -170 -8 -33 -25 -109 -39
-170 -77 -332 -100 -436 -113 -495 -8 -35 -18 -68 -22 -71 -7 -6 -627 103
-636 112 -3 2 39 54 92 115 407 465 724 824 727 824 2 0 16 -5 30 -12z m297
-18 c2 -5 40 -62 86 -127 46 -65 199 -284 342 -488 142 -203 279 -399 303
-434 l45 -63 -33 -44 c-19 -24 -37 -53 -40 -65 -8 -24 -6 -24 -200 12 -60 11
-146 26 -190 34 -44 8 -127 23 -185 34 -58 10 -203 36 -323 57 l-219 39 6 30
c3 16 14 68 25 115 54 234 95 410 126 550 19 85 41 182 49 215 8 33 17 72 20
88 5 21 12 27 34 28 15 0 47 6 72 13 57 17 78 18 82 6z m-2932 -241 c113 -122
219 -237 237 -257 l31 -36 -28 -52 c-15 -29 -31 -77 -34 -108 -6 -46 -11 -57
-29 -61 -23 -5 -410 -85 -532 -110 -126 -25 -657 -134 -780 -159 -65 -14 -121
-24 -122 -22 -2 1 165 167 370 367 204 201 440 431 522 512 83 80 152 147 155
147 3 0 97 -99 210 -221z m-3440 -328 c0 -5 -82 -72 -182 -148 -101 -76 -356
-271 -568 -433 -706 -540 -652 -501 -675 -484 -11 8 -44 26 -74 41 l-53 26 7
91 c3 50 13 152 21 226 7 74 14 154 14 177 0 23 4 44 9 48 5 3 117 39 248 79
505 157 954 296 1088 339 152 49 165 52 165 38z m610 -120 c41 -26 208 -135
370 -241 162 -106 321 -209 353 -229 31 -20 57 -39 57 -43 0 -9 -34 -18 -280
-67 -113 -23 -236 -49 -275 -57 -210 -45 -399 -83 -401 -81 -3 3 -32 260 -49
441 -9 88 -18 177 -21 197 -6 37 -6 38 48 63 30 14 63 35 73 46 26 29 42 25
125 -29z m-495 4 c52 -31 116 -53 138 -47 4 1 10 -4 13 -11 11 -30 72 -673 64
-681 -5 -5 -51 -17 -102 -27 -51 -10 -248 -50 -438 -89 -190 -39 -388 -80
-440 -90 -135 -27 -624 -128 -654 -136 -19 -4 -27 -1 -36 16 -7 12 -8 26 -3
30 4 5 87 68 184 142 158 120 307 234 1002 765 117 89 213 162 213 162 1 1 28
-15 59 -34z m4430 -200 c354 -63 479 -87 484 -91 4 -4 -16 -28 -225 -265 -94
-107 -181 -206 -194 -221 -13 -16 -28 -28 -34 -28 -6 1 -83 100 -171 221 -88
122 -174 240 -192 262 -29 38 -31 44 -18 62 8 11 26 41 40 67 14 27 31 46 38
43 6 -2 129 -25 272 -50z m-867 -2 c-2 -6 -121 -105 -264 -220 -144 -114 -346
-275 -449 -358 -244 -196 -222 -183 -269 -151 -46 31 -125 56 -176 56 -57 0
-135 -27 -185 -65 -25 -19 -50 -35 -55 -35 -5 0 -83 48 -172 106 -90 59 -187
122 -217 142 l-54 35 69 66 c38 37 88 83 110 104 45 41 5 31 794 191 91 19
246 51 345 71 517 107 499 104 513 87 7 -9 11 -22 10 -29z m91 -97 c6 -7 38
-25 71 -40 54 -25 59 -29 55 -54 -3 -15 -9 -130 -15 -257 -6 -126 -17 -347
-25 -490 -8 -143 -17 -320 -20 -393 l-7 -134 -340 -386 c-186 -213 -345 -386
-351 -385 -7 1 -37 11 -67 22 -30 11 -76 20 -101 21 -45 0 -46 0 -56 43 -10
41 -64 222 -163 552 -26 88 -58 196 -71 239 l-23 79 25 16 c52 32 118 112 135
164 24 68 23 159 0 220 -11 28 -15 51 -10 56 13 12 314 252 643 513 157 125
291 228 297 228 6 0 17 -6 23 -14z m1471 -26 c30 -5 102 -18 160 -28 58 -11
177 -32 265 -47 88 -15 164 -31 169 -35 8 -8 -11 -96 -114 -545 -23 -99 -48
-207 -55 -240 -8 -33 -39 -170 -70 -305 -31 -135 -59 -261 -63 -280 -8 -34 -9
-35 -65 -41 -31 -4 -70 -12 -87 -19 -17 -7 -32 -11 -34 -9 -10 14 -216 298
-237 327 -14 21 -125 173 -248 340 -122 167 -221 310 -219 318 2 7 113 140
248 293 267 306 246 289 350 271z m-929 -285 c109 -148 198 -272 199 -275 0
-5 -29 -39 -185 -215 -58 -66 -324 -369 -373 -424 l-22 -26 5 135 c3 74 11
221 16 325 6 105 16 308 23 452 6 144 15 266 20 270 9 10 86 31 105 29 8 0
103 -122 212 -271z m-5916 188 c-5 -43 -13 -141 -32 -366 -7 -87 -2 -81 -92
-108 -63 -19 -136 -80 -172 -144 -17 -30 -32 -55 -34 -55 -1 0 -27 5 -56 11
-30 5 -117 21 -194 34 -147 25 -422 72 -615 106 -63 11 -152 26 -197 34 -97
16 -103 19 -103 50 0 20 9 26 62 44 71 22 336 105 888 276 206 64 409 127 450
140 104 33 102 34 95 -22z m7823 -78 c103 -18 291 -52 417 -74 127 -23 271
-49 322 -59 l91 -17 7 -50 c3 -27 14 -65 22 -84 16 -33 16 -34 -8 -54 -13 -11
-159 -128 -324 -260 -165 -132 -446 -358 -625 -502 -179 -143 -344 -275 -367
-293 l-42 -33 -45 33 c-26 18 -46 40 -46 50 0 10 9 56 20 101 11 45 38 163 60
262 22 99 47 207 55 240 24 105 117 508 130 565 6 30 20 93 30 139 l19 83 48
-6 c27 -4 133 -22 236 -41z m-4398 -80 c-30 -30 -58 -55 -62 -55 -10 0 -97 54
-98 61 0 3 37 14 83 23 45 10 87 20 92 21 37 12 33 -2 -15 -50z m-213 -73 c40
-26 73 -52 73 -58 0 -6 -55 -64 -122 -129 -114 -109 -482 -470 -744 -728
l-112 -110 -53 26 c-30 14 -71 29 -91 33 -21 3 -38 9 -38 13 0 4 -9 95 -20
202 -11 107 -29 281 -40 388 -11 107 -18 196 -16 198 2 2 133 30 292 62 159
33 370 76 469 96 292 61 299 63 315 58 8 -2 48 -25 87 -51z m360 -235 c103
-67 205 -133 226 -146 31 -19 37 -28 33 -45 -25 -87 -27 -115 -12 -180 33
-143 135 -232 279 -245 81 -7 71 8 132 -201 56 -194 154 -526 185 -625 l28
-90 -21 -15 c-44 -30 -106 -92 -112 -111 -8 -24 -30 -24 -102 0 -32 10 -119
38 -193 61 -74 23 -153 48 -175 55 -35 12 -170 55 -520 165 -127 40 -467 148
-550 175 -38 12 -131 41 -206 65 l-137 43 -4 71 c-2 48 -11 86 -27 120 l-24
48 313 307 c629 616 685 670 692 671 4 0 92 -55 195 -123z m-1617 41 c0 -7 7
-76 15 -153 8 -77 22 -210 30 -295 9 -85 20 -191 25 -235 6 -44 10 -83 10 -87
0 -4 -17 -15 -37 -23 -60 -25 -112 -66 -144 -111 -38 -56 -63 -153 -55 -215 8
-58 33 -41 -295 -187 -123 -55 -255 -114 -294 -132 -38 -18 -164 -74 -280
-125 -115 -51 -239 -106 -275 -122 -240 -110 -228 -106 -234 -85 -8 26 -94
334 -128 457 -16 61 -42 155 -58 210 -15 55 -44 161 -64 235 -21 74 -43 157
-51 183 l-13 48 37 23 c80 51 134 137 147 234 5 42 11 53 28 57 121 25 372 77
411 84 94 19 894 183 1095 226 131 28 130 28 130 13z m6831 -67 c13 -10 45
-27 71 -39 35 -15 46 -25 42 -39 -2 -10 -11 -110 -19 -223 -8 -113 -24 -315
-35 -450 -11 -135 -27 -335 -35 -444 -8 -110 -17 -202 -20 -204 -4 -5 -126 9
-445 48 -91 11 -221 27 -290 36 -69 8 -240 30 -380 47 l-254 32 -7 41 c-4 22
-14 57 -22 76 l-15 36 366 293 c892 717 1007 809 1013 809 4 0 17 -8 30 -19z
m-2486 -223 c66 -90 142 -194 170 -233 369 -503 408 -559 397 -574 -46 -64
-66 -110 -75 -171 -11 -68 -11 -69 -47 -75 -19 -3 -105 -21 -190 -40 -498
-109 -682 -150 -825 -181 -88 -19 -177 -39 -198 -43 -21 -5 -39 -5 -43 0 -3 5
-2 39 1 77 3 37 12 203 20 369 l13 303 324 369 c177 203 326 367 329 365 3 -2
59 -77 124 -166z m2801 62 c25 -58 49 -114 54 -125 5 -11 55 -126 110 -255 56
-129 112 -259 126 -288 13 -29 24 -55 24 -57 0 -3 40 -97 90 -210 l90 -205
-45 -41 c-24 -23 -57 -66 -71 -96 -24 -48 -30 -53 -53 -49 -28 6 -84 13 -361
47 -96 12 -176 23 -178 24 -2 2 4 88 12 191 9 104 25 306 36 449 11 143 27
337 35 432 8 94 15 194 15 223 0 43 3 52 23 60 12 5 28 8 35 7 7 -1 33 -49 58
-107z m-10479 70 c65 -12 168 -29 228 -40 61 -10 205 -35 320 -55 116 -20 271
-47 346 -60 76 -14 140 -25 143 -25 3 0 6 -15 6 -34 0 -60 40 -144 92 -195 26
-25 48 -51 48 -58 0 -9 -181 -446 -235 -568 -8 -16 -99 -232 -203 -480 -105
-247 -195 -450 -201 -449 -6 1 -40 2 -75 3 l-65 1 -20 53 c-11 28 -47 124 -81
212 -33 88 -85 225 -115 305 -30 80 -88 235 -130 345 -42 110 -80 211 -85 225
-4 14 -63 169 -129 344 l-121 319 22 15 c38 26 87 84 106 124 9 21 20 38 24
38 3 0 59 -9 125 -20z m1424 -605 c25 -92 143 -517 226 -815 58 -207 66 -241
57 -250 -5 -5 -76 -38 -159 -75 -82 -37 -276 -124 -430 -192 -154 -69 -301
-135 -328 -146 l-47 -21 -50 49 c-28 27 -50 52 -50 56 0 4 138 332 306 730
169 398 310 734 315 747 8 21 14 23 71 20 l61 -3 28 -100z m5362 -545 c-8
-179 -16 -326 -17 -328 -2 -1 -74 -18 -162 -38 -87 -19 -198 -44 -245 -54 -48
-11 -93 -20 -100 -20 -8 0 -25 20 -38 45 l-24 45 58 67 c32 38 88 102 125 143
37 41 145 164 240 273 95 108 174 196 176 195 1 -2 -5 -149 -13 -328z m-2827
26 c93 -30 250 -80 349 -111 99 -31 198 -62 220 -70 22 -7 101 -32 175 -56 74
-23 203 -63 285 -90 83 -26 260 -82 395 -124 135 -43 248 -80 251 -84 4 -3 9
-41 12 -83 l5 -77 -301 -164 c-166 -91 -322 -176 -347 -189 -50 -28 -491 -269
-555 -303 -22 -12 -173 -94 -336 -183 -162 -89 -302 -164 -311 -167 -12 -5
-17 11 -27 92 -6 54 -20 166 -31 248 -11 83 -29 220 -40 305 -11 85 -30 223
-40 305 -11 83 -27 202 -35 265 -8 63 -22 165 -30 225 -20 150 -20 154 11 165
47 18 110 68 138 109 16 23 32 41 36 41 4 0 84 -24 176 -54z m-693 -21 l45
-45 -70 -198 c-38 -108 -82 -235 -98 -282 -16 -47 -54 -157 -85 -245 -56 -157
-130 -371 -279 -797 -152 -435 -185 -527 -193 -540 -5 -8 -28 -13 -58 -13 -27
-1 -63 -3 -78 -5 -28 -5 -31 -1 -129 188 l-100 194 40 41 c59 60 85 126 85
212 0 169 -120 301 -284 313 l-69 5 -11 41 c-6 22 -30 111 -54 196 -24 85 -55
199 -70 253 -16 56 -24 102 -19 107 9 8 130 63 629 285 127 56 262 116 300
134 172 79 441 199 446 200 4 1 27 -19 52 -44z m219 -109 c4 -6 8 -22 8 -35 0
-12 16 -141 35 -285 36 -267 60 -453 95 -726 25 -193 47 -356 64 -480 7 -52
12 -98 10 -101 -2 -3 -101 -59 -221 -124 -261 -142 -628 -342 -665 -363 -26
-15 -28 -14 -66 19 -21 19 -46 39 -56 44 -15 9 -16 14 -6 40 15 38 73 203 270
770 21 61 64 182 95 270 87 246 126 356 140 400 7 22 41 119 75 215 34 96 75
216 92 265 17 50 35 95 40 102 11 14 79 6 90 -11z m5893 -56 c270 -33 542 -67
605 -75 63 -8 129 -16 145 -17 30 -3 30 -3 28 -63 -3 -82 -42 -597 -51 -664
l-7 -53 -55 -17 c-30 -10 -74 -28 -97 -41 -38 -23 -43 -23 -60 -9 -53 46 -841
694 -977 804 -34 28 -84 68 -110 91 l-47 41 18 37 c18 38 18 38 68 32 27 -3
271 -33 540 -66z m-1185 32 c0 -24 68 -106 112 -134 45 -30 49 -35 44 -63 -9
-48 -234 -926 -239 -931 -4 -5 -30 3 -167 52 -52 18 -180 63 -285 100 -104 36
-260 91 -345 121 -85 30 -173 61 -195 68 -88 29 -268 94 -272 99 -7 7 8 392
16 403 3 5 51 18 106 30 688 151 1109 243 1145 252 47 12 80 13 80 3z m574
-170 c515 -422 767 -629 842 -691 50 -42 126 -104 167 -138 l76 -63 -19 -42
c-11 -24 -20 -55 -20 -70 0 -33 3 -33 -270 -53 -113 -9 -218 -18 -235 -20 -16
-3 -95 -10 -175 -15 -80 -6 -164 -13 -186 -16 l-42 -6 -24 54 c-33 71 -75 118
-140 154 -48 26 -62 29 -148 29 -79 0 -102 -4 -136 -22 -44 -24 -100 -73 -126
-111 -16 -24 -16 -24 -72 -8 -31 9 -56 21 -56 26 0 5 38 159 85 342 47 183
101 399 122 481 l37 147 36 0 c51 0 128 25 170 54 19 14 37 25 39 26 2 0 36
-26 75 -58z m1786 -7 c290 -34 266 -28 275 -72 3 -21 17 -63 31 -93 l25 -54
-285 -285 -284 -284 -59 25 c-55 24 -58 27 -57 59 0 45 20 308 41 547 l17 194
35 -5 c20 -3 137 -17 261 -32z m-3796 -257 c-4 -121 -12 -218 -17 -218 -12 0
-381 129 -438 153 -35 14 -36 16 -30 53 l6 39 230 52 c127 28 235 52 242 52 9
1 11 -31 7 -131z m-4999 -105 c9 -32 23 -78 30 -103 51 -169 116 -425 108
-427 -30 -10 -97 -71 -124 -114 -21 -31 -39 -49 -52 -49 -11 0 -108 20 -216
45 -108 25 -225 52 -261 60 -36 9 -130 30 -210 49 -80 19 -164 37 -187 41 -51
8 -56 15 -61 78 l-4 47 54 24 c29 13 85 38 123 56 39 18 165 74 280 125 233
103 352 157 435 197 30 14 58 27 62 27 4 1 15 -25 23 -56z m4635 -94 c80 -28
190 -67 245 -86 55 -19 101 -36 102 -37 2 -1 -1 -72 -7 -157 -5 -85 -16 -298
-25 -474 -8 -176 -18 -354 -21 -395 l-6 -76 -58 -17 c-32 -9 -78 -32 -102 -50
-52 -40 -105 -124 -114 -183 -3 -24 -11 -47 -18 -52 -6 -5 -81 -17 -166 -26
-247 -28 -363 -42 -729 -85 -189 -23 -352 -41 -362 -41 -12 0 -27 16 -43 49
-14 26 -37 62 -51 80 -15 17 -25 38 -22 45 6 15 302 526 467 806 54 91 107
181 118 200 11 19 67 116 125 215 l106 180 96 -4 c91 -3 99 -2 160 28 42 21
80 50 107 82 24 27 45 49 48 49 3 0 71 -23 150 -51z m-657 -24 c17 -24 16 -26
-244 -472 -144 -246 -270 -461 -279 -478 -255 -440 -287 -490 -311 -488 -13 2
-46 5 -74 9 -163 20 -327 -123 -337 -296 l-3 -45 -145 -37 c-80 -21 -150 -37
-156 -38 -6 0 -26 23 -45 50 -46 68 -120 118 -195 132 l-60 12 -18 135 c-28
210 -54 411 -61 467 l-6 50 218 119 c120 65 236 128 258 140 35 20 88 48 335
182 30 17 100 55 155 85 55 30 136 74 180 98 44 24 123 66 175 95 52 29 129
70 170 93 41 22 149 81 240 130 90 49 169 88 175 85 5 -2 18 -15 28 -28z
m1229 -176 c62 -22 201 -71 308 -109 107 -37 326 -114 485 -170 160 -56 298
-104 308 -107 9 -3 17 -10 17 -17 -1 -25 -79 -319 -87 -325 -11 -9 -58 -30
-488 -217 -198 -86 -394 -171 -436 -190 -42 -19 -79 -34 -82 -34 -4 0 -23 18
-44 40 -21 22 -67 55 -102 73 l-64 33 2 74 c1 41 6 143 11 225 5 83 14 254 20
380 12 290 20 385 30 385 5 0 59 -18 122 -41z m1271 -446 l47 -17 0 -72 0 -71
-81 -37 c-45 -20 -83 -35 -86 -33 -2 2 10 56 27 120 16 64 30 118 30 121 0 9
12 7 63 -11z m1587 -42 c1 -28 57 -107 104 -147 25 -21 46 -43 46 -48 0 -6
-111 -345 -246 -754 l-247 -743 -69 3 -70 3 -94 225 c-99 235 -169 401 -184
435 -5 11 -27 63 -49 115 -60 145 -152 362 -206 488 l-48 113 48 47 c54 54 83
105 93 165 l8 42 54 6 c30 4 145 14 255 24 110 9 286 24 390 34 105 9 196 15
203 13 6 -2 12 -12 12 -21z m-1401 -306 c1 -8 -173 -425 -229 -550 -20 -45
-144 -334 -235 -550 -54 -126 -102 -235 -107 -241 -8 -12 -83 0 -100 15 -3 3
9 65 27 136 39 154 172 673 249 973 30 118 56 215 58 216 1 1 55 25 118 53
l115 50 51 -46 c29 -25 52 -51 53 -56z m546 -733 l293 -693 -35 -27 c-19 -15
-50 -52 -69 -83 l-35 -56 -52 10 c-29 5 -131 24 -227 42 -96 19 -238 46 -315
60 -77 15 -194 37 -260 50 -66 13 -163 31 -215 40 -52 9 -97 18 -101 20 -6 5
87 229 387 925 36 85 81 191 99 235 18 44 42 100 54 125 l20 46 82 -1 81 -1
293 -692z m-1114 216 c-191 -750 -199 -780 -208 -788 -4 -4 -62 3 -128 17 -66
13 -203 39 -304 57 -101 19 -187 38 -191 43 -10 10 -118 282 -133 335 -10 35
-9 39 17 59 48 38 68 62 95 119 21 45 26 70 26 134 l0 79 100 44 c55 24 179
78 275 120 96 41 189 81 205 89 229 103 350 150 353 139 2 -7 -47 -208 -107
-447z m-4127 330 c8 -62 25 -183 36 -268 11 -85 22 -173 25 -195 5 -40 5 -41
-38 -62 -59 -28 -100 -65 -134 -118 -15 -25 -33 -45 -40 -45 -6 0 -38 7 -70
15 -32 8 -161 39 -288 70 -343 82 -367 89 -370 100 -17 68 -22 121 -12 131 7
6 48 31 92 54 44 24 118 64 165 90 93 52 427 233 530 288 36 19 69 39 75 43 5
5 10 9 11 9 1 0 9 -51 18 -112z m2705 -498 c51 -107 157 -173 281 -176 l75 -1
58 -143 c32 -79 57 -148 55 -155 -2 -8 -53 -1 -168 21 -187 37 -640 122 -868
165 -85 16 -238 44 -340 64 -278 54 -323 62 -364 69 -31 6 -38 11 -38 31 0 27
9 30 150 45 52 5 149 17 215 25 66 8 219 27 340 41 121 14 288 34 370 44 223
26 206 29 234 -30z m-1282 -250 c26 -5 100 -19 163 -30 63 -12 147 -27 185
-35 39 -8 122 -24 185 -35 126 -23 285 -53 395 -75 64 -13 195 -38 585 -111
231 -44 285 -55 291 -62 4 -4 77 -184 163 -400 l157 -393 -45 -40 c-170 -150
-135 -419 67 -519 45 -22 78 -30 118 -31 l57 -2 21 -71 c37 -127 38 -135 5
-162 -50 -40 0 -75 -504 351 -118 100 -260 219 -315 265 -55 46 -183 154 -285
239 -102 86 -252 212 -335 281 -82 69 -152 127 -155 131 -3 3 -77 65 -165 139
-600 502 -655 549 -655 561 0 11 8 11 67 -1z m2061 -389 c122 -25 304 -59 360
-67 24 -4 46 -12 48 -19 3 -6 -25 -128 -62 -271 -37 -142 -71 -279 -77 -304
-5 -25 -14 -48 -19 -51 -5 -4 -31 -6 -56 -5 l-46 1 -52 130 c-29 72 -95 237
-147 368 -109 274 -114 251 51 218z m576 -111 l26 -9 -20 -43 c-10 -24 -56
-128 -100 -233 -45 -104 -88 -203 -96 -220 -14 -27 -15 -28 -11 -5 8 43 127
503 133 512 7 11 37 10 68 -2z m611 -115 c220 -41 461 -87 535 -100 167 -31
180 -36 180 -72 0 -25 -6 -30 -62 -50 -243 -83 -1317 -433 -1331 -433 -9 0
-17 4 -17 10 0 5 -16 28 -36 50 l-37 41 50 117 c28 64 88 205 133 312 45 107
87 200 91 206 6 8 23 9 52 3 23 -4 222 -42 442 -84z"/>
</g>
</svg>
