<?xml version="1.0" encoding="UTF-8"?>
<!-- Generator: visioncortex VTracer 0.6.3 -->
<svg version="1.1" xmlns="http://www.w3.org/2000/svg" width="1280" height="1280">
<path d="M0 0 C1.01 -0 1.01 -0 2.03 -0.01 C14.06 -0.05 14.06 -0.05 18.19 2.31 C20.2 2.73 22.22 3.08 24.25 3.38 C27.39 3.84 30.18 4.31 33.19 5.31 C33.19 5.97 33.19 6.63 33.19 7.31 C34.39 7.44 34.39 7.44 35.62 7.56 C40.16 8.52 44.02 10.32 48.19 12.31 C49.18 12.77 50.17 13.22 51.19 13.69 C59.34 18.1 66.74 23.81 74.19 29.31 C75.34 30.08 75.34 30.08 76.51 30.86 C77.06 31.34 77.62 31.82 78.19 32.31 C78.19 33.3 78.19 34.29 78.19 35.31 C79.18 35.64 80.17 35.97 81.19 36.31 C81.19 36.97 81.19 37.63 81.19 38.31 C81.85 38.31 82.51 38.31 83.19 38.31 C85.26 40.65 87 43 88.59 45.68 C90.72 49.2 93.15 52.48 95.57 55.81 C97.85 59.33 99.19 62.09 99.19 66.31 C99.85 66.31 100.51 66.31 101.19 66.31 C101.52 68.62 101.85 70.93 102.19 73.31 C105.39 74.38 107.66 74.43 111.03 74.42 C112.25 74.42 113.47 74.41 114.73 74.41 C116.08 74.4 117.43 74.4 118.79 74.39 C120.21 74.39 121.64 74.38 123.06 74.38 C126.13 74.38 129.2 74.37 132.27 74.36 C137.13 74.35 141.99 74.35 146.84 74.35 C147.66 74.35 148.48 74.35 149.33 74.36 C151.86 74.36 154.38 74.36 156.91 74.37 C167.37 74.38 177.83 74.38 188.3 74.34 C195.93 74.31 203.55 74.3 211.18 74.33 C215.22 74.35 219.25 74.35 223.29 74.31 C227.09 74.28 230.89 74.29 234.69 74.32 C236.08 74.33 237.47 74.32 238.86 74.29 C246 74.19 250.89 74.36 256.35 79.27 C257.01 79.98 257.68 80.7 258.36 81.43 C260.2 83.33 261.48 84.1 263.94 85 C268.16 86.71 271.13 89.2 273.19 93.31 C273.81 93.62 274.43 93.93 275.06 94.25 C277.19 95.31 277.19 95.31 278.5 96.69 C280.57 98.68 282.91 99.89 285.41 101.27 C288.56 103.12 291.53 105 293.19 108.31 C295.04 109.36 295.04 109.36 297.19 110.31 C298.52 110.98 299.85 111.65 301.19 112.31 C301.19 112.97 301.19 113.63 301.19 114.31 C301.7 114.54 302.22 114.77 302.75 115 C311.35 119.63 311.35 119.63 313.19 123.31 C315.04 124.36 315.04 124.36 317.19 125.31 C318.52 125.98 319.85 126.65 321.19 127.31 C321.19 127.97 321.19 128.63 321.19 129.31 C321.96 129.65 321.96 129.65 322.75 130 C331.35 134.63 331.35 134.63 333.19 138.31 C334.12 138.78 334.12 138.78 335.06 139.25 C337.19 140.31 337.19 140.31 338.62 141.81 C340.6 143.71 342.62 144.41 345.19 145.31 C345.19 145.97 345.19 146.63 345.19 147.31 C345.76 147.6 346.34 147.89 346.94 148.19 C349.02 149.23 351.1 150.27 353.19 151.31 C353.19 151.97 353.19 152.63 353.19 153.31 C353.79 153.58 354.38 153.85 355 154.12 C357.19 155.31 357.19 155.31 358.5 156.69 C360.57 158.68 362.91 159.89 365.41 161.27 C367.87 162.71 370 164.5 372.19 166.31 C372.85 166.64 373.51 166.97 374.19 167.31 C375.1 168.26 376 169.21 376.94 170.19 C379.74 173.05 382.53 174.65 386.19 176.31 C386.85 176.97 387.51 177.63 388.19 178.31 C389.18 178.31 390.17 178.31 391.19 178.31 C391.62 177.51 391.62 177.51 392.07 176.7 C395.77 169.97 399.69 163.39 403.7 156.85 C405.21 154.28 406.56 151.67 407.88 149 C408.31 148.12 408.75 147.23 409.2 146.32 C409.53 145.66 409.85 145 410.19 144.31 C410.85 144.31 411.51 144.31 412.19 144.31 C412.5 143.36 412.81 142.41 413.12 141.44 C414.19 138.31 414.19 138.31 415.19 136.31 C415.85 136.31 416.51 136.31 417.19 136.31 C417.25 135.67 417.31 135.03 417.37 134.36 C418.55 129.95 420.88 126.38 423.25 122.5 C423.72 121.71 424.19 120.92 424.68 120.11 C425.84 118.17 427.01 116.24 428.19 114.31 C431.26 115.53 434.25 116.79 437.19 118.31 C437.19 118.97 437.19 119.63 437.19 120.31 C438.18 120.44 438.18 120.44 439.19 120.56 C443.18 121.56 446.57 123.38 450.19 125.31 C450.19 125.97 450.19 126.63 450.19 127.31 C450.72 127.42 451.26 127.52 451.81 127.62 C454.82 128.49 457.42 129.87 460.19 131.31 C460.85 131.64 461.51 131.97 462.19 132.31 C462.93 132.95 463.67 133.59 464.44 134.25 C467.31 136.4 469.75 137.35 473.19 138.31 C473.19 138.97 473.19 139.63 473.19 140.31 C477.57 142.05 477.57 142.05 482.08 141.71 C485.55 139.4 488.23 136.27 491.03 133.21 C494 130.11 495.94 128.83 500.19 128.31 C501.25 126.51 501.25 126.51 502.19 124.31 C505.76 120.05 507.82 119.15 513.19 118.31 C513.89 117 514.55 115.66 515.19 114.31 C517.81 113.56 517.81 113.56 520.19 113.31 C520.19 112.65 520.19 111.99 520.19 111.31 C524.69 107.63 529.53 104.76 535.19 103.31 C535.19 102.65 535.19 101.99 535.19 101.31 C536.61 100.63 536.61 100.63 538.06 99.94 C541.19 98.51 541.19 98.51 543.19 96.31 C549.53 93.31 549.53 93.31 553.19 93.31 C553.19 92.65 553.19 91.99 553.19 91.31 C554.61 90.63 554.61 90.63 556.06 89.94 C559.19 88.51 559.19 88.51 561.19 86.31 C562.99 85.46 562.99 85.46 565.06 84.69 C565.74 84.43 566.42 84.17 567.12 83.9 C569.19 83.31 569.19 83.31 573.19 83.31 C573.19 82.65 573.19 81.99 573.19 81.31 C576.92 79.28 578.86 78.31 583.19 78.31 C583.19 77.65 583.19 76.99 583.19 76.31 C584.43 75.8 585.68 75.31 586.94 74.81 C587.63 74.53 588.33 74.26 589.05 73.97 C591.19 73.31 591.19 73.31 595.19 73.31 C595.19 72.65 595.19 71.99 595.19 71.31 C596.03 71.07 596.88 70.83 597.75 70.58 C598.88 70.24 600.02 69.91 601.19 69.56 C602.3 69.24 603.41 68.91 604.56 68.58 C607.36 67.6 609.79 66.57 612.41 65.23 C613.12 64.87 613.83 64.51 614.56 64.14 C615.1 63.87 615.64 63.59 616.19 63.31 C616.2 62.6 616.21 61.89 616.22 61.16 C616.32 54.46 616.42 47.76 616.53 41.07 C616.58 37.63 616.64 34.18 616.68 30.74 C616.74 26.79 616.81 22.83 616.87 18.88 C616.89 17.64 616.9 16.4 616.92 15.12 C616.94 13.98 616.96 12.83 616.98 11.66 C617.01 10.14 617.01 10.14 617.03 8.6 C617.19 6.31 617.19 6.31 618.19 5.31 C621.25 5.21 624.28 5.18 627.34 5.19 C628.32 5.19 629.29 5.19 630.29 5.19 C633.58 5.19 636.86 5.19 640.15 5.2 C642.49 5.2 644.84 5.2 647.18 5.2 C653.57 5.2 659.96 5.2 666.35 5.21 C672.34 5.22 678.33 5.22 684.33 5.22 C696.2 5.22 708.07 5.23 719.95 5.24 C731.48 5.25 743.02 5.25 754.56 5.26 C755.27 5.26 755.98 5.26 756.71 5.26 C760.28 5.26 763.84 5.26 767.41 5.26 C797 5.27 826.59 5.29 856.19 5.31 C856.33 11.29 856.47 17.26 856.61 23.23 C856.66 25.26 856.71 27.28 856.76 29.31 C857.05 41.31 857.27 53.3 857.19 65.31 C858.85 65.54 858.85 65.54 860.55 65.77 C863.42 66.2 865.66 66.68 868.31 67.75 C868.98 68.02 869.65 68.28 870.34 68.55 C870.95 68.8 871.56 69.05 872.19 69.31 C874.84 70.39 877.47 71.41 880.19 72.31 C886.82 74.52 893.66 77.14 899.62 80.81 C902.03 82.22 904.28 83.14 906.88 84.12 C911.61 85.95 915.78 88.33 920.06 91.04 C922.25 92.45 922.25 92.45 925.19 93.31 C925.52 93.97 925.85 94.63 926.19 95.31 C929.01 96.85 931.81 98.17 934.81 99.31 C938.07 100.69 940.58 102.1 942.19 105.31 C943.43 105.65 943.43 105.65 944.69 106 C948.77 107.53 951.44 109.7 954.8 112.43 C957.9 114.87 961.19 116.96 964.54 119.05 C965.08 119.47 965.63 119.88 966.19 120.31 C966.19 120.97 966.19 121.63 966.19 122.31 C967.02 122.68 967.02 122.68 967.88 123.06 C970.59 124.53 972.78 126.38 975.19 128.31 C976.33 128.93 976.33 128.93 977.5 129.56 C980.14 131.28 982 133.06 984.19 135.31 C988.18 139.53 988.18 139.53 993.19 142.31 C996.81 141.52 999.1 140.37 1002.19 138.31 C1003.18 138.31 1004.17 138.31 1005.19 138.31 C1005.19 137.65 1005.19 136.99 1005.19 136.31 C1010.94 133.31 1010.94 133.31 1013.19 133.31 C1013.19 132.65 1013.19 131.99 1013.19 131.31 C1013.85 130.99 1014.52 130.66 1015.2 130.32 C1019.63 128.13 1024 125.95 1028.19 123.31 C1028.85 122.91 1029.51 122.51 1030.19 122.09 C1034.43 119.52 1034.43 119.52 1038.19 116.31 C1043.32 114.08 1043.32 114.08 1046.5 114.94 C1048.64 116.68 1048.6 117.65 1049.19 120.31 C1050.49 122.33 1051.83 124.33 1053.19 126.31 C1053.88 127.63 1054.56 128.96 1055.19 130.31 C1055.52 130.31 1055.85 130.31 1056.19 130.31 C1056.85 132.95 1057.51 135.59 1058.19 138.31 C1058.85 138.31 1059.51 138.31 1060.19 138.31 C1060.48 139.45 1060.77 140.58 1061.06 141.75 C1061.43 142.93 1061.81 144.1 1062.19 145.31 C1062.85 145.64 1063.51 145.97 1064.19 146.31 C1065.27 148.3 1066.17 150.34 1067.09 152.4 C1068.18 154.63 1068.18 154.63 1071.19 156.31 C1072.79 159.19 1074.09 162.05 1075.25 165.12 C1075.98 167.48 1075.98 167.48 1078.19 168.31 C1077.86 169.63 1077.53 170.95 1077.19 172.31 C1077.85 172.64 1078.51 172.97 1079.19 173.31 C1082.19 177.81 1082.19 177.81 1082.19 180.31 C1082.85 180.64 1083.51 180.97 1084.19 181.31 C1084.52 182.3 1084.85 183.29 1085.19 184.31 C1085.85 184.64 1086.51 184.97 1087.19 185.31 C1087.48 186.08 1087.77 186.84 1088.06 187.62 C1089.02 190.43 1089.02 190.43 1091.31 192.31 C1093.68 194.84 1093.28 195.98 1093.19 199.31 C1094.18 199.97 1095.17 200.63 1096.19 201.31 C1096.19 202.3 1096.19 203.29 1096.19 204.31 C1097.18 204.64 1098.17 204.97 1099.19 205.31 C1099.53 206.64 1099.86 207.98 1100.19 209.31 C1100.85 210.3 1101.51 211.29 1102.19 212.31 C1104.19 215.31 1104.19 215.31 1104.63 217.26 C1105.31 219.78 1106.47 221.18 1108.12 223.19 C1110.66 226.43 1112.18 229.26 1113.19 233.31 C1113.85 233.31 1114.51 233.31 1115.19 233.31 C1115.28 233.85 1115.38 234.38 1115.48 234.93 C1116.41 238.05 1117.92 240.57 1119.56 243.38 C1120.17 244.42 1120.77 245.46 1121.4 246.54 C1122.86 248.81 1124.18 250.53 1126.19 252.31 C1125.86 252.97 1125.53 253.63 1125.19 254.31 C1125.52 254.64 1125.85 254.97 1126.19 255.31 C1126.85 255.31 1127.51 255.31 1128.19 255.31 C1128.52 257.62 1128.85 259.93 1129.19 262.31 C1130.51 262.64 1131.83 262.97 1133.19 263.31 C1133.19 264.96 1133.19 266.61 1133.19 268.31 C1134.18 268.64 1135.17 268.97 1136.19 269.31 C1137.25 271.56 1137.25 271.56 1138.19 274.31 C1139.61 278.17 1139.61 278.17 1142.19 281.31 C1142.52 281.99 1142.85 282.67 1143.19 283.38 C1144.03 285.48 1144.03 285.48 1146.19 286.31 C1148.48 290.51 1150.71 294.84 1151.62 299.56 C1151.81 300.14 1152 300.72 1152.19 301.31 C1153.18 301.64 1154.17 301.97 1155.19 302.31 C1156.25 305.12 1156.25 305.12 1157.19 308.31 C1159.03 312.61 1161.31 314.73 1165.19 317.31 C1165.38 320.94 1165.38 320.94 1165.19 324.31 C1164.08 324.86 1162.97 325.4 1161.83 325.96 C1160.36 326.68 1158.9 327.4 1157.44 328.12 C1156.71 328.48 1155.98 328.84 1155.23 329.21 C1152.25 330.68 1149.51 332.07 1146.86 334.07 C1145.19 335.31 1145.19 335.31 1142.19 335.31 C1141.86 336.3 1141.53 337.29 1141.19 338.31 C1140.26 338.46 1139.33 338.6 1138.38 338.75 C1135.18 339.23 1135.18 339.23 1132.19 340.31 C1131.86 341.3 1131.53 342.29 1131.19 343.31 C1128.75 344.5 1126.91 345.31 1124.19 345.31 C1124.19 345.97 1124.19 346.63 1124.19 347.31 C1123.44 347.6 1122.7 347.89 1121.94 348.19 C1119.62 349.14 1117.41 350.16 1115.19 351.31 C1115.33 352.13 1115.47 352.95 1115.62 353.79 C1116.26 357.75 1116.76 361.71 1117.25 365.69 C1117.34 366.42 1117.43 367.16 1117.53 367.92 C1117.75 369.72 1117.97 371.51 1118.19 373.31 C1118.52 373.31 1118.85 373.31 1119.19 373.31 C1119.28 375.01 1119.28 375.01 1119.37 376.74 C1119.46 378.22 1119.54 379.71 1119.62 381.19 C1119.68 382.31 1119.68 382.31 1119.74 383.45 C1119.9 387.51 1119.9 387.51 1121.19 391.31 C1121.32 393.64 1121.39 395.98 1121.42 398.31 C1121.44 399.03 1121.45 399.75 1121.46 400.5 C1121.51 402.89 1121.54 405.28 1121.57 407.67 C1121.6 409.33 1121.63 410.99 1121.65 412.65 C1121.7 416.14 1121.75 419.63 1121.8 423.12 C1121.86 427.58 1121.93 432.04 1122.01 436.5 C1122.07 439.94 1122.12 443.38 1122.16 446.81 C1122.19 448.46 1122.21 450.1 1122.24 451.74 C1122.29 454.05 1122.31 456.36 1122.34 458.66 C1122.36 459.98 1122.38 461.29 1122.4 462.64 C1122.18 466.47 1121.35 469.67 1120.19 473.31 C1119.86 475.46 1119.86 475.46 1119.81 477.39 C1119.77 478.08 1119.74 478.76 1119.71 479.47 C1119.67 480.51 1119.67 480.51 1119.62 481.56 C1119.31 488.95 1119.31 488.95 1118.19 492.31 C1117.75 494.79 1117.36 497.26 1117 499.75 C1116.84 500.75 1116.84 500.75 1116.67 501.78 C1116.14 505.55 1115.86 508.16 1118.19 511.31 C1118.85 511.64 1119.51 511.97 1120.19 512.31 C1121.18 512.81 1121.18 512.81 1122.19 513.31 C1122.19 513.97 1122.19 514.63 1122.19 515.31 C1122.87 515.39 1123.55 515.48 1124.25 515.56 C1128.06 516.54 1130.83 518.27 1134.19 520.31 C1134.19 520.97 1134.19 521.63 1134.19 522.31 C1135.16 522.52 1136.13 522.73 1137.12 522.94 C1142.06 524.33 1146.19 527.16 1150.19 530.31 C1150.52 530.97 1150.85 531.63 1151.19 532.31 C1152.12 532.46 1153.04 532.6 1154 532.75 C1157.38 533.35 1158.58 534.22 1161.19 536.31 C1163.33 537.02 1163.33 537.02 1165.19 537.31 C1165.44 540.56 1165.44 540.56 1165.19 544.31 C1163.19 546.62 1163.19 546.62 1161.19 548.31 C1161.19 548.97 1161.19 549.63 1161.19 550.31 C1160.2 550.64 1159.21 550.97 1158.19 551.31 C1157.51 553.31 1156.84 555.31 1156.19 557.31 C1154.91 559.02 1153.58 560.7 1152.19 562.31 C1151.86 562.97 1151.53 563.63 1151.19 564.31 C1150.53 563.98 1149.87 563.65 1149.19 563.31 C1149.52 564.3 1149.85 565.29 1150.19 566.31 C1149.44 568.12 1149.44 568.12 1148.19 570.31 C1147.65 571.38 1147.12 572.46 1146.56 573.56 C1146.11 574.47 1145.65 575.38 1145.19 576.31 C1144.2 575.98 1143.21 575.65 1142.19 575.31 C1142.08 576.36 1141.98 577.42 1141.88 578.5 C1141.19 582.28 1140.22 584.14 1138.19 587.31 C1137.48 589.3 1136.8 591.29 1136.19 593.31 C1134.87 593.31 1133.55 593.31 1132.19 593.31 C1131.86 596.28 1131.53 599.25 1131.19 602.31 C1130.2 602.64 1129.21 602.97 1128.19 603.31 C1127.17 605.18 1127.17 605.18 1126.5 607.38 C1126.25 608.11 1126 608.84 1125.74 609.6 C1125.56 610.16 1125.37 610.73 1125.19 611.31 C1124.2 610.98 1123.21 610.65 1122.19 610.31 C1122.06 611.41 1121.94 612.5 1121.81 613.62 C1121.19 617.31 1121.19 617.31 1119.19 620.31 C1118.86 621.3 1118.53 622.29 1118.19 623.31 C1116.87 623.31 1115.55 623.31 1114.19 623.31 C1114.52 624.3 1114.85 625.29 1115.19 626.31 C1114.13 628.91 1112.75 630.97 1111.19 633.31 C1110.53 633.31 1109.87 633.31 1109.19 633.31 C1109.52 634.3 1109.85 635.29 1110.19 636.31 C1109.2 639.19 1107.7 640.87 1105.69 643.19 C1103.24 646.03 1102.23 648.69 1101.19 652.31 C1100.53 653.3 1099.87 654.29 1099.19 655.31 C1098.86 656.3 1098.53 657.29 1098.19 658.31 C1096.87 658.31 1095.55 658.31 1094.19 658.31 C1094.52 659.3 1094.85 660.29 1095.19 661.31 C1094.44 663.12 1094.44 663.12 1093.19 665.31 C1092.69 666.3 1092.2 667.29 1091.69 668.31 C1090.84 670 1089.99 671.69 1089.12 673.38 C1088.03 675.65 1087.1 677.96 1086.19 680.31 C1084.87 680.31 1083.55 680.31 1082.19 680.31 C1082.06 681.43 1081.94 682.54 1081.81 683.69 C1081.19 687.31 1081.19 687.31 1079.19 689.31 C1078.53 688.98 1077.87 688.65 1077.19 688.31 C1077.16 688.9 1077.14 689.5 1077.11 690.11 C1076.72 695.47 1075.99 698.28 1072.19 702.31 C1071.48 703.62 1070.79 704.95 1070.19 706.31 C1069.2 705.98 1068.21 705.65 1067.19 705.31 C1067.06 706.41 1066.94 707.5 1066.81 708.62 C1066.19 712.31 1066.19 712.31 1064.19 715.31 C1063.53 715.31 1062.87 715.31 1062.19 715.31 C1062.06 716.43 1061.94 717.54 1061.81 718.69 C1061.19 722.31 1061.19 722.31 1059.19 724.31 C1058.53 723.98 1057.87 723.65 1057.19 723.31 C1056.86 726.28 1056.53 729.25 1056.19 732.31 C1055.2 732.64 1054.21 732.97 1053.19 733.31 C1052.48 735.63 1051.82 737.97 1051.19 740.31 C1050.53 740.64 1049.87 740.97 1049.19 741.31 C1048.53 740.98 1047.87 740.65 1047.19 740.31 C1047.52 741.3 1047.85 742.29 1048.19 743.31 C1047.53 743.31 1046.87 743.31 1046.19 743.31 C1045.86 743.97 1045.53 744.63 1045.19 745.31 C1045.52 745.97 1045.85 746.63 1046.19 747.31 C1044.87 747.31 1043.55 747.31 1042.19 747.31 C1041.86 746.32 1041.53 745.33 1041.19 744.31 C1039.87 744.31 1038.55 744.31 1037.19 744.31 C1036.53 743.32 1035.87 742.33 1035.19 741.31 C1032.84 740.19 1032.84 740.19 1030.19 739.31 C1025.41 737.53 1025.41 737.53 1023.19 735.31 C1022.2 734.65 1021.21 733.99 1020.19 733.31 C1018 731.81 1018 731.81 1016.19 730.31 C1016.19 729.65 1016.19 728.99 1016.19 728.31 C1015.07 728.19 1013.96 728.07 1012.81 727.94 C1009.19 727.31 1009.19 727.31 1007.19 725.31 C1004.42 723.19 1004.42 723.19 1001.69 722.81 C999.19 722.31 999.19 722.31 996.19 720.31 C993.42 720.15 990.84 720.51 988.19 721.31 C986.84 723.1 986.84 723.1 986.19 725.31 C984.19 727.56 984.19 727.56 982.19 729.31 C981.53 729.31 980.87 729.31 980.19 729.31 C979.86 730.3 979.53 731.29 979.19 732.31 C977.54 733.35 975.87 734.34 974.19 735.31 C973.2 736.16 972.21 737 971.19 737.88 C968.47 740.09 966.54 741.41 963.19 742.31 C962.2 741.98 961.21 741.65 960.19 741.31 C959.86 742.63 959.53 743.95 959.19 745.31 C958.53 745.31 957.87 745.31 957.19 745.31 C956.86 746.3 956.53 747.29 956.19 748.31 C954.87 748.31 953.55 748.31 952.19 748.31 C952.52 749.3 952.85 750.29 953.19 751.31 C949.63 754.45 946.65 755.86 942.19 757.31 C941.67 757.83 941.16 758.34 940.62 758.88 C938.64 760.86 936.94 761.03 934.19 761.31 C933.53 760.98 932.87 760.65 932.19 760.31 C932.52 761.3 932.85 762.29 933.19 763.31 C932.53 763.64 931.87 763.97 931.19 764.31 C930.53 763.98 929.87 763.65 929.19 763.31 C929.19 763.97 929.19 764.63 929.19 765.31 C927.94 765.96 926.69 766.61 925.44 767.25 C924.74 767.61 924.05 767.97 923.33 768.34 C921.19 769.31 921.19 769.31 918.98 769.75 C918.39 769.94 917.8 770.12 917.19 770.31 C916.86 771.3 916.53 772.29 916.19 773.31 C913.15 775.34 910.65 776.23 907.19 777.31 C906.12 777.7 905.04 778.1 903.94 778.5 C901.19 779.31 901.19 779.31 899.19 778.31 C899.19 778.97 899.19 779.63 899.19 780.31 C897.9 781.01 896.61 781.69 895.31 782.38 C894.59 782.76 893.87 783.14 893.13 783.54 C892.49 783.79 891.85 784.05 891.19 784.31 C890.53 783.98 889.87 783.65 889.19 783.31 C889.19 783.97 889.19 784.63 889.19 785.31 C886.69 787.91 884.59 788.52 881.12 788.88 C877.14 789.01 877.14 789.01 874.19 791.31 C873.53 790.98 872.87 790.65 872.19 790.31 C872.19 790.97 872.19 791.63 872.19 792.31 C869.48 793.67 867.18 793.38 864.19 793.31 C864.19 793.97 864.19 794.63 864.19 795.31 C863.38 795.6 862.58 795.89 861.75 796.19 C859.05 797.05 859.05 797.05 858.19 799.31 C857.17 805.6 857.08 811.72 857.16 818.09 C857.17 820.15 857.19 822.21 857.2 824.27 C857.22 827.5 857.25 830.72 857.28 833.95 C857.31 837.08 857.33 840.21 857.35 843.34 C857.36 844.31 857.37 845.28 857.39 846.28 C857.39 847.62 857.39 847.62 857.4 848.99 C857.41 849.78 857.41 850.57 857.42 851.38 C857.19 853.31 857.19 853.31 855.19 855.31 C852.1 855.5 849.09 855.57 846 855.55 C845.04 855.55 844.07 855.55 843.08 855.55 C839.83 855.55 836.58 855.54 833.33 855.52 C831.01 855.52 828.68 855.52 826.36 855.52 C821.35 855.52 816.34 855.51 811.33 855.49 C804.08 855.47 796.84 855.46 789.59 855.46 C777.83 855.45 766.08 855.43 754.32 855.41 C753.61 855.41 752.91 855.41 752.18 855.4 C751.48 855.4 750.77 855.4 750.05 855.4 C740.05 855.38 730.05 855.36 720.06 855.35 C719.36 855.35 718.65 855.34 717.93 855.34 C706.21 855.33 694.5 855.31 682.79 855.3 C674.91 855.29 667.03 855.28 659.16 855.26 C654.27 855.25 649.38 855.24 644.49 855.24 C642.21 855.23 639.94 855.23 637.66 855.22 C634.56 855.21 631.47 855.21 628.37 855.21 C627.01 855.2 627.01 855.2 625.61 855.19 C621.26 855.06 621.26 855.06 617.19 856.31 C617.19 837.17 617.19 818.03 617.19 798.31 C615.08 797.2 615.08 797.2 612.25 796.38 C609.19 795.31 609.19 795.31 606.19 793.31 C604.6 792.81 602.99 792.36 601.38 791.94 C597.02 790.7 593.94 788.87 590.19 786.31 C589.2 786.15 588.21 785.98 587.19 785.81 C583.42 785.18 581.29 783.49 578.19 781.31 C575.23 779.98 572.35 779.02 569.19 778.31 C569.19 777.65 569.19 776.99 569.19 776.31 C568.12 776.21 567.04 776.11 565.94 776 C562.34 775.34 560.73 774.85 558.19 772.31 C558.19 771.65 558.19 770.99 558.19 770.31 C556.17 770.15 554.15 769.99 552.13 769.82 C550.19 769.31 550.19 769.31 548.19 766.31 C545.64 765.11 545.64 765.11 543.19 764.31 C543.19 763.65 543.19 762.99 543.19 762.31 C540.54 760.88 537.91 759.88 535.06 758.94 C531.47 757.64 530.84 756.72 529.19 753.31 C526.86 752.62 524.53 751.95 522.19 751.31 C521.86 750.32 521.53 749.33 521.19 748.31 C519.21 747.98 517.23 747.65 515.19 747.31 C514.86 745.99 514.53 744.67 514.19 743.31 C513.2 743.64 512.21 743.97 511.19 744.31 C511.19 743.65 511.19 742.99 511.19 742.31 C510.2 742.31 509.21 742.31 508.19 742.31 C506.48 740.69 504.81 739.02 503.19 737.31 C502.45 736.76 501.7 736.2 500.94 735.62 C499.19 734.31 499.19 734.31 498.19 732.31 C497.59 732.02 496.99 731.73 496.38 731.43 C493.78 730.1 492.15 728.47 490.12 726.38 C489.45 725.69 488.78 725 488.09 724.29 C486.19 722.31 486.19 722.31 484.69 720.5 C483.25 719.08 483.25 719.08 481.29 719.51 C479.05 720.37 476.82 721.23 474.62 722.19 C473.86 722.51 473.1 722.84 472.31 723.18 C470.13 724.2 470.13 724.2 468.6 725.95 C467.19 727.31 467.19 727.31 464.19 727.31 C463.86 727.97 463.53 728.63 463.19 729.31 C461.85 729.65 460.52 729.98 459.19 730.31 C458.34 730.83 457.5 731.34 456.62 731.88 C454.19 733.31 454.19 733.31 451.19 733.31 C450.96 733.93 450.73 734.55 450.5 735.19 C448.78 737.97 447.25 738.29 444.19 739.31 C443.49 739.66 442.78 740.01 442.06 740.38 C440.19 741.31 440.19 741.31 437.19 742.31 C436.86 743.3 436.53 744.29 436.19 745.31 C433.42 745.91 431.03 746.31 428.19 746.31 C427.92 745.74 427.65 745.16 427.38 744.56 C426.24 742.26 426.24 742.26 424.56 740.19 C423.19 738.31 423.19 738.31 423.19 736.31 C422.2 735.98 421.21 735.65 420.19 735.31 C419.13 732.5 419.13 732.5 418.19 729.31 C417.54 727.97 416.87 726.64 416.19 725.31 C415.86 724.43 415.53 723.54 415.19 722.62 C414.42 720.16 414.42 720.16 412.19 719.31 C411.85 717.98 411.52 716.65 411.19 715.31 C410.53 714.98 409.87 714.65 409.19 714.31 C409.19 713.32 409.19 712.33 409.19 711.31 C408.53 711.31 407.87 711.31 407.19 711.31 C406.11 708.66 405.09 706.03 404.19 703.31 C403.53 702.98 402.87 702.65 402.19 702.31 C401.53 701.32 400.87 700.33 400.19 699.31 C400.52 698.65 400.85 697.99 401.19 697.31 C400.53 696.98 399.87 696.65 399.19 696.31 C397.05 693.33 395.35 690.8 394.19 687.31 C393.53 686.98 392.87 686.65 392.19 686.31 C392.19 685.32 392.19 684.33 392.19 683.31 C388.28 683.89 386.18 685.83 383.19 688.31 C382.38 688.79 381.58 689.26 380.75 689.75 C378.6 691.06 376.94 692.35 375.06 694 C372.19 696.31 372.19 696.31 369.19 696.31 C368.82 697.21 368.82 697.21 368.44 698.12 C366.59 701.37 364.09 702.8 360.9 704.62 C357.92 706.48 355.32 708.57 352.62 710.81 C344.58 717.5 344.58 717.5 340.81 719.69 C338.65 721.02 336.95 722.34 335.06 724 C332.19 726.31 332.19 726.31 329.19 726.31 C328.82 727.21 328.82 727.21 328.44 728.12 C326.58 731.37 324.08 732.8 320.88 734.63 C318 736.43 315.52 738.44 312.94 740.62 C309.62 743.38 306.32 745.98 302.69 748.31 C299.14 750.59 295.93 753.11 292.69 755.81 C288.75 759.09 284.77 762 280.46 764.76 C276.88 767.21 273.58 769.99 270.25 772.77 C268.19 774.31 268.19 774.31 266.19 774.31 C266.19 774.97 266.19 775.63 266.19 776.31 C264.61 777.46 264.61 777.46 262.5 778.69 C260.05 780.12 258.04 781.45 255.94 783.37 C252.64 785.7 250.94 785.82 246.93 785.83 C245.04 785.85 245.04 785.85 243.11 785.87 C241.72 785.87 240.33 785.86 238.94 785.86 C237.47 785.87 236 785.88 234.54 785.89 C230.55 785.92 226.57 785.92 222.59 785.92 C218.43 785.92 214.27 785.95 210.11 785.97 C202.23 786.01 194.35 786.03 186.47 786.05 C177.49 786.06 168.52 786.1 159.55 786.14 C141.1 786.22 122.64 786.28 104.19 786.31 C103.2 789.61 102.21 792.91 101.19 796.31 C100.53 796.31 99.87 796.31 99.19 796.31 C99.06 797.03 98.94 797.76 98.81 798.5 C98.2 801.27 97.3 803.71 96.19 806.31 C95.53 806.31 94.87 806.31 94.19 806.31 C94.19 806.97 94.19 807.63 94.19 808.31 C93.53 808.31 92.87 808.31 92.19 808.31 C92.08 809.08 91.98 809.84 91.88 810.62 C91.11 813.61 90.39 814.28 88.19 816.31 C87.16 817.96 86.16 819.63 85.19 821.31 C84.53 822.3 83.87 823.29 83.19 824.31 C82.53 824.31 81.87 824.31 81.19 824.31 C80.86 825.3 80.53 826.29 80.19 827.31 C79.53 827.31 78.87 827.31 78.19 827.31 C78.19 827.97 78.19 828.63 78.19 829.31 C77.53 829.31 76.87 829.31 76.19 829.31 C75.86 830.3 75.53 831.29 75.19 832.31 C74.53 832.31 73.87 832.31 73.19 832.31 C73.19 832.97 73.19 833.63 73.19 834.31 C70.07 837.07 66.76 839.19 63.19 841.31 C62.53 841.97 61.87 842.63 61.19 843.31 C59.87 843.31 58.55 843.31 57.19 843.31 C57 843.91 56.82 844.51 56.62 845.12 C54.48 848.39 51.79 849.05 48.19 850.31 C47.2 850.31 46.21 850.31 45.19 850.31 C45.19 850.97 45.19 851.63 45.19 852.31 C44.21 852.58 43.24 852.84 42.23 853.12 C40.95 853.47 39.66 853.83 38.38 854.19 C36.48 854.71 36.48 854.71 34.54 855.24 C31.1 856.17 31.1 856.17 28.19 858.31 C19.5 861.37 9.65 860.65 0.58 860.63 C-2.17 860.63 -4.92 860.65 -7.67 860.67 C-17.17 860.71 -25.74 860.39 -34.81 857.31 C-34.81 856.65 -34.81 855.99 -34.81 855.31 C-36.02 855.41 -36.02 855.41 -37.25 855.5 C-41.79 855.26 -45.58 853.89 -49.81 852.31 C-49.81 851.65 -49.81 850.99 -49.81 850.31 C-50.51 850.21 -51.22 850.11 -51.94 850 C-55.25 849.21 -57.88 848.05 -60.81 846.31 C-61.31 844.83 -61.31 844.83 -61.81 843.31 C-62.58 843.19 -63.34 843.07 -64.12 842.94 C-66.81 842.31 -66.81 842.31 -69.81 840.31 C-69.81 839.65 -69.81 838.99 -69.81 838.31 C-70.39 838.21 -70.97 838.11 -71.56 838 C-74.17 837.2 -75.79 836.12 -77.81 834.31 C-77.81 833.65 -77.81 832.99 -77.81 832.31 C-78.8 831.98 -79.79 831.65 -80.81 831.31 C-80.81 830.65 -80.81 829.99 -80.81 829.31 C-81.47 829.31 -82.13 829.31 -82.81 829.31 C-82.81 828.65 -82.81 827.99 -82.81 827.31 C-83.8 826.98 -84.79 826.65 -85.81 826.31 C-85.81 825.65 -85.81 824.99 -85.81 824.31 C-86.47 824.31 -87.13 824.31 -87.81 824.31 C-90.58 821.19 -92.69 817.88 -94.81 814.31 C-98.03 809.58 -98.03 809.58 -101.81 805.31 C-106.17 795.98 -109.78 786.15 -112.81 776.31 C-113.15 775.31 -113.49 774.31 -113.84 773.28 C-115.13 768.73 -115.08 764.31 -115.04 759.62 C-115.04 758.71 -115.04 757.8 -115.04 756.86 C-115.04 754.94 -115.03 753.03 -115.02 751.11 C-115 748.19 -115 745.26 -115 742.34 C-114.99 740.47 -114.99 738.61 -114.98 736.74 C-114.98 735.87 -114.98 735 -114.98 734.1 C-114.95 730.04 -114.81 726.28 -113.81 722.31 C-113.63 721.38 -113.44 720.46 -113.25 719.5 C-113.11 718.78 -112.96 718.06 -112.81 717.31 C-112.15 717.31 -111.49 717.31 -110.81 717.31 C-110.87 715.92 -110.87 715.92 -110.94 714.5 C-110.81 711.31 -110.81 711.31 -108.81 708.31 C-108.11 705.99 -107.44 703.66 -106.81 701.31 C-105.81 698.31 -105.81 698.31 -103.81 696.31 C-103.5 695.51 -103.19 694.7 -102.88 693.88 C-101.79 691.26 -100.76 690.26 -98.81 688.31 C-98.48 687.49 -98.15 686.66 -97.81 685.81 C-96.77 683.22 -95.75 682.25 -93.81 680.31 C-93.38 679.15 -93.38 679.15 -92.94 677.96 C-91.74 675.14 -90.48 673.59 -88.33 671.43 C-87.64 670.74 -86.95 670.05 -86.24 669.33 C-85.52 668.62 -84.8 667.92 -84.06 667.19 C-83.01 666.11 -83.01 666.11 -81.93 665.02 C-78.12 661.23 -74.8 658.48 -69.81 656.31 C-67.8 654.67 -65.8 653 -63.81 651.31 C-60.26 648.86 -59.25 648.31 -54.81 648.31 C-54.81 647.65 -54.81 646.99 -54.81 646.31 C-53.15 645.64 -51.48 644.97 -49.81 644.31 C-49.2 644.06 -48.58 643.81 -47.95 643.55 C-43.54 641.8 -39.53 640.8 -34.81 640.31 C-34.81 639.65 -34.81 638.99 -34.81 638.31 C-32.5 638.31 -30.19 638.31 -27.81 638.31 C-27.48 637.65 -27.15 636.99 -26.81 636.31 C-26.15 636.31 -25.49 636.31 -24.81 636.31 C-23.22 636.06 -23.22 636.06 -21.59 635.8 C-2.13 632.87 17.7 634.5 36.19 641.31 C37.68 641.84 37.68 641.84 39.2 642.39 C44.13 644.25 48.71 646.52 53.19 649.31 C54.59 650.16 54.59 650.16 56.03 651.02 C57.03 651.63 58.03 652.24 59.06 652.88 C60.01 653.45 60.95 654.03 61.93 654.63 C64.19 656.31 64.19 656.31 65.19 659.31 C66.84 659.64 68.49 659.97 70.19 660.31 C70.52 661.3 70.85 662.29 71.19 663.31 C72.09 663.53 72.09 663.53 73.02 663.76 C75.94 664.5 76.95 665.91 78.88 668.19 C79.48 668.89 80.08 669.58 80.7 670.3 C82.19 672.31 82.19 672.31 83.19 675.31 C84.18 675.64 85.17 675.97 86.19 676.31 C87.21 678.3 88.2 680.3 89.19 682.31 C90.35 683.67 90.35 683.67 91.53 685.05 C94.38 688.39 96.37 691.98 98.38 695.88 C98.89 696.84 98.89 696.84 99.41 697.83 C101.21 701.26 102.78 704.71 104.19 708.31 C120.04 708.25 135.9 708.17 151.75 708.08 C159.11 708.03 166.48 707.99 173.84 707.97 C180.25 707.94 186.67 707.91 193.08 707.86 C196.48 707.84 199.88 707.82 203.28 707.81 C207.07 707.81 210.86 707.78 214.65 707.74 C215.78 707.75 216.91 707.75 218.07 707.75 C219.1 707.74 220.13 707.72 221.2 707.71 C222.09 707.71 222.99 707.7 223.91 707.7 C226.64 707.24 227.41 706.36 229.19 704.31 C229.82 704.17 230.46 704.02 231.12 703.87 C233.99 703.09 235.28 701.52 237.31 699.38 C238 698.66 238.68 697.95 239.38 697.22 C239.98 696.59 240.57 695.96 241.19 695.31 C241.85 694.65 242.51 693.99 243.19 693.31 C244.52 693.31 245.85 693.31 247.19 693.31 C247.5 692.42 247.5 692.42 247.81 691.5 C249.71 688.49 252 687.87 255.19 686.31 C256.95 684.94 258.6 683.48 260.26 682 C265.27 677.62 270.47 673.71 276.19 670.31 C277.62 669.14 279.04 667.97 280.45 666.77 C285.47 662.56 290.55 658.66 296.19 655.31 C297.62 654.14 299.04 652.97 300.45 651.77 C305.47 647.56 310.55 643.66 316.19 640.31 C317.62 639.14 319.04 637.97 320.45 636.77 C322.52 635.04 324.63 633.36 326.75 631.69 C327.47 631.12 328.2 630.55 328.94 629.96 C331.19 628.31 331.19 628.31 333.62 626.87 C340.52 622.68 347.31 617.51 351.19 610.31 C350.53 610.31 349.87 610.31 349.19 610.31 C349.19 609.65 349.19 608.99 349.19 608.31 C348.53 608.31 347.87 608.31 347.19 608.31 C347.19 607.32 347.19 606.33 347.19 605.31 C346.53 605.31 345.87 605.31 345.19 605.31 C344.75 603.95 344.75 603.95 344.31 602.56 C343.42 599.97 342.44 597.73 341.19 595.31 C340.86 594.43 340.53 593.54 340.19 592.62 C339.42 590.16 339.42 590.16 337.19 589.31 C336.85 587.98 336.52 586.65 336.19 585.31 C335.53 584.98 334.87 584.65 334.19 584.31 C334.19 583.32 334.19 582.33 334.19 581.31 C333.53 581.31 332.87 581.31 332.19 581.31 C332.11 580.74 332.02 580.16 331.94 579.56 C331.33 577.15 331.33 577.15 329.19 575.44 C326.69 572.78 326.66 570.85 326.19 567.31 C325.53 566.98 324.87 566.65 324.19 566.31 C322.05 563.33 320.35 560.8 319.19 557.31 C318.53 556.98 317.87 556.65 317.19 556.31 C316.56 553.25 316.56 553.25 316.19 550.31 C315.53 550.31 314.87 550.31 314.19 550.31 C312.3 547.4 310.53 544.52 309.19 541.31 C309.88 538.25 309.88 538.25 311.19 536.31 C312.51 536.31 313.83 536.31 315.19 536.31 C315.19 535.65 315.19 534.99 315.19 534.31 C316.84 533.98 318.49 533.65 320.19 533.31 C320.19 532.65 320.19 531.99 320.19 531.31 C320.95 531.04 321.71 530.78 322.5 530.5 C325.15 529.53 325.15 529.53 326.56 527.88 C329.75 524.81 333.81 523.31 338.19 523.31 C338.19 522.65 338.19 521.99 338.19 521.31 C339.16 520.86 340.13 520.4 341.12 519.94 C344.26 518.65 344.26 518.65 345.19 516.31 C347.47 515.46 347.47 515.46 350.25 514.69 C351.17 514.43 352.09 514.17 353.04 513.9 C354.1 513.61 354.1 513.61 355.19 513.31 C355.19 512.65 355.19 511.99 355.19 511.31 C356.18 510.98 357.17 510.65 358.19 510.31 C358.45 503.45 358.31 495.56 355.19 489.31 C354.97 487.72 354.8 486.12 354.65 484.52 C354.57 483.58 354.48 482.64 354.39 481.67 C354.3 480.69 354.21 479.7 354.12 478.69 C354.03 477.69 353.94 476.7 353.85 475.68 C353.63 473.22 353.4 470.77 353.19 468.31 C321.64 468.33 290.1 468.36 258.56 468.44 C254.84 468.45 251.12 468.46 247.4 468.47 C246.28 468.47 246.28 468.47 245.15 468.47 C233.14 468.5 221.14 468.51 209.13 468.51 C196.82 468.51 184.5 468.53 172.19 468.57 C164.59 468.6 156.99 468.61 149.38 468.6 C143.56 468.59 137.74 468.61 131.91 468.64 C129.52 468.65 127.13 468.65 124.73 468.64 C121.48 468.63 118.22 468.65 114.96 468.67 C114.01 468.66 113.05 468.65 112.07 468.64 C109.67 468.68 107.52 468.75 105.19 469.31 C102.95 471.89 102.34 473.84 101.31 477.06 C99.02 483.68 95.16 489.58 91.19 495.31 C90.86 494.65 90.53 493.99 90.19 493.31 C89.2 493.31 88.21 493.31 87.19 493.31 C87.19 494.3 87.19 495.29 87.19 496.31 C87.85 496.31 88.51 496.31 89.19 496.31 C89.19 496.97 89.19 497.63 89.19 498.31 C88.53 498.31 87.87 498.31 87.19 498.31 C87.05 499.43 87.05 499.43 86.9 500.57 C86.08 503.73 85.06 504.94 82.77 507.23 C82.07 507.93 81.37 508.62 80.66 509.34 C79.92 510.05 79.19 510.77 78.44 511.5 C77.72 512.22 77 512.95 76.27 513.69 C72.66 517.26 69.96 519.49 65.19 521.31 C64.51 521.99 63.83 522.67 63.12 523.38 C61.08 525.42 59.99 525.91 57.19 526.31 C57.19 526.97 57.19 527.63 57.19 528.31 C54.54 529.77 53.29 530.31 50.19 530.31 C50.19 530.97 50.19 531.63 50.19 532.31 C49.33 532.64 48.47 532.96 47.59 533.3 C40.55 535.97 40.55 535.97 33.62 538.94 C22.75 543.29 12.31 543.84 0.75 543.81 C-1.91 543.81 -4.58 543.85 -7.24 543.9 C-22.32 544 -36.29 541.23 -49.81 534.31 C-50.62 533.93 -51.42 533.55 -52.25 533.16 C-58.03 530.4 -63.85 527.4 -68.81 523.31 C-68.81 522.65 -68.81 521.99 -68.81 521.31 C-69.63 521.14 -70.46 520.97 -71.3 520.8 C-76.23 518.71 -79.26 515.37 -82.94 511.56 C-83.64 510.86 -84.34 510.15 -85.07 509.43 C-90.2 504.21 -94.34 499.31 -96.81 492.31 C-97.47 492.31 -98.13 492.31 -98.81 492.31 C-99.13 491.67 -99.44 491.03 -99.77 490.37 C-100.19 489.51 -100.62 488.64 -101.06 487.75 C-101.48 486.9 -101.9 486.06 -102.33 485.18 C-103.41 483.08 -104.59 481.03 -105.82 479.01 C-108.07 475.1 -109.27 471.08 -110.44 466.75 C-110.85 465.29 -111.25 463.83 -111.66 462.37 C-111.92 461.42 -111.92 461.42 -112.19 460.44 C-112.81 458.2 -112.81 458.2 -113.87 455.67 C-115.11 451.24 -115.08 447.15 -115.04 442.57 C-115.04 441.65 -115.04 440.73 -115.04 439.78 C-115.04 437.84 -115.03 435.91 -115.02 433.97 C-115 430.99 -115 428.02 -115 425.04 C-114.99 423.15 -114.99 421.27 -114.98 419.39 C-114.98 418.49 -114.98 417.6 -114.98 416.68 C-114.93 410.43 -114.93 410.43 -113.81 409.31 C-113.6 407.71 -113.44 406.11 -113.31 404.5 C-112.95 400.15 -112.62 396.63 -110.31 392.88 C-108.68 390.43 -108.68 390.43 -108.38 387.81 C-107.64 384.56 -105.99 382.78 -103.81 380.31 C-104.14 379.65 -104.47 378.99 -104.81 378.31 C-104.15 378.31 -103.49 378.31 -102.81 378.31 C-102.94 377.17 -102.94 377.17 -103.06 376 C-102.98 375.11 -102.9 374.23 -102.81 373.31 C-101.51 372.27 -100.17 371.27 -98.81 370.31 C-98.48 369.47 -98.15 368.62 -97.81 367.75 C-96.59 364.76 -95.61 364.66 -92.81 363.31 C-92.67 362.71 -92.53 362.11 -92.38 361.49 C-91.28 357.29 -87.72 354.41 -84.81 351.31 C-84.14 350.59 -83.47 349.87 -82.78 349.12 C-79.01 345.18 -75.79 342.64 -70.81 340.31 C-69.13 338.67 -67.46 337 -65.81 335.31 C-65.15 335.31 -64.49 335.31 -63.81 335.31 C-63.21 334.69 -62.62 334.08 -62 333.44 C-59.59 331.1 -57.97 330.39 -54.81 329.31 C-49.3 327.37 -49.3 327.37 -44.12 324.69 C-41.63 323.2 -39.69 322.62 -36.81 322.31 C-36.15 322.64 -35.49 322.97 -34.81 323.31 C-34.81 322.65 -34.81 321.99 -34.81 321.31 C-33.96 321.18 -33.1 321.05 -32.22 320.91 C-31.12 320.73 -30.01 320.56 -28.88 320.38 C-27.22 320.11 -27.22 320.11 -25.54 319.85 C-22.91 319.59 -22.91 319.59 -21.81 318.31 C-19.37 318.2 -16.96 318.15 -14.52 318.14 C-13.77 318.14 -13.03 318.14 -12.26 318.13 C-10.67 318.13 -9.08 318.13 -7.5 318.13 C-5.11 318.13 -2.73 318.11 -0.35 318.09 C10.05 318.05 20.08 318.65 30.19 321.31 C30.19 321.97 30.19 322.63 30.19 323.31 C30.91 323.26 31.63 323.21 32.38 323.16 C35.59 323.33 37.37 324.17 40.19 325.69 C42.66 327.01 45.06 328.26 47.67 329.29 C50.43 330.41 52.88 331.78 55.44 333.31 C56.31 333.83 57.18 334.34 58.08 334.88 C60.19 336.31 60.19 336.31 61.19 338.31 C62.5 339.01 63.84 339.67 65.19 340.31 C75.92 347.01 85.91 357.38 92.19 368.31 C92.66 369.09 93.12 369.86 93.61 370.66 C95.41 373.68 97.16 376.73 98.88 379.81 C99.5 380.92 100.12 382.02 100.76 383.16 C102.15 386.24 102.52 387.99 102.19 391.31 C105.04 392.12 107.58 392.44 110.54 392.45 C111.41 392.46 112.27 392.46 113.17 392.47 C114.59 392.47 114.59 392.47 116.05 392.47 C117.06 392.48 118.07 392.48 119.11 392.49 C122.51 392.5 125.91 392.51 129.32 392.52 C131.75 392.53 134.18 392.54 136.62 392.55 C141.86 392.57 147.11 392.59 152.35 392.6 C159.94 392.63 167.52 392.65 175.11 392.68 C187.41 392.73 199.71 392.77 212.02 392.82 C223.97 392.85 235.92 392.9 247.88 392.94 C248.98 392.94 248.98 392.94 250.11 392.95 C253.81 392.96 257.5 392.98 261.2 392.99 C291.86 393.1 322.52 393.21 353.19 393.31 C353.24 392.73 353.3 392.14 353.36 391.54 C353.61 388.88 353.87 386.22 354.12 383.56 C354.21 382.64 354.3 381.72 354.39 380.77 C354.48 379.88 354.56 378.99 354.65 378.08 C354.77 376.85 354.77 376.85 354.89 375.6 C355.17 373.44 355.62 371.42 356.19 369.31 C356.71 366.49 357.11 363.66 357.5 360.81 C357.62 360.05 357.75 359.29 357.88 358.51 C358.5 353.88 358.5 353.88 356.38 349.88 C353.17 347.58 350.17 345.67 346.44 344.31 C345.69 343.98 344.95 343.65 344.19 343.31 C343.86 342.32 343.53 341.33 343.19 340.31 C341.17 340.15 339.15 339.99 337.13 339.82 C335.19 339.31 335.19 339.31 333.19 336.31 C331.52 335.64 329.86 334.97 328.19 334.31 C326.5 333 324.84 331.67 323.19 330.31 C321.19 329.23 319.21 328.32 317.08 327.52 C311.67 325.35 311.67 325.35 310.31 322.41 C309.92 320.22 309.82 318.51 310.19 316.31 C312.06 314 312.06 314 314.19 312.31 C314.52 311.32 314.85 310.33 315.19 309.31 C315.85 309.31 316.51 309.31 317.19 309.31 C317.29 308.61 317.39 307.91 317.5 307.19 C318.42 303.34 319.73 299.7 322.64 296.93 C324.5 294.98 325.42 293.06 326.56 290.62 C328.52 286.56 330.69 282.77 333.17 279 C334.35 277.17 334.35 277.17 335.19 274.31 C335.85 274.31 336.51 274.31 337.19 274.31 C337.5 273.36 337.81 272.42 338.12 271.44 C339.19 268.31 339.19 268.31 340.19 266.31 C340.85 266.31 341.51 266.31 342.19 266.31 C342.29 265.59 342.39 264.87 342.5 264.12 C343.25 261.04 344.51 259 346.19 256.31 C346.88 254.65 347.54 252.99 348.19 251.31 C348.85 249.97 349.51 248.64 350.19 247.31 C346.02 243.54 342.04 240.17 337.19 237.31 C336.53 236.32 335.87 235.33 335.19 234.31 C333.86 233.66 333.86 233.66 332.5 233 C327.81 230.61 324.28 227.21 320.4 223.7 C317.72 221.32 315.41 219.42 312.19 217.81 C307.62 215.53 304.17 212.1 300.4 208.7 C297.72 206.32 295.41 204.42 292.19 202.81 C287.62 200.53 284.17 197.1 280.4 193.7 C277.72 191.32 275.41 189.42 272.19 187.81 C267.62 185.53 264.17 182.1 260.4 178.7 C257.58 176.2 255.21 174.33 251.81 172.62 C249.19 171.31 249.19 171.31 248.19 168.31 C246.87 167.94 245.53 167.61 244.19 167.31 C242.33 166.11 242.33 166.11 240.44 164.62 C236.9 161.87 233.3 159.22 229.66 156.61 C229.17 156.18 228.69 155.75 228.19 155.31 C228.19 154.65 228.19 153.99 228.19 153.31 C187.6 152.98 147.01 152.65 105.19 152.31 C103.87 155.28 102.55 158.25 101.19 161.31 C100.53 161.31 99.87 161.31 99.19 161.31 C99.1 161.97 99.02 162.63 98.94 163.31 C97.3 169.86 94.07 174.69 89.58 179.64 C87.63 181.98 86.41 184.54 85.19 187.31 C84.53 187.31 83.87 187.31 83.19 187.31 C82.94 187.88 82.69 188.46 82.44 189.05 C80.99 191.66 79.31 193.46 77.19 195.56 C76.14 196.62 76.14 196.62 75.06 197.7 C73.19 199.31 73.19 199.31 71.19 199.31 C70.86 200.3 70.53 201.29 70.19 202.31 C68.2 203.33 66.2 204.33 64.19 205.31 C62.75 206.53 61.31 207.74 59.89 208.97 C55.36 212.53 51 215.31 45.19 215.31 C45.19 215.97 45.19 216.63 45.19 217.31 C42.69 218.28 40.19 219.23 37.69 220.19 C36.99 220.46 36.3 220.73 35.58 221 C27.3 224.15 19.86 225.6 11 225.88 C5.93 226.05 1.16 226.3 -3.81 227.31 C-4.47 226.98 -5.13 226.65 -5.81 226.31 C-7.95 226.24 -10.1 226.17 -12.24 226.12 C-25.81 225.81 -37.42 222.8 -49.81 217.31 C-49.81 216.65 -49.81 215.99 -49.81 215.31 C-50.53 215.19 -51.26 215.08 -52 214.95 C-59.21 213.31 -64.78 209.62 -69.81 204.31 C-72.98 202.52 -72.98 202.52 -75.81 201.31 C-75.81 200.65 -75.81 199.99 -75.81 199.31 C-76.67 198.94 -76.67 198.94 -77.55 198.56 C-80.16 197.12 -81.96 195.43 -84.06 193.31 C-84.77 192.61 -85.48 191.91 -86.2 191.19 C-87.81 189.31 -87.81 189.31 -87.81 187.31 C-88.8 186.98 -89.79 186.65 -90.81 186.31 C-91.5 184.25 -91.5 184.25 -91.81 182.31 C-92.47 182.31 -93.13 182.31 -93.81 182.31 C-95.98 179.15 -97.48 175.9 -98.81 172.31 C-99.47 172.31 -100.13 172.31 -100.81 172.31 C-101.22 171.32 -101.64 170.33 -102.06 169.31 C-103.22 166.59 -104.47 163.95 -105.81 161.31 C-109.5 153.93 -111.57 147.38 -113.16 139.23 C-113.51 136.43 -113.51 136.43 -114.81 135.31 C-114.93 132.26 -114.98 129.22 -114.98 126.17 C-114.98 125.25 -114.99 124.33 -114.99 123.38 C-115 121.42 -115 119.47 -115 117.51 C-115 114.52 -115.02 111.53 -115.04 108.54 C-115.04 106.65 -115.04 104.75 -115.04 102.86 C-115.05 101.96 -115.06 101.07 -115.06 100.14 C-115.06 99.31 -115.06 98.47 -115.06 97.61 C-115.06 96.87 -115.06 96.14 -115.06 95.38 C-114.78 93.01 -113.99 91.38 -112.81 89.31 C-113.47 88.98 -114.13 88.65 -114.81 88.31 C-114.15 86.33 -113.49 84.35 -112.81 82.31 C-112.48 82.31 -112.15 82.31 -111.81 82.31 C-111.7 81.74 -111.59 81.18 -111.48 80.59 C-110.17 74.2 -108.47 68.79 -104.81 63.31 C-104.15 63.31 -103.49 63.31 -102.81 63.31 C-102.87 62.4 -102.94 61.5 -103 60.56 C-102.8 57.02 -102.29 55.79 -99.81 53.31 C-99.15 53.31 -98.49 53.31 -97.81 53.31 C-97.71 52.55 -97.61 51.79 -97.5 51 C-96.73 47.99 -95.98 47.4 -93.81 45.31 C-93.43 44.45 -93.06 43.59 -92.67 42.7 C-90.24 38.27 -87.08 35.14 -83.5 31.62 C-82.85 30.96 -82.2 30.3 -81.53 29.62 C-77.86 25.97 -74.61 23.41 -69.81 21.31 C-69.28 20.76 -68.74 20.2 -68.19 19.62 C-66.81 18.31 -66.81 18.31 -62.81 18.31 C-62.81 17.65 -62.81 16.99 -62.81 16.31 C-59.87 13.64 -56.79 12.41 -53.06 11.12 C-52.08 10.78 -51.09 10.44 -50.08 10.08 C-49.33 9.83 -48.58 9.57 -47.81 9.31 C-47.81 8.98 -47.81 8.65 -47.81 8.31 C-46.81 8.04 -45.81 7.76 -44.79 7.47 C-43.48 7.11 -42.18 6.74 -40.88 6.38 C-40.22 6.19 -39.56 6.01 -38.88 5.82 C-35.57 5.09 -35.57 5.09 -32.81 3.31 C-22.02 0.37 -11.13 0.01 0 0 Z M84.19 42.31 C85.19 44.31 85.19 44.31 85.19 44.31 Z M94.19 57.31 C95.19 59.31 95.19 59.31 95.19 59.31 Z M1072.19 162.31 C1073.19 164.31 1073.19 164.31 1073.19 164.31 Z M87.19 177.31 C88.19 179.31 88.19 179.31 88.19 179.31 Z M1091.19 194.31 C1092.19 196.31 1092.19 196.31 1092.19 196.31 Z M60.19 203.31 C59.86 203.97 59.53 204.63 59.19 205.31 C60.51 204.65 61.83 203.99 63.19 203.31 C62.2 203.31 61.21 203.31 60.19 203.31 Z M1127.19 257.31 C1128.19 259.31 1128.19 259.31 1128.19 259.31 Z M1147.19 292.31 C1148.19 294.31 1148.19 294.31 1148.19 294.31 Z M1118.19 389.31 C1119.19 391.31 1119.19 391.31 1119.19 391.31 Z M1114.19 507.31 C1115.19 509.31 1115.19 509.31 1115.19 509.31 Z M68.19 515.31 C67.86 515.97 67.53 516.63 67.19 517.31 C67.85 517.31 68.51 517.31 69.19 517.31 C68.86 516.65 68.53 515.99 68.19 515.31 Z M382.19 683.31 C382.19 684.3 382.19 685.29 382.19 686.31 C383.18 685.98 384.17 685.65 385.19 685.31 C385.19 684.65 385.19 683.99 385.19 683.31 C384.2 683.31 383.21 683.31 382.19 683.31 Z M91.19 687.31 C92.19 689.31 92.19 689.31 92.19 689.31 Z M362.19 698.31 C362.19 699.3 362.19 700.29 362.19 701.31 C363.18 700.98 364.17 700.65 365.19 700.31 C364.86 699.65 364.53 698.99 364.19 698.31 C363.53 698.31 362.87 698.31 362.19 698.31 Z M1072.19 698.31 C1073.19 700.31 1073.19 700.31 1073.19 700.31 Z M105.19 709.31 C105.19 709.64 105.19 709.97 105.19 710.31 C144.79 710.31 184.39 710.31 225.19 710.31 C225.19 709.98 225.19 709.65 225.19 709.31 C185.59 709.31 145.99 709.31 105.19 709.31 Z M345.19 710.31 C345.19 711.3 345.19 712.29 345.19 713.31 C346.18 712.98 347.17 712.65 348.19 712.31 C348.19 711.65 348.19 710.99 348.19 710.31 C347.2 710.31 346.21 710.31 345.19 710.31 Z M342.19 713.31 C342.19 714.3 342.19 715.29 342.19 716.31 C343.18 715.98 344.17 715.65 345.19 715.31 C344.86 714.65 344.53 713.99 344.19 713.31 C343.53 713.31 342.87 713.31 342.19 713.31 Z M325.19 725.31 C325.52 726.3 325.85 727.29 326.19 728.31 C326.85 727.98 327.51 727.65 328.19 727.31 C328.19 726.65 328.19 725.99 328.19 725.31 C327.2 725.31 326.21 725.31 325.19 725.31 Z M322.19 728.31 C322.19 729.3 322.19 730.29 322.19 731.31 C323.18 730.98 324.17 730.65 325.19 730.31 C324.86 729.65 324.53 728.99 324.19 728.31 C323.53 728.31 322.87 728.31 322.19 728.31 Z M305.19 740.31 C305.52 741.3 305.85 742.29 306.19 743.31 C306.85 742.98 307.51 742.65 308.19 742.31 C308.19 741.65 308.19 740.99 308.19 740.31 C307.2 740.31 306.21 740.31 305.19 740.31 Z M302.19 743.31 C302.19 744.3 302.19 745.29 302.19 746.31 C303.18 745.98 304.17 745.65 305.19 745.31 C304.86 744.65 304.53 743.99 304.19 743.31 C303.53 743.31 302.87 743.31 302.19 743.31 Z M282.19 758.31 C282.19 759.3 282.19 760.29 282.19 761.31 C283.18 760.98 284.17 760.65 285.19 760.31 C285.19 759.65 285.19 758.99 285.19 758.31 C284.2 758.31 283.21 758.31 282.19 758.31 Z M267.19 770.31 C268.19 772.31 268.19 772.31 268.19 772.31 Z M262.19 773.31 C262.19 774.3 262.19 775.29 262.19 776.31 C263.18 775.98 264.17 775.65 265.19 775.31 C264.86 774.65 264.53 773.99 264.19 773.31 C263.53 773.31 262.87 773.31 262.19 773.31 Z M255.19 778.31 C255.52 778.97 255.85 779.63 256.19 780.31 C256.85 779.65 257.51 778.99 258.19 778.31 C257.2 778.31 256.21 778.31 255.19 778.31 Z M253.19 780.31 C252.86 781.3 252.53 782.29 252.19 783.31 C253.18 782.98 254.17 782.65 255.19 782.31 C254.53 781.65 253.87 780.99 253.19 780.31 Z M93.19 803.31 C93.85 803.97 94.51 804.63 95.19 805.31 C95.19 804.65 95.19 803.99 95.19 803.31 C94.53 803.31 93.87 803.31 93.19 803.31 Z M87.19 811.31 C87.52 812.3 87.85 813.29 88.19 814.31 C88.19 813.65 88.19 812.99 88.19 812.31 C88.85 811.98 89.51 811.65 90.19 811.31 C89.2 811.31 88.21 811.31 87.19 811.31 Z " fill="#746D6B" transform="translate(114.8125,208.6875)"/>
<path d="M0 0 C38.94 0 77.88 0 118 0 C118.33 13.2 118.66 26.4 119 40 C119.66 40.33 120.32 40.66 121 41 C121 46.28 121 51.56 121 57 C123.31 57.33 125.62 57.66 128 58 C130.26 58.68 130.26 58.68 132.12 59.44 C132.8 59.7 133.47 59.97 134.16 60.24 C134.76 60.49 135.37 60.74 136 61 C138.66 62.08 141.28 63.09 144 64 C150.63 66.21 157.47 68.83 163.44 72.5 C165.84 73.91 168.09 74.83 170.69 75.81 C175.43 77.64 179.59 80.02 183.87 82.73 C186.06 84.14 186.06 84.14 189 85 C189.33 85.66 189.66 86.32 190 87 C192.82 88.54 195.62 89.86 198.62 91 C201.89 92.37 204.39 93.79 206 97 C206.83 97.23 207.65 97.45 208.5 97.69 C212.58 99.22 215.25 101.39 218.61 104.12 C221.71 106.56 225 108.65 228.35 110.74 C229.17 111.36 229.17 111.36 230 112 C230 112.66 230 113.32 230 114 C230.84 114.37 230.84 114.37 231.69 114.75 C234.4 116.22 236.6 118.07 239 120 C239.76 120.41 240.53 120.82 241.31 121.25 C243.95 122.97 245.81 124.75 248 127 C251.99 131.22 251.99 131.22 257 134 C260.62 133.2 262.91 132.06 266 130 C266.99 130 267.98 130 269 130 C269 129.34 269 128.68 269 128 C274.75 125 274.75 125 277 125 C277 124.34 277 123.68 277 123 C277.66 122.67 278.33 122.35 279.01 122.01 C283.44 119.82 287.82 117.64 292 115 C292.66 114.6 293.32 114.19 294 113.78 C298.25 111.21 298.25 111.21 302 108 C307.14 105.77 307.14 105.77 310.31 106.62 C312.45 108.37 312.41 109.34 313 112 C314.3 114.02 315.64 116.02 317 118 C317.69 119.32 318.38 120.65 319 122 C319.33 122 319.66 122 320 122 C320.66 124.64 321.32 127.28 322 130 C322.66 130 323.32 130 324 130 C324.43 131.7 324.43 131.7 324.88 133.44 C325.25 134.61 325.62 135.79 326 137 C326.66 137.33 327.32 137.66 328 138 C329.08 139.99 329.98 142.03 330.9 144.09 C331.99 146.32 331.99 146.32 335 148 C336.6 150.88 337.9 153.73 339.06 156.81 C339.79 159.17 339.79 159.17 342 160 C341.67 161.32 341.34 162.64 341 164 C341.66 164.33 342.32 164.66 343 165 C346 169.5 346 169.5 346 172 C346.66 172.33 347.32 172.66 348 173 C348.33 173.99 348.66 174.98 349 176 C349.66 176.33 350.32 176.66 351 177 C351.43 178.14 351.43 178.14 351.88 179.31 C352.83 182.12 352.83 182.12 355.12 184 C357.49 186.53 357.09 187.66 357 191 C357.99 191.66 358.98 192.32 360 193 C360 193.99 360 194.98 360 196 C360.99 196.33 361.98 196.66 363 197 C363.34 198.33 363.68 199.66 364 201 C364.66 201.99 365.32 202.98 366 204 C368 207 368 207 368.44 208.95 C369.13 211.47 370.29 212.86 371.94 214.88 C374.47 218.12 375.99 220.95 377 225 C377.66 225 378.32 225 379 225 C379.1 225.53 379.19 226.07 379.29 226.62 C380.22 229.74 381.73 232.26 383.38 235.06 C383.98 236.11 384.59 237.15 385.21 238.22 C386.68 240.5 387.99 242.22 390 244 C389.67 244.66 389.34 245.32 389 246 C389.33 246.33 389.66 246.66 390 247 C390.66 247 391.32 247 392 247 C392.33 249.31 392.66 251.62 393 254 C394.32 254.33 395.64 254.66 397 255 C397 256.65 397 258.3 397 260 C397.99 260.33 398.98 260.66 400 261 C401.06 263.25 401.06 263.25 402 266 C403.42 269.86 403.42 269.86 406 273 C406.33 273.68 406.66 274.36 407 275.06 C407.85 277.17 407.85 277.17 410 278 C412.29 282.2 414.52 286.53 415.44 291.25 C415.62 291.83 415.81 292.4 416 293 C416.99 293.33 417.98 293.66 419 294 C420.06 296.81 420.06 296.81 421 300 C422.84 304.3 425.12 306.41 429 309 C429.19 312.62 429.19 312.62 429 316 C427.89 316.54 426.78 317.09 425.64 317.64 C424.18 318.37 422.71 319.09 421.25 319.81 C420.52 320.17 419.79 320.53 419.04 320.89 C416.06 322.37 413.33 323.75 410.67 325.76 C409 327 409 327 406 327 C405.67 327.99 405.34 328.98 405 330 C404.07 330.14 403.14 330.29 402.19 330.44 C398.99 330.92 398.99 330.92 396 332 C395.67 332.99 395.34 333.98 395 335 C392.57 336.19 390.72 337 388 337 C388 337.66 388 338.32 388 339 C387.26 339.29 386.51 339.58 385.75 339.88 C383.43 340.82 381.22 341.85 379 343 C379.14 343.82 379.29 344.63 379.43 345.48 C380.07 349.43 380.58 353.4 381.06 357.38 C381.15 358.11 381.24 358.85 381.34 359.61 C381.56 361.4 381.78 363.2 382 365 C382.33 365 382.66 365 383 365 C383.06 366.13 383.12 367.26 383.18 368.43 C383.27 369.91 383.35 371.39 383.44 372.88 C383.5 373.99 383.5 373.99 383.56 375.14 C383.72 379.2 383.72 379.2 385 383 C385.13 385.33 385.2 387.67 385.24 390 C385.25 390.72 385.26 391.44 385.28 392.18 C385.32 394.57 385.35 396.96 385.39 399.36 C385.41 401.02 385.44 402.68 385.46 404.34 C385.52 407.83 385.57 411.32 385.61 414.81 C385.67 419.27 385.75 423.73 385.82 428.19 C385.88 431.63 385.93 435.06 385.98 438.5 C386 440.14 386.03 441.79 386.06 443.43 C386.1 445.74 386.13 448.05 386.15 450.35 C386.17 451.66 386.19 452.97 386.21 454.32 C385.99 458.16 385.16 461.35 384 465 C383.67 467.15 383.67 467.15 383.62 469.08 C383.59 469.76 383.55 470.45 383.52 471.16 C383.49 471.85 383.46 472.54 383.44 473.25 C383.12 480.64 383.12 480.64 382 484 C381.56 486.48 381.17 488.95 380.81 491.44 C380.65 492.44 380.65 492.44 380.49 493.46 C379.95 497.24 379.67 499.85 382 503 C382.66 503.33 383.32 503.66 384 504 C384.66 504.33 385.32 504.66 386 505 C386 505.66 386 506.32 386 507 C386.68 507.08 387.36 507.16 388.06 507.25 C391.87 508.22 394.64 509.96 398 512 C398 512.66 398 513.32 398 514 C398.97 514.21 399.94 514.41 400.94 514.62 C405.87 516.02 410.01 518.85 414 522 C414.33 522.66 414.66 523.32 415 524 C415.93 524.14 416.86 524.29 417.81 524.44 C421.19 525.03 422.39 525.91 425 528 C427.15 528.71 427.15 528.71 429 529 C429.25 532.25 429.25 532.25 429 536 C427 538.31 427 538.31 425 540 C425 540.66 425 541.32 425 542 C424.01 542.33 423.02 542.66 422 543 C421.32 545 420.66 547 420 549 C418.72 550.71 417.39 552.38 416 554 C415.67 554.66 415.34 555.32 415 556 C414.34 555.67 413.68 555.34 413 555 C413.33 555.99 413.66 556.98 414 558 C413.25 559.81 413.25 559.81 412 562 C411.46 563.07 410.93 564.14 410.38 565.25 C409.92 566.16 409.47 567.07 409 568 C408.01 567.67 407.02 567.34 406 567 C405.9 568.05 405.79 569.1 405.69 570.19 C405.01 573.97 404.03 575.83 402 579 C401.29 580.98 400.61 582.98 400 585 C398.68 585 397.36 585 396 585 C395.67 587.97 395.34 590.94 395 594 C394.01 594.33 393.02 594.66 392 595 C390.98 596.87 390.98 596.87 390.31 599.06 C390.06 599.8 389.81 600.53 389.55 601.29 C389.28 602.13 389.28 602.13 389 603 C388.01 602.67 387.02 602.34 386 602 C385.88 603.09 385.75 604.19 385.62 605.31 C385 609 385 609 383 612 C382.67 612.99 382.34 613.98 382 615 C380.68 615 379.36 615 378 615 C378.33 615.99 378.66 616.98 379 618 C377.95 620.6 376.56 622.65 375 625 C374.34 625 373.68 625 373 625 C373.33 625.99 373.66 626.98 374 628 C373.01 630.87 371.52 632.56 369.5 634.88 C367.05 637.71 366.05 640.38 365 644 C364.34 644.99 363.68 645.98 363 647 C362.67 647.99 362.34 648.98 362 650 C360.68 650 359.36 650 358 650 C358.33 650.99 358.66 651.98 359 653 C358.25 654.81 358.25 654.81 357 657 C356.51 657.99 356.01 658.98 355.5 660 C354.65 661.69 353.8 663.38 352.94 665.06 C351.84 667.33 350.91 669.65 350 672 C348.68 672 347.36 672 346 672 C345.88 673.11 345.75 674.23 345.62 675.38 C345 679 345 679 343 681 C342.34 680.67 341.68 680.34 341 680 C340.97 680.59 340.95 681.18 340.92 681.79 C340.54 687.16 339.8 689.97 336 694 C335.29 695.31 334.61 696.64 334 698 C333.01 697.67 332.02 697.34 331 697 C330.88 698.09 330.75 699.19 330.62 700.31 C330 704 330 704 328 707 C327.34 707 326.68 707 326 707 C325.88 708.11 325.75 709.23 325.62 710.38 C325 714 325 714 323 716 C322.34 715.67 321.68 715.34 321 715 C320.67 717.97 320.34 720.94 320 724 C319.01 724.33 318.02 724.66 317 725 C316.3 727.32 315.63 729.66 315 732 C314.34 732.33 313.68 732.66 313 733 C312.34 732.67 311.68 732.34 311 732 C311.33 732.99 311.66 733.98 312 735 C311.34 735 310.68 735 310 735 C309.67 735.66 309.34 736.32 309 737 C309.33 737.66 309.66 738.32 310 739 C308.68 739 307.36 739 306 739 C305.67 738.01 305.34 737.02 305 736 C303.68 736 302.36 736 301 736 C300.34 735.01 299.68 734.02 299 733 C296.66 731.88 296.66 731.88 294 731 C289.22 729.22 289.22 729.22 287 727 C286.01 726.34 285.02 725.68 284 725 C281.81 723.5 281.81 723.5 280 722 C280 721.34 280 720.68 280 720 C278.33 719.81 278.33 719.81 276.62 719.62 C273 719 273 719 271 717 C268.24 714.88 268.24 714.88 265.5 714.5 C263 714 263 714 260 712 C257.23 711.84 254.66 712.2 252 713 C250.65 714.78 250.65 714.78 250 717 C248 719.25 248 719.25 246 721 C245.34 721 244.68 721 244 721 C243.67 721.99 243.34 722.98 243 724 C241.35 725.03 239.68 726.03 238 727 C237.01 727.85 236.02 728.69 235 729.56 C232.28 731.77 230.36 733.09 227 734 C226.01 733.67 225.02 733.34 224 733 C223.67 734.32 223.34 735.64 223 737 C222.34 737 221.68 737 221 737 C220.67 737.99 220.34 738.98 220 740 C218.68 740 217.36 740 216 740 C216.33 740.99 216.66 741.98 217 743 C213.45 746.13 210.47 747.54 206 749 C205.48 749.52 204.97 750.03 204.44 750.56 C202.45 752.55 200.75 752.72 198 753 C197.34 752.67 196.68 752.34 196 752 C196.33 752.99 196.66 753.98 197 755 C196.34 755.33 195.68 755.66 195 756 C194.34 755.67 193.68 755.34 193 755 C193 755.66 193 756.32 193 757 C191.75 757.65 190.5 758.3 189.25 758.94 C188.55 759.3 187.86 759.66 187.14 760.03 C185 761 185 761 182.8 761.44 C182.2 761.63 181.61 761.81 181 762 C180.67 762.99 180.34 763.98 180 765 C176.97 767.02 174.46 767.91 171 769 C169.93 769.39 168.86 769.78 167.75 770.19 C165 771 165 771 163 770 C163 770.66 163 771.32 163 772 C161.71 772.7 160.42 773.38 159.12 774.06 C158.41 774.45 157.69 774.83 156.95 775.22 C156.3 775.48 155.66 775.74 155 776 C154.34 775.67 153.68 775.34 153 775 C153 775.66 153 776.32 153 777 C150.51 779.6 148.4 780.2 144.94 780.56 C140.95 780.7 140.95 780.7 138 783 C137.34 782.67 136.68 782.34 136 782 C136 782.66 136 783.32 136 784 C133.29 785.35 130.99 785.07 128 785 C128 785.66 128 786.32 128 787 C127.2 787.29 126.39 787.58 125.56 787.88 C122.87 788.73 122.87 788.73 122 791 C120.98 797.29 120.9 803.41 120.97 809.77 C120.99 811.83 121 813.9 121.01 815.96 C121.03 819.18 121.06 822.41 121.1 825.64 C121.13 828.76 121.14 831.89 121.16 835.02 C121.17 835.99 121.19 836.96 121.2 837.97 C121.21 839.31 121.21 839.31 121.21 840.68 C121.22 841.47 121.23 842.25 121.23 843.07 C121 845 121 845 119 847 C115.91 847.19 112.91 847.26 109.81 847.23 C108.85 847.23 107.89 847.24 106.89 847.24 C103.64 847.24 100.39 847.22 97.14 847.21 C94.82 847.21 92.5 847.21 90.17 847.21 C85.16 847.2 80.15 847.19 75.14 847.18 C67.9 847.16 60.65 847.15 53.4 847.15 C41.65 847.14 29.89 847.12 18.13 847.1 C17.42 847.09 16.72 847.09 16 847.09 C15.29 847.09 14.59 847.09 13.86 847.09 C3.86 847.07 -6.13 847.05 -16.13 847.03 C-16.83 847.03 -17.54 847.03 -18.26 847.03 C-29.97 847.01 -41.69 847 -53.4 846.99 C-61.28 846.98 -69.15 846.96 -77.03 846.95 C-81.92 846.94 -86.81 846.93 -91.7 846.92 C-93.98 846.92 -96.25 846.91 -98.53 846.91 C-101.62 846.9 -104.72 846.89 -107.81 846.89 C-109.18 846.89 -109.18 846.89 -110.57 846.88 C-114.92 846.75 -114.92 846.75 -119 848 C-119 846.35 -119 844.7 -119 843 C-118.67 843.66 -118.34 844.32 -118 845 C-79.06 845 -40.12 845 0 845 C-0.01 826.83 -0.02 808.66 -0.04 789.95 C-0.04 778.47 -0.05 766.99 -0.05 755.52 C-0.05 749.49 -0.05 743.47 -0.05 737.44 C-0.06 736.69 -0.06 735.93 -0.06 735.16 C-0.06 722.95 -0.07 710.74 -0.08 698.54 C-0.09 686.02 -0.09 673.5 -0.09 660.98 C-0.1 653.25 -0.1 645.53 -0.11 637.8 C-0.11 631.88 -0.11 625.96 -0.11 620.04 C-0.11 617.61 -0.12 615.17 -0.12 612.74 C-0.12 609.43 -0.12 606.12 -0.12 602.81 C-0.12 601.35 -0.12 601.35 -0.13 599.85 C-0.13 598.97 -0.13 598.09 -0.12 597.18 C-0.12 596.42 -0.12 595.65 -0.12 594.86 C0 593 0 593 1 591 C-67.31 590.5 -67.31 590.5 -137 590 C-137 589.67 -137 589.34 -137 589 C-135.96 588.99 -135.96 588.99 -134.9 588.99 C-117.99 588.88 -101.08 588.78 -84.17 588.66 C-75.99 588.61 -67.81 588.55 -59.63 588.5 C-52.5 588.46 -45.38 588.41 -38.25 588.36 C-34.47 588.34 -30.7 588.31 -26.93 588.29 C-23.37 588.27 -19.82 588.25 -16.26 588.22 C-14.34 588.21 -12.42 588.2 -10.5 588.19 C-3.97 588.14 -3.97 588.14 2.51 587.49 C8.03 586.71 13.53 586.87 19.1 586.89 C21.06 586.89 21.06 586.89 23.06 586.89 C26.63 586.89 30.2 586.89 33.77 586.9 C37.51 586.9 41.24 586.91 44.98 586.91 C52.05 586.91 59.12 586.92 66.19 586.93 C74.24 586.94 82.29 586.94 90.34 586.95 C106.89 586.96 123.45 586.98 140 587 C140.07 575.59 140.12 564.19 140.16 552.78 C140.17 547.48 140.19 542.18 140.23 536.89 C140.26 531.76 140.28 526.63 140.28 521.5 C140.29 519.56 140.3 517.62 140.32 515.68 C140.58 482.7 132.46 453.16 108.91 428.82 C92.96 413 69.13 401.84 46.44 401.89 C44.52 401.89 44.52 401.89 42.56 401.89 C41.18 401.89 39.8 401.9 38.41 401.9 C36.99 401.9 35.56 401.91 34.14 401.91 C30.4 401.91 26.66 401.92 22.92 401.93 C19.1 401.94 15.28 401.95 11.46 401.95 C3.97 401.96 -3.51 401.98 -11 402 C-11 401.67 -11 401.34 -11 401 C-7.04 401 -3.08 401 1 401 C1.33 400.34 1.66 399.68 2 399 C2.68 399.03 3.36 399.07 4.06 399.11 C29.04 399.8 51.47 389.34 69.55 372.46 C84.8 357.11 93.64 338.16 97 317 C97.13 316.24 97.26 315.48 97.4 314.7 C101.15 290.19 93.19 265.23 79.12 245.31 C62.71 223.59 40.88 210.23 14 206 C7.65 205.12 1.4 204.88 -5 205 C-5 204.67 -5 204.34 -5 204 C-3.02 203.34 -1.04 202.68 1 202 C0.67 135.34 0.34 68.68 0 0 Z M336 154 C337 156 337 156 337 156 Z M355 186 C356 188 356 188 356 188 Z M391 249 C392 251 392 251 392 251 Z M411 284 C412 286 412 286 412 286 Z M382 381 C383 383 383 383 383 383 Z M378 499 C379 501 379 501 379 501 Z M336 690 C337 692 337 692 337 692 Z " fill="#575958" transform="translate(851,217)"/>
<path d="M0 0 C15.07 15.73 24.4 35.24 28.19 56.56 C28.32 57.3 28.45 58.04 28.59 58.8 C32.23 82.9 24.93 107.85 11.19 127.56 C3.81 137.53 -4.59 145.59 -14.81 152.56 C-15.64 153.13 -16.47 153.7 -17.32 154.29 C-31.73 163.56 -48.56 168.26 -65.65 167.57 C-66.72 167.57 -66.72 167.57 -67.81 167.56 C-68.14 167.89 -68.47 168.22 -68.81 168.56 C-68.2 168.55 -67.59 168.54 -66.95 168.54 C-60.48 168.45 -54 168.39 -47.53 168.34 C-45.12 168.32 -42.72 168.3 -40.31 168.26 C-13.09 167.88 11.79 172.43 33.19 190.56 C34.01 191.25 34.84 191.94 35.69 192.66 C56.63 210.79 69.01 237.09 71.19 264.56 C71.52 271.6 71.45 278.64 71.42 285.68 C71.42 287.67 71.42 289.67 71.42 291.66 C71.42 295.8 71.41 299.95 71.39 304.09 C71.38 309.41 71.37 314.73 71.37 320.05 C71.37 324.15 71.37 328.25 71.36 332.36 C71.36 334.32 71.36 336.28 71.35 338.25 C71.35 340.97 71.34 343.7 71.33 346.43 C71.33 347.65 71.33 347.65 71.33 348.89 C71.3 354.45 71.3 354.45 70.19 355.56 C68.7 355.66 67.21 355.69 65.72 355.69 C64.75 355.69 63.78 355.69 62.78 355.69 C61.7 355.69 60.62 355.69 59.51 355.68 C58.38 355.68 57.24 355.68 56.07 355.69 C52.9 355.69 49.74 355.68 46.57 355.68 C43.16 355.67 39.75 355.68 36.34 355.68 C30.42 355.68 24.51 355.67 18.6 355.67 C10.05 355.66 1.5 355.66 -7.05 355.66 C-20.92 355.65 -34.79 355.65 -48.66 355.64 C-62.14 355.63 -75.62 355.62 -89.09 355.62 C-89.92 355.62 -90.75 355.62 -91.61 355.62 C-95.77 355.62 -99.94 355.61 -104.1 355.61 C-138.67 355.6 -173.24 355.58 -207.81 355.56 C-209.29 352.6 -209 349.58 -209.03 346.34 C-209.05 345.59 -209.06 344.85 -209.07 344.08 C-209.11 341.6 -209.13 339.13 -209.16 336.65 C-209.19 334.92 -209.21 333.19 -209.23 331.46 C-209.28 327.82 -209.33 324.18 -209.37 320.54 C-209.42 315.92 -209.49 311.3 -209.56 306.67 C-209.61 303.09 -209.65 299.51 -209.69 295.93 C-209.72 294.22 -209.74 292.52 -209.76 290.82 C-210.18 262.24 -210.18 262.24 -207.12 249.5 C-206.95 248.76 -206.78 248.01 -206.6 247.24 C-202.28 229.66 -193.86 214.04 -181.81 200.56 C-181.25 199.89 -180.68 199.22 -180.1 198.53 C-171.04 188.53 -157.41 180.18 -144.81 175.56 C-143.62 175.12 -142.43 174.69 -141.2 174.23 C-128.35 169.7 -116.18 168.24 -102.62 167.94 C-101.18 167.9 -99.74 167.86 -98.29 167.82 C-94.8 167.73 -91.31 167.64 -87.81 167.56 C-87.81 166.9 -87.81 166.24 -87.81 165.56 C-88.91 165.48 -90 165.4 -91.12 165.31 C-109.28 162.96 -126.31 151.39 -138.81 138.56 C-139.58 137.84 -140.34 137.12 -141.12 136.38 C-159.6 117.04 -167.61 92 -167.06 65.52 C-166.17 42.36 -156.01 20.75 -140.81 3.56 C-140.25 2.9 -139.68 2.24 -139.1 1.56 C-124.16 -14.65 -101.45 -24.7 -79.81 -27.44 C-78.83 -27.57 -77.85 -27.71 -76.84 -27.84 C-48.33 -30.95 -20.41 -19.44 0 0 Z " fill="#1AD7F4" transform="translate(920.8125,449.4375)"/>
<path d="M0 0 C1.01 -0 1.01 -0 2.03 -0.01 C14.06 -0.05 14.06 -0.05 18.19 2.31 C20.2 2.73 22.22 3.08 24.25 3.38 C27.39 3.84 30.18 4.31 33.19 5.31 C33.19 5.97 33.19 6.63 33.19 7.31 C34.39 7.44 34.39 7.44 35.62 7.56 C40.16 8.52 44.02 10.32 48.19 12.31 C49.18 12.77 50.17 13.22 51.19 13.69 C59.34 18.1 66.74 23.81 74.19 29.31 C75.34 30.08 75.34 30.08 76.51 30.86 C77.06 31.34 77.62 31.82 78.19 32.31 C78.19 33.3 78.19 34.29 78.19 35.31 C79.18 35.64 80.17 35.97 81.19 36.31 C81.19 36.97 81.19 37.63 81.19 38.31 C81.85 38.31 82.51 38.31 83.19 38.31 C85.26 40.65 87 43 88.59 45.68 C90.72 49.2 93.15 52.48 95.57 55.81 C97.85 59.33 99.19 62.09 99.19 66.31 C99.85 66.31 100.51 66.31 101.19 66.31 C101.52 68.62 101.85 70.93 102.19 73.31 C102.85 73.31 103.51 73.31 104.19 73.31 C104.29 74.36 104.39 75.42 104.5 76.5 C105.11 81.48 106.29 86.3 107.47 91.16 C112.04 111.18 109.1 131.71 104.19 151.31 C104.02 152.2 103.86 153.09 103.69 154 C103.13 156.58 102.23 158.89 101.19 161.31 C100.53 161.31 99.87 161.31 99.19 161.31 C99.1 161.97 99.02 162.63 98.94 163.31 C97.3 169.86 94.07 174.69 89.58 179.64 C87.63 181.98 86.41 184.54 85.19 187.31 C84.53 187.31 83.87 187.31 83.19 187.31 C82.94 187.88 82.69 188.46 82.44 189.05 C80.99 191.66 79.31 193.46 77.19 195.56 C76.14 196.62 76.14 196.62 75.06 197.7 C73.19 199.31 73.19 199.31 71.19 199.31 C70.86 200.3 70.53 201.29 70.19 202.31 C68.2 203.33 66.2 204.33 64.19 205.31 C62.75 206.53 61.31 207.74 59.89 208.97 C55.36 212.53 51 215.31 45.19 215.31 C45.19 215.97 45.19 216.63 45.19 217.31 C42.69 218.28 40.19 219.23 37.69 220.19 C36.99 220.46 36.3 220.73 35.58 221 C27.3 224.15 19.86 225.6 11 225.88 C5.93 226.05 1.16 226.3 -3.81 227.31 C-4.47 226.98 -5.13 226.65 -5.81 226.31 C-7.95 226.24 -10.1 226.17 -12.24 226.12 C-25.81 225.81 -37.42 222.8 -49.81 217.31 C-49.81 216.65 -49.81 215.99 -49.81 215.31 C-50.53 215.19 -51.26 215.08 -52 214.95 C-59.21 213.31 -64.78 209.62 -69.81 204.31 C-72.98 202.52 -72.98 202.52 -75.81 201.31 C-75.81 200.65 -75.81 199.99 -75.81 199.31 C-76.67 198.94 -76.67 198.94 -77.55 198.56 C-80.16 197.12 -81.96 195.43 -84.06 193.31 C-84.77 192.61 -85.48 191.91 -86.2 191.19 C-87.81 189.31 -87.81 189.31 -87.81 187.31 C-88.8 186.98 -89.79 186.65 -90.81 186.31 C-91.5 184.25 -91.5 184.25 -91.81 182.31 C-92.47 182.31 -93.13 182.31 -93.81 182.31 C-95.98 179.15 -97.48 175.9 -98.81 172.31 C-99.47 172.31 -100.13 172.31 -100.81 172.31 C-101.22 171.32 -101.64 170.33 -102.06 169.31 C-103.22 166.59 -104.47 163.95 -105.81 161.31 C-109.5 153.93 -111.57 147.38 -113.16 139.23 C-113.51 136.43 -113.51 136.43 -114.81 135.31 C-114.93 132.26 -114.98 129.22 -114.98 126.17 C-114.98 125.25 -114.99 124.33 -114.99 123.38 C-115 121.42 -115 119.47 -115 117.51 C-115 114.52 -115.02 111.53 -115.04 108.54 C-115.04 106.65 -115.04 104.75 -115.04 102.86 C-115.05 101.96 -115.06 101.07 -115.06 100.14 C-115.06 99.31 -115.06 98.47 -115.06 97.61 C-115.06 96.87 -115.06 96.14 -115.06 95.38 C-114.78 93.01 -113.99 91.38 -112.81 89.31 C-113.47 88.98 -114.13 88.65 -114.81 88.31 C-114.15 86.33 -113.49 84.35 -112.81 82.31 C-112.48 82.31 -112.15 82.31 -111.81 82.31 C-111.7 81.74 -111.59 81.18 -111.48 80.59 C-110.17 74.2 -108.47 68.79 -104.81 63.31 C-104.15 63.31 -103.49 63.31 -102.81 63.31 C-102.87 62.4 -102.94 61.5 -103 60.56 C-102.8 57.02 -102.29 55.79 -99.81 53.31 C-99.15 53.31 -98.49 53.31 -97.81 53.31 C-97.71 52.55 -97.61 51.79 -97.5 51 C-96.73 47.99 -95.98 47.4 -93.81 45.31 C-93.43 44.45 -93.06 43.59 -92.67 42.7 C-90.24 38.27 -87.08 35.14 -83.5 31.62 C-82.85 30.96 -82.2 30.3 -81.53 29.62 C-77.86 25.97 -74.61 23.41 -69.81 21.31 C-69.28 20.76 -68.74 20.2 -68.19 19.62 C-66.81 18.31 -66.81 18.31 -62.81 18.31 C-62.81 17.65 -62.81 16.99 -62.81 16.31 C-59.87 13.64 -56.79 12.41 -53.06 11.12 C-52.08 10.78 -51.09 10.44 -50.08 10.08 C-49.33 9.83 -48.58 9.57 -47.81 9.31 C-47.81 8.98 -47.81 8.65 -47.81 8.31 C-46.81 8.04 -45.81 7.76 -44.79 7.47 C-43.48 7.11 -42.18 6.74 -40.88 6.38 C-40.22 6.19 -39.56 6.01 -38.88 5.82 C-35.57 5.09 -35.57 5.09 -32.81 3.31 C-22.02 0.37 -11.13 0.01 0 0 Z M84.19 42.31 C85.19 44.31 85.19 44.31 85.19 44.31 Z M94.19 57.31 C95.19 59.31 95.19 59.31 95.19 59.31 Z M87.19 177.31 C88.19 179.31 88.19 179.31 88.19 179.31 Z M60.19 203.31 C59.86 203.97 59.53 204.63 59.19 205.31 C60.51 204.65 61.83 203.99 63.19 203.31 C62.2 203.31 61.21 203.31 60.19 203.31 Z " fill="#1AD7F3" transform="translate(114.8125,208.6875)"/>
<path d="M0 0 C0.84 0.04 1.67 0.08 2.54 0.12 C16.14 0.99 31.55 6.87 43 14 C43.94 14.56 44.87 15.12 45.84 15.7 C46.84 16.32 47.84 16.93 48.88 17.56 C49.82 18.14 50.77 18.72 51.74 19.32 C54 21 54 21 55 24 C56.65 24.33 58.3 24.66 60 25 C60.33 25.99 60.66 26.98 61 28 C61.6 28.15 62.21 28.29 62.83 28.45 C65.75 29.19 66.76 30.6 68.69 32.88 C69.59 33.92 69.59 33.92 70.51 34.99 C72 37 72 37 73 40 C73.99 40.33 74.98 40.66 76 41 C77.02 42.99 78.02 44.99 79 47 C80.16 48.36 80.16 48.36 81.34 49.74 C84.16 53.05 86.18 56.59 88.19 60.44 C88.53 61.07 88.87 61.7 89.22 62.35 C92.96 69.4 94.47 76.87 96.06 84.62 C96.24 85.46 96.41 86.29 96.59 87.15 C97.06 89.43 97.53 91.72 98 94 C98.18 94.8 98.36 95.6 98.54 96.42 C102.3 117.52 98.09 141.01 91 161 C90.34 161 89.68 161 89 161 C88.88 161.72 88.75 162.44 88.62 163.19 C88.01 165.96 87.12 168.4 86 171 C85.34 171 84.68 171 84 171 C84 171.66 84 172.32 84 173 C83.34 173 82.68 173 82 173 C81.85 174.14 81.85 174.14 81.69 175.31 C80.92 178.3 80.2 178.97 78 181 C76.97 182.65 75.97 184.32 75 186 C74.34 186.99 73.68 187.98 73 189 C72.34 189 71.68 189 71 189 C70.67 189.99 70.34 190.98 70 192 C69.34 192 68.68 192 68 192 C68 192.66 68 193.32 68 194 C67.34 194 66.68 194 66 194 C65.67 194.99 65.34 195.98 65 197 C64.34 197 63.68 197 63 197 C63 197.66 63 198.32 63 199 C59.88 201.76 56.57 203.88 53 206 C52.34 206.66 51.68 207.32 51 208 C49.68 208 48.36 208 47 208 C46.81 208.6 46.63 209.2 46.44 209.81 C44.29 213.07 41.6 213.74 38 215 C37.01 215 36.02 215 35 215 C35 215.66 35 216.32 35 217 C34.02 217.27 33.05 217.53 32.04 217.8 C30.76 218.16 29.47 218.52 28.19 218.88 C26.92 219.22 25.66 219.57 24.36 219.93 C20.92 220.86 20.92 220.86 18 223 C9.31 226.06 -0.54 225.34 -9.61 225.32 C-12.36 225.31 -15.11 225.34 -17.86 225.36 C-27.35 225.39 -35.92 225.08 -45 222 C-45 221.34 -45 220.68 -45 220 C-45.8 220.06 -46.61 220.12 -47.44 220.19 C-51.98 219.95 -55.77 218.58 -60 217 C-60 216.34 -60 215.68 -60 215 C-61.05 214.85 -61.05 214.85 -62.12 214.69 C-65.44 213.89 -68.07 212.73 -71 211 C-71.33 210.01 -71.66 209.02 -72 208 C-73.14 207.81 -73.14 207.81 -74.31 207.62 C-77 207 -77 207 -80 205 C-80 204.34 -80 203.68 -80 203 C-80.87 202.85 -80.87 202.85 -81.75 202.69 C-84.36 201.89 -85.97 200.81 -88 199 C-88 198.34 -88 197.68 -88 197 C-88.99 196.67 -89.98 196.34 -91 196 C-91 195.34 -91 194.68 -91 194 C-91.66 194 -92.32 194 -93 194 C-93 193.34 -93 192.68 -93 192 C-93.99 191.67 -94.98 191.34 -96 191 C-96 190.34 -96 189.68 -96 189 C-96.66 189 -97.32 189 -98 189 C-100.77 185.88 -102.87 182.57 -105 179 C-108.22 174.27 -108.22 174.27 -112 170 C-116.35 160.67 -119.97 150.84 -123 141 C-123.51 139.5 -123.51 139.5 -124.03 137.97 C-125.32 133.42 -125.27 129 -125.23 124.3 C-125.23 123.39 -125.23 122.48 -125.23 121.55 C-125.23 119.63 -125.22 117.72 -125.21 115.8 C-125.19 112.88 -125.19 109.95 -125.19 107.03 C-125.18 105.16 -125.17 103.3 -125.17 101.43 C-125.17 100.56 -125.17 99.69 -125.16 98.79 C-125.13 94.73 -125 90.96 -124 87 C-123.81 86.07 -123.63 85.14 -123.44 84.19 C-123.22 83.1 -123.22 83.1 -123 82 C-122.34 82 -121.68 82 -121 82 C-121.04 81.07 -121.08 80.14 -121.12 79.19 C-121 76 -121 76 -119 73 C-118.3 70.68 -117.63 68.34 -117 66 C-116 63 -116 63 -114 61 C-113.69 60.2 -113.38 59.39 -113.06 58.56 C-111.98 55.95 -110.95 54.95 -109 53 C-108.67 52.17 -108.34 51.35 -108 50.5 C-106.96 47.91 -105.93 46.93 -104 45 C-103.71 44.22 -103.42 43.45 -103.12 42.65 C-101.93 39.82 -100.67 38.28 -98.52 36.12 C-97.83 35.42 -97.14 34.73 -96.43 34.02 C-95.71 33.31 -94.99 32.6 -94.25 31.88 C-93.55 31.16 -92.84 30.44 -92.12 29.71 C-88.31 25.92 -84.99 23.17 -80 21 C-77.98 19.35 -75.98 17.69 -74 16 C-70.45 13.55 -69.44 13 -65 13 C-65 12.34 -65 11.68 -65 11 C-63.34 10.32 -61.67 9.66 -60 9 C-59.38 8.75 -58.77 8.49 -58.13 8.23 C-53.72 6.48 -49.72 5.49 -45 5 C-45 4.34 -45 3.68 -45 3 C-42.69 3 -40.38 3 -38 3 C-37.67 2.34 -37.34 1.68 -37 1 C-36.34 1 -35.68 1 -35 1 C-33.92 0.84 -32.83 0.69 -31.72 0.53 C-20.94 -1.02 -10.83 -0.93 0 0 Z M81 52 C82 54 82 54 82 54 Z M83 168 C83.66 168.66 84.32 169.32 85 170 C85 169.34 85 168.68 85 168 C84.34 168 83.68 168 83 168 Z M77 176 C77.33 176.99 77.66 177.98 78 179 C78 178.34 78 177.68 78 177 C78.66 176.67 79.32 176.34 80 176 C79.01 176 78.02 176 77 176 Z " fill="#1AD7F3" transform="translate(125,844)"/>
<path d="M0 0 C0.74 -0 1.49 -0.01 2.26 -0.01 C3.84 -0.02 5.43 -0.02 7.02 -0.02 C9.4 -0.02 11.78 -0.04 14.17 -0.06 C24.56 -0.09 34.59 0.51 44.7 3.17 C44.7 3.83 44.7 4.49 44.7 5.17 C45.79 5.09 45.79 5.09 46.89 5.02 C50.1 5.19 51.89 6.02 54.7 7.54 C57.18 8.87 59.57 10.12 62.19 11.14 C64.95 12.27 67.4 13.64 69.95 15.17 C70.82 15.68 71.7 16.2 72.59 16.73 C74.7 18.17 74.7 18.17 75.7 20.17 C77.02 20.87 78.36 21.53 79.7 22.17 C90.43 28.87 100.43 39.23 106.7 50.17 C107.17 50.94 107.64 51.72 108.13 52.52 C109.91 55.51 111.6 58.55 113.27 61.61 C113.87 62.7 114.46 63.79 115.08 64.91 C116.6 67.96 117.69 70.92 118.7 74.17 C119.03 74.83 119.36 75.49 119.7 76.17 C119.91 77.97 120.12 79.77 120.32 81.57 C120.67 84.23 120.67 84.23 121.43 87.05 C125.79 104.68 125.45 124.16 120.58 141.63 C119.75 144.98 119.65 147.74 119.7 151.17 C118.33 153.67 118.33 153.67 116.7 156.17 C116.41 157.08 116.13 157.98 115.83 158.92 C113.54 165.54 109.67 171.43 105.7 177.17 C105.37 176.51 105.04 175.85 104.7 175.17 C103.71 175.17 102.72 175.17 101.7 175.17 C101.7 176.16 101.7 177.15 101.7 178.17 C102.36 178.17 103.02 178.17 103.7 178.17 C103.7 178.83 103.7 179.49 103.7 180.17 C103.04 180.17 102.38 180.17 101.7 180.17 C101.61 180.91 101.51 181.66 101.42 182.42 C100.59 185.59 99.58 186.8 97.28 189.09 C96.59 189.78 95.89 190.48 95.17 191.2 C94.44 191.91 93.71 192.62 92.95 193.36 C92.24 194.08 91.52 194.8 90.78 195.55 C87.17 199.12 84.47 201.35 79.7 203.17 C79.02 203.85 78.34 204.53 77.64 205.23 C75.6 207.27 74.51 207.77 71.7 208.17 C71.7 208.83 71.7 209.49 71.7 210.17 C69.06 211.63 67.81 212.17 64.7 212.17 C64.7 212.83 64.7 213.49 64.7 214.17 C63.85 214.49 62.99 214.82 62.11 215.16 C55.06 217.83 55.06 217.83 48.14 220.79 C37.27 225.14 26.83 225.7 15.27 225.67 C12.6 225.67 9.94 225.71 7.27 225.75 C-7.8 225.86 -21.77 223.09 -35.3 216.17 C-36.1 215.79 -36.91 215.41 -37.73 215.02 C-43.51 212.25 -49.33 209.26 -54.3 205.17 C-54.3 204.51 -54.3 203.85 -54.3 203.17 C-55.12 203 -55.94 202.83 -56.79 202.65 C-61.72 200.57 -64.74 197.23 -68.42 193.42 C-69.12 192.71 -69.83 192.01 -70.55 191.29 C-75.68 186.07 -79.83 181.17 -82.3 174.17 C-82.96 174.17 -83.62 174.17 -84.3 174.17 C-84.61 173.53 -84.93 172.89 -85.25 172.23 C-85.68 171.36 -86.11 170.5 -86.55 169.61 C-86.96 168.76 -87.38 167.91 -87.81 167.04 C-88.9 164.94 -90.08 162.88 -91.3 160.86 C-93.56 156.96 -94.75 152.94 -95.92 148.61 C-96.33 147.15 -96.74 145.69 -97.15 144.23 C-97.41 143.27 -97.41 143.27 -97.67 142.3 C-98.29 140.06 -98.29 140.06 -99.35 137.52 C-100.6 133.1 -100.56 129 -100.53 124.43 C-100.53 123.51 -100.53 122.59 -100.53 121.64 C-100.52 119.7 -100.52 117.76 -100.5 115.83 C-100.48 112.85 -100.48 109.87 -100.48 106.89 C-100.48 105.01 -100.47 103.13 -100.46 101.24 C-100.46 100.35 -100.46 99.45 -100.46 98.53 C-100.41 92.28 -100.41 92.28 -99.3 91.17 C-99.09 89.57 -98.93 87.96 -98.8 86.36 C-98.44 82 -98.11 78.49 -95.8 74.73 C-94.17 72.29 -94.17 72.29 -93.86 69.67 C-93.13 66.42 -91.48 64.63 -89.3 62.17 C-89.63 61.51 -89.96 60.85 -90.3 60.17 C-89.64 60.17 -88.98 60.17 -88.3 60.17 C-88.38 59.4 -88.46 58.64 -88.55 57.86 C-88.46 56.97 -88.38 56.08 -88.3 55.17 C-87 54.13 -85.66 53.13 -84.3 52.17 C-83.97 51.32 -83.64 50.48 -83.3 49.61 C-82.07 46.62 -81.09 46.52 -78.3 45.17 C-78.16 44.57 -78.01 43.96 -77.87 43.34 C-76.77 39.15 -73.21 36.26 -70.3 33.17 C-69.63 32.44 -68.96 31.72 -68.27 30.98 C-64.49 27.04 -61.28 24.49 -56.3 22.17 C-54.61 20.52 -52.94 18.86 -51.3 17.17 C-50.64 17.17 -49.98 17.17 -49.3 17.17 C-48.7 16.55 -48.1 15.93 -47.48 15.29 C-45.08 12.95 -43.45 12.24 -40.3 11.17 C-34.79 9.22 -34.79 9.22 -29.61 6.54 C-27.11 5.06 -25.17 4.48 -22.3 4.17 C-21.31 4.66 -21.31 4.66 -20.3 5.17 C-20.3 4.51 -20.3 3.85 -20.3 3.17 C-19.01 2.97 -19.01 2.97 -17.71 2.77 C-16.6 2.59 -15.5 2.41 -14.36 2.23 C-13.26 2.06 -12.16 1.88 -11.02 1.7 C-2.37 0 -2.37 0 0 0 Z M82.7 197.17 C82.37 197.83 82.04 198.49 81.7 199.17 C82.36 199.17 83.02 199.17 83.7 199.17 C83.37 198.51 83.04 197.85 82.7 197.17 Z " fill="#1AD7F3" transform="translate(100.296875,526.83203125)"/>
<path d="M0 0 C15.07 15.73 24.4 35.24 28.19 56.56 C28.32 57.3 28.45 58.04 28.59 58.8 C32.23 82.9 24.93 107.85 11.19 127.56 C3.81 137.53 -4.59 145.59 -14.81 152.56 C-15.64 153.13 -16.47 153.7 -17.32 154.29 C-39.17 168.34 -62.83 168.01 -87.81 167.56 C-87.81 166.9 -87.81 166.24 -87.81 165.56 C-88.91 165.48 -90 165.4 -91.12 165.31 C-109.28 162.96 -126.31 151.39 -138.81 138.56 C-139.58 137.84 -140.34 137.12 -141.12 136.38 C-159.6 117.04 -167.61 92 -167.06 65.52 C-166.17 42.36 -156.01 20.75 -140.81 3.56 C-140.25 2.9 -139.68 2.24 -139.1 1.56 C-124.16 -14.65 -101.45 -24.7 -79.81 -27.44 C-78.83 -27.57 -77.85 -27.71 -76.84 -27.84 C-48.33 -30.95 -20.41 -19.44 0 0 Z " fill="#F8CABA" transform="translate(920.8125,449.4375)"/>
<path d="M0 0 C1.63 -0.01 3.26 -0.03 4.89 -0.06 C29.33 -0.5 52.73 6.27 71.64 22.3 C72.47 22.99 73.29 23.68 74.14 24.39 C95.08 42.52 107.46 68.83 109.64 96.3 C109.97 103.33 109.9 110.37 109.87 117.41 C109.87 119.41 109.87 121.4 109.87 123.39 C109.87 127.54 109.86 131.68 109.85 135.82 C109.83 141.14 109.83 146.47 109.83 151.79 C109.83 155.89 109.82 159.99 109.82 164.09 C109.81 166.05 109.81 168.02 109.81 169.98 C109.81 172.71 109.8 175.43 109.79 178.16 C109.79 178.97 109.79 179.79 109.79 180.63 C109.76 186.18 109.76 186.18 108.64 187.3 C106.86 187.39 105.07 187.42 103.28 187.42 C102.12 187.42 100.96 187.42 99.76 187.42 C98.47 187.42 97.19 187.41 95.86 187.41 C94.5 187.41 93.14 187.41 91.78 187.41 C88.08 187.41 84.38 187.4 80.67 187.4 C76.81 187.39 72.94 187.39 69.08 187.39 C61.76 187.39 54.43 187.38 47.11 187.37 C38.77 187.36 30.44 187.35 22.1 187.35 C4.95 187.34 -12.21 187.32 -29.36 187.3 C-30.84 184.33 -30.49 181.32 -30.48 178.07 C-30.48 177.32 -30.48 176.56 -30.48 175.79 C-30.48 173.25 -30.48 170.71 -30.47 168.18 C-30.47 166.36 -30.47 164.55 -30.47 162.74 C-30.47 157.8 -30.47 152.87 -30.46 147.94 C-30.45 142.79 -30.45 137.63 -30.45 132.48 C-30.45 122.72 -30.44 112.96 -30.43 103.2 C-30.42 92.09 -30.41 80.98 -30.41 69.87 C-30.4 47.01 -30.38 24.15 -30.36 1.3 C-28.12 1.13 -25.89 0.97 -23.66 0.81 C-22.41 0.72 -21.17 0.62 -19.89 0.53 C-13.26 0.09 -6.64 0.03 0 0 Z " fill="#34A8FB" transform="translate(882.357666015625,617.704833984375)"/>
<path d="M0 0 C19.01 -0.06 38.02 -0.07 57.03 -0.02 C65.86 -0 74.69 0 83.52 -0.03 C91.21 -0.06 98.91 -0.06 106.61 -0.02 C110.68 -0 114.75 -0 118.82 -0.03 C122.66 -0.06 126.5 -0.05 130.34 -0.01 C131.74 -0 133.15 -0.01 134.55 -0.03 C141.73 -0.13 146.69 0.02 152.17 4.96 C152.83 5.67 153.49 6.38 154.18 7.12 C156.02 9.02 157.3 9.79 159.75 10.69 C163.98 12.39 166.94 14.89 169 19 C169.62 19.31 170.24 19.62 170.88 19.94 C173 21 173 21 174.31 22.38 C176.38 24.36 178.72 25.58 181.22 26.96 C184.38 28.81 187.34 30.69 189 34 C190.85 35.05 190.85 35.05 193 36 C194.33 36.67 195.67 37.33 197 38 C197 38.66 197 39.32 197 40 C197.52 40.23 198.03 40.45 198.56 40.69 C207.16 45.32 207.16 45.32 209 49 C210.85 50.05 210.85 50.05 213 51 C214.33 51.67 215.67 52.33 217 53 C217 53.66 217 54.32 217 55 C217.52 55.23 218.03 55.45 218.56 55.69 C227.16 60.32 227.16 60.32 229 64 C229.62 64.31 230.24 64.62 230.88 64.94 C233 66 233 66 234.44 67.5 C236.42 69.4 238.44 70.1 241 71 C241 71.66 241 72.32 241 73 C241.58 73.29 242.15 73.58 242.75 73.88 C244.83 74.92 246.92 75.96 249 77 C249 77.66 249 78.32 249 79 C249.6 79.27 250.2 79.54 250.81 79.81 C253 81 253 81 254.31 82.38 C256.38 84.36 258.72 85.58 261.22 86.95 C263.68 88.4 265.81 90.18 268 92 C268.66 92.33 269.32 92.66 270 93 C270.91 93.95 271.81 94.9 272.75 95.88 C275.56 98.75 278.33 100.32 282 102 C283.36 102.97 284.7 103.95 286 105 C285.57 111.09 282.73 115.44 279.69 120.56 C278.59 122.44 277.49 124.33 276.39 126.21 C275.83 127.17 275.27 128.13 274.69 129.12 C272.04 133.64 269.46 138.2 266.88 142.75 C263.08 149.4 259.25 156.03 255.38 162.62 C254.96 163.33 254.55 164.03 254.12 164.76 C252.47 167.55 250.8 170.3 249 173 C245.72 172.41 243.99 171.38 241.56 169.12 C239.46 167.23 237.63 165.78 235.19 164.31 C233 163 233 163 231 160 C230.11 159.57 229.23 159.13 228.31 158.69 C223.62 156.3 220.1 152.9 216.21 149.38 C213.53 147.01 211.22 145.11 208 143.5 C203.43 141.21 199.98 137.79 196.21 134.38 C193.53 132.01 191.22 130.11 188 128.5 C183.43 126.21 179.98 122.79 176.21 119.38 C173.53 117.01 171.22 115.11 168 113.5 C163.43 111.21 159.98 107.79 156.21 104.38 C153.39 101.89 151.03 100.01 147.62 98.31 C145 97 145 97 144 94 C142.68 93.62 141.34 93.3 140 93 C138.14 91.8 138.14 91.8 136.25 90.31 C132.71 87.55 129.12 84.91 125.47 82.3 C124.74 81.65 124.74 81.65 124 81 C124 80.34 124 79.68 124 79 C123.05 78.99 123.05 78.99 122.08 78.99 C106.7 78.88 91.32 78.78 75.94 78.66 C68.5 78.61 61.06 78.55 53.63 78.5 C47.15 78.46 40.67 78.41 34.19 78.36 C30.75 78.34 27.32 78.31 23.88 78.29 C20.06 78.27 16.23 78.24 12.4 78.21 C11.26 78.2 10.11 78.19 8.93 78.19 C7.89 78.18 6.86 78.17 5.79 78.16 C4.88 78.15 3.98 78.15 3.04 78.14 C1 78 1 78 0 77 C0.49 71.77 1.47 66.77 2.56 61.62 C5.7 45.11 5.43 27.23 1 11 C-1.06 3.19 -1.06 3.19 0 0 Z " fill="#FCE372" transform="translate(219,283)"/>
<path d="M0 0 C4.52 1.35 6.01 2.96 8.28 7.04 C8.87 8.08 9.46 9.13 10.06 10.2 C10.68 11.33 11.3 12.46 11.94 13.62 C12.59 14.8 13.25 15.97 13.91 17.14 C14.93 18.95 15.94 20.76 16.95 22.57 C20.38 28.71 23.94 34.76 27.5 40.81 C29.67 44.54 31.84 48.27 34 52 C34.43 52.74 34.86 53.47 35.3 54.23 C36.36 56.07 37.4 57.9 38.44 59.75 C39.24 61.17 39.24 61.17 40.06 62.61 C41 65 41 65 40.83 67.17 C38.71 71.85 33.23 74.46 29 77 C27.95 77.88 26.91 78.78 25.88 79.69 C23 82 23 82 20 82 C19.75 82.6 19.5 83.2 19.25 83.81 C17.4 87.05 14.91 88.48 11.71 90.31 C8.73 92.17 6.13 94.25 3.44 96.5 C-4.6 103.19 -4.6 103.19 -8.38 105.38 C-10.53 106.71 -12.23 108.03 -14.12 109.69 C-17 112 -17 112 -20 112 C-20.25 112.6 -20.5 113.2 -20.75 113.81 C-22.61 117.06 -25.11 118.49 -28.31 120.32 C-31.18 122.11 -33.66 124.12 -36.25 126.31 C-39.57 129.07 -42.87 131.67 -46.5 134 C-50.05 136.28 -53.26 138.8 -56.5 141.5 C-60.43 144.78 -64.42 147.69 -68.73 150.45 C-72.31 152.89 -75.61 155.68 -78.93 158.46 C-81 160 -81 160 -83 160 C-83 160.66 -83 161.32 -83 162 C-84.57 163.15 -84.57 163.15 -86.69 164.38 C-89.13 165.8 -91.15 167.14 -93.25 169.06 C-96.55 171.39 -98.25 171.51 -102.26 171.52 C-103.52 171.53 -104.78 171.55 -106.08 171.56 C-107.47 171.56 -108.86 171.55 -110.25 171.55 C-111.71 171.55 -113.18 171.57 -114.65 171.58 C-118.63 171.61 -122.61 171.61 -126.59 171.61 C-130.76 171.61 -134.92 171.64 -139.08 171.66 C-146.96 171.7 -154.84 171.72 -162.72 171.73 C-171.69 171.75 -180.67 171.79 -189.64 171.83 C-208.09 171.91 -226.55 171.96 -245 172 C-244.85 170.57 -244.7 169.14 -244.55 167.71 C-244.46 166.92 -244.38 166.12 -244.29 165.3 C-243.9 162.19 -243.15 159.18 -242.44 156.12 C-238.76 138.08 -240.2 119.62 -245 102 C-245.75 98.64 -245.75 98.64 -246 96 C-243.48 93.48 -242.67 93.75 -239.19 93.74 C-238.17 93.73 -237.15 93.73 -236.11 93.72 C-234.99 93.72 -233.87 93.73 -232.71 93.73 C-231.54 93.72 -230.36 93.72 -229.15 93.71 C-225.92 93.7 -222.69 93.7 -219.46 93.69 C-216.09 93.69 -212.71 93.67 -209.33 93.65 C-199.28 93.61 -189.23 93.57 -179.18 93.55 C-171.37 93.54 -163.56 93.51 -155.75 93.47 C-152.39 93.45 -149.03 93.44 -145.66 93.44 C-141.92 93.44 -138.17 93.42 -134.42 93.4 C-132.74 93.41 -132.74 93.41 -131.03 93.41 C-130.01 93.4 -128.99 93.4 -127.94 93.39 C-127.05 93.38 -126.17 93.38 -125.25 93.38 C-122.54 92.92 -121.77 92.03 -120 90 C-119.36 89.85 -118.73 89.71 -118.07 89.56 C-115.19 88.78 -113.91 87.2 -111.88 85.06 C-111.19 84.35 -110.51 83.64 -109.8 82.91 C-108.91 81.96 -108.91 81.96 -108 81 C-107.34 80.34 -106.68 79.68 -106 79 C-104.67 79 -103.33 79 -102 79 C-101.79 78.4 -101.59 77.8 -101.38 77.19 C-99.48 74.17 -97.18 73.56 -94 72 C-92.24 70.63 -90.59 69.17 -88.93 67.68 C-83.92 63.31 -78.71 59.4 -73 56 C-71.57 54.83 -70.14 53.66 -68.74 52.46 C-63.72 48.24 -58.63 44.35 -53 41 C-51.57 39.83 -50.14 38.66 -48.74 37.46 C-43.72 33.24 -38.63 29.35 -33 26 C-31.57 24.83 -30.14 23.66 -28.74 22.46 C-26.67 20.72 -24.56 19.04 -22.44 17.38 C-21.71 16.81 -20.99 16.24 -20.25 15.65 C-18 14 -18 14 -15.58 12.57 C-12.6 10.75 -10 8.66 -7.31 6.44 C-6.36 5.65 -5.41 4.87 -4.43 4.06 C-2.02 2.07 -2.02 2.07 0 0 Z M33 69 C33 69.99 33 70.98 33 72 C33.99 71.67 34.98 71.34 36 71 C36 70.34 36 69.68 36 69 C35.01 69 34.02 69 33 69 Z M13 84 C13 84.99 13 85.98 13 87 C13.99 86.67 14.98 86.34 16 86 C15.67 85.34 15.34 84.68 15 84 C14.34 84 13.68 84 13 84 Z M-244 95 C-244 95.33 -244 95.66 -244 96 C-204.4 96 -164.8 96 -124 96 C-124 95.67 -124 95.34 -124 95 C-163.6 95 -203.2 95 -244 95 Z M-4 96 C-4 96.99 -4 97.98 -4 99 C-3.01 98.67 -2.02 98.34 -1 98 C-1 97.34 -1 96.68 -1 96 C-1.99 96 -2.98 96 -4 96 Z M-7 99 C-7 99.99 -7 100.98 -7 102 C-6.01 101.67 -5.02 101.34 -4 101 C-4.33 100.34 -4.66 99.68 -5 99 C-5.66 99 -6.32 99 -7 99 Z M-24 111 C-23.67 111.99 -23.34 112.98 -23 114 C-22.34 113.67 -21.68 113.34 -21 113 C-21 112.34 -21 111.68 -21 111 C-21.99 111 -22.98 111 -24 111 Z M-27 114 C-27 114.99 -27 115.98 -27 117 C-26.01 116.67 -25.02 116.34 -24 116 C-24.33 115.34 -24.66 114.68 -25 114 C-25.66 114 -26.32 114 -27 114 Z M-44 126 C-43.67 126.99 -43.34 127.98 -43 129 C-42.34 128.67 -41.68 128.34 -41 128 C-41 127.34 -41 126.68 -41 126 C-41.99 126 -42.98 126 -44 126 Z M-47 129 C-47 129.99 -47 130.98 -47 132 C-46.01 131.67 -45.02 131.34 -44 131 C-44.33 130.34 -44.66 129.68 -45 129 C-45.66 129 -46.32 129 -47 129 Z M-67 144 C-67 144.99 -67 145.98 -67 147 C-66.01 146.67 -65.02 146.34 -64 146 C-64 145.34 -64 144.68 -64 144 C-64.99 144 -65.98 144 -67 144 Z M-82 156 C-81 158 -81 158 -81 158 Z M-87 159 C-87 159.99 -87 160.98 -87 162 C-86.01 161.67 -85.02 161.34 -84 161 C-84.33 160.34 -84.66 159.68 -85 159 C-85.66 159 -86.32 159 -87 159 Z M-94 164 C-93.67 164.66 -93.34 165.32 -93 166 C-92.34 165.34 -91.68 164.68 -91 164 C-91.99 164 -92.98 164 -94 164 Z M-96 166 C-96.33 166.99 -96.66 167.98 -97 169 C-96.01 168.67 -95.02 168.34 -94 168 C-94.66 167.34 -95.32 166.68 -96 166 Z " fill="#FCE372" transform="translate(464,823)"/>
<path d="M0 0 C0.99 0.33 1.98 0.66 3 1 C4.4 1.09 5.8 1.13 7.21 1.14 C8.07 1.14 8.93 1.15 9.82 1.15 C11.24 1.15 11.24 1.15 12.69 1.15 C14.19 1.16 14.19 1.16 15.73 1.16 C19.12 1.18 22.51 1.18 25.89 1.19 C28.31 1.2 30.73 1.21 33.15 1.21 C38.37 1.23 43.59 1.25 48.81 1.26 C56.36 1.28 63.91 1.3 71.46 1.33 C83.72 1.37 95.97 1.41 108.22 1.45 C108.95 1.45 109.69 1.45 110.44 1.45 C116.39 1.47 122.35 1.49 128.3 1.51 C133.5 1.52 138.71 1.54 143.91 1.55 C145.01 1.56 145.01 1.56 146.13 1.56 C158.34 1.59 170.55 1.63 182.75 1.68 C190.29 1.7 197.82 1.73 205.35 1.74 C211.12 1.76 216.89 1.78 222.65 1.8 C225.03 1.81 227.4 1.81 229.77 1.82 C232.99 1.82 236.22 1.83 239.44 1.85 C240.86 1.85 240.86 1.85 242.32 1.85 C243.61 1.86 243.61 1.86 244.92 1.86 C245.67 1.87 246.41 1.87 247.18 1.87 C249 2 249 2 251 3 C250.93 3.83 250.86 4.66 250.79 5.51 C249.98 16.05 249.85 26.54 249.87 37.11 C249.87 40 249.87 42.88 249.86 45.77 C249.86 47.66 249.87 49.55 249.87 51.44 C249.86 52.69 249.86 52.69 249.86 53.98 C249.89 61.72 250.48 69.22 251 77 C168.83 77 86.66 77 2 77 C1.09 72.45 1.14 70.82 2.34 66.58 C7.4 48.53 6.56 28.7 1.88 10.66 C1.13 7.55 0.91 5.15 1 2 C0.67 1.34 0.34 0.68 0 0 Z " fill="#FCE371" transform="translate(218,600)"/>
<path d="M0 0 C2.49 2.49 2.23 3.92 2.23 7.31 C2.22 8.05 2.21 8.8 2.2 9.57 C2.2 10.36 2.2 11.15 2.2 11.96 C2.18 14.62 2.16 17.28 2.14 19.94 C2.12 21.85 2.12 23.75 2.11 25.65 C2.08 30.82 2.04 36 2 41.18 C1.96 46.58 1.93 51.98 1.9 57.39 C1.84 67.63 1.77 77.86 1.7 88.1 C1.62 99.76 1.54 111.41 1.47 123.06 C1.33 147.04 1.17 171.02 1 195 C-5.27 195 -11.54 195 -18 195 C-18 194.34 -18 193.68 -18 193 C-19.09 192.92 -20.19 192.84 -21.31 192.75 C-39.47 190.4 -56.5 178.83 -69 166 C-69.76 165.28 -70.53 164.56 -71.31 163.81 C-89.79 144.48 -97.8 119.44 -97.25 92.96 C-96.36 69.8 -86.19 48.19 -71 31 C-70.43 30.34 -69.87 29.68 -69.29 29 C-53.54 11.91 -23.75 -3.16 0 0 Z " fill="#FAEAE3" transform="translate(851,422)"/>
<path d="M0 0 C78.54 0 157.08 0 238 0 C238 0.33 238 0.66 238 1 C159.46 1 80.92 1 0 1 C0 0.67 0 0.34 0 0 Z " fill="#000102" transform="translate(733,1065)"/>
<path d="M0 0 C47.85 0 95.7 0 145 0 C145 0.33 145 0.66 145 1 C97.15 1 49.3 1 0 1 C0 0.67 0 0.34 0 0 Z " fill="#000102" transform="translate(221,995)"/>
<path d="M0 0 C0 0.99 0 1.98 0 3 C-0.66 2.67 -1.32 2.34 -2 2 C-1.34 1.34 -0.68 0.68 0 0 Z M-6 4 C-5.01 4.33 -4.02 4.66 -3 5 C-3.99 5 -4.98 5 -6 5 C-6 4.67 -6 4.34 -6 4 Z M-8 5 C-7.34 5.33 -6.68 5.66 -6 6 C-6.89 10.93 -9.86 13.34 -13.31 16.75 C-13.89 17.35 -14.48 17.95 -15.08 18.57 C-15.65 19.14 -16.21 19.71 -16.8 20.3 C-17.58 21.08 -17.58 21.08 -18.37 21.87 C-20 23 -20 23 -24 23 C-22.64 19.96 -21.12 17.88 -18.74 15.55 C-18.12 14.93 -17.49 14.31 -16.85 13.67 C-16.2 13.04 -15.55 12.4 -14.88 11.75 C-14.22 11.1 -13.56 10.45 -12.88 9.78 C-11.26 8.18 -9.63 6.59 -8 5 Z M-25 23 C-24.34 23.66 -23.68 24.32 -23 25 C-23.99 25.5 -23.99 25.5 -25 26 C-25 25.01 -25 24.02 -25 23 Z " fill="#30BBD0" transform="translate(47,228)"/>
<path d="M0 0 C0.33 0 0.66 0 1 0 C1 19.14 1 38.28 1 58 C0.67 58 0.34 58 0 58 C0 38.86 0 19.72 0 0 Z " fill="#000102" transform="translate(1237,611)"/>
<path d="M0 0 C0.33 0 0.66 0 1 0 C1 14.52 1 29.04 1 44 C0.67 44 0.34 44 0 44 C0 29.48 0 14.96 0 0 Z " fill="#000102" transform="translate(972,1016)"/>
<path d="M0 0 C0.33 0 0.66 0 1 0 C1 14.19 1 28.38 1 43 C0.67 43 0.34 43 0 43 C0 28.81 0 14.62 0 0 Z " fill="#000102" transform="translate(972,215)"/>
<path d="M0 0 C0.66 0.33 1.32 0.66 2 1 C1.04 2.14 1.04 2.14 0.06 3.31 C-2.14 5.88 -2.14 5.88 -3 9 C-2.34 9 -1.68 9 -1 9 C-1.33 9.99 -1.66 10.98 -2 12 C-3.32 10.35 -4.64 8.7 -6 7 C-5.34 5.35 -4.68 3.7 -4 2 C-2.68 2 -1.36 2 0 2 C0 1.34 0 0.68 0 0 Z " fill="#5F5A58" transform="translate(430,743)"/>
<path d="M0 0 C7.59 0 15.18 0 23 0 C23 0.33 23 0.66 23 1 C15.41 1 7.82 1 0 1 C0 0.67 0 0.34 0 0 Z " fill="#000102" transform="translate(101,1070)"/>
<path d="M0 0 C3.63 0 7.26 0 11 0 C11 0.33 11 0.66 11 1 C7.37 1 3.74 1 0 1 C0 0.67 0 0.34 0 0 Z " fill="#000102" transform="translate(116,435)"/>
<path d="M0 0 C3.63 0 7.26 0 11 0 C11 0.33 11 0.66 11 1 C7.37 1 3.74 1 0 1 C0 0.67 0 0.34 0 0 Z " fill="#000102" transform="translate(98,435)"/>
<path d="M0 0 C0.33 0 0.66 0 1 0 C1 1.98 1 3.96 1 6 C0.67 6 0.34 6 0 6 C0 4.02 0 2.04 0 0 Z " fill="#000102" transform="translate(1235,682)"/>
<path d="M0 0 C0.33 0 0.66 0 1 0 C1 1.98 1 3.96 1 6 C0.67 6 0.34 6 0 6 C0 4.02 0 2.04 0 0 Z " fill="#000102" transform="translate(1235,592)"/>
<path d="M0 0 C0.66 0.33 1.32 0.66 2 1 C1.01 1.66 0.02 2.32 -1 3 C-0.67 2.01 -0.34 1.02 0 0 Z " fill="#AB9D6E" transform="translate(347,910)"/>
<path d="M0 0 C0.99 0.5 0.99 0.5 2 1 C1.01 2.49 1.01 2.49 0 4 C0 2.68 0 1.36 0 0 Z " fill="#000102" transform="translate(1230,560)"/>
<path d="M0 0 C0.33 0.99 0.66 1.98 1 3 C0.34 2.67 -0.32 2.34 -1 2 C-0.67 1.34 -0.34 0.68 0 0 Z " fill="#000102" transform="translate(972,1062)"/>
<path d="M0 0 C4 1 4 1 4 1 Z " fill="#1AD8F4" transform="translate(108,842)"/>
<path d="M0 0 C0.66 0.66 1.32 1.32 2 2 C1.34 2 0.68 2 0 2 C0 1.34 0 0.68 0 0 Z " fill="#444242" transform="translate(1076,951)"/>
<path d="M0 0 C0.33 0.66 0.66 1.32 1 2 C0.34 1.67 -0.32 1.34 -1 1 C-0.67 0.67 -0.34 0.34 0 0 Z " fill="#000102" transform="translate(1220,852)"/>
<path d="M0 0 C2 1 2 1 2 1 Z " fill="#000102" transform="translate(146,1065)"/>
<path d="M0 0 C2 1 2 1 2 1 Z " fill="#000102" transform="translate(77,1065)"/>
<path d="M0 0 C2 1 2 1 2 1 Z " fill="#FBEBE3" transform="translate(992,998)"/>
<path d="M0 0 C2 1 2 1 2 1 Z " fill="#000102" transform="translate(1008,992)"/>
<path d="M0 0 C2 1 2 1 2 1 Z " fill="#000102" transform="translate(695,992)"/>
<path d="M0 0 C2 1 2 1 2 1 Z " fill="#000102" transform="translate(691,990)"/>
<path d="M0 0 C2 1 2 1 2 1 Z " fill="#000102" transform="translate(1018,987)"/>
<path d="M0 0 C2 1 2 1 2 1 Z " fill="#000102" transform="translate(685,987)"/>
<path d="M0 0 C2 1 2 1 2 1 Z " fill="#000102" transform="translate(1023,985)"/>
<path d="M0 0 C2 1 2 1 2 1 Z " fill="#000102" transform="translate(1038,977)"/>
<path d="M0 0 C2 1 2 1 2 1 Z " fill="#000102" transform="translate(1050,970)"/>
<path d="M0 0 C2 1 2 1 2 1 Z " fill="#000102" transform="translate(653,970)"/>
<path d="M0 0 C2 1 2 1 2 1 Z " fill="#FBEBE3" transform="translate(651,968)"/>
<path d="M0 0 C2 1 2 1 2 1 Z " fill="#000102" transform="translate(640,962)"/>
<path d="M0 0 C2 1 2 1 2 1 Z " fill="#FBEBE3" transform="translate(544,955)"/>
<path d="" fill="#000102" transform="translate(0,0)"/>
<path d="M0 0 C2 1 2 1 2 1 Z " fill="#FBEBE3" transform="translate(557,948)"/>
<path d="M0 0 C2 1 2 1 2 1 Z " fill="#000102" transform="translate(569,942)"/>
<path d="M0 0 C2 1 2 1 2 1 Z " fill="#000102" transform="translate(1131,940)"/>
<path d="" fill="#000102" transform="translate(0,0)"/>
<path d="M0 0 C2 1 2 1 2 1 Z " fill="#000102" transform="translate(1117,932)"/>
<path d="M0 0 C2 1 2 1 2 1 Z " fill="#000102" transform="translate(586,932)"/>
<path d="" fill="#000102" transform="translate(0,0)"/>
<path d="" fill="#1AD8F4" transform="translate(0,0)"/>
<path d="" fill="#000102" transform="translate(0,0)"/>
<path d="" fill="#FBEBE3" transform="translate(0,0)"/>
<path d="" fill="#000102" transform="translate(0,0)"/>
<path d="" fill="#FBEBE3" transform="translate(0,0)"/>
<path d="" fill="#000102" transform="translate(0,0)"/>
<path d="" fill="#000102" transform="translate(0,0)"/>
<path d="" fill="#F8CABA" transform="translate(0,0)"/>
<path d="" fill="#000102" transform="translate(0,0)"/>
<path d="" fill="#000102" transform="translate(0,0)"/>
<path d="" fill="#FBEBE3" transform="translate(0,0)"/>
<path d="M0 0 C2 1 2 1 2 1 Z " fill="#FBEBE3" transform="translate(1232,558)"/>
<path d="M0 0 C2 1 2 1 2 1 Z " fill="#000102" transform="translate(1253,547)"/>
<path d="" fill="#000102" transform="translate(0,0)"/>
<path d="" fill="#000102" transform="translate(0,0)"/>
<path d="" fill="#000102" transform="translate(0,0)"/>
<path d="" fill="#000102" transform="translate(0,0)"/>
<path d="" fill="#000102" transform="translate(0,0)"/>
<path d="" fill="#000102" transform="translate(0,0)"/>
<path d="" fill="#000102" transform="translate(0,0)"/>
<path d="" fill="#000102" transform="translate(0,0)"/>
<path d="" fill="#FBEBE3" transform="translate(0,0)"/>
<path d="" fill="#000102" transform="translate(0,0)"/>
<path d="" fill="#000102" transform="translate(0,0)"/>
<path d="" fill="#000102" transform="translate(0,0)"/>
<path d="" fill="#000102" transform="translate(0,0)"/>
<path d="" fill="#000102" transform="translate(0,0)"/>
<path d="" fill="#000102" transform="translate(0,0)"/>
<path d="" fill="#FBEBE3" transform="translate(0,0)"/>
<path d="" fill="#000102" transform="translate(0,0)"/>
<path d="" fill="#000102" transform="translate(0,0)"/>
<path d="" fill="#000102" transform="translate(0,0)"/>
<path d="" fill="#FBEBE3" transform="translate(0,0)"/>
<path d="" fill="#000102" transform="translate(0,0)"/>
<path d="" fill="#FBEBE3" transform="translate(0,0)"/>
<path d="" fill="#000102" transform="translate(0,0)"/>
<path d="" fill="#FBEBE3" transform="translate(0,0)"/>
<path d="" fill="#000102" transform="translate(0,0)"/>
<path d="" fill="#756E6C" transform="translate(0,0)"/>
<path d="" fill="#000102" transform="translate(0,0)"/>
<path d="" fill="#FBEBE3" transform="translate(0,0)"/>
<path d="" fill="#756E6C" transform="translate(0,0)"/>
<path d="" fill="#000102" transform="translate(0,0)"/>
<path d="" fill="#756E6C" transform="translate(0,0)"/>
<path d="" fill="#000102" transform="translate(0,0)"/>
<path d="" fill="#000102" transform="translate(0,0)"/>
<path d="" fill="#FBEBE3" transform="translate(0,0)"/>
<path d="" fill="#FBEBE3" transform="translate(0,0)"/>
<path d="" fill="#000102" transform="translate(0,0)"/>
<path d="" fill="#F8CABA" transform="translate(0,0)"/>
<path d="" fill="#756E6C" transform="translate(0,0)"/>
<path d="" fill="#000102" transform="translate(0,0)"/>
<path d="" fill="#000102" transform="translate(0,0)"/>
<path d="" fill="#FBEBE3" transform="translate(0,0)"/>
<path d="" fill="#000102" transform="translate(0,0)"/>
<path d="" fill="#000102" transform="translate(0,0)"/>
<path d="" fill="#F8CABA" transform="translate(0,0)"/>
<path d="" fill="#000102" transform="translate(0,0)"/>
<path d="" fill="#756E6C" transform="translate(0,0)"/>
<path d="" fill="#F8CABA" transform="translate(0,0)"/>
<path d="" fill="#F8CABA" transform="translate(0,0)"/>
<path d="" fill="#756E6C" transform="translate(0,0)"/>
<path d="" fill="#F8CABA" transform="translate(0,0)"/>
<path d="" fill="#000102" transform="translate(0,0)"/>
<path d="" fill="#000102" transform="translate(0,0)"/>
<path d="" fill="#756E6C" transform="translate(0,0)"/>
<path d="" fill="#000102" transform="translate(0,0)"/>
<path d="" fill="#000102" transform="translate(0,0)"/>
<path d="" fill="#F8CABA" transform="translate(0,0)"/>
<path d="" fill="#000102" transform="translate(0,0)"/>
<path d="" fill="#000102" transform="translate(0,0)"/>
<path d="" fill="#FBEBE3" transform="translate(0,0)"/>
<path d="" fill="#FBEBE3" transform="translate(0,0)"/>
<path d="" fill="#756E6C" transform="translate(0,0)"/>
<path d="" fill="#000102" transform="translate(0,0)"/>
<path d="" fill="#756E6C" transform="translate(0,0)"/>
<path d="" fill="#FBEBE3" transform="translate(0,0)"/>
<path d="" fill="#FBEBE3" transform="translate(0,0)"/>
<path d="" fill="#000102" transform="translate(0,0)"/>
<path d="" fill="#F8CABA" transform="translate(0,0)"/>
<path d="" fill="#FBEBE3" transform="translate(0,0)"/>
<path d="" fill="#000102" transform="translate(0,0)"/>
<path d="" fill="#756E6C" transform="translate(0,0)"/>
<path d="" fill="#756E6C" transform="translate(0,0)"/>
<path d="" fill="#000102" transform="translate(0,0)"/>
<path d="" fill="#FBEBE3" transform="translate(0,0)"/>
<path d="" fill="#000102" transform="translate(0,0)"/>
<path d="" fill="#756E6C" transform="translate(0,0)"/>
<path d="" fill="#1AD8F4" transform="translate(0,0)"/>
<path d="" fill="#FBEBE3" transform="translate(0,0)"/>
<path d="" fill="#000102" transform="translate(0,0)"/>
<path d="" fill="#000102" transform="translate(0,0)"/>
<path d="" fill="#756E6C" transform="translate(0,0)"/>
<path d="" fill="#FBEBE3" transform="translate(0,0)"/>
<path d="" fill="#F8CABA" transform="translate(0,0)"/>
<path d="" fill="#000102" transform="translate(0,0)"/>
<path d="" fill="#000102" transform="translate(0,0)"/>
<path d="" fill="#F8CABA" transform="translate(0,0)"/>
<path d="" fill="#000102" transform="translate(0,0)"/>
<path d="" fill="#000102" transform="translate(0,0)"/>
<path d="" fill="#1AD8F4" transform="translate(0,0)"/>
<path d="" fill="#FBEBE3" transform="translate(0,0)"/>
<path d="" fill="#FBEBE3" transform="translate(0,0)"/>
<path d="" fill="#000102" transform="translate(0,0)"/>
<path d="" fill="#F8CABA" transform="translate(0,0)"/>
<path d="" fill="#000102" transform="translate(0,0)"/>
<path d="" fill="#000102" transform="translate(0,0)"/>
<path d="" fill="#F8CABA" transform="translate(0,0)"/>
<path d="" fill="#000102" transform="translate(0,0)"/>
<path d="" fill="#000102" transform="translate(0,0)"/>
<path d="" fill="#000102" transform="translate(0,0)"/>
<path d="" fill="#FBEBE3" transform="translate(0,0)"/>
<path d="" fill="#FBEBE3" transform="translate(0,0)"/>
<path d="" fill="#000102" transform="translate(0,0)"/>
<path d="" fill="#FBEBE3" transform="translate(0,0)"/>
<path d="" fill="#000102" transform="translate(0,0)"/>
<path d="" fill="#000102" transform="translate(0,0)"/>
<path d="" fill="#FBEBE3" transform="translate(0,0)"/>
<path d="" fill="#000102" transform="translate(0,0)"/>
<path d="" fill="#000102" transform="translate(0,0)"/>
<path d="" fill="#FBEBE3" transform="translate(0,0)"/>
<path d="" fill="#000102" transform="translate(0,0)"/>
<path d="" fill="#FBEBE3" transform="translate(0,0)"/>
<path d="" fill="#000102" transform="translate(0,0)"/>
<path d="" fill="#000102" transform="translate(0,0)"/>
<path d="" fill="#000102" transform="translate(0,0)"/>
<path d="" fill="#1AD8F4" transform="translate(0,0)"/>
<path d="" fill="#1AD8F4" transform="translate(0,0)"/>
<path d="" fill="#575958" transform="translate(0,0)"/>
<path d="" fill="#1AD8F4" transform="translate(0,0)"/>
<path d="" fill="#000102" transform="translate(0,0)"/>
<path d="" fill="#000102" transform="translate(0,0)"/>
<path d="" fill="#756E6C" transform="translate(0,0)"/>
<path d="" fill="#000102" transform="translate(0,0)"/>
<path d="" fill="#000102" transform="translate(0,0)"/>
<path d="" fill="#000102" transform="translate(0,0)"/>
<path d="" fill="#000102" transform="translate(0,0)"/>
<path d="" fill="#FBEBE3" transform="translate(0,0)"/>
<path d="" fill="#000102" transform="translate(0,0)"/>
<path d="" fill="#000102" transform="translate(0,0)"/>
<path d="" fill="#FBEBE3" transform="translate(0,0)"/>
<path d="" fill="#000102" transform="translate(0,0)"/>
<path d="" fill="#000102" transform="translate(0,0)"/>
<path d="" fill="#000102" transform="translate(0,0)"/>
<path d="" fill="#1AD8F4" transform="translate(0,0)"/>
<path d="" fill="#000102" transform="translate(0,0)"/>
<path d="" fill="#000102" transform="translate(0,0)"/>
<path d="" fill="#1AD8F4" transform="translate(0,0)"/>
<path d="" fill="#000102" transform="translate(0,0)"/>
<path d="" fill="#000102" transform="translate(0,0)"/>
<path d="" fill="#000102" transform="translate(0,0)"/>
<path d="" fill="#000102" transform="translate(0,0)"/>
<path d="" fill="#000102" transform="translate(0,0)"/>
<path d="" fill="#000102" transform="translate(0,0)"/>
<path d="" fill="#FBEBE3" transform="translate(0,0)"/>
<path d="" fill="#000102" transform="translate(0,0)"/>
<path d="" fill="#000102" transform="translate(0,0)"/>
<path d="" fill="#FBEBE3" transform="translate(0,0)"/>
<path d="" fill="#FBEBE3" transform="translate(0,0)"/>
<path d="" fill="#FBEBE3" transform="translate(0,0)"/>
<path d="" fill="#000102" transform="translate(0,0)"/>
<path d="" fill="#000102" transform="translate(0,0)"/>
<path d="" fill="#FBEBE3" transform="translate(0,0)"/>
<path d="" fill="#000102" transform="translate(0,0)"/>
<path d="" fill="#000102" transform="translate(0,0)"/>
<path d="" fill="#000102" transform="translate(0,0)"/>
<path d="" fill="#FDE472" transform="translate(0,0)"/>
<path d="" fill="#FBEBE3" transform="translate(0,0)"/>
<path d="" fill="#000102" transform="translate(0,0)"/>
<path d="" fill="#1AD8F4" transform="translate(0,0)"/>
<path d="" fill="#000102" transform="translate(0,0)"/>
<path d="" fill="#000102" transform="translate(0,0)"/>
<path d="" fill="#000102" transform="translate(0,0)"/>
<path d="" fill="#FBEBE3" transform="translate(0,0)"/>
<path d="" fill="#000102" transform="translate(0,0)"/>
<path d="" fill="#000102" transform="translate(0,0)"/>
<path d="" fill="#756E6C" transform="translate(0,0)"/>
<path d="" fill="#1AD8F4" transform="translate(0,0)"/>
</svg>
