<?xml version="1.0" encoding="UTF-8"?>
<!DOCTYPE svg PUBLIC "-//W3C//DTD SVG 1.1//EN" "http://www.w3.org/Graphics/SVG/1.1/DTD/svg11.dtd">
<svg xmlns="http://www.w3.org/2000/svg" version="1.1" width="512px" height="512px" style="shape-rendering:geometricPrecision; text-rendering:geometricPrecision; image-rendering:optimizeQuality; fill-rule:evenodd; clip-rule:evenodd" xmlns:xlink="http://www.w3.org/1999/xlink">
<g><path style="opacity:0.952" fill="#010101" d="M 511.5,115.5 C 511.5,120.167 511.5,124.833 511.5,129.5C 504.011,144.802 492.345,148.969 476.5,142C 472.61,139.404 469.777,135.904 468,131.5C 447.182,130.492 433.349,139.825 426.5,159.5C 436.445,167.275 445.945,175.608 455,184.5C 455.736,187.592 455.569,190.592 454.5,193.5C 451.099,195.384 447.433,195.884 443.5,195C 437,189.167 430.5,183.333 424,177.5C 423.5,188.828 423.333,200.162 423.5,211.5C 419.925,218.449 415.425,219.115 410,213.5C 408.575,206.615 408.075,199.615 408.5,192.5C 408.197,184.111 408.53,175.778 409.5,167.5C 383.884,147.189 355.217,132.355 323.5,123C 315.255,120.637 306.921,118.804 298.5,117.5C 246.617,107.536 196.95,114.202 149.5,137.5C 148.669,145.145 148.169,152.812 148,160.5C 144.455,166.209 140.121,166.875 135,162.5C 133.931,157.245 133.097,151.911 132.5,146.5C 86.5522,173.276 48.3855,208.609 18,252.5C 16.8129,254.044 16.4795,255.711 17,257.5C 22.6667,265.167 28.3333,272.833 34,280.5C 34.6667,282.167 34.6667,283.833 34,285.5C 32.9055,287.078 32.0722,288.745 31.5,290.5C 29.9397,290.519 28.4397,290.852 27,291.5C 25.5,291 24,290.5 22.5,290C 14.2012,280.216 6.53457,270.049 -0.5,259.5C -0.5,256.833 -0.5,254.167 -0.5,251.5C 33.9238,199.741 78.2571,158.741 132.5,128.5C 134.56,110.095 132.726,92.0955 127,74.5C 120.163,59.8263 108.663,51.6597 92.5,50C 63.1667,49.6667 33.8333,49.3333 4.5,49C 2.67694,48.0027 1.01027,46.8361 -0.5,45.5C -0.5,42.8333 -0.5,40.1667 -0.5,37.5C 1.01027,36.1639 2.67694,34.9973 4.5,34C 33.8333,33.3333 63.1667,33.3333 92.5,34C 115.885,35.7321 132.385,47.2321 142,68.5C 147.555,85.3673 150.221,102.701 150,120.5C 228.599,87.1704 305.765,90.3371 381.5,130C 392.17,136 402.504,142.5 412.5,149.5C 418.383,134.783 428.717,124.617 443.5,119C 451.44,116.846 459.44,115.012 467.5,113.5C 474.109,101.366 484.109,97.1994 497.5,101C 504.443,103.774 509.11,108.607 511.5,115.5 Z"/></g>
<g><path style="opacity:0.926" fill="#000000" d="M -0.5,82.5 C -0.5,79.8333 -0.5,77.1667 -0.5,74.5C 0.316435,72.8564 1.64977,71.6897 3.5,71C 30.5,70.3333 57.5,70.3333 84.5,71C 91.1969,76.3082 90.8636,81.3082 83.5,86C 57.5,86.6667 31.5,86.6667 5.5,86C 3.11327,85.4363 1.11327,84.2696 -0.5,82.5 Z"/></g>
<g><path style="opacity:1" fill="#ebf6f7" d="M 298.5,117.5 C 339.263,131.626 375.43,153.292 407,182.5C 407.179,186.025 407.679,189.359 408.5,192.5C 408.075,199.615 408.575,206.615 410,213.5C 415.425,219.115 419.925,218.449 423.5,211.5C 424.324,207.688 424.824,203.688 425,199.5C 442.128,216.625 456.962,235.459 469.5,256C 444.851,293.818 414.184,325.985 377.5,352.5C 375.691,346.097 371.691,344.264 365.5,347C 364.299,347.903 363.465,349.069 363,350.5C 362.501,354.486 362.334,358.486 362.5,362.5C 335.777,380.024 306.777,392.357 275.5,399.5C 211.474,401.418 153.807,383.418 102.5,345.5C 102.581,330.246 102.414,314.912 102,299.5C 99.5647,294.776 95.7314,293.276 90.5,295C 89.6667,295.833 88.8333,296.667 88,297.5C 87.6667,309.5 87.3333,321.5 87,333.5C 75.5634,324.066 64.73,313.899 54.5,303C 50.6689,299.924 46.6689,299.757 42.5,302.5C 38.8051,298.474 35.1384,294.474 31.5,290.5C 32.0722,288.745 32.9055,287.078 34,285.5C 34.6667,283.833 34.6667,282.167 34,280.5C 28.3333,272.833 22.6667,265.167 17,257.5C 16.4795,255.711 16.8129,254.044 18,252.5C 48.3855,208.609 86.5522,173.276 132.5,146.5C 133.097,151.911 133.931,157.245 135,162.5C 140.121,166.875 144.455,166.209 148,160.5C 148.169,152.812 148.669,145.145 149.5,137.5C 196.95,114.202 246.617,107.536 298.5,117.5 Z"/></g>
<g><path style="opacity:1" fill="#f270ab" d="M 486.5,114.5 C 494.149,114.314 497.315,117.981 496,125.5C 491.333,130.833 486.667,130.833 482,125.5C 480.776,120.626 482.276,116.959 486.5,114.5 Z"/></g>
<g><path style="opacity:1" fill="#d6eaeb" d="M 298.5,117.5 C 306.921,118.804 315.255,120.637 323.5,123C 355.217,132.355 383.884,147.189 409.5,167.5C 408.53,175.778 408.197,184.111 408.5,192.5C 407.679,189.359 407.179,186.025 407,182.5C 375.43,153.292 339.263,131.626 298.5,117.5 Z"/></g>
<g><path style="opacity:1" fill="#040505" d="M 178.5,182.5 C 180.779,184.723 181.612,187.389 181,190.5C 154.163,225.278 150.163,262.611 169,302.5C 192.454,341.809 226.954,358.476 272.5,352.5C 318.362,342.803 345.529,314.803 354,268.5C 357.265,218.518 336.099,183.351 290.5,163C 284.718,160.608 278.718,159.108 272.5,158.5C 246.904,154.052 223.238,158.886 201.5,173C 197.9,174.073 194.9,173.24 192.5,170.5C 190.714,166.494 191.38,162.994 194.5,160C 225.818,140.972 258.985,137.139 294,148.5C 336.206,165.048 361.206,195.715 369,240.5C 372.762,290.478 353.595,328.645 311.5,355C 259.657,380.071 213.157,372.571 172,332.5C 141.469,295.492 134.802,254.492 152,209.5C 156.335,198.964 162.502,189.798 170.5,182C 173.261,181.278 175.927,181.445 178.5,182.5 Z"/></g>
<g><path style="opacity:1" fill="#64eefb" d="M 272.5,158.5 C 295.861,170.195 313.194,187.861 324.5,211.5C 317.686,210.805 311.852,213.139 307,218.5C 305.335,226.499 308.502,229.999 316.5,229C 321.037,227.091 324.704,224.257 327.5,220.5C 329.129,222.858 330.295,225.524 331,228.5C 332.482,235.092 333.316,241.759 333.5,248.5C 328.821,248.334 324.155,248.501 319.5,249C 315.788,251.513 314.622,255.013 316,259.5C 317.214,261.049 318.714,262.215 320.5,263C 324.486,263.499 328.486,263.666 332.5,263.5C 333.324,272.884 331.657,281.884 327.5,290.5C 323.148,284.991 317.481,282.157 310.5,282C 306.018,285.705 305.351,290.038 308.5,295C 311.5,296.667 314.5,298.333 317.5,300C 319.929,300.703 322.262,300.537 324.5,299.5C 313.216,323.117 295.883,340.784 272.5,352.5C 226.954,358.476 192.454,341.809 169,302.5C 150.163,262.611 154.163,225.278 181,190.5C 181.612,187.389 180.779,184.723 178.5,182.5C 182.872,178.126 187.539,174.126 192.5,170.5C 194.9,173.24 197.9,174.073 201.5,173C 223.238,158.886 246.904,154.052 272.5,158.5 Z"/></g>
<g><path style="opacity:1" fill="#64d1fb" d="M 272.5,158.5 C 278.718,159.108 284.718,160.608 290.5,163C 336.099,183.351 357.265,218.518 354,268.5C 345.529,314.803 318.362,342.803 272.5,352.5C 295.883,340.784 313.216,323.117 324.5,299.5C 327.075,297.155 328.075,294.155 327.5,290.5C 331.657,281.884 333.324,272.884 332.5,263.5C 337.191,260.869 338.691,256.869 337,251.5C 335.855,250.364 334.688,249.364 333.5,248.5C 333.316,241.759 332.482,235.092 331,228.5C 330.295,225.524 329.129,222.858 327.5,220.5C 328.076,216.888 327.076,213.888 324.5,211.5C 313.194,187.861 295.861,170.195 272.5,158.5 Z"/></g>
<g><path style="opacity:1" fill="#020304" d="M 252.5,173.5 C 256.192,172.971 259.358,173.971 262,176.5C 262.667,181.833 262.667,187.167 262,192.5C 257.667,196.5 253.333,196.5 249,192.5C 248.333,187.167 248.333,181.833 249,176.5C 250.145,175.364 251.312,174.364 252.5,173.5 Z"/></g>
<g><path style="opacity:1" fill="#d8ebec" d="M 454.5,193.5 C 458.861,198.193 463.195,202.859 467.5,207.5C 464.189,210.707 463.689,214.374 466,218.5C 476.054,229.619 485.388,241.286 494,253.5C 494.667,254.833 494.667,256.167 494,257.5C 463.002,301.834 424.336,337.834 378,365.5C 377.501,361.179 377.334,356.846 377.5,352.5C 414.184,325.985 444.851,293.818 469.5,256C 456.962,235.459 442.128,216.625 425,199.5C 424.824,203.688 424.324,207.688 423.5,211.5C 423.333,200.162 423.5,188.828 424,177.5C 430.5,183.333 437,189.167 443.5,195C 447.433,195.884 451.099,195.384 454.5,193.5 Z"/></g>
<g><path style="opacity:1" fill="#030707" d="M 214.5,183.5 C 218.909,182.618 222.409,183.952 225,187.5C 226.973,190.464 228.473,193.631 229.5,197C 228.705,203.574 225.039,205.908 218.5,204C 214.679,200.191 212.012,195.691 210.5,190.5C 210.974,187.689 212.307,185.355 214.5,183.5 Z"/></g>
<g><path style="opacity:1" fill="#030606" d="M 289.5,183.5 C 295.563,182.249 299.229,184.582 300.5,190.5C 299.053,194.726 297.053,198.726 294.5,202.5C 287.639,206.458 283.305,204.625 281.5,197C 283.271,191.956 285.938,187.456 289.5,183.5 Z"/></g>
<g><path style="opacity:0.948" fill="#010101" d="M 511.5,251.5 C 511.5,254.167 511.5,256.833 511.5,259.5C 477.129,311.202 432.796,352.202 378.5,382.5C 376.664,399.801 378.164,416.801 383,433.5C 389.193,450.521 401.359,459.687 419.5,461C 448.5,461.333 477.5,461.667 506.5,462C 508.687,463.025 510.354,464.525 511.5,466.5C 511.5,468.5 511.5,470.5 511.5,472.5C 510.354,474.475 508.687,475.975 506.5,477C 477.167,477.667 447.833,477.667 418.5,477C 387.306,473.141 369.139,455.641 364,424.5C 362.354,413.56 361.521,402.56 361.5,391.5C 344.041,398.763 326.041,404.43 307.5,408.5C 303.893,407.888 301.56,405.888 300.5,402.5C 299.458,397.867 301.125,394.701 305.5,393C 324.896,388.59 343.562,382.09 361.5,373.5C 362.489,369.893 362.823,366.226 362.5,362.5C 362.334,358.486 362.501,354.486 363,350.5C 363.465,349.069 364.299,347.903 365.5,347C 371.691,344.264 375.691,346.097 377.5,352.5C 377.334,356.846 377.501,361.179 378,365.5C 424.336,337.834 463.002,301.834 494,257.5C 494.667,256.167 494.667,254.833 494,253.5C 485.388,241.286 476.054,229.619 466,218.5C 463.689,214.374 464.189,210.707 467.5,207.5C 470.261,205.06 473.261,204.893 476.5,207C 489.513,220.904 501.179,235.737 511.5,251.5 Z"/></g>
<g><path style="opacity:1" fill="#030607" d="M 187.5,210.5 C 193.958,211.145 199.458,213.812 204,218.5C 205.955,226.791 202.788,230.291 194.5,229C 190.996,227.082 187.663,224.916 184.5,222.5C 182.562,217.694 183.562,213.694 187.5,210.5 Z"/></g>
<g><path style="opacity:1" fill="#030607" d="M 324.5,211.5 C 327.076,213.888 328.076,216.888 327.5,220.5C 324.704,224.257 321.037,227.091 316.5,229C 308.502,229.999 305.335,226.499 307,218.5C 311.852,213.139 317.686,210.805 324.5,211.5 Z"/></g>
<g><path style="opacity:1" fill="#020404" d="M 246.5,212.5 C 273.093,209.876 290.593,221.209 299,246.5C 301.421,275.387 288.588,292.887 260.5,299C 227.881,298.045 212.047,281.212 213,248.5C 217.5,230.17 228.667,218.17 246.5,212.5 Z"/></g>
<g><path style="opacity:1" fill="#93c6d3" d="M 255.5,227.5 C 272.741,245.953 272.741,264.453 255.5,283C 253.866,283.494 252.199,283.66 250.5,283.5C 233.285,278.758 225.785,267.424 228,249.5C 232.023,235.635 241.19,228.302 255.5,227.5 Z"/></g>
<g><path style="opacity:1" fill="#75a2ac" d="M 255.5,227.5 C 269.923,227.75 279.423,234.75 284,248.5C 285.731,272.93 274.565,284.597 250.5,283.5C 252.199,283.66 253.866,283.494 255.5,283C 272.741,264.453 272.741,245.953 255.5,227.5 Z"/></g>
<g><path style="opacity:1" fill="#05090a" d="M 177.5,248.5 C 182.959,248.103 188.292,248.603 193.5,250C 195.504,252.841 196.004,256.007 195,259.5C 193.786,261.049 192.286,262.215 190.5,263C 185.713,263.879 181.047,263.545 176.5,262C 172.366,257.119 172.7,252.619 177.5,248.5 Z"/></g>
<g><path style="opacity:1" fill="#050707" d="M 252.5,248.5 C 259.669,247.513 263.169,250.513 263,257.5C 259.797,262.916 255.464,263.916 250,260.5C 247.523,255.669 248.356,251.669 252.5,248.5 Z"/></g>
<g><path style="opacity:1" fill="#050909" d="M 333.5,248.5 C 334.688,249.364 335.855,250.364 337,251.5C 338.691,256.869 337.191,260.869 332.5,263.5C 328.486,263.666 324.486,263.499 320.5,263C 318.714,262.215 317.214,261.049 316,259.5C 314.622,255.013 315.788,251.513 319.5,249C 324.155,248.501 328.821,248.334 333.5,248.5 Z"/></g>
<g><path style="opacity:1" fill="#030607" d="M 194.5,281.5 C 204.11,281.936 206.776,286.436 202.5,295C 199.5,296.667 196.5,298.333 193.5,300C 185.502,300.999 182.335,297.499 184,289.5C 187.4,286.586 190.9,283.92 194.5,281.5 Z"/></g>
<g><path style="opacity:1" fill="#040708" d="M 327.5,290.5 C 328.075,294.155 327.075,297.155 324.5,299.5C 322.262,300.537 319.929,300.703 317.5,300C 314.5,298.333 311.5,296.667 308.5,295C 305.351,290.038 306.018,285.705 310.5,282C 317.481,282.157 323.148,284.991 327.5,290.5 Z"/></g>
<g><path style="opacity:0.957" fill="#010101" d="M 275.5,399.5 C 276.514,401.574 277.514,403.574 278.5,405.5C 277.821,409.016 275.821,411.516 272.5,413C 208.715,416.101 150.881,399.267 99,362.5C 91.3867,378.777 78.8867,389.277 61.5,394C 55.5184,395.275 49.5184,396.441 43.5,397.5C 35.2768,411.96 23.6101,415.46 8.5,408C 4.1179,404.701 1.1179,400.534 -0.5,395.5C -0.5,390.833 -0.5,386.167 -0.5,381.5C 7.724,365.953 19.724,362.119 35.5,370C 38.9267,372.756 41.5934,376.09 43.5,380C 63.9887,380.492 77.6554,371.159 84.5,352C 69.3784,339.879 55.2117,326.712 42,312.5C 39.9908,309.05 40.1575,305.717 42.5,302.5C 46.6689,299.757 50.6689,299.924 54.5,303C 64.73,313.899 75.5634,324.066 87,333.5C 87.3333,321.5 87.6667,309.5 88,297.5C 88.8333,296.667 89.6667,295.833 90.5,295C 95.7314,293.276 99.5647,294.776 102,299.5C 102.414,314.912 102.581,330.246 102.5,345.5C 153.807,383.418 211.474,401.418 275.5,399.5 Z"/></g>
<g><path style="opacity:1" fill="#030707" d="M 218.5,306.5 C 224.563,305.249 228.229,307.582 229.5,313.5C 228.483,317.868 226.65,321.868 224,325.5C 216.951,329.514 212.451,327.68 210.5,320C 212.271,314.956 214.938,310.456 218.5,306.5 Z"/></g>
<g><path style="opacity:1" fill="#030707" d="M 285.5,306.5 C 289.909,305.618 293.409,306.952 296,310.5C 297.973,313.464 299.473,316.631 300.5,320C 299.705,326.574 296.039,328.908 289.5,327C 285.679,323.191 283.012,318.691 281.5,313.5C 281.974,310.689 283.307,308.355 285.5,306.5 Z"/></g>
<g><path style="opacity:1" fill="#020505" d="M 252.5,315.5 C 256.192,314.971 259.358,315.971 262,318.5C 262.667,323.833 262.667,329.167 262,334.5C 257.667,339.833 253.333,339.833 249,334.5C 248.333,329.5 248.333,324.5 249,319.5C 249.69,317.65 250.856,316.316 252.5,315.5 Z"/></g>
<g><path style="opacity:1" fill="#d5e9ea" d="M 362.5,362.5 C 362.823,366.226 362.489,369.893 361.5,373.5C 343.562,382.09 324.896,388.59 305.5,393C 301.125,394.701 299.458,397.867 300.5,402.5C 293.1,403.319 285.767,404.319 278.5,405.5C 277.514,403.574 276.514,401.574 275.5,399.5C 306.777,392.357 335.777,380.024 362.5,362.5 Z"/></g>
<g><path style="opacity:1" fill="#f571ad" d="M 18.5,381.5 C 26.1609,380.663 29.6609,383.996 29,391.5C 25.4546,397.209 21.1213,397.875 16,393.5C 13.5112,388.757 14.3445,384.757 18.5,381.5 Z"/></g>
<g><path style="opacity:0.922" fill="#000000" d="M 511.5,429.5 C 511.5,431.5 511.5,433.5 511.5,435.5C 510.404,437.103 509.07,438.603 507.5,440C 485.167,440.667 462.833,440.667 440.5,440C 436.387,436.491 435.554,432.324 438,427.5C 439.171,426.107 440.671,425.273 442.5,425C 463.5,424.333 484.5,424.333 505.5,425C 508.254,425.599 510.254,427.099 511.5,429.5 Z"/></g>
</svg>
