<?xml version="1.0" encoding="UTF-8"?>
<!-- Generator: visioncortex VTracer 0.6.3 -->
<svg version="1.1" xmlns="http://www.w3.org/2000/svg" width="1280" height="1280">
<path d="M0 0 C1.99 -0 3.98 -0.01 5.97 -0.02 C11.43 -0.03 16.89 -0.02 22.35 -0.01 C28.29 -0 34.24 -0.01 40.18 -0.02 C50.6 -0.04 61.01 -0.04 71.42 -0.03 C82.59 -0.02 93.76 -0.01 104.93 -0.02 C105.63 -0.02 106.34 -0.02 107.07 -0.02 C109.95 -0.03 112.82 -0.03 115.7 -0.03 C142.48 -0.05 169.26 -0.05 196.03 -0.04 C197.22 -0.04 197.22 -0.04 198.44 -0.04 C199.23 -0.04 200.03 -0.04 200.84 -0.04 C225.05 -0.03 249.25 -0.03 273.45 -0.03 C275.07 -0.03 276.69 -0.03 278.31 -0.03 C284.83 -0.03 291.34 -0.04 297.86 -0.04 C316.07 -0.04 334.28 -0.04 352.49 -0.04 C353.32 -0.04 354.15 -0.04 355.01 -0.04 C381.43 -0.05 407.85 -0.04 434.27 -0.03 C435.56 -0.03 435.56 -0.03 436.87 -0.03 C450.78 -0.03 464.7 -0.02 478.61 -0.02 C533.8 0 588.98 0 644.17 -0.02 C658.07 -0.02 671.98 -0.03 685.89 -0.03 C686.75 -0.03 687.6 -0.03 688.48 -0.03 C714.88 -0.04 741.27 -0.05 767.67 -0.04 C768.5 -0.04 769.32 -0.04 770.18 -0.04 C788.37 -0.04 806.56 -0.04 824.75 -0.04 C831.26 -0.03 837.77 -0.03 844.28 -0.03 C845.9 -0.03 847.52 -0.03 849.14 -0.03 C873.33 -0.03 897.53 -0.03 921.72 -0.04 C922.52 -0.04 923.31 -0.04 924.13 -0.04 C924.92 -0.04 925.71 -0.04 926.52 -0.04 C953.22 -0.05 979.93 -0.05 1006.63 -0.03 C1009.5 -0.03 1012.36 -0.02 1015.23 -0.02 C1015.94 -0.02 1016.64 -0.02 1017.37 -0.02 C1028.5 -0.01 1039.64 -0.02 1050.78 -0.03 C1061.74 -0.04 1072.69 -0.04 1083.65 -0.02 C1089.51 -0.01 1095.37 -0 1101.22 -0.02 C1106.56 -0.03 1111.89 -0.03 1117.22 -0.01 C1119.14 -0 1121.05 -0 1122.97 -0.01 C1138.23 -0.09 1150.99 2.27 1165.08 8.5 C1165.08 9.16 1165.08 9.82 1165.08 10.5 C1165.66 10.62 1166.25 10.73 1166.85 10.85 C1169.25 11.55 1170.81 12.49 1172.83 13.94 C1173.44 14.37 1174.06 14.8 1174.69 15.25 C1175.15 15.66 1175.61 16.08 1176.08 16.5 C1176.08 17.16 1176.08 17.82 1176.08 18.5 C1176.66 18.75 1177.24 18.99 1177.83 19.24 C1187.48 24.66 1193.45 36.53 1197.08 46.5 C1197.59 47.59 1198.1 48.67 1198.62 49.79 C1200.88 55.88 1200.49 62.19 1200.46 68.6 C1200.46 70.04 1200.47 71.48 1200.47 72.92 C1200.48 76.89 1200.48 80.85 1200.47 84.82 C1200.46 89.13 1200.47 93.44 1200.48 97.75 C1200.49 105.31 1200.49 112.86 1200.48 120.42 C1200.47 131.66 1200.47 142.9 1200.48 154.14 C1200.5 174.21 1200.5 194.28 1200.49 214.35 C1200.48 231.91 1200.48 249.47 1200.48 267.04 C1200.48 268.2 1200.48 269.36 1200.48 270.56 C1200.48 275.29 1200.48 280.02 1200.49 284.74 C1200.49 329.09 1200.49 373.43 1200.47 417.78 C1200.46 457.2 1200.46 496.61 1200.47 536.03 C1200.49 580.29 1200.49 624.55 1200.48 668.82 C1200.48 673.54 1200.48 678.25 1200.48 682.97 C1200.48 684.71 1200.48 684.71 1200.48 686.49 C1200.48 704.04 1200.48 721.6 1200.49 739.15 C1200.5 759.11 1200.5 779.06 1200.48 799.02 C1200.47 810.19 1200.47 821.37 1200.48 832.54 C1200.49 840 1200.48 847.46 1200.47 854.92 C1200.46 859.17 1200.46 863.42 1200.47 867.68 C1200.48 871.54 1200.48 875.41 1200.46 879.28 C1200.46 880.67 1200.46 882.06 1200.47 883.46 C1200.51 890.86 1200.24 896.76 1197.08 903.5 C1196.72 904.43 1196.35 905.35 1195.97 906.3 C1188.64 923.32 1175.67 936.44 1159.08 944.5 C1156.12 945.68 1153.15 946.65 1150.08 947.5 C1149.05 947.84 1148.02 948.18 1146.96 948.53 C1139.99 950.25 1132.72 949.77 1125.59 949.74 C1123.9 949.74 1122.2 949.75 1120.51 949.75 C1115.86 949.75 1111.22 949.75 1106.57 949.74 C1101.56 949.73 1096.55 949.73 1091.53 949.73 C1082.85 949.73 1074.17 949.73 1065.49 949.71 C1052.94 949.7 1040.38 949.69 1027.83 949.69 C1007.47 949.69 987.1 949.67 966.73 949.65 C946.95 949.64 927.17 949.62 907.38 949.61 C905.55 949.61 905.55 949.61 903.69 949.61 C897.57 949.61 891.45 949.61 885.33 949.6 C834.58 949.58 783.83 949.55 733.08 949.5 C733.71 953.37 734.35 957.24 734.99 961.1 C735.26 962.74 735.26 962.74 735.53 964.41 C736.71 971.55 738.06 978.55 740.08 985.5 C740.26 986.14 740.44 986.77 740.63 987.43 C741.88 991.78 743.16 996.11 744.47 1000.45 C745.04 1002.36 745.59 1004.28 746.15 1006.2 C747.74 1011.6 749.43 1016.57 752.1 1021.52 C753.2 1023.74 753.93 1025.97 754.71 1028.32 C759.15 1040.89 766.35 1052.68 773.39 1063.96 C776.08 1068.3 776.08 1068.3 776.08 1070.5 C776.74 1070.5 777.4 1070.5 778.08 1070.5 C778.63 1071.52 779.19 1072.53 779.76 1073.58 C781.95 1077.42 784.51 1080.81 787.27 1084.25 C791.95 1090.1 791.95 1090.1 793.08 1093.5 C793.74 1093.5 794.4 1093.5 795.08 1093.5 C799.08 1097.97 799.08 1097.97 799.08 1100.5 C799.74 1100.5 800.4 1100.5 801.08 1100.5 C802.81 1102.18 802.81 1102.18 804.71 1104.38 C805.65 1105.46 805.65 1105.46 806.62 1106.56 C808.08 1108.5 808.08 1108.5 808.08 1110.5 C808.92 1110.51 809.77 1110.52 810.64 1110.53 C818.63 1110.61 826.62 1110.69 834.6 1110.79 C838.71 1110.84 842.82 1110.89 846.92 1110.93 C850.89 1110.96 854.86 1111.01 858.83 1111.06 C860.33 1111.08 861.84 1111.1 863.35 1111.11 C883.08 1111.27 883.08 1111.27 891.14 1116.13 C892.27 1116.8 892.27 1116.8 893.43 1117.48 C893.97 1117.82 894.52 1118.16 895.08 1118.5 C895.08 1119.16 895.08 1119.82 895.08 1120.5 C896.07 1120.83 897.06 1121.16 898.08 1121.5 C898.08 1122.16 898.08 1122.82 898.08 1123.5 C898.74 1123.5 899.4 1123.5 900.08 1123.5 C901.52 1125.52 901.52 1125.52 903.08 1128.19 C903.6 1129.06 904.11 1129.93 904.64 1130.83 C907.27 1135.71 908.34 1139.42 908.42 1145 C908.44 1146.3 908.46 1147.59 908.49 1148.93 C908.5 1150.34 908.51 1151.75 908.52 1153.16 C908.53 1154.23 908.53 1154.23 908.54 1155.33 C908.58 1159.13 908.6 1162.93 908.62 1166.74 C908.63 1170.63 908.69 1174.52 908.76 1178.41 C908.8 1181.43 908.82 1184.45 908.82 1187.47 C908.83 1188.91 908.85 1190.34 908.88 1191.77 C909.12 1202.99 906.92 1212.63 899.48 1221.39 C898.08 1222.5 898.08 1222.5 896.08 1222.5 C896.08 1223.16 896.08 1223.82 896.08 1224.5 C894.65 1225.69 894.65 1225.69 892.64 1226.94 C892 1227.35 891.37 1227.76 890.71 1228.19 C880.76 1233.17 871.23 1232.98 860.36 1232.97 C858.53 1232.98 856.71 1232.99 854.88 1233 C851.07 1233.01 847.25 1233.01 843.43 1233 C838.56 1233 833.69 1233.03 828.82 1233.07 C825.05 1233.1 821.28 1233.1 817.51 1233.09 C815.72 1233.1 813.92 1233.11 812.13 1233.12 C793.64 1233.29 793.64 1233.29 787.08 1227.5 C783.43 1223.48 782.17 1220.97 781.08 1215.5 C765.24 1215.17 749.4 1214.84 733.08 1214.5 C732.75 1216.15 732.42 1217.8 732.08 1219.5 C730.96 1222.07 729.63 1224.13 728.08 1226.5 C727.09 1226.83 726.1 1227.16 725.08 1227.5 C725.08 1228.16 725.08 1228.82 725.08 1229.5 C719.87 1232.08 715.64 1232.94 709.81 1232.89 C709 1232.89 708.19 1232.9 707.35 1232.9 C704.64 1232.91 701.93 1232.91 699.22 1232.9 C697.25 1232.9 695.29 1232.91 693.32 1232.92 C687.93 1232.93 682.53 1232.93 677.13 1232.92 C671.31 1232.92 665.49 1232.94 659.67 1232.95 C648.26 1232.97 636.85 1232.97 625.45 1232.97 C616.18 1232.97 606.9 1232.98 597.63 1232.98 C594.96 1232.98 592.29 1232.99 589.62 1232.99 C588.63 1232.99 588.63 1232.99 587.61 1232.99 C568.94 1233.01 550.27 1233.01 531.6 1233.01 C530.9 1233.01 530.19 1233.01 529.47 1233.01 C525.9 1233.01 522.33 1233.01 518.76 1233.01 C517.7 1233.01 517.7 1233.01 516.62 1233 C515.19 1233 513.75 1233 512.32 1233 C490.04 1233 467.76 1233.01 445.47 1233.05 C420.43 1233.08 395.39 1233.1 370.35 1233.1 C357.09 1233.09 343.84 1233.1 330.58 1233.12 C319.29 1233.14 308 1233.15 296.72 1233.13 C290.96 1233.12 285.2 1233.12 279.44 1233.14 C274.17 1233.16 268.89 1233.15 263.62 1233.13 C261.71 1233.13 259.81 1233.13 257.91 1233.14 C245.84 1233.23 233.69 1232.98 224.08 1224.5 C224.08 1223.84 224.08 1223.18 224.08 1222.5 C223.19 1222.16 223.19 1222.16 222.28 1221.8 C219.5 1220.16 218.55 1218.47 216.96 1215.69 C216.46 1214.84 215.96 1213.99 215.45 1213.11 C212.88 1208.23 211.82 1204.53 211.76 1198.98 C211.74 1197.67 211.72 1196.37 211.7 1195.03 C211.69 1193.61 211.68 1192.2 211.67 1190.78 C211.67 1189.7 211.67 1189.7 211.66 1188.6 C211.63 1184.79 211.61 1180.97 211.6 1177.16 C211.59 1173.25 211.54 1169.34 211.48 1165.44 C211.45 1162.41 211.44 1159.37 211.43 1156.34 C211.43 1154.9 211.41 1153.47 211.38 1152.03 C211.19 1140.72 213.81 1132.91 220.08 1123.5 C220.74 1123.5 221.4 1123.5 222.08 1123.5 C222.41 1122.51 222.74 1121.52 223.08 1120.5 C224.57 1119.19 224.57 1119.19 226.39 1117.94 C226.99 1117.53 227.58 1117.11 228.19 1116.69 C237.68 1110.73 248.23 1111.17 259.05 1111.09 C260.59 1111.07 262.12 1111.05 263.66 1111.03 C267.66 1110.98 271.67 1110.94 275.68 1110.9 C279.79 1110.86 283.89 1110.81 287.99 1110.76 C296.02 1110.66 304.05 1110.58 312.08 1110.5 C312.38 1109.88 312.69 1109.25 313 1108.61 C314.62 1105.45 316.69 1103.13 319.08 1100.5 C319.74 1100.5 320.4 1100.5 321.08 1100.5 C321.51 1099.61 321.51 1099.61 321.96 1098.69 C323.08 1096.5 323.08 1096.5 325.08 1093.5 C325.74 1093.5 326.4 1093.5 327.08 1093.5 C327.35 1092.93 327.62 1092.35 327.89 1091.76 C329.11 1089.45 330.48 1087.49 332.06 1085.41 C332.64 1084.64 333.23 1083.86 333.83 1083.06 C334.45 1082.23 335.07 1081.41 335.71 1080.57 C343.25 1070.42 349.93 1060.21 355.44 1048.8 C356.69 1046.3 357.97 1043.84 359.31 1041.39 C363.32 1034.06 366.9 1027.05 369.32 1019.01 C370.32 1015.7 371.68 1012.66 373.08 1009.5 C376.07 1002.36 377.8 994.95 379.61 987.45 C380.26 984.77 380.95 982.11 381.64 979.44 C383.75 970.99 385.69 962.44 386.62 953.77 C386.71 952.97 386.79 952.17 386.88 951.34 C386.95 950.73 387.01 950.13 387.08 949.5 C386.03 949.51 384.98 949.51 383.9 949.52 C358.37 949.63 332.84 949.71 307.31 949.76 C294.96 949.79 282.62 949.82 270.27 949.88 C259.51 949.93 248.75 949.96 237.98 949.97 C232.29 949.98 226.59 950 220.89 950.03 C215.53 950.07 210.16 950.08 204.8 950.07 C202.83 950.07 200.86 950.08 198.9 950.1 C196.2 950.12 193.52 950.12 190.82 950.1 C190.05 950.12 189.28 950.13 188.48 950.15 C181.92 950.06 177.34 947.5 172.55 943.1 C169.05 939.27 168.6 936.84 167.08 931.5 C151.57 931.17 136.06 930.84 120.08 930.5 C119.42 933.47 118.76 936.44 118.08 939.5 C114.92 944.77 110.44 946.82 105.08 949.5 C103.42 949.6 101.76 949.64 100.09 949.64 C99.04 949.65 97.98 949.66 96.89 949.66 C95.73 949.66 94.57 949.66 93.37 949.66 C92.15 949.67 90.93 949.67 89.67 949.68 C86.31 949.69 82.95 949.7 79.59 949.7 C77.49 949.71 75.39 949.71 73.29 949.72 C66.71 949.73 60.13 949.74 53.55 949.74 C45.97 949.75 38.38 949.76 30.8 949.79 C24.94 949.81 19.07 949.82 13.2 949.83 C9.7 949.83 6.2 949.83 2.7 949.85 C-1.21 949.87 -5.13 949.87 -9.04 949.86 C-10.76 949.87 -10.76 949.87 -12.51 949.89 C-31.87 949.79 -48.35 940.89 -61.92 927.5 C-74.98 914.24 -80.24 899.84 -80.17 881.53 C-80.18 880.09 -80.18 878.65 -80.18 877.21 C-80.19 873.24 -80.19 869.28 -80.18 865.31 C-80.18 861 -80.19 856.69 -80.19 852.38 C-80.2 844.82 -80.2 837.26 -80.2 829.7 C-80.19 818.46 -80.2 807.22 -80.21 795.98 C-80.22 774.74 -80.22 753.5 -80.22 732.26 C-80.22 715.86 -80.22 699.46 -80.23 683.07 C-80.23 680.71 -80.23 678.36 -80.23 676 C-80.23 672.45 -80.23 668.91 -80.23 665.36 C-80.24 632.37 -80.24 599.38 -80.24 566.38 C-80.24 565.14 -80.24 563.9 -80.24 562.61 C-80.24 556.31 -80.24 550 -80.24 543.69 C-80.24 542.44 -80.24 541.19 -80.24 539.9 C-80.24 537.37 -80.24 534.83 -80.24 532.3 C-80.23 492.88 -80.24 453.46 -80.26 414.04 C-80.28 369.77 -80.29 325.5 -80.28 281.23 C-80.28 276.51 -80.28 271.79 -80.28 267.07 C-80.28 265.91 -80.28 264.75 -80.28 263.55 C-80.28 246 -80.29 228.44 -80.3 210.89 C-80.31 190.93 -80.31 170.97 -80.3 151.01 C-80.29 139.83 -80.29 128.65 -80.31 117.48 C-80.32 110.02 -80.31 102.56 -80.3 95.1 C-80.3 90.84 -80.29 86.59 -80.31 82.34 C-80.32 78.47 -80.31 74.6 -80.3 70.73 C-80.3 69.34 -80.3 67.95 -80.31 66.55 C-80.35 59.15 -80.09 53.24 -76.92 46.5 C-76.54 45.57 -76.17 44.63 -75.78 43.67 C-72.92 37.13 -69.6 30.94 -64.92 25.5 C-64.26 25.5 -63.6 25.5 -62.92 25.5 C-62.65 24.91 -62.38 24.31 -62.11 23.69 C-60.92 21.5 -59.82 20.09 -57.92 18.5 C-57.26 18.5 -56.6 18.5 -55.92 18.5 C-55.59 17.51 -55.26 16.52 -54.92 15.5 C-53.4 14.12 -53.4 14.12 -51.54 12.82 C-50.94 12.38 -50.33 11.94 -49.71 11.49 C-47.92 10.5 -47.92 10.5 -44.92 10.5 C-44.92 9.84 -44.92 9.18 -44.92 8.5 C-29.78 1.81 -16.34 -0.09 0 0 Z M732.08 1212.5 C732.08 1212.83 732.08 1213.16 732.08 1213.5 C748.25 1213.5 764.42 1213.5 781.08 1213.5 C781.08 1213.17 781.08 1212.84 781.08 1212.5 C764.91 1212.5 748.74 1212.5 732.08 1212.5 Z " fill="#E6F2FC" transform="translate(79.91996765136719,23.49663543701172)"/>
<path d="M0 0 C1.99 -0 3.98 -0.01 5.97 -0.02 C11.43 -0.03 16.89 -0.02 22.35 -0.01 C28.29 -0 34.24 -0.01 40.18 -0.02 C50.6 -0.04 61.01 -0.04 71.42 -0.03 C82.59 -0.02 93.76 -0.01 104.93 -0.02 C105.63 -0.02 106.34 -0.02 107.07 -0.02 C109.95 -0.03 112.82 -0.03 115.7 -0.03 C142.48 -0.05 169.26 -0.05 196.03 -0.04 C197.22 -0.04 197.22 -0.04 198.44 -0.04 C199.23 -0.04 200.03 -0.04 200.84 -0.04 C225.05 -0.03 249.25 -0.03 273.45 -0.03 C275.07 -0.03 276.69 -0.03 278.31 -0.03 C284.83 -0.03 291.34 -0.04 297.86 -0.04 C316.07 -0.04 334.28 -0.04 352.49 -0.04 C353.32 -0.04 354.15 -0.04 355.01 -0.04 C381.43 -0.05 407.85 -0.04 434.27 -0.03 C435.56 -0.03 435.56 -0.03 436.87 -0.03 C450.78 -0.03 464.7 -0.02 478.61 -0.02 C533.8 0 588.98 0 644.17 -0.02 C658.07 -0.02 671.98 -0.03 685.89 -0.03 C686.75 -0.03 687.6 -0.03 688.48 -0.03 C714.88 -0.04 741.27 -0.05 767.67 -0.04 C768.5 -0.04 769.32 -0.04 770.18 -0.04 C788.37 -0.04 806.56 -0.04 824.75 -0.04 C831.26 -0.03 837.77 -0.03 844.28 -0.03 C845.9 -0.03 847.52 -0.03 849.14 -0.03 C873.33 -0.03 897.53 -0.03 921.72 -0.04 C922.52 -0.04 923.31 -0.04 924.13 -0.04 C924.92 -0.04 925.71 -0.04 926.52 -0.04 C953.22 -0.05 979.93 -0.05 1006.63 -0.03 C1009.5 -0.03 1012.36 -0.02 1015.23 -0.02 C1015.94 -0.02 1016.64 -0.02 1017.37 -0.02 C1028.5 -0.01 1039.64 -0.02 1050.78 -0.03 C1061.74 -0.04 1072.69 -0.04 1083.65 -0.02 C1089.51 -0.01 1095.37 -0 1101.22 -0.02 C1106.56 -0.03 1111.89 -0.03 1117.22 -0.01 C1119.14 -0 1121.05 -0 1122.97 -0.01 C1138.23 -0.09 1150.99 2.27 1165.08 8.5 C1165.08 9.16 1165.08 9.82 1165.08 10.5 C1165.66 10.62 1166.25 10.73 1166.85 10.85 C1169.25 11.55 1170.81 12.49 1172.83 13.94 C1173.44 14.37 1174.06 14.8 1174.69 15.25 C1175.15 15.66 1175.61 16.08 1176.08 16.5 C1176.08 17.16 1176.08 17.82 1176.08 18.5 C1176.66 18.75 1177.24 18.99 1177.83 19.24 C1187.48 24.66 1193.45 36.53 1197.08 46.5 C1197.59 47.59 1198.1 48.67 1198.62 49.79 C1200.88 55.88 1200.49 62.19 1200.46 68.6 C1200.46 70.04 1200.47 71.48 1200.47 72.92 C1200.48 76.89 1200.48 80.85 1200.47 84.82 C1200.46 89.13 1200.47 93.44 1200.48 97.75 C1200.49 105.31 1200.49 112.86 1200.48 120.42 C1200.47 131.66 1200.47 142.9 1200.48 154.14 C1200.5 174.21 1200.5 194.28 1200.49 214.35 C1200.48 231.91 1200.48 249.47 1200.48 267.04 C1200.48 268.2 1200.48 269.36 1200.48 270.56 C1200.48 275.29 1200.48 280.02 1200.49 284.74 C1200.49 329.09 1200.49 373.43 1200.47 417.78 C1200.46 457.2 1200.46 496.61 1200.47 536.03 C1200.49 580.29 1200.49 624.55 1200.48 668.82 C1200.48 673.54 1200.48 678.25 1200.48 682.97 C1200.48 684.71 1200.48 684.71 1200.48 686.49 C1200.48 704.04 1200.48 721.6 1200.49 739.15 C1200.5 759.11 1200.5 779.06 1200.48 799.02 C1200.47 810.19 1200.47 821.37 1200.48 832.54 C1200.49 840 1200.48 847.46 1200.47 854.92 C1200.46 859.17 1200.46 863.42 1200.47 867.68 C1200.48 871.54 1200.48 875.41 1200.46 879.28 C1200.46 880.67 1200.46 882.06 1200.47 883.46 C1200.51 890.86 1200.24 896.76 1197.08 903.5 C1196.72 904.43 1196.35 905.35 1195.97 906.3 C1188.64 923.32 1175.67 936.44 1159.08 944.5 C1156.12 945.68 1153.15 946.65 1150.08 947.5 C1149.05 947.84 1148.02 948.18 1146.96 948.53 C1139.99 950.25 1132.72 949.77 1125.59 949.74 C1123.9 949.74 1122.2 949.75 1120.51 949.75 C1115.86 949.75 1111.22 949.75 1106.57 949.74 C1101.56 949.73 1096.55 949.73 1091.53 949.73 C1082.85 949.73 1074.17 949.73 1065.49 949.71 C1052.94 949.7 1040.38 949.69 1027.83 949.69 C1007.47 949.69 987.1 949.67 966.73 949.65 C946.95 949.64 927.17 949.62 907.38 949.61 C905.55 949.61 905.55 949.61 903.69 949.61 C897.57 949.61 891.45 949.61 885.33 949.6 C834.58 949.58 783.83 949.55 733.08 949.5 C733.71 953.37 734.35 957.24 734.99 961.1 C735.26 962.74 735.26 962.74 735.53 964.41 C736.71 971.55 738.06 978.55 740.08 985.5 C740.26 986.14 740.44 986.77 740.63 987.43 C741.88 991.78 743.16 996.11 744.47 1000.45 C745.04 1002.36 745.59 1004.28 746.15 1006.2 C747.74 1011.6 749.43 1016.57 752.1 1021.52 C753.2 1023.74 753.93 1025.97 754.71 1028.32 C759.15 1040.89 766.35 1052.68 773.39 1063.96 C776.08 1068.3 776.08 1068.3 776.08 1070.5 C776.74 1070.5 777.4 1070.5 778.08 1070.5 C778.63 1071.52 779.19 1072.53 779.76 1073.58 C781.95 1077.42 784.51 1080.81 787.27 1084.25 C791.95 1090.1 791.95 1090.1 793.08 1093.5 C793.74 1093.5 794.4 1093.5 795.08 1093.5 C799.08 1097.97 799.08 1097.97 799.08 1100.5 C799.74 1100.5 800.4 1100.5 801.08 1100.5 C802.81 1102.18 802.81 1102.18 804.71 1104.38 C805.65 1105.46 805.65 1105.46 806.62 1106.56 C808.08 1108.5 808.08 1108.5 808.08 1110.5 C808.92 1110.51 809.77 1110.52 810.64 1110.53 C818.63 1110.61 826.62 1110.69 834.6 1110.79 C838.71 1110.84 842.82 1110.89 846.92 1110.93 C850.89 1110.96 854.86 1111.01 858.83 1111.06 C860.33 1111.08 861.84 1111.1 863.35 1111.11 C883.08 1111.27 883.08 1111.27 891.14 1116.13 C892.27 1116.8 892.27 1116.8 893.43 1117.48 C893.97 1117.82 894.52 1118.16 895.08 1118.5 C895.08 1119.16 895.08 1119.82 895.08 1120.5 C896.07 1120.83 897.06 1121.16 898.08 1121.5 C898.08 1122.16 898.08 1122.82 898.08 1123.5 C898.74 1123.5 899.4 1123.5 900.08 1123.5 C901.52 1125.52 901.52 1125.52 903.08 1128.19 C903.6 1129.06 904.11 1129.93 904.64 1130.83 C907.27 1135.71 908.34 1139.42 908.42 1145 C908.44 1146.3 908.46 1147.59 908.49 1148.93 C908.5 1150.34 908.51 1151.75 908.52 1153.16 C908.53 1154.23 908.53 1154.23 908.54 1155.33 C908.58 1159.13 908.6 1162.93 908.62 1166.74 C908.63 1170.63 908.69 1174.52 908.76 1178.41 C908.8 1181.43 908.82 1184.45 908.82 1187.47 C908.83 1188.91 908.85 1190.34 908.88 1191.77 C909.12 1202.99 906.92 1212.63 899.48 1221.39 C898.08 1222.5 898.08 1222.5 896.08 1222.5 C896.08 1223.16 896.08 1223.82 896.08 1224.5 C894.65 1225.69 894.65 1225.69 892.64 1226.94 C892 1227.35 891.37 1227.76 890.71 1228.19 C880.76 1233.17 871.23 1232.98 860.36 1232.97 C858.53 1232.98 856.71 1232.99 854.88 1233 C851.07 1233.01 847.25 1233.01 843.43 1233 C838.56 1233 833.69 1233.03 828.82 1233.07 C825.05 1233.1 821.28 1233.1 817.51 1233.09 C815.72 1233.1 813.92 1233.11 812.13 1233.12 C793.64 1233.29 793.64 1233.29 787.08 1227.5 C783.43 1223.48 782.17 1220.97 781.08 1215.5 C765.24 1215.17 749.4 1214.84 733.08 1214.5 C732.75 1216.15 732.42 1217.8 732.08 1219.5 C730.96 1222.07 729.63 1224.13 728.08 1226.5 C727.09 1226.83 726.1 1227.16 725.08 1227.5 C725.08 1228.16 725.08 1228.82 725.08 1229.5 C719.87 1232.08 715.64 1232.94 709.81 1232.89 C709 1232.89 708.19 1232.9 707.35 1232.9 C704.64 1232.91 701.93 1232.91 699.22 1232.9 C697.25 1232.9 695.29 1232.91 693.32 1232.92 C687.93 1232.93 682.53 1232.93 677.13 1232.92 C671.31 1232.92 665.49 1232.94 659.67 1232.95 C648.26 1232.97 636.85 1232.97 625.45 1232.97 C616.18 1232.97 606.9 1232.98 597.63 1232.98 C594.96 1232.98 592.29 1232.99 589.62 1232.99 C588.63 1232.99 588.63 1232.99 587.61 1232.99 C568.94 1233.01 550.27 1233.01 531.6 1233.01 C530.9 1233.01 530.19 1233.01 529.47 1233.01 C525.9 1233.01 522.33 1233.01 518.76 1233.01 C517.7 1233.01 517.7 1233.01 516.62 1233 C515.19 1233 513.75 1233 512.32 1233 C490.04 1233 467.76 1233.01 445.47 1233.05 C420.43 1233.08 395.39 1233.1 370.35 1233.1 C357.09 1233.09 343.84 1233.1 330.58 1233.12 C319.29 1233.14 308 1233.15 296.72 1233.13 C290.96 1233.12 285.2 1233.12 279.44 1233.14 C274.17 1233.16 268.89 1233.15 263.62 1233.13 C261.71 1233.13 259.81 1233.13 257.91 1233.14 C245.84 1233.23 233.69 1232.98 224.08 1224.5 C224.08 1223.84 224.08 1223.18 224.08 1222.5 C223.19 1222.16 223.19 1222.16 222.28 1221.8 C219.5 1220.16 218.55 1218.47 216.96 1215.69 C216.46 1214.84 215.96 1213.99 215.45 1213.11 C212.88 1208.23 211.82 1204.53 211.76 1198.98 C211.74 1197.67 211.72 1196.37 211.7 1195.03 C211.69 1193.61 211.68 1192.2 211.67 1190.78 C211.67 1189.7 211.67 1189.7 211.66 1188.6 C211.63 1184.79 211.61 1180.97 211.6 1177.16 C211.59 1173.25 211.54 1169.34 211.48 1165.44 C211.45 1162.41 211.44 1159.37 211.43 1156.34 C211.43 1154.9 211.41 1153.47 211.38 1152.03 C211.19 1140.72 213.81 1132.91 220.08 1123.5 C220.74 1123.5 221.4 1123.5 222.08 1123.5 C222.41 1122.51 222.74 1121.52 223.08 1120.5 C224.57 1119.19 224.57 1119.19 226.39 1117.94 C226.99 1117.53 227.58 1117.11 228.19 1116.69 C237.68 1110.73 248.23 1111.17 259.05 1111.09 C260.59 1111.07 262.12 1111.05 263.66 1111.03 C267.66 1110.98 271.67 1110.94 275.68 1110.9 C279.79 1110.86 283.89 1110.81 287.99 1110.76 C296.02 1110.66 304.05 1110.58 312.08 1110.5 C312.38 1109.88 312.69 1109.25 313 1108.61 C314.62 1105.45 316.69 1103.13 319.08 1100.5 C319.74 1100.5 320.4 1100.5 321.08 1100.5 C321.51 1099.61 321.51 1099.61 321.96 1098.69 C323.08 1096.5 323.08 1096.5 325.08 1093.5 C325.74 1093.5 326.4 1093.5 327.08 1093.5 C327.35 1092.93 327.62 1092.35 327.89 1091.76 C329.11 1089.45 330.48 1087.49 332.06 1085.41 C332.64 1084.64 333.23 1083.86 333.83 1083.06 C334.45 1082.23 335.07 1081.41 335.71 1080.57 C343.25 1070.42 349.93 1060.21 355.44 1048.8 C356.69 1046.3 357.97 1043.84 359.31 1041.39 C363.32 1034.06 366.9 1027.05 369.32 1019.01 C370.32 1015.7 371.68 1012.66 373.08 1009.5 C376.07 1002.36 377.8 994.95 379.61 987.45 C380.26 984.77 380.95 982.11 381.64 979.44 C383.75 970.99 385.69 962.44 386.62 953.77 C386.71 952.97 386.79 952.17 386.88 951.34 C386.95 950.73 387.01 950.13 387.08 949.5 C386.03 949.51 384.98 949.51 383.9 949.52 C358.37 949.63 332.84 949.71 307.31 949.76 C294.96 949.79 282.62 949.82 270.27 949.88 C259.51 949.93 248.75 949.96 237.98 949.97 C232.29 949.98 226.59 950 220.89 950.03 C215.53 950.07 210.16 950.08 204.8 950.07 C202.83 950.07 200.86 950.08 198.9 950.1 C196.2 950.12 193.52 950.12 190.82 950.1 C190.05 950.12 189.28 950.13 188.48 950.15 C181.13 950.05 176.41 946.73 171.21 941.75 C167.94 936.77 166.49 932.65 167.61 926.69 C169.61 920.35 172.31 915.94 178.08 912.5 C182.11 910.57 185.34 910.25 189.79 910.25 C190.46 910.25 191.13 910.25 191.81 910.24 C194.06 910.24 196.3 910.24 198.54 910.25 C200.16 910.25 201.79 910.24 203.42 910.24 C207.91 910.23 212.4 910.24 216.9 910.24 C221.78 910.25 226.66 910.24 231.54 910.23 C240.1 910.23 248.66 910.22 257.22 910.23 C269.95 910.23 282.67 910.23 295.4 910.22 C316.82 910.2 338.23 910.2 359.64 910.2 C388.88 910.2 418.12 910.18 447.36 910.16 C460.97 910.15 474.59 910.15 488.2 910.14 C489.22 910.14 489.22 910.14 490.26 910.14 C522.69 910.12 555.12 910.1 587.55 910.09 C589.7 910.09 591.85 910.09 594.01 910.09 C626.43 910.08 658.86 910.07 691.28 910.06 C694.88 910.06 698.48 910.05 702.08 910.05 C703.15 910.05 703.15 910.05 704.24 910.05 C711.42 910.05 718.6 910.05 725.79 910.05 C727.94 910.05 730.09 910.05 732.24 910.05 C764.63 910.04 797.02 910.03 829.41 910.01 C830.09 910.01 830.77 910.01 831.48 910 C845.75 910 860.02 909.99 874.29 909.98 C880.98 909.97 887.66 909.97 894.34 909.96 C895.66 909.96 896.97 909.96 898.33 909.96 C919.53 909.95 940.72 909.94 961.92 909.94 C983.21 909.95 1004.5 909.94 1025.79 909.92 C1038.45 909.91 1051.11 909.9 1063.76 909.91 C1072.21 909.92 1080.66 909.91 1089.11 909.9 C1093.93 909.89 1098.75 909.89 1103.56 909.9 C1107.95 909.91 1112.33 909.9 1116.71 909.89 C1118.29 909.88 1119.86 909.89 1121.44 909.89 C1132.85 909.94 1142.71 909.24 1151.58 901.25 C1160.83 891.08 1161.38 882.24 1161.34 868.68 C1161.34 867.28 1161.34 865.89 1161.35 864.49 C1161.36 860.64 1161.35 856.8 1161.35 852.96 C1161.35 848.78 1161.35 844.6 1161.36 840.42 C1161.37 833.09 1161.37 825.77 1161.37 818.44 C1161.37 807.55 1161.38 796.65 1161.39 785.76 C1161.41 765.17 1161.41 744.58 1161.41 723.99 C1161.42 708.09 1161.42 692.19 1161.43 676.3 C1161.43 671.72 1161.43 667.15 1161.43 662.57 C1161.43 661.44 1161.43 660.3 1161.43 659.13 C1161.44 627.14 1161.45 595.15 1161.45 563.15 C1161.45 561.95 1161.45 560.74 1161.45 559.5 C1161.45 553.39 1161.45 547.27 1161.45 541.16 C1161.45 539.94 1161.45 538.73 1161.45 537.48 C1161.45 535.02 1161.45 532.57 1161.45 530.11 C1161.45 491.9 1161.46 453.68 1161.49 415.47 C1161.52 372.55 1161.54 329.63 1161.54 286.7 C1161.54 282.13 1161.54 277.55 1161.54 272.98 C1161.54 271.85 1161.54 270.72 1161.54 269.56 C1161.54 251.42 1161.55 233.28 1161.57 215.14 C1161.58 196.91 1161.59 178.69 1161.57 160.46 C1161.57 149.63 1161.57 138.8 1161.59 127.97 C1161.6 120.73 1161.6 113.5 1161.58 106.27 C1161.58 102.15 1161.57 98.02 1161.59 93.9 C1161.61 90.15 1161.6 86.39 1161.58 82.64 C1161.58 80.66 1161.59 78.68 1161.61 76.7 C1161.5 63.42 1157.48 54.2 1148.39 44.69 C1138.38 38.08 1126.34 39.08 1114.83 39.12 C1112.87 39.12 1110.9 39.11 1108.93 39.11 C1103.52 39.1 1098.12 39.1 1092.71 39.11 C1086.82 39.12 1080.94 39.11 1075.06 39.1 C1064.74 39.09 1054.43 39.09 1044.12 39.09 C1033.05 39.1 1021.99 39.1 1010.92 39.09 C1010.23 39.09 1009.53 39.09 1008.81 39.09 C1005.96 39.09 1003.11 39.09 1000.26 39.08 C971.36 39.06 942.46 39.06 913.56 39.07 C909.56 39.07 905.57 39.07 901.58 39.07 C900.79 39.07 899.99 39.07 899.17 39.07 C881.6 39.07 864.02 39.07 846.44 39.06 C844.03 39.06 841.63 39.06 839.22 39.06 C832.77 39.06 826.32 39.06 819.87 39.06 C774.85 39.05 729.83 39.04 684.81 39.05 C683.96 39.05 683.11 39.05 682.24 39.05 C672.77 39.05 663.31 39.05 653.85 39.06 C652.57 39.06 652.57 39.06 651.26 39.06 C646.08 39.06 646.08 39.06 640.89 39.06 C586.24 39.07 531.59 39.06 476.94 39.04 C463.16 39.03 449.39 39.02 435.62 39.02 C434.77 39.02 433.92 39.02 433.05 39.02 C406.92 39.01 380.78 39 354.65 39 C353.42 39 353.42 39 352.16 39 C334.15 39 316.14 39 298.13 39 C291.69 39.01 285.24 39.01 278.8 39.01 C277.19 39.01 275.59 39.01 273.99 39.01 C248.44 39.01 222.89 39 197.35 38.99 C170.9 38.97 144.46 38.97 118.02 38.99 C115.18 38.99 112.34 38.99 109.5 39 C108.8 39 108.1 39 107.39 39 C96.35 39 85.32 39 74.29 38.98 C63.44 38.97 52.59 38.97 41.74 38.99 C35.93 39 30.13 39 24.33 38.99 C19.04 38.97 13.76 38.98 8.48 39 C6.59 39 4.69 39 2.79 38.99 C-9.25 38.93 -22.51 38.9 -32.43 46.89 C-41.33 56.49 -42.22 66.65 -42.18 79.12 C-42.18 80.53 -42.18 81.93 -42.19 83.33 C-42.2 87.19 -42.19 91.05 -42.19 94.91 C-42.19 99.1 -42.19 103.3 -42.2 107.49 C-42.21 114.85 -42.21 122.2 -42.21 129.56 C-42.21 140.5 -42.22 151.44 -42.23 162.38 C-42.25 183.05 -42.25 203.72 -42.25 224.39 C-42.25 240.35 -42.26 256.31 -42.27 272.28 C-42.27 276.87 -42.27 281.46 -42.27 286.05 C-42.27 287.19 -42.27 288.34 -42.27 289.51 C-42.28 321.63 -42.29 353.74 -42.29 385.86 C-42.29 387.68 -42.29 387.68 -42.29 389.53 C-42.29 395.67 -42.29 401.81 -42.29 407.95 C-42.29 409.17 -42.29 410.39 -42.29 411.64 C-42.29 414.11 -42.29 416.58 -42.29 419.04 C-42.29 457.41 -42.3 495.78 -42.33 534.14 C-42.36 577.23 -42.38 620.32 -42.38 663.42 C-42.38 668.01 -42.38 672.6 -42.38 677.2 C-42.38 678.89 -42.38 678.89 -42.38 680.62 C-42.38 698.84 -42.39 717.05 -42.41 735.26 C-42.42 753.56 -42.43 771.86 -42.41 790.16 C-42.41 801.04 -42.41 811.92 -42.43 822.79 C-42.44 830.05 -42.44 837.32 -42.42 844.58 C-42.42 848.72 -42.41 852.86 -42.43 857 C-42.45 860.77 -42.44 864.54 -42.42 868.3 C-42.42 870.29 -42.43 872.28 -42.45 874.27 C-42.37 884.09 -40.99 892.58 -34.11 899.94 C-24.79 908.36 -15.38 909.8 -3.2 909.77 C-2.05 909.78 -0.9 909.79 0.29 909.79 C2.78 909.8 5.26 909.81 7.75 909.81 C11.69 909.81 15.63 909.83 19.57 909.85 C29.34 909.9 39.12 909.93 48.9 909.95 C57.17 909.97 65.45 910 73.72 910.04 C76.33 910.06 78.94 910.06 81.55 910.06 C85.19 910.06 88.84 910.08 92.49 910.1 C93.56 910.1 94.64 910.09 95.75 910.09 C102.39 910.15 107.73 910.63 112.97 915.12 C117.14 920.7 119.57 926.51 120.08 933.5 C119.12 938.43 116.87 942.11 113.14 945.44 C108.65 948.47 105.15 949.75 99.73 949.76 C98.67 949.77 97.61 949.78 96.52 949.79 C94.79 949.78 94.79 949.78 93.03 949.78 C91.81 949.78 90.59 949.79 89.33 949.79 C85.98 949.81 82.64 949.81 79.29 949.8 C76.49 949.8 73.69 949.81 70.89 949.81 C64.28 949.82 57.66 949.83 51.05 949.82 C44.25 949.81 37.44 949.83 30.64 949.85 C24.79 949.86 18.93 949.87 13.08 949.87 C9.59 949.87 6.1 949.87 2.61 949.88 C-1.29 949.9 -5.19 949.89 -9.09 949.88 C-10.23 949.88 -11.37 949.89 -12.55 949.9 C-31.89 949.77 -48.36 940.88 -61.92 927.5 C-74.98 914.24 -80.24 899.84 -80.17 881.53 C-80.18 880.09 -80.18 878.65 -80.18 877.21 C-80.19 873.24 -80.19 869.28 -80.18 865.31 C-80.18 861 -80.19 856.69 -80.19 852.38 C-80.2 844.82 -80.2 837.26 -80.2 829.7 C-80.19 818.46 -80.2 807.22 -80.21 795.98 C-80.22 774.74 -80.22 753.5 -80.22 732.26 C-80.22 715.86 -80.22 699.46 -80.23 683.07 C-80.23 680.71 -80.23 678.36 -80.23 676 C-80.23 672.45 -80.23 668.91 -80.23 665.36 C-80.24 632.37 -80.24 599.38 -80.24 566.38 C-80.24 565.14 -80.24 563.9 -80.24 562.61 C-80.24 556.31 -80.24 550 -80.24 543.69 C-80.24 542.44 -80.24 541.19 -80.24 539.9 C-80.24 537.37 -80.24 534.83 -80.24 532.3 C-80.23 492.88 -80.24 453.46 -80.26 414.04 C-80.28 369.77 -80.29 325.5 -80.28 281.23 C-80.28 276.51 -80.28 271.79 -80.28 267.07 C-80.28 265.91 -80.28 264.75 -80.28 263.55 C-80.28 246 -80.29 228.44 -80.3 210.89 C-80.31 190.93 -80.31 170.97 -80.3 151.01 C-80.29 139.83 -80.29 128.65 -80.31 117.48 C-80.32 110.02 -80.31 102.56 -80.3 95.1 C-80.3 90.84 -80.29 86.59 -80.31 82.34 C-80.32 78.47 -80.31 74.6 -80.3 70.73 C-80.3 69.34 -80.3 67.95 -80.31 66.55 C-80.35 59.15 -80.09 53.24 -76.92 46.5 C-76.54 45.57 -76.17 44.63 -75.78 43.67 C-72.92 37.13 -69.6 30.94 -64.92 25.5 C-64.26 25.5 -63.6 25.5 -62.92 25.5 C-62.65 24.91 -62.38 24.31 -62.11 23.69 C-60.92 21.5 -59.82 20.09 -57.92 18.5 C-57.26 18.5 -56.6 18.5 -55.92 18.5 C-55.59 17.51 -55.26 16.52 -54.92 15.5 C-53.4 14.12 -53.4 14.12 -51.54 12.82 C-50.94 12.38 -50.33 11.94 -49.71 11.49 C-47.92 10.5 -47.92 10.5 -44.92 10.5 C-44.92 9.84 -44.92 9.18 -44.92 8.5 C-29.78 1.81 -16.34 -0.09 0 0 Z M732.08 1212.5 C732.08 1212.83 732.08 1213.16 732.08 1213.5 C748.25 1213.5 764.42 1213.5 781.08 1213.5 C781.08 1213.17 781.08 1212.84 781.08 1212.5 C764.91 1212.5 748.74 1212.5 732.08 1212.5 Z " fill="#000002" transform="translate(79.91996765136719,23.49663543701172)"/>
<path d="M0 0 C1.97 -0 3.93 -0.01 5.9 -0.01 C11.31 -0.02 16.72 -0.02 22.14 -0.01 C28.02 -0 33.91 -0.01 39.79 -0.02 C50.11 -0.03 60.42 -0.03 70.74 -0.02 C81.81 -0.01 92.87 -0.01 103.94 -0.02 C104.64 -0.02 105.34 -0.02 106.06 -0.02 C108.91 -0.02 111.76 -0.02 114.61 -0.02 C141.13 -0.04 167.66 -0.04 194.18 -0.03 C194.97 -0.03 195.75 -0.03 196.56 -0.03 C197.74 -0.03 197.74 -0.03 198.95 -0.03 C222.92 -0.02 246.89 -0.02 270.87 -0.02 C272.47 -0.02 274.08 -0.02 275.68 -0.02 C282.14 -0.03 288.59 -0.03 295.04 -0.03 C313.07 -0.03 331.1 -0.03 349.13 -0.03 C350.37 -0.03 350.37 -0.03 351.62 -0.03 C377.79 -0.03 403.96 -0.03 430.12 -0.02 C431.4 -0.02 431.4 -0.02 432.7 -0.02 C446.48 -0.02 460.26 -0.02 474.05 -0.01 C528.71 0 583.38 0 638.04 -0.01 C651.82 -0.02 665.6 -0.02 679.37 -0.02 C680.22 -0.02 681.07 -0.02 681.94 -0.02 C708.08 -0.03 734.22 -0.03 760.36 -0.03 C761.59 -0.03 761.59 -0.03 762.85 -0.03 C780.86 -0.03 798.87 -0.03 816.89 -0.03 C823.33 -0.03 829.78 -0.03 836.22 -0.02 C837.82 -0.02 839.43 -0.02 841.03 -0.02 C865 -0.02 888.97 -0.02 912.94 -0.03 C914.11 -0.03 914.11 -0.03 915.32 -0.03 C916.49 -0.03 916.49 -0.03 917.69 -0.03 C944.14 -0.04 970.59 -0.04 997.04 -0.02 C999.88 -0.02 1002.72 -0.02 1005.56 -0.02 C1006.25 -0.02 1006.95 -0.02 1007.67 -0.02 C1018.71 -0.01 1029.74 -0.01 1040.78 -0.02 C1051.63 -0.03 1062.48 -0.03 1073.34 -0.01 C1079.14 -0.01 1084.95 -0 1090.75 -0.01 C1096.03 -0.02 1101.31 -0.02 1106.59 -0 C1108.49 -0 1110.39 -0 1112.29 -0.01 C1137.42 -0.11 1137.42 -0.11 1147.51 9.7 C1153.46 16.83 1156.87 24.85 1156.87 34.1 C1156.88 35.27 1156.88 36.45 1156.88 37.66 C1156.88 38.96 1156.88 40.25 1156.88 41.59 C1156.88 42.98 1156.88 44.38 1156.88 45.77 C1156.89 49.62 1156.89 53.47 1156.88 57.32 C1156.88 61.5 1156.89 65.68 1156.89 69.87 C1156.89 77.2 1156.9 84.54 1156.89 91.87 C1156.89 102.78 1156.9 113.69 1156.9 124.6 C1156.91 145.21 1156.91 165.82 1156.92 186.44 C1156.92 202.35 1156.92 218.27 1156.92 234.19 C1156.92 238.76 1156.92 243.34 1156.92 247.92 C1156.92 249.06 1156.92 250.19 1156.92 251.37 C1156.93 283.38 1156.93 315.4 1156.93 347.42 C1156.93 348.63 1156.93 349.83 1156.93 351.08 C1156.93 357.2 1156.93 363.32 1156.93 369.45 C1156.93 371.27 1156.93 371.27 1156.93 373.13 C1156.93 375.59 1156.93 378.05 1156.93 380.51 C1156.93 418.77 1156.94 457.03 1156.95 495.29 C1156.97 538.24 1156.98 581.2 1156.98 624.16 C1156.98 628.74 1156.98 633.32 1156.98 637.9 C1156.98 639.03 1156.98 640.15 1156.98 641.32 C1156.98 659.48 1156.98 677.64 1156.99 695.81 C1157 714.05 1157 732.3 1156.99 750.55 C1156.99 761.4 1156.99 772.24 1157 783.09 C1157.01 790.33 1157.01 797.57 1157 804.82 C1157 808.94 1157 813.07 1157 817.2 C1157.01 820.96 1157.01 824.71 1157 828.47 C1157 830.46 1157 832.44 1157.01 834.43 C1156.98 843.59 1156.71 851.65 1150.94 859.19 C1150.27 860.08 1149.6 860.98 1148.92 861.9 C1145.66 865.62 1142.4 868.45 1137.69 870.07 C1137.03 870.3 1136.38 870.53 1135.71 870.76 C1131.4 872.11 1127.71 872.5 1123.16 872.5 C1122.16 872.51 1122.16 872.51 1121.14 872.51 C1118.9 872.51 1116.65 872.51 1114.41 872.51 C1112.79 872.51 1111.16 872.51 1109.53 872.51 C1105.04 872.51 1100.54 872.51 1096.05 872.51 C1091.17 872.51 1086.29 872.51 1081.41 872.52 C1072.84 872.52 1064.28 872.52 1055.72 872.52 C1042.98 872.52 1030.25 872.52 1017.52 872.53 C997.42 872.54 977.31 872.54 957.21 872.55 C925.97 872.55 894.74 872.57 863.5 872.58 C856.04 872.59 848.58 872.59 841.12 872.6 C839.76 872.6 838.39 872.6 837.02 872.6 C834.28 872.6 831.54 872.6 828.8 872.6 C826.05 872.61 823.29 872.61 820.54 872.61 C788.8 872.63 757.05 872.64 725.3 872.66 C723.15 872.66 720.99 872.66 718.84 872.66 C685.69 872.68 652.53 872.69 619.38 872.7 C618.31 872.7 618.31 872.7 617.21 872.7 C605.72 872.7 594.22 872.7 582.72 872.7 C549.6 872.71 516.49 872.72 483.37 872.74 C482.69 872.74 482.01 872.74 481.31 872.74 C467.03 872.75 452.76 872.76 438.48 872.77 C431.8 872.77 425.11 872.78 418.43 872.78 C417.11 872.79 415.8 872.79 414.44 872.79 C393.24 872.8 372.04 872.8 350.84 872.8 C329.54 872.79 308.24 872.8 286.94 872.83 C274.28 872.84 261.62 872.85 248.96 872.83 C240.51 872.83 232.06 872.83 223.61 872.85 C218.79 872.86 213.97 872.87 209.15 872.85 C204.76 872.84 200.38 872.85 196 872.87 C194.42 872.87 192.84 872.87 191.26 872.86 C181.96 872.8 174.56 872.83 167.44 879.57 C165.51 882.78 164.42 885.91 163.36 889.49 C162.75 891.38 162.75 891.38 161.75 892.38 C160.29 892.48 158.82 892.52 157.35 892.52 C155.95 892.53 155.95 892.53 154.52 892.54 C153.5 892.54 152.49 892.54 151.44 892.55 C150.4 892.55 149.37 892.55 148.3 892.56 C146.1 892.56 143.9 892.56 141.7 892.56 C138.33 892.57 134.96 892.58 131.58 892.6 C129.45 892.61 127.32 892.61 125.19 892.61 C124.18 892.62 123.16 892.62 122.12 892.63 C121.18 892.63 120.24 892.62 119.27 892.62 C118.45 892.62 117.62 892.62 116.77 892.62 C114.75 892.38 114.75 892.38 112.75 890.38 C112.32 889.16 111.88 887.94 111.44 886.69 C109.91 882.5 108.08 878.44 104.75 875.38 C99.05 872.81 93.41 873.09 87.29 873.11 C86.14 873.1 84.99 873.1 83.81 873.09 C81.32 873.08 78.84 873.07 76.35 873.07 C72.41 873.07 68.47 873.05 64.53 873.03 C54.75 872.98 44.97 872.95 35.18 872.93 C26.91 872.91 18.65 872.88 10.38 872.84 C7.77 872.82 5.16 872.82 2.55 872.82 C-1.1 872.82 -4.75 872.8 -8.4 872.78 C-10.01 872.79 -10.01 872.79 -11.65 872.79 C-22.85 872.68 -32.08 869.38 -40.44 861.82 C-48.35 853.36 -48.84 843.36 -48.75 832.26 C-48.76 830.86 -48.77 829.45 -48.77 828.05 C-48.79 824.19 -48.78 820.34 -48.77 816.49 C-48.76 812.29 -48.77 808.09 -48.78 803.9 C-48.79 796.55 -48.79 789.19 -48.78 781.84 C-48.77 770.91 -48.77 759.98 -48.79 749.05 C-48.81 729.53 -48.81 710 -48.79 690.48 C-48.78 673.4 -48.78 656.31 -48.79 639.23 C-48.79 638.09 -48.79 636.96 -48.79 635.79 C-48.79 631.19 -48.79 626.59 -48.79 621.99 C-48.8 578.84 -48.79 535.69 -48.77 492.54 C-48.75 454.2 -48.75 415.86 -48.77 377.52 C-48.79 334.45 -48.8 291.37 -48.79 248.3 C-48.79 243.71 -48.79 239.12 -48.79 234.53 C-48.79 233.4 -48.79 232.27 -48.79 231.1 C-48.78 214.03 -48.79 196.95 -48.8 179.88 C-48.81 160.47 -48.81 141.05 -48.78 121.64 C-48.77 110.77 -48.77 99.9 -48.79 89.04 C-48.8 81.78 -48.79 74.52 -48.77 67.27 C-48.76 63.13 -48.76 59 -48.77 54.86 C-48.79 51.09 -48.78 47.33 -48.76 43.56 C-48.76 41.58 -48.77 39.59 -48.78 37.61 C-48.7 27.37 -46.68 16.96 -39.25 9.38 C-27.72 -0.47 -14.32 -0.06 0 0 Z M-0.25 49.38 C-3.37 54.33 -5.38 59.19 -5.38 65.08 C-5.38 66.06 -5.39 67.03 -5.39 68.04 C-5.39 69.11 -5.38 70.19 -5.38 71.3 C-5.39 72.44 -5.39 73.59 -5.39 74.76 C-5.39 77.96 -5.39 81.15 -5.39 84.35 C-5.39 87.82 -5.4 91.29 -5.4 94.75 C-5.41 101.64 -5.41 108.53 -5.41 115.42 C-5.41 123.67 -5.42 131.91 -5.43 140.16 C-5.44 160.09 -5.45 180.03 -5.45 199.96 C-5.45 209.39 -5.46 218.82 -5.46 228.24 C-5.47 260.5 -5.49 292.76 -5.49 325.02 C-5.49 327.04 -5.49 329.07 -5.49 331.1 C-5.49 333.13 -5.49 335.16 -5.49 337.19 C-5.49 341.26 -5.49 345.34 -5.49 349.41 C-5.49 350.42 -5.49 351.43 -5.49 352.47 C-5.5 385.23 -5.51 417.99 -5.53 450.75 C-5.56 485.37 -5.57 519.99 -5.57 554.61 C-5.57 558.41 -5.57 562.21 -5.58 566.01 C-5.58 566.94 -5.58 567.88 -5.58 568.84 C-5.58 583.91 -5.59 598.98 -5.6 614.05 C-5.62 629.19 -5.62 644.33 -5.61 659.47 C-5.61 668.46 -5.61 677.46 -5.63 686.46 C-5.64 692.47 -5.64 698.48 -5.63 704.49 C-5.62 707.91 -5.62 711.34 -5.63 714.76 C-5.64 718.45 -5.64 722.14 -5.62 725.83 C-5.63 727.42 -5.63 727.42 -5.65 729.05 C-5.6 735.8 -5.16 742.16 -0.42 747.4 C0.23 747.85 0.89 748.29 1.56 748.75 C2.21 749.21 2.85 749.68 3.52 750.15 C8.3 752.78 12.67 753.63 18.09 753.63 C19.99 753.64 19.99 753.64 21.92 753.65 C23.32 753.64 24.72 753.64 26.12 753.63 C27.61 753.63 29.11 753.64 30.6 753.64 C34.73 753.65 38.85 753.65 42.98 753.64 C47.46 753.64 51.94 753.64 56.42 753.65 C64.28 753.66 72.14 753.66 80 753.66 C91.68 753.65 103.37 753.66 115.05 753.67 C137.14 753.68 159.22 753.68 181.3 753.68 C198.35 753.68 215.4 753.68 232.45 753.68 C234.9 753.68 237.35 753.69 239.79 753.69 C243.48 753.69 247.17 753.69 250.86 753.69 C285.15 753.7 319.45 753.7 353.74 753.7 C355.04 753.7 356.33 753.7 357.66 753.7 C364.22 753.7 370.78 753.7 377.33 753.69 C378.64 753.69 379.94 753.69 381.28 753.69 C383.91 753.69 386.55 753.69 389.18 753.69 C430.17 753.69 471.15 753.7 512.14 753.71 C558.16 753.73 604.18 753.75 650.2 753.74 C655.1 753.74 660.01 753.74 664.91 753.74 C666.12 753.74 667.33 753.74 668.57 753.74 C686.82 753.74 705.08 753.75 723.33 753.76 C744.08 753.77 764.83 753.77 785.58 753.76 C797.2 753.75 808.82 753.75 820.45 753.77 C828.2 753.77 835.96 753.77 843.71 753.76 C848.13 753.75 852.56 753.75 856.98 753.76 C861 753.77 865.02 753.77 869.05 753.76 C870.49 753.75 871.94 753.76 873.39 753.76 C885.4 753.87 885.4 753.87 895.5 748 C899.16 743.73 900.63 740.98 901.75 735.38 C917.92 735.38 934.09 735.38 950.75 735.38 C951.41 738.02 952.07 740.66 952.75 743.38 C955.78 748.32 960.1 751.22 965.63 752.98 C968.16 753.46 970.53 753.51 973.1 753.52 C974.73 753.54 974.73 753.54 976.4 753.55 C978.18 753.55 978.18 753.55 979.99 753.55 C981.25 753.56 982.5 753.57 983.79 753.57 C987.95 753.59 992.1 753.61 996.26 753.62 C997.69 753.62 999.13 753.62 1000.56 753.63 C1007.3 753.65 1014.04 753.66 1020.77 753.67 C1028.54 753.68 1036.3 753.71 1044.06 753.75 C1050.07 753.78 1056.08 753.79 1062.09 753.79 C1065.67 753.8 1069.26 753.81 1072.84 753.83 C1076.85 753.86 1080.85 753.85 1084.86 753.85 C1086.03 753.86 1087.21 753.87 1088.42 753.89 C1095.86 753.84 1102.47 753 1108.33 748.04 C1114.42 741.43 1114.04 733.41 1114.01 724.99 C1114.02 723.85 1114.02 722.7 1114.02 721.52 C1114.03 718.34 1114.03 715.16 1114.03 711.98 C1114.03 708.52 1114.04 705.06 1114.05 701.6 C1114.06 694.73 1114.07 687.87 1114.07 681 C1114.07 672.78 1114.08 664.56 1114.1 656.34 C1114.13 636.47 1114.14 616.6 1114.15 596.73 C1114.15 587.33 1114.16 577.93 1114.17 568.53 C1114.2 536.36 1114.22 504.18 1114.22 472.01 C1114.22 469.99 1114.22 467.97 1114.22 465.95 C1114.23 463.92 1114.23 461.9 1114.23 459.87 C1114.23 455.81 1114.23 451.75 1114.23 447.69 C1114.23 446.68 1114.23 445.68 1114.23 444.64 C1114.24 411.98 1114.27 379.33 1114.32 346.67 C1114.36 312.14 1114.39 277.62 1114.39 243.09 C1114.39 239.3 1114.4 235.51 1114.4 231.72 C1114.4 230.32 1114.4 230.32 1114.4 228.89 C1114.4 213.87 1114.42 198.85 1114.45 183.83 C1114.48 168.74 1114.48 153.65 1114.47 138.55 C1114.46 129.59 1114.47 120.62 1114.5 111.65 C1114.52 105.66 1114.52 99.67 1114.5 93.68 C1114.49 90.26 1114.49 86.85 1114.51 83.44 C1114.53 79.76 1114.52 76.07 1114.49 72.39 C1114.51 71.34 1114.52 70.29 1114.54 69.21 C1114.43 61.29 1112.18 54.97 1107.75 48.38 C1099.73 41.2 1086.86 43.1 1076.8 43.13 C1074.95 43.12 1073.1 43.12 1071.25 43.12 C1066.16 43.11 1061.06 43.11 1055.97 43.12 C1050.43 43.13 1044.89 43.12 1039.36 43.11 C1029.65 43.11 1019.94 43.11 1010.23 43.11 C996.47 43.12 982.71 43.12 968.95 43.11 C943.98 43.1 919.02 43.1 894.06 43.1 C893.32 43.11 892.58 43.11 891.82 43.11 C891.08 43.11 890.34 43.11 889.57 43.11 C867.01 43.11 844.45 43.11 821.89 43.11 C820.38 43.11 818.87 43.11 817.36 43.11 C811.29 43.11 805.22 43.11 799.15 43.11 C782.18 43.11 765.21 43.1 748.25 43.1 C747.47 43.1 746.7 43.1 745.9 43.1 C721.28 43.1 696.66 43.11 672.03 43.11 C671.23 43.11 670.43 43.11 669.61 43.11 C656.64 43.11 643.67 43.11 630.7 43.12 C579.25 43.13 527.81 43.13 476.36 43.12 C463.39 43.11 450.43 43.11 437.46 43.11 C436.67 43.11 435.87 43.11 435.05 43.11 C410.45 43.1 385.85 43.1 361.25 43.1 C360.48 43.1 359.71 43.1 358.91 43.1 C341.96 43.1 325.01 43.11 308.07 43.11 C302 43.11 295.94 43.11 289.87 43.11 C288.36 43.11 286.86 43.11 285.35 43.11 C262.79 43.11 240.23 43.11 217.68 43.11 C216.94 43.11 216.2 43.11 215.44 43.1 C214.33 43.1 214.33 43.1 213.2 43.1 C188.31 43.1 163.42 43.1 138.53 43.11 C124.18 43.12 109.82 43.12 95.46 43.11 C85.88 43.11 76.3 43.11 66.72 43.12 C61.26 43.12 55.8 43.12 50.33 43.12 C45.36 43.11 40.4 43.11 35.43 43.12 C33.64 43.12 31.85 43.12 30.06 43.12 C13.85 42.55 13.85 42.55 -0.25 49.38 Z " fill="#89D6F7" transform="translate(85.25154113769531,61.62247657775879)"/>
<path d="M0 0 C1.13 -0 1.13 -0 2.29 -0 C4.84 -0.01 7.38 -0.01 9.92 -0 C11.77 -0 13.61 -0.01 15.46 -0.01 C20.56 -0.01 25.65 -0.01 30.75 -0.01 C36.29 -0.01 41.83 -0.01 47.36 -0.01 C57.08 -0.02 66.79 -0.02 76.5 -0.02 C90.27 -0.02 104.03 -0.02 117.8 -0.03 C145.77 -0.04 173.74 -0.04 201.7 -0.04 C204.71 -0.04 207.72 -0.04 210.74 -0.04 C211.48 -0.04 212.23 -0.04 213 -0.04 C229.55 -0.04 246.1 -0.04 262.65 -0.05 C269.47 -0.05 276.28 -0.05 283.09 -0.05 C283.85 -0.05 284.6 -0.05 285.38 -0.05 C328.52 -0.06 371.67 -0.06 414.81 -0.06 C416.43 -0.06 418.04 -0.06 419.65 -0.06 C426.95 -0.06 434.24 -0.06 441.53 -0.06 C444.78 -0.06 448.03 -0.06 451.28 -0.06 C452.91 -0.06 454.54 -0.06 456.17 -0.06 C507.63 -0.06 559.1 -0.07 610.57 -0.08 C623.53 -0.08 636.5 -0.09 649.47 -0.09 C650.27 -0.09 651.07 -0.09 651.89 -0.09 C676.49 -0.1 701.1 -0.1 725.7 -0.1 C726.47 -0.1 727.24 -0.1 728.04 -0.1 C744.99 -0.1 761.95 -0.1 778.9 -0.1 C784.97 -0.1 791.03 -0.1 797.1 -0.1 C798.61 -0.1 800.12 -0.1 801.63 -0.1 C825.68 -0.1 849.74 -0.11 873.8 -0.12 C898.03 -0.12 922.25 -0.13 946.48 -0.12 C961.51 -0.12 976.55 -0.12 991.59 -0.13 C1001.17 -0.13 1010.75 -0.13 1020.34 -0.13 C1025.81 -0.12 1031.27 -0.12 1036.74 -0.13 C1041.71 -0.14 1046.68 -0.13 1051.65 -0.13 C1053.44 -0.12 1055.23 -0.12 1057.02 -0.13 C1078.16 -0.19 1078.16 -0.19 1084.09 4.13 C1090.1 12.13 1092.08 18.95 1091.96 28.89 C1091.97 30.62 1091.97 30.62 1091.98 32.38 C1092 35.56 1091.99 38.74 1091.97 41.92 C1091.96 45.38 1091.97 48.85 1091.98 52.31 C1092 58.38 1091.99 64.45 1091.98 70.52 C1091.95 79.54 1091.96 88.56 1091.97 97.59 C1091.99 113.7 1091.98 129.82 1091.96 145.93 C1091.94 160.04 1091.93 174.14 1091.93 188.24 C1091.93 189.17 1091.93 190.11 1091.93 191.07 C1091.93 194.87 1091.93 198.67 1091.93 202.46 C1091.94 238.08 1091.92 273.69 1091.88 309.31 C1091.85 340.96 1091.84 372.61 1091.84 404.25 C1091.84 406.29 1091.84 408.32 1091.84 410.35 C1091.84 411.36 1091.84 412.36 1091.84 413.4 C1091.84 418.45 1091.84 423.51 1091.85 428.57 C1091.85 430.07 1091.85 430.07 1091.85 431.59 C1091.85 458.03 1091.84 484.47 1091.83 510.91 C1091.83 511.85 1091.82 512.8 1091.82 513.76 C1091.82 515.17 1091.82 515.17 1091.82 516.61 C1091.82 517.55 1091.82 518.48 1091.82 519.45 C1091.82 521.34 1091.82 523.22 1091.82 525.11 C1091.81 538.27 1091.81 551.43 1091.81 564.59 C1091.81 581.55 1091.8 598.51 1091.78 615.46 C1091.77 624.43 1091.76 633.4 1091.77 642.37 C1091.77 648.36 1091.76 654.35 1091.75 660.34 C1091.74 663.76 1091.73 667.17 1091.74 670.58 C1091.75 674.26 1091.74 677.94 1091.72 681.61 C1091.73 683.2 1091.73 683.2 1091.74 684.83 C1091.68 692.49 1090.44 697.94 1086.15 704.44 C1079.38 710.92 1071.47 710.56 1062.61 710.51 C1061.35 710.52 1060.09 710.53 1058.8 710.53 C1055.37 710.54 1051.94 710.54 1048.51 710.53 C1044.91 710.52 1041.31 710.53 1037.71 710.53 C1031.67 710.54 1025.62 710.53 1019.58 710.52 C1012.6 710.5 1005.63 710.51 998.66 710.52 C992.65 710.54 986.65 710.54 980.65 710.53 C977.07 710.53 973.49 710.53 969.91 710.54 C965.92 710.55 961.93 710.53 957.94 710.51 C956.76 710.52 955.59 710.53 954.37 710.53 C945.41 710.46 939.56 708.71 932.34 703.13 C928.22 697.51 928.49 691.84 929.34 685.13 C931.02 680.38 933.61 677.3 937.9 674.69 C972.94 658.76 1014.85 672.13 1053.34 672.13 C1053.34 463.24 1053.34 254.35 1053.34 39.13 C537.06 38.63 537.06 38.63 10.34 38.13 C10.67 247.35 11 456.57 11.34 672.13 C72.74 672.08 134.14 672.03 197.4 671.99 C233.87 671.97 270.34 671.95 306.82 671.93 C328.2 671.93 349.59 671.92 370.97 671.91 C373.56 671.91 376.14 671.91 378.73 671.91 C419.99 671.89 461.24 671.86 502.5 671.82 C544.89 671.78 587.28 671.76 629.67 671.75 C635.66 671.75 641.64 671.75 647.63 671.75 C648.81 671.75 649.98 671.75 651.2 671.75 C670.17 671.74 689.15 671.72 708.13 671.7 C727.2 671.68 746.27 671.67 765.34 671.67 C776.67 671.68 788.01 671.67 799.34 671.64 C806.91 671.63 814.48 671.63 822.05 671.64 C826.36 671.65 830.68 671.64 834.99 671.63 C838.92 671.61 842.84 671.61 846.77 671.63 C848.18 671.63 849.59 671.63 851 671.62 C858.77 671.56 865.7 671.69 872.34 676.13 C876.78 680.51 879.11 685.87 879.34 692.13 C878.39 697.62 876.31 702.16 872.34 706.13 C867.3 709.65 863.32 710.25 857.25 710.25 C855.99 710.26 854.73 710.26 853.43 710.26 C852.03 710.26 850.62 710.26 849.22 710.26 C847.73 710.26 846.24 710.26 844.74 710.26 C840.62 710.27 836.49 710.27 832.36 710.27 C827.88 710.27 823.4 710.27 818.92 710.28 C810.03 710.28 801.13 710.29 792.24 710.29 C781.58 710.29 770.93 710.29 760.28 710.3 C734.54 710.32 708.79 710.32 683.05 710.33 C670.87 710.33 658.7 710.33 646.52 710.34 C604.87 710.35 563.21 710.36 521.56 710.36 C518.94 710.36 516.33 710.36 513.71 710.36 C511.09 710.36 508.47 710.37 505.85 710.37 C500.59 710.37 495.33 710.37 490.06 710.37 C488.76 710.37 487.46 710.37 486.11 710.37 C443.8 710.37 401.5 710.39 359.19 710.41 C314.48 710.43 269.77 710.45 225.07 710.45 C220.16 710.45 215.26 710.45 210.35 710.45 C208.54 710.45 208.54 710.45 206.69 710.45 C187.23 710.45 167.77 710.46 148.31 710.48 C128.76 710.49 109.21 710.49 89.66 710.49 C78.03 710.48 66.41 710.49 54.79 710.5 C47.03 710.51 39.27 710.51 31.52 710.5 C27.09 710.49 22.67 710.49 18.25 710.51 C14.22 710.52 10.2 710.52 6.17 710.5 C4.73 710.5 3.28 710.5 1.83 710.51 C-7.17 710.56 -15.34 710.5 -22.53 704.38 C-23.09 703.93 -23.64 703.48 -24.21 703.02 C-28.63 697.25 -27.94 689.6 -27.92 682.72 C-27.92 681.57 -27.92 680.42 -27.93 679.24 C-27.94 676.05 -27.93 672.86 -27.93 669.67 C-27.93 666.2 -27.93 662.74 -27.94 659.27 C-27.95 653.19 -27.95 647.11 -27.95 641.03 C-27.95 631.99 -27.96 622.95 -27.97 613.91 C-27.99 596.83 -27.99 579.74 -27.99 562.66 C-27.99 549.47 -28 536.28 -28.01 523.09 C-28.01 519.29 -28.01 515.49 -28.01 511.7 C-28.01 510.76 -28.01 509.81 -28.01 508.84 C-28.02 482.3 -28.03 455.75 -28.03 429.21 C-28.03 428.21 -28.03 427.21 -28.03 426.18 C-28.03 421.1 -28.03 416.03 -28.03 410.96 C-28.03 409.95 -28.03 408.94 -28.03 407.9 C-28.03 405.87 -28.03 403.83 -28.03 401.79 C-28.03 370.08 -28.04 338.37 -28.07 306.67 C-28.1 271.05 -28.12 235.44 -28.12 199.82 C-28.12 196.03 -28.12 192.23 -28.12 188.44 C-28.12 187.5 -28.12 186.57 -28.12 185.6 C-28.12 170.55 -28.13 155.5 -28.15 140.44 C-28.16 125.32 -28.17 110.2 -28.15 95.07 C-28.15 86.09 -28.15 77.1 -28.17 68.11 C-28.18 62.11 -28.18 56.11 -28.16 50.11 C-28.16 46.69 -28.15 43.26 -28.17 39.84 C-28.18 36.16 -28.17 32.47 -28.16 28.79 C-28.17 27.73 -28.18 26.67 -28.19 25.57 C-28.11 17.53 -26.4 11.43 -21.22 5.19 C-14.97 0.16 -7.76 -0.03 0 0 Z " fill="#000002" transform="translate(107.65982657670975,104.87350016832352)"/>
<path d="M0 0 C0.8 0 1.61 0 2.44 0 C3.36 -0 4.29 -0.01 5.25 -0.01 C6.27 -0 7.3 0 8.35 0.01 C9.44 0.01 10.52 0 11.64 0 C15.29 -0 18.95 0.01 22.61 0.02 C25.22 0.02 27.83 0.02 30.44 0.02 C36.07 0.02 41.71 0.03 47.34 0.04 C55.49 0.05 63.63 0.06 71.78 0.06 C84.99 0.07 98.21 0.08 111.42 0.1 C124.26 0.12 137.1 0.13 149.94 0.14 C150.73 0.14 151.52 0.14 152.34 0.14 C156.31 0.14 160.28 0.15 164.24 0.15 C197.18 0.17 230.12 0.2 263.05 0.25 C264.24 4.34 265.32 8.3 265.91 12.52 C266.05 13.5 266.2 14.47 266.34 15.48 C266.57 17.04 266.57 17.04 266.8 18.62 C272.21 53.43 283.02 87.48 300.03 118.39 C300.93 120.02 301.8 121.66 302.68 123.3 C308.87 134.91 315.92 145.69 323.75 156.24 C324.56 157.35 324.56 157.35 325.39 158.47 C326.12 159.46 326.12 159.46 326.87 160.46 C328.05 162.25 328.05 162.25 329.05 165.25 C198.37 165.25 67.69 165.25 -66.95 165.25 C-65.82 159.63 -65.82 159.63 -63.43 156.53 C-62.65 155.49 -62.65 155.49 -61.85 154.43 C-61.28 153.69 -60.72 152.95 -60.14 152.19 C-53.02 142.61 -46.86 132.61 -40.95 122.25 C-40.56 121.58 -40.18 120.91 -39.78 120.21 C-20.18 85.77 -6.8 43.74 -4.28 4.17 C-3.8 1.41 -2.79 0.36 0 0 Z " fill="#294B64" transform="translate(508.9475847482681,970.7516030073166)"/>
<path d="M0 0 C1.01 0.3 2.02 0.61 3.06 0.92 C6.41 1.93 9.74 2.95 13.08 3.98 C15.46 4.7 17.85 5.42 20.23 6.14 C25.3 7.67 30.37 9.22 35.44 10.76 C43.33 13.17 51.24 15.56 59.14 17.93 C61.79 18.73 64.45 19.53 67.1 20.33 C67.76 20.53 68.41 20.72 69.09 20.93 C75.76 22.93 82.43 24.95 89.1 26.97 C102.42 30.99 115.75 35 129.09 39 C132.11 39.91 135.13 40.81 138.14 41.72 C147.67 44.58 157.2 47.43 166.75 50.24 C171.39 51.61 176.02 52.99 180.66 54.36 C182.87 55.02 185.08 55.67 187.3 56.32 C190.36 57.21 193.41 58.12 196.46 59.02 C197.36 59.28 198.26 59.54 199.19 59.81 C206.86 62.11 213.31 64.65 217.38 71.89 C219.63 77.3 219.82 82.22 218.39 87.86 C212.76 96.89 205.06 99.75 195.33 103.17 C193.32 103.99 191.32 104.82 189.33 105.67 C184.11 107.87 178.84 109.89 173.53 111.86 C171.08 112.86 168.81 113.92 166.47 115.13 C161.7 117.56 156.75 119.2 151.68 120.88 C148.09 122.1 144.7 123.42 141.33 125.17 C136.62 127.6 131.71 129.21 126.68 130.88 C122.29 132.37 118.22 134.13 114.12 136.33 C111.59 137.51 109.09 137.89 106.33 138.17 C106.17 138.75 106.01 139.33 105.85 139.92 C103.83 146.97 101.21 153.66 98.39 160.42 C97.4 162.83 96.41 165.24 95.41 167.65 C95.16 168.27 94.9 168.89 94.64 169.53 C91.89 176.22 89.2 182.94 86.52 189.67 C86.03 190.89 85.54 192.11 85.03 193.36 C82.53 199.6 80.06 205.85 77.66 212.13 C76.44 215.31 75.21 218.49 73.97 221.66 C73.39 223.18 72.8 224.71 72.23 226.25 C65.08 245.29 65.08 245.29 56.24 250.37 C51.11 252.52 45.71 251.76 40.45 250.45 C36.33 248.57 33.37 246.28 31.36 242.21 C30.42 239.68 29.6 237.14 28.81 234.57 C28.48 233.54 28.16 232.51 27.82 231.46 C26.63 227.7 25.48 223.94 24.33 220.17 C24.1 219.42 23.87 218.68 23.64 217.91 C19.76 205.22 15.95 192.51 12.16 179.79 C10.65 174.72 9.13 169.65 7.61 164.58 C5.23 156.63 2.86 148.68 0.48 140.73 C-2.98 129.14 -6.46 117.55 -9.94 105.96 C-10.79 103.13 -11.64 100.3 -12.48 97.48 C-13.04 95.61 -13.6 93.75 -14.16 91.89 C-14.43 90.97 -14.7 90.06 -14.98 89.12 C-16.82 83.01 -18.66 76.9 -20.51 70.79 C-22.11 65.51 -23.7 60.22 -25.29 54.93 C-26.25 51.73 -27.22 48.53 -28.19 45.33 C-29.26 41.81 -30.32 38.28 -31.38 34.76 C-31.7 33.72 -32.02 32.68 -32.35 31.6 C-35.09 22.41 -37.18 14.11 -32.67 5.17 C-23.87 -5.78 -12.07 -3.78 0 0 Z " fill="#000002" transform="translate(898.671875,459.83203125)"/>
<path d="M0 0 C0.93 -0 1.86 -0 2.82 -0 C5.97 -0.01 9.12 -0 12.27 -0 C14.53 -0 16.8 -0 19.07 -0.01 C25.33 -0.01 31.59 -0.01 37.85 -0 C43.9 -0 49.96 -0.01 56.01 -0.01 C69.17 -0.01 82.33 -0.01 95.5 -0.01 C107.05 -0.01 118.61 -0.01 130.16 -0.01 C130.93 -0.01 131.69 -0.01 132.48 -0.01 C135.6 -0.01 138.71 -0.01 141.82 -0.01 C171.08 -0.01 200.34 -0.01 229.59 -0 C255.47 0 281.35 0 307.23 -0 C336.36 -0.01 365.48 -0.01 394.6 -0.01 C397.73 -0.01 400.85 -0.01 403.98 -0.01 C404.74 -0.01 405.51 -0.01 406.31 -0.01 C417.8 -0.01 429.3 -0.01 440.8 -0.01 C453.94 -0.01 467.09 -0.01 480.23 -0.01 C486.91 -0 493.6 -0 500.28 -0.01 C527.41 -0.02 554.53 0.12 581.66 0.57 C583.51 0.6 583.51 0.6 585.4 0.63 C588.85 0.69 592.31 0.75 595.76 0.81 C596.79 0.83 597.82 0.85 598.89 0.86 C599.82 0.88 600.76 0.9 601.73 0.92 C602.54 0.94 603.36 0.95 604.2 0.97 C606.18 1.13 606.18 1.13 608.18 2.13 C608.2 7.95 608.22 13.77 608.24 19.59 C608.24 21.57 608.25 23.55 608.26 25.53 C608.27 28.38 608.27 31.22 608.28 34.06 C608.28 34.95 608.29 35.84 608.29 36.76 C608.29 38.88 608.24 41 608.18 43.13 C606.29 45.02 602.99 44.26 600.48 44.27 C599.78 44.27 599.07 44.27 598.35 44.28 C596.82 44.29 595.3 44.29 593.77 44.29 C591.35 44.3 588.93 44.32 586.5 44.34 C579.62 44.39 572.73 44.44 565.84 44.45 C561.63 44.46 557.42 44.49 553.21 44.53 C551.61 44.55 550.01 44.55 548.41 44.55 C546.16 44.55 543.91 44.57 541.66 44.6 C540.38 44.6 539.1 44.61 537.79 44.61 C532.46 45.37 528.82 47.54 524.93 51.31 C523.34 53.87 522.48 55.96 521.57 58.8 C521.31 59.61 521.05 60.42 520.77 61.26 C520.58 61.87 520.38 62.49 520.18 63.13 C513.38 63.15 506.58 63.17 499.78 63.18 C497.47 63.19 495.15 63.19 492.84 63.2 C489.52 63.21 486.2 63.22 482.88 63.22 C481.32 63.23 481.32 63.23 479.73 63.24 C478.76 63.24 477.8 63.24 476.81 63.24 C475.54 63.24 475.54 63.24 474.24 63.25 C472.18 63.13 472.18 63.13 470.18 62.13 C469.54 60.31 469.54 60.31 468.93 58 C467.41 53.17 465.13 49.37 461.18 46.13 C457.38 44.78 453.44 44.98 449.45 44.99 C448.27 44.99 448.27 44.99 447.07 44.99 C444.42 44.98 441.76 44.98 439.11 44.98 C437.2 44.98 435.28 44.97 433.37 44.97 C428.09 44.96 422.82 44.96 417.55 44.95 C411.86 44.95 406.18 44.94 400.5 44.93 C390.65 44.92 380.8 44.91 370.95 44.9 C356.7 44.88 342.46 44.86 328.21 44.84 C321.58 44.83 314.94 44.82 308.31 44.81 C307.64 44.8 306.98 44.8 306.29 44.8 C290.48 44.78 274.67 44.75 258.86 44.73 C258.16 44.73 257.47 44.73 256.76 44.73 C240.61 44.71 224.46 44.69 208.31 44.67 C207.62 44.67 206.93 44.67 206.21 44.67 C202.71 44.66 199.2 44.66 195.7 44.65 C194.66 44.65 194.66 44.65 193.6 44.65 C192.2 44.65 190.81 44.65 189.41 44.65 C165.68 44.62 141.95 44.58 118.23 44.54 C104.01 44.52 89.79 44.5 75.58 44.49 C65.84 44.48 56.11 44.47 46.37 44.45 C40.75 44.44 35.13 44.43 29.51 44.43 C24.36 44.43 19.22 44.42 14.08 44.4 C12.21 44.4 10.35 44.4 8.48 44.4 C5.96 44.41 3.43 44.4 0.91 44.38 C0.17 44.39 -0.56 44.39 -1.31 44.4 C-5.29 44.36 -7.14 43.97 -10.82 42.13 C-10.82 28.6 -10.82 15.07 -10.82 1.13 C-7.47 -0.55 -3.69 -0.01 0 0 Z " fill="#467DA5" transform="translate(340.81978034973145,1172.874158859253)"/>
<path d="M0 0 C10.32 -0.54 19.11 0.16 27.31 6.94 C33.65 13.1 38.7 21.64 39.13 30.64 C39.13 31.66 39.13 32.67 39.13 33.72 C39.13 34.9 39.13 36.07 39.13 37.28 C39.13 38.58 39.13 39.88 39.13 41.21 C39.13 42.6 39.13 44 39.13 45.39 C39.14 49.24 39.14 53.09 39.13 56.94 C39.13 61.12 39.14 65.31 39.14 69.49 C39.15 76.82 39.15 84.16 39.15 91.49 C39.14 102.4 39.15 113.31 39.15 124.22 C39.16 144.83 39.17 165.45 39.17 186.06 C39.17 201.98 39.17 217.89 39.17 233.81 C39.17 238.39 39.17 242.96 39.18 247.54 C39.18 248.68 39.18 249.82 39.18 250.99 C39.18 283.01 39.19 315.02 39.19 347.04 C39.19 348.25 39.19 349.46 39.19 350.7 C39.19 356.82 39.19 362.95 39.19 369.07 C39.19 370.28 39.19 371.5 39.19 372.75 C39.19 375.21 39.19 377.67 39.19 380.13 C39.18 418.39 39.19 456.65 39.21 494.91 C39.22 537.87 39.23 580.83 39.23 623.78 C39.23 628.36 39.23 632.94 39.23 637.52 C39.23 638.65 39.23 639.78 39.23 640.94 C39.23 659.1 39.24 677.26 39.24 695.43 C39.25 713.68 39.25 731.92 39.25 750.17 C39.24 761.02 39.24 771.87 39.25 782.71 C39.26 789.95 39.26 797.2 39.25 804.44 C39.25 808.57 39.25 812.69 39.26 816.82 C39.26 820.58 39.26 824.34 39.25 828.09 C39.25 830.08 39.26 832.07 39.26 834.05 C39.23 843.21 38.96 851.27 33.19 858.81 C32.19 860.15 32.19 860.15 31.17 861.52 C27.91 865.25 24.65 868.07 19.94 869.69 C19.29 869.92 18.64 870.15 17.96 870.39 C16.99 870.69 16.99 870.69 16 871 C15.1 871.29 15.1 871.29 14.18 871.58 C11.18 872.16 8.3 872.09 5.25 872.06 C4.08 872.05 2.91 872.04 1.7 872.04 C0.81 872.02 -0.08 872.01 -1 872 C0.19 868.82 1.48 866.14 3.44 863.38 C9.19 854.25 9.44 844.33 9.38 833.83 C9.38 832.42 9.39 831 9.39 829.59 C9.41 825.72 9.4 821.85 9.39 817.98 C9.38 813.77 9.4 809.55 9.4 805.34 C9.42 797.95 9.42 790.57 9.41 783.18 C9.4 772.2 9.41 761.22 9.42 750.24 C9.44 730.63 9.44 711.02 9.44 691.41 C9.43 674.24 9.43 657.08 9.44 639.92 C9.44 637.61 9.44 635.31 9.44 633.01 C9.44 629.54 9.44 626.07 9.45 622.6 C9.46 590.35 9.46 558.1 9.45 525.85 C9.45 524.64 9.45 523.42 9.45 522.17 C9.45 512.29 9.45 502.42 9.45 492.55 C9.43 454.03 9.44 415.52 9.47 377 C9.49 333.73 9.51 290.46 9.5 247.19 C9.5 242.58 9.5 237.96 9.5 233.35 C9.5 232.22 9.5 231.08 9.5 229.91 C9.49 212.76 9.5 195.61 9.51 178.45 C9.53 158.95 9.53 139.45 9.51 119.94 C9.5 109.03 9.5 98.11 9.52 87.2 C9.53 79.91 9.53 72.61 9.51 65.32 C9.5 61.17 9.5 57.01 9.52 52.86 C9.53 49.08 9.53 45.29 9.51 41.51 C9.5 39.52 9.51 37.52 9.53 35.53 C9.43 23.74 6.12 13.54 1 3 C1.33 2.67 1.66 2.34 2 2 C1.34 1.34 0.68 0.68 0 0 Z " fill="#75D1F9" transform="translate(1203,62)"/>
<path d="M0 0 C1.05 -0.01 2.09 -0.01 3.17 -0.02 C4.31 -0.02 5.45 -0.03 6.63 -0.03 C8.44 -0.04 8.44 -0.04 10.29 -0.05 C14.28 -0.07 18.28 -0.08 22.28 -0.09 C23.66 -0.1 25.04 -0.1 26.42 -0.1 C32.9 -0.12 39.38 -0.14 45.86 -0.15 C53.33 -0.15 60.8 -0.18 68.27 -0.22 C74.05 -0.25 79.83 -0.27 85.61 -0.27 C89.06 -0.27 92.51 -0.28 95.95 -0.31 C99.81 -0.33 103.66 -0.33 107.51 -0.32 C108.64 -0.34 109.78 -0.35 110.94 -0.36 C117.7 -0.32 122.07 0.54 127.83 4.15 C129.67 6.15 129.67 6.15 130.76 8.15 C131.34 9.14 131.34 9.14 131.92 10.15 C133.51 13.65 133.95 16.82 133.97 20.64 C133.97 21.54 133.98 22.43 133.99 23.36 C133.99 24.82 133.99 24.82 133.99 26.31 C133.99 27.35 134 28.38 134 29.44 C134.02 32.86 134.02 36.28 134.03 39.7 C134.04 42.07 134.04 44.45 134.05 46.83 C134.06 51.81 134.06 56.8 134.07 61.78 C134.07 68.16 134.1 74.54 134.13 80.93 C134.14 85.84 134.15 90.75 134.15 95.66 C134.15 98.01 134.16 100.36 134.18 102.71 C134.19 106.01 134.19 109.3 134.18 112.59 C134.19 113.56 134.2 114.53 134.21 115.53 C134.17 122.56 133.16 127.38 128.51 132.9 C121.83 138.5 116.13 138.59 107.72 138.57 C106.51 138.58 105.29 138.58 104.04 138.59 C100.72 138.61 97.39 138.62 94.07 138.62 C91.29 138.62 88.51 138.62 85.73 138.63 C79.17 138.65 72.6 138.65 66.04 138.65 C59.28 138.64 52.53 138.66 45.77 138.7 C39.96 138.73 34.14 138.74 28.33 138.74 C24.86 138.74 21.4 138.74 17.93 138.77 C14.06 138.79 10.19 138.78 6.32 138.76 C5.18 138.78 4.05 138.79 2.88 138.8 C-4.24 138.73 -9.47 137.56 -15.17 133.15 C-19.02 128.44 -20.29 124.64 -20.32 118.67 C-20.33 117.78 -20.33 116.89 -20.34 115.97 C-20.35 114.51 -20.35 114.51 -20.35 113.03 C-20.36 112 -20.36 110.97 -20.37 109.91 C-20.39 106.51 -20.4 103.11 -20.41 99.7 C-20.42 98.54 -20.42 97.37 -20.42 96.17 C-20.44 90.01 -20.46 83.84 -20.47 77.68 C-20.48 71.32 -20.51 64.97 -20.55 58.61 C-20.58 53.72 -20.59 48.82 -20.59 43.92 C-20.6 41.58 -20.61 39.24 -20.63 36.9 C-20.65 33.61 -20.65 30.33 -20.64 27.04 C-20.66 26.08 -20.67 25.12 -20.68 24.14 C-20.63 17.58 -19.45 11.9 -16.17 6.15 C-11.31 1.38 -6.72 0.03 0 0 Z " fill="#000002" transform="translate(181.17266845703125,572.8528289794922)"/>
<path d="M0 0 C1.56 -0.01 1.56 -0.01 3.16 -0.02 C4.29 -0.01 5.42 -0.01 6.59 -0 C7.79 -0.01 8.99 -0.01 10.22 -0.02 C13.51 -0.02 16.79 -0.02 20.08 -0.01 C23.52 -0.01 26.97 -0.01 30.41 -0.02 C36.19 -0.02 41.98 -0.02 47.76 -0.01 C54.44 0 61.11 0 67.79 -0.01 C73.53 -0.02 79.27 -0.02 85.01 -0.02 C88.44 -0.01 91.86 -0.01 95.29 -0.02 C99.11 -0.02 102.93 -0.02 106.75 -0 C107.88 -0.01 109.01 -0.01 110.17 -0.02 C121.69 0.05 121.69 0.05 126.79 3.75 C132.49 11.11 134.47 17.9 134.35 27.1 C134.35 28.13 134.36 29.17 134.36 30.23 C134.38 33.62 134.35 37 134.33 40.39 C134.32 42.76 134.32 45.13 134.33 47.49 C134.32 52.44 134.31 57.39 134.27 62.34 C134.23 68.67 134.23 75.01 134.24 81.34 C134.24 86.23 134.23 91.11 134.21 96 C134.2 98.33 134.2 100.67 134.2 103 C134.2 106.27 134.18 109.53 134.15 112.8 C134.15 113.76 134.16 114.72 134.16 115.7 C134.07 122.7 133.06 127.56 128.36 133 C124.1 136.65 121.02 138.62 115.33 138.66 C114.26 138.67 113.19 138.68 112.09 138.69 C110.92 138.69 109.76 138.69 108.56 138.69 C107.32 138.7 106.09 138.71 104.82 138.72 C101.43 138.74 98.05 138.75 94.67 138.76 C92.56 138.76 90.44 138.76 88.33 138.77 C80.94 138.8 73.55 138.81 66.16 138.81 C59.29 138.81 52.42 138.84 45.55 138.89 C39.63 138.93 33.72 138.94 27.81 138.94 C24.29 138.94 20.76 138.95 17.24 138.98 C13.3 139.01 9.36 139 5.42 138.98 C4.27 139 3.11 139.02 1.92 139.03 C-5.67 138.95 -10.57 137.37 -16.27 132.25 C-19.51 127.99 -20.39 124.04 -20.41 118.76 C-20.41 117.87 -20.42 116.98 -20.43 116.05 C-20.43 115.08 -20.43 114.11 -20.43 113.1 C-20.43 112.07 -20.44 111.04 -20.44 109.98 C-20.46 106.57 -20.47 103.15 -20.47 99.74 C-20.48 97.36 -20.48 94.99 -20.49 92.62 C-20.5 87.64 -20.51 82.66 -20.51 77.68 C-20.51 71.3 -20.54 64.93 -20.57 58.56 C-20.59 53.65 -20.59 48.75 -20.59 43.84 C-20.6 41.49 -20.6 39.14 -20.62 36.79 C-20.63 33.5 -20.63 30.21 -20.62 26.92 C-20.63 25.96 -20.64 24.99 -20.65 24 C-20.61 17.44 -19.91 11.5 -15.62 6.23 C-15.05 5.78 -14.48 5.34 -13.89 4.88 C-13.33 4.42 -12.76 3.96 -12.18 3.48 C-8.21 0.93 -4.7 0 0 0 Z " fill="#000002" transform="translate(181.26841735839844,390.74603271484375)"/>
<path d="M0 0 C1.19 -0.01 2.38 -0.01 3.6 -0.02 C6.85 -0.03 10.09 -0.02 13.33 -0.01 C16.73 -0.01 20.14 -0.01 23.54 -0.02 C29.26 -0.02 34.97 -0.02 40.68 -0 C47.27 0.01 53.87 0.01 60.46 -0.01 C66.14 -0.02 71.81 -0.02 77.49 -0.02 C80.87 -0.01 84.25 -0.01 87.64 -0.02 C91.41 -0.03 95.18 -0.02 98.95 0 C100.62 -0.01 100.62 -0.01 102.32 -0.02 C109.07 0.04 114.76 0.33 119.84 5.26 C120.3 5.92 120.75 6.58 121.22 7.26 C121.69 7.92 122.17 8.58 122.65 9.26 C126.1 15.09 126.2 20.01 126.19 26.65 C126.19 27.68 126.2 28.71 126.2 29.78 C126.22 33.19 126.21 36.59 126.21 40 C126.22 42.37 126.22 44.75 126.23 47.12 C126.23 52.09 126.23 57.07 126.23 62.04 C126.22 68.41 126.24 74.77 126.26 81.14 C126.28 86.04 126.28 90.94 126.27 95.84 C126.27 98.19 126.28 100.53 126.29 102.88 C126.3 106.17 126.3 109.45 126.28 112.74 C126.29 113.7 126.3 114.66 126.31 115.66 C126.26 121.78 125.9 128.18 121.5 132.91 C117.29 136.5 114.24 138.63 108.71 138.67 C107.1 138.69 107.1 138.69 105.45 138.7 C104.27 138.71 103.09 138.71 101.87 138.71 C100.63 138.72 99.38 138.73 98.1 138.74 C94.69 138.76 91.27 138.78 87.86 138.79 C85.72 138.79 83.58 138.8 81.45 138.81 C74.76 138.84 68.06 138.86 61.37 138.87 C53.66 138.87 45.95 138.91 38.24 138.97 C32.28 139.01 26.31 139.03 20.34 139.03 C16.78 139.04 13.22 139.05 9.66 139.08 C5.68 139.12 1.71 139.11 -2.27 139.1 C-3.44 139.12 -4.61 139.14 -5.82 139.16 C-13.44 139.08 -18.37 137.54 -24.09 132.39 C-27.32 128.15 -28.21 124.2 -28.23 118.94 C-28.23 118.06 -28.24 117.17 -28.25 116.26 C-28.25 115.3 -28.25 114.34 -28.25 113.35 C-28.25 112.33 -28.26 111.31 -28.26 110.26 C-28.28 106.88 -28.29 103.5 -28.29 100.13 C-28.3 97.78 -28.3 95.43 -28.31 93.08 C-28.32 88.15 -28.32 83.22 -28.33 78.29 C-28.33 71.99 -28.36 65.69 -28.39 59.38 C-28.41 54.53 -28.41 49.67 -28.41 44.82 C-28.41 42.49 -28.42 40.17 -28.44 37.85 C-28.45 34.59 -28.45 31.33 -28.44 28.08 C-28.45 27.12 -28.46 26.17 -28.47 25.19 C-28.43 17.9 -27.4 11.42 -22.9 5.51 C-15.72 0.09 -8.67 -0.05 0 0 Z " fill="#000002" transform="translate(189.088134765625,208.61181640625)"/>
<path d="M0 0 C1.69 -0.01 1.69 -0.01 3.42 -0.02 C5.27 -0.01 5.27 -0.01 7.15 -0.01 C8.47 -0.01 9.78 -0.01 11.14 -0.02 C14.78 -0.03 18.42 -0.03 22.07 -0.02 C26 -0.02 29.93 -0.03 33.87 -0.04 C41.57 -0.05 49.27 -0.05 56.97 -0.05 C63.23 -0.05 69.49 -0.05 75.75 -0.05 C76.64 -0.05 77.53 -0.05 78.45 -0.05 C80.26 -0.06 82.07 -0.06 83.88 -0.06 C100.85 -0.07 117.82 -0.07 134.8 -0.06 C150.32 -0.05 165.85 -0.07 181.38 -0.09 C197.32 -0.1 213.27 -0.11 229.21 -0.11 C238.16 -0.11 247.11 -0.11 256.06 -0.12 C263.68 -0.14 271.3 -0.14 278.92 -0.13 C282.81 -0.12 286.7 -0.12 290.58 -0.13 C294.8 -0.14 299.01 -0.13 303.23 -0.12 C305.07 -0.13 305.07 -0.13 306.95 -0.14 C313.14 -0.1 317.83 0.14 323.25 3.25 C325.21 5.41 325.21 5.41 326.63 7.75 C327.35 8.91 327.35 8.91 328.09 10.1 C330.41 14.39 330.86 18.46 330.25 23.25 C328.35 29.16 325.27 32.73 320.25 36.25 C317.17 37.28 315.07 37.38 311.85 37.39 C310.72 37.4 309.59 37.4 308.43 37.41 C306.56 37.41 306.56 37.41 304.65 37.41 C303.33 37.41 302.01 37.42 300.65 37.42 C296.98 37.43 293.31 37.44 289.64 37.44 C285.69 37.45 281.73 37.46 277.78 37.47 C268.22 37.5 258.67 37.51 249.11 37.52 C246.41 37.53 243.71 37.53 241.01 37.54 C224.26 37.56 207.5 37.58 190.74 37.6 C186.86 37.6 182.97 37.6 179.09 37.6 C178.13 37.61 177.16 37.61 176.17 37.61 C160.54 37.62 144.91 37.65 129.28 37.69 C113.23 37.74 97.19 37.76 81.14 37.77 C72.13 37.77 63.13 37.78 54.12 37.81 C46.44 37.84 38.77 37.85 31.1 37.84 C27.18 37.84 23.27 37.84 19.35 37.86 C15.77 37.89 12.18 37.89 8.6 37.87 C6.69 37.86 4.79 37.88 2.88 37.9 C-4.38 37.84 -10 36.95 -15.75 32.25 C-19.55 27.66 -20.87 22.92 -20.67 16.95 C-19.69 10.79 -16.62 6.13 -11.75 2.25 C-7.71 0.67 -4.32 0 0 0 Z " fill="#000002" transform="translate(398.74752712249756,491.7455244064331)"/>
<path d="M0 0 C1.7 -0.01 1.7 -0.01 3.43 -0.02 C4.67 -0.01 5.9 -0.01 7.18 -0.01 C8.5 -0.01 9.82 -0.01 11.18 -0.02 C14.84 -0.03 18.5 -0.03 22.16 -0.02 C26.1 -0.02 30.05 -0.03 34 -0.04 C41.73 -0.05 49.47 -0.05 57.2 -0.05 C63.48 -0.05 69.77 -0.05 76.05 -0.05 C76.95 -0.05 77.84 -0.05 78.76 -0.05 C80.58 -0.06 82.39 -0.06 84.21 -0.06 C101.25 -0.07 118.28 -0.07 135.32 -0.06 C150.91 -0.05 166.5 -0.07 182.09 -0.09 C198.09 -0.1 214.09 -0.11 230.1 -0.11 C239.08 -0.11 248.07 -0.11 257.06 -0.12 C264.71 -0.14 272.36 -0.14 280.01 -0.13 C283.91 -0.12 287.81 -0.12 291.72 -0.13 C295.29 -0.14 298.86 -0.14 302.44 -0.12 C304.34 -0.12 306.25 -0.13 308.15 -0.14 C318.56 -0.08 318.56 -0.08 323.36 3.25 C327.83 7.85 330.09 12.83 330.79 19.19 C330.52 24.71 328.63 29.1 324.61 32.92 C317.91 37.85 312.2 38.1 304.07 38 C302.73 38.01 301.4 38.02 300.06 38.03 C296.42 38.05 292.77 38.03 289.12 38.01 C285.18 37.99 281.24 38.01 277.3 38.02 C269.59 38.04 261.88 38.03 254.16 38 C245.18 37.98 236.2 37.98 227.21 37.98 C211.18 37.99 195.15 37.97 179.12 37.93 C163.57 37.89 148.02 37.87 132.47 37.89 C115.52 37.9 98.58 37.9 81.64 37.87 C79.83 37.87 78.03 37.87 76.22 37.87 C75.33 37.87 74.44 37.87 73.53 37.86 C67.27 37.86 61.01 37.86 54.75 37.86 C47.12 37.87 39.49 37.85 31.86 37.83 C27.96 37.81 24.07 37.8 20.18 37.81 C15.96 37.82 11.74 37.8 7.52 37.78 C5.68 37.79 5.68 37.79 3.8 37.8 C-4.73 37.71 -10.07 36.45 -16.58 30.63 C-20.6 26 -19.97 21.64 -19.92 15.68 C-19.47 10.09 -17.18 7.67 -13.21 4 C-8.84 1.02 -5.27 0 0 0 Z " fill="#000002" transform="translate(398.64288997650146,673.7455244064331)"/>
<path d="M0 0 C1.96 -0.01 1.96 -0.01 3.97 -0.01 C7.58 -0.03 11.2 -0.02 14.82 -0.01 C18.72 -0 22.63 -0.01 26.54 -0.02 C34.18 -0.04 41.83 -0.03 49.48 -0.02 C55.69 -0.02 61.91 -0.02 68.12 -0.02 C69.01 -0.02 69.89 -0.02 70.8 -0.02 C72.6 -0.02 74.4 -0.02 76.2 -0.02 C93.05 -0.03 109.9 -0.02 126.76 -0.01 C141.21 0.01 155.67 0 170.13 -0.01 C186.92 -0.03 203.72 -0.03 220.51 -0.02 C222.3 -0.02 224.09 -0.02 225.89 -0.02 C227.21 -0.02 227.21 -0.02 228.56 -0.02 C234.76 -0.02 240.97 -0.02 247.18 -0.03 C254.74 -0.04 262.31 -0.03 269.87 -0.02 C273.73 -0.01 277.59 -0.01 281.45 -0.02 C285.63 -0.03 289.82 -0.01 294 0 C295.22 -0.01 296.44 -0.01 297.69 -0.02 C304.72 0.03 310.32 0.28 315.86 5.03 C320.08 10.28 322.46 14.25 322.25 21.26 C321.46 26.61 318.89 30.84 314.81 34.32 C310.97 37.08 309.29 37.51 304.62 37.52 C303.49 37.53 302.36 37.53 301.19 37.54 C299.93 37.54 298.68 37.54 297.38 37.54 C296.04 37.55 294.7 37.55 293.36 37.56 C289.67 37.57 285.97 37.58 282.28 37.58 C279.11 37.59 275.94 37.6 272.78 37.61 C262.34 37.64 251.91 37.67 241.47 37.68 C238.76 37.69 236.04 37.69 233.32 37.7 C216.46 37.73 199.59 37.76 182.72 37.77 C178.81 37.78 174.91 37.78 171 37.79 C169.54 37.79 169.54 37.79 168.05 37.79 C152.32 37.81 136.59 37.85 120.85 37.9 C104.71 37.95 88.56 37.98 72.41 37.99 C63.34 37.99 54.27 38.01 45.2 38.05 C37.48 38.08 29.75 38.09 22.03 38.08 C18.09 38.08 14.15 38.08 10.21 38.11 C6.6 38.14 2.99 38.14 -0.62 38.11 C-2.54 38.11 -4.46 38.13 -6.38 38.16 C-14.2 38.07 -19.18 36.65 -25.06 31.38 C-28.55 27.35 -29.2 22.6 -29.06 17.38 C-27.91 11.73 -25.23 7.36 -21.06 3.38 C-14.07 -0.04 -7.69 -0.04 0 0 Z " fill="#000002" transform="translate(407.06336975097656,309.6190490722656)"/>
<path d="M0 0 C0.93 -0 1.85 -0.01 2.8 -0.01 C4.32 -0.01 4.32 -0.01 5.86 -0.01 C6.94 -0.01 8.01 -0.01 9.12 -0.02 C12.74 -0.03 16.36 -0.03 19.97 -0.03 C22.56 -0.03 25.15 -0.04 27.74 -0.04 C34.78 -0.06 41.83 -0.06 48.87 -0.07 C53.26 -0.07 57.66 -0.08 62.06 -0.08 C74.24 -0.09 86.42 -0.1 98.59 -0.11 C99.76 -0.11 99.76 -0.11 100.95 -0.11 C101.73 -0.11 102.52 -0.11 103.32 -0.11 C104.9 -0.11 106.48 -0.11 108.07 -0.11 C109.24 -0.11 109.24 -0.11 110.45 -0.11 C123.17 -0.11 135.89 -0.13 148.61 -0.15 C161.67 -0.18 174.74 -0.19 187.8 -0.19 C195.14 -0.19 202.47 -0.2 209.8 -0.22 C216.7 -0.23 223.59 -0.23 230.49 -0.23 C233.02 -0.23 235.56 -0.23 238.09 -0.24 C241.54 -0.25 245 -0.25 248.45 -0.24 C249.45 -0.24 250.46 -0.25 251.49 -0.26 C257.94 -0.21 263.36 0.3 268.21 5 C272.41 11.08 275.06 15.48 274.28 23.13 C272.26 29.72 268.23 33.78 262.28 37.13 C259.37 38.02 256.76 38.26 253.72 38.26 C252.35 38.27 252.35 38.27 250.94 38.27 C249.94 38.27 248.94 38.27 247.91 38.27 C246.31 38.28 246.31 38.28 244.67 38.28 C241.08 38.29 237.49 38.29 233.9 38.29 C231.33 38.3 228.77 38.3 226.2 38.31 C219.21 38.32 212.22 38.33 205.23 38.33 C200.87 38.33 196.51 38.34 192.14 38.34 C180.06 38.36 167.97 38.37 155.89 38.37 C155.11 38.37 154.34 38.37 153.54 38.37 C152.77 38.37 151.99 38.37 151.19 38.37 C149.62 38.37 148.05 38.37 146.48 38.37 C145.31 38.37 145.31 38.37 144.12 38.37 C131.5 38.38 118.87 38.39 106.25 38.42 C93.29 38.44 80.32 38.45 67.36 38.45 C60.08 38.46 52.8 38.46 45.53 38.48 C38.68 38.5 31.84 38.5 24.99 38.49 C22.48 38.49 19.97 38.49 17.45 38.5 C14.02 38.52 10.59 38.51 7.16 38.5 C6.17 38.51 5.18 38.52 4.15 38.52 C-4.17 38.46 -11.18 36.61 -17.72 31.13 C-21 25.66 -21.59 20.44 -20.72 14.13 C-19.1 8.61 -16.3 5.26 -11.6 2.04 C-7.91 0.25 -4.05 0.01 0 0 Z " fill="#000002" transform="translate(545.718671798706,208.86857223510742)"/>
<path d="M0 0 C0.93 -0 1.86 -0.01 2.81 -0.01 C4.33 -0.01 4.33 -0.01 5.88 -0.01 C6.96 -0.01 8.04 -0.01 9.16 -0.02 C12.79 -0.03 16.42 -0.03 20.05 -0.03 C22.65 -0.03 25.25 -0.04 27.85 -0.04 C34.92 -0.06 41.99 -0.06 49.05 -0.07 C53.47 -0.07 57.88 -0.08 62.3 -0.08 C74.52 -0.09 86.74 -0.1 98.97 -0.11 C100.14 -0.11 100.14 -0.11 101.34 -0.11 C102.51 -0.11 102.51 -0.11 103.71 -0.11 C105.3 -0.11 106.89 -0.11 108.48 -0.11 C109.27 -0.11 110.05 -0.11 110.87 -0.11 C123.64 -0.11 136.41 -0.13 149.17 -0.15 C162.29 -0.18 175.4 -0.19 188.52 -0.19 C195.88 -0.19 203.24 -0.2 210.6 -0.22 C217.52 -0.23 224.45 -0.23 231.37 -0.23 C233.91 -0.23 236.45 -0.23 238.99 -0.24 C242.46 -0.25 245.93 -0.25 249.4 -0.24 C250.4 -0.24 251.41 -0.25 252.45 -0.26 C258.71 -0.22 264.2 0.23 268.97 4.74 C272.85 10.7 275.02 15.86 274.27 23.13 C272.33 28.89 269.44 32.81 264.27 36.13 C257.79 38.28 251.25 38.42 244.49 38.39 C242.91 38.4 242.91 38.4 241.3 38.4 C237.8 38.41 234.3 38.41 230.8 38.41 C228.28 38.41 225.76 38.42 223.24 38.42 C217.12 38.43 211 38.44 204.88 38.43 C199.9 38.43 194.93 38.43 189.95 38.44 C188.89 38.44 188.89 38.44 187.8 38.44 C186.36 38.44 184.92 38.44 183.48 38.44 C169.98 38.45 156.47 38.45 142.97 38.45 C130.63 38.44 118.29 38.45 105.95 38.47 C93.26 38.49 80.57 38.5 67.89 38.5 C60.77 38.49 53.65 38.5 46.54 38.51 C39.85 38.52 33.16 38.52 26.46 38.51 C24.01 38.5 21.56 38.51 19.1 38.52 C15.75 38.53 12.4 38.52 9.04 38.51 C7.59 38.52 7.59 38.52 6.11 38.53 C-2.47 38.46 -9.95 36.62 -16.73 31.13 C-20.7 25.39 -21.44 21.04 -20.73 14.13 C-19.15 8.61 -16.3 5.25 -11.61 2.04 C-7.92 0.25 -4.06 0.01 0 0 Z " fill="#000002" transform="translate(545.7342891693115,390.8685722351074)"/>
<path d="M0 0 C0.93 -0 1.86 -0.01 2.82 -0.01 C4.36 -0.01 4.36 -0.01 5.93 -0.01 C7.56 -0.02 7.56 -0.02 9.22 -0.02 C12.88 -0.04 16.54 -0.04 20.21 -0.04 C22.82 -0.05 25.44 -0.06 28.06 -0.06 C35.93 -0.08 43.8 -0.09 51.67 -0.1 C55.38 -0.11 59.08 -0.11 62.79 -0.12 C75.11 -0.13 87.43 -0.15 99.75 -0.16 C102.95 -0.16 106.15 -0.16 109.34 -0.16 C110.54 -0.16 110.54 -0.16 111.75 -0.16 C124.63 -0.17 137.5 -0.2 150.37 -0.23 C163.59 -0.26 176.8 -0.28 190.02 -0.28 C197.44 -0.28 204.86 -0.29 212.28 -0.32 C219.26 -0.34 226.24 -0.35 233.22 -0.34 C235.79 -0.34 238.35 -0.34 240.91 -0.36 C244.41 -0.37 247.91 -0.37 251.41 -0.35 C252.42 -0.36 253.43 -0.38 254.48 -0.39 C261.46 -0.32 267.19 0.93 272.32 5.92 C275.46 11.18 276.8 15.98 276.48 22.13 C274.81 28.7 270.73 32.19 265.48 36.13 C263.12 37.31 261.71 37.26 259.08 37.27 C258.15 37.28 257.22 37.29 256.26 37.29 C255.23 37.29 254.2 37.29 253.14 37.29 C252.05 37.3 250.96 37.31 249.84 37.31 C246.16 37.33 242.49 37.33 238.81 37.34 C236.19 37.35 233.56 37.36 230.94 37.37 C223.04 37.4 215.15 37.42 207.25 37.44 C205.02 37.44 202.79 37.45 200.56 37.45 C186.71 37.48 172.86 37.51 159.01 37.53 C155.8 37.53 152.59 37.54 149.38 37.54 C148.18 37.54 148.18 37.54 146.96 37.54 C134.05 37.56 121.14 37.6 108.22 37.65 C94.96 37.7 81.7 37.73 68.44 37.74 C61 37.74 53.56 37.76 46.11 37.8 C39.77 37.83 33.43 37.85 27.09 37.83 C23.85 37.83 20.62 37.84 17.39 37.86 C13.87 37.89 10.36 37.88 6.85 37.86 C5.83 37.88 4.82 37.9 3.78 37.91 C-3.47 37.82 -8.94 35.89 -14.52 31.13 C-18.56 25.06 -19.38 20.41 -18.52 13.13 C-16.34 7.46 -12.86 4.04 -7.52 1.13 C-4.68 0.19 -2.94 0.01 0 0 Z " fill="#000002" transform="translate(543.5166349411011,572.8657789230347)"/>
<path d="M0 0 C5.38 0.56 10.36 1.51 15.53 3.13 C16.59 3.45 16.59 3.45 17.67 3.78 C20 4.49 22.33 5.21 24.66 5.93 C26.31 6.43 27.96 6.94 29.61 7.44 C34.01 8.78 38.4 10.13 42.79 11.48 C47.3 12.87 51.82 14.25 56.33 15.63 C57.67 16.04 57.67 16.04 59.03 16.45 C60.81 17 62.6 17.55 64.39 18.09 C67.04 18.9 69.7 19.72 72.35 20.53 C81.88 23.45 91.42 26.34 100.98 29.16 C101.94 29.44 102.91 29.73 103.9 30.02 C108.08 31.25 112.25 32.48 116.43 33.69 C117.83 34.1 119.24 34.51 120.64 34.93 C121.79 35.26 122.94 35.59 124.13 35.94 C126.9 36.96 128.77 38.09 131 40 C127.19 41.57 123.38 43.13 119.56 44.69 C118.38 45.17 117.19 45.66 115.97 46.16 C109.02 49 102.05 51.77 95.04 54.45 C93.54 55.03 92.04 55.6 90.54 56.18 C88.35 57.03 86.15 57.87 83.94 58.69 C81.88 59.47 79.82 60.26 77.76 61.05 C76.57 61.5 75.39 61.95 74.17 62.41 C69.35 64.83 66.03 68 64.01 73.02 C63.69 73.8 63.37 74.58 63.04 75.39 C62.69 76.25 62.35 77.11 62 78 C61.41 79.44 61.41 79.44 60.8 80.9 C59.46 84.16 58.13 87.42 56.81 90.69 C55.84 93.08 54.87 95.47 53.9 97.86 C53.17 99.65 53.17 99.65 52.43 101.47 C50.27 106.79 48.11 112.12 45.94 117.44 C45.57 118.35 45.2 119.26 44.82 120.2 C44.47 121.04 44.13 121.88 43.78 122.75 C43.48 123.47 43.18 124.2 42.88 124.95 C41.99 127.01 41.01 129 40 131 C36.46 122.95 33.6 114.9 31.17 106.45 C30.83 105.27 30.48 104.08 30.12 102.86 C29.38 100.31 28.64 97.76 27.9 95.22 C26.14 89.13 24.35 83.04 22.57 76.96 C22.16 75.56 21.76 74.17 21.35 72.77 C18.3 62.36 15.2 51.97 12.04 41.6 C11.84 40.95 11.64 40.29 11.44 39.62 C9.34 32.74 7.24 25.87 5.13 19 C4.79 17.86 4.44 16.73 4.08 15.56 C3.43 13.44 2.78 11.32 2.13 9.21 C1.85 8.28 1.57 7.35 1.27 6.4 C1.03 5.59 0.78 4.79 0.52 3.96 C0 2 0 2 0 0 Z " fill="#E090B5" transform="translate(910,504)"/>
<path d="M0 0 C1.04 0 1.04 0 2.1 0.01 C2.83 0 3.56 0 4.31 0 C6.73 -0 9.15 -0 11.57 0 C13.25 0 14.92 0 16.6 -0 C20.11 -0 23.63 0 27.15 0.01 C31.66 0.01 36.18 0.01 40.69 0 C44.15 -0 47.61 -0 51.07 0 C52.74 0 54.4 0 56.07 -0 C58.39 -0 60.72 0 63.04 0.01 C63.73 0 64.43 0 65.14 0 C69.91 0.02 69.91 0.02 72.14 1.14 C72.14 21.93 72.14 42.72 72.14 64.14 C46.73 64.14 21.32 64.14 -4.86 64.14 C-6.21 61.44 -5.99 59.34 -5.99 56.32 C-5.99 55.11 -6 53.89 -6 52.63 C-6 51.3 -6 49.97 -5.99 48.63 C-6 47.27 -6 45.91 -6 44.54 C-6 41.69 -6 38.83 -5.99 35.98 C-5.99 32.31 -5.99 28.64 -6 24.97 C-6 22.16 -6 19.35 -6 16.54 C-5.99 15.18 -6 13.83 -6 12.48 C-6 10.59 -6 8.7 -5.99 6.82 C-5.99 5.74 -5.99 4.67 -5.99 3.56 C-5.76 -0.76 -3.84 0.02 0 0 Z " fill="#74D091" transform="translate(204.86180114746094,609.8644714355469)"/>
<path d="M0 0 C10.02 -0.02 20.04 -0.04 30.07 -0.05 C34.72 -0.06 39.37 -0.06 44.03 -0.08 C48.51 -0.09 53 -0.09 57.49 -0.09 C59.2 -0.1 60.92 -0.1 62.63 -0.11 C65.03 -0.11 67.42 -0.11 69.82 -0.11 C70.53 -0.12 71.25 -0.12 71.99 -0.12 C76.89 -0.11 76.89 -0.11 78 1 C78.1 2.9 78.13 4.8 78.13 6.7 C78.13 7.92 78.14 9.13 78.14 10.39 C78.14 11.73 78.14 13.07 78.13 14.41 C78.13 15.77 78.13 17.13 78.14 18.5 C78.14 21.36 78.14 24.22 78.13 27.08 C78.12 30.76 78.13 34.43 78.13 38.11 C78.14 40.93 78.14 43.74 78.13 46.56 C78.13 47.92 78.13 49.27 78.14 50.63 C78.14 52.52 78.13 54.41 78.13 56.3 C78.13 57.38 78.13 58.46 78.13 59.57 C78 62 78 62 77 63 C74.63 63.09 72.28 63.13 69.91 63.11 C69.17 63.11 68.43 63.11 67.66 63.11 C65.2 63.11 62.74 63.11 60.28 63.1 C58.57 63.1 56.87 63.09 55.17 63.09 C50.68 63.09 46.19 63.08 41.7 63.07 C37.12 63.06 32.54 63.05 27.97 63.05 C18.98 63.04 9.99 63.02 1 63 C-0.35 60.3 -0.12 58.2 -0.11 55.17 C-0.11 53.34 -0.11 53.34 -0.11 51.47 C-0.11 50.14 -0.1 48.8 -0.1 47.46 C-0.1 46.1 -0.09 44.73 -0.09 43.37 C-0.09 39.77 -0.08 36.18 -0.07 32.59 C-0.06 28.92 -0.05 25.25 -0.05 21.59 C-0.04 14.39 -0.02 7.2 0 0 Z " fill="#74D093" transform="translate(199,429)"/>
<path d="M0 0 C9.87 -0.02 19.75 -0.04 29.62 -0.05 C34.21 -0.06 38.79 -0.06 43.38 -0.08 C47.8 -0.09 52.22 -0.09 56.64 -0.09 C58.33 -0.1 60.02 -0.1 61.71 -0.11 C64.07 -0.11 66.44 -0.11 68.8 -0.11 C69.85 -0.12 69.85 -0.12 70.93 -0.12 C75.77 -0.11 75.77 -0.11 78 1 C78 21.46 78 41.92 78 63 C52.59 63 27.18 63 1 63 C-0.35 60.3 -0.12 58.2 -0.11 55.17 C-0.11 53.34 -0.11 53.34 -0.11 51.47 C-0.11 50.14 -0.1 48.8 -0.1 47.46 C-0.1 46.1 -0.09 44.73 -0.09 43.37 C-0.09 39.77 -0.08 36.18 -0.07 32.59 C-0.06 28.92 -0.05 25.25 -0.05 21.59 C-0.04 14.39 -0.02 7.2 0 0 Z " fill="#74D091" transform="translate(199,247)"/>
<path d="M0 0 C1.4 -0 2.8 -0.01 4.2 -0.02 C7.12 -0.02 10.04 -0.02 12.97 -0.01 C16.69 -0 20.41 -0.02 24.13 -0.05 C27.02 -0.07 29.91 -0.07 32.79 -0.06 C34.17 -0.06 35.54 -0.07 36.91 -0.08 C44.7 -0.14 51.78 -0.06 58.44 4.43 C62.09 9.05 64.1 14.39 65.06 20.18 C63.66 27.48 60.56 32.27 54.44 36.43 C50.2 38.12 46.64 38.69 42.08 38.71 C40.23 38.72 40.23 38.72 38.33 38.74 C36.99 38.74 35.65 38.74 34.32 38.73 C32.93 38.74 31.54 38.74 30.16 38.75 C27.25 38.75 24.35 38.75 21.45 38.75 C17.75 38.74 14.05 38.76 10.34 38.78 C7.48 38.8 4.62 38.8 1.76 38.8 C0.39 38.8 -0.97 38.8 -2.34 38.81 C-12.65 38.88 -19.24 37.87 -27.56 31.43 C-30.96 27.1 -31.83 22.7 -31.38 17.23 C-30.39 11.29 -28.2 7.28 -23.56 3.43 C-16.23 -0.44 -8.06 -0.02 0 0 Z " fill="#000002" transform="translate(409.5625,208.56640625)"/>
<path d="M0 0 C1.28 -0.01 2.56 -0.01 3.88 -0.02 C5.27 -0.02 6.67 -0.02 8.06 -0.02 C9.49 -0.03 10.93 -0.03 12.36 -0.03 C15.37 -0.04 18.37 -0.04 21.38 -0.04 C25.22 -0.04 29.06 -0.05 32.9 -0.07 C35.87 -0.08 38.83 -0.08 41.79 -0.08 C43.21 -0.08 44.63 -0.09 46.04 -0.1 C48.03 -0.11 50.01 -0.1 51.99 -0.1 C53.12 -0.1 54.24 -0.1 55.41 -0.1 C60.12 0.27 63.5 1.29 67.19 4.27 C71.37 9.34 74.37 14.39 73.93 21.14 C72.8 27.27 70.23 31.02 65.12 34.58 C60.15 37.76 55.63 38.27 49.8 38.29 C48.66 38.3 47.53 38.3 46.36 38.31 C45.14 38.31 43.92 38.31 42.67 38.31 C40.77 38.32 40.77 38.32 38.84 38.32 C36.18 38.33 33.51 38.33 30.84 38.33 C27.44 38.33 24.04 38.34 20.65 38.36 C17.38 38.38 14.12 38.37 10.85 38.38 C9.04 38.39 9.04 38.39 7.18 38.4 C-1.04 38.38 -8.33 38.07 -15.31 33.27 C-16.05 32.78 -16.79 32.29 -17.56 31.78 C-20.59 29.15 -21.33 27.13 -21.78 23.16 C-21.87 15.29 -21.6 10.5 -16.01 4.65 C-11.05 0.11 -6.47 0.02 0 0 Z " fill="#000002" transform="translate(400.439208984375,390.854736328125)"/>
<path d="M0 0 C1.32 -0.01 2.63 -0.03 3.99 -0.04 C5.41 -0.04 6.83 -0.04 8.26 -0.05 C9.73 -0.05 11.21 -0.06 12.68 -0.07 C15.76 -0.08 18.85 -0.08 21.93 -0.08 C25.87 -0.08 29.81 -0.11 33.74 -0.14 C36.79 -0.16 39.83 -0.17 42.87 -0.17 C44.32 -0.17 45.77 -0.18 47.22 -0.19 C55.14 -0.27 61.52 -0.21 68.3 4.29 C70.14 6.33 70.14 6.33 71.23 8.35 C71.61 9.02 71.99 9.7 72.39 10.39 C74.95 15.74 74.95 20.3 73.11 25.92 C70 31.71 66.29 34.73 60.3 37.29 C57.1 37.68 57.1 37.68 53.62 37.71 C52.31 37.73 51.01 37.74 49.66 37.76 C48.24 37.76 46.82 37.76 45.4 37.76 C43.94 37.77 42.47 37.77 41 37.78 C37.92 37.8 34.84 37.8 31.77 37.79 C27.85 37.79 23.93 37.82 20.01 37.86 C16.98 37.88 13.94 37.89 10.91 37.88 C9.46 37.88 8.02 37.89 6.58 37.91 C-2.05 38.01 -9.51 37.57 -16.7 32.29 C-20.21 28.35 -21.5 23.84 -21.87 18.63 C-21.47 13 -18.8 8.65 -15.33 4.35 C-10.59 0.63 -5.91 0.04 0 0 Z " fill="#000002" transform="translate(399.70458984375,572.70947265625)"/>
<path d="M0 0 C3.11 0.2 6.22 0.25 9.34 0.32 C10.65 0.35 10.65 0.35 12 0.38 C14.79 0.44 17.58 0.5 20.38 0.56 C22.27 0.61 24.17 0.65 26.07 0.69 C30.72 0.8 35.36 0.9 40 1 C39.67 1.66 39.34 2.32 39 3 C23.49 3 7.98 3 -8 3 C-8 2.01 -8 1.02 -8 0 C-5.12 -1.44 -3.18 -0.53 0 0 Z " fill="#98F5FC" transform="translate(208,951)"/>
</svg>
