<?xml version="1.0" encoding="UTF-8"?>
<!DOCTYPE svg PUBLIC "-//W3C//DTD SVG 1.1//EN" "http://www.w3.org/Graphics/SVG/1.1/DTD/svg11.dtd">
<svg xmlns="http://www.w3.org/2000/svg" version="1.1" width="135px" height="95px" style="shape-rendering:geometricPrecision; text-rendering:geometricPrecision; image-rendering:optimizeQuality; fill-rule:evenodd; clip-rule:evenodd" xmlns:xlink="http://www.w3.org/1999/xlink">
<g><path fill="#25b3c3" d="M 23.5,-0.5 C 35.5,-0.5 47.5,-0.5 59.5,-0.5C 59.6567,0.873441 59.49,2.20677 59,3.5C 52.1667,14.5 45.3333,25.5 38.5,36.5C 45.8032,37.4973 53.1365,37.8306 60.5,37.5C 60.82,56.5762 60.4867,75.5762 59.5,94.5C 39.5,94.5 19.5,94.5 -0.5,94.5C -0.5,75.5 -0.5,56.5 -0.5,37.5C 7.48611,24.8696 15.4861,12.2029 23.5,-0.5 Z"/></g>
<g><path fill="#25b3c3" d="M 97.5,-0.5 C 109.833,-0.5 122.167,-0.5 134.5,-0.5C 134.5,0.5 134.5,1.5 134.5,2.5C 127.066,13.8508 119.733,25.3508 112.5,37C 119.826,37.4997 127.159,37.6663 134.5,37.5C 134.5,56.5 134.5,75.5 134.5,94.5C 114.5,94.5 94.5,94.5 74.5,94.5C 74.3334,75.1638 74.5,55.8305 75,36.5C 82.7526,24.2636 90.2526,11.9303 97.5,-0.5 Z"/></g>
</svg>
