<?xml version="1.0" encoding="UTF-8"?>
<!-- Generator: visioncortex VTracer 0.6.3 -->
<svg version="1.1" xmlns="http://www.w3.org/2000/svg" width="1280" height="1280">
<path d="M0 0 C353.1 0 706.2 0 1070 0 C1070 422.4 1070 844.8 1070 1280 C716.9 1280 363.8 1280 0 1280 C0 857.6 0 435.2 0 0 Z " fill="#DDE9EF" transform="translate(104,0)"/>
<path d="M0 0 C29.65 -0.02 59.3 -0.04 88.95 -0.05 C92.44 -0.05 95.94 -0.05 99.44 -0.05 C100.48 -0.06 100.48 -0.06 101.55 -0.06 C112.83 -0.06 124.12 -0.07 135.41 -0.08 C146.98 -0.09 158.55 -0.09 170.13 -0.09 C176.63 -0.1 183.13 -0.1 189.64 -0.11 C195.75 -0.11 201.87 -0.11 207.98 -0.11 C210.23 -0.11 212.48 -0.12 214.73 -0.12 C217.79 -0.12 220.85 -0.12 223.91 -0.12 C225.27 -0.12 225.27 -0.12 226.64 -0.13 C232.77 -0.11 232.77 -0.11 235 1 C235.01 1.88 235.01 2.77 235.02 3.68 C235.08 11.99 235.15 20.3 235.24 28.62 C235.28 32.89 235.32 37.16 235.35 41.44 C235.37 45.56 235.41 49.69 235.46 53.81 C235.48 55.38 235.49 56.96 235.5 58.53 C235.51 60.74 235.54 62.94 235.57 65.14 C235.58 66.4 235.59 67.65 235.6 68.94 C235.78 71.88 235.78 71.88 237.01 73.67 C240.19 75.79 243.6 75.42 247.3 75.4 C248.15 75.41 249.01 75.41 249.89 75.42 C252.77 75.44 255.65 75.43 258.53 75.43 C260.59 75.44 262.65 75.45 264.7 75.46 C270.31 75.49 275.91 75.5 281.51 75.51 C287.36 75.52 293.21 75.54 299.06 75.57 C310.14 75.61 321.22 75.64 332.3 75.66 C344.92 75.69 357.53 75.73 370.14 75.78 C396.1 75.87 422.05 75.94 448 76 C449.77 79.06 450.25 81.26 450.25 84.78 C450.25 85.73 450.26 86.69 450.26 87.68 C450.25 88.72 450.25 89.76 450.24 90.84 C450.24 91.94 450.25 93.05 450.25 94.19 C450.25 97.84 450.24 101.5 450.23 105.15 C450.23 107.69 450.23 110.23 450.23 112.77 C450.23 118.09 450.22 123.41 450.21 128.73 C450.19 134.88 450.18 141.03 450.19 147.18 C450.19 153.09 450.18 159.01 450.17 164.93 C450.17 167.45 450.17 169.97 450.17 172.48 C450.16 176 450.16 179.51 450.15 183.03 C450.15 184.59 450.15 184.59 450.15 186.19 C450.14 187.15 450.14 188.11 450.13 189.1 C450.13 189.93 450.13 190.76 450.13 191.62 C450 194 450 194 449 199 C393.23 199 337.46 199 280 199 C280 223.09 280 247.18 280 272 C281.86 273.86 284.93 273.14 287.41 273.14 C288.09 273.15 288.76 273.15 289.46 273.16 C291.75 273.17 294.03 273.17 296.32 273.17 C297.95 273.18 299.58 273.19 301.22 273.19 C304.74 273.21 308.26 273.22 311.79 273.23 C317.35 273.25 322.92 273.27 328.49 273.29 C344.32 273.37 360.15 273.43 375.98 273.48 C384.72 273.51 393.46 273.54 402.19 273.58 C407.73 273.61 413.27 273.63 418.81 273.64 C422.25 273.65 425.69 273.67 429.13 273.69 C430.73 273.69 432.33 273.7 433.93 273.7 C436.11 273.7 438.29 273.71 440.46 273.73 C441.69 273.73 442.91 273.74 444.16 273.74 C447 274 447 274 449 276 C450.16 280.09 450.13 284.08 450.13 288.31 C450.13 289.39 450.13 289.39 450.13 290.49 C450.14 292.85 450.14 295.21 450.13 297.57 C450.13 299.22 450.13 300.86 450.14 302.5 C450.14 305.95 450.14 309.39 450.13 312.83 C450.12 317.24 450.13 321.65 450.13 326.07 C450.14 329.46 450.14 332.85 450.13 336.25 C450.13 337.88 450.13 339.5 450.14 341.13 C450.14 343.4 450.13 345.67 450.13 347.95 C450.13 349.89 450.13 349.89 450.13 351.86 C450 355 450 355 449 358 C392.9 358.33 336.8 358.66 279 359 C279.33 383.09 279.66 407.18 280 432 C335.11 432.33 390.22 432.66 447 433 C447 433.66 447 434.32 447 435 C447.66 435.33 448.32 435.66 449 436 C449.02 446.25 449.04 456.5 449.05 466.75 C449.06 471.5 449.06 476.26 449.08 481.02 C449.09 485.61 449.09 490.2 449.09 494.79 C449.1 496.55 449.1 498.3 449.11 500.05 C449.11 502.5 449.11 504.96 449.11 507.41 C449.12 508.14 449.12 508.86 449.12 509.61 C449.12 512.69 448.98 515.06 448 518 C392.23 518.33 336.46 518.66 279 519 C279.33 542.76 279.66 566.52 280 591 C364.15 591.5 364.15 591.5 450 592 C450 667 450 667 449 677 C447.7 677.01 447.7 677.01 446.38 677.01 C425.37 677.12 404.35 677.22 383.34 677.34 C373.18 677.39 363.01 677.45 352.85 677.5 C344 677.54 335.15 677.59 326.29 677.64 C321.6 677.66 316.91 677.69 312.22 677.71 C307.81 677.73 303.4 677.75 298.99 677.78 C297.37 677.79 295.74 677.8 294.12 677.8 C291.91 677.81 289.7 677.83 287.5 677.84 C286.26 677.85 285.02 677.85 283.75 677.86 C281.09 677.69 281.09 677.69 280 679 C279.91 681.24 279.88 683.48 279.89 685.72 C279.89 686.78 279.89 686.78 279.89 687.85 C279.89 690.18 279.89 692.52 279.9 694.85 C279.9 696.46 279.91 698.07 279.91 699.69 C279.91 703.94 279.92 708.19 279.93 712.45 C279.94 716.78 279.95 721.12 279.95 725.46 C279.96 733.97 279.98 742.49 280 751 C282.86 752.43 285.3 752.14 288.49 752.15 C289.5 752.16 289.5 752.16 290.53 752.16 C292.8 752.18 295.07 752.18 297.34 752.19 C298.96 752.2 300.59 752.21 302.21 752.21 C305.71 752.23 309.21 752.25 312.71 752.26 C318.24 752.28 323.77 752.31 329.29 752.34 C341.03 752.4 352.76 752.45 364.5 752.5 C377.17 752.56 389.84 752.61 402.5 752.68 C408 752.71 413.5 752.73 419 752.75 C422.42 752.76 425.84 752.78 429.25 752.8 C430.84 752.81 432.43 752.81 434.02 752.82 C436.18 752.82 438.35 752.83 440.51 752.85 C441.72 752.85 442.93 752.86 444.18 752.86 C447 753 447 753 449 754 C450.36 757.58 450.13 761.29 450.13 765.08 C450.13 766.13 450.13 766.13 450.13 767.21 C450.14 769.54 450.14 771.86 450.13 774.18 C450.13 775.8 450.13 777.42 450.14 779.04 C450.14 782.43 450.14 785.82 450.13 789.22 C450.12 793.56 450.13 797.9 450.13 802.24 C450.14 805.59 450.14 808.93 450.13 812.27 C450.13 813.87 450.13 815.47 450.14 817.07 C450.14 819.31 450.13 821.55 450.13 823.79 C450.13 825.71 450.13 825.71 450.13 827.65 C450.02 830.59 449.82 833.18 449 836 C446.12 837.44 443.64 837.12 440.42 837.12 C439.39 837.12 439.39 837.12 438.35 837.12 C436.05 837.12 433.74 837.12 431.44 837.11 C429.8 837.11 428.15 837.11 426.51 837.11 C422.03 837.11 417.55 837.11 413.08 837.1 C408.4 837.1 403.72 837.09 399.05 837.09 C390.19 837.09 381.33 837.08 372.48 837.07 C362.39 837.06 352.31 837.06 342.23 837.05 C321.49 837.04 300.74 837.02 280 837 C279.98 846.5 279.96 856 279.95 865.5 C279.94 869.91 279.94 874.32 279.92 878.74 C279.91 882.99 279.91 887.24 279.91 891.5 C279.9 893.12 279.9 894.75 279.89 896.37 C279.89 898.65 279.89 900.92 279.89 903.19 C279.88 904.48 279.88 905.77 279.88 907.11 C279.67 909.89 279.67 909.89 281 911 C283.13 911.11 285.27 911.14 287.41 911.15 C288.42 911.16 288.42 911.16 289.46 911.16 C291.75 911.18 294.03 911.18 296.32 911.19 C297.95 911.2 299.58 911.21 301.22 911.21 C304.74 911.23 308.26 911.25 311.79 911.26 C317.35 911.28 322.92 911.31 328.49 911.34 C340.3 911.4 352.12 911.45 363.94 911.5 C376.69 911.56 389.44 911.61 402.19 911.68 C407.73 911.71 413.27 911.73 418.81 911.75 C422.25 911.76 425.69 911.78 429.13 911.8 C430.73 911.81 432.33 911.81 433.93 911.82 C436.11 911.82 438.29 911.83 440.46 911.85 C441.69 911.85 442.91 911.86 444.16 911.86 C447 912 447 912 449 913 C450.48 916.76 450.14 920.86 450.12 924.85 C450.12 926.04 450.12 926.04 450.12 927.26 C450.12 929.93 450.12 932.59 450.11 935.26 C450.11 937.17 450.11 939.09 450.11 941 C450.11 946.19 450.11 951.39 450.1 956.58 C450.1 962.01 450.09 967.43 450.09 972.86 C450.09 983.14 450.08 993.41 450.07 1003.69 C450.06 1015.39 450.06 1027.09 450.05 1038.79 C450.04 1062.86 450.02 1086.93 450 1111 C392.96 1111.05 335.92 1111.08 278.88 1111.1 C272.16 1111.1 265.43 1111.11 258.7 1111.11 C257.7 1111.11 257.7 1111.11 256.68 1111.11 C234.96 1111.12 213.25 1111.13 191.53 1111.15 C168.59 1111.17 145.65 1111.18 122.71 1111.19 C108.97 1111.19 95.22 1111.2 81.47 1111.22 C72.05 1111.23 62.64 1111.23 53.22 1111.23 C47.78 1111.23 42.34 1111.23 36.9 1111.24 C31.93 1111.25 26.96 1111.25 21.98 1111.24 C20.18 1111.24 18.37 1111.24 16.57 1111.25 C14.12 1111.26 11.68 1111.25 9.24 1111.25 C8.53 1111.25 7.82 1111.26 7.08 1111.26 C2.23 1111.23 2.23 1111.23 0 1109 C-0.2 1106.51 -0.27 1104.13 -0.25 1101.64 C-0.25 1100.87 -0.25 1100.1 -0.26 1099.3 C-0.26 1096.68 -0.25 1094.06 -0.25 1091.43 C-0.25 1089.54 -0.25 1087.65 -0.25 1085.75 C-0.26 1080.5 -0.25 1075.26 -0.24 1070.01 C-0.24 1064.31 -0.24 1058.62 -0.25 1052.93 C-0.25 1042.94 -0.25 1032.94 -0.24 1022.95 C-0.23 1012.23 -0.23 1001.5 -0.23 990.77 C-0.23 990.1 -0.23 989.42 -0.23 988.72 C-0.23 985.28 -0.23 981.83 -0.23 978.38 C-0.23 953.39 -0.22 928.4 -0.21 903.41 C-0.2 878.65 -0.19 853.9 -0.19 829.14 C-0.19 828.37 -0.19 827.6 -0.19 826.81 C-0.19 819.8 -0.19 812.78 -0.19 805.76 C-0.19 788.32 -0.18 770.87 -0.18 753.43 C-0.18 752.64 -0.18 751.84 -0.18 751.02 C-0.18 712.36 -0.16 673.7 -0.15 635.03 C-0.15 621.61 -0.14 608.19 -0.14 594.77 C-0.14 593.94 -0.14 593.11 -0.14 592.25 C-0.12 553.57 -0.12 514.89 -0.11 476.22 C-0.11 473.71 -0.11 471.2 -0.11 468.69 C-0.11 452.05 -0.1 435.41 -0.1 418.78 C-0.1 385.67 -0.09 352.57 -0.09 319.47 C-0.08 317.89 -0.08 316.31 -0.08 314.74 C-0.07 243.75 -0.05 172.76 -0.03 101.77 C-0.03 101.11 -0.03 100.44 -0.03 99.76 C-0.02 66.5 -0.01 33.25 0 0 Z " fill="#F9F4F5" transform="translate(190,84)"/>
<path d="M0 0 C105.93 0 211.86 0 321 0 C321 27.39 321 54.78 321 83 C319.09 84.91 316.28 84.12 313.75 84.13 C312.84 84.13 311.93 84.12 311 84.12 C309.56 84.12 309.56 84.12 308.1 84.12 C304.87 84.12 301.64 84.12 298.41 84.11 C296.1 84.11 293.79 84.11 291.49 84.11 C285.21 84.11 278.93 84.11 272.65 84.1 C266.09 84.1 259.54 84.09 252.98 84.09 C241.97 84.09 230.96 84.08 219.95 84.08 C208.61 84.07 197.26 84.06 185.92 84.05 C185.22 84.05 184.52 84.05 183.8 84.05 C180.3 84.05 176.79 84.05 173.29 84.05 C144.19 84.04 115.1 84.02 86 84 C86.03 117.93 86.05 151.86 86.08 185.79 C86.08 186.45 86.08 187.11 86.08 187.8 C86.13 258.91 86.19 330.03 86.24 401.14 C86.24 402.72 86.25 404.3 86.25 405.88 C86.27 439.02 86.3 472.17 86.33 505.31 C86.34 521.96 86.36 538.6 86.37 555.25 C86.37 557.76 86.37 560.27 86.38 562.78 C86.41 601.47 86.44 640.16 86.47 678.84 C86.47 679.67 86.47 680.51 86.47 681.36 C86.48 694.78 86.49 708.2 86.5 721.62 C86.53 760.25 86.56 798.89 86.59 837.52 C86.59 838.71 86.59 838.71 86.59 839.93 C86.6 857.35 86.62 874.78 86.63 892.2 C86.64 899.21 86.65 906.22 86.65 913.24 C86.65 914 86.65 914.77 86.65 915.56 C86.68 940.31 86.69 965.06 86.71 989.82 C86.73 1014.74 86.75 1039.65 86.77 1064.57 C86.77 1068.01 86.78 1071.45 86.78 1074.89 C86.78 1075.56 86.78 1076.24 86.78 1076.93 C86.79 1088.28 86.8 1099.64 86.81 1110.99 C86.81 1120.85 86.82 1130.7 86.83 1140.56 C86.84 1146.18 86.84 1151.81 86.84 1157.44 C86.84 1162.54 86.85 1167.65 86.86 1172.76 C86.86 1174.61 86.86 1176.45 86.86 1178.3 C86.86 1180.79 86.86 1183.28 86.87 1185.76 C86.87 1186.49 86.87 1187.22 86.86 1187.97 C86.59 1191.27 86.59 1191.27 88 1194 C89.96 1194.1 91.92 1194.13 93.88 1194.13 C95.81 1194.14 95.81 1194.14 97.78 1194.14 C99.23 1194.14 100.68 1194.14 102.13 1194.14 C103.66 1194.14 105.19 1194.14 106.72 1194.15 C110.97 1194.16 115.22 1194.16 119.46 1194.16 C124.07 1194.16 128.67 1194.17 133.28 1194.17 C141.36 1194.18 149.44 1194.19 157.52 1194.2 C169.54 1194.2 181.56 1194.22 193.58 1194.23 C213.8 1194.26 234.01 1194.27 254.23 1194.29 C274.25 1194.31 294.28 1194.33 314.3 1194.35 C315.55 1194.35 316.79 1194.35 318.07 1194.35 C324.38 1194.36 330.7 1194.36 337.01 1194.37 C381.78 1194.42 426.55 1194.46 471.32 1194.5 C482.17 1194.51 493.03 1194.52 503.88 1194.53 C504.89 1194.53 504.89 1194.53 505.92 1194.53 C537.21 1194.56 568.5 1194.59 599.78 1194.63 C601.81 1194.63 603.85 1194.63 605.88 1194.63 C619.33 1194.65 632.79 1194.66 646.25 1194.67 C673.66 1194.7 701.08 1194.73 728.49 1194.76 C730.38 1194.76 730.38 1194.76 732.31 1194.76 C816.54 1194.84 900.77 1194.92 985 1195 C984.97 1161.07 984.95 1127.14 984.92 1093.21 C984.92 1092.22 984.92 1092.22 984.92 1091.2 C984.87 1020.09 984.81 948.97 984.76 877.86 C984.76 876.28 984.75 874.7 984.75 873.12 C984.73 839.98 984.7 806.83 984.67 773.69 C984.66 757.04 984.64 740.4 984.63 723.75 C984.63 721.24 984.63 718.73 984.62 716.22 C984.59 677.53 984.56 638.84 984.53 600.16 C984.53 599.33 984.53 598.49 984.53 597.64 C984.52 584.22 984.51 570.8 984.5 557.38 C984.47 518.75 984.44 480.11 984.41 441.48 C984.41 440.68 984.41 439.89 984.41 439.07 C984.4 421.65 984.38 404.22 984.37 386.8 C984.36 379.79 984.35 372.78 984.35 365.76 C984.35 365 984.35 364.23 984.35 363.44 C984.32 338.69 984.31 313.94 984.29 289.18 C984.27 264.26 984.25 239.35 984.23 214.43 C984.23 210.99 984.22 207.55 984.22 204.11 C984.22 203.44 984.22 202.76 984.22 202.07 C984.21 190.72 984.2 179.36 984.19 168.01 C984.19 158.15 984.18 148.3 984.17 138.44 C984.16 132.82 984.16 127.19 984.16 121.56 C984.16 116.46 984.15 111.35 984.14 106.24 C984.14 104.39 984.14 102.55 984.14 100.7 C984.14 98.21 984.14 95.72 984.13 93.24 C984.13 92.51 984.13 91.78 984.14 91.03 C984.41 87.73 984.41 87.73 983 85 C980.03 84.89 977.09 84.85 974.12 84.85 C973.18 84.84 972.24 84.84 971.27 84.84 C968.08 84.82 964.9 84.82 961.71 84.81 C959.44 84.8 957.17 84.79 954.89 84.79 C949.99 84.77 945.08 84.75 940.18 84.74 C932.42 84.72 924.67 84.69 916.92 84.66 C906.06 84.62 895.2 84.59 884.34 84.55 C883.65 84.55 882.96 84.55 882.25 84.55 C877.35 84.53 872.46 84.52 867.56 84.5 C861.97 84.48 856.38 84.47 850.79 84.45 C850.1 84.45 849.41 84.44 848.7 84.44 C837.23 84.41 825.76 84.37 814.29 84.32 C806.58 84.29 798.87 84.27 791.16 84.25 C786.37 84.24 781.58 84.22 776.79 84.2 C774.56 84.19 772.33 84.19 770.1 84.18 C767.07 84.18 764.04 84.17 761 84.15 C760.11 84.15 759.22 84.15 758.3 84.15 C752.23 84.11 752.23 84.11 750 83 C750 55.61 750 28.22 750 0 C855.6 0 961.2 0 1070 0 C1070 422.4 1070 844.8 1070 1280 C716.9 1280 363.8 1280 0 1280 C0 857.6 0 435.2 0 0 Z " fill="#005EDF" transform="translate(104,0)"/>
<path d="M0 0 C105.6 0 211.2 0 320 0 C320 422.4 320 844.8 320 1280 C143.78 1280 -32.44 1280 -214 1280 C-214 1252.28 -214 1224.56 -214 1196 C-214.66 1195.67 -215.32 1195.34 -216 1195 C-67.17 1195 81.66 1195 235 1195 C234.94 1112.53 234.94 1112.53 234.88 1030.05 C234.87 1027.97 234.87 1025.89 234.87 1023.8 C234.83 975.15 234.8 926.51 234.76 877.86 C234.76 876.28 234.75 874.7 234.75 873.12 C234.73 839.98 234.7 806.83 234.67 773.69 C234.66 757.04 234.64 740.4 234.63 723.75 C234.63 721.24 234.63 718.73 234.62 716.22 C234.59 677.53 234.56 638.84 234.53 600.16 C234.53 599.33 234.53 598.49 234.53 597.64 C234.52 584.22 234.51 570.8 234.5 557.38 C234.47 518.75 234.44 480.11 234.41 441.48 C234.41 440.68 234.41 439.89 234.41 439.07 C234.4 421.65 234.38 404.22 234.37 386.8 C234.36 379.79 234.35 372.78 234.35 365.76 C234.35 365 234.35 364.23 234.35 363.44 C234.32 338.69 234.31 313.94 234.29 289.18 C234.27 264.26 234.25 239.35 234.23 214.43 C234.23 210.99 234.22 207.55 234.22 204.11 C234.22 203.44 234.22 202.76 234.22 202.07 C234.21 190.72 234.2 179.36 234.19 168.01 C234.19 158.15 234.18 148.3 234.17 138.44 C234.16 132.82 234.16 127.19 234.16 121.56 C234.16 116.46 234.15 111.35 234.14 106.24 C234.14 104.39 234.14 102.55 234.14 100.7 C234.14 98.21 234.14 95.72 234.13 93.24 C234.13 92.51 234.13 91.78 234.14 91.03 C234.41 87.73 234.41 87.73 233 85 C230.03 84.89 227.09 84.85 224.12 84.85 C223.18 84.84 222.24 84.84 221.27 84.84 C218.08 84.82 214.9 84.82 211.71 84.81 C209.44 84.8 207.17 84.79 204.89 84.79 C199.99 84.77 195.08 84.75 190.18 84.74 C182.42 84.72 174.67 84.69 166.92 84.66 C156.06 84.62 145.2 84.59 134.34 84.55 C133.65 84.55 132.96 84.55 132.25 84.55 C127.35 84.53 122.46 84.52 117.56 84.5 C111.97 84.48 106.38 84.47 100.79 84.45 C100.1 84.45 99.41 84.44 98.7 84.44 C87.23 84.41 75.76 84.37 64.29 84.32 C56.58 84.29 48.87 84.27 41.16 84.25 C36.37 84.24 31.58 84.22 26.79 84.2 C24.56 84.19 22.33 84.19 20.1 84.18 C17.07 84.18 14.04 84.17 11 84.15 C10.11 84.15 9.22 84.15 8.3 84.15 C2.23 84.11 2.23 84.11 0 83 C0 55.61 0 28.22 0 0 Z " fill="#1A2BBA" transform="translate(854,0)"/>
<path d="M0 0 C1.26 -0 1.26 -0 2.54 -0.01 C5.39 -0.01 8.23 -0.01 11.07 -0.01 C13.12 -0.01 15.16 -0.01 17.21 -0.01 C22.86 -0.02 28.5 -0.02 34.15 -0.02 C40.23 -0.02 46.31 -0.02 52.39 -0.03 C64.31 -0.04 76.23 -0.04 88.15 -0.04 C97.84 -0.04 107.52 -0.04 117.21 -0.04 C119.99 -0.05 122.78 -0.05 125.56 -0.05 C126.6 -0.05 126.6 -0.05 127.66 -0.05 C147.13 -0.05 166.61 -0.06 186.09 -0.06 C186.82 -0.06 187.55 -0.06 188.31 -0.06 C192.04 -0.06 195.76 -0.06 199.48 -0.06 C200.59 -0.06 200.59 -0.06 201.73 -0.06 C203.22 -0.06 204.72 -0.06 206.21 -0.06 C229.49 -0.06 252.78 -0.06 276.06 -0.08 C302.19 -0.09 328.33 -0.1 354.47 -0.1 C357.25 -0.1 360.03 -0.1 362.82 -0.1 C363.85 -0.1 363.85 -0.1 364.9 -0.1 C375.95 -0.1 387.01 -0.11 398.06 -0.11 C409.16 -0.12 420.26 -0.12 431.37 -0.12 C437.38 -0.11 443.4 -0.11 449.42 -0.12 C454.93 -0.13 460.43 -0.13 465.93 -0.12 C467.93 -0.12 469.93 -0.12 471.93 -0.13 C474.63 -0.13 477.33 -0.13 480.03 -0.12 C480.82 -0.13 481.61 -0.13 482.42 -0.14 C487.78 -0.1 487.78 -0.1 490.01 2.13 C490.25 5.14 490.25 5.14 490.24 9.06 C490.24 9.77 490.24 10.48 490.24 11.22 C490.24 13.57 490.22 15.93 490.21 18.29 C490.2 19.93 490.2 21.56 490.2 23.19 C490.19 27.5 490.17 31.8 490.15 36.11 C490.13 40.5 490.12 44.89 490.11 49.28 C490.09 57.89 490.06 66.51 490.01 75.13 C489.32 75.13 488.62 75.13 487.91 75.13 C446.75 75.11 405.59 75.09 364.43 75.08 C359.49 75.08 354.55 75.08 349.61 75.07 C348.63 75.07 347.65 75.07 346.63 75.07 C330.7 75.07 314.77 75.06 298.83 75.05 C282.49 75.04 266.15 75.04 249.81 75.03 C239.72 75.03 229.63 75.03 219.54 75.02 C212.63 75.02 205.72 75.01 198.8 75.02 C194.81 75.02 190.82 75.01 186.83 75.01 C183.18 75 179.53 75 175.87 75.01 C173.92 75.01 171.97 75 170.01 75 C168.86 75 167.71 75 166.52 75.01 C165.52 75.01 164.52 75 163.5 75 C160.88 75.02 160.88 75.02 158.01 76.13 C155.78 76.21 153.55 76.23 151.32 76.22 C150.64 76.22 149.95 76.21 149.25 76.21 C146.95 76.2 144.65 76.18 142.36 76.17 C140.71 76.16 139.07 76.15 137.43 76.14 C132.96 76.12 128.49 76.09 124.02 76.06 C119.35 76.03 114.68 76 110.01 75.98 C102.17 75.93 94.33 75.88 86.49 75.83 C77.42 75.77 68.34 75.72 59.26 75.67 C51.48 75.63 43.7 75.58 35.91 75.53 C31.26 75.5 26.61 75.47 21.96 75.45 C17.58 75.43 13.21 75.4 8.84 75.37 C7.23 75.36 5.62 75.35 4.01 75.34 C1.83 75.33 -0.36 75.31 -2.55 75.29 C-4.39 75.28 -4.39 75.28 -6.26 75.27 C-8.99 75.13 -8.99 75.13 -9.99 74.13 C-10.08 71.86 -10.1 69.59 -10.1 67.31 C-10.1 66.6 -10.1 65.89 -10.1 65.16 C-10.1 62.79 -10.09 60.43 -10.08 58.06 C-10.08 56.43 -10.08 54.79 -10.08 53.16 C-10.08 48.84 -10.07 44.53 -10.06 40.22 C-10.05 35.82 -10.04 31.43 -10.04 27.03 C-10.02 18.4 -10.01 9.76 -9.99 1.13 C-6.84 -0.45 -3.46 -0.01 0 0 Z " fill="#52696F" transform="translate(478.9867248535156,441.8713655471802)"/>
<path d="M0 0 C47.46 -0.02 94.93 -0.03 142.39 -0.04 C143.09 -0.04 143.79 -0.04 144.52 -0.04 C159.77 -0.05 175.02 -0.05 190.28 -0.05 C197.76 -0.05 205.23 -0.05 212.71 -0.05 C213.46 -0.06 214.2 -0.06 214.97 -0.06 C239.12 -0.06 263.26 -0.07 287.41 -0.08 C312.21 -0.09 337.02 -0.09 361.82 -0.09 C365.32 -0.09 368.82 -0.09 372.32 -0.09 C373.01 -0.09 373.7 -0.1 374.41 -0.1 C385.52 -0.1 396.62 -0.1 407.73 -0.11 C418.89 -0.11 430.04 -0.11 441.2 -0.11 C447.25 -0.11 453.3 -0.11 459.35 -0.12 C464.88 -0.12 470.4 -0.12 475.93 -0.12 C477.94 -0.12 479.95 -0.12 481.96 -0.12 C484.67 -0.13 487.39 -0.13 490.1 -0.12 C491.29 -0.13 491.29 -0.13 492.51 -0.13 C497.89 -0.11 497.89 -0.11 499 1 C499.09 3.3 499.12 5.6 499.11 7.91 C499.11 8.63 499.11 9.35 499.11 10.09 C499.11 12.49 499.11 14.89 499.1 17.29 C499.1 18.94 499.09 20.6 499.09 22.26 C499.09 26.63 499.08 31 499.07 35.37 C499.06 39.83 499.05 44.29 499.05 48.74 C499.04 57.5 499.02 66.25 499 75 C451.55 75.03 404.1 75.07 356.65 75.08 C355.6 75.09 355.6 75.09 354.52 75.09 C339.27 75.09 324.03 75.1 308.78 75.1 C301.3 75.1 293.82 75.11 286.34 75.11 C285.23 75.11 285.23 75.11 284.09 75.11 C259.95 75.12 235.81 75.13 211.67 75.15 C186.87 75.17 162.07 75.18 137.27 75.19 C133.77 75.19 130.28 75.19 126.78 75.19 C125.74 75.19 125.74 75.19 124.69 75.19 C113.58 75.19 102.48 75.2 91.37 75.21 C80.22 75.23 69.07 75.23 57.91 75.23 C51.87 75.23 45.82 75.23 39.77 75.24 C34.24 75.25 28.72 75.25 23.19 75.24 C21.18 75.24 19.17 75.24 17.16 75.25 C14.45 75.26 11.74 75.25 9.02 75.25 C7.83 75.25 7.83 75.25 6.62 75.26 C1.23 75.23 1.23 75.23 -1 73 C-1.25 70.08 -1.25 70.08 -1.24 66.29 C-1.24 65.6 -1.25 64.91 -1.25 64.2 C-1.25 61.91 -1.24 59.63 -1.23 57.34 C-1.23 55.76 -1.23 54.18 -1.23 52.59 C-1.23 49.27 -1.22 45.95 -1.21 42.62 C-1.19 38.36 -1.18 34.1 -1.19 29.83 C-1.19 26.56 -1.18 23.29 -1.17 20.02 C-1.17 18.44 -1.17 16.87 -1.17 15.3 C-1.16 13.1 -1.16 10.91 -1.15 8.71 C-1.14 7.46 -1.14 6.21 -1.13 4.92 C-1 2 -1 2 0 0 Z " fill="#52696F" transform="translate(470,921)"/>
<path d="M0 0 C47.46 -0.02 94.93 -0.03 142.39 -0.04 C143.09 -0.04 143.79 -0.04 144.52 -0.04 C159.77 -0.05 175.02 -0.05 190.28 -0.05 C197.76 -0.05 205.23 -0.05 212.71 -0.05 C213.46 -0.06 214.2 -0.06 214.97 -0.06 C239.12 -0.06 263.26 -0.07 287.41 -0.08 C312.21 -0.09 337.02 -0.09 361.82 -0.09 C365.32 -0.09 368.82 -0.09 372.32 -0.09 C373.01 -0.09 373.7 -0.1 374.41 -0.1 C385.52 -0.1 396.62 -0.1 407.73 -0.11 C418.89 -0.11 430.04 -0.11 441.2 -0.11 C447.25 -0.11 453.3 -0.11 459.35 -0.12 C464.88 -0.12 470.4 -0.12 475.93 -0.12 C477.94 -0.12 479.95 -0.12 481.96 -0.12 C484.67 -0.13 487.39 -0.13 490.1 -0.12 C491.29 -0.13 491.29 -0.13 492.51 -0.13 C497.89 -0.11 497.89 -0.11 499 1 C499.09 3.3 499.12 5.6 499.11 7.91 C499.11 8.63 499.11 9.35 499.11 10.09 C499.11 12.49 499.11 14.89 499.1 17.29 C499.1 18.94 499.09 20.6 499.09 22.26 C499.09 26.63 499.08 31 499.07 35.37 C499.06 39.83 499.05 44.29 499.05 48.74 C499.04 57.5 499.02 66.25 499 75 C451.55 75.03 404.1 75.07 356.65 75.08 C355.6 75.09 355.6 75.09 354.52 75.09 C339.27 75.09 324.03 75.1 308.78 75.1 C301.3 75.1 293.82 75.11 286.34 75.11 C285.23 75.11 285.23 75.11 284.09 75.11 C259.95 75.12 235.81 75.13 211.67 75.15 C186.87 75.17 162.07 75.18 137.27 75.19 C133.77 75.19 130.28 75.19 126.78 75.19 C125.74 75.19 125.74 75.19 124.69 75.19 C113.58 75.19 102.48 75.2 91.37 75.21 C80.22 75.23 69.07 75.23 57.91 75.23 C51.87 75.23 45.82 75.23 39.77 75.24 C34.24 75.25 28.72 75.25 23.19 75.24 C21.18 75.24 19.17 75.24 17.16 75.25 C14.45 75.26 11.74 75.25 9.02 75.25 C7.83 75.25 7.83 75.25 6.62 75.26 C1.23 75.23 1.23 75.23 -1 73 C-1.25 70.08 -1.25 70.08 -1.24 66.29 C-1.24 65.6 -1.25 64.91 -1.25 64.2 C-1.25 61.91 -1.24 59.63 -1.23 57.34 C-1.23 55.76 -1.23 54.18 -1.23 52.59 C-1.23 49.27 -1.22 45.95 -1.21 42.62 C-1.19 38.36 -1.18 34.1 -1.19 29.83 C-1.19 26.56 -1.18 23.29 -1.17 20.02 C-1.17 18.44 -1.17 16.87 -1.17 15.3 C-1.16 13.1 -1.16 10.91 -1.15 8.71 C-1.14 7.46 -1.14 6.21 -1.13 4.92 C-1 2 -1 2 0 0 Z " fill="#52696F" transform="translate(470,283)"/>
<path d="M0 0 C1.33 0 1.33 0 2.69 0 C3.72 -0 4.75 -0.01 5.81 -0.01 C6.95 -0.01 8.1 0 9.28 0.01 C10.5 0 11.72 0 12.98 0 C16.42 -0 19.87 0 23.32 0.01 C27.15 0.02 30.98 0.02 34.82 0.02 C42.6 0.02 50.39 0.03 58.17 0.05 C64.66 0.06 71.14 0.07 77.63 0.07 C107.85 0.1 138.07 0.16 168.29 0.23 C173.62 0.25 178.94 0.26 184.27 0.27 C232.61 0.38 280.96 0.5 329.31 0.64 C338.54 0.67 347.78 0.69 357.01 0.72 C357.93 0.72 358.85 0.72 359.79 0.72 C360.71 0.73 361.63 0.73 362.57 0.73 C380.38 0.78 398.2 0.83 416.01 0.89 C424.31 0.91 432.61 0.94 440.91 0.96 C447.87 0.98 454.83 1 461.79 1.02 C465.32 1.03 468.86 1.05 472.39 1.05 C476.19 1.06 480 1.07 483.81 1.09 C484.93 1.09 486.05 1.09 487.2 1.09 C488.72 1.1 488.72 1.1 490.26 1.11 C491.13 1.11 492.01 1.12 492.91 1.12 C494.88 1.25 494.88 1.25 495.88 2.25 C495.98 4.52 496 6.79 496 9.06 C496 9.78 496 10.49 496 11.22 C496 13.59 495.99 15.95 495.98 18.32 C495.98 19.95 495.98 21.59 495.98 23.22 C495.97 27.53 495.96 31.85 495.95 36.16 C495.94 40.55 495.94 44.95 495.93 49.35 C495.92 57.98 495.9 66.62 495.88 75.25 C405.97 75.55 316.05 75.84 70.3 76.43 C64.25 76.43 58.19 76.44 52.14 76.46 C45 76.47 37.87 76.48 30.74 76.48 C27.26 76.48 23.78 76.48 20.3 76.49 C16.67 76.5 13.05 76.5 9.42 76.49 C8.38 76.5 7.34 76.5 6.26 76.51 C5.32 76.5 4.38 76.5 3.41 76.5 C2.6 76.5 1.79 76.5 0.96 76.5 C-1.12 76.25 -1.12 76.25 -4.12 74.25 C-4.49 71.29 -4.49 71.29 -4.49 67.44 C-4.49 66.74 -4.5 66.05 -4.5 65.32 C-4.51 63.01 -4.49 60.69 -4.48 58.37 C-4.48 56.77 -4.48 55.16 -4.48 53.55 C-4.48 50.18 -4.47 46.82 -4.45 43.45 C-4.43 39.12 -4.43 34.8 -4.44 30.47 C-4.44 27.15 -4.43 23.84 -4.42 20.52 C-4.42 18.92 -4.42 17.33 -4.42 15.73 C-4.42 13.51 -4.41 11.28 -4.39 9.05 C-4.38 7.15 -4.38 7.15 -4.38 5.21 C-4.07 1.76 -3.59 0.42 0 0 Z " fill="#52696F" transform="translate(473.11651039123535,760.7511110305786)"/>
<path d="M0 0 C6.68 0.02 13.35 0.04 20.03 0.06 C40.33 0.11 60.63 0.17 80.94 0.25 C82.67 0.25 84.41 0.26 86.15 0.26 C87.43 0.27 87.43 0.27 88.74 0.27 C94.72 0.29 100.7 0.31 106.69 0.33 C113.9 0.35 121.11 0.37 128.32 0.4 C131.98 0.42 135.64 0.43 139.3 0.44 C143.24 0.45 147.19 0.47 151.14 0.49 C152.3 0.49 153.46 0.49 154.65 0.49 C156.22 0.5 156.22 0.5 157.82 0.51 C158.73 0.51 159.64 0.52 160.58 0.52 C162.74 0.65 162.74 0.65 164.74 1.65 C164.74 25.74 164.74 49.83 164.74 74.65 C162.27 75.89 160.64 75.78 157.86 75.78 C156.83 75.78 155.79 75.78 154.72 75.78 C152.99 75.78 152.99 75.78 151.23 75.78 C150.01 75.78 148.8 75.78 147.54 75.78 C144.15 75.79 140.75 75.78 137.36 75.78 C133.69 75.78 130.02 75.78 126.35 75.79 C119.11 75.79 111.87 75.79 104.63 75.79 C98.68 75.78 92.73 75.78 86.77 75.78 C85.5 75.79 85.5 75.79 84.19 75.79 C82.46 75.79 80.72 75.79 78.99 75.79 C60.66 75.79 42.32 75.79 23.99 75.78 C23.05 75.78 22.11 75.78 21.14 75.78 C20.2 75.78 19.26 75.78 18.29 75.78 C8.84 75.77 -0.61 75.77 -10.05 75.77 C-95.7 75.76 -181.35 75.74 -267 75.23 C-269.65 75.21 -272.29 75.2 -274.94 75.18 C-284.69 75.13 -294.43 75.07 -304.18 75 C-306.99 74.98 -309.81 74.96 -312.62 74.94 C-316.32 74.92 -320.03 74.89 -323.73 74.86 C-324.8 74.85 -325.87 74.84 -326.98 74.84 C-327.94 74.83 -328.9 74.82 -329.88 74.81 C-330.71 74.8 -331.54 74.8 -332.39 74.79 C-334.26 74.65 -334.26 74.65 -335.26 73.65 C-335.35 71.41 -335.38 69.17 -335.37 66.93 C-335.37 66.23 -335.37 65.52 -335.37 64.8 C-335.37 62.47 -335.36 60.13 -335.36 57.8 C-335.35 56.19 -335.35 54.58 -335.35 52.96 C-335.35 48.71 -335.34 44.46 -335.33 40.21 C-335.32 35.87 -335.31 31.53 -335.31 27.2 C-335.3 18.68 -335.28 10.17 -335.26 1.65 C-332.91 0.48 -331.51 0.51 -328.89 0.49 C-327.96 0.47 -327.03 0.46 -326.07 0.45 C-325.03 0.44 -323.99 0.44 -322.92 0.43 C-321.81 0.42 -320.71 0.41 -319.57 0.39 C-316.42 0.36 -313.28 0.34 -310.14 0.31 C-308.06 0.3 -305.99 0.28 -303.92 0.26 C-293.54 0.18 -283.17 0.11 -272.79 0.04 C-270.21 0.03 -267.63 0.01 -265.05 -0.01 C-176.7 -0.59 -88.35 -0.27 0 0 Z " fill="#50676D" transform="translate(804.2578875236213,601.3496201708913)"/>
<path d="M0 0 C70.62 0 141.24 0 214 0 C214 27.39 214 54.78 214 83 C214.66 83 215.32 83 216 83 C215.89 92.76 215.78 102.52 215.66 112.28 C215.61 116.82 215.55 121.35 215.5 125.88 C215.46 130.25 215.4 134.62 215.35 138.99 C215.33 140.66 215.31 142.33 215.29 144 C215.27 146.34 215.24 148.67 215.21 151 C215.2 151.7 215.19 152.4 215.19 153.12 C215.11 157.89 215.11 157.89 214 159 C211.26 159.1 208.54 159.13 205.8 159.13 C204.93 159.13 204.06 159.13 203.16 159.13 C200.23 159.14 197.29 159.13 194.35 159.13 C192.25 159.13 190.16 159.13 188.06 159.13 C182.35 159.14 176.63 159.14 170.92 159.13 C164.96 159.13 158.99 159.13 153.03 159.14 C143.01 159.14 132.99 159.14 122.98 159.13 C111.38 159.12 99.78 159.13 88.18 159.13 C78.24 159.14 68.3 159.14 58.36 159.13 C52.41 159.13 46.47 159.13 40.52 159.14 C34.93 159.14 29.35 159.14 23.76 159.13 C21.7 159.13 19.64 159.13 17.59 159.13 C14.79 159.14 12 159.13 9.2 159.13 C7.96 159.13 7.96 159.13 6.7 159.13 C1.11 159.11 1.11 159.11 0 158 C-0.1 155.96 -0.12 153.92 -0.12 151.88 C-0.12 151.24 -0.12 150.59 -0.12 149.93 C-0.12 147.75 -0.12 145.56 -0.11 143.38 C-0.11 141.8 -0.11 140.22 -0.11 138.64 C-0.11 134.38 -0.11 130.13 -0.1 125.88 C-0.1 121.9 -0.1 117.91 -0.09 113.93 C-0.09 102.27 -0.08 90.6 -0.06 78.94 C-0.04 52.89 -0.02 26.84 0 0 Z " fill="#AFD0D5" transform="translate(640,0)"/>
<path d="M0 0 C1.24 0 2.47 0 3.75 0.01 C4.44 0 5.12 0 5.83 0 C8.15 -0 10.46 0.01 12.78 0.02 C14.43 0.02 16.09 0.02 17.75 0.02 C22.25 0.02 26.75 0.03 31.26 0.04 C35.96 0.06 40.66 0.06 45.37 0.06 C54.28 0.07 63.19 0.08 72.1 0.1 C84.14 0.13 96.17 0.14 108.21 0.15 C127.18 0.17 146.16 0.21 165.13 0.25 C165.46 25.33 165.79 50.41 166.13 76.25 C124.12 76.33 124.12 76.33 106.56 76.34 C94.42 76.36 82.28 76.37 70.13 76.4 C61.29 76.42 52.45 76.43 43.61 76.43 C38.93 76.44 34.24 76.44 29.56 76.46 C25.16 76.47 20.75 76.48 16.34 76.47 C14.73 76.47 13.11 76.48 11.49 76.48 C9.28 76.49 7.07 76.49 4.87 76.49 C3.63 76.49 2.4 76.49 1.12 76.49 C-1.87 76.25 -1.87 76.25 -4.87 74.25 C-5.24 71.29 -5.24 71.29 -5.24 67.44 C-5.25 66.74 -5.25 66.04 -5.25 65.32 C-5.26 63 -5.25 60.69 -5.23 58.37 C-5.23 56.76 -5.23 55.16 -5.23 53.55 C-5.23 50.18 -5.22 46.81 -5.21 43.44 C-5.18 39.12 -5.18 34.79 -5.19 30.47 C-5.19 27.15 -5.19 23.83 -5.18 20.52 C-5.17 18.92 -5.17 17.33 -5.17 15.73 C-5.17 13.5 -5.16 11.28 -5.14 9.05 C-5.14 7.15 -5.14 7.15 -5.13 5.21 C-4.78 1.19 -4.03 0.35 0 0 Z " fill="#6F8C95" transform="translate(473.8698139190674,760.7539043426514)"/>
<path d="M0 0 C21.87 -0.02 43.74 -0.04 65.61 -0.05 C75.76 -0.06 85.92 -0.06 96.07 -0.08 C104.92 -0.09 113.77 -0.09 122.61 -0.09 C127.3 -0.1 131.99 -0.1 136.68 -0.11 C141.08 -0.11 145.49 -0.11 149.9 -0.11 C151.52 -0.11 153.14 -0.12 154.76 -0.12 C156.97 -0.12 159.18 -0.12 161.38 -0.12 C162.62 -0.12 163.86 -0.12 165.13 -0.12 C168 0 168 0 170 1 C170 25.42 170 49.84 170 75 C127.7 75.08 127.7 75.08 110.02 75.1 C97.8 75.11 85.58 75.12 73.36 75.15 C64.46 75.17 55.56 75.18 46.65 75.19 C41.94 75.19 37.22 75.2 32.51 75.21 C28.08 75.22 23.64 75.23 19.21 75.23 C17.58 75.23 15.95 75.23 14.31 75.24 C12.1 75.25 9.88 75.25 7.66 75.24 C5.79 75.24 5.79 75.24 3.89 75.25 C1 75 1 75 -1 73 C-1.25 70.08 -1.25 70.08 -1.24 66.29 C-1.24 65.6 -1.25 64.91 -1.25 64.2 C-1.25 61.91 -1.24 59.63 -1.23 57.34 C-1.23 55.76 -1.23 54.18 -1.23 52.59 C-1.23 49.27 -1.22 45.95 -1.21 42.62 C-1.19 38.36 -1.18 34.1 -1.19 29.83 C-1.19 26.56 -1.18 23.29 -1.17 20.02 C-1.17 18.44 -1.17 16.87 -1.17 15.3 C-1.16 13.1 -1.16 10.91 -1.15 8.71 C-1.14 7.46 -1.14 6.21 -1.13 4.92 C-1 2 -1 2 0 0 Z " fill="#708D96" transform="translate(470,921)"/>
<path d="M0 0 C21.87 -0.02 43.74 -0.04 65.61 -0.05 C75.76 -0.06 85.92 -0.06 96.07 -0.08 C104.92 -0.09 113.77 -0.09 122.61 -0.09 C127.3 -0.1 131.99 -0.1 136.68 -0.11 C141.08 -0.11 145.49 -0.11 149.9 -0.11 C151.52 -0.11 153.14 -0.12 154.76 -0.12 C156.97 -0.12 159.18 -0.12 161.38 -0.12 C162.62 -0.12 163.86 -0.12 165.13 -0.12 C168 0 168 0 170 1 C170 25.42 170 49.84 170 75 C127.7 75.08 127.7 75.08 110.02 75.1 C97.8 75.11 85.58 75.12 73.36 75.15 C64.46 75.17 55.56 75.18 46.65 75.19 C41.94 75.19 37.22 75.2 32.51 75.21 C28.08 75.22 23.64 75.23 19.21 75.23 C17.58 75.23 15.95 75.23 14.31 75.24 C12.1 75.25 9.88 75.25 7.66 75.24 C5.79 75.24 5.79 75.24 3.89 75.25 C1 75 1 75 -1 73 C-1.25 70.08 -1.25 70.08 -1.24 66.29 C-1.24 65.6 -1.25 64.91 -1.25 64.2 C-1.25 61.91 -1.24 59.63 -1.23 57.34 C-1.23 55.76 -1.23 54.18 -1.23 52.59 C-1.23 49.27 -1.22 45.95 -1.21 42.62 C-1.19 38.36 -1.18 34.1 -1.19 29.83 C-1.19 26.56 -1.18 23.29 -1.17 20.02 C-1.17 18.44 -1.17 16.87 -1.17 15.3 C-1.16 13.1 -1.16 10.91 -1.15 8.71 C-1.14 7.46 -1.14 6.21 -1.13 4.92 C-1 2 -1 2 0 0 Z " fill="#708D96" transform="translate(470,283)"/>
<path d="M0 0 C1.02 -0 1.02 -0 2.07 -0.01 C4.36 -0.02 6.66 -0.02 8.96 -0.02 C10.6 -0.03 12.24 -0.03 13.89 -0.04 C18.35 -0.05 22.82 -0.06 27.29 -0.06 C30.08 -0.06 32.87 -0.07 35.66 -0.07 C44.38 -0.08 53.1 -0.09 61.81 -0.1 C71.89 -0.1 81.97 -0.12 92.05 -0.15 C99.83 -0.17 107.62 -0.18 115.4 -0.18 C120.05 -0.18 124.7 -0.19 129.35 -0.21 C133.73 -0.22 138.1 -0.23 142.47 -0.22 C144.08 -0.22 145.69 -0.22 147.3 -0.23 C149.49 -0.24 151.68 -0.24 153.87 -0.23 C155.09 -0.23 156.32 -0.23 157.58 -0.23 C158.99 -0.05 158.99 -0.05 160.43 0.14 C162.93 3.88 162.65 5.72 162.57 10.18 C162.55 11.25 162.55 11.25 162.54 12.34 C162.51 14.7 162.46 17.05 162.41 19.4 C162.38 21.03 162.36 22.67 162.33 24.3 C162.27 28.6 162.19 32.89 162.11 37.19 C162.03 41.57 161.96 45.95 161.89 50.34 C161.75 58.94 161.59 67.54 161.43 76.14 C139.42 76.03 117.4 75.92 95.38 75.8 C85.16 75.75 74.94 75.69 64.71 75.64 C55.81 75.6 46.9 75.55 37.99 75.5 C33.27 75.48 28.56 75.45 23.84 75.43 C19.4 75.41 14.96 75.39 10.53 75.36 C8.89 75.35 7.26 75.34 5.63 75.34 C3.41 75.33 1.19 75.31 -1.03 75.3 C-2.28 75.29 -3.52 75.29 -4.8 75.28 C-7.57 75.14 -7.57 75.14 -8.57 74.14 C-8.66 71.87 -8.68 69.6 -8.68 67.33 C-8.68 66.61 -8.68 65.9 -8.68 65.17 C-8.68 62.8 -8.67 60.44 -8.66 58.07 C-8.66 56.44 -8.66 54.8 -8.66 53.17 C-8.66 48.86 -8.65 44.54 -8.64 40.23 C-8.63 35.83 -8.62 31.44 -8.62 27.04 C-8.61 18.41 -8.59 9.77 -8.57 1.14 C-5.69 -0.3 -3.22 0.01 0 0 Z " fill="#708D96" transform="translate(477.5670166015625,441.85955810546875)"/>
<path d="M0 0 C0.99 0.5 0.99 0.5 2 1 C4.22 1.09 6.44 1.12 8.66 1.12 C9.35 1.12 10.04 1.12 10.75 1.12 C13.08 1.12 15.41 1.12 17.74 1.11 C19.41 1.11 21.07 1.11 22.74 1.11 C27.27 1.11 31.8 1.11 36.33 1.1 C41.06 1.1 45.79 1.09 50.52 1.09 C59.49 1.09 68.45 1.08 77.41 1.07 C87.62 1.06 97.82 1.06 108.02 1.05 C129.02 1.04 150.01 1.02 171 1 C171 24.43 171 47.86 171 72 C114.57 72 58.14 72 0 72 C0 48.24 0 24.48 0 0 Z " fill="#6F8C95" transform="translate(469,603)"/>
<path d="M0 0 C0.72 -0 1.44 -0 2.19 -0 C4.57 0 6.96 0.01 9.35 0.02 C11 0.02 12.66 0.02 14.31 0.02 C18.67 0.02 23.02 0.03 27.38 0.04 C31.82 0.06 36.26 0.06 40.71 0.06 C49.43 0.08 58.15 0.09 66.87 0.11 C66.87 0.77 66.87 1.43 66.87 2.11 C67.53 2.11 68.19 2.11 68.87 2.11 C68.87 26.2 68.87 50.29 68.87 75.11 C64.3 75.88 60.48 76.24 55.91 76.26 C55.25 76.26 54.58 76.27 53.89 76.27 C51.7 76.28 49.52 76.28 47.33 76.28 C45.8 76.28 44.27 76.29 42.74 76.29 C39.55 76.3 36.35 76.3 33.15 76.3 C29.06 76.3 24.97 76.31 20.87 76.33 C17.72 76.34 14.57 76.34 11.41 76.34 C9.9 76.34 8.39 76.35 6.88 76.36 C4.78 76.37 2.67 76.36 0.56 76.36 C-0.64 76.36 -1.84 76.36 -3.07 76.36 C-6.13 76.11 -6.13 76.11 -10.13 74.11 C-10.13 50.02 -10.13 25.93 -10.13 1.11 C-6.58 -0.07 -3.76 -0.01 0 0 Z " fill="#6F8C95" transform="translate(320.133544921875,760.886474609375)"/>
<path d="M0 0 C0.7 0 1.41 0 2.13 0.01 C2.87 0 3.61 0 4.37 0 C6.82 -0 9.27 -0 11.73 0 C13.42 0 15.12 0 16.82 -0 C20.38 -0 23.95 0 27.51 0.01 C32.09 0.01 36.66 0.01 41.23 0 C44.74 -0 48.25 -0 51.76 0 C53.45 0 55.13 0 56.82 -0 C59.18 -0 61.53 0 63.89 0.01 C64.59 0 65.29 0 66.01 0 C70.85 0.02 70.85 0.02 73.07 1.14 C73.07 25.56 73.07 49.98 73.07 75.14 C47.33 75.14 21.59 75.14 -4.93 75.14 C-6.39 72.2 -6.05 69.59 -6.05 66.31 C-6.06 65.26 -6.06 65.26 -6.06 64.19 C-6.06 61.87 -6.06 59.55 -6.06 57.23 C-6.06 55.62 -6.06 54.01 -6.06 52.4 C-6.06 49.02 -6.06 45.65 -6.06 42.28 C-6.05 37.94 -6.05 33.61 -6.06 29.28 C-6.06 25.95 -6.06 22.63 -6.06 19.31 C-6.06 17.71 -6.06 16.11 -6.06 14.51 C-6.06 12.29 -6.06 10.06 -6.05 7.83 C-6.05 6.56 -6.05 5.29 -6.05 3.98 C-5.84 -0.72 -4.26 0.02 0 0 Z " fill="#6F8C95" transform="translate(315.9252624511719,920.8644714355469)"/>
<path d="M0 0 C0.73 -0 1.46 -0 2.21 -0.01 C4.62 -0.01 7.04 -0.01 9.45 -0 C11.13 -0 12.8 -0.01 14.47 -0.01 C17.98 -0.01 21.49 -0.01 25 -0 C29.51 0 34.02 0 38.52 -0 C41.98 -0.01 45.44 -0.01 48.89 -0 C50.56 -0 52.22 -0 53.88 -0.01 C56.2 -0.01 58.52 -0.01 60.84 0 C61.53 -0 62.22 -0 62.93 -0.01 C67.69 0.02 67.69 0.02 69.92 1.13 C69.92 25.55 69.92 49.97 69.92 75.13 C50.78 75.21 50.78 75.21 42.65 75.23 C37.09 75.24 31.53 75.25 25.97 75.28 C21.49 75.3 17.01 75.31 12.53 75.32 C10.82 75.32 9.1 75.33 7.39 75.34 C5 75.36 2.61 75.36 0.22 75.36 C-0.5 75.36 -1.21 75.37 -1.94 75.38 C-6.85 75.36 -6.85 75.36 -9.08 73.13 C-9.32 70.16 -9.32 70.16 -9.31 66.29 C-9.31 65.59 -9.31 64.89 -9.31 64.16 C-9.31 61.84 -9.29 59.51 -9.28 57.18 C-9.27 55.57 -9.27 53.96 -9.27 52.35 C-9.26 48.11 -9.24 43.86 -9.22 39.62 C-9.2 35.29 -9.19 30.96 -9.18 26.63 C-9.16 18.13 -9.12 9.63 -9.08 1.13 C-6.15 -0.33 -3.21 -0.01 0 0 Z " fill="#6F8C95" transform="translate(319.080078125,282.87060546875)"/>
<path d="M0 0 C0.72 -0 1.44 -0 2.19 -0 C4.57 0 6.96 0.01 9.35 0.02 C11 0.02 12.66 0.02 14.31 0.02 C18.67 0.02 23.02 0.03 27.38 0.04 C31.82 0.06 36.26 0.06 40.71 0.06 C49.43 0.08 58.15 0.09 66.87 0.11 C66.87 0.77 66.87 1.43 66.87 2.11 C67.53 2.11 68.19 2.11 68.87 2.11 C68.87 26.2 68.87 50.29 68.87 75.11 C49.44 75.15 49.44 75.15 41.19 75.16 C35.55 75.17 29.91 75.18 24.27 75.19 C19.72 75.2 15.18 75.21 10.63 75.21 C8.89 75.21 7.16 75.21 5.42 75.22 C2.99 75.23 0.57 75.23 -1.86 75.23 C-2.59 75.23 -3.31 75.23 -4.06 75.24 C-9.02 75.23 -9.02 75.23 -10.13 74.11 C-10.23 71.84 -10.25 69.57 -10.25 67.3 C-10.25 66.59 -10.25 65.87 -10.25 65.14 C-10.25 62.78 -10.24 60.41 -10.23 58.05 C-10.23 56.41 -10.23 54.78 -10.23 53.14 C-10.22 48.83 -10.21 44.52 -10.2 40.2 C-10.19 35.81 -10.19 31.41 -10.18 27.01 C-10.17 18.38 -10.15 9.75 -10.13 1.11 C-6.58 -0.07 -3.76 -0.01 0 0 Z " fill="#6F8C95" transform="translate(320.133544921875,441.886474609375)"/>
<path d="M0 0 C0.72 -0 1.44 -0 2.19 -0 C4.57 0 6.96 0.01 9.35 0.02 C11 0.02 12.66 0.02 14.31 0.02 C18.67 0.02 23.02 0.03 27.38 0.04 C31.82 0.06 36.26 0.06 40.71 0.06 C49.43 0.08 58.15 0.09 66.87 0.11 C66.87 0.77 66.87 1.43 66.87 2.11 C67.53 2.11 68.19 2.11 68.87 2.11 C68.91 10.93 68.95 19.74 68.97 28.56 C68.98 32.65 68.99 36.74 69.02 40.83 C69.04 44.78 69.05 48.73 69.06 52.68 C69.06 54.19 69.07 55.7 69.08 57.2 C69.09 59.31 69.09 61.42 69.09 63.53 C69.1 64.73 69.1 65.93 69.11 67.17 C68.87 70.11 68.87 70.11 66.87 73.11 C67.53 73.44 68.19 73.77 68.87 74.11 C59.01 74.29 49.15 74.46 39.29 74.61 C34.72 74.68 30.14 74.75 25.56 74.84 C21.15 74.92 16.73 74.99 12.32 75.05 C10.63 75.08 8.94 75.11 7.26 75.14 C4.9 75.19 2.54 75.22 0.18 75.25 C-0.52 75.27 -1.22 75.28 -1.94 75.3 C-5.59 75.33 -7 75.21 -10.13 73.11 C-10.49 70.14 -10.49 70.14 -10.47 66.28 C-10.47 65.57 -10.47 64.87 -10.48 64.15 C-10.47 61.82 -10.45 59.5 -10.43 57.17 C-10.42 55.56 -10.42 53.95 -10.41 52.33 C-10.4 48.09 -10.37 43.84 -10.34 39.6 C-10.31 35.27 -10.3 30.94 -10.28 26.61 C-10.25 18.11 -10.2 9.61 -10.13 1.11 C-6.58 -0.07 -3.76 -0.01 0 0 Z " fill="#6F8C94" transform="translate(320.133544921875,601.886474609375)"/>
<path d="M0 0 C2.87 0.01 5.73 0.02 8.6 0.03 C58.04 0.2 107.48 0.38 156.92 0.57 C156.92 0.9 156.92 1.23 156.92 1.57 C155.89 1.57 155.89 1.57 154.83 1.58 C114.01 1.68 73.18 1.79 32.36 1.9 C27.45 1.92 22.55 1.93 17.65 1.94 C16.19 1.95 16.19 1.95 14.69 1.95 C-1.11 2 -16.91 2.04 -32.71 2.08 C-48.93 2.12 -65.14 2.16 -81.35 2.21 C-91.36 2.24 -101.36 2.26 -111.37 2.29 C-118.23 2.3 -125.09 2.32 -131.95 2.34 C-135.91 2.36 -139.87 2.37 -143.82 2.38 C-147.45 2.38 -151.08 2.39 -154.7 2.41 C-156.63 2.41 -158.56 2.42 -160.49 2.42 C-166.46 2.45 -172.17 2.76 -178.08 3.57 C-180.45 3.66 -182.82 3.69 -185.19 3.69 C-186.19 3.69 -186.19 3.69 -187.22 3.7 C-189.43 3.7 -191.64 3.69 -193.86 3.69 C-195.46 3.69 -197.05 3.69 -198.65 3.69 C-202.97 3.69 -207.29 3.68 -211.6 3.67 C-216.12 3.67 -220.64 3.67 -225.16 3.67 C-233.71 3.66 -242.26 3.65 -250.81 3.64 C-260.54 3.63 -270.28 3.63 -280.02 3.62 C-300.04 3.61 -320.06 3.59 -340.08 3.57 C-339.75 2.58 -339.42 1.59 -339.08 0.57 C-318.1 0.34 -297.12 0.17 -276.14 0.01 C-275.29 0 -274.44 -0 -273.56 -0.01 C-182.38 -0.69 -91.19 -0.31 0 0 Z " fill="#52696F" transform="translate(810.0794108510017,601.4278200268745)"/>
<path d="M0 0 C0.72 -0 1.44 -0 2.19 -0 C4.57 0 6.96 0.01 9.35 0.02 C11 0.02 12.66 0.02 14.31 0.02 C18.67 0.02 23.02 0.03 27.38 0.04 C31.82 0.06 36.26 0.06 40.71 0.06 C49.43 0.08 58.15 0.09 66.87 0.11 C66.87 0.77 66.87 1.43 66.87 2.11 C67.53 2.11 68.19 2.11 68.87 2.11 C68.87 24.55 68.87 46.99 68.87 70.11 C68.54 70.11 68.21 70.11 67.87 70.11 C67.87 48 67.87 25.89 67.87 3.11 C42.79 3.11 17.71 3.11 -8.13 3.11 C-7.8 26.54 -7.47 49.97 -7.13 74.11 C-8.12 73.78 -9.11 73.45 -10.13 73.11 C-10.13 49.35 -10.13 25.59 -10.13 1.11 C-6.58 -0.07 -3.76 -0.01 0 0 Z " fill="#566E74" transform="translate(320.133544921875,601.886474609375)"/>
</svg>
