<?xml version="1.0" encoding="UTF-8"?>
<!-- Generator: visioncortex VTracer 0.6.3 -->
<svg version="1.1" xmlns="http://www.w3.org/2000/svg" width="1280" height="1280">
<path d="M0 0 C2.05 -0 4.1 -0.01 6.15 -0.01 C11.65 -0.02 17.15 -0.02 22.64 -0.02 C26.08 -0.02 29.53 -0.02 32.97 -0.03 C44.99 -0.04 57.01 -0.04 69.04 -0.04 C80.22 -0.04 91.41 -0.05 102.6 -0.07 C112.23 -0.08 121.87 -0.08 131.51 -0.08 C137.25 -0.08 142.99 -0.09 148.74 -0.1 C154.12 -0.11 159.51 -0.11 164.9 -0.1 C166.87 -0.1 168.84 -0.1 170.82 -0.11 C173.51 -0.11 176.21 -0.11 178.91 -0.1 C179.69 -0.11 180.46 -0.11 181.27 -0.12 C187.9 -0.08 194.15 1.03 199.54 5.15 C203.76 9.73 204.54 11.56 204.54 18.15 C218.73 17.82 232.92 17.49 247.54 17.15 C248.2 14.84 248.86 12.53 249.54 10.15 C250.94 7.93 250.94 7.93 252.48 6.21 C252.98 5.62 253.49 5.03 254.01 4.43 C255.54 3.15 255.54 3.15 258.54 3.15 C258.54 2.49 258.54 1.83 258.54 1.15 C264.91 0 271.17 0 277.62 0.01 C279.38 0.01 279.38 0.01 281.16 0.01 C283.64 0.01 286.11 0.01 288.58 0.01 C292.3 0.02 296.03 0.01 299.75 0.01 C336.1 -0.01 336.1 -0.01 350.04 3.46 C350.93 3.66 351.81 3.86 352.72 4.07 C358.12 5.34 363.16 7.06 368.27 9.22 C370.54 10.15 372.82 10.91 375.17 11.65 C379.54 13.07 383.47 15.02 387.54 17.15 C389.6 18.17 391.67 19.19 393.73 20.21 C401.24 23.92 401.24 23.92 404.54 26.15 C404.54 26.81 404.54 27.47 404.54 28.15 C405.23 28.37 405.92 28.6 406.64 28.84 C410.17 30.43 413.03 32.62 416.04 35.02 C416.6 35.45 417.15 35.89 417.73 36.34 C418.82 37.19 419.91 38.05 420.99 38.92 C422.46 40.08 423.95 41.21 425.45 42.34 C426.14 42.94 426.83 43.53 427.54 44.15 C427.54 44.81 427.54 45.47 427.54 46.15 C428.2 46.15 428.86 46.15 429.54 46.15 C429.54 46.81 429.54 47.47 429.54 48.15 C430.53 48.48 431.52 48.81 432.54 49.15 C432.54 49.81 432.54 50.47 432.54 51.15 C433.2 51.15 433.86 51.15 434.54 51.15 C434.54 51.81 434.54 52.47 434.54 53.15 C435.53 53.48 436.52 53.81 437.54 54.15 C437.54 54.81 437.54 55.47 437.54 56.15 C438.2 56.15 438.86 56.15 439.54 56.15 C441.14 57.96 442.59 59.78 444.04 61.71 C444.48 62.29 444.92 62.87 445.38 63.48 C454.06 75.1 461.48 86.94 467.54 100.15 C468.27 101.72 468.27 101.72 469.01 103.33 C472.25 110.74 474.48 118.33 476.54 126.15 C476.83 127.17 477.12 128.19 477.42 129.24 C479.16 135.62 479.99 141.73 480.33 148.33 C480.44 151.01 480.44 151.01 481.04 152.98 C485.37 171.82 480.96 194.91 475.54 213.15 C474.59 216.45 473.64 219.75 472.79 223.07 C470.1 232.86 465.51 241.35 460.54 250.15 C460.2 250.76 459.85 251.38 459.49 252.01 C457.42 255.68 455.25 259.28 452.98 262.83 C452.4 263.74 451.82 264.66 451.23 265.59 C448.18 270.2 448.18 270.2 446.54 272.15 C445.88 272.15 445.22 272.15 444.54 272.15 C444.36 272.83 444.17 273.51 443.98 274.21 C442.26 277.73 440.03 279.84 437.2 282.5 C435.33 284.25 435.33 284.25 433.54 287.15 C432.88 287.15 432.22 287.15 431.54 287.15 C431.54 287.81 431.54 288.47 431.54 289.15 C430.08 290.65 430.08 290.65 428.17 292.27 C427.23 293.08 427.23 293.08 426.27 293.9 C424.54 295.15 424.54 295.15 422.54 295.15 C422.54 295.81 422.54 296.47 422.54 297.15 C420.49 298.87 418.44 300.49 416.29 302.08 C415.41 302.75 415.41 302.75 414.51 303.42 C413.37 304.29 412.23 305.14 411.08 305.99 C409.8 306.95 408.55 307.95 407.31 308.96 C405.54 310.15 405.54 310.15 402.54 310.15 C402.54 310.81 402.54 311.47 402.54 312.15 C399.74 313.55 396.94 314.95 394.13 316.35 C391.66 317.58 389.2 318.82 386.73 320.07 C385.79 320.54 385.79 320.54 384.84 321.02 C383.05 321.92 381.26 322.82 379.48 323.73 C376.54 325.15 376.54 325.15 373.54 326.15 C374.56 331.63 375.74 336.85 377.54 342.15 C382.15 359.42 381.87 377.45 381.96 395.18 C381.97 397.65 381.99 400.11 382.01 402.57 C382.07 408.99 382.1 415.42 382.14 421.84 C382.18 428.41 382.23 434.99 382.28 441.57 C382.38 454.43 382.46 467.29 382.54 480.15 C383.79 480.16 385.04 480.17 386.33 480.19 C391.01 480.25 395.69 480.33 400.36 480.41 C402.38 480.44 404.4 480.47 406.42 480.49 C409.33 480.53 412.24 480.58 415.16 480.63 C416.05 480.64 416.94 480.65 417.85 480.65 C433.62 481.02 448 488.76 459.54 499.15 C460.11 499.66 460.68 500.17 461.26 500.69 C462.67 502.02 462.67 502.02 464.54 504.15 C464.54 504.81 464.54 505.47 464.54 506.15 C465.2 506.15 465.86 506.15 466.54 506.15 C471.49 512.02 474.6 519.11 477.54 526.15 C477.87 526.92 478.2 527.7 478.54 528.51 C482.14 538 481.84 548.14 481.81 558.15 C481.81 559.67 481.81 561.2 481.81 562.73 C481.82 565.91 481.81 569.09 481.8 572.28 C481.79 576.33 481.8 580.38 481.81 584.43 C481.82 587.58 481.81 590.73 481.81 593.88 C481.81 595.37 481.81 596.86 481.81 598.35 C481.86 617.68 477.78 631.29 466.54 647.15 C465.88 648.14 465.22 649.13 464.54 650.15 C463.88 650.15 463.22 650.15 462.54 650.15 C462.27 650.78 462.01 651.42 461.73 652.08 C460.54 654.15 460.54 654.15 457.54 655.15 C457.54 655.81 457.54 656.47 457.54 657.15 C439.32 671.56 419.64 674.26 397.1 674.77 C395.68 674.81 394.25 674.85 392.83 674.89 C389.4 674.98 385.97 675.07 382.54 675.15 C381.37 682.21 380.36 689.11 380.17 696.27 C379.79 705.04 378.02 713.33 376.05 721.87 C375 726.57 374.14 731.31 373.25 736.04 C372.59 738.92 371.7 741.44 370.54 744.15 C370.08 745.74 369.61 747.33 369.17 748.93 C367.03 756.48 364.86 763.89 361.53 771 C360.51 773.2 359.65 775.44 358.79 777.71 C356.15 784.4 352.82 790.75 349.56 797.15 C347.87 800.47 346.21 803.81 344.54 807.15 C343.88 807.15 343.22 807.15 342.54 807.15 C342.21 808.8 341.88 810.45 341.54 812.15 C340.88 812.15 340.22 812.15 339.54 812.15 C339.45 812.69 339.35 813.23 339.26 813.79 C338.33 816.84 336.82 819.2 335.1 821.9 C334.18 823.37 334.18 823.37 333.23 824.88 C332.67 825.63 332.12 826.37 331.54 827.15 C330.88 827.15 330.22 827.15 329.54 827.15 C329.46 827.68 329.38 828.22 329.29 828.77 C328.27 832.02 326.58 834.43 324.54 837.15 C323.88 837.15 323.22 837.15 322.54 837.15 C322.29 837.68 322.05 838.22 321.79 838.77 C320.23 841.73 318.51 844.44 316.54 847.15 C315.88 847.15 315.22 847.15 314.54 847.15 C314.27 847.72 314.01 848.3 313.73 848.9 C312.51 851.2 311.24 853.17 309.54 855.15 C308.88 855.15 308.22 855.15 307.54 855.15 C307.27 855.78 307.01 856.42 306.73 857.08 C305.54 859.15 305.54 859.15 302.54 860.15 C302.27 860.7 302.01 861.26 301.73 861.83 C300.01 865.18 297.46 867.77 294.54 870.15 C293.88 870.15 293.22 870.15 292.54 870.15 C292.21 871.14 291.88 872.13 291.54 873.15 C290.88 873.15 290.22 873.15 289.54 873.15 C289.54 873.81 289.54 874.47 289.54 875.15 C287.97 876.58 286.33 877.95 284.67 879.27 C283.67 880.07 282.67 880.86 281.65 881.68 C280.62 882.49 279.6 883.31 278.54 884.15 C277.59 884.93 276.64 885.71 275.65 886.52 C274.77 887.24 273.89 887.96 272.98 888.71 C272.17 889.37 271.37 890.03 270.54 890.71 C268.54 892.15 268.54 892.15 266.54 892.15 C266.54 892.81 266.54 893.47 266.54 894.15 C262.16 897.15 262.16 897.15 259.54 897.15 C259.54 897.81 259.54 898.47 259.54 899.15 C257.86 900.38 257.86 900.38 255.52 901.75 C254.66 902.26 253.8 902.77 252.92 903.29 C252.01 903.82 251.1 904.35 250.17 904.9 C248.86 905.66 248.86 905.66 247.53 906.45 C245.76 907.49 243.99 908.53 242.22 909.57 C238.74 911.61 235.29 913.7 231.84 915.8 C225.47 919.53 218.85 922.52 211.97 925.18 C209.66 926.1 207.42 927.1 205.17 928.15 C200.76 930.14 196.24 931.65 191.63 933.12 C189.3 933.89 187.04 934.73 184.76 935.63 C180.3 937.32 175.77 938.32 171.1 939.27 C165.91 939.93 165.91 939.93 161.54 942.15 C160.17 942.33 158.79 942.47 157.42 942.58 C154.55 942.87 152.14 943.26 149.35 944.08 C138.53 947.1 127.28 947.52 116.1 947.83 C114.79 947.88 113.49 947.93 112.14 947.98 C101.73 948.3 94.41 948.44 86.54 941.15 C83.22 936.99 83.54 935.91 83.54 930.15 C69.02 930.15 54.5 930.15 39.54 930.15 C39.54 932.13 39.54 934.11 39.54 936.15 C38.4 938.38 38.4 938.38 36.85 940.33 C36.36 940.99 35.86 941.64 35.34 942.31 C29.85 947.9 23.98 947.91 16.54 948.15 C12.51 948.18 8.5 948.07 4.48 947.9 C3.41 947.85 2.33 947.81 1.23 947.76 C-22.57 946.59 -22.57 946.59 -29.46 943.15 C-30.72 943.04 -31.97 942.94 -33.27 942.83 C-38.46 942.31 -43.17 940.79 -48.12 939.18 C-51.28 938.2 -54.43 937.4 -57.65 936.65 C-62.26 935.53 -66.51 934.03 -70.88 932.18 C-73.77 931.02 -76.68 930.08 -79.65 929.15 C-83.05 928.04 -86.14 926.92 -89.21 925.08 C-92.15 923.33 -94.95 922.26 -98.17 921.11 C-102.12 919.44 -105.71 917.17 -109.39 914.97 C-112.19 913.3 -115.02 911.74 -117.9 910.21 C-122.21 907.87 -126.45 905.43 -130.65 902.9 C-131.75 902.23 -132.86 901.56 -134 900.88 C-134.81 900.31 -135.62 899.73 -136.46 899.15 C-136.46 898.49 -136.46 897.83 -136.46 897.15 C-137.24 896.84 -138.03 896.53 -138.83 896.21 C-141.46 895.15 -141.46 895.15 -143.46 894.15 C-143.46 893.49 -143.46 892.83 -143.46 892.15 C-144.17 891.9 -144.89 891.65 -145.63 891.4 C-148.77 890.01 -151.1 888.3 -153.77 886.15 C-154.65 885.44 -155.54 884.74 -156.45 884.02 C-157.44 883.09 -157.44 883.09 -158.46 882.15 C-158.46 881.49 -158.46 880.83 -158.46 880.15 C-159.04 879.88 -159.62 879.61 -160.22 879.33 C-162.49 878.13 -164.26 876.81 -166.21 875.15 C-166.82 874.63 -167.44 874.11 -168.07 873.58 C-169.46 872.15 -169.46 872.15 -169.46 870.15 C-169.99 869.94 -170.53 869.73 -171.08 869.52 C-174.38 867.61 -177.05 865.1 -179.46 862.15 C-179.46 861.49 -179.46 860.83 -179.46 860.15 C-180.12 860.15 -180.78 860.15 -181.46 860.15 C-183.08 858.77 -183.08 858.77 -184.46 857.15 C-184.46 856.49 -184.46 855.83 -184.46 855.15 C-185.12 855.15 -185.78 855.15 -186.46 855.15 C-191.46 849.67 -191.46 849.67 -191.46 847.15 C-192.12 847.15 -192.78 847.15 -193.46 847.15 C-194.97 845.47 -194.97 845.47 -196.58 843.27 C-197.12 842.55 -197.66 841.83 -198.22 841.09 C-199.46 839.15 -199.46 839.15 -199.46 837.15 C-200.12 837.15 -200.78 837.15 -201.46 837.15 C-204.46 832.76 -204.46 832.76 -204.46 830.15 C-205.12 830.15 -205.78 830.15 -206.46 830.15 C-215.43 818.58 -215.43 818.58 -216.46 812.15 C-217.12 812.15 -217.78 812.15 -218.46 812.15 C-218.79 810.5 -219.12 808.85 -219.46 807.15 C-220.12 807.15 -220.78 807.15 -221.46 807.15 C-221.93 806.19 -222.4 805.24 -222.88 804.26 C-223.51 802.99 -224.14 801.72 -224.77 800.46 C-225.08 799.83 -225.39 799.21 -225.71 798.56 C-227.08 795.8 -228.48 793.11 -230.07 790.47 C-231.42 788.21 -232.39 786.04 -233.33 783.58 C-234.79 779.84 -236.31 776.15 -237.9 772.46 C-240.82 765.48 -243.13 758.34 -245.46 751.15 C-246 749.56 -246.54 747.98 -247.08 746.4 C-252.74 729.34 -256.35 711.54 -257.11 693.59 C-257.48 687.4 -258.53 681.27 -259.46 675.15 C-260.32 675.13 -261.18 675.11 -262.07 675.09 C-265.34 675.01 -268.61 674.92 -271.88 674.83 C-273.28 674.79 -274.68 674.76 -276.08 674.72 C-296.74 674.25 -314.3 671.66 -331.46 659.15 C-332.45 658.49 -333.44 657.83 -334.46 657.15 C-334.46 656.49 -334.46 655.83 -334.46 655.15 C-335.1 654.88 -335.74 654.61 -336.4 654.33 C-338.46 653.15 -338.46 653.15 -339.46 650.15 C-340.12 650.15 -340.78 650.15 -341.46 650.15 C-344.46 646.68 -344.46 646.68 -344.46 644.15 C-345.12 644.15 -345.78 644.15 -346.46 644.15 C-348.48 640.16 -350.48 636.16 -352.46 632.15 C-353.06 630.95 -353.06 630.95 -353.68 629.73 C-358.79 619.07 -358.77 607.82 -358.76 596.22 C-358.76 594.69 -358.77 593.17 -358.77 591.65 C-358.78 588.47 -358.78 585.3 -358.77 582.12 C-358.77 578.09 -358.79 574.06 -358.81 570.02 C-358.82 566.88 -358.82 563.74 -358.82 560.6 C-358.82 559.12 -358.83 557.63 -358.84 556.15 C-358.95 537 -354.01 521.97 -343.46 506.15 C-342.8 506.15 -342.14 506.15 -341.46 506.15 C-341.03 505.28 -341.03 505.28 -340.58 504.4 C-339.54 502.31 -338.5 500.23 -337.46 498.15 C-338.12 497.53 -338.78 496.91 -339.46 496.27 C-341.46 494.15 -341.46 494.15 -341.46 492.15 C-342.12 492.15 -342.78 492.15 -343.46 492.15 C-356 477.25 -358.77 458.57 -358.72 439.83 C-358.72 438.32 -358.72 436.8 -358.73 435.29 C-358.74 431.21 -358.73 427.13 -358.73 423.06 C-358.72 418.76 -358.73 414.47 -358.73 410.18 C-358.73 402.97 -358.73 395.76 -358.72 388.54 C-358.71 380.25 -358.71 371.95 -358.72 363.65 C-358.73 356.49 -358.73 349.33 -358.73 342.17 C-358.72 337.91 -358.72 333.65 -358.73 329.39 C-358.74 325.38 -358.73 321.37 -358.72 317.35 C-358.72 315.89 -358.72 314.43 -358.72 312.98 C-358.76 298.71 -357.46 284.89 -353.46 271.15 C-353.28 270.53 -353.1 269.91 -352.92 269.27 C-347.46 250.62 -339.54 234.16 -328.46 218.15 C-327.8 217.16 -327.14 216.18 -326.47 215.17 C-325.84 214.26 -325.22 213.34 -324.58 212.4 C-324.03 211.58 -323.47 210.76 -322.9 209.91 C-322.43 209.33 -321.95 208.75 -321.46 208.15 C-320.8 208.15 -320.14 208.15 -319.46 208.15 C-319.21 207.59 -318.96 207.03 -318.71 206.46 C-317.23 203.72 -315.52 201.47 -313.46 199.15 C-312.8 199.15 -312.14 199.15 -311.46 199.15 C-311.21 198.56 -310.96 197.98 -310.71 197.38 C-309.27 194.81 -307.68 193.31 -305.46 191.4 C-304.76 190.78 -304.06 190.17 -303.33 189.54 C-301.46 188.15 -301.46 188.15 -299.46 188.15 C-299.46 187.49 -299.46 186.83 -299.46 186.15 C-296 183.15 -296 183.15 -293.46 183.15 C-293.46 182.49 -293.46 181.83 -293.46 181.15 C-289.07 178.15 -289.07 178.15 -286.46 178.15 C-286.46 177.49 -286.46 176.83 -286.46 176.15 C-285.51 175.61 -284.56 175.07 -283.58 174.52 C-281.42 173.29 -279.27 172.03 -277.15 170.72 C-272.74 167.99 -268.57 165.78 -263.71 163.96 C-256.06 160.62 -254.06 154 -251.03 146.71 C-246.41 136.23 -239.97 126.53 -233.46 117.15 C-233.03 116.52 -232.61 115.9 -232.17 115.26 C-230.81 113.3 -229.45 111.35 -228.08 109.4 C-227.65 108.77 -227.23 108.15 -226.78 107.51 C-225.73 106.02 -224.6 104.58 -223.46 103.15 C-222.8 103.15 -222.14 103.15 -221.46 103.15 C-221.25 102.46 -221.05 101.78 -220.83 101.08 C-219.03 97.23 -216.56 94.07 -213.46 91.15 C-212.8 91.15 -212.14 91.15 -211.46 91.15 C-211.2 90.57 -210.95 89.99 -210.69 89.39 C-209.33 86.92 -207.82 85.25 -205.83 83.25 C-205.13 82.55 -204.42 81.84 -203.69 81.11 C-202.96 80.38 -202.22 79.65 -201.46 78.9 C-200.72 78.15 -199.98 77.41 -199.22 76.64 C-198.52 75.93 -197.81 75.23 -197.08 74.5 C-196.44 73.86 -195.79 73.21 -195.12 72.55 C-193.46 71.15 -193.46 71.15 -191.46 71.15 C-191.13 70.16 -190.8 69.17 -190.46 68.15 C-188.46 66.32 -188.46 66.32 -186.02 64.46 C-185.22 63.84 -184.41 63.21 -183.59 62.57 C-181.46 61.15 -181.46 61.15 -179.46 61.15 C-179.13 60.16 -178.8 59.17 -178.46 58.15 C-176.24 56.32 -176.24 56.32 -173.52 54.46 C-172.18 53.52 -172.18 53.52 -170.81 52.57 C-168.46 51.15 -168.46 51.15 -166.46 51.15 C-166.46 50.49 -166.46 49.83 -166.46 49.15 C-164.26 47.56 -164.26 47.56 -161.33 45.77 C-158.15 43.81 -155.01 41.87 -151.96 39.71 C-149.46 38.15 -149.46 38.15 -146.46 38.15 C-146.46 37.49 -146.46 36.83 -146.46 36.15 C-145.59 35.71 -144.72 35.27 -143.82 34.82 C-142.96 34.4 -142.96 34.4 -142.09 33.96 C-140.82 33.33 -139.55 32.69 -138.27 32.06 C-135.32 30.58 -132.38 29.11 -129.45 27.59 C-114.35 19.82 -98.02 13.01 -81.46 9.15 C-79.81 8.63 -78.17 8.11 -76.52 7.58 C-72.5 6.35 -68.7 5.75 -64.52 5.39 C-62.23 5.18 -62.23 5.18 -59.21 4.21 C-50.55 1.75 -41.79 1.01 -32.84 0.6 C-31.92 0.55 -31.01 0.51 -30.06 0.47 C-20.04 0.04 -10.03 -0 0 0 Z M38.54 926.15 C38.54 927.14 38.54 928.13 38.54 929.15 C53.39 929.15 68.24 929.15 83.54 929.15 C83.54 928.82 83.54 928.49 83.54 928.15 C69.02 928.15 54.5 928.15 39.54 928.15 C39.21 927.49 38.88 926.83 38.54 926.15 Z " fill="#4C8DB5" transform="translate(578.45849609375,165.854736328125)"/>
<path d="M0 0 C5.94 0.12 11.89 0.24 17.83 0.37 C19.86 0.42 21.88 0.46 23.9 0.5 C26.81 0.55 29.71 0.62 32.62 0.68 C33.98 0.71 33.98 0.71 35.37 0.73 C36.21 0.75 37.05 0.77 37.92 0.79 C38.66 0.81 39.4 0.83 40.17 0.84 C42 1 42 1 44 2 C44.83 4.66 45.54 7.34 46.22 10.04 C49.03 14.72 53.04 16.88 58 19 C62.55 19.81 67 19.79 71.62 19.72 C72.97 19.72 74.33 19.73 75.69 19.74 C79.4 19.75 83.1 19.73 86.81 19.7 C90.81 19.67 94.82 19.68 98.82 19.68 C105.75 19.69 112.68 19.67 119.62 19.63 C129.64 19.59 139.66 19.57 149.68 19.56 C165.94 19.55 182.2 19.51 198.46 19.45 C214.26 19.4 230.05 19.36 245.84 19.33 C246.81 19.33 247.79 19.33 248.79 19.32 C253.68 19.32 258.57 19.31 263.45 19.3 C303.97 19.24 344.48 19.13 385 19 C385.65 20.59 386.29 22.19 386.94 23.78 C387.3 24.67 387.66 25.56 388.03 26.47 C389.18 29.46 390 32.43 390.69 35.56 C390.92 36.57 391.15 37.59 391.39 38.63 C392.91 47 393.27 55.37 393.55 63.85 C393.6 65.08 393.64 66.31 393.68 67.57 C394.09 80.51 394.14 93.43 394.13 106.37 C394.13 108.97 394.13 111.57 394.13 114.17 C394.14 120.43 394.14 126.69 394.14 132.94 C394.13 138.04 394.13 143.13 394.13 148.23 C394.13 149.33 394.13 149.33 394.13 150.45 C394.13 151.94 394.13 153.43 394.14 154.92 C394.14 168.79 394.13 182.67 394.13 196.55 C394.12 208.39 394.13 220.23 394.13 232.07 C394.14 245.91 394.14 259.75 394.13 273.59 C394.13 275.07 394.13 276.56 394.13 278.04 C394.13 278.77 394.13 279.5 394.13 280.25 C394.13 285.32 394.13 290.4 394.14 295.47 C394.14 302.33 394.14 309.2 394.13 316.06 C394.13 318.55 394.13 321.05 394.13 323.54 C394.14 336.03 394.02 348.49 393.57 360.97 C393.51 362.53 393.51 362.53 393.45 364.12 C391.36 415.39 371.52 466.05 338 505 C336.95 506.23 335.91 507.46 334.86 508.7 C325.64 519.51 316.12 529.11 305 538 C303.15 539.54 301.29 541.08 299.44 542.62 C259.04 575.5 208.82 591.78 157.22 594.14 C150.2 594.55 144.18 595.67 139.16 600.93 C138.8 601.57 138.44 602.21 138.06 602.88 C137.68 603.51 137.3 604.15 136.91 604.8 C135.68 607.55 135.68 607.55 135 613 C120.48 613 105.96 613 91 613 C88.69 608.38 86.38 603.76 84 599 C76.19 593.14 65.38 593.69 55.88 593.06 C13.89 589.92 -26.28 575.99 -61 552 C-61.56 551.62 -62.13 551.23 -62.71 550.84 C-72.02 544.5 -80.61 537.5 -89 530 C-89.87 529.22 -89.87 529.22 -90.76 528.43 C-97.25 522.61 -103.44 516.72 -109 510 C-109.83 509.05 -110.66 508.09 -111.51 507.11 C-156.13 455.75 -169.38 394.25 -169.24 327.9 C-169.23 323.09 -169.23 318.27 -169.23 313.45 C-169.23 305.39 -169.22 297.32 -169.21 289.26 C-169.19 279.93 -169.18 270.61 -169.19 261.28 C-169.19 251.33 -169.18 241.37 -169.17 231.42 C-169.17 228.55 -169.17 225.69 -169.17 222.82 C-169.17 218.34 -169.16 213.86 -169.15 209.37 C-169.15 207.73 -169.15 206.08 -169.15 204.43 C-169.15 202.19 -169.14 199.95 -169.13 197.71 C-169.13 196.46 -169.13 195.2 -169.13 193.91 C-169 191 -169 191 -168 189 C-165.9 187.88 -163.77 186.83 -161.62 185.81 C-124.24 167.62 -95.31 133.09 -81.45 94.18 C-78.21 84.63 -75.86 74.91 -74 65 C-73.78 63.86 -73.57 62.73 -73.35 61.55 C-71.22 48.2 -71.33 34.5 -71 21 C-68.44 19.72 -66.61 19.87 -63.74 19.86 C-62.1 19.85 -62.1 19.85 -60.41 19.84 C-59.22 19.83 -58.03 19.83 -56.8 19.82 C-54.29 19.8 -51.77 19.78 -49.26 19.75 C-45.29 19.72 -41.32 19.69 -37.34 19.67 C-33.52 19.66 -29.69 19.62 -25.86 19.57 C-24.68 19.58 -23.5 19.58 -22.28 19.58 C-15.64 19.48 -11.37 19.03 -6 15 C-3.05 11.58 -1.8 8.64 -0.89 4.29 C-0.72 3.49 -0.55 2.68 -0.38 1.85 C-0.25 1.24 -0.13 0.63 0 0 Z " fill="#FBDCC6" transform="translate(527,481)"/>
<path d="M0 0 C2.05 -0 4.1 -0.01 6.15 -0.01 C11.65 -0.02 17.15 -0.02 22.64 -0.02 C26.08 -0.02 29.53 -0.02 32.97 -0.03 C44.99 -0.04 57.01 -0.04 69.04 -0.04 C80.22 -0.04 91.41 -0.05 102.6 -0.07 C112.23 -0.08 121.87 -0.08 131.51 -0.08 C137.25 -0.08 142.99 -0.09 148.74 -0.1 C154.12 -0.11 159.51 -0.11 164.9 -0.1 C166.87 -0.1 168.84 -0.1 170.82 -0.11 C173.51 -0.11 176.21 -0.11 178.91 -0.1 C179.69 -0.11 180.46 -0.11 181.27 -0.12 C187.9 -0.08 194.15 1.03 199.54 5.15 C203.76 9.73 204.54 11.56 204.54 18.15 C218.73 17.82 232.92 17.49 247.54 17.15 C248.2 14.84 248.86 12.53 249.54 10.15 C250.94 7.93 250.94 7.93 252.48 6.21 C252.98 5.62 253.49 5.03 254.01 4.43 C255.54 3.15 255.54 3.15 258.54 3.15 C258.54 2.49 258.54 1.83 258.54 1.15 C264.91 0 271.17 0 277.62 0.01 C279.38 0.01 279.38 0.01 281.16 0.01 C283.64 0.01 286.11 0.01 288.58 0.01 C292.3 0.02 296.03 0.01 299.75 0.01 C336.1 -0.01 336.1 -0.01 350.04 3.46 C350.93 3.66 351.81 3.86 352.72 4.07 C358.12 5.34 363.16 7.06 368.27 9.22 C370.54 10.15 372.82 10.91 375.17 11.65 C379.54 13.07 383.47 15.02 387.54 17.15 C389.6 18.17 391.67 19.19 393.73 20.21 C401.24 23.92 401.24 23.92 404.54 26.15 C404.54 26.81 404.54 27.47 404.54 28.15 C405.23 28.37 405.92 28.6 406.64 28.84 C410.17 30.43 413.03 32.62 416.04 35.02 C416.6 35.45 417.15 35.89 417.73 36.34 C418.82 37.19 419.91 38.05 420.99 38.92 C422.46 40.08 423.95 41.21 425.45 42.34 C426.14 42.94 426.83 43.53 427.54 44.15 C427.54 44.81 427.54 45.47 427.54 46.15 C428.2 46.15 428.86 46.15 429.54 46.15 C429.54 46.81 429.54 47.47 429.54 48.15 C430.53 48.48 431.52 48.81 432.54 49.15 C432.54 49.81 432.54 50.47 432.54 51.15 C433.2 51.15 433.86 51.15 434.54 51.15 C434.54 51.81 434.54 52.47 434.54 53.15 C435.53 53.48 436.52 53.81 437.54 54.15 C437.54 54.81 437.54 55.47 437.54 56.15 C438.2 56.15 438.86 56.15 439.54 56.15 C441.14 57.96 442.59 59.78 444.04 61.71 C444.48 62.29 444.92 62.87 445.38 63.48 C454.06 75.1 461.48 86.94 467.54 100.15 C468.27 101.72 468.27 101.72 469.01 103.33 C472.25 110.74 474.48 118.33 476.54 126.15 C476.83 127.17 477.12 128.19 477.42 129.24 C479.16 135.62 479.99 141.73 480.33 148.33 C480.44 151.01 480.44 151.01 481.04 152.98 C485.37 171.82 480.96 194.91 475.54 213.15 C474.59 216.45 473.64 219.75 472.79 223.07 C470.1 232.86 465.51 241.35 460.54 250.15 C460.2 250.76 459.85 251.38 459.49 252.01 C457.42 255.68 455.25 259.28 452.98 262.83 C452.4 263.74 451.82 264.66 451.23 265.59 C448.18 270.2 448.18 270.2 446.54 272.15 C445.88 272.15 445.22 272.15 444.54 272.15 C444.36 272.83 444.17 273.51 443.98 274.21 C442.26 277.73 440.03 279.84 437.2 282.5 C435.33 284.25 435.33 284.25 433.54 287.15 C432.88 287.15 432.22 287.15 431.54 287.15 C431.54 287.81 431.54 288.47 431.54 289.15 C430.08 290.65 430.08 290.65 428.17 292.27 C427.23 293.08 427.23 293.08 426.27 293.9 C424.54 295.15 424.54 295.15 422.54 295.15 C422.54 295.81 422.54 296.47 422.54 297.15 C420.49 298.87 418.44 300.49 416.29 302.08 C415.41 302.75 415.41 302.75 414.51 303.42 C413.37 304.29 412.23 305.14 411.08 305.99 C409.8 306.95 408.55 307.95 407.31 308.96 C405.54 310.15 405.54 310.15 402.54 310.15 C402.54 310.81 402.54 311.47 402.54 312.15 C399.74 313.55 396.94 314.95 394.13 316.35 C391.66 317.58 389.2 318.82 386.73 320.07 C385.79 320.54 385.79 320.54 384.84 321.02 C383.05 321.92 381.26 322.82 379.48 323.73 C376.54 325.15 376.54 325.15 373.54 326.15 C374.56 331.63 375.74 336.85 377.54 342.15 C382.15 359.42 381.87 377.45 381.96 395.18 C381.97 397.65 381.99 400.11 382.01 402.57 C382.07 408.99 382.1 415.42 382.14 421.84 C382.18 428.41 382.23 434.99 382.28 441.57 C382.38 454.43 382.46 467.29 382.54 480.15 C383.79 480.16 385.04 480.17 386.33 480.19 C391.01 480.25 395.69 480.33 400.36 480.41 C402.38 480.44 404.4 480.47 406.42 480.49 C409.33 480.53 412.24 480.58 415.16 480.63 C416.05 480.64 416.94 480.65 417.85 480.65 C433.62 481.02 448 488.76 459.54 499.15 C460.11 499.66 460.68 500.17 461.26 500.69 C462.67 502.02 462.67 502.02 464.54 504.15 C464.54 504.81 464.54 505.47 464.54 506.15 C465.2 506.15 465.86 506.15 466.54 506.15 C471.49 512.02 474.6 519.11 477.54 526.15 C477.87 526.92 478.2 527.7 478.54 528.51 C482.14 538 481.84 548.14 481.81 558.15 C481.81 559.67 481.81 561.2 481.81 562.73 C481.82 565.91 481.81 569.09 481.8 572.28 C481.79 576.33 481.8 580.38 481.81 584.43 C481.82 587.58 481.81 590.73 481.81 593.88 C481.81 595.37 481.81 596.86 481.81 598.35 C481.86 617.68 477.78 631.29 466.54 647.15 C465.88 648.14 465.22 649.13 464.54 650.15 C463.88 650.15 463.22 650.15 462.54 650.15 C462.27 650.78 462.01 651.42 461.73 652.08 C460.54 654.15 460.54 654.15 457.54 655.15 C457.54 655.81 457.54 656.47 457.54 657.15 C439.32 671.56 419.64 674.26 397.1 674.77 C395.68 674.81 394.25 674.85 392.83 674.89 C389.4 674.98 385.97 675.07 382.54 675.15 C381.37 682.21 380.36 689.11 380.17 696.27 C379.79 705.04 378.02 713.33 376.05 721.87 C375 726.57 374.14 731.31 373.25 736.04 C372.59 738.92 371.7 741.44 370.54 744.15 C370.08 745.74 369.61 747.33 369.17 748.93 C367.03 756.48 364.86 763.89 361.53 771 C360.51 773.2 359.65 775.44 358.79 777.71 C356.15 784.4 352.82 790.75 349.56 797.15 C347.87 800.47 346.21 803.81 344.54 807.15 C343.88 807.15 343.22 807.15 342.54 807.15 C342.21 808.8 341.88 810.45 341.54 812.15 C340.88 812.15 340.22 812.15 339.54 812.15 C339.45 812.69 339.35 813.23 339.26 813.79 C338.33 816.84 336.82 819.2 335.1 821.9 C334.18 823.37 334.18 823.37 333.23 824.88 C332.67 825.63 332.12 826.37 331.54 827.15 C330.88 827.15 330.22 827.15 329.54 827.15 C329.46 827.68 329.38 828.22 329.29 828.77 C328.27 832.02 326.58 834.43 324.54 837.15 C323.88 837.15 323.22 837.15 322.54 837.15 C322.29 837.68 322.05 838.22 321.79 838.77 C320.23 841.73 318.51 844.44 316.54 847.15 C315.88 847.15 315.22 847.15 314.54 847.15 C314.27 847.72 314.01 848.3 313.73 848.9 C312.51 851.2 311.24 853.17 309.54 855.15 C308.88 855.15 308.22 855.15 307.54 855.15 C307.27 855.78 307.01 856.42 306.73 857.08 C305.54 859.15 305.54 859.15 302.54 860.15 C302.27 860.7 302.01 861.26 301.73 861.83 C300.01 865.18 297.46 867.77 294.54 870.15 C293.88 870.15 293.22 870.15 292.54 870.15 C292.21 871.14 291.88 872.13 291.54 873.15 C290.88 873.15 290.22 873.15 289.54 873.15 C289.54 873.81 289.54 874.47 289.54 875.15 C287.97 876.58 286.33 877.95 284.67 879.27 C283.67 880.07 282.67 880.86 281.65 881.68 C280.62 882.49 279.6 883.31 278.54 884.15 C277.59 884.93 276.64 885.71 275.65 886.52 C274.77 887.24 273.89 887.96 272.98 888.71 C272.17 889.37 271.37 890.03 270.54 890.71 C268.54 892.15 268.54 892.15 266.54 892.15 C266.54 892.81 266.54 893.47 266.54 894.15 C262.16 897.15 262.16 897.15 259.54 897.15 C259.54 897.81 259.54 898.47 259.54 899.15 C257.86 900.38 257.86 900.38 255.52 901.75 C254.66 902.26 253.8 902.77 252.92 903.29 C252.01 903.82 251.1 904.35 250.17 904.9 C248.86 905.66 248.86 905.66 247.53 906.45 C245.76 907.49 243.99 908.53 242.22 909.57 C238.74 911.61 235.29 913.7 231.84 915.8 C225.47 919.53 218.85 922.52 211.97 925.18 C209.66 926.1 207.42 927.1 205.17 928.15 C200.76 930.14 196.24 931.65 191.63 933.12 C189.3 933.89 187.04 934.73 184.76 935.63 C180.3 937.32 175.77 938.32 171.1 939.27 C165.91 939.93 165.91 939.93 161.54 942.15 C160.17 942.33 158.79 942.47 157.42 942.58 C154.55 942.87 152.14 943.26 149.35 944.08 C138.53 947.1 127.28 947.52 116.1 947.83 C114.79 947.88 113.49 947.93 112.14 947.98 C101.73 948.3 94.41 948.44 86.54 941.15 C83.22 936.99 83.54 935.91 83.54 930.15 C69.02 930.15 54.5 930.15 39.54 930.15 C39.54 932.13 39.54 934.11 39.54 936.15 C38.4 938.38 38.4 938.38 36.85 940.33 C36.36 940.99 35.86 941.64 35.34 942.31 C29.85 947.9 23.98 947.91 16.54 948.15 C12.51 948.18 8.5 948.07 4.48 947.9 C3.41 947.85 2.33 947.81 1.23 947.76 C-22.57 946.59 -22.57 946.59 -29.46 943.15 C-30.72 943.04 -31.97 942.94 -33.27 942.83 C-38.46 942.31 -43.17 940.79 -48.12 939.18 C-51.28 938.2 -54.43 937.4 -57.65 936.65 C-62.26 935.53 -66.51 934.03 -70.88 932.18 C-73.77 931.02 -76.68 930.08 -79.65 929.15 C-83.05 928.04 -86.14 926.92 -89.21 925.08 C-92.15 923.33 -94.95 922.26 -98.17 921.11 C-102.12 919.44 -105.71 917.17 -109.39 914.97 C-112.19 913.3 -115.02 911.74 -117.9 910.21 C-122.21 907.87 -126.45 905.43 -130.65 902.9 C-131.75 902.23 -132.86 901.56 -134 900.88 C-134.81 900.31 -135.62 899.73 -136.46 899.15 C-136.46 898.49 -136.46 897.83 -136.46 897.15 C-137.24 896.84 -138.03 896.53 -138.83 896.21 C-141.46 895.15 -141.46 895.15 -143.46 894.15 C-143.46 893.49 -143.46 892.83 -143.46 892.15 C-144.17 891.9 -144.89 891.65 -145.63 891.4 C-148.77 890.01 -151.1 888.3 -153.77 886.15 C-154.65 885.44 -155.54 884.74 -156.45 884.02 C-157.44 883.09 -157.44 883.09 -158.46 882.15 C-158.46 881.49 -158.46 880.83 -158.46 880.15 C-159.04 879.88 -159.62 879.61 -160.22 879.33 C-162.49 878.13 -164.26 876.81 -166.21 875.15 C-166.82 874.63 -167.44 874.11 -168.07 873.58 C-169.46 872.15 -169.46 872.15 -169.46 870.15 C-169.99 869.94 -170.53 869.73 -171.08 869.52 C-174.38 867.61 -177.05 865.1 -179.46 862.15 C-179.46 861.49 -179.46 860.83 -179.46 860.15 C-180.12 860.15 -180.78 860.15 -181.46 860.15 C-183.08 858.77 -183.08 858.77 -184.46 857.15 C-184.46 856.49 -184.46 855.83 -184.46 855.15 C-185.12 855.15 -185.78 855.15 -186.46 855.15 C-191.46 849.67 -191.46 849.67 -191.46 847.15 C-192.12 847.15 -192.78 847.15 -193.46 847.15 C-194.97 845.47 -194.97 845.47 -196.58 843.27 C-197.12 842.55 -197.66 841.83 -198.22 841.09 C-199.46 839.15 -199.46 839.15 -199.46 837.15 C-200.12 837.15 -200.78 837.15 -201.46 837.15 C-204.46 832.76 -204.46 832.76 -204.46 830.15 C-205.12 830.15 -205.78 830.15 -206.46 830.15 C-215.43 818.58 -215.43 818.58 -216.46 812.15 C-217.12 812.15 -217.78 812.15 -218.46 812.15 C-218.79 810.5 -219.12 808.85 -219.46 807.15 C-220.12 807.15 -220.78 807.15 -221.46 807.15 C-221.93 806.19 -222.4 805.24 -222.88 804.26 C-223.51 802.99 -224.14 801.72 -224.77 800.46 C-225.08 799.83 -225.39 799.21 -225.71 798.56 C-227.08 795.8 -228.48 793.11 -230.07 790.47 C-231.42 788.21 -232.39 786.04 -233.33 783.58 C-234.79 779.84 -236.31 776.15 -237.9 772.46 C-240.82 765.48 -243.13 758.34 -245.46 751.15 C-246 749.56 -246.54 747.98 -247.08 746.4 C-252.74 729.34 -256.35 711.54 -257.11 693.59 C-257.48 687.4 -258.53 681.27 -259.46 675.15 C-260.32 675.13 -261.18 675.11 -262.07 675.09 C-265.34 675.01 -268.61 674.92 -271.88 674.83 C-273.28 674.79 -274.68 674.76 -276.08 674.72 C-296.74 674.25 -314.3 671.66 -331.46 659.15 C-332.45 658.49 -333.44 657.83 -334.46 657.15 C-334.46 656.49 -334.46 655.83 -334.46 655.15 C-335.1 654.88 -335.74 654.61 -336.4 654.33 C-338.46 653.15 -338.46 653.15 -339.46 650.15 C-340.12 650.15 -340.78 650.15 -341.46 650.15 C-344.46 646.68 -344.46 646.68 -344.46 644.15 C-345.12 644.15 -345.78 644.15 -346.46 644.15 C-348.48 640.16 -350.48 636.16 -352.46 632.15 C-353.06 630.95 -353.06 630.95 -353.68 629.73 C-358.79 619.07 -358.77 607.82 -358.76 596.22 C-358.76 594.69 -358.77 593.17 -358.77 591.65 C-358.78 588.47 -358.78 585.3 -358.77 582.12 C-358.77 578.09 -358.79 574.06 -358.81 570.02 C-358.82 566.88 -358.82 563.74 -358.82 560.6 C-358.82 559.12 -358.83 557.63 -358.84 556.15 C-358.95 537 -354.01 521.97 -343.46 506.15 C-342.8 506.15 -342.14 506.15 -341.46 506.15 C-341.03 505.28 -341.03 505.28 -340.58 504.4 C-339.54 502.31 -338.5 500.23 -337.46 498.15 C-338.12 497.53 -338.78 496.91 -339.46 496.27 C-341.46 494.15 -341.46 494.15 -341.46 492.15 C-342.12 492.15 -342.78 492.15 -343.46 492.15 C-356 477.25 -358.77 458.57 -358.72 439.83 C-358.72 438.32 -358.72 436.8 -358.73 435.29 C-358.74 431.21 -358.73 427.13 -358.73 423.06 C-358.72 418.76 -358.73 414.47 -358.73 410.18 C-358.73 402.97 -358.73 395.76 -358.72 388.54 C-358.71 380.25 -358.71 371.95 -358.72 363.65 C-358.73 356.49 -358.73 349.33 -358.73 342.17 C-358.72 337.91 -358.72 333.65 -358.73 329.39 C-358.74 325.38 -358.73 321.37 -358.72 317.35 C-358.72 315.89 -358.72 314.43 -358.72 312.98 C-358.76 298.71 -357.46 284.89 -353.46 271.15 C-353.28 270.53 -353.1 269.91 -352.92 269.27 C-347.46 250.62 -339.54 234.16 -328.46 218.15 C-327.8 217.16 -327.14 216.18 -326.47 215.17 C-325.84 214.26 -325.22 213.34 -324.58 212.4 C-324.03 211.58 -323.47 210.76 -322.9 209.91 C-322.43 209.33 -321.95 208.75 -321.46 208.15 C-320.8 208.15 -320.14 208.15 -319.46 208.15 C-319.21 207.59 -318.96 207.03 -318.71 206.46 C-317.23 203.72 -315.52 201.47 -313.46 199.15 C-312.8 199.15 -312.14 199.15 -311.46 199.15 C-311.21 198.56 -310.96 197.98 -310.71 197.38 C-309.27 194.81 -307.68 193.31 -305.46 191.4 C-304.76 190.78 -304.06 190.17 -303.33 189.54 C-301.46 188.15 -301.46 188.15 -299.46 188.15 C-299.46 187.49 -299.46 186.83 -299.46 186.15 C-296 183.15 -296 183.15 -293.46 183.15 C-293.46 182.49 -293.46 181.83 -293.46 181.15 C-289.07 178.15 -289.07 178.15 -286.46 178.15 C-286.46 177.49 -286.46 176.83 -286.46 176.15 C-285.51 175.61 -284.56 175.07 -283.58 174.52 C-281.42 173.29 -279.27 172.03 -277.15 170.72 C-272.74 167.99 -268.57 165.78 -263.71 163.96 C-256.06 160.62 -254.06 154 -251.03 146.71 C-246.41 136.23 -239.97 126.53 -233.46 117.15 C-233.03 116.52 -232.61 115.9 -232.17 115.26 C-230.81 113.3 -229.45 111.35 -228.08 109.4 C-227.65 108.77 -227.23 108.15 -226.78 107.51 C-225.73 106.02 -224.6 104.58 -223.46 103.15 C-222.8 103.15 -222.14 103.15 -221.46 103.15 C-221.25 102.46 -221.05 101.78 -220.83 101.08 C-219.03 97.23 -216.56 94.07 -213.46 91.15 C-212.8 91.15 -212.14 91.15 -211.46 91.15 C-211.2 90.57 -210.95 89.99 -210.69 89.39 C-209.33 86.92 -207.82 85.25 -205.83 83.25 C-205.13 82.55 -204.42 81.84 -203.69 81.11 C-202.96 80.38 -202.22 79.65 -201.46 78.9 C-200.72 78.15 -199.98 77.41 -199.22 76.64 C-198.52 75.93 -197.81 75.23 -197.08 74.5 C-196.44 73.86 -195.79 73.21 -195.12 72.55 C-193.46 71.15 -193.46 71.15 -191.46 71.15 C-191.13 70.16 -190.8 69.17 -190.46 68.15 C-188.46 66.32 -188.46 66.32 -186.02 64.46 C-185.22 63.84 -184.41 63.21 -183.59 62.57 C-181.46 61.15 -181.46 61.15 -179.46 61.15 C-179.13 60.16 -178.8 59.17 -178.46 58.15 C-176.24 56.32 -176.24 56.32 -173.52 54.46 C-172.18 53.52 -172.18 53.52 -170.81 52.57 C-168.46 51.15 -168.46 51.15 -166.46 51.15 C-166.46 50.49 -166.46 49.83 -166.46 49.15 C-164.26 47.56 -164.26 47.56 -161.33 45.77 C-158.15 43.81 -155.01 41.87 -151.96 39.71 C-149.46 38.15 -149.46 38.15 -146.46 38.15 C-146.46 37.49 -146.46 36.83 -146.46 36.15 C-145.59 35.71 -144.72 35.27 -143.82 34.82 C-142.96 34.4 -142.96 34.4 -142.09 33.96 C-140.82 33.33 -139.55 32.69 -138.27 32.06 C-135.32 30.58 -132.38 29.11 -129.45 27.59 C-114.35 19.82 -98.02 13.01 -81.46 9.15 C-79.81 8.63 -78.17 8.11 -76.52 7.58 C-72.5 6.35 -68.7 5.75 -64.52 5.39 C-62.23 5.18 -62.23 5.18 -59.21 4.21 C-50.55 1.75 -41.79 1.01 -32.84 0.6 C-31.92 0.55 -31.01 0.51 -30.06 0.47 C-20.04 0.04 -10.03 -0 0 0 Z M204.54 19.15 C204.28 19.94 204.03 20.74 203.76 21.56 C203.38 22.62 203 23.68 202.6 24.77 C202.06 26.34 202.06 26.34 201.51 27.93 C198.61 32.66 195.72 35.06 190.54 37.15 C183.98 38.3 177.2 37.95 170.56 37.9 C168.52 37.91 166.48 37.92 164.45 37.93 C158.92 37.95 153.4 37.94 147.88 37.92 C142.08 37.91 136.28 37.93 130.49 37.95 C119.49 37.98 108.49 37.98 97.49 37.97 C81.41 37.95 65.33 37.98 49.25 38.01 C46.86 38.01 44.48 38.02 42.09 38.02 C40.34 38.02 40.34 38.02 38.55 38.03 C31.67 38.04 24.79 38.04 17.91 38.04 C13.6 38.03 9.29 38.03 4.98 38.04 C3.01 38.04 1.03 38.03 -0.95 38.03 C-10.75 38.01 -20.52 38.11 -30.31 38.58 C-31.12 38.62 -31.92 38.66 -32.75 38.7 C-40.13 39.09 -47.27 40.18 -54.52 41.65 C-55.17 41.77 -55.81 41.9 -56.48 42.03 C-88.38 48.4 -118.92 61.28 -145.46 80.15 C-146.43 80.83 -147.4 81.51 -148.4 82.22 C-156.32 87.97 -163.43 94.37 -170.46 101.15 C-171.07 101.73 -171.68 102.32 -172.32 102.92 C-194.43 124.13 -211.82 149.66 -223.65 177.96 C-228.49 189.27 -234.23 192.9 -245.6 197.49 C-256.53 202.03 -266.58 208.33 -275.46 216.15 C-276.26 216.82 -277.07 217.49 -277.9 218.19 C-302.34 239.19 -316.46 269.48 -320.46 301.15 C-320.83 306.42 -320.88 311.67 -320.86 316.95 C-320.87 318.44 -320.88 319.93 -320.88 321.42 C-320.9 325.42 -320.9 329.41 -320.89 333.4 C-320.89 336.75 -320.9 340.11 -320.9 343.46 C-320.92 351.37 -320.92 359.28 -320.9 367.19 C-320.89 375.32 -320.91 383.45 -320.93 391.58 C-320.96 398.6 -320.96 405.62 -320.96 412.64 C-320.95 416.82 -320.96 420.99 -320.97 425.17 C-320.99 429.09 -320.98 433.01 -320.97 436.93 C-320.96 438.36 -320.97 439.79 -320.98 441.22 C-321.04 450.93 -320.48 460.12 -314.21 467.96 C-312.85 469.04 -312.85 469.04 -311.46 470.15 C-310.87 470.65 -310.28 471.15 -309.68 471.66 C-298.47 480.8 -284.33 481.07 -270.46 480.15 C-247.31 477.7 -225.22 469.46 -207.46 454.15 C-206.51 453.34 -205.57 452.54 -204.6 451.72 C-197.14 445.25 -191.15 438.19 -185.46 430.15 C-184.83 429.28 -184.21 428.41 -183.56 427.51 C-167.45 403.76 -160.43 372.26 -160.28 343.9 C-160.26 342.13 -160.24 340.37 -160.21 338.61 C-160.18 335.88 -160.15 333.14 -160.13 330.4 C-160.12 327.73 -160.08 325.06 -160.03 322.4 C-160.03 321.59 -160.04 320.78 -160.04 319.95 C-159.92 314.26 -158.62 309.91 -155.46 305.15 C-152.96 302.77 -152.96 302.77 -150.46 301.15 C-149.91 300.79 -149.36 300.43 -148.79 300.06 C-145.43 298.74 -142.15 298.85 -138.59 298.85 C-137.8 298.85 -137.01 298.84 -136.2 298.83 C-133.59 298.82 -130.98 298.81 -128.38 298.81 C-126.56 298.8 -124.74 298.8 -122.93 298.79 C-119.12 298.78 -115.31 298.77 -111.51 298.77 C-106.64 298.77 -101.77 298.75 -96.9 298.71 C-93.15 298.69 -89.4 298.69 -85.65 298.69 C-83.85 298.69 -82.06 298.68 -80.26 298.66 C-77.75 298.64 -75.23 298.65 -72.72 298.66 C-71.98 298.65 -71.25 298.64 -70.49 298.63 C-64.96 298.69 -61.91 300.11 -57.46 303.15 C-54.27 307.27 -52.19 312.15 -51.96 317.4 C-52.84 323.98 -55.51 327.8 -60.46 332.15 C-63.7 334.15 -66.23 334.41 -70.02 334.45 C-71.14 334.46 -72.25 334.48 -73.4 334.5 C-74.6 334.51 -75.79 334.52 -77.03 334.52 C-78.26 334.54 -79.49 334.56 -80.76 334.58 C-84.03 334.62 -87.31 334.66 -90.58 334.69 C-95.19 334.73 -99.81 334.79 -104.42 334.85 C-106.88 334.88 -109.34 334.91 -111.8 334.93 C-112.9 334.94 -114.01 334.96 -115.15 334.97 C-116.13 334.98 -117.11 334.99 -118.12 335 C-120.48 334.99 -120.48 334.99 -122.46 336.15 C-122.47 337.26 -122.47 337.26 -122.49 338.39 C-122.86 362.19 -124.62 385.49 -132.46 408.15 C-132.99 409.76 -132.99 409.76 -133.54 411.4 C-141.41 433.56 -154.5 452.89 -170.89 469.55 C-172.24 470.93 -173.57 472.33 -174.89 473.73 C-186.77 486.15 -201.24 495.35 -216.69 502.66 C-219.55 503.85 -219.55 503.85 -220.46 506.15 C-220.56 508.37 -220.59 510.6 -220.6 512.82 C-220.6 513.52 -220.6 514.21 -220.61 514.93 C-220.62 517.27 -220.62 519.61 -220.62 521.95 C-220.62 523.62 -220.63 525.3 -220.63 526.97 C-220.65 531.53 -220.65 536.1 -220.66 540.66 C-220.66 543.52 -220.67 546.38 -220.67 549.24 C-220.68 558.22 -220.69 567.19 -220.7 576.16 C-220.7 586.47 -220.72 596.78 -220.75 607.09 C-220.77 615.08 -220.78 623.07 -220.78 631.06 C-220.78 635.82 -220.79 640.58 -220.81 645.34 C-221.05 713.19 -205.52 776.78 -157.95 827.46 C-155.83 829.75 -153.79 832.08 -151.77 834.46 C-148.94 837.72 -145.89 840.53 -142.6 843.31 C-140.3 845.28 -138.11 847.33 -135.9 849.4 C-105.57 876.63 -66.24 895.97 -26.46 904.15 C-25.78 904.29 -25.11 904.43 -24.41 904.58 C-16.32 906.28 -8.21 907.2 0.02 907.89 C0.78 907.95 1.53 908.01 2.31 908.08 C6.15 908.4 9.99 908.7 13.84 908.97 C15.28 909.08 16.71 909.19 18.15 909.3 C19.43 909.39 20.71 909.48 22.02 909.58 C26.44 910.29 30.09 911.55 33.15 914.91 C33.72 915.86 33.72 915.86 34.29 916.83 C34.68 917.46 35.06 918.08 35.46 918.72 C36.94 922.03 37.66 925.63 38.54 929.15 C53.39 929.15 68.24 929.15 83.54 929.15 C84.2 926.18 84.86 923.21 85.54 920.15 C87.79 915.56 90.25 913.24 94.86 911.03 C100.11 909.3 105.65 909.19 111.13 908.85 C143.8 906.78 175.13 899.82 204.54 885.15 C205.29 884.77 206.04 884.4 206.82 884.02 C227.31 873.74 245.75 860.77 262.54 845.15 C263.93 843.93 265.33 842.72 266.73 841.52 C273.2 835.85 278.77 829.8 284.15 823.09 C285.75 821.12 287.37 819.18 289.02 817.26 C294.87 810.46 299.81 803.47 304.49 795.84 C305.46 794.27 306.48 792.72 307.49 791.18 C329.52 757.15 340.69 716.38 342.11 676.1 C342.15 674.98 342.19 673.86 342.24 672.7 C342.66 660.15 342.68 647.6 342.67 635.04 C342.67 632.44 342.67 629.84 342.68 627.24 C342.68 620.98 342.68 614.73 342.68 608.47 C342.67 603.38 342.67 598.28 342.68 593.18 C342.68 592.45 342.68 591.72 342.68 590.97 C342.68 589.48 342.68 587.99 342.68 586.5 C342.68 572.62 342.68 558.74 342.67 544.86 C342.67 533.02 342.67 521.17 342.67 509.33 C342.68 495.5 342.68 481.66 342.68 467.82 C342.68 466.34 342.68 464.86 342.68 463.37 C342.68 462.65 342.68 461.92 342.67 461.16 C342.67 456.09 342.68 451.02 342.68 445.94 C342.68 439.08 342.68 432.22 342.67 425.35 C342.67 422.86 342.67 420.36 342.67 417.87 C342.68 404.99 342.56 392.12 342.16 379.25 C342.13 378.13 342.1 377.01 342.07 375.85 C341.7 365.39 340.31 355.18 337.54 345.08 C337.21 343.85 336.88 342.63 336.54 341.36 C335.72 338.74 334.8 336.56 333.54 334.15 C332.85 334.15 332.17 334.15 331.46 334.15 C290.66 334.29 249.87 334.39 209.08 334.45 C204.18 334.46 199.28 334.47 194.38 334.47 C192.92 334.48 192.92 334.48 191.43 334.48 C175.64 334.51 159.85 334.55 144.06 334.61 C127.86 334.66 111.66 334.7 95.46 334.71 C85.46 334.72 75.46 334.74 65.47 334.79 C58.61 334.82 51.76 334.83 44.9 334.83 C40.94 334.82 36.99 334.83 33.04 334.86 C29.41 334.89 25.79 334.89 22.16 334.87 C20.24 334.87 18.31 334.89 16.39 334.92 C8.51 334.84 2.6 333.43 -3.46 328.15 C-6.41 323.49 -7.14 318.6 -6.46 313.15 C-4.46 307.25 -1.51 303.69 3.54 300.15 C6.55 299.14 8.54 299.02 11.68 299.01 C12.75 299 13.82 299 14.92 298.99 C16.1 298.99 17.28 298.99 18.49 298.99 C20.37 298.99 20.37 298.99 22.28 298.98 C25.76 298.97 29.23 298.96 32.71 298.96 C36.46 298.95 40.2 298.94 43.95 298.93 C50.45 298.91 56.94 298.9 63.44 298.88 C72.85 298.87 82.26 298.84 91.67 298.82 C106.96 298.77 122.25 298.73 137.54 298.7 C138.45 298.7 139.37 298.69 140.31 298.69 C145.88 298.68 151.44 298.66 157.01 298.65 C165.33 298.63 173.66 298.61 181.98 298.59 C182.89 298.59 183.8 298.59 184.74 298.59 C199.96 298.55 215.17 298.51 230.39 298.47 C239.77 298.44 249.15 298.42 258.52 298.4 C264.96 298.39 271.4 298.37 277.84 298.35 C281.55 298.34 285.25 298.33 288.96 298.33 C315.17 298.58 315.17 298.58 341.04 294.96 C342.03 294.74 343.01 294.51 344.03 294.29 C352.26 292.36 359.91 289.82 367.54 286.15 C368.23 285.82 368.93 285.48 369.64 285.14 C379.26 280.49 387.59 275.36 395.54 268.15 C396.57 267.26 397.61 266.39 398.64 265.51 C416.91 249.71 429.93 228.94 436.92 205.9 C437.15 205.12 437.39 204.34 437.64 203.54 C440.93 192.12 441.91 180.74 441.85 168.9 C441.85 166.99 441.85 166.99 441.84 165.04 C441.62 147.04 438.24 129.08 429.54 113.15 C429.09 112.03 428.63 110.92 428.17 109.77 C415.35 81.19 389.13 58.05 360.23 46.83 C342.38 40.18 325.18 38.04 306.18 37.97 C303.66 37.95 301.14 37.92 298.62 37.9 C294.69 37.86 290.76 37.83 286.84 37.82 C283.02 37.8 279.19 37.76 275.37 37.72 C274.2 37.72 273.03 37.72 271.83 37.73 C263.89 37.61 258.13 36.64 252.23 30.9 C250.42 27.94 249.35 25.12 248.35 21.82 C247.95 20.99 247.95 20.99 247.54 20.15 C244.84 19.24 243.3 19.02 240.53 19.03 C239.73 19.03 238.93 19.03 238.1 19.03 C236.81 19.04 236.81 19.04 235.5 19.05 C234.61 19.05 233.73 19.05 232.82 19.05 C230 19.06 227.18 19.07 224.35 19.08 C222.44 19.09 220.53 19.09 218.61 19.1 C213.92 19.11 209.23 19.12 204.54 19.15 Z " fill="#000002" transform="translate(578.45849609375,165.854736328125)"/>
<path d="M0 0 C1.75 -0 1.75 -0 3.54 -0 C6.01 -0 8.48 -0 10.96 0 C14.68 0.01 18.4 0 22.13 -0 C58.48 -0.02 58.48 -0.02 72.42 3.45 C73.3 3.65 74.19 3.85 75.1 4.05 C80.5 5.33 85.54 7.05 90.65 9.21 C92.92 10.13 95.2 10.9 97.54 11.63 C101.92 13.06 105.85 15.01 109.92 17.13 C111.98 18.16 114.04 19.18 116.11 20.2 C123.62 23.91 123.62 23.91 126.92 26.13 C126.92 26.79 126.92 27.45 126.92 28.13 C127.61 28.36 128.3 28.59 129.01 28.83 C132.55 30.42 135.4 32.61 138.42 35.01 C138.97 35.44 139.53 35.88 140.1 36.32 C141.19 37.18 142.28 38.04 143.37 38.91 C144.84 40.07 146.33 41.2 147.82 42.33 C148.52 42.92 149.21 43.52 149.92 44.13 C149.92 44.79 149.92 45.45 149.92 46.13 C150.58 46.13 151.24 46.13 151.92 46.13 C151.92 46.79 151.92 47.45 151.92 48.13 C152.91 48.46 153.9 48.79 154.92 49.13 C154.92 49.79 154.92 50.45 154.92 51.13 C155.58 51.13 156.24 51.13 156.92 51.13 C156.92 51.79 156.92 52.45 156.92 53.13 C157.91 53.46 158.9 53.79 159.92 54.13 C159.92 54.79 159.92 55.45 159.92 56.13 C160.58 56.13 161.24 56.13 161.92 56.13 C163.51 57.95 164.97 59.76 166.42 61.7 C166.86 62.28 167.3 62.86 167.75 63.46 C176.44 75.09 183.85 86.93 189.92 100.13 C190.64 101.71 190.64 101.71 191.38 103.32 C194.62 110.73 196.85 118.32 198.92 126.13 C199.21 127.16 199.5 128.18 199.8 129.23 C201.54 135.61 202.37 141.72 202.71 148.32 C202.82 151 202.82 151 203.42 152.97 C207.74 171.81 203.33 194.9 197.92 213.13 C196.97 216.44 196.02 219.73 195.16 223.06 C192.48 232.85 187.89 241.33 182.92 250.13 C182.57 250.75 182.23 251.36 181.87 252 C179.79 255.67 177.62 259.26 175.36 262.82 C174.78 263.73 174.2 264.64 173.6 265.58 C170.56 270.19 170.56 270.19 168.92 272.13 C168.26 272.13 167.6 272.13 166.92 272.13 C166.73 272.81 166.55 273.49 166.36 274.2 C164.63 277.71 162.41 279.83 159.57 282.48 C157.71 284.23 157.71 284.23 155.92 287.13 C155.26 287.13 154.6 287.13 153.92 287.13 C153.92 287.79 153.92 288.45 153.92 289.13 C152.46 290.64 152.46 290.64 150.54 292.26 C149.92 292.8 149.29 293.34 148.64 293.89 C146.92 295.13 146.92 295.13 144.92 295.13 C144.92 295.79 144.92 296.45 144.92 297.13 C142.87 298.86 140.82 300.48 138.67 302.07 C137.79 302.73 137.79 302.73 136.89 303.41 C135.75 304.27 134.6 305.13 133.46 305.98 C132.18 306.94 130.93 307.94 129.68 308.95 C127.92 310.13 127.92 310.13 124.92 310.13 C124.92 310.79 124.92 311.45 124.92 312.13 C122.11 313.53 119.31 314.94 116.51 316.34 C114.04 317.57 111.57 318.81 109.11 320.05 C108.48 320.37 107.86 320.68 107.21 321.01 C105.43 321.91 103.64 322.81 101.85 323.71 C98.92 325.13 98.92 325.13 95.92 326.13 C96.94 331.62 98.12 336.84 99.92 342.13 C104.53 359.41 104.25 377.43 104.33 395.17 C104.35 397.63 104.37 400.1 104.39 402.56 C104.44 408.98 104.48 415.4 104.52 421.82 C104.56 428.4 104.61 434.98 104.66 441.55 C104.76 454.41 104.84 467.27 104.92 480.13 C106.17 480.15 107.42 480.16 108.71 480.18 C113.38 480.24 118.06 480.31 122.74 480.4 C124.76 480.43 126.77 480.46 128.79 480.48 C131.71 480.51 134.62 480.57 137.54 480.62 C138.42 480.63 139.31 480.63 140.23 480.64 C156 481 170.38 488.75 181.92 499.13 C182.49 499.64 183.05 500.15 183.64 500.68 C185.04 502.01 185.04 502.01 186.92 504.13 C186.92 504.79 186.92 505.45 186.92 506.13 C187.58 506.13 188.24 506.13 188.92 506.13 C193.87 512.01 196.98 519.1 199.92 526.13 C200.25 526.91 200.58 527.69 200.92 528.49 C204.52 537.99 204.22 548.13 204.18 558.13 C204.18 559.66 204.19 561.19 204.19 562.71 C204.19 565.9 204.19 569.08 204.18 572.27 C204.17 576.32 204.17 580.37 204.19 584.42 C204.19 587.57 204.19 590.72 204.19 593.86 C204.18 595.36 204.19 596.85 204.19 598.34 C204.24 617.67 200.15 631.28 188.92 647.13 C188.26 648.12 187.6 649.11 186.92 650.13 C186.26 650.13 185.6 650.13 184.92 650.13 C184.52 651.09 184.52 651.09 184.11 652.07 C182.92 654.13 182.92 654.13 179.92 655.13 C179.92 655.79 179.92 656.45 179.92 657.13 C161.7 671.55 142.01 674.25 119.48 674.76 C118.06 674.8 116.63 674.84 115.21 674.88 C111.78 674.97 108.35 675.05 104.92 675.13 C103.75 682.2 102.73 689.1 102.54 696.26 C102.17 705.03 100.39 713.32 98.43 721.85 C97.38 726.56 96.52 731.3 95.63 736.03 C94.97 738.91 94.07 741.42 92.92 744.13 C92.45 745.73 91.99 747.32 91.54 748.92 C89.41 756.47 87.24 763.87 83.9 770.98 C82.89 773.19 82.03 775.42 81.17 777.7 C78.53 784.38 75.2 790.74 71.93 797.13 C70.24 800.46 68.58 803.8 66.92 807.13 C66.26 807.13 65.6 807.13 64.92 807.13 C64.59 808.78 64.26 810.43 63.92 812.13 C63.26 812.13 62.6 812.13 61.92 812.13 C61.82 812.67 61.73 813.22 61.63 813.77 C60.71 816.83 59.19 819.19 57.48 821.88 C56.86 822.87 56.25 823.85 55.61 824.87 C54.77 825.99 54.77 825.99 53.92 827.13 C53.26 827.13 52.6 827.13 51.92 827.13 C51.84 827.67 51.75 828.21 51.67 828.76 C50.64 832.01 48.95 834.42 46.92 837.13 C46.26 837.13 45.6 837.13 44.92 837.13 C44.55 837.94 44.55 837.94 44.17 838.76 C42.61 841.72 40.88 844.43 38.92 847.13 C38.26 847.13 37.6 847.13 36.92 847.13 C36.52 848 36.52 848 36.11 848.88 C34.89 851.19 33.61 853.15 31.92 855.13 C31.26 855.13 30.6 855.13 29.92 855.13 C29.52 856.09 29.52 856.09 29.11 857.07 C27.92 859.13 27.92 859.13 24.92 860.13 C24.52 860.97 24.52 860.97 24.11 861.82 C22.39 865.17 19.83 867.76 16.92 870.13 C16.26 870.13 15.6 870.13 14.92 870.13 C14.59 871.12 14.26 872.11 13.92 873.13 C13.26 873.13 12.6 873.13 11.92 873.13 C11.92 873.79 11.92 874.45 11.92 875.13 C10.35 876.57 8.71 877.93 7.04 879.26 C6.05 880.05 5.05 880.85 4.02 881.67 C3 882.48 1.97 883.29 0.92 884.13 C-0.03 884.92 -0.99 885.7 -1.97 886.5 C-2.85 887.23 -3.73 887.95 -4.64 888.7 C-5.45 889.36 -6.26 890.02 -7.09 890.7 C-9.08 892.13 -9.08 892.13 -11.08 892.13 C-11.08 892.79 -11.08 893.45 -11.08 894.13 C-15.47 897.13 -15.47 897.13 -18.08 897.13 C-18.08 897.79 -18.08 898.45 -18.08 899.13 C-19.76 900.37 -19.76 900.37 -22.11 901.74 C-22.96 902.25 -23.82 902.76 -24.7 903.28 C-25.61 903.81 -26.52 904.34 -27.46 904.88 C-28.76 905.65 -28.76 905.65 -30.09 906.44 C-31.86 907.48 -33.63 908.52 -35.4 909.56 C-38.88 911.6 -42.33 913.69 -45.78 915.78 C-52.15 919.52 -58.78 922.5 -65.66 925.17 C-67.96 926.09 -70.2 927.09 -72.46 928.13 C-76.87 930.12 -81.39 931.63 -85.99 933.11 C-88.33 933.88 -90.58 934.72 -92.86 935.62 C-97.32 937.31 -101.85 938.3 -106.52 939.26 C-111.71 939.91 -111.71 939.91 -116.08 942.13 C-117.45 942.32 -118.83 942.46 -120.21 942.57 C-123.08 942.86 -125.48 943.25 -128.27 944.07 C-139.09 947.09 -150.35 947.51 -161.52 947.82 C-162.83 947.87 -164.14 947.91 -165.49 947.96 C-175.89 948.29 -183.22 948.43 -191.08 941.13 C-194.5 936.84 -195.44 932.36 -194.83 926.89 C-193.65 920.61 -191.41 916.28 -186.64 911.88 C-179.83 908.53 -172.33 908.28 -164.85 907.75 C-132.72 905.46 -102.01 898.56 -73.08 884.13 C-72.33 883.76 -71.58 883.39 -70.81 883 C-51.27 873.21 -33.21 861.01 -17.2 846.09 C-15.25 844.29 -13.25 842.59 -11.21 840.88 C-0.89 831.85 7.67 821.02 15.92 810.13 C16.6 809.24 17.29 808.35 18 807.44 C46.42 769.66 61.82 723.15 63.49 676.09 C63.53 674.97 63.57 673.84 63.61 672.69 C64.04 660.13 64.06 647.58 64.05 635.02 C64.05 632.43 64.05 629.83 64.05 627.23 C64.06 620.97 64.06 614.72 64.05 608.46 C64.05 603.36 64.05 598.27 64.05 593.17 C64.05 592.44 64.05 591.71 64.05 590.95 C64.05 589.46 64.05 587.98 64.05 586.49 C64.06 572.61 64.05 558.73 64.05 544.85 C64.04 533 64.04 521.16 64.05 509.32 C64.05 495.48 64.06 481.65 64.05 467.81 C64.05 466.33 64.05 464.84 64.05 463.36 C64.05 462.63 64.05 461.9 64.05 461.15 C64.05 456.08 64.05 451 64.05 445.93 C64.06 439.07 64.06 432.2 64.05 425.34 C64.05 422.85 64.05 420.35 64.05 417.86 C64.06 404.98 63.94 392.11 63.53 379.23 C63.5 378.11 63.47 376.99 63.44 375.84 C63.07 365.35 61.68 355.12 58.86 345.01 C58.51 343.77 58.17 342.53 57.82 341.25 C57.23 339.2 56.59 337.16 55.92 335.13 C55.23 335.14 54.54 335.14 53.83 335.14 C13.04 335.27 -27.75 335.38 -68.54 335.44 C-73.44 335.45 -78.34 335.45 -83.24 335.46 C-84.71 335.46 -84.71 335.46 -86.2 335.47 C-101.99 335.49 -117.77 335.54 -133.56 335.6 C-149.76 335.65 -165.97 335.69 -182.17 335.7 C-192.16 335.71 -202.16 335.73 -212.16 335.78 C-219.01 335.81 -225.87 335.82 -232.72 335.81 C-236.68 335.81 -240.63 335.82 -244.59 335.85 C-248.21 335.88 -251.84 335.88 -255.46 335.86 C-257.39 335.85 -259.31 335.88 -261.23 335.91 C-269.1 335.83 -275.07 334.46 -281.08 329.13 C-284.67 323.76 -285.62 319.62 -285.08 313.13 C-283.1 306.97 -279.43 302.72 -274.08 299.13 C-271.08 298.13 -269.08 298 -265.94 298 C-264.88 297.99 -263.81 297.99 -262.7 297.98 C-261.52 297.98 -260.34 297.98 -259.13 297.98 C-257.25 297.97 -257.25 297.97 -255.34 297.97 C-251.87 297.96 -248.39 297.95 -244.91 297.95 C-241.17 297.94 -237.42 297.93 -233.67 297.92 C-227.18 297.9 -220.68 297.89 -214.18 297.87 C-204.77 297.85 -195.36 297.83 -185.95 297.8 C-170.66 297.76 -155.38 297.72 -140.09 297.69 C-139.17 297.68 -138.26 297.68 -137.31 297.68 C-131.75 297.67 -126.18 297.65 -120.62 297.64 C-112.29 297.62 -103.97 297.6 -95.64 297.58 C-94.73 297.58 -93.82 297.58 -92.88 297.57 C-77.67 297.54 -62.45 297.5 -47.23 297.46 C-37.86 297.43 -28.48 297.41 -19.1 297.39 C-12.66 297.38 -6.22 297.36 0.21 297.34 C3.92 297.33 7.63 297.32 11.34 297.32 C37.55 297.56 37.55 297.56 63.42 293.95 C64.4 293.72 65.39 293.5 66.41 293.27 C74.64 291.35 82.29 288.81 89.92 285.13 C90.61 284.8 91.3 284.47 92.02 284.13 C101.64 279.48 109.96 274.34 117.92 267.13 C118.87 266.34 119.82 265.54 120.8 264.72 C138.76 249.21 151.44 228.49 158.29 205.88 C158.53 205.1 158.77 204.33 159.02 203.52 C162.31 192.11 163.29 180.73 163.23 168.88 C163.23 167.61 163.22 166.34 163.22 165.03 C162.99 147.03 159.61 129.07 150.92 113.13 C150.46 112.02 150.01 110.91 149.54 109.76 C136.86 81.46 111.24 58.93 82.61 47.82 C64.75 41.17 47.56 39.03 28.56 38.96 C26.04 38.93 23.51 38.91 20.99 38.88 C17.07 38.85 13.14 38.82 9.22 38.81 C5.39 38.79 1.57 38.75 -2.25 38.71 C-3.42 38.71 -4.59 38.71 -5.79 38.71 C-13.09 38.6 -19.09 37.85 -24.6 32.72 C-28.01 28.89 -30.08 25.29 -30.08 20.13 C-31.07 20.13 -32.06 20.13 -33.08 20.13 C-33.08 19.47 -33.08 18.81 -33.08 18.13 C-32.09 17.8 -31.1 17.47 -30.08 17.13 C-29.65 15.46 -29.22 13.8 -28.81 12.12 C-27.5 8.54 -24.99 5.57 -22.08 3.13 C-21.09 3.13 -20.1 3.13 -19.08 3.13 C-19.08 2.47 -19.08 1.81 -19.08 1.13 C-12.71 -0.01 -6.46 -0.01 0 0 Z " fill="#000002" transform="translate(856.08203125,165.8671875)"/>
<path d="M0 0 C5.94 0.12 11.89 0.24 17.83 0.37 C19.86 0.42 21.88 0.46 23.9 0.5 C26.81 0.55 29.71 0.62 32.62 0.68 C33.98 0.71 33.98 0.71 35.37 0.73 C36.21 0.75 37.05 0.77 37.92 0.79 C38.66 0.81 39.4 0.83 40.17 0.84 C42 1 42 1 44 2 C44.83 4.66 45.54 7.34 46.22 10.04 C49.03 14.72 53.04 16.88 58 19 C62.55 19.81 67 19.79 71.62 19.72 C72.97 19.72 74.33 19.73 75.69 19.74 C79.4 19.75 83.1 19.73 86.81 19.7 C90.81 19.67 94.82 19.68 98.82 19.68 C105.75 19.69 112.68 19.67 119.62 19.63 C129.64 19.59 139.66 19.57 149.68 19.56 C165.94 19.55 182.2 19.51 198.46 19.45 C214.26 19.4 230.05 19.36 245.84 19.33 C246.81 19.33 247.79 19.33 248.79 19.32 C253.68 19.32 258.57 19.31 263.45 19.3 C303.97 19.24 344.48 19.13 385 19 C385.64 20.57 386.28 22.15 386.92 23.72 C387.28 24.6 387.64 25.48 388 26.38 C390.71 33.49 392.21 41.41 391 49 C383.98 53.68 373.19 52.15 365.03 52.14 C363.62 52.15 362.21 52.15 360.81 52.16 C356.96 52.17 353.11 52.17 349.25 52.17 C345.1 52.18 340.94 52.18 336.78 52.19 C329.58 52.21 322.37 52.22 315.17 52.23 C304.76 52.24 294.34 52.26 283.93 52.29 C267.03 52.33 250.12 52.36 233.22 52.39 C232.21 52.39 231.2 52.4 230.16 52.4 C215.79 52.43 201.43 52.45 187.06 52.47 C186.05 52.47 185.04 52.48 184 52.48 C182.98 52.48 181.97 52.48 180.93 52.48 C164.08 52.51 147.24 52.54 130.39 52.58 C119.99 52.61 109.6 52.63 99.21 52.64 C92.09 52.64 84.98 52.66 77.87 52.68 C73.76 52.69 69.65 52.7 65.54 52.7 C61.79 52.7 58.03 52.71 54.28 52.72 C52.27 52.73 50.25 52.72 48.24 52.72 C47.06 52.73 45.87 52.73 44.65 52.74 C43.11 52.74 43.11 52.74 41.54 52.75 C38.76 52.82 38.76 52.82 36 55 C35.14 57.48 35.14 57.48 34.64 60.43 C34.42 61.55 34.19 62.66 33.96 63.81 C33.73 65.01 33.49 66.2 33.25 67.44 C25.82 102.82 8.22 134.03 -21 156 C-22.16 156.89 -22.16 156.89 -23.35 157.79 C-33.92 165.52 -45.62 171.64 -57.62 176.81 C-60.13 177.77 -60.13 177.77 -61 180 C-61.1 182.38 -61.14 184.74 -61.13 187.12 C-61.14 188.24 -61.14 188.24 -61.14 189.37 C-61.15 191.87 -61.15 194.37 -61.15 196.88 C-61.15 198.67 -61.15 200.45 -61.16 202.24 C-61.16 207.12 -61.17 211.99 -61.17 216.87 C-61.17 219.92 -61.17 222.97 -61.17 226.03 C-61.18 236.7 -61.19 247.37 -61.19 258.04 C-61.18 267.94 -61.2 277.85 -61.21 287.76 C-61.22 296.28 -61.23 304.81 -61.23 313.33 C-61.23 318.42 -61.23 323.5 -61.24 328.58 C-61.25 333.38 -61.25 338.18 -61.24 342.98 C-61.24 344.72 -61.25 346.47 -61.25 348.21 C-61.31 367 -59.6 385.55 -56 404 C-55.81 404.99 -55.81 404.99 -55.62 405.99 C-47.02 449.72 -25.25 491.98 4.91 524.73 C6.84 526.83 8.71 528.96 10.56 531.12 C16.59 538 23.04 544.02 30.18 549.73 C31.95 551.15 33.69 552.6 35.41 554.08 C64.83 579.25 99.67 593.28 136 605 C135.67 607.64 135.34 610.28 135 613 C120.48 613 105.96 613 91 613 C88.69 608.38 86.38 603.76 84 599 C76.19 593.14 65.38 593.69 55.88 593.06 C13.89 589.92 -26.28 575.99 -61 552 C-61.56 551.62 -62.13 551.23 -62.71 550.84 C-72.02 544.5 -80.61 537.5 -89 530 C-89.87 529.22 -89.87 529.22 -90.76 528.43 C-97.25 522.61 -103.44 516.72 -109 510 C-109.83 509.05 -110.66 508.09 -111.51 507.11 C-156.13 455.75 -169.38 394.25 -169.24 327.9 C-169.23 323.09 -169.23 318.27 -169.23 313.45 C-169.23 305.39 -169.22 297.32 -169.21 289.26 C-169.19 279.93 -169.18 270.61 -169.19 261.28 C-169.19 251.33 -169.18 241.37 -169.17 231.42 C-169.17 228.55 -169.17 225.69 -169.17 222.82 C-169.17 218.34 -169.16 213.86 -169.15 209.37 C-169.15 207.73 -169.15 206.08 -169.15 204.43 C-169.15 202.19 -169.14 199.95 -169.13 197.71 C-169.13 196.46 -169.13 195.2 -169.13 193.91 C-169 191 -169 191 -168 189 C-165.9 187.88 -163.77 186.83 -161.62 185.81 C-124.24 167.62 -95.31 133.09 -81.45 94.18 C-78.21 84.63 -75.86 74.91 -74 65 C-73.78 63.86 -73.57 62.73 -73.35 61.55 C-71.22 48.2 -71.33 34.5 -71 21 C-68.44 19.72 -66.61 19.87 -63.74 19.86 C-62.1 19.85 -62.1 19.85 -60.41 19.84 C-59.22 19.83 -58.03 19.83 -56.8 19.82 C-54.29 19.8 -51.77 19.78 -49.26 19.75 C-45.29 19.72 -41.32 19.69 -37.34 19.67 C-33.52 19.66 -29.69 19.62 -25.86 19.57 C-24.68 19.58 -23.5 19.58 -22.28 19.58 C-15.64 19.48 -11.37 19.03 -6 15 C-3.05 11.58 -1.8 8.64 -0.89 4.29 C-0.72 3.49 -0.55 2.68 -0.38 1.85 C-0.25 1.24 -0.13 0.63 0 0 Z " fill="#F8C5A5" transform="translate(527,481)"/>
<path d="M0 0 C1.65 -0.01 1.65 -0.01 3.33 -0.03 C6.96 -0.05 10.59 -0.04 14.22 -0.03 C16.75 -0.04 19.28 -0.04 21.81 -0.05 C27.11 -0.06 32.4 -0.06 37.7 -0.04 C43.81 -0.03 49.92 -0.04 56.03 -0.07 C61.92 -0.1 67.81 -0.11 73.71 -0.1 C76.21 -0.1 78.71 -0.1 81.21 -0.12 C84.71 -0.13 88.2 -0.12 91.7 -0.1 C92.73 -0.11 93.76 -0.12 94.82 -0.13 C101.28 -0.05 106.19 0.98 110.98 5.53 C115.44 10.74 115.54 14.9 115.46 21.44 C115.47 22.44 115.47 23.43 115.47 24.45 C115.48 27.78 115.46 31.1 115.44 34.43 C115.43 36.81 115.43 39.2 115.44 41.58 C115.44 47.39 115.42 53.19 115.4 58.99 C115.37 65.75 115.36 72.5 115.36 79.25 C115.35 91.29 115.32 103.34 115.28 115.38 C115.25 127.08 115.22 138.77 115.2 150.47 C115.2 151.19 115.2 151.91 115.2 152.66 C115.19 156.27 115.19 159.89 115.18 163.51 C115.14 193.52 115.07 223.53 114.98 253.53 C114.32 253.53 113.66 253.53 112.98 253.53 C112.98 254.52 112.98 255.51 112.98 256.53 C112.32 256.53 111.66 256.53 110.98 256.53 C110.65 257.52 110.32 258.51 109.98 259.53 C109.32 259.53 108.66 259.53 107.98 259.53 C107.98 260.19 107.98 260.85 107.98 261.53 C106.99 261.53 106 261.53 104.98 261.53 C104.98 262.19 104.98 262.85 104.98 263.53 C74.25 263.62 43.53 263.7 12.8 263.74 C9.17 263.74 5.54 263.75 1.92 263.75 C0.83 263.75 0.83 263.75 -0.27 263.76 C-11.97 263.77 -23.66 263.81 -35.35 263.84 C-47.35 263.88 -59.35 263.9 -71.35 263.91 C-78.09 263.91 -84.83 263.93 -91.57 263.96 C-97.91 263.98 -104.25 263.99 -110.59 263.99 C-112.92 263.99 -115.25 263.99 -117.58 264.01 C-120.76 264.03 -123.93 264.03 -127.11 264.01 C-128.03 264.03 -128.96 264.04 -129.91 264.05 C-135.45 264 -138.66 263.27 -143.02 259.53 C-148.41 253.85 -148.74 247.8 -148.68 240.29 C-148.69 239.19 -148.7 238.09 -148.71 236.95 C-148.74 233.33 -148.73 229.72 -148.72 226.1 C-148.72 223.57 -148.73 221.05 -148.74 218.52 C-148.75 213.23 -148.75 207.95 -148.73 202.66 C-148.7 196.57 -148.72 190.48 -148.76 184.38 C-148.79 178.5 -148.8 172.61 -148.78 166.73 C-148.78 164.24 -148.79 161.74 -148.81 159.25 C-148.83 155.76 -148.81 152.27 -148.78 148.78 C-148.79 147.75 -148.81 146.73 -148.82 145.67 C-148.71 138.62 -147.05 134.52 -142.02 129.53 C-136.75 124.68 -131.77 124.98 -124.96 125.08 C-123.31 125.08 -123.31 125.08 -121.62 125.08 C-117.99 125.08 -114.35 125.11 -110.71 125.14 C-108.19 125.15 -105.66 125.16 -103.14 125.16 C-97.18 125.17 -91.22 125.21 -85.26 125.25 C-78.47 125.29 -71.68 125.31 -64.89 125.33 C-50.94 125.37 -36.98 125.44 -23.02 125.53 C-23.02 124.96 -23.03 124.38 -23.04 123.79 C-23.17 109.78 -23.27 95.76 -23.33 81.75 C-23.36 74.97 -23.4 68.19 -23.47 61.42 C-23.54 54.87 -23.57 48.33 -23.59 41.79 C-23.6 39.29 -23.62 36.8 -23.65 34.31 C-23.7 30.81 -23.7 27.31 -23.7 23.81 C-23.72 22.79 -23.74 21.76 -23.77 20.7 C-23.7 13.62 -22.07 9.53 -17.02 4.53 C-11.76 -0.29 -6.79 -0.04 0 0 Z " fill="#000002" transform="translate(1165.01904296875,1016.466552734375)"/>
<path d="M0 0 C1.66 -0.01 1.66 -0.01 3.35 -0.02 C6.98 -0.03 10.62 -0 14.25 0.02 C16.78 0.02 19.31 0.02 21.85 0.02 C27.15 0.02 32.44 0.04 37.74 0.07 C43.86 0.11 49.98 0.12 56.09 0.11 C61.99 0.11 67.89 0.12 73.79 0.14 C76.3 0.14 78.8 0.15 81.31 0.15 C84.81 0.15 88.3 0.17 91.8 0.2 C93.35 0.19 93.35 0.19 94.94 0.19 C103.93 0.29 103.93 0.29 107.71 3.62 C107.71 4.28 107.71 4.94 107.71 5.62 C108.37 5.62 109.03 5.62 109.71 5.62 C109.71 6.28 109.71 6.94 109.71 7.62 C110.37 7.62 111.03 7.62 111.71 7.62 C115.81 12.26 115.11 17.72 115.05 23.56 C115.05 24.66 115.05 25.76 115.05 26.9 C115.05 30.54 115.02 34.18 115 37.82 C114.99 40.35 114.99 42.87 114.99 45.4 C114.98 51.37 114.95 57.34 114.92 63.3 C114.89 70.1 114.87 76.89 114.86 83.69 C114.83 97.67 114.77 111.64 114.71 125.62 C115.28 125.61 115.86 125.61 116.46 125.61 C130.52 125.54 144.58 125.49 158.65 125.46 C165.45 125.44 172.25 125.42 179.05 125.39 C185.61 125.36 192.17 125.34 198.74 125.33 C201.24 125.33 203.75 125.31 206.25 125.3 C209.76 125.28 213.26 125.27 216.77 125.27 C217.8 125.26 218.84 125.25 219.91 125.24 C228.93 125.28 228.93 125.28 232.71 128.62 C232.71 129.28 232.71 129.94 232.71 130.62 C233.37 130.62 234.03 130.62 234.71 130.62 C234.71 131.28 234.71 131.94 234.71 132.62 C235.37 132.62 236.03 132.62 236.71 132.62 C240.79 137.26 240.14 142.69 240.13 148.52 C240.13 149.62 240.14 150.72 240.15 151.85 C240.18 155.49 240.18 159.12 240.18 162.76 C240.18 165.29 240.19 167.82 240.2 170.35 C240.21 175.65 240.21 180.96 240.21 186.26 C240.2 192.38 240.22 198.49 240.26 204.61 C240.3 210.51 240.3 216.4 240.3 222.3 C240.3 224.8 240.31 227.31 240.33 229.81 C240.35 233.31 240.34 236.82 240.32 240.32 C240.33 241.35 240.35 242.38 240.36 243.44 C240.29 249.91 239.27 254.82 234.71 259.62 C229.5 264.08 225.34 264.18 218.8 264.1 C217.8 264.1 216.81 264.1 215.79 264.11 C212.46 264.11 209.14 264.09 205.81 264.07 C203.43 264.07 201.04 264.07 198.66 264.07 C192.85 264.07 187.05 264.05 181.25 264.03 C174.49 264 167.74 263.99 160.99 263.99 C148.95 263.98 136.9 263.95 124.86 263.92 C113.16 263.88 101.47 263.85 89.77 263.83 C89.05 263.83 88.33 263.83 87.58 263.83 C83.97 263.83 80.35 263.82 76.73 263.82 C46.72 263.78 16.71 263.7 -13.29 263.62 C-13.29 262.96 -13.29 262.3 -13.29 261.62 C-14.28 261.62 -15.27 261.62 -16.29 261.62 C-16.29 260.96 -16.29 260.3 -16.29 259.62 C-17.28 259.29 -18.27 258.96 -19.29 258.62 C-19.29 257.96 -19.29 257.3 -19.29 256.62 C-19.95 256.62 -20.61 256.62 -21.29 256.62 C-21.29 255.63 -21.29 254.64 -21.29 253.62 C-21.95 253.62 -22.61 253.62 -23.29 253.62 C-23.38 222.89 -23.46 192.16 -23.5 161.43 C-23.5 157.81 -23.51 154.18 -23.51 150.55 C-23.51 149.83 -23.52 149.11 -23.52 148.36 C-23.53 136.67 -23.57 124.98 -23.6 113.28 C-23.64 101.28 -23.66 89.28 -23.67 77.29 C-23.68 70.55 -23.69 63.81 -23.72 57.07 C-23.74 50.73 -23.75 44.38 -23.75 38.04 C-23.75 35.71 -23.76 33.38 -23.77 31.06 C-23.79 27.88 -23.79 24.7 -23.77 21.52 C-23.79 20.6 -23.8 19.68 -23.81 18.72 C-23.76 13.19 -23.03 9.98 -19.29 5.62 C-13.6 0.2 -7.54 -0.1 0 0 Z " fill="#000002" transform="translate(23.293701171875,1016.384765625)"/>
<path d="M0 0 C1.49 -0.01 1.49 -0.01 3.01 -0.01 C6.34 -0.02 9.66 0.01 12.99 0.03 C15.37 0.03 17.76 0.03 20.14 0.03 C25.95 0.02 31.75 0.04 37.55 0.07 C44.3 0.1 51.06 0.1 57.81 0.11 C69.85 0.11 81.89 0.14 93.94 0.18 C105.63 0.22 117.33 0.24 129.03 0.26 C129.75 0.26 130.47 0.26 131.21 0.26 C134.83 0.27 138.45 0.27 142.07 0.28 C172.08 0.32 202.08 0.39 232.09 0.48 C232.09 1.14 232.09 1.8 232.09 2.48 C233.08 2.48 234.07 2.48 235.09 2.48 C235.09 3.14 235.09 3.8 235.09 4.48 C236.08 4.81 237.07 5.14 238.09 5.48 C238.09 6.14 238.09 6.8 238.09 7.48 C238.75 7.48 239.41 7.48 240.09 7.48 C240.09 8.47 240.09 9.46 240.09 10.48 C240.75 10.48 241.41 10.48 242.09 10.48 C242.18 41.21 242.25 71.94 242.3 102.66 C242.3 106.29 242.31 109.92 242.31 113.54 C242.31 114.27 242.31 114.99 242.31 115.73 C242.33 127.43 242.36 139.12 242.4 150.82 C242.44 162.81 242.46 174.81 242.47 186.81 C242.47 193.55 242.48 200.29 242.51 207.03 C242.54 213.37 242.55 219.71 242.54 226.05 C242.54 228.38 242.55 230.71 242.57 233.04 C242.59 236.22 242.58 239.39 242.57 242.57 C242.58 243.5 242.6 244.42 242.61 245.37 C242.56 250.91 241.83 254.12 238.09 258.48 C232.39 263.9 226.33 264.19 218.8 264.1 C217.69 264.1 216.59 264.11 215.45 264.11 C211.81 264.12 208.18 264.1 204.55 264.07 C202.02 264.07 199.48 264.07 196.95 264.07 C191.65 264.07 186.35 264.06 181.06 264.02 C174.94 263.99 168.82 263.98 162.7 263.98 C156.8 263.99 150.9 263.98 145 263.96 C142.5 263.95 139.99 263.95 137.49 263.95 C133.99 263.95 130.49 263.93 127 263.9 C125.96 263.9 124.93 263.91 123.86 263.91 C114.87 263.8 114.87 263.8 111.09 260.48 C111.09 259.82 111.09 259.16 111.09 258.48 C110.43 258.48 109.77 258.48 109.09 258.48 C109.09 257.82 109.09 257.16 109.09 256.48 C108.43 256.48 107.77 256.48 107.09 256.48 C102.99 251.83 103.69 246.38 103.75 240.54 C103.75 238.89 103.75 238.89 103.75 237.2 C103.75 233.56 103.77 229.92 103.8 226.27 C103.8 223.75 103.81 221.22 103.81 218.69 C103.82 212.73 103.85 206.76 103.88 200.79 C103.91 194 103.93 187.2 103.94 180.41 C103.97 166.43 104.02 152.46 104.09 138.48 C103.51 138.48 102.94 138.49 102.34 138.49 C88.28 138.56 74.21 138.61 60.15 138.64 C53.35 138.65 46.55 138.67 39.75 138.71 C33.19 138.74 26.62 138.76 20.06 138.77 C17.56 138.77 15.05 138.78 12.55 138.8 C9.04 138.82 5.54 138.82 2.03 138.82 C0.99 138.83 -0.05 138.84 -1.12 138.85 C-10.13 138.82 -10.13 138.82 -13.91 135.48 C-13.91 134.82 -13.91 134.16 -13.91 133.48 C-14.57 133.48 -15.23 133.48 -15.91 133.48 C-15.91 132.82 -15.91 132.16 -15.91 131.48 C-16.57 131.48 -17.23 131.48 -17.91 131.48 C-21.99 126.84 -21.35 121.4 -21.33 115.58 C-21.34 114.48 -21.35 113.38 -21.35 112.24 C-21.38 108.61 -21.38 104.97 -21.38 101.34 C-21.38 98.81 -21.39 96.28 -21.4 93.75 C-21.41 88.44 -21.42 83.14 -21.41 77.84 C-21.4 71.72 -21.43 65.61 -21.46 59.49 C-21.5 53.59 -21.5 47.69 -21.5 41.79 C-21.5 39.29 -21.51 36.79 -21.53 34.29 C-21.55 30.78 -21.54 27.28 -21.52 23.77 C-21.54 22.75 -21.55 21.72 -21.56 20.66 C-21.49 14.19 -20.47 9.28 -15.91 4.48 C-10.7 0.02 -6.54 -0.08 0 0 Z " fill="#000002" transform="translate(1037.9087829589844,-0.48101806640625)"/>
<path d="M0 0 C30.73 -0.09 61.45 -0.16 92.18 -0.2 C95.81 -0.21 99.44 -0.21 103.06 -0.22 C103.79 -0.22 104.51 -0.22 105.25 -0.22 C116.95 -0.24 128.64 -0.27 140.33 -0.31 C152.33 -0.35 164.33 -0.37 176.33 -0.38 C183.07 -0.38 189.81 -0.39 196.55 -0.42 C202.89 -0.45 209.23 -0.46 215.57 -0.45 C217.9 -0.45 220.23 -0.46 222.56 -0.48 C225.74 -0.5 228.91 -0.49 232.09 -0.48 C233.48 -0.5 233.48 -0.5 234.89 -0.52 C240.43 -0.46 243.64 0.26 248 4 C253.42 9.7 253.71 15.76 253.62 23.29 C253.62 24.4 253.63 25.5 253.63 26.64 C253.64 30.28 253.62 33.91 253.59 37.54 C253.59 40.08 253.59 42.61 253.59 45.14 C253.59 50.44 253.57 55.74 253.54 61.03 C253.51 67.15 253.5 73.27 253.5 79.39 C253.51 85.29 253.5 91.19 253.48 97.09 C253.47 99.59 253.47 102.1 253.47 104.6 C253.47 108.1 253.45 111.6 253.42 115.09 C253.42 116.13 253.43 117.17 253.43 118.23 C253.32 127.22 253.32 127.22 250 131 C249.34 131 248.68 131 248 131 C248 131.66 248 132.32 248 133 C247.34 133 246.68 133 246 133 C246 133.66 246 134.32 246 135 C241.35 139.11 235.9 138.4 230.06 138.34 C228.41 138.34 228.41 138.34 226.72 138.34 C223.08 138.34 219.43 138.32 215.79 138.29 C213.27 138.29 210.74 138.28 208.21 138.28 C202.25 138.27 196.28 138.25 190.31 138.22 C183.52 138.18 176.72 138.17 169.92 138.15 C155.95 138.12 141.97 138.07 128 138 C128 138.58 128.01 139.16 128.01 139.75 C128.07 153.81 128.12 167.88 128.16 181.94 C128.17 188.74 128.19 195.54 128.23 202.34 C128.26 208.91 128.28 215.47 128.28 222.03 C128.29 224.53 128.3 227.04 128.32 229.54 C128.34 233.05 128.34 236.55 128.34 240.06 C128.35 241.1 128.36 242.14 128.37 243.21 C128.33 252.22 128.33 252.22 125 256 C124.34 256 123.68 256 123 256 C123 256.66 123 257.32 123 258 C122.34 258 121.68 258 121 258 C121 258.66 121 259.32 121 260 C116.36 264.08 110.92 263.44 105.09 263.42 C103.99 263.43 102.89 263.44 101.76 263.45 C98.13 263.47 94.49 263.47 90.86 263.47 C88.33 263.48 85.8 263.48 83.27 263.49 C77.96 263.51 72.66 263.51 67.36 263.5 C61.24 263.49 55.12 263.52 49.01 263.55 C43.11 263.59 37.21 263.6 31.31 263.59 C28.81 263.59 26.31 263.6 23.81 263.62 C20.3 263.64 16.8 263.63 13.29 263.62 C12.26 263.63 11.23 263.64 10.17 263.66 C3.71 263.58 -1.2 262.56 -6 258 C-10.46 252.79 -10.56 248.63 -10.48 242.09 C-10.49 240.6 -10.49 240.6 -10.49 239.08 C-10.5 235.76 -10.48 232.43 -10.45 229.1 C-10.45 226.72 -10.45 224.33 -10.46 221.95 C-10.46 216.15 -10.44 210.34 -10.41 204.54 C-10.39 197.79 -10.38 191.03 -10.37 184.28 C-10.37 172.24 -10.34 160.2 -10.3 148.15 C-10.27 136.46 -10.24 124.76 -10.22 113.06 C-10.22 112.34 -10.22 111.62 -10.22 110.88 C-10.21 107.26 -10.21 103.64 -10.2 100.02 C-10.16 70.02 -10.09 40.01 -10 10 C-9.34 10 -8.68 10 -8 10 C-8 9.01 -8 8.02 -8 7 C-7.34 7 -6.68 7 -6 7 C-5.67 6.01 -5.34 5.02 -5 4 C-4.34 4 -3.68 4 -3 4 C-3 3.34 -3 2.68 -3 2 C-2.01 2 -1.02 2 0 2 C0 1.34 0 0.68 0 0 Z " fill="#000002" transform="translate(10,0)"/>
<path d="M0 0 C8.14 -0.05 16.28 -0.03 24.42 0.03 C24.42 0.69 24.42 1.35 24.42 2.03 C26.4 2.52 26.4 2.52 28.42 3.03 C27.29 3.6 27.29 3.6 26.14 4.18 C23.27 5.64 20.41 7.1 17.55 8.57 C16.32 9.19 15.09 9.82 13.86 10.44 C-15.98 25.55 -44.19 48.42 -64.58 75.03 C-65.51 76.2 -66.44 77.38 -67.37 78.56 C-79.24 93.78 -88.57 110.07 -96.39 127.71 C-100.32 136.32 -103.92 140.17 -112.76 143.96 C-146.94 159.21 -172.45 186.15 -186.89 220.53 C-188.96 226 -190.72 231.53 -192.33 237.15 C-192.53 237.84 -192.72 238.53 -192.93 239.25 C-196.12 251.03 -196.87 262.73 -196.82 274.88 C-196.82 276.43 -196.82 277.97 -196.83 279.52 C-196.83 283.67 -196.82 287.83 -196.81 291.98 C-196.8 296.34 -196.81 300.7 -196.81 305.06 C-196.8 312.36 -196.8 319.67 -196.78 326.97 C-196.77 335.42 -196.76 343.87 -196.76 352.32 C-196.76 361.33 -196.76 370.34 -196.75 379.35 C-196.74 381.95 -196.74 384.54 -196.74 387.14 C-196.74 391.2 -196.74 395.27 -196.73 399.33 C-196.72 400.83 -196.72 402.32 -196.72 403.81 C-196.72 405.85 -196.72 407.88 -196.71 409.91 C-196.71 411.05 -196.71 412.19 -196.71 413.36 C-196.76 416 -196.76 416 -195.58 418.03 C-210.79 434.48 -237.57 441.22 -259.24 442.3 C-274.23 442.77 -285.66 440.36 -297.39 430.71 C-302.26 424.72 -304.7 417.63 -304.72 409.97 C-304.72 408.7 -304.73 407.44 -304.73 406.13 C-304.74 404.72 -304.74 403.32 -304.74 401.91 C-304.74 400.43 -304.75 398.95 -304.75 397.47 C-304.77 393.44 -304.77 389.41 -304.78 385.39 C-304.78 382.86 -304.78 380.34 -304.79 377.82 C-304.8 369.91 -304.81 362 -304.82 354.09 C-304.82 345 -304.84 335.9 -304.87 326.81 C-304.89 319.76 -304.9 312.71 -304.9 305.66 C-304.9 301.47 -304.91 297.27 -304.92 293.07 C-304.94 289.1 -304.94 285.14 -304.93 281.17 C-304.93 279.73 -304.94 278.29 -304.95 276.85 C-305.18 241.29 -290.79 208.82 -266.16 183.51 C-253.6 171.03 -238.36 162.89 -222.19 156.01 C-212.73 151.76 -209.24 143.81 -205.33 134.65 C-193.37 107.73 -176.62 85.01 -155.95 64.15 C-155.18 63.37 -154.4 62.58 -153.6 61.77 C-130.68 38.98 -100.97 22.45 -70.58 12.03 C-69.77 11.75 -68.97 11.47 -68.14 11.18 C-46.02 3.68 -23.29 0.17 0 0 Z " fill="#437994" transform="translate(562.57666015625,203.974609375)"/>
<path d="M0 0 C1.6 -0 1.6 -0 3.23 -0.01 C5.47 -0.02 7.7 -0.02 9.93 -0.02 C13.36 -0.02 16.79 -0.04 20.22 -0.06 C22.4 -0.06 24.57 -0.06 26.75 -0.06 C27.78 -0.07 28.8 -0.08 29.86 -0.08 C30.81 -0.08 31.75 -0.08 32.73 -0.07 C33.98 -0.08 33.98 -0.08 35.25 -0.08 C37.28 0.17 37.28 0.17 39.28 2.17 C39.47 4.62 39.54 6.97 39.52 9.43 C39.53 10.18 39.53 10.94 39.53 11.72 C39.54 14.27 39.53 16.81 39.52 19.36 C39.52 21.18 39.52 23 39.53 24.83 C39.53 29.78 39.52 34.74 39.51 39.69 C39.5 44.87 39.51 50.05 39.51 55.22 C39.51 63.92 39.5 72.61 39.48 81.3 C39.47 91.37 39.46 101.44 39.46 111.5 C39.46 121.17 39.46 130.83 39.45 140.5 C39.45 144.62 39.44 148.74 39.44 152.86 C39.44 157.71 39.44 162.56 39.43 167.41 C39.42 169.19 39.42 170.98 39.42 172.76 C39.42 175.19 39.42 177.61 39.41 180.04 C39.41 180.75 39.41 181.47 39.42 182.21 C39.39 187.05 39.39 187.05 38.28 188.17 C35.89 188.27 33.52 188.3 31.13 188.29 C30.38 188.29 29.62 188.29 28.84 188.29 C26.29 188.29 23.73 188.29 21.18 188.28 C19.36 188.28 17.54 188.28 15.71 188.28 C10.75 188.28 5.78 188.28 0.82 188.27 C-4.36 188.26 -9.55 188.26 -14.73 188.26 C-24.55 188.26 -34.37 188.25 -44.19 188.24 C-55.37 188.23 -66.55 188.22 -77.72 188.22 C-100.72 188.21 -123.72 188.19 -146.72 188.17 C-148.3 184.42 -148.97 181.66 -148.97 177.58 C-148.97 176.49 -148.97 175.39 -148.97 174.27 C-148.97 173.1 -148.96 171.93 -148.95 170.72 C-148.95 169.51 -148.95 168.3 -148.95 167.06 C-148.95 164.5 -148.94 161.95 -148.93 159.4 C-148.91 155.48 -148.91 151.57 -148.91 147.65 C-148.9 145.17 -148.9 142.7 -148.89 140.22 C-148.89 139.04 -148.89 137.86 -148.89 136.65 C-148.88 135.57 -148.87 134.48 -148.87 133.36 C-148.86 132.41 -148.86 131.45 -148.86 130.46 C-148.72 128.17 -148.72 128.17 -147.72 126.17 C-140.74 124.83 -133.39 125.02 -126.3 125.03 C-125.32 125.02 -124.34 125.02 -123.34 125.02 C-121.24 125.01 -119.14 125 -117.04 125 C-113.71 124.99 -110.39 124.98 -107.06 124.96 C-97.62 124.91 -88.17 124.86 -78.72 124.84 C-72.93 124.83 -67.13 124.8 -61.33 124.76 C-59.13 124.75 -56.93 124.74 -54.73 124.75 C-51.65 124.75 -48.58 124.73 -45.5 124.7 C-44.14 124.71 -44.14 124.71 -42.76 124.72 C-37.25 124.64 -34.09 123.84 -29.72 120.17 C-26.28 116.26 -24.6 113.95 -24.57 108.76 C-24.56 107.84 -24.55 106.91 -24.55 105.96 C-24.54 104.94 -24.54 103.92 -24.53 102.88 C-24.52 101.81 -24.52 100.74 -24.51 99.63 C-24.49 97.3 -24.48 94.97 -24.46 92.65 C-24.44 88.97 -24.41 85.29 -24.39 81.6 C-24.33 73.79 -24.27 65.98 -24.22 58.17 C-24.16 49.12 -24.1 40.07 -24.03 31.02 C-24 27.38 -23.98 23.75 -23.96 20.11 C-23.95 17.9 -23.93 15.68 -23.91 13.46 C-23.91 12.44 -23.9 11.42 -23.9 10.38 C-23.89 9.45 -23.88 8.52 -23.87 7.57 C-23.87 6.76 -23.86 5.96 -23.86 5.13 C-23.72 3.17 -23.72 3.17 -22.72 1.17 C-15.34 -0.27 -7.5 0.01 0 0 Z " fill="#CBECF9" transform="translate(1202.72265625,1053.83203125)"/>
<path d="M0 0 C24.09 -0.05 48.17 -0.08 72.26 -0.1 C83.44 -0.11 94.63 -0.13 105.81 -0.15 C115.55 -0.17 125.3 -0.18 135.04 -0.19 C140.2 -0.19 145.37 -0.2 150.53 -0.21 C155.38 -0.22 160.24 -0.23 165.09 -0.23 C166.88 -0.23 168.66 -0.23 170.45 -0.24 C172.88 -0.25 175.31 -0.25 177.74 -0.24 C178.45 -0.25 179.16 -0.25 179.9 -0.26 C184.77 -0.23 184.77 -0.23 187 2 C187.19 4.46 187.26 6.8 187.24 9.26 C187.24 10.02 187.24 10.78 187.25 11.56 C187.25 14.11 187.24 16.66 187.23 19.21 C187.23 21.03 187.23 22.86 187.23 24.68 C187.23 29.64 187.22 34.6 187.2 39.56 C187.19 44.74 187.19 49.92 187.19 55.1 C187.18 64.91 187.16 74.73 187.14 84.54 C187.12 95.71 187.11 106.88 187.1 118.05 C187.08 141.03 187.04 164.02 187 187 C179.08 187.02 171.16 187.04 163.24 187.05 C159.57 187.06 155.89 187.06 152.21 187.08 C148.67 187.09 145.12 187.09 141.57 187.09 C140.22 187.1 138.86 187.1 137.51 187.11 C135.61 187.11 133.72 187.11 131.83 187.11 C130.75 187.12 129.67 187.12 128.56 187.12 C126 187 126 187 124 186 C124 185.16 124 185.16 124 184.31 C124.01 170.7 123.98 157.1 123.92 143.49 C123.89 136.91 123.87 130.33 123.88 123.75 C123.89 117.4 123.86 111.04 123.82 104.69 C123.81 102.27 123.81 99.85 123.82 97.43 C123.83 94.03 123.81 90.63 123.77 87.23 C123.79 85.74 123.79 85.74 123.81 84.22 C123.68 77.02 121.95 71.39 117 66 C111.11 62.28 103.93 62.56 97.19 62.58 C95.63 62.57 95.63 62.57 94.03 62.56 C90.62 62.53 87.2 62.53 83.79 62.52 C81.4 62.51 79.02 62.49 76.64 62.48 C70.39 62.43 64.15 62.41 57.9 62.39 C47.87 62.35 37.85 62.29 27.82 62.23 C24.32 62.21 20.81 62.2 17.31 62.19 C15.18 62.18 13.04 62.17 10.91 62.16 C9.93 62.16 8.95 62.16 7.94 62.15 C6.6 62.15 6.6 62.15 5.24 62.14 C4.47 62.14 3.69 62.13 2.89 62.13 C1 62 1 62 -1 61 C-1.02 53.34 -1.04 45.68 -1.05 38.03 C-1.06 34.47 -1.06 30.91 -1.08 27.36 C-1.09 23.27 -1.09 19.19 -1.1 15.1 C-1.11 13.18 -1.11 13.18 -1.11 11.22 C-1.11 10.04 -1.11 8.86 -1.11 7.64 C-1.12 6.6 -1.12 5.56 -1.12 4.48 C-1 2 -1 2 0 0 Z " fill="#CBEBF8" transform="translate(1055,37)"/>
<path d="M0 0 C1.18 0 2.36 0 3.58 0 C4.86 0.01 6.14 0.01 7.46 0.02 C8.77 0.02 10.07 0.02 11.42 0.02 C14.89 0.02 18.37 0.03 21.84 0.04 C25.39 0.06 28.94 0.06 32.48 0.06 C39.44 0.08 46.4 0.09 53.36 0.11 C54.52 2.43 54.49 3.77 54.49 6.36 C54.5 7.25 54.51 8.14 54.51 9.05 C54.51 10.03 54.51 11.01 54.51 12.02 C54.52 13.05 54.52 14.08 54.53 15.14 C54.54 17.38 54.55 19.62 54.56 21.87 C54.57 25.42 54.59 28.97 54.61 32.52 C54.67 42.62 54.72 52.73 54.76 62.83 C54.78 69 54.81 75.18 54.86 81.35 C54.87 83.71 54.88 86.06 54.89 88.41 C54.89 91.71 54.91 95 54.94 98.3 C54.94 99.27 54.93 100.23 54.93 101.23 C55 107.11 55.14 113.02 58.36 118.11 C64.7 123.94 71.27 124.99 79.59 124.89 C81.2 124.9 81.2 124.9 82.85 124.92 C86.36 124.95 89.88 124.93 93.4 124.92 C95.85 124.93 98.3 124.94 100.75 124.96 C107.18 125 113.61 125 120.04 124.99 C126.6 124.99 133.17 125.02 139.74 125.05 C152.61 125.1 165.49 125.12 178.36 125.11 C179.71 127.82 179.48 129.91 179.47 132.94 C179.47 134.16 179.47 135.38 179.47 136.64 C179.47 137.98 179.46 139.32 179.45 140.65 C179.45 142.02 179.45 143.38 179.45 144.75 C179.45 148.34 179.44 151.93 179.43 155.53 C179.42 159.19 179.41 162.86 179.41 166.53 C179.4 173.72 179.38 180.92 179.36 188.11 C155.27 188.16 131.18 188.2 107.1 188.22 C95.91 188.23 84.73 188.24 73.55 188.26 C63.8 188.28 54.06 188.3 44.32 188.3 C39.15 188.3 33.99 188.31 28.83 188.32 C23.98 188.34 19.12 188.34 14.27 188.34 C12.48 188.34 10.7 188.34 8.91 188.35 C6.48 188.36 4.05 188.36 1.62 188.35 C0.91 188.36 0.19 188.37 -0.54 188.37 C-5.41 188.34 -5.41 188.34 -7.64 186.11 C-7.84 183.65 -7.9 181.31 -7.88 178.85 C-7.89 178.09 -7.89 177.34 -7.89 176.56 C-7.89 174 -7.88 171.45 -7.87 168.9 C-7.87 167.08 -7.87 165.26 -7.87 163.44 C-7.87 158.47 -7.86 153.51 -7.85 148.55 C-7.83 143.37 -7.83 138.19 -7.83 133.01 C-7.82 123.2 -7.81 113.39 -7.79 103.57 C-7.76 92.4 -7.75 81.23 -7.74 70.06 C-7.72 47.08 -7.69 24.1 -7.64 1.11 C-4.98 -0.22 -2.98 -0.01 0 0 Z " fill="#CBECF9" transform="translate(44.64306640625,1053.886474609375)"/>
<path d="M0 0 C0.72 0 1.43 0 2.17 0.01 C3.3 0 3.3 0 4.46 0 C7.01 -0 9.56 0 12.11 0 C13.93 0 15.76 0 17.58 -0 C22.54 -0.01 27.5 -0 32.46 -0 C37.64 0 42.82 -0 48 -0 C56.7 -0 65.4 -0 74.09 0 C84.17 0.01 94.24 0.01 104.31 0 C112.95 -0 121.58 -0 130.21 -0 C135.37 0 140.53 0 145.7 -0 C150.55 -0.01 155.4 -0 160.25 0 C162.04 0 163.83 0 165.61 0 C168.04 -0 170.47 0 172.9 0.01 C173.61 0 174.33 0 175.07 0 C179.92 0.02 179.92 0.02 181.03 1.13 C181.13 3.04 181.15 4.94 181.15 6.85 C181.15 8.07 181.15 9.29 181.15 10.55 C181.14 11.89 181.14 13.23 181.13 14.58 C181.13 15.94 181.13 17.31 181.13 18.67 C181.12 22.28 181.11 25.88 181.1 29.48 C181.09 33.15 181.09 36.83 181.08 40.5 C181.07 47.71 181.05 54.92 181.03 62.13 C180.22 62.14 180.22 62.14 179.39 62.14 C166.14 62.2 152.89 62.28 139.65 62.37 C133.24 62.41 126.83 62.45 120.43 62.48 C114.24 62.51 108.06 62.55 101.87 62.6 C99.51 62.61 97.16 62.63 94.8 62.63 C91.49 62.64 88.19 62.67 84.88 62.7 C83.91 62.7 82.94 62.7 81.94 62.7 C74.63 62.8 68.14 63.84 62.16 68.26 C57.08 75.13 56.59 82.67 56.6 90.98 C56.59 92.02 56.58 93.07 56.57 94.14 C56.54 97.57 56.53 100.99 56.52 104.42 C56.5 106.81 56.49 109.19 56.47 111.58 C56.42 117.84 56.39 124.09 56.36 130.35 C56.33 136.75 56.29 143.14 56.24 149.54 C56.16 162.07 56.09 174.6 56.03 187.13 C48.1 187.16 40.16 187.17 32.23 187.19 C28.54 187.19 24.86 187.2 21.17 187.21 C17.62 187.22 14.06 187.23 10.51 187.23 C9.15 187.23 7.79 187.23 6.44 187.24 C4.54 187.25 2.64 187.25 0.75 187.25 C-0.88 187.25 -0.88 187.25 -2.53 187.25 C-4.97 187.13 -4.97 187.13 -5.97 186.13 C-6.07 183.75 -6.1 181.39 -6.09 179 C-6.09 178.24 -6.1 177.49 -6.1 176.71 C-6.1 174.16 -6.1 171.6 -6.1 169.05 C-6.1 167.23 -6.1 165.41 -6.1 163.59 C-6.11 158.63 -6.1 153.67 -6.1 148.71 C-6.1 143.53 -6.1 138.35 -6.1 133.17 C-6.1 124.47 -6.1 115.77 -6.1 107.07 C-6.09 97 -6.09 86.93 -6.1 76.85 C-6.1 68.22 -6.1 59.59 -6.1 50.96 C-6.1 45.8 -6.1 40.63 -6.1 35.47 C-6.11 30.62 -6.1 25.77 -6.1 20.91 C-6.1 19.13 -6.1 17.34 -6.1 15.55 C-6.1 13.13 -6.1 10.7 -6.09 8.27 C-6.1 7.55 -6.1 6.84 -6.1 6.1 C-6.08 0.33 -5.77 0.02 0 0 Z " fill="#CBEBF8" transform="translate(42.966445446014404,36.8662565946579)"/>
<path d="M0 0 C2.05 1.77 3.92 3.51 5.81 5.44 C26.24 25.12 51.74 35.53 80 36.25 C108.57 35.43 135.11 24.88 155 3.94 C159.71 -1 163.66 -2.58 170.5 -3.44 C176.1 -2.74 180.27 -0.69 184.31 3.25 C187.68 8.73 189.52 13.37 188.71 19.85 C182.85 37.51 160.66 51.09 144.95 59.25 C115.63 73.6 78.99 80.1 47 71 C46.19 70.77 45.37 70.54 44.53 70.3 C32.38 66.74 21.05 62.16 10 56 C9.05 55.48 9.05 55.48 8.07 54.95 C-1.56 49.64 -9.92 43.45 -18 36 C-18.74 35.32 -18.74 35.32 -19.5 34.63 C-25.6 29.02 -29.54 25.1 -30.31 16.56 C-29.72 9.77 -26.84 4.73 -22 0 C-14.64 -4.12 -7.4 -4.08 0 0 Z " fill="#000002" transform="translate(560,890)"/>
<path d="M0 0 C-0.17 0.67 -0.35 1.34 -0.53 2.03 C-1.09 5.58 -0.86 8.9 -0.57 12.45 C0.16 22.9 0.13 33.32 0.1 43.79 C0.1 45.82 0.09 47.86 0.09 49.9 C0.09 55.21 0.08 60.51 0.07 65.82 C0.06 71.25 0.05 76.69 0.05 82.13 C0.04 92.75 0.02 103.38 0 114 C-5.09 114.1 -10.17 114.17 -15.26 114.22 C-16.99 114.24 -18.71 114.27 -20.44 114.3 C-33.65 114.56 -43.49 113.68 -54.02 104.91 C-61.5 97.68 -63.02 88.99 -63.26 78.88 C-63.27 76.63 -63.27 74.38 -63.27 72.12 C-63.27 70.92 -63.27 69.71 -63.27 68.47 C-63.27 65.94 -63.27 63.4 -63.26 60.87 C-63.25 57.01 -63.26 53.15 -63.27 49.3 C-63.27 46.82 -63.27 44.35 -63.27 41.88 C-63.27 40.73 -63.27 39.59 -63.28 38.41 C-63.21 26.78 -61.95 16.05 -53.75 7.25 C-40.45 -5.09 -16.6 -4.43 0 0 Z " fill="#FBDCC6" transform="translate(321,686)"/>
<path d="M0 0 C0.82 -0.01 1.64 -0.02 2.48 -0.02 C4.22 -0.04 5.96 -0.05 7.7 -0.06 C10.34 -0.07 12.97 -0.12 15.6 -0.16 C25.64 -0.26 34.27 -0.23 42.49 6.25 C43.07 6.94 43.65 7.64 44.25 8.36 C44.85 9.05 45.44 9.73 46.05 10.43 C52.46 19.95 53.69 27.87 53.61 39.18 C53.61 40.71 53.61 42.24 53.62 43.77 C53.63 46.96 53.62 50.16 53.59 53.35 C53.56 57.42 53.58 61.49 53.61 65.55 C53.63 68.71 53.62 71.87 53.61 75.03 C53.61 76.53 53.61 78.02 53.62 79.52 C53.69 89.83 52.49 97.65 45.84 105.82 C45.15 106.41 44.46 107 43.75 107.61 C43.08 108.22 42.41 108.83 41.71 109.45 C31.4 116.11 21.69 115.73 9.82 115.49 C8.08 115.47 6.34 115.45 4.61 115.43 C0.38 115.39 -3.84 115.32 -8.06 115.24 C-9.25 112.86 -9.18 111.41 -9.19 108.75 C-9.19 107.81 -9.19 106.87 -9.19 105.89 C-9.19 104.85 -9.19 103.82 -9.19 102.75 C-9.19 101.65 -9.19 100.56 -9.19 99.44 C-9.2 95.82 -9.19 92.2 -9.19 88.58 C-9.19 86.07 -9.19 83.57 -9.19 81.06 C-9.2 75.8 -9.19 70.55 -9.19 65.29 C-9.18 59.21 -9.19 53.12 -9.19 47.04 C-9.2 41.19 -9.2 35.35 -9.19 29.5 C-9.19 27.01 -9.19 24.52 -9.19 22.02 C-9.2 18.55 -9.19 15.08 -9.19 11.6 C-9.19 10.56 -9.19 9.52 -9.19 8.45 C-9.19 7.51 -9.19 6.57 -9.19 5.6 C-9.19 4.77 -9.18 3.95 -9.18 3.1 C-8.87 -1.52 -3.55 0.03 0 0 Z " fill="#F8C5A5" transform="translate(967.05859375,684.76171875)"/>
<path d="M0 0 C5.08 3.84 8.17 9.02 9.16 15.38 C9.63 20.74 9.62 26.09 9.54 31.46 C9.5 34.32 9.52 37.17 9.54 40.03 C9.54 41.87 9.53 43.71 9.51 45.54 C9.52 46.81 9.52 46.81 9.53 48.1 C9.37 55.02 7.01 59.79 2.23 64.78 C-2.04 68.67 -6.66 68.85 -12.25 68.62 C-16.74 67.86 -19.72 66 -23.19 63.12 C-23.97 62.55 -24.75 61.97 -25.56 61.38 C-30.61 54.39 -29.53 44.16 -29.5 35.9 C-29.5 33.7 -29.52 31.5 -29.55 29.29 C-29.63 11.38 -29.63 11.38 -23.81 4.19 C-15.75 -2.15 -9.73 -2.67 0 0 Z " fill="#000002" transform="translate(505.1875,690.875)"/>
<path d="M0 0 C4.84 4.5 7.87 9.8 8.32 16.47 C8.34 18.24 8.34 20.02 8.32 21.79 C8.32 22.74 8.32 23.69 8.32 24.67 C8.32 26.66 8.31 28.66 8.28 30.65 C8.25 33.69 8.26 36.73 8.28 39.77 C8.28 41.72 8.27 43.66 8.25 45.61 C8.26 46.51 8.26 47.41 8.27 48.34 C8.14 55.12 6.22 58.65 1.69 63.75 C-2.75 67.63 -6.66 67.98 -12.42 67.89 C-18.19 67.11 -23.57 63.98 -27.31 59.5 C-29.8 54.8 -29.62 50.25 -29.61 45.07 C-29.62 44.16 -29.62 43.25 -29.63 42.32 C-29.63 40.4 -29.63 38.48 -29.63 36.56 C-29.63 33.64 -29.65 30.72 -29.67 27.8 C-29.68 25.93 -29.68 24.06 -29.68 22.2 C-29.68 21.33 -29.69 20.46 -29.7 19.57 C-29.66 13.4 -28.79 8.46 -24.7 3.57 C-16.95 -2.75 -9.32 -4.22 0 0 Z " fill="#000002" transform="translate(794.3125,691.5)"/>
<path d="M0 0 C10.38 -0.15 20.65 0.3 31 1 C31 1.33 31 1.66 31 2 C27.33 2.17 23.67 2.34 20 2.5 C18.46 2.57 18.46 2.57 16.88 2.64 C11.25 2.9 5.64 3.05 0 3 C0 2.01 0 1.02 0 0 Z " fill="#FBDBC4" transform="translate(959,685)"/>
</svg>
