<?xml version="1.0" encoding="UTF-8"?>
<!-- Generator: visioncortex VTracer 0.6.3 -->
<svg version="1.1" xmlns="http://www.w3.org/2000/svg" width="1280" height="1280">
<path d="M0 0 C0.78 0.13 1.55 0.26 2.35 0.39 C9.75 1.66 17.03 3.44 24.29 5.32 C26.75 5.94 29.21 6.48 31.69 7 C35.39 7.81 38.91 8.91 42.48 10.15 C45.47 11.16 48.48 12.04 51.5 12.94 C56.07 14.33 60.38 15.91 64.69 17.95 C66.98 18.99 69.28 19.91 71.61 20.82 C77.01 22.97 82.26 25.37 87.5 27.88 C88.42 28.31 89.34 28.75 90.29 29.21 C96.41 32.16 102.27 35.33 108 39 C109.7 39.96 109.7 39.96 111.44 40.94 C115.51 43.24 119.42 45.79 123.35 48.32 C125.15 49.46 126.98 50.55 128.84 51.59 C129.55 52.06 130.26 52.52 131 53 C131 53.66 131 54.32 131 55 C131.71 55 132.43 54.99 133.16 54.99 C150.58 54.93 168.01 54.88 185.43 54.84 C193.85 54.83 202.28 54.81 210.7 54.77 C218.05 54.74 225.4 54.72 232.75 54.72 C236.64 54.71 240.52 54.7 244.41 54.68 C248.08 54.66 251.74 54.66 255.41 54.66 C257.38 54.66 259.34 54.64 261.31 54.63 C280.51 54.69 302.7 60.82 318 73 C318 73.66 318 74.32 318 75 C318.72 75.23 319.44 75.45 320.19 75.69 C323.6 77.28 325.44 79.25 328 82 C329.1 83.06 330.21 84.13 331.31 85.19 C334 88 334 88 334 90 C334.66 90 335.32 90 336 90 C337.7 92.26 339.27 94.51 340.81 96.88 C341.26 97.56 341.72 98.25 342.18 98.96 C354.66 118.27 358.21 137.58 358.62 160.19 C358.66 161.92 358.7 163.65 358.74 165.38 C358.84 169.59 358.92 173.79 359 178 C360.17 178.01 360.17 178.01 361.37 178.01 C380.41 178.12 399.46 178.23 418.51 178.34 C427.72 178.39 436.94 178.45 446.15 178.5 C454.18 178.54 462.22 178.59 470.25 178.64 C474.5 178.66 478.75 178.69 483 178.71 C487.01 178.73 491.02 178.75 495.03 178.78 C496.49 178.79 497.95 178.8 499.42 178.8 C522.21 178.9 545.64 181.06 563 198 C563 198.66 563 199.32 563 200 C563.96 200.4 563.96 200.4 564.94 200.81 C567 202 567 202 568 205 C568.66 205 569.32 205 570 205 C571.51 206.68 571.51 206.68 573.12 208.88 C573.66 209.59 574.2 210.31 574.76 211.05 C576 213 576 213 576 215 C576.66 215 577.32 215 578 215 C590.22 239.07 590.22 239.07 590.29 250.5 C590.3 251.22 590.31 251.95 590.32 252.69 C590.34 255.09 590.35 257.5 590.35 259.9 C590.37 261.63 590.38 263.36 590.39 265.09 C590.44 270.76 590.46 276.42 590.48 282.09 C590.48 284.04 590.49 286 590.5 287.95 C590.54 297.13 590.57 306.31 590.58 315.49 C590.6 326.08 590.66 336.66 590.74 347.24 C590.8 355.43 590.83 363.63 590.83 371.82 C590.84 376.71 590.86 381.59 590.91 386.48 C590.95 391.08 590.96 395.68 590.94 400.28 C590.94 401.96 590.95 403.64 590.98 405.33 C591.2 419.58 591.2 419.58 586.5 425.38 C582.33 429.67 579.36 429.88 573 432 C572.67 443.55 572.34 455.1 572 467 C574.31 467.66 576.62 468.32 579 469 C583.75 471.2 587.2 474.61 590 479 C590.81 481.97 590.8 484.79 590.74 487.85 C590.75 488.73 590.76 489.6 590.76 490.5 C590.78 493.42 590.75 496.35 590.73 499.27 C590.73 501.39 590.74 503.51 590.75 505.62 C590.76 511.44 590.74 517.26 590.71 523.08 C590.69 529.36 590.7 535.63 590.7 541.91 C590.71 552.78 590.7 563.66 590.66 574.53 C590.63 585.93 590.61 597.34 590.61 608.74 C590.61 609.45 590.61 610.16 590.61 610.89 C590.61 614.49 590.6 618.09 590.6 621.7 C590.6 647.21 590.56 672.71 590.51 698.22 C590.46 723 590.42 747.78 590.41 772.56 C590.4 773.32 590.4 774.09 590.4 774.87 C590.4 781.02 590.4 787.16 590.39 793.31 C590.37 819.79 590.35 846.27 590.32 872.75 C590.31 877.03 590.31 881.31 590.3 885.59 C590.28 902.57 590.26 919.56 590.22 936.54 C590.21 941.48 590.21 946.42 590.2 951.36 C590.19 957.03 590.18 962.7 590.17 968.37 C590.16 970.43 590.16 972.49 590.16 974.55 C590.16 977.34 590.15 980.12 590.14 982.9 C590.14 983.72 590.14 984.53 590.14 985.38 C590.11 990.89 590.11 990.89 589 992 C588.9 993.01 588.79 994.02 588.69 995.06 C588 999.02 586.85 1001.64 584.94 1005.11 C583.97 1007.06 583.45 1008.88 583 1011 C582.34 1011 581.68 1011 581 1011 C580.67 1012.65 580.34 1014.3 580 1016 C579.34 1016 578.68 1016 578 1016 C577.92 1016.54 577.84 1017.07 577.75 1017.62 C576.72 1020.87 575.03 1023.29 573 1026 C572.34 1026 571.68 1026 571 1026 C570.75 1026.58 570.51 1027.15 570.25 1027.75 C568.82 1030.33 567.22 1032.06 565 1034 C564.34 1034 563.68 1034 563 1034 C563 1034.66 563 1035.32 563 1036 C559.01 1039.7 554.82 1042.47 550 1045 C549.1 1045.49 548.2 1045.97 547.27 1046.48 C531.69 1054.65 515.6 1056.32 498.2 1056.23 C496.67 1056.23 495.13 1056.23 493.59 1056.23 C489.45 1056.23 485.32 1056.22 481.18 1056.2 C476.84 1056.19 472.51 1056.19 468.17 1056.19 C459.97 1056.18 451.78 1056.16 443.58 1056.14 C434.25 1056.12 424.91 1056.11 415.57 1056.1 C396.38 1056.08 377.19 1056.04 358 1056 C358.02 1057.08 358.03 1058.17 358.05 1059.28 C358.1 1063.36 358.14 1067.44 358.16 1071.52 C358.18 1073.28 358.2 1075.03 358.23 1076.78 C358.38 1087.33 358.08 1096.83 355 1107 C354.79 1107.7 354.58 1108.41 354.37 1109.13 C349.92 1123.29 342.94 1134.36 334 1146 C333.27 1146.97 332.54 1147.95 331.79 1148.95 C331.2 1149.63 330.61 1150.3 330 1151 C329.34 1151 328.68 1151 328 1151 C328 1151.66 328 1152.32 328 1153 C326.32 1154.51 326.32 1154.51 324.12 1156.12 C323.41 1156.66 322.69 1157.2 321.95 1157.76 C320 1159 320 1159 318 1159 C318 1159.66 318 1160.32 318 1161 C310.28 1166.64 301.91 1170.62 293 1174 C292.25 1174.32 291.5 1174.64 290.72 1174.96 C276.67 1180.32 261.55 1179.42 246.77 1179.38 C244.11 1179.38 241.44 1179.39 238.77 1179.4 C232.99 1179.41 227.21 1179.41 221.43 1179.4 C212.83 1179.39 204.24 1179.39 195.64 1179.4 C180.28 1179.42 164.93 1179.42 149.57 1179.41 C136.13 1179.4 122.69 1179.4 109.25 1179.4 C107.91 1179.4 107.91 1179.4 106.55 1179.4 C102.92 1179.4 99.3 1179.4 95.68 1179.41 C61.71 1179.41 27.75 1179.41 -6.22 1179.39 C-36.37 1179.38 -66.53 1179.38 -96.69 1179.39 C-130.6 1179.41 -164.5 1179.41 -198.4 1179.4 C-202.02 1179.4 -205.64 1179.4 -209.25 1179.4 C-210.14 1179.4 -211.03 1179.4 -211.95 1179.4 C-225.38 1179.4 -238.81 1179.4 -252.24 1179.41 C-267.51 1179.42 -282.78 1179.42 -298.06 1179.4 C-306.6 1179.39 -315.14 1179.39 -323.68 1179.4 C-329.39 1179.41 -335.11 1179.4 -340.82 1179.39 C-344.07 1179.38 -347.32 1179.38 -350.57 1179.39 C-376.12 1179.46 -396.45 1175.37 -418 1161 C-418 1160.34 -418 1159.68 -418 1159 C-418.68 1158.79 -419.36 1158.59 -420.06 1158.38 C-427.75 1154.77 -433.24 1147.87 -438 1141 C-438 1140.34 -438 1139.68 -438 1139 C-438.66 1139 -439.32 1139 -440 1139 C-446.03 1130.68 -450.66 1121.04 -453.38 1111.17 C-453.98 1108.91 -453.98 1108.91 -455.06 1106.5 C-458.95 1096.14 -458.23 1085.25 -458.12 1074.38 C-458.11 1072.59 -458.11 1070.8 -458.1 1069.02 C-458.08 1064.68 -458.04 1060.34 -458 1056 C-458.79 1056 -459.58 1056.01 -460.39 1056.01 C-479.64 1056.07 -498.89 1056.12 -518.14 1056.16 C-527.45 1056.17 -536.76 1056.19 -546.07 1056.23 C-554.19 1056.26 -562.31 1056.28 -570.43 1056.28 C-574.72 1056.29 -579.02 1056.3 -583.31 1056.32 C-587.37 1056.34 -591.42 1056.34 -595.48 1056.34 C-596.95 1056.34 -598.43 1056.35 -599.9 1056.36 C-622.83 1056.53 -645.38 1051.55 -663 1036 C-663 1035.34 -663 1034.68 -663 1034 C-663.96 1033.6 -663.96 1033.6 -664.94 1033.19 C-667 1032 -667 1032 -668 1029 C-668.99 1028.67 -669.98 1028.34 -671 1028 C-671 1027.34 -671 1026.68 -671 1026 C-671.66 1026 -672.32 1026 -673 1026 C-674.73 1023.76 -676.32 1021.54 -677.88 1019.19 C-678.33 1018.5 -678.78 1017.82 -679.25 1017.12 C-682.78 1011.64 -685.15 1006.25 -687 1000 C-687.36 999.11 -687.36 999.11 -687.72 998.21 C-690.3 991.53 -690.42 985.34 -690.38 978.24 C-690.38 976.97 -690.39 975.69 -690.39 974.39 C-690.4 970.86 -690.4 967.34 -690.39 963.82 C-690.38 959.99 -690.39 956.15 -690.4 952.32 C-690.41 945.6 -690.41 938.89 -690.4 932.17 C-690.39 922.18 -690.39 912.2 -690.4 902.21 C-690.42 884.37 -690.42 866.53 -690.41 848.69 C-690.4 833.08 -690.4 817.47 -690.4 801.86 C-690.4 800.83 -690.4 799.79 -690.4 798.73 C-690.4 794.53 -690.4 790.32 -690.41 786.12 C-690.41 746.7 -690.41 707.28 -690.39 667.86 C-690.38 632.83 -690.38 597.8 -690.39 562.76 C-690.41 523.42 -690.41 484.07 -690.4 444.72 C-690.4 440.52 -690.4 436.33 -690.4 432.14 C-690.4 431.1 -690.4 430.07 -690.4 429.01 C-690.4 413.41 -690.4 397.8 -690.41 382.2 C-690.42 364.47 -690.42 346.73 -690.4 328.99 C-690.39 319.06 -690.39 309.13 -690.4 299.2 C-690.41 292.57 -690.4 285.94 -690.39 279.31 C-690.38 275.53 -690.38 271.75 -690.39 267.98 C-690.4 263.9 -690.39 259.83 -690.38 255.76 C-690.38 254.59 -690.39 253.42 -690.4 252.21 C-690.35 245.56 -689.54 240.14 -687 234 C-686.67 233.09 -686.35 232.19 -686.01 231.25 C-683.77 225.55 -681.11 220.27 -678 215 C-677.34 215 -676.68 215 -676 215 C-675.75 214.28 -675.5 213.56 -675.25 212.81 C-673.88 209.72 -672.28 207.49 -670 205 C-669.34 205 -668.68 205 -668 205 C-667.73 204.36 -667.46 203.72 -667.19 203.06 C-666 201 -666 201 -663 200 C-663 199.34 -663 198.68 -663 198 C-643.47 181.18 -622.06 178.9 -597.27 178.79 C-595.75 178.79 -594.24 178.78 -592.72 178.76 C-588.64 178.74 -584.56 178.72 -580.48 178.7 C-576.2 178.67 -571.93 178.65 -567.65 178.62 C-559.57 178.57 -551.48 178.53 -543.4 178.48 C-534.19 178.43 -524.98 178.38 -515.77 178.32 C-496.85 178.21 -477.92 178.1 -459 178 C-458.99 176.92 -458.97 175.83 -458.96 174.72 C-458.9 170.64 -458.82 166.56 -458.74 162.48 C-458.7 160.72 -458.68 158.97 -458.65 157.22 C-458.51 146.74 -457.99 137.11 -455 127 C-454.79 126.3 -454.59 125.59 -454.37 124.87 C-448.94 107.66 -439.22 90.53 -425 79 C-424.34 79 -423.68 79 -423 79 C-423 78.34 -423 77.68 -423 77 C-420.74 75.3 -418.49 73.73 -416.12 72.19 C-415.09 71.51 -415.09 71.51 -414.04 70.82 C-396.9 59.74 -379.17 54.66 -358.83 54.77 C-357.43 54.77 -356.03 54.77 -354.63 54.77 C-350.86 54.77 -347.08 54.78 -343.31 54.8 C-339.36 54.81 -335.41 54.81 -331.45 54.81 C-323.98 54.82 -316.51 54.84 -309.04 54.86 C-300.52 54.88 -292.01 54.89 -283.5 54.9 C-266 54.92 -248.5 54.96 -231 55 C-231 54.34 -231 53.68 -231 53 C-228.91 51.48 -228.91 51.48 -226.06 49.75 C-222.5 47.55 -219 45.33 -215.56 42.94 C-211.12 39.94 -206.42 37.61 -201.6 35.3 C-198.87 34 -198.87 34 -196 32 C-195.01 32 -194.02 32 -193 32 C-193 31.34 -193 30.68 -193 30 C-192.13 29.67 -192.13 29.67 -191.23 29.34 C-185.24 27.02 -179.55 24.34 -173.86 21.37 C-170.96 19.98 -168.06 18.98 -165 18 C-163.51 17.32 -163.51 17.32 -162 16.62 C-157.29 14.55 -152.31 13.35 -147.36 11.97 C-144.77 11.22 -142.31 10.42 -139.81 9.44 C-132.7 6.65 -125.23 4.94 -117.73 3.53 C-115.8 3.15 -113.87 2.75 -111.95 2.32 C-107.98 1.45 -104 0.69 -100 0 C-99.19 -0.14 -98.38 -0.28 -97.54 -0.43 C-66.05 -5.59 -31.45 -5.22 0 0 Z M571 430 C572 432 572 432 572 432 Z " fill="#000102" transform="translate(690,52)"/>
<path d="M0 0 C11.79 0.06 23.58 0.14 35.36 0.24 C40.84 0.28 46.31 0.32 51.79 0.35 C57.08 0.37 62.37 0.41 67.66 0.46 C69.67 0.48 71.68 0.49 73.69 0.5 C93.19 0.56 108.68 2.83 123.1 16.98 C134.27 28.39 141.12 41.47 141.13 57.67 C141.13 58.33 141.13 59 141.13 59.68 C141.14 61.9 141.13 64.13 141.13 66.36 C141.13 67.97 141.14 69.59 141.14 71.2 C141.14 75.66 141.14 80.13 141.14 84.59 C141.14 89.44 141.15 94.28 141.15 99.13 C141.16 108.75 141.16 118.37 141.16 127.99 C141.16 139.52 141.17 151.04 141.17 162.56 C141.19 190.41 141.2 218.25 141.2 246.1 C141.2 259.27 141.21 272.44 141.21 285.61 C141.22 329.97 141.23 374.34 141.24 418.7 C141.24 420.82 141.24 422.94 141.24 425.06 C141.24 429.31 141.24 433.57 141.24 437.82 C141.24 442.8 141.24 447.78 141.24 452.76 C141.24 454.18 141.24 455.61 141.24 457.03 C141.24 502.8 141.26 548.56 141.28 594.33 C141.3 627.21 141.31 660.1 141.32 692.98 C141.32 693.66 141.32 694.33 141.32 695.03 C141.32 709.21 141.32 723.39 141.32 737.57 C141.32 744.21 141.32 750.85 141.32 757.49 C141.32 758.8 141.32 760.11 141.32 761.45 C141.32 782.5 141.34 803.55 141.35 824.6 C141.36 845.75 141.37 866.9 141.36 888.05 C141.36 900.62 141.36 913.19 141.38 925.76 C141.38 934.16 141.38 942.55 141.37 950.95 C141.37 955.73 141.37 960.52 141.38 965.3 C141.39 969.66 141.39 974.01 141.38 978.37 C141.37 979.93 141.38 981.49 141.38 983.06 C141.48 1002.68 136.43 1016.8 122.98 1031.16 C111.87 1041.87 98.28 1046.31 83.14 1046.27 C82.06 1046.27 80.99 1046.28 79.88 1046.28 C76.26 1046.3 72.65 1046.3 69.03 1046.3 C66.42 1046.31 63.8 1046.31 61.19 1046.32 C55.5 1046.34 49.81 1046.35 44.11 1046.36 C35.65 1046.36 27.19 1046.38 18.73 1046.41 C2.74 1046.45 -13.26 1046.47 -29.25 1046.5 C-41.6 1046.51 -53.96 1046.53 -66.31 1046.56 C-68.09 1046.56 -69.86 1046.57 -71.63 1046.57 C-74.31 1046.57 -76.98 1046.58 -79.66 1046.58 C-104.53 1046.63 -129.39 1046.68 -154.26 1046.71 C-155.2 1046.71 -156.14 1046.71 -157.1 1046.71 C-161.85 1046.72 -166.61 1046.73 -171.36 1046.73 C-172.3 1046.74 -173.25 1046.74 -174.22 1046.74 C-176.13 1046.74 -178.04 1046.74 -179.94 1046.75 C-209.63 1046.79 -239.32 1046.84 -269.01 1046.91 C-302.36 1046.98 -335.72 1047.05 -369.08 1047.09 C-372.64 1047.1 -376.19 1047.11 -379.75 1047.11 C-381.07 1047.11 -381.07 1047.11 -382.41 1047.11 C-395.62 1047.13 -408.84 1047.16 -422.06 1047.19 C-437.1 1047.23 -452.13 1047.25 -467.17 1047.27 C-475.58 1047.27 -483.99 1047.29 -492.4 1047.31 C-498.03 1047.33 -503.65 1047.34 -509.28 1047.33 C-512.48 1047.33 -515.68 1047.34 -518.88 1047.35 C-541.35 1047.46 -560.95 1046.43 -578.01 1030.05 C-579.35 1028.72 -580.68 1027.36 -582 1026 C-582.63 1025.37 -583.26 1024.74 -583.9 1024.09 C-593.32 1013.95 -596.14 1001.38 -596.17 987.99 C-596.18 987 -596.19 986.01 -596.19 984.98 C-596.21 982.83 -596.22 980.68 -596.23 978.53 C-596.25 975.13 -596.27 971.72 -596.29 968.32 C-596.37 958.64 -596.43 948.96 -596.48 939.28 C-596.51 933.35 -596.55 927.43 -596.6 921.5 C-596.61 919.25 -596.63 916.99 -596.63 914.74 C-596.65 911.58 -596.67 908.42 -596.7 905.27 C-596.7 904.34 -596.7 903.42 -596.7 902.47 C-596.79 894.18 -598.05 886.82 -603 880 C-608.83 876.46 -614.66 876.01 -621.21 877.5 C-625.82 879 -628.52 880.69 -631 885 C-634.19 892.91 -634.53 900.68 -634.69 909.12 C-634.72 910.37 -634.76 911.61 -634.79 912.89 C-634.87 915.93 -634.94 918.96 -635 922 C-655.95 922.09 -676.9 922.16 -697.85 922.21 C-707.58 922.23 -717.3 922.26 -727.03 922.3 C-735.51 922.34 -743.99 922.37 -752.48 922.38 C-756.96 922.38 -761.45 922.39 -765.94 922.42 C-770.17 922.45 -774.4 922.46 -778.63 922.45 C-780.18 922.45 -781.73 922.46 -783.27 922.48 C-796.82 922.61 -805.78 919.98 -816 911 C-816.64 910.45 -817.28 909.91 -817.94 909.34 C-826.15 901.83 -829.48 892.06 -830.19 881.14 C-830.26 877.94 -830.27 874.75 -830.25 871.56 C-830.26 870.33 -830.26 869.11 -830.26 867.85 C-830.27 864.47 -830.27 861.08 -830.26 857.7 C-830.26 854.01 -830.27 850.32 -830.27 846.63 C-830.28 840.18 -830.28 833.72 -830.28 827.26 C-830.27 817.66 -830.28 808.05 -830.29 798.45 C-830.3 780.3 -830.3 762.15 -830.3 743.99 C-830.3 729.98 -830.3 715.96 -830.31 701.95 C-830.31 699.93 -830.31 697.92 -830.31 695.91 C-830.31 692.87 -830.31 689.84 -830.31 686.8 C-830.32 658.59 -830.32 630.38 -830.32 602.17 C-830.32 601.11 -830.32 600.04 -830.32 598.95 C-830.32 593.56 -830.32 588.17 -830.32 582.78 C-830.32 581.71 -830.32 580.64 -830.32 579.53 C-830.32 577.37 -830.32 575.2 -830.32 573.04 C-830.31 539.35 -830.32 505.66 -830.34 471.97 C-830.36 434.12 -830.37 396.28 -830.36 358.43 C-830.36 354.39 -830.36 350.36 -830.36 346.32 C-830.36 345.33 -830.36 344.33 -830.36 343.31 C-830.36 328.31 -830.37 313.31 -830.38 298.3 C-830.39 281.24 -830.39 264.18 -830.38 247.12 C-830.37 237.58 -830.37 228.03 -830.39 218.48 C-830.4 212.11 -830.39 205.73 -830.38 199.35 C-830.38 195.72 -830.37 192.08 -830.39 188.45 C-830.4 184.53 -830.39 180.61 -830.37 176.69 C-830.38 175.57 -830.39 174.45 -830.4 173.3 C-830.3 159.48 -826.92 146.88 -817.31 136.69 C-809.13 128.93 -799.48 124.75 -788.13 124.75 C-787.47 124.75 -786.82 124.75 -786.15 124.75 C-783.97 124.74 -781.8 124.75 -779.63 124.76 C-778.06 124.76 -776.49 124.75 -774.93 124.75 C-770.69 124.75 -766.45 124.75 -762.22 124.76 C-757.78 124.77 -753.35 124.77 -748.91 124.77 C-741.47 124.77 -734.03 124.78 -726.59 124.79 C-717.98 124.81 -709.37 124.82 -700.76 124.81 C-692.48 124.81 -684.2 124.82 -675.92 124.83 C-672.39 124.83 -668.87 124.83 -665.34 124.83 C-661.19 124.83 -657.05 124.84 -652.9 124.85 C-651.38 124.85 -649.85 124.85 -648.33 124.85 C-646.25 124.85 -644.18 124.86 -642.11 124.87 C-640.95 124.87 -639.78 124.87 -638.59 124.87 C-636 125 -636 125 -635 126 C-634.9 128.29 -634.88 130.59 -634.88 132.89 C-634.88 133.62 -634.87 134.35 -634.87 135.1 C-634.87 137.59 -634.88 140.07 -634.88 142.56 C-634.88 144.35 -634.88 146.13 -634.88 147.92 C-634.87 152.85 -634.88 157.79 -634.88 162.72 C-634.89 168.04 -634.89 173.35 -634.89 178.66 C-634.89 187.87 -634.89 197.08 -634.89 206.3 C-634.9 219.61 -634.9 232.93 -634.91 246.25 C-634.91 267.86 -634.92 289.47 -634.92 311.07 C-634.93 332.07 -634.94 353.06 -634.95 374.06 C-634.95 375.35 -634.95 376.64 -634.95 377.98 C-634.95 384.46 -634.95 390.95 -634.95 397.44 C-634.96 451.29 -634.98 505.15 -635 559 C-636.28 559 -637.57 558.99 -638.89 558.99 C-651 558.95 -663.1 558.92 -675.21 558.9 C-681.44 558.89 -687.66 558.87 -693.89 558.85 C-699.9 558.83 -705.91 558.82 -711.92 558.81 C-714.21 558.81 -716.5 558.8 -718.79 558.79 C-722 558.77 -725.22 558.77 -728.43 558.77 C-729.37 558.77 -730.31 558.76 -731.28 558.75 C-738.66 558.77 -747.09 559.1 -753 564 C-756.86 569.51 -758.44 574.28 -758 581 C-757.26 584.88 -756.26 587.9 -753.23 590.55 C-745.92 595.3 -739.26 596.3 -730.7 596.3 C-729.67 596.31 -728.65 596.32 -727.59 596.33 C-724.22 596.35 -720.85 596.37 -717.48 596.38 C-715.14 596.4 -712.79 596.41 -710.45 596.43 C-704.29 596.48 -698.13 596.51 -691.97 596.54 C-682.09 596.59 -672.22 596.66 -662.34 596.73 C-658.88 596.75 -655.43 596.77 -651.97 596.79 C-649.86 596.8 -647.76 596.81 -645.66 596.83 C-644.69 596.83 -643.72 596.83 -642.72 596.83 C-641.41 596.84 -641.41 596.84 -640.07 596.86 C-639.3 596.86 -638.53 596.86 -637.75 596.87 C-636 597 -636 597 -635 598 C-634.91 599.35 -634.88 600.71 -634.89 602.06 C-634.89 602.92 -634.89 603.78 -634.89 604.67 C-634.89 605.6 -634.9 606.54 -634.9 607.5 C-634.9 608.93 -634.9 608.93 -634.91 610.39 C-634.91 613.45 -634.92 616.51 -634.94 619.56 C-634.94 621.63 -634.95 623.7 -634.95 625.76 C-634.96 630.84 -634.98 635.92 -635 641 C-636.29 641.01 -637.57 641.02 -638.89 641.02 C-651.02 641.1 -663.14 641.19 -675.27 641.29 C-681.5 641.34 -687.73 641.38 -693.96 641.42 C-699.98 641.46 -706 641.51 -712.01 641.56 C-714.31 641.58 -716.6 641.59 -718.89 641.6 C-722.11 641.62 -725.33 641.65 -728.54 641.68 C-729.49 641.68 -730.43 641.69 -731.4 641.69 C-739.58 641.79 -748.67 642.67 -754.75 648.75 C-758.27 655.08 -758.56 661.06 -757 668 C-754.38 673.44 -751.31 675.53 -746 678 C-740.63 679.23 -735.27 679.17 -729.79 679.19 C-728.77 679.2 -727.76 679.21 -726.72 679.21 C-724.52 679.23 -722.33 679.25 -720.14 679.26 C-716.67 679.28 -713.2 679.31 -709.74 679.34 C-701.13 679.41 -692.53 679.47 -683.93 679.53 C-676.65 679.58 -669.37 679.63 -662.09 679.69 C-658.66 679.72 -655.24 679.74 -651.82 679.76 C-649.73 679.78 -647.65 679.79 -645.57 679.81 C-644.13 679.82 -644.13 679.82 -642.66 679.82 C-641.79 679.83 -640.92 679.84 -640.03 679.85 C-639.27 679.85 -638.51 679.86 -637.73 679.86 C-636 680 -636 680 -635 681 C-634.91 682.44 -634.88 683.89 -634.89 685.34 C-634.89 686.26 -634.89 687.18 -634.89 688.13 C-634.89 689.13 -634.9 690.13 -634.9 691.16 C-634.9 692.69 -634.9 692.69 -634.91 694.25 C-634.91 697.52 -634.92 700.79 -634.94 704.06 C-634.94 706.27 -634.95 708.49 -634.95 710.7 C-634.96 716.13 -634.98 721.57 -635 727 C-636.29 727.01 -637.59 727.01 -638.92 727.02 C-651.13 727.08 -663.34 727.15 -675.55 727.24 C-681.83 727.28 -688.11 727.32 -694.38 727.35 C-700.45 727.37 -706.51 727.41 -712.57 727.46 C-714.88 727.48 -717.19 727.49 -719.5 727.5 C-722.74 727.51 -725.98 727.54 -729.23 727.57 C-730.17 727.57 -731.12 727.56 -732.09 727.56 C-739.57 727.67 -746.82 728.63 -752.94 733.19 C-757.36 739.22 -758.61 744.31 -757.49 751.74 C-756.63 755.7 -755.55 757.88 -752.22 760.28 C-746.05 764.03 -741.13 764.72 -733.99 764.64 C-732.93 764.65 -731.86 764.66 -730.77 764.67 C-727.28 764.69 -723.8 764.68 -720.31 764.67 C-717.88 764.68 -715.46 764.7 -713.03 764.71 C-706.66 764.74 -700.28 764.75 -693.91 764.75 C-684.9 764.75 -675.9 764.79 -666.89 764.83 C-662.09 764.85 -657.3 764.86 -652.5 764.86 C-650.33 764.87 -648.15 764.87 -645.98 764.87 C-644.98 764.87 -643.97 764.87 -642.94 764.87 C-642.04 764.87 -641.13 764.87 -640.2 764.88 C-639.01 764.88 -639.01 764.88 -637.8 764.88 C-636 765 -636 765 -635 766 C-634.89 767.6 -634.85 769.21 -634.84 770.82 C-634.83 771.85 -634.82 772.88 -634.81 773.94 C-634.8 775.06 -634.8 776.18 -634.79 777.34 C-634.76 779.71 -634.73 782.07 -634.7 784.44 C-634.66 788.18 -634.63 791.92 -634.6 795.66 C-634.57 799.26 -634.52 802.86 -634.48 806.46 C-634.47 808.12 -634.47 808.12 -634.47 809.81 C-634.35 817.37 -633.84 825.18 -629.19 831.44 C-622.59 836.15 -617.02 836.96 -609 836 C-604.92 834.71 -602.43 832.5 -599.62 829.25 C-595.96 821.91 -596.86 813.09 -596.87 805.07 C-596.87 803.77 -596.87 802.47 -596.86 801.13 C-596.86 797.52 -596.86 793.91 -596.86 790.3 C-596.86 786.37 -596.86 782.44 -596.85 778.51 C-596.85 771.63 -596.84 764.75 -596.84 757.86 C-596.84 747.62 -596.84 737.39 -596.83 727.15 C-596.82 710.98 -596.81 694.81 -596.8 678.65 C-596.79 652.98 -596.77 627.32 -596.75 601.65 C-596.74 591.78 -596.73 581.9 -596.73 572.03 C-596.72 570.38 -596.72 570.38 -596.72 568.7 C-596.7 542.59 -596.68 516.47 -596.66 490.36 C-596.66 489.22 -596.66 488.07 -596.66 486.9 C-596.64 460.23 -596.62 433.57 -596.61 406.91 C-596.61 405.76 -596.61 404.62 -596.61 403.43 C-596.61 394.19 -596.6 384.95 -596.6 375.7 C-596.58 337.6 -596.55 299.5 -596.51 261.39 C-596.51 256.01 -596.5 250.63 -596.5 245.25 C-596.5 244.19 -596.5 243.13 -596.49 242.04 C-596.48 225 -596.47 207.95 -596.47 190.9 C-596.47 173.77 -596.46 156.64 -596.43 139.51 C-596.42 129.34 -596.42 119.16 -596.42 108.98 C-596.43 102.18 -596.42 95.38 -596.4 88.58 C-596.4 84.71 -596.39 80.84 -596.4 76.96 C-596.41 72.79 -596.4 68.61 -596.38 64.43 C-596.39 63.24 -596.4 62.04 -596.4 60.81 C-596.28 43.79 -590.75 28.87 -578.69 16.66 C-572.65 11.18 -566.76 7.01 -559 4.31 C-557.82 3.9 -556.65 3.48 -555.44 3.05 C-549.33 1.18 -543.6 0.85 -537.27 0.85 C-536.42 0.85 -535.56 0.85 -534.68 0.84 C-531.86 0.84 -529.05 0.83 -526.23 0.83 C-524.27 0.83 -522.32 0.83 -520.36 0.82 C-516.26 0.82 -512.16 0.81 -508.06 0.81 C-502.8 0.81 -497.54 0.8 -492.27 0.78 C-488.23 0.77 -484.19 0.77 -480.15 0.77 C-478.21 0.77 -476.27 0.77 -474.33 0.76 C-471.62 0.75 -468.92 0.75 -466.21 0.76 C-465.4 0.75 -464.6 0.75 -463.77 0.74 C-458.23 0.77 -458.23 0.77 -456 3 C-457 4.06 -457 4.06 -458.02 5.13 C-501.19 51.19 -528.53 109.95 -539 172 C-539.15 172.89 -539.3 173.78 -539.46 174.69 C-544.43 205.16 -544.25 238.59 -539 269 C-538.83 270.02 -538.66 271.04 -538.48 272.08 C-534.24 296.54 -527.27 319.99 -518 343 C-517.7 343.76 -517.39 344.51 -517.08 345.29 C-504.41 376.36 -485.68 404.93 -463.11 429.67 C-461.24 431.73 -459.43 433.82 -457.62 435.94 C-450.63 443.93 -443.1 451.17 -434.79 457.77 C-431.96 460.03 -429.24 462.39 -426.5 464.75 C-419.1 470.94 -411.12 476.27 -403.1 481.61 C-401.43 482.72 -399.77 483.84 -398.11 484.96 C-383.01 494.94 -366.66 503 -350 510 C-348.94 510.46 -347.88 510.92 -346.78 511.39 C-343.87 512.63 -340.94 513.82 -338 515 C-336.9 515.46 -335.8 515.92 -334.66 516.39 C-266.66 543.93 -186.17 540.32 -118 516 C-116.8 515.58 -115.6 515.16 -114.37 514.73 C-106.29 511.77 -98.71 507.98 -91.07 504.05 C-89 503 -86.93 501.97 -84.85 500.95 C-46.31 482.04 -9.12 453.28 17 419 C17.77 418.04 18.54 417.07 19.33 416.08 C25.91 407.79 31.76 399.05 37.55 390.2 C39.08 387.88 40.63 385.57 42.18 383.27 C48.75 373.43 53.86 362.64 59 352 C59.57 350.84 60.13 349.67 60.71 348.47 C79.06 308.72 87.47 264.29 87.38 220.69 C87.37 219.74 87.37 218.79 87.37 217.81 C87.33 200.57 86.03 183.99 83 167 C82.81 165.86 82.61 164.73 82.42 163.56 C77.6 135.95 68.67 108.03 56 83 C55.47 81.94 55.47 81.94 54.94 80.86 C40.91 52.87 23.32 27.68 2.24 4.59 C1 3 1 3 0 0 Z " fill="#DDEAEF" transform="translate(867,145)"/>
<path d="M0 0 C0.98 -0 0.98 -0 1.98 -0.01 C4.16 -0.01 6.33 -0 8.5 0 C10.07 0 11.63 0 13.2 -0 C17.44 -0.01 21.68 0 25.91 0.01 C30.35 0.02 34.78 0.02 39.22 0.02 C46.66 0.02 54.09 0.03 61.53 0.04 C70.14 0.06 78.76 0.06 87.37 0.06 C95.65 0.06 103.93 0.07 112.21 0.07 C115.74 0.08 119.26 0.08 122.79 0.08 C126.94 0.08 131.08 0.09 135.23 0.1 C136.75 0.1 138.28 0.1 139.8 0.1 C141.87 0.1 143.95 0.11 146.02 0.11 C147.18 0.12 148.34 0.12 149.54 0.12 C152.13 0.25 152.13 0.25 153.13 1.25 C153.23 3.54 153.25 5.84 153.25 8.13 C153.25 8.86 153.25 9.6 153.26 10.35 C153.26 12.84 153.25 15.32 153.25 17.81 C153.25 19.59 153.25 21.38 153.25 23.17 C153.25 28.1 153.25 33.04 153.24 37.97 C153.24 43.28 153.24 48.59 153.24 53.91 C153.24 63.12 153.24 72.33 153.23 81.54 C153.23 94.86 153.22 108.18 153.22 121.5 C153.22 143.11 153.21 164.71 153.2 186.32 C153.19 207.32 153.19 228.31 153.18 249.3 C153.18 250.6 153.18 251.89 153.18 253.22 C153.18 259.71 153.18 266.2 153.18 272.68 C153.17 326.54 153.15 380.39 153.13 434.25 C151.85 434.24 150.56 434.24 149.24 434.23 C137.13 434.19 125.02 434.16 112.92 434.14 C106.69 434.13 100.47 434.12 94.24 434.1 C88.23 434.07 82.22 434.06 76.21 434.06 C73.92 434.05 71.63 434.05 69.34 434.04 C66.13 434.02 62.91 434.02 59.7 434.02 C58.76 434.01 57.82 434.01 56.85 434 C49.47 434.02 41.04 434.35 35.13 439.25 C31.27 444.76 29.69 449.53 30.13 456.25 C30.87 460.13 31.87 463.15 34.9 465.79 C42.21 470.55 48.87 471.54 57.43 471.55 C58.46 471.56 59.48 471.57 60.53 471.58 C63.91 471.6 67.28 471.61 70.65 471.63 C72.99 471.64 75.33 471.66 77.68 471.68 C83.84 471.72 90 471.76 96.16 471.79 C106.03 471.84 115.91 471.91 125.79 471.98 C129.25 472 132.7 472.02 136.16 472.03 C138.26 472.05 140.37 472.06 142.47 472.07 C143.92 472.08 143.92 472.08 145.41 472.08 C146.28 472.09 147.16 472.1 148.06 472.1 C148.83 472.11 149.59 472.11 150.38 472.11 C152.13 472.25 152.13 472.25 153.13 473.25 C153.22 474.6 153.25 475.95 153.24 477.31 C153.24 478.17 153.24 479.03 153.24 479.92 C153.24 480.85 153.23 481.79 153.23 482.75 C153.22 484.18 153.22 484.18 153.22 485.64 C153.22 488.7 153.2 491.75 153.19 494.81 C153.19 496.88 153.18 498.94 153.18 501.01 C153.17 506.09 153.15 511.17 153.13 516.25 C151.84 516.26 150.56 516.26 149.23 516.27 C137.11 516.35 124.99 516.44 112.86 516.53 C106.63 516.58 100.4 516.63 94.17 516.67 C88.15 516.71 82.13 516.75 76.11 516.81 C73.82 516.82 71.53 516.84 69.23 516.85 C66.02 516.87 62.8 516.9 59.58 516.93 C58.64 516.93 57.7 516.93 56.72 516.93 C48.55 517.04 39.46 517.91 33.38 524 C29.86 530.33 29.57 536.31 31.13 543.25 C33.75 548.68 36.82 550.77 42.13 553.25 C47.5 554.48 52.86 554.41 58.34 554.44 C59.35 554.44 60.37 554.45 61.41 554.46 C63.61 554.48 65.8 554.49 67.99 554.51 C71.46 554.53 74.93 554.56 78.39 554.58 C86.99 554.65 95.6 554.71 104.2 554.77 C111.48 554.82 118.76 554.88 126.04 554.94 C129.46 554.97 132.89 554.99 136.31 555.01 C138.4 555.02 140.48 555.04 142.56 555.06 C144 555.06 144 555.06 145.47 555.07 C146.34 555.08 147.21 555.09 148.1 555.1 C148.86 555.1 149.62 555.11 150.4 555.11 C152.13 555.25 152.13 555.25 153.13 556.25 C153.22 557.69 153.25 559.14 153.24 560.58 C153.24 561.5 153.24 562.43 153.24 563.37 C153.24 564.37 153.23 565.38 153.23 566.41 C153.22 567.94 153.22 567.94 153.22 569.5 C153.22 572.77 153.2 576.04 153.19 579.31 C153.19 581.52 153.18 583.73 153.18 585.94 C153.17 591.38 153.15 596.81 153.13 602.25 C151.84 602.25 150.54 602.26 149.21 602.27 C137 602.32 124.79 602.4 112.58 602.48 C106.3 602.53 100.02 602.57 93.74 602.59 C87.68 602.62 81.62 602.66 75.56 602.71 C73.25 602.73 70.94 602.74 68.63 602.74 C65.39 602.75 62.15 602.78 58.9 602.81 C57.96 602.81 57.01 602.81 56.04 602.81 C48.56 602.92 41.31 603.88 35.19 608.43 C30.77 614.47 29.52 619.55 30.64 626.99 C31.5 630.95 32.58 633.13 35.91 635.53 C42.08 639.28 47 639.96 54.14 639.89 C55.2 639.9 56.27 639.91 57.36 639.92 C60.85 639.94 64.33 639.93 67.82 639.92 C70.24 639.93 72.67 639.94 75.1 639.96 C81.47 639.99 87.84 640 94.22 640 C103.22 640 112.23 640.04 121.24 640.08 C126.04 640.1 130.83 640.11 135.63 640.11 C137.8 640.11 139.98 640.12 142.15 640.12 C143.15 640.12 144.16 640.12 145.19 640.11 C146.09 640.12 147 640.12 147.93 640.12 C149.12 640.12 149.12 640.12 150.33 640.12 C152.13 640.25 152.13 640.25 153.13 641.25 C153.24 642.85 153.27 644.46 153.29 646.07 C153.3 647.1 153.31 648.12 153.32 649.18 C153.32 650.31 153.33 651.43 153.34 652.59 C153.37 654.95 153.4 657.32 153.43 659.69 C153.47 663.43 153.5 667.16 153.53 670.9 C153.56 674.51 153.6 678.11 153.65 681.71 C153.66 683.37 153.66 683.37 153.66 685.06 C153.81 694.27 154.44 701.56 161.13 708.25 C167.07 711.22 167.07 711.22 173.13 714.25 C173.13 726.46 173.13 738.67 173.13 751.25 C168.18 752.73 168.18 752.73 163.13 754.25 C158.41 757.06 156.93 760.12 155.13 765.25 C154.21 769.06 153.94 772.72 153.81 776.64 C153.77 777.84 153.73 779.05 153.69 780.28 C153.65 781.53 153.61 782.78 153.57 784.06 C153.52 785.32 153.48 786.59 153.44 787.89 C153.33 791.01 153.23 794.13 153.13 797.25 C132.18 797.34 111.23 797.41 90.28 797.45 C80.55 797.48 70.82 797.5 61.1 797.55 C52.62 797.59 44.13 797.61 35.65 797.62 C31.16 797.63 26.68 797.64 22.19 797.67 C17.96 797.7 13.73 797.71 9.5 797.7 C7.95 797.7 6.4 797.71 4.86 797.72 C-8.69 797.85 -17.65 795.23 -27.87 786.25 C-28.51 785.7 -29.15 785.15 -29.81 784.59 C-38.02 777.08 -41.35 767.31 -42.06 756.39 C-42.13 753.19 -42.14 750 -42.13 746.81 C-42.13 745.58 -42.13 744.36 -42.14 743.1 C-42.14 739.71 -42.14 736.33 -42.13 732.94 C-42.13 729.26 -42.14 725.57 -42.14 721.88 C-42.15 715.42 -42.15 708.96 -42.15 702.51 C-42.14 692.9 -42.15 683.3 -42.16 673.69 C-42.17 655.54 -42.18 637.39 -42.17 619.24 C-42.17 605.23 -42.17 591.21 -42.18 577.19 C-42.18 575.18 -42.18 573.17 -42.18 571.15 C-42.18 568.12 -42.18 565.09 -42.18 562.05 C-42.19 533.84 -42.2 505.63 -42.19 477.42 C-42.19 476.36 -42.19 475.29 -42.19 474.2 C-42.19 468.81 -42.19 463.42 -42.19 458.03 C-42.19 456.95 -42.19 455.88 -42.19 454.78 C-42.19 452.62 -42.19 450.45 -42.19 448.29 C-42.18 414.6 -42.19 380.91 -42.21 347.22 C-42.23 309.37 -42.24 271.52 -42.23 233.67 C-42.23 229.64 -42.23 225.6 -42.23 221.57 C-42.23 220.57 -42.23 219.58 -42.23 218.56 C-42.23 203.55 -42.24 188.55 -42.25 173.55 C-42.26 156.49 -42.26 139.43 -42.25 122.37 C-42.24 112.83 -42.25 103.28 -42.26 93.73 C-42.27 87.35 -42.26 80.97 -42.25 74.6 C-42.25 70.96 -42.25 67.33 -42.26 63.7 C-42.27 59.78 -42.26 55.86 -42.25 51.94 C-42.25 50.82 -42.26 49.7 -42.27 48.54 C-42.17 34.73 -38.79 22.13 -29.18 11.93 C-21 4.17 -11.36 -0.01 0 0 Z " fill="#B4E6FB" transform="translate(78.87130737304688,269.7527618408203)"/>
<path d="M0 0 C20.82 -0.07 41.64 -0.12 62.46 -0.16 C72.12 -0.17 81.79 -0.19 91.46 -0.23 C99.89 -0.26 108.32 -0.28 116.74 -0.28 C121.21 -0.29 125.67 -0.3 130.13 -0.32 C134.33 -0.34 138.53 -0.34 142.74 -0.34 C144.28 -0.34 145.81 -0.35 147.35 -0.36 C162.14 -0.46 171.39 1.76 182.16 12.07 C189.85 20.11 194.11 29.35 194.14 40.46 C194.15 41.1 194.15 41.75 194.16 42.42 C194.17 44.58 194.17 46.74 194.17 48.91 C194.18 50.46 194.19 52.01 194.19 53.56 C194.21 56.91 194.22 60.25 194.23 63.59 C194.25 68.89 194.27 74.18 194.29 79.47 C194.37 94.51 194.43 109.56 194.48 124.61 C194.51 132.92 194.54 141.23 194.58 149.54 C194.61 154.79 194.63 160.05 194.64 165.3 C194.65 168.58 194.67 171.86 194.69 175.14 C194.69 176.65 194.7 178.16 194.7 179.68 C194.25 192.95 194.25 192.95 199.12 204.81 C201.97 206.98 204.7 208.53 207.94 210.01 C208.62 210.34 209.3 210.66 210 211 C210.86 211.35 211.71 211.7 212.6 212.07 C215 214 215 214 215.57 217.55 C215.57 219.02 215.54 220.48 215.49 221.95 C215.48 223.11 215.48 223.11 215.47 224.29 C215.44 226.76 215.38 229.22 215.31 231.69 C215.29 233.36 215.26 235.03 215.24 236.71 C215.19 240.8 215.1 244.9 215 249 C214.2 249.3 214.2 249.3 213.38 249.6 C212.67 249.86 211.96 250.12 211.23 250.39 C210.54 250.65 209.84 250.91 209.12 251.18 C203.08 253.52 199.47 255.9 196.73 261.9 C194.96 267 194.86 271.97 194.87 277.32 C194.87 278.16 194.87 278.99 194.86 279.86 C194.86 282.68 194.86 285.5 194.86 288.33 C194.86 290.37 194.86 292.4 194.85 294.44 C194.85 300.06 194.84 305.67 194.84 311.28 C194.84 317.33 194.83 323.38 194.83 329.43 C194.82 339.24 194.81 349.04 194.8 358.85 C194.79 375.41 194.77 391.96 194.75 408.52 C194.74 414.89 194.73 421.26 194.73 427.63 C194.72 428.69 194.72 428.69 194.72 429.77 C194.7 446.62 194.68 463.47 194.66 480.31 C194.66 481.05 194.66 481.79 194.66 482.55 C194.64 499.75 194.62 516.94 194.61 534.14 C194.61 534.88 194.61 535.62 194.61 536.38 C194.61 542.34 194.6 548.3 194.6 554.26 C194.58 578.84 194.55 603.42 194.51 628 C194.51 631.47 194.5 634.94 194.5 638.42 C194.5 639.1 194.5 639.78 194.49 640.49 C194.48 651.48 194.47 662.47 194.47 673.47 C194.47 684.52 194.46 695.57 194.43 706.62 C194.42 712.6 194.42 718.59 194.42 724.57 C194.43 730.06 194.42 735.54 194.4 741.02 C194.39 743 194.39 744.98 194.4 746.96 C194.44 762.18 193.47 773.11 183 785 C172.15 795.57 161.74 797.6 147.03 797.47 C145.43 797.47 143.84 797.47 142.24 797.48 C137.94 797.48 133.64 797.46 129.34 797.44 C124.83 797.42 120.32 797.42 115.82 797.42 C108.26 797.41 100.7 797.39 93.14 797.36 C83.43 797.32 73.72 797.3 64.01 797.29 C55.66 797.28 47.31 797.26 38.96 797.24 C37.17 797.24 35.38 797.24 33.59 797.23 C28.48 797.22 23.38 797.21 18.28 797.19 C16.73 797.18 15.19 797.18 13.64 797.17 C11.53 797.17 9.43 797.16 7.32 797.15 C6.14 797.14 4.96 797.14 3.75 797.13 C1 797 1 797 -1 796 C-1.02 776.1 -1.04 756.21 -1.05 736.31 C-1.06 727.07 -1.06 717.83 -1.08 708.59 C-1.09 700.54 -1.09 692.49 -1.09 684.44 C-1.1 680.18 -1.1 675.92 -1.11 671.65 C-1.11 667.64 -1.11 663.63 -1.11 659.62 C-1.11 658.14 -1.12 656.67 -1.12 655.2 C-1.12 653.19 -1.12 651.18 -1.12 649.17 C-1.12 648.04 -1.12 646.92 -1.12 645.76 C-1 643 -1 643 0 640 C0.85 640 0.85 640 1.71 640 C15.46 640.01 29.2 639.98 42.95 639.92 C49.6 639.89 56.25 639.87 62.9 639.88 C69.32 639.89 75.73 639.86 82.15 639.82 C84.6 639.81 87.05 639.81 89.49 639.82 C92.92 639.83 96.36 639.81 99.79 639.77 C100.79 639.79 101.8 639.8 102.84 639.81 C109.86 639.69 114.83 637.89 120 633 C122.6 628.59 123.06 624.07 123 619 C121.94 615.23 121.94 615.23 120 612 C119.48 610.93 118.97 609.86 118.44 608.75 C114.53 604.34 109.18 603.34 103.42 602.72 C100.69 602.6 97.98 602.57 95.26 602.58 C94.24 602.57 93.21 602.57 92.16 602.56 C88.81 602.53 85.47 602.53 82.12 602.52 C79.79 602.51 77.45 602.49 75.12 602.48 C69 602.43 62.88 602.41 56.76 602.39 C46.93 602.35 37.1 602.29 27.28 602.23 C23.85 602.21 20.41 602.2 16.98 602.19 C14.89 602.18 12.8 602.17 10.71 602.16 C9.75 602.16 8.79 602.16 7.8 602.15 C6.49 602.15 6.49 602.15 5.16 602.14 C4.4 602.14 3.64 602.13 2.86 602.13 C1 602 1 602 -1 601 C-1.03 594.77 -1.04 588.54 -1.05 582.31 C-1.06 580.19 -1.07 578.07 -1.08 575.95 C-1.09 572.91 -1.09 569.86 -1.1 566.82 C-1.11 565.39 -1.11 565.39 -1.11 563.94 C-1.11 563.05 -1.11 562.17 -1.11 561.27 C-1.12 560.49 -1.12 559.71 -1.12 558.91 C-1 557 -1 557 0 555 C1.31 554.99 2.62 554.99 3.96 554.98 C16.31 554.92 28.65 554.85 41 554.76 C47.34 554.72 53.69 554.68 60.03 554.65 C66.16 554.63 72.29 554.59 78.41 554.54 C80.75 554.52 83.08 554.51 85.42 554.5 C88.69 554.49 91.97 554.46 95.25 554.43 C96.21 554.43 97.17 554.44 98.15 554.44 C105.67 554.33 112.43 552.78 119 549 C120.2 546.67 120.2 546.67 121 544 C121.39 543.26 121.78 542.51 122.19 541.75 C123.71 536.59 122.97 532.14 120.77 527.27 C117.27 521.02 117.27 521.02 111 518 C105.56 516.84 100.23 516.83 94.7 516.81 C93.67 516.8 92.65 516.79 91.59 516.79 C89.38 516.77 87.17 516.75 84.95 516.74 C81.45 516.72 77.95 516.69 74.45 516.66 C65.77 516.59 57.08 516.53 48.39 516.47 C41.04 516.42 33.69 516.37 26.34 516.31 C22.88 516.28 19.43 516.26 15.97 516.24 C13.86 516.22 11.76 516.21 9.66 516.19 C8.69 516.19 7.72 516.18 6.72 516.18 C5.85 516.17 4.97 516.16 4.07 516.15 C3.3 516.15 2.53 516.14 1.75 516.14 C0 516 0 516 -1 515 C-1.1 511.99 -1.14 509.01 -1.13 506 C-1.13 505.1 -1.13 504.2 -1.14 503.26 C-1.14 501.35 -1.13 499.43 -1.13 497.52 C-1.13 494.58 -1.13 491.64 -1.14 488.7 C-1.14 486.84 -1.13 484.99 -1.13 483.13 C-1.13 482.25 -1.14 481.36 -1.14 480.45 C-1.11 474.23 -1.11 474.23 0 472 C0.54 472 1.09 472 1.65 471.99 C14.91 471.93 28.18 471.86 41.44 471.76 C47.85 471.72 54.27 471.68 60.68 471.65 C66.87 471.63 73.07 471.59 79.26 471.54 C81.62 471.52 83.98 471.51 86.34 471.5 C89.65 471.49 92.96 471.46 96.27 471.43 C97.73 471.43 97.73 471.43 99.21 471.44 C106.33 471.34 111.63 470.02 117.81 466.31 C121.28 462.64 122.83 458.85 123.13 453.8 C122.78 447.8 120.65 442.75 117 438 C110.18 433.26 101.74 433.86 93.75 433.89 C92.74 433.89 91.74 433.89 90.7 433.89 C87.4 433.89 84.09 433.89 80.79 433.9 C78.49 433.9 76.19 433.91 73.89 433.91 C67.85 433.91 61.81 433.92 55.77 433.93 C49.61 433.94 43.44 433.95 37.27 433.95 C25.18 433.96 13.09 433.98 1 434 C1 433.34 1 432.68 1 432 C0.34 432 -0.32 432 -1 432 C-1.02 377.25 -1.04 322.51 -1.05 267.76 C-1.05 261.31 -1.05 254.85 -1.05 248.39 C-1.06 247.11 -1.06 245.82 -1.06 244.5 C-1.06 223.66 -1.07 202.82 -1.08 181.98 C-1.09 160.61 -1.09 139.24 -1.09 117.87 C-1.1 104.68 -1.1 91.48 -1.11 78.28 C-1.11 69.25 -1.11 60.21 -1.11 51.17 C-1.11 45.95 -1.11 40.73 -1.12 35.51 C-1.12 30.74 -1.12 25.96 -1.12 21.19 C-1.12 19.46 -1.12 17.72 -1.12 15.99 C-1.13 13.65 -1.13 11.3 -1.12 8.96 C-1.12 7.66 -1.12 6.35 -1.12 5.01 C-1 2 -1 2 0 0 Z " fill="#B4E5FB" transform="translate(1047,270)"/>
<path d="M0 0 C1.38 1.14 2.79 2.24 4.21 3.33 C18.09 14.07 30.99 27.28 41.55 41.29 C42.38 42.36 43.22 43.42 44.05 44.49 C63.57 69.45 78.87 96.41 89.55 126.29 C89.94 127.37 89.94 127.37 90.33 128.47 C114.05 195.7 108.91 272.8 78.32 336.87 C75.57 342.44 72.61 347.88 69.55 353.29 C68.86 354.52 68.86 354.52 68.15 355.77 C58.1 373.48 45.97 389.03 32.55 404.29 C28.07 402.81 26.57 399.37 24.43 395.48 C20.05 387.88 15.05 381.1 9.55 374.29 C8.46 372.91 8.46 372.91 7.34 371.49 C-15.97 342.37 -45.68 320.06 -80.08 305.64 C-83.73 304.1 -87.11 302.42 -90.45 300.29 C-87.56 297.94 -84.63 295.68 -81.64 293.48 C-78.06 290.81 -74.7 287.97 -71.38 284.99 C-70.18 283.93 -68.96 282.9 -67.71 281.9 C-62.1 277.41 -57.87 271.92 -53.45 266.29 C-52.59 265.23 -51.73 264.17 -50.86 263.11 C-45.34 256.25 -41.16 249.29 -37.45 241.29 C-36.26 239.02 -35.08 236.75 -33.89 234.48 C-28.86 224.37 -25.69 213.94 -23.2 202.98 C-23.04 202.26 -22.87 201.55 -22.7 200.81 C-18.69 182.17 -18.74 160.96 -22.45 142.29 C-22.58 141.63 -22.71 140.97 -22.84 140.29 C-27.76 115.66 -38.82 92.96 -54.45 73.29 C-54.9 72.71 -55.36 72.14 -55.82 71.54 C-66.7 57.86 -79.38 47.1 -94.45 38.29 C-95.03 37.95 -95.62 37.6 -96.22 37.24 C-130.91 16.97 -172.25 12.23 -210.95 22.04 C-220.12 24.46 -228.81 27.37 -237.45 31.29 C-238.77 31.89 -238.77 31.89 -240.12 32.5 C-276.62 49.9 -303.45 81.04 -317.12 118.82 C-331.38 159.53 -328.16 202.15 -309.73 241.01 C-298.67 262.54 -282.27 280.11 -262.81 294.22 C-262.14 294.7 -261.48 295.19 -260.79 295.69 C-260.2 296.12 -259.6 296.55 -258.99 296.99 C-257.45 298.29 -257.45 298.29 -255.45 301.29 C-257.43 302.21 -259.41 303.12 -261.39 304.04 C-261.99 304.32 -262.59 304.6 -263.2 304.88 C-266.35 306.34 -269.51 307.75 -272.7 309.1 C-301.31 321.8 -330.01 341.92 -349.41 366.72 C-351.31 369.11 -353.3 371.32 -355.39 373.54 C-360.82 379.58 -365.08 386.46 -369.45 393.29 C-369.82 393.87 -370.19 394.45 -370.57 395.04 C-372.55 398.11 -374.51 401.2 -376.45 404.29 C-383.02 400.75 -386.91 395.08 -391.45 389.29 C-392.27 388.3 -393.1 387.32 -393.95 386.3 C-406.94 370.63 -417.37 352.9 -425.55 334.29 C-426.82 331.46 -428.21 328.7 -429.57 325.92 C-457.47 264.8 -457.86 188.02 -435.45 125.29 C-430.3 111.54 -424.89 97.98 -417.45 85.29 C-416.77 84.04 -416.09 82.79 -415.41 81.53 C-396.33 46.34 -368.03 15.39 -335.45 -7.71 C-334.62 -8.31 -333.78 -8.9 -332.92 -9.52 C-315.36 -21.98 -296.79 -32.89 -276.5 -40.22 C-273.51 -41.3 -270.56 -42.47 -267.62 -43.67 C-245.01 -52.76 -220.69 -57.73 -196.45 -59.71 C-195.19 -59.82 -193.94 -59.93 -192.64 -60.05 C-124.58 -65.37 -52.37 -44.23 0 0 Z " fill="#F5D459" transform="translate(812.44921875,147.70947265625)"/>
<path d="M0 0 C0.71 -0 1.42 -0 2.15 -0 C14.23 0.02 25.89 0.84 37.75 3.25 C38.59 3.42 39.44 3.58 40.31 3.75 C55.63 6.85 72.39 10.9 85.75 19.25 C86.87 19.73 87.98 20.2 89.13 20.69 C106.65 28.23 122.15 41.09 135.75 54.25 C136.7 55.16 137.64 56.06 138.62 57 C152.98 71.02 167.48 88.72 175.75 107.25 C174.61 110.66 173.91 111.13 171.07 113.14 C169.93 113.95 169.93 113.95 168.77 114.78 C167.96 115.35 167.15 115.92 166.31 116.5 C165.49 117.08 164.67 117.67 163.82 118.27 C162.19 119.42 160.56 120.57 158.93 121.72 C157.18 122.95 155.45 124.2 153.72 125.45 C147.98 129.59 142.01 132.97 135.75 136.25 C134.3 137.03 132.84 137.82 131.39 138.6 C101.07 154.9 69.81 164.45 35.75 169.25 C35.03 169.35 34.31 169.45 33.57 169.56 C28.43 170.25 23.3 170.57 18.12 170.81 C17.24 170.85 16.36 170.9 15.45 170.94 C-53.04 174 -122.66 153.22 -175.25 108.25 C-171.74 98.95 -166.03 90.74 -160.38 82.62 C-159.67 81.61 -159.67 81.61 -158.95 80.57 C-140.19 54.06 -113.23 30.98 -83.25 18.25 C-82.49 17.93 -81.72 17.6 -80.93 17.27 C-54.78 6.3 -28.46 0.02 0 0 Z " fill="#B4E6FB" transform="translate(639.25,471.75)"/>
<path d="M0 0 C1.06 0.37 2.12 0.74 3.21 1.12 C16.56 6.2 26.88 15.23 37 25 C38.09 26.02 38.09 26.02 39.21 27.05 C47.93 35.36 54.75 45.19 60 56 C60.29 56.58 60.57 57.16 60.87 57.76 C74.04 84.92 76.52 117.51 66.61 146.18 C59.25 166.07 46.54 184.65 30 198 C29.09 198.73 28.18 199.47 27.25 200.22 C20.53 205.47 13.75 209.48 6 213 C5.24 213.37 4.48 213.73 3.7 214.11 C-21.7 226.12 -52.85 227.58 -79.34 218.34 C-81.15 217.67 -81.15 217.67 -83 217 C-84.02 216.64 -85.05 216.28 -86.1 215.91 C-112.6 205.84 -137.5 183.16 -149.62 157.46 C-161.7 127.06 -163.32 93.32 -150.69 62.81 C-145.83 51.64 -140.14 42.15 -132 33 C-131.35 32.22 -130.71 31.44 -130.04 30.64 C-111.97 9.25 -86.98 -1.96 -60 -7 C-59.04 -7.19 -58.08 -7.39 -57.1 -7.59 C-37.46 -10.21 -18.47 -6.49 0 0 Z " fill="#FBE0C4" transform="translate(683,210)"/>
<path d="M0 0 C1.4 -0 1.4 -0 2.82 -0.01 C5.95 -0.02 9.07 -0.01 12.2 -0.01 C14.46 -0.01 16.72 -0.01 18.98 -0.02 C25.2 -0.03 31.43 -0.03 37.65 -0.02 C43.66 -0.02 49.68 -0.03 55.7 -0.03 C69.53 -0.05 83.36 -0.05 97.18 -0.05 C107.86 -0.05 118.54 -0.05 129.22 -0.05 C130.75 -0.05 132.28 -0.05 133.82 -0.05 C136.13 -0.05 138.44 -0.06 140.75 -0.06 C162.23 -0.07 183.72 -0.07 205.2 -0.07 C206.42 -0.06 206.42 -0.06 207.66 -0.06 C211.77 -0.06 215.87 -0.06 219.98 -0.06 C220.79 -0.06 221.61 -0.06 222.45 -0.06 C224.1 -0.06 225.75 -0.06 227.4 -0.06 C253.06 -0.06 278.73 -0.06 304.39 -0.08 C333.22 -0.1 362.05 -0.11 390.88 -0.11 C393.95 -0.11 397.02 -0.11 400.1 -0.11 C401.23 -0.11 401.23 -0.11 402.39 -0.11 C413.82 -0.11 425.25 -0.11 436.68 -0.12 C449.67 -0.14 462.67 -0.14 475.67 -0.13 C482.3 -0.12 488.93 -0.12 495.57 -0.13 C501.64 -0.14 507.71 -0.14 513.77 -0.12 C515.97 -0.12 518.17 -0.12 520.37 -0.13 C523.35 -0.14 526.34 -0.13 529.32 -0.12 C530.18 -0.13 531.04 -0.13 531.92 -0.14 C538.25 -0.09 543.27 0.87 547.97 5.44 C551.53 11.15 553.47 16.44 552.72 23.25 C550.94 29.22 547.94 32.98 542.72 36.25 C537.56 38.4 533.02 38.54 527.53 38.51 C526.61 38.51 525.69 38.52 524.74 38.52 C521.64 38.53 518.54 38.52 515.45 38.52 C513.21 38.52 510.97 38.52 508.73 38.53 C502.57 38.54 496.41 38.53 490.25 38.53 C484.29 38.53 478.33 38.54 472.38 38.54 C458.68 38.56 444.99 38.56 431.29 38.56 C420.72 38.55 410.14 38.56 399.57 38.56 C398.05 38.56 396.53 38.56 395.01 38.56 C392.72 38.56 390.44 38.56 388.15 38.57 C366.87 38.57 345.58 38.58 324.3 38.57 C323.5 38.57 322.7 38.57 321.87 38.57 C317.8 38.57 313.73 38.57 309.67 38.57 C308.86 38.57 308.05 38.57 307.22 38.57 C305.59 38.57 303.95 38.57 302.32 38.57 C276.9 38.56 251.48 38.57 226.07 38.59 C197.51 38.61 168.96 38.62 140.41 38.62 C137.37 38.62 134.32 38.62 131.28 38.62 C130.15 38.62 130.15 38.62 129.01 38.62 C117.69 38.62 106.37 38.62 95.05 38.63 C82.18 38.64 69.31 38.65 56.44 38.63 C49.87 38.63 43.3 38.63 36.73 38.64 C30.72 38.65 24.71 38.65 18.69 38.63 C16.52 38.63 14.34 38.63 12.16 38.64 C9.21 38.65 6.25 38.64 3.29 38.63 C2.45 38.64 1.6 38.64 0.73 38.65 C-6.81 38.58 -14.11 36.79 -20.28 32.25 C-24.06 28.07 -24.64 24.15 -24.56 18.54 C-23.87 12.93 -21.79 7.85 -17.9 3.75 C-11.95 0.35 -6.68 -0.03 0 0 Z " fill="#000102" transform="translate(375.2770528793335,862.7455244064331)"/>
<path d="M0 0 C0.93 -0 1.86 -0.01 2.81 -0.01 C5.95 -0.02 9.09 -0.02 12.23 -0.02 C14.49 -0.02 16.75 -0.03 19.01 -0.03 C25.25 -0.04 31.49 -0.05 37.72 -0.05 C43.75 -0.06 49.78 -0.07 55.81 -0.08 C71.97 -0.1 88.12 -0.12 104.28 -0.13 C109.63 -0.14 114.98 -0.14 120.33 -0.14 C148.77 -0.17 177.21 -0.19 205.65 -0.2 C212.24 -0.21 218.83 -0.21 225.42 -0.21 C226.24 -0.21 227.06 -0.21 227.91 -0.21 C254.46 -0.23 281.01 -0.26 307.56 -0.3 C334.85 -0.34 362.14 -0.37 389.43 -0.37 C393.28 -0.37 397.14 -0.38 400.99 -0.38 C401.75 -0.38 402.51 -0.38 403.29 -0.38 C415.5 -0.38 427.71 -0.4 439.92 -0.43 C452.19 -0.45 464.47 -0.46 476.74 -0.45 C483.39 -0.44 490.04 -0.45 496.69 -0.47 C502.77 -0.49 508.86 -0.49 514.94 -0.48 C517.15 -0.47 519.35 -0.48 521.55 -0.49 C524.55 -0.51 527.54 -0.5 530.53 -0.48 C531.39 -0.49 532.25 -0.51 533.13 -0.52 C539.18 -0.43 543.46 1.17 548.08 5.14 C552.43 10.76 553.55 16.16 553.08 23.14 C551.26 29.49 547.63 33.54 542.08 37.14 C537.44 38.44 532.78 38.28 528 38.27 C526.62 38.27 526.62 38.27 525.21 38.27 C522.11 38.28 519.01 38.27 515.91 38.27 C513.67 38.27 511.43 38.27 509.19 38.28 C503.03 38.28 496.86 38.28 490.69 38.28 C484.73 38.28 478.77 38.29 472.81 38.29 C459.1 38.3 445.4 38.3 431.69 38.3 C421.11 38.3 410.53 38.31 399.94 38.31 C396.9 38.31 393.85 38.31 390.81 38.31 C390.05 38.31 389.29 38.31 388.52 38.31 C367.22 38.32 345.93 38.32 324.64 38.32 C323.83 38.32 323.03 38.32 322.2 38.32 C318.13 38.32 314.06 38.32 309.99 38.32 C309.18 38.32 308.38 38.32 307.54 38.32 C305.91 38.32 304.27 38.32 302.64 38.32 C277.2 38.32 251.76 38.33 226.33 38.34 C197.76 38.36 169.19 38.37 140.62 38.37 C137.57 38.37 134.53 38.37 131.48 38.37 C130.73 38.37 129.98 38.37 129.21 38.37 C117.14 38.37 105.06 38.37 92.98 38.38 C80.85 38.39 68.72 38.39 56.59 38.38 C50.01 38.38 43.44 38.38 36.86 38.39 C30.85 38.4 24.83 38.4 18.82 38.39 C16.64 38.39 14.46 38.39 12.28 38.39 C9.32 38.4 6.36 38.39 3.41 38.39 C2.56 38.39 1.7 38.4 0.83 38.4 C-7.07 38.35 -13.33 36.57 -19.92 32.14 C-23.73 27.06 -24.43 22.41 -23.92 16.14 C-22.53 10.48 -20.89 6.27 -15.86 3.07 C-10.57 0.22 -5.92 -0.01 0 0 Z " fill="#000102" transform="translate(374.92073345184326,779.8629856109619)"/>
<path d="M0 0 C1.43 -0.01 2.85 -0.01 4.28 -0.02 C8.14 -0.04 12 -0.04 15.86 -0.03 C19.09 -0.03 22.31 -0.03 25.54 -0.04 C33.16 -0.05 40.78 -0.05 48.4 -0.04 C56.24 -0.03 64.09 -0.04 71.94 -0.07 C78.68 -0.09 85.43 -0.1 92.18 -0.09 C96.21 -0.09 100.23 -0.09 104.26 -0.11 C108.05 -0.13 111.83 -0.12 115.62 -0.1 C117 -0.1 118.39 -0.1 119.77 -0.11 C127.59 -0.17 133.28 0.1 139.93 4.4 C144.02 8.63 145.29 13.71 145.62 19.47 C145.29 27.09 141.67 30.86 136.3 35.84 C132.32 38.46 128.8 38.53 124.1 38.56 C122.31 38.58 122.31 38.58 120.49 38.6 C119.19 38.6 117.88 38.61 116.54 38.61 C115.15 38.62 113.76 38.63 112.37 38.64 C107.81 38.67 103.24 38.69 98.68 38.71 C97.51 38.72 97.51 38.72 96.32 38.72 C88.98 38.75 81.63 38.78 74.29 38.8 C64.92 38.82 55.54 38.86 46.17 38.93 C39.57 38.98 32.97 39 26.37 39.01 C22.43 39.01 18.5 39.03 14.56 39.07 C10.85 39.11 7.14 39.11 3.43 39.1 C1.44 39.1 -0.55 39.13 -2.55 39.16 C-11.07 39.09 -18.1 37.54 -25.07 32.4 C-28.84 26.95 -29.75 22.02 -29.07 15.4 C-27.02 9.03 -24.09 5.15 -18.28 1.79 C-12.48 -0.58 -6.15 -0.02 0 0 Z " fill="#000102" transform="translate(380.070068359375,948.595947265625)"/>
<path d="M0 0 C2.47 2.08 3.86 3.29 4.5 6.51 C4.5 7.47 4.5 8.43 4.5 9.41 C4.51 10.52 4.52 11.63 4.53 12.77 C4.52 13.99 4.51 15.21 4.5 16.46 C4.5 17.76 4.51 19.06 4.51 20.4 C4.53 24.02 4.52 27.65 4.5 31.27 C4.49 35.2 4.5 39.14 4.51 43.07 C4.52 49.98 4.52 56.88 4.5 63.78 C4.48 74.05 4.49 84.31 4.5 94.58 C4.51 111.84 4.5 129.11 4.48 146.38 C4.47 163.48 4.46 180.58 4.46 197.69 C4.46 198.75 4.46 199.81 4.46 200.91 C4.46 205.22 4.46 209.53 4.46 213.85 C4.46 254.33 4.44 294.82 4.41 335.3 C4.38 371.3 4.37 407.3 4.37 443.3 C4.37 445.61 4.37 447.92 4.37 450.23 C4.37 451.37 4.37 452.52 4.37 453.69 C4.37 459.44 4.37 465.2 4.37 470.95 C4.37 472.08 4.37 473.22 4.37 474.39 C4.37 504.43 4.36 534.48 4.35 564.53 C4.35 565.6 4.35 566.67 4.35 567.77 C4.35 572.07 4.35 576.36 4.34 580.66 C4.34 595.63 4.33 610.6 4.33 625.57 C4.33 644.86 4.32 664.14 4.31 683.43 C4.29 693.64 4.29 703.85 4.29 714.06 C4.29 720.86 4.29 727.67 4.28 734.48 C4.27 738.37 4.27 742.25 4.27 746.14 C4.28 750.31 4.27 754.49 4.26 758.66 C4.26 759.89 4.27 761.11 4.27 762.37 C4.26 763.47 4.26 764.58 4.25 765.71 C4.25 766.67 4.25 767.63 4.25 768.61 C4 771 4 771 2 774 C1.34 774 0.68 774 0 774 C-2.23 770.65 -2.25 769.6 -2.24 765.69 C-2.25 764.58 -2.25 763.47 -2.25 762.33 C-2.25 761.1 -2.24 759.87 -2.23 758.61 C-2.23 757.31 -2.24 756 -2.24 754.66 C-2.24 751.02 -2.23 747.38 -2.22 743.74 C-2.2 739.78 -2.21 735.83 -2.2 731.88 C-2.2 724.95 -2.19 718.01 -2.17 711.08 C-2.15 700.77 -2.14 690.45 -2.13 680.14 C-2.11 662.8 -2.09 645.46 -2.06 628.11 C-2.03 610.93 -2 593.75 -1.98 576.57 C-1.98 575.51 -1.97 574.44 -1.97 573.34 C-1.97 569.01 -1.96 564.68 -1.96 560.35 C-1.9 519.69 -1.84 479.02 -1.77 438.36 C-1.71 402.21 -1.66 366.05 -1.61 329.89 C-1.61 327.57 -1.61 325.25 -1.6 322.92 C-1.6 321.78 -1.6 320.63 -1.6 319.45 C-1.59 313.67 -1.58 307.89 -1.58 302.11 C-1.58 300.97 -1.57 299.83 -1.57 298.66 C-1.53 268.48 -1.49 238.3 -1.44 208.13 C-1.44 207.05 -1.44 205.98 -1.44 204.88 C-1.43 200.56 -1.43 196.25 -1.42 191.93 C-1.4 176.9 -1.38 161.86 -1.36 146.82 C-1.33 127.45 -1.3 108.08 -1.27 88.7 C-1.25 78.45 -1.23 68.19 -1.22 57.94 C-1.21 51.1 -1.2 44.26 -1.19 37.43 C-1.18 33.52 -1.17 29.62 -1.17 25.71 C-1.17 21.52 -1.16 17.33 -1.14 13.14 C-1.14 11.91 -1.15 10.68 -1.15 9.41 C-1.14 8.3 -1.14 7.2 -1.13 6.06 C-1.13 5.1 -1.13 4.14 -1.13 3.15 C-1 1 -1 1 0 0 Z " fill="#D9E6ED" transform="translate(272,195)"/>
<path d="M0 0 C0.66 0 1.32 0 2 0 C2 312.18 2 624.36 2 946 C-0.48 942.28 0 940.42 0 936 C-0.32 934.91 -0.65 933.83 -0.98 932.7 C-2.66 926.23 -2.27 919.55 -2.25 912.91 C-2.25 911.36 -2.25 909.81 -2.25 908.27 C-2.26 904 -2.25 899.74 -2.24 895.47 C-2.24 890.84 -2.24 886.2 -2.25 881.56 C-2.25 873.43 -2.25 865.3 -2.24 857.18 C-2.23 845.09 -2.23 833 -2.23 820.92 C-2.23 800.58 -2.22 780.25 -2.21 759.92 C-2.2 739.79 -2.19 719.65 -2.19 699.52 C-2.19 698.27 -2.19 697.02 -2.19 695.73 C-2.19 689.37 -2.19 683.02 -2.19 676.66 C-2.18 631.64 -2.17 586.62 -2.15 541.59 C-2.15 530.68 -2.14 519.77 -2.14 508.85 C-2.14 508.18 -2.14 507.5 -2.14 506.8 C-2.12 475.34 -2.12 443.87 -2.11 412.41 C-2.11 410.36 -2.11 408.32 -2.11 406.28 C-2.11 392.74 -2.1 379.2 -2.1 365.67 C-2.1 338.09 -2.09 310.51 -2.08 282.93 C-2.08 281.66 -2.08 280.39 -2.08 279.09 C-2.07 194.39 -2.03 109.7 -2 25 C-1.34 25.33 -0.68 25.66 0 26 C0 23.03 0 20.06 0 17 C-0.66 17 -1.32 17 -2 17 C-2.05 14.54 -2.09 12.08 -2.12 9.62 C-2.14 8.93 -2.16 8.23 -2.18 7.51 C-2.19 5.67 -2.1 3.83 -2 2 C-1.34 1.34 -0.68 0.68 0 0 Z " fill="#D9E6ED" transform="translate(1006,196)"/>
<path d="M0 0 C272.25 0.5 272.25 0.5 550 1 C550 1.99 550 2.98 550 4 C547.37 6.63 545.49 6.24 541.91 6.26 C541.05 6.26 540.19 6.25 539.3 6.25 C537.92 6.25 537.92 6.25 536.52 6.26 C533.41 6.26 530.31 6.26 527.2 6.25 C524.97 6.25 522.73 6.25 520.5 6.25 C514.33 6.26 508.16 6.25 501.99 6.25 C496.03 6.24 490.07 6.24 484.1 6.25 C471.9 6.25 459.7 6.25 447.5 6.24 C435.42 6.23 423.33 6.23 411.24 6.23 C410.49 6.23 409.74 6.23 408.97 6.23 C405.92 6.23 402.87 6.23 399.83 6.23 C371.22 6.23 342.6 6.22 313.99 6.2 C288.56 6.19 263.12 6.18 237.68 6.19 C236.05 6.19 234.42 6.19 232.78 6.19 C231.98 6.19 231.17 6.19 230.34 6.19 C226.27 6.19 222.21 6.19 218.15 6.19 C217.35 6.19 216.54 6.19 215.72 6.19 C194.48 6.19 173.25 6.18 152.02 6.18 C151.26 6.18 150.51 6.17 149.73 6.17 C146.69 6.17 143.66 6.17 140.62 6.17 C130.04 6.17 119.46 6.17 108.89 6.17 C95.26 6.17 81.63 6.16 68 6.15 C61.42 6.15 54.84 6.14 48.27 6.15 C42.26 6.15 36.24 6.14 30.23 6.14 C28.05 6.13 25.87 6.13 23.68 6.14 C20.73 6.14 17.78 6.13 14.83 6.13 C13.97 6.13 13.11 6.13 12.22 6.13 C8.89 6.12 6.18 6.06 3 5 C2.63 3.68 2.29 2.34 2 1 C1.34 0.67 0.68 0.34 0 0 Z " fill="#D9E6ED" transform="translate(364,900)"/>
<path d="M0 0 C0.93 -0 1.85 -0.01 2.81 -0.01 C5.94 -0.02 9.07 -0.01 12.2 -0.01 C14.46 -0.01 16.71 -0.02 18.97 -0.02 C25.19 -0.04 31.41 -0.04 37.63 -0.03 C43.65 -0.03 49.66 -0.04 55.68 -0.05 C69.5 -0.07 83.33 -0.08 97.15 -0.08 C107.82 -0.08 118.5 -0.08 129.17 -0.09 C132.24 -0.09 135.31 -0.09 138.38 -0.09 C139.14 -0.09 139.91 -0.09 140.69 -0.09 C162.16 -0.11 183.63 -0.12 205.1 -0.11 C206.31 -0.11 206.31 -0.11 207.55 -0.11 C211.66 -0.11 215.76 -0.11 219.87 -0.11 C220.68 -0.11 221.5 -0.11 222.34 -0.11 C223.99 -0.11 225.63 -0.11 227.28 -0.11 C252.94 -0.11 278.6 -0.13 304.26 -0.15 C333.07 -0.19 361.88 -0.2 390.68 -0.2 C393.75 -0.2 396.82 -0.2 399.89 -0.2 C401.03 -0.2 401.03 -0.2 402.18 -0.2 C414.37 -0.2 426.55 -0.21 438.73 -0.23 C450.97 -0.25 463.2 -0.25 475.44 -0.24 C482.07 -0.23 488.71 -0.23 495.34 -0.25 C501.4 -0.26 507.47 -0.26 513.53 -0.24 C515.74 -0.24 517.94 -0.24 520.14 -0.25 C523.12 -0.27 526.09 -0.26 529.07 -0.24 C530.37 -0.26 530.37 -0.26 531.7 -0.27 C537.52 -0.2 537.52 -0.2 540.66 2.29 C541.14 2.94 541.61 3.59 542.1 4.26 C538.13 5.58 534.33 5.39 530.18 5.38 C529.26 5.38 528.33 5.38 527.37 5.38 C524.24 5.38 521.1 5.38 517.96 5.37 C515.7 5.37 513.44 5.37 511.18 5.37 C504.95 5.37 498.71 5.37 492.48 5.36 C486.46 5.35 480.43 5.35 474.41 5.35 C462.08 5.35 449.75 5.34 437.42 5.33 C420.58 5.32 403.75 5.31 386.91 5.31 C379.07 5.31 371.24 5.31 363.4 5.3 C362.22 5.3 362.22 5.3 361.02 5.3 C342.33 5.3 323.65 5.29 304.96 5.28 C304.14 5.28 303.33 5.28 302.48 5.28 C289.21 5.27 275.94 5.26 262.67 5.26 C250.24 5.25 237.8 5.24 225.37 5.24 C224.55 5.24 223.73 5.24 222.89 5.24 C204.24 5.23 185.59 5.22 166.94 5.21 C166.15 5.21 165.37 5.21 164.56 5.21 C156.74 5.21 148.92 5.21 141.1 5.2 C124.28 5.2 107.47 5.19 90.65 5.18 C78.39 5.17 66.13 5.17 53.87 5.16 C47.23 5.16 40.58 5.16 33.94 5.15 C27.86 5.14 21.78 5.14 15.71 5.14 C13.5 5.14 11.3 5.14 9.09 5.14 C6.11 5.13 3.13 5.13 0.14 5.14 C-0.73 5.13 -1.59 5.13 -2.49 5.13 C-3.28 5.13 -4.08 5.13 -4.89 5.13 C-5.58 5.13 -6.26 5.13 -6.96 5.13 C-9.04 5.27 -10.9 5.69 -12.9 6.26 C-12.59 4.38 -12.59 4.38 -11.9 2.26 C-7.95 -0.37 -4.58 -0.02 0 0 Z " fill="#D9E6ED" transform="translate(374.90067195892334,858.7427310943604)"/>
<path d="M0 0 C51.93 0.08 103.86 0.16 155.79 0.24 C156.56 0.24 157.33 0.25 158.12 0.25 C174.81 0.28 191.5 0.3 208.19 0.33 C216.37 0.34 224.56 0.36 232.74 0.37 C233.55 0.37 234.37 0.38 235.21 0.38 C261.63 0.42 288.05 0.46 314.47 0.5 C341.6 0.54 368.74 0.59 395.88 0.63 C399.71 0.64 403.54 0.65 407.37 0.65 C408.5 0.65 408.5 0.65 409.65 0.66 C421.81 0.68 433.96 0.7 446.12 0.71 C458.32 0.73 470.53 0.75 482.74 0.77 C489.35 0.79 495.97 0.8 502.59 0.8 C508.64 0.81 514.69 0.82 520.74 0.84 C522.94 0.84 525.14 0.84 527.33 0.84 C530.3 0.84 533.27 0.85 536.24 0.86 C537.11 0.86 537.98 0.86 538.88 0.86 C544.77 0.89 544.77 0.89 547 2 C546.37 3.94 546.37 3.94 545 6 C540.53 7.06 536.2 7.11 531.62 7.06 C529.76 7.05 529.76 7.05 527.85 7.04 C526.44 7.02 526.44 7.02 525 7 C525 5.68 525 4.36 525 3 C360.66 3 196.32 3 27 3 C26.67 4.32 26.34 5.64 26 7 C20.5 7.11 15 7.04 9.5 6.75 C8.5 6.7 7.5 6.66 6.47 6.61 C4 6 4 6 2.78 4.08 C2.52 3.39 2.27 2.71 2 2 C1.34 1.34 0.68 0.68 0 0 Z " fill="#DAE7EE" transform="translate(365,817)"/>
<path d="M0 0 C5 3 5 3 6 5 C6.1 6.35 6.13 7.7 6.13 9.05 C6.14 9.9 6.14 10.75 6.15 11.63 C6.15 13.02 6.15 13.02 6.15 14.45 C6.15 15.92 6.15 15.92 6.16 17.42 C6.16 20.68 6.17 23.93 6.17 27.18 C6.17 29.44 6.17 31.69 6.18 33.95 C6.18 38.68 6.19 43.41 6.19 48.14 C6.19 54.21 6.2 60.28 6.22 66.35 C6.23 71.01 6.23 75.67 6.23 80.32 C6.23 82.56 6.23 84.8 6.24 87.04 C6.25 90.17 6.25 93.29 6.24 96.42 C6.25 97.35 6.25 98.28 6.26 99.24 C6.25 100.52 6.25 100.52 6.25 101.82 C6.25 102.56 6.25 103.3 6.25 104.06 C6 106 6 106 4 109 C3.01 109 2.02 109 1 109 C0.5 55.05 0.5 55.05 0 0 Z " fill="#D9E6ED" transform="translate(270,1034)"/>
<path d="M0 0 C1.22 0 1.22 0 2.47 0 C3.33 -0 4.18 -0.01 5.06 -0.01 C7.91 -0.02 10.75 -0.02 13.59 -0.02 C15.56 -0.02 17.52 -0.03 19.49 -0.03 C23.62 -0.04 27.75 -0.04 31.88 -0.04 C37.18 -0.04 42.48 -0.05 47.78 -0.07 C51.84 -0.08 55.91 -0.08 59.97 -0.08 C61.93 -0.08 63.88 -0.09 65.84 -0.1 C68.56 -0.11 71.29 -0.1 74.02 -0.1 C75.25 -0.1 75.25 -0.1 76.49 -0.11 C82.08 -0.08 82.08 -0.08 84.31 2.15 C81.67 5.12 79.03 8.09 76.31 11.15 C75.32 10.65 75.32 10.65 74.31 10.15 C73.69 8.08 73.69 8.08 73.31 6.15 C61.95 5.38 50.64 5.08 39.25 5.19 C38.03 5.2 36.82 5.21 35.57 5.22 C30.52 5.27 25.48 5.32 20.44 5.39 C16.71 5.45 12.98 5.48 9.25 5.5 C8.11 5.53 6.97 5.55 5.79 5.57 C4.74 5.58 3.68 5.58 2.59 5.58 C1.66 5.6 0.74 5.61 -0.21 5.62 C-3.42 5.01 -4.62 3.59 -6.69 1.15 C-4.88 -0.66 -2.41 0.01 0 0 Z " fill="#D9E6ED" transform="translate(326.6867980957031,145.85336303710938)"/>
<path d="M0 0 C30.36 0.33 60.72 0.66 92 1 C91.67 2.32 91.34 3.64 91 5 C87.31 6.23 83.94 6.09 80.1 6.04 C68.12 5.96 56.15 6.16 44.18 6.37 C40.38 6.44 36.59 6.5 32.8 6.56 C30.39 6.6 27.97 6.64 25.56 6.68 C23.86 6.71 23.86 6.71 22.12 6.73 C21.09 6.75 20.05 6.77 18.97 6.79 C17.6 6.82 17.6 6.82 16.2 6.84 C13.96 6.86 13.96 6.86 12 8 C11.67 7.34 11.34 6.68 11 6 C10.34 6 9.68 6 9 6 C8.67 6.66 8.34 7.32 8 8 C4.64 6.56 2.41 4.75 0 2 C0 1.34 0 0.68 0 0 Z " fill="#D9E6ED" transform="translate(867,145)"/>
<path d="M0 0 C4.95 0.99 4.95 0.99 10 2 C9.67 2.66 9.34 3.32 9 4 C7.35 3.67 5.7 3.34 4 3 C4 3.66 4 4.32 4 5 C5.65 5 7.3 5 9 5 C9 5.33 9 5.66 9 6 C-34.56 6 -78.12 6 -123 6 C-123 5.67 -123 5.34 -123 5 C-120.95 4.77 -118.9 4.54 -116.85 4.32 C-114.99 4.18 -114.99 4.18 -114 3 C-112.52 2.89 -111.04 2.85 -109.55 2.84 C-108.11 2.83 -108.11 2.83 -106.64 2.81 C-105.58 2.81 -104.52 2.8 -103.42 2.79 C-102.31 2.78 -101.2 2.77 -100.05 2.76 C-96.36 2.73 -92.66 2.71 -88.96 2.68 C-86.41 2.66 -83.86 2.64 -81.3 2.62 C-75.25 2.57 -69.2 2.53 -63.15 2.48 C-56.27 2.43 -49.38 2.38 -42.5 2.32 C-28.33 2.21 -14.17 2.1 0 2 C0 1.34 0 0.68 0 0 Z " fill="#D9E6ED" transform="translate(497,943)"/>
<path d="M0 0 C12.95 -0.02 25.9 -0.04 38.86 -0.05 C44.87 -0.06 50.88 -0.06 56.9 -0.08 C62.7 -0.09 68.5 -0.09 74.31 -0.09 C76.52 -0.1 78.74 -0.1 80.95 -0.11 C84.05 -0.11 87.15 -0.11 90.25 -0.11 C91.17 -0.12 92.09 -0.12 93.03 -0.12 C97.15 -0.12 100.98 -0.05 105 1 C103 3 103 3 101.13 3.25 C99.98 3.24 99.98 3.24 98.81 3.24 C97.49 3.24 97.49 3.24 96.15 3.25 C95.19 3.24 94.22 3.23 93.23 3.23 C91.7 3.23 91.7 3.23 90.15 3.23 C86.79 3.23 83.42 3.21 80.05 3.2 C77.73 3.19 75.4 3.19 73.07 3.19 C66.93 3.18 60.79 3.16 54.65 3.14 C48.39 3.12 42.13 3.11 35.87 3.1 C23.58 3.08 11.29 3.04 -1 3 C-0.67 2.01 -0.34 1.02 0 0 Z " fill="#DDEAF0" transform="translate(1047,825)"/>
<path d="M0 0 C0.95 0 1.9 0.01 2.88 0.01 C4.37 0.01 4.37 0.01 5.89 0.01 C9.2 0.01 12.51 0.02 15.81 0.03 C18.1 0.03 20.38 0.03 22.67 0.03 C28.7 0.03 34.73 0.04 40.75 0.06 C46.9 0.07 53.05 0.07 59.19 0.08 C71.26 0.09 83.33 0.1 95.4 0.12 C95.9 1.61 95.9 1.61 96.4 3.12 C83.14 3.17 69.87 3.21 56.61 3.23 C50.45 3.24 44.29 3.25 38.13 3.28 C32.19 3.3 26.25 3.31 20.31 3.31 C18.04 3.32 15.77 3.33 13.5 3.34 C10.33 3.35 7.16 3.35 3.99 3.35 C3.05 3.36 2.1 3.37 1.12 3.37 C-0.17 3.37 -0.17 3.37 -1.48 3.36 C-2.61 3.37 -2.61 3.37 -3.76 3.37 C-5.6 3.12 -5.6 3.12 -7.6 1.12 C-5.63 -0.84 -2.61 0 0 0 Z " fill="#DEEBF0" transform="translate(135.59747314453125,824.8755798339844)"/>
<path d="M0 0 C0 0.66 0 1.32 0 2 C0.99 2 1.98 2 3 2 C3 2.66 3 3.32 3 4 C-3.82 6.53 -10.55 6.33 -17.75 6.31 C-19.6 6.34 -19.6 6.34 -21.48 6.36 C-22.66 6.36 -23.83 6.36 -25.05 6.36 C-26.65 6.37 -26.65 6.37 -28.29 6.37 C-31 6 -31 6 -32.87 4.6 C-34 3 -34 3 -34 1 C-29.46 0.83 -24.92 0.67 -20.38 0.5 C-19.09 0.45 -17.8 0.4 -16.48 0.36 C-14.61 0.29 -14.61 0.29 -12.71 0.22 C-11.57 0.18 -10.43 0.13 -9.25 0.09 C-6.17 0 -3.09 -0.02 0 0 Z " fill="#D9E6ED" transform="translate(659,680)"/>
<path d="M0 0 C1.81 0.19 1.81 0.19 4 1 C7.19 5.08 7.4 8.72 7.29 13.71 C7.29 14.43 7.28 15.16 7.28 15.91 C7.26 18.21 7.23 20.51 7.19 22.81 C7.17 24.38 7.16 25.95 7.15 27.51 C7.11 31.34 7.06 35.17 7 39 C5.68 39 4.36 39 3 39 C3 26.79 3 14.58 3 2 C2.01 1.67 1.02 1.34 0 1 C0 0.67 0 0.34 0 0 Z " fill="#D9E6ED" transform="translate(249,982)"/>
<path d="M0 0 C0.7 0.28 1.39 0.56 2.11 0.86 C-4.83 9.26 -12.48 16.91 -20.89 23.86 C-21.55 23.53 -22.21 23.2 -22.89 22.86 C-22.48 22.4 -22.07 21.94 -21.64 21.46 C-21.11 20.85 -20.57 20.24 -20.01 19.61 C-19.48 19 -18.94 18.4 -18.39 17.78 C-16.85 15.96 -16.85 15.96 -16.05 14.02 C-14.26 10.7 -11.7 8.22 -9.07 5.54 C-8.55 4.98 -8.03 4.42 -7.49 3.84 C-3.56 -0.18 -3.56 -0.18 0 0 Z " fill="#D9E6ED" transform="translate(874.88671875,578.14453125)"/>
<path d="M0 0 C1.98 0.99 1.98 0.99 4 2 C4 13.55 4 25.1 4 37 C3.01 37 2.02 37 1 37 C1.01 35.99 1.01 34.97 1.02 33.93 C1.03 30.16 1.05 26.4 1.05 22.64 C1.06 21.01 1.07 19.38 1.08 17.75 C1.09 15.41 1.09 13.07 1.1 10.73 C1.1 10 1.11 9.27 1.11 8.52 C1.11 5.4 0.99 2.98 0 0 Z " fill="#DDEAEF" transform="translate(1258,482)"/>
<path d="M0 0 C0.91 0.1 1.81 0.2 2.75 0.3 C4.22 0.45 4.22 0.45 5.72 0.6 C7.26 0.79 7.26 0.79 8.83 0.97 C10.38 1.13 10.38 1.13 11.97 1.3 C14.53 1.57 17.08 1.86 19.64 2.16 C17.64 4.16 17.64 4.16 14.82 4.35 C13.73 4.33 12.64 4.31 11.51 4.28 C10.42 4.26 9.32 4.25 8.19 4.23 C7.35 4.2 6.51 4.18 5.64 4.16 C5.64 4.82 5.64 5.48 5.64 6.16 C4.18 6.04 2.72 5.92 1.26 5.78 C0.05 5.68 0.05 5.68 -1.2 5.57 C-3.36 5.16 -3.36 5.16 -5.36 3.16 C-3.62 0.94 -2.87 0.19 0 0 Z " fill="#D9E6ED" transform="translate(322.360107421875,1185.843017578125)"/>
<path d="M0 0 C0.73 -0 1.46 -0.01 2.21 -0.01 C6.78 -0 11.12 0.38 15.62 1.12 C15.62 1.45 15.62 1.79 15.62 2.12 C11.17 3.23 6.81 3.27 2.25 3.25 C1.52 3.25 0.79 3.26 0.04 3.26 C-4.53 3.25 -8.87 2.87 -13.38 2.12 C-13.38 1.8 -13.38 1.46 -13.38 1.12 C-8.92 0.02 -4.56 -0.02 0 0 Z " fill="#DEEBF0" transform="translate(638.375,471.875)"/>
<path d="M0 0 C0.68 0.31 1.36 0.62 2.06 0.94 C1.45 1.63 1.45 1.63 0.82 2.33 C0.28 2.94 -0.26 3.56 -0.81 4.19 C-1.35 4.79 -1.88 5.39 -2.43 6.02 C-3.92 7.91 -4.94 9.75 -5.94 11.94 C-6.93 11.61 -7.92 11.28 -8.94 10.94 C-9.82 9.11 -9.82 9.11 -9.94 6.94 C-7.5 3.15 -4.63 -0.1 0 0 Z " fill="#D9E6ED" transform="translate(293.9375,159.0625)"/>
<path d="M0 0 C0.99 0 1.98 0 3 0 C4.08 3.97 3.86 6.43 2.56 10.31 C2.28 11.2 1.99 12.08 1.69 12.99 C1.35 13.98 1.35 13.98 1 15 C0.34 15 -0.32 15 -1 15 C-2.19 9.31 -1.66 5.57 0 0 Z " fill="#D9E6ED" transform="translate(946,439)"/>
<path d="M0 0 C0.33 0.99 0.66 1.98 1 3 C-1.52 4.26 -3.31 4.1 -6.12 4.06 C-7.04 4.05 -7.95 4.04 -8.88 4.04 C-9.58 4.02 -10.28 4.01 -11 4 C-11.33 3.34 -11.66 2.68 -12 2 C-4.71 -1.57 -4.71 -1.57 0 0 Z " fill="#D9E6ED" transform="translate(962,1187)"/>
<path d="M0 0 C1.65 0.99 3.3 1.98 5 3 C4.34 5.97 3.68 8.94 3 12 C2.34 12 1.68 12 1 12 C-1.24 8.65 -1.17 8.09 -0.62 4.31 C-0.51 3.5 -0.4 2.7 -0.29 1.86 C-0.19 1.25 -0.1 0.63 0 0 Z " fill="#D9E6ED" transform="translate(954,394)"/>
<path d="M0 0 C0.54 0.5 1.07 0.99 1.62 1.5 C0.22 2.06 -1.2 2.6 -2.62 3.12 C-3.81 3.58 -3.81 3.58 -5.02 4.04 C-7.38 4.5 -7.38 4.5 -9.61 3.77 C-11.38 2.5 -11.38 2.5 -12.38 -0.5 C-8.01 -1.84 -3.98 -2.52 0 0 Z " fill="#D9E6ED" transform="translate(686.375,679.5)"/>
<path d="M0 0 C0.33 0.66 0.66 1.32 1 2 C3.02 2.65 3.02 2.65 5 3 C5.69 5.31 5.69 5.31 6 8 C4.69 9.81 4.69 9.81 3 11 C2.34 11 1.68 11 1 11 C0.67 7.37 0.34 3.74 0 0 Z " fill="#D9E6ED" transform="translate(927,876)"/>
<path d="M0 0 C1.32 0.33 2.64 0.66 4 1 C4.33 4.3 4.66 7.6 5 11 C4.01 11.5 4.01 11.5 3 12 C1.1 10.1 0.06 8.67 -0.2 5.95 C-0.19 3.97 -0.1 1.98 0 0 Z " fill="#D9E6ED" transform="translate(953,326)"/>
<path d="M0 0 C2.31 0 4.62 0 7 0 C7.33 0.99 7.66 1.98 8 3 C8.99 3.33 9.98 3.66 11 4 C9.1 5.9 6.43 5.12 3.91 5.13 C2 5 2 5 0 4 C0 2.68 0 1.36 0 0 Z " fill="#D9E6ED" transform="translate(594,678)"/>
<path d="M0 0 C2.57 2.26 3.68 4.2 4.75 7.44 C5.01 8.2 5.28 8.96 5.55 9.75 C6.04 12.21 5.79 13.65 5 16 C4.01 13.69 3.02 11.38 2 9 C1.34 9 0.68 9 0 9 C-1.12 3.38 -1.12 3.38 0 0 Z " fill="#D9E6ED" transform="translate(939,259)"/>
<path d="M0 0 C0.33 0.66 0.66 1.32 1 2 C3.02 2.65 3.02 2.65 5 3 C5.33 4.65 5.66 6.3 6 8 C4.02 8.99 4.02 8.99 2 10 C1.34 6.7 0.68 3.4 0 0 Z " fill="#D9E6ED" transform="translate(927,793)"/>
<path d="M0 0 C6.75 -0.12 6.75 -0.12 9 1 C9 2.32 9 3.64 9 5 C5.27 4.5 3.19 4.13 0 2 C0 1.34 0 0.68 0 0 Z " fill="#D9E6ED" transform="translate(299,1181)"/>
<path d="M0 0 C0.99 0.33 1.98 0.66 3 1 C3.19 4.38 3.19 4.38 3 8 C2.01 8.66 1.02 9.32 0 10 C0 9.01 0 8.02 0 7 C-0.66 6.67 -1.32 6.34 -2 6 C-1.34 4.02 -0.68 2.04 0 0 Z " fill="#D9E6ED" transform="translate(952,413)"/>
<path d="M0 0 C0.99 0.33 1.98 0.66 3 1 C2.67 3.31 2.34 5.62 2 8 C0.68 8 -0.64 8 -2 8 C-1.12 2.25 -1.12 2.25 0 0 Z " fill="#D9E6ED" transform="translate(276,180)"/>
<path d="M0 0 C-1.65 1.65 -3.3 3.3 -5 5 C-5.99 4.67 -6.98 4.34 -8 4 C-7.62 2.06 -7.62 2.06 -7 0 C-4.33 -1.33 -2.83 -0.67 0 0 Z " fill="#D9E6ED" transform="translate(785,648)"/>
<path d="M0 0 C0.66 0 1.32 0 2 0 C2 3.63 2 7.26 2 11 C1.34 11 0.68 11 0 11 C-1.76 5.04 -1.76 5.04 -2 3 C-1.34 2.01 -0.68 1.02 0 0 Z " fill="#D9E6ED" transform="translate(323,395)"/>
<path d="M0 0 C4.56 3.61 8.02 6.99 11 12 C7.87 10.61 5.68 8.97 3.25 6.56 C2.64 5.97 2.02 5.37 1.39 4.75 C0 3 0 3 0 0 Z " fill="#DAE7ED" transform="translate(987,160)"/>
<path d="M0 0 C3.94 1.31 6.23 2.92 9 6 C6 7 6 7 3.38 5.81 C1 4 1 4 0.19 1.81 C0.13 1.21 0.06 0.62 0 0 Z " fill="#D9E6ED" transform="translate(467,630)"/>
<path d="M0 0 C1.5 1.06 1.5 1.06 3 3 C3.19 6.69 3.19 6.69 3 10 C2.67 9.34 2.34 8.68 2 8 C1.01 8 0.02 8 -1 8 C-0.67 5.36 -0.34 2.72 0 0 Z " fill="#D9E6ED" transform="translate(952,309)"/>
</svg>
