<?xml version="1.0" encoding="UTF-8" standalone="no"?>
<!DOCTYPE svg PUBLIC "-//W3C//DTD SVG 1.1//EN" "http://www.w3.org/Graphics/SVG/1.1/DTD/svg11.dtd">
<svg xmlns="http://www.w3.org/2000/svg" version="1.1" viewBox="0.00 0.00 448.00 448.00">
<path fill="#25b3c3" d="
  M 272.89 0.00
  L 282.23 0.00
  Q 305.52 1.29 327.86 7.44
  Q 360.76 16.49 386.75 37.18
  C 451.61 88.81 465.33 185.25 424.08 255.70
  C 401.42 294.41 364.36 320.23 320.58 330.59
  C 304.39 334.42 286.15 336.84 269.60 335.70
  Q 227.86 332.83 192.23 310.82
  Q 191.76 310.53 191.37 310.92
  Q 129.11 373.02 64.70 437.44
  Q 55.40 446.75 40.62 448.00
  L 36.02 448.00
  Q 34.26 447.68 32.49 447.45
  C 20.31 445.88 9.78 437.37 4.59 427.08
  C -2.83 412.35 0.09 394.76 11.49 383.30
  Q 41.38 353.25 137.66 256.99
  A 0.48 0.47 -38.6 0 0 137.73 256.40
  Q 112.27 216.28 112.23 169.28
  C 112.19 112.43 142.10 58.52 188.99 26.94
  Q 225.98 2.03 272.89 0.00
  Z
  M 259.27 318.56
  C 317.29 326.53 373.26 301.39 406.22 253.20
  C 424.66 226.24 435.00 191.35 431.78 157.92
  C 428.32 122.05 415.50 88.19 390.39 62.15
  C 323.66 -7.04 199.44 3.87 150.34 88.66
  Q 134.46 116.10 129.92 149.57
  Q 128.29 161.60 128.41 169.43
  Q 129.30 229.86 171.93 274.54
  Q 178.03 280.93 186.20 287.30
  Q 219.26 313.07 259.27 318.56
  Z
  M 18.13 401.26
  C 10.35 420.30 29.79 437.74 48.13 429.58
  Q 51.66 428.01 58.32 421.35
  Q 118.19 361.41 178.11 301.54
  A 0.38 0.38 0.0 0 0 178.07 300.97
  Q 160.83 287.71 147.52 270.45
  A 0.50 0.49 48.3 0 0 146.78 270.40
  Q 88.26 329.06 22.32 394.98
  Q 19.58 397.72 18.13 401.26
  Z"
/>
<path fill="#25b3c3" d="
  M 331.01 46.17
  C 376.68 65.64 407.35 107.18 411.88 156.92
  Q 412.76 166.53 411.86 176.34
  Q 409.44 202.87 399.61 224.62
  C 371.56 286.71 301.54 312.46 238.22 292.82
  C 199.06 280.67 169.98 251.48 156.50 212.86
  Q 151.47 198.45 149.27 179.83
  C 145.63 149.15 154.79 117.40 172.22 92.58
  C 200.37 52.48 247.29 31.46 295.91 37.02
  Q 314.52 39.14 331.01 46.17
  Z
  M 207.24 105.18
  C 206.97 99.40 209.65 94.99 216.01 94.97
  Q 219.50 94.96 222.96 95.00
  Q 223.58 95.00 223.58 94.38
  C 223.57 89.72 222.41 83.26 226.51 79.86
  C 230.21 76.79 235.79 77.72 238.30 81.78
  C 240.31 85.04 239.45 90.61 239.53 94.33
  Q 239.54 94.98 240.19 94.98
  L 255.50 94.98
  Q 256.14 94.98 256.14 94.34
  Q 256.11 82.80 256.13 69.89
  C 256.16 58.89 272.16 58.86 272.10 70.18
  Q 272.02 82.20 272.06 94.34
  Q 272.06 94.98 272.70 94.98
  L 288.27 94.98
  A 0.45 0.44 -90.0 0 0 288.71 94.53
  Q 288.70 86.37 288.72 78.77
  C 288.74 67.96 304.63 67.90 304.63 79.04
  Q 304.62 87.24 304.63 94.37
  A 0.61 0.60 90.0 0 0 305.23 94.98
  L 320.51 94.98
  Q 321.24 94.98 321.24 94.24
  L 321.24 60.18
  A 0.93 0.93 0.0 0 0 320.62 59.30
  Q 287.56 47.45 255.37 54.85
  Q 208.95 65.51 182.28 106.23
  Q 180.87 108.37 179.72 110.73
  Q 179.48 111.23 180.03 111.23
  L 206.74 111.24
  Q 207.26 111.24 207.28 110.72
  Q 207.38 108.00 207.24 105.18
  Z
  M 388.52 208.88
  A 0.53 0.52 -79.4 0 0 389.01 208.54
  C 408.88 154.23 387.45 96.27 337.91 67.33
  Q 337.22 66.93 337.22 67.73
  L 337.21 94.47
  Q 337.21 94.95 337.69 94.97
  Q 340.44 95.06 343.64 94.93
  C 350.12 94.68 353.73 98.25 353.54 104.71
  Q 353.44 107.75 353.48 110.70
  Q 353.49 111.21 354.01 111.23
  C 357.73 111.32 363.09 110.52 366.39 112.23
  C 372.03 115.13 371.82 123.27 366.45 126.17
  C 363.16 127.95 357.68 127.09 353.99 127.24
  Q 353.49 127.25 353.49 127.75
  L 353.49 143.24
  Q 353.49 143.79 354.04 143.79
  Q 365.94 143.83 378.04 143.78
  Q 382.33 143.76 384.69 146.53
  C 388.15 150.61 386.87 157.03 381.92 159.02
  Q 379.75 159.89 376.27 159.84
  Q 365.16 159.68 353.95 159.80
  Q 353.49 159.81 353.49 160.26
  L 353.49 176.01
  A 0.32 0.31 1.0 0 0 353.80 176.32
  Q 361.08 176.43 368.00 176.30
  Q 371.07 176.25 372.96 176.98
  C 377.62 178.80 379.20 184.52 376.56 188.65
  Q 374.19 192.34 369.19 192.31
  Q 361.40 192.26 354.17 192.28
  Q 353.49 192.28 353.49 192.95
  L 353.49 208.25
  Q 353.49 208.87 354.12 208.87
  L 388.52 208.88
  Z
  M 337.50 111.24
  A 0.31 0.31 0.0 0 0 337.19 110.93
  L 223.57 110.93
  A 0.31 0.31 0.0 0 0 223.26 111.24
  L 223.26 224.88
  A 0.31 0.31 0.0 0 0 223.57 225.19
  L 337.19 225.19
  A 0.31 0.31 0.0 0 0 337.50 224.88
  L 337.50 111.24
  Z
  M 182.48 176.34
  Q 196.77 176.37 206.70 176.35
  Q 207.29 176.35 207.29 175.76
  L 207.29 160.28
  Q 207.29 159.75 206.76 159.75
  Q 198.95 159.76 191.40 159.78
  C 182.33 159.80 179.61 147.91 187.80 144.46
  Q 189.84 143.60 194.16 143.73
  Q 200.97 143.92 206.76 143.77
  Q 207.29 143.76 207.29 143.23
  L 207.29 127.74
  Q 207.29 127.20 206.74 127.20
  L 172.27 127.20
  A 0.49 0.48 -79.3 0 0 171.82 127.51
  C 163.01 150.89 161.83 177.17 169.25 201.17
  Q 182.85 245.15 223.19 268.94
  A 0.25 0.25 0.0 0 0 223.57 268.73
  L 223.56 241.72
  Q 223.56 241.14 222.99 241.12
  Q 220.45 241.04 217.97 241.17
  C 212.19 241.46 207.55 239.35 207.32 232.70
  Q 207.20 228.98 207.34 225.41
  Q 207.36 224.82 206.78 224.82
  Q 203.10 224.77 198.74 224.84
  C 189.45 225.00 186.84 212.43 195.48 209.43
  C 198.63 208.34 203.18 209.00 206.72 208.85
  Q 207.29 208.83 207.29 208.25
  L 207.29 192.94
  Q 207.29 192.28 206.63 192.28
  Q 195.31 192.27 182.48 192.30
  C 171.37 192.32 171.39 176.31 182.48 176.34
  Z
  M 240.05 276.72
  C 293.60 296.37 352.85 274.88 381.09 225.41
  Q 381.44 224.81 380.75 224.81
  L 354.05 224.81
  A 0.55 0.55 0.0 0 0 353.50 225.34
  C 353.40 228.49 353.88 232.09 353.16 234.96
  C 351.32 242.35 343.71 241.29 337.85 241.08
  Q 337.24 241.06 337.23 241.67
  C 337.17 246.95 338.56 253.76 333.24 256.95
  C 329.41 259.24 324.34 257.86 322.26 253.92
  C 320.50 250.60 321.35 245.44 321.24 241.62
  Q 321.22 241.12 320.73 241.12
  L 305.04 241.13
  A 0.42 0.42 0.0 0 0 304.62 241.55
  Q 304.64 254.48 304.61 266.31
  C 304.58 276.94 288.57 277.13 288.66 265.62
  Q 288.77 253.47 288.68 241.36
  A 0.23 0.23 0.0 0 0 288.45 241.13
  L 272.35 241.12
  A 0.25 0.25 0.0 0 0 272.10 241.36
  Q 271.99 248.56 272.11 256.68
  C 272.27 268.29 256.22 268.19 256.14 257.48
  Q 256.08 249.87 256.15 241.72
  Q 256.15 241.12 255.55 241.12
  L 239.82 241.13
  A 0.30 0.30 0.0 0 0 239.52 241.43
  L 239.52 275.96
  Q 239.52 276.53 240.05 276.72
  Z"
/>
<path fill="#25b3c3" d="
  M 253.48 176.55
  Q 253.32 185.40 253.53 194.70
  Q 253.61 198.41 253.13 200.77
  C 252.06 206.10 245.85 208.42 241.35 205.70
  Q 237.42 203.32 237.45 198.35
  Q 237.58 177.14 237.43 155.05
  Q 237.39 148.74 238.81 144.82
  C 242.52 134.59 251.61 128.83 262.43 129.05
  C 266.71 129.14 271.18 128.73 275.29 130.03
  Q 286.86 133.69 290.93 145.08
  Q 292.33 148.99 292.27 156.94
  Q 292.12 176.65 292.28 196.31
  Q 292.31 199.88 291.45 202.02
  C 289.52 206.85 283.31 208.40 279.18 205.05
  C 276.95 203.26 276.20 200.87 276.21 198.06
  Q 276.26 187.28 276.22 176.29
  A 0.26 0.26 0.0 0 0 275.96 176.03
  L 254.02 176.02
  Q 253.49 176.02 253.48 176.55
  Z
  M 253.75 160.06
  L 275.93 160.10
  A 0.32 0.32 0.0 0 0 276.25 159.78
  L 276.26 152.76
  A 7.81 7.76 0.1 0 0 268.46 144.99
  L 261.26 144.97
  A 7.81 7.76 0.1 0 0 253.44 152.72
  L 253.43 159.74
  A 0.32 0.32 0.0 0 0 253.75 160.06
  Z"
/>
<rect fill="#25b3c3" x="302.80" y="129.10" width="15.94" height="77.86" rx="7.80"/>
</svg>
