<?xml version="1.0" encoding="UTF-8"?>
<!-- Generator: visioncortex VTracer 0.6.3 -->
<svg version="1.1" xmlns="http://www.w3.org/2000/svg" width="1280" height="1280">
<path d="M0 0 C3.58 0 7.16 -0 10.75 -0.01 C17.74 -0.02 24.73 -0.01 31.72 -0.01 C37.41 -0 43.09 -0 48.78 -0.01 C49.6 -0.01 50.41 -0.01 51.25 -0.01 C52.9 -0.01 54.55 -0.01 56.21 -0.01 C71.67 -0.01 87.12 -0.01 102.58 0 C115.8 0.01 129.03 0.01 142.25 0 C157.66 -0.01 173.07 -0.01 188.48 -0.01 C190.13 -0.01 191.77 -0.01 193.42 -0.01 C194.64 -0.01 194.64 -0.01 195.87 -0.01 C201.55 -0 207.22 -0.01 212.89 -0.01 C219.82 -0.02 226.74 -0.02 233.67 -0 C237.19 0 240.72 0 244.24 -0 C267.74 -0.04 288.25 0.81 310.03 10.26 C311.7 10.93 313.36 11.6 315.03 12.26 C315.03 12.92 315.03 13.58 315.03 14.26 C315.9 14.45 315.9 14.45 316.78 14.64 C319.06 15.27 320.96 16.15 323.03 17.26 C323.03 17.92 323.03 18.58 323.03 19.26 C323.76 19.52 324.48 19.77 325.23 20.03 C333.08 23.47 340.04 30.38 345.03 37.26 C345.36 38.25 345.69 39.24 346.03 40.26 C346.69 40.26 347.35 40.26 348.03 40.26 C351.03 44.65 351.03 44.65 351.03 47.26 C351.69 47.26 352.35 47.26 353.03 47.26 C354.51 50.21 355.98 53.17 357.45 56.12 C358.32 57.85 359.21 59.58 360.15 61.28 C362.54 65.64 364.17 70.23 365.72 74.95 C365.94 75.57 366.15 76.19 366.37 76.84 C370.86 91.06 369.25 107.53 369.35 122.25 C369.37 124.76 369.39 127.28 369.41 129.79 C369.46 135.7 369.51 141.62 369.55 147.53 C369.61 154.93 369.67 162.33 369.73 169.73 C369.83 182.91 369.94 196.08 370.03 209.26 C371.14 209.41 372.24 209.56 373.38 209.71 C383.89 211.3 392.36 218.47 398.89 226.56 C405.28 235.7 407.15 244.47 407.18 255.6 C407.18 256.64 407.18 256.64 407.19 257.71 C407.2 259.99 407.2 262.28 407.2 264.56 C407.21 266.16 407.21 267.77 407.21 269.37 C407.22 272.72 407.22 276.08 407.22 279.43 C407.22 283.7 407.23 287.98 407.25 292.25 C407.26 295.56 407.26 298.87 407.26 302.18 C407.26 303.75 407.27 305.32 407.28 306.9 C407.35 323.54 405.24 337.87 393.03 350.26 C382.89 358.25 372.29 361.92 359.46 361.65 C358.41 361.65 357.36 361.64 356.28 361.63 C352.97 361.61 349.66 361.56 346.35 361.51 C344.08 361.49 341.82 361.47 339.56 361.46 C334.05 361.41 328.54 361.35 323.03 361.26 C323.04 361.85 323.05 362.44 323.05 363.05 C323.12 369.28 323.17 375.51 323.2 381.74 C323.21 384.06 323.23 386.38 323.26 388.69 C323.41 401.91 323.29 414.39 320.03 427.26 C319.72 428.55 319.72 428.55 319.4 429.86 C318.87 431.91 318.28 433.93 317.66 435.95 C317.45 436.65 317.24 437.34 317.02 438.06 C315.01 444.59 312.61 450.93 310.03 457.26 C309.37 458.91 308.71 460.56 308.03 462.26 C323.54 462.26 339.05 462.26 355.03 462.26 C356.02 459.29 357.01 456.32 358.03 453.26 C361.67 448.72 366.44 444.85 372.3 443.89 C374.97 443.74 377.62 443.72 380.29 443.74 C381.31 443.73 382.33 443.73 383.38 443.72 C386.78 443.7 390.19 443.71 393.59 443.72 C396.04 443.71 398.48 443.7 400.93 443.68 C406.19 443.66 411.44 443.65 416.7 443.65 C424.31 443.66 431.91 443.63 439.51 443.61 C451.85 443.57 464.18 443.54 476.52 443.53 C488.5 443.52 500.48 443.5 512.46 443.47 C513.2 443.47 513.94 443.47 514.7 443.46 C518.41 443.45 522.11 443.44 525.82 443.43 C556.56 443.35 587.3 443.3 618.03 443.26 C618.97 441.6 618.97 441.6 619.93 439.91 C621.47 437.21 622.97 434.61 625.03 432.26 C625.69 432.26 626.35 432.26 627.03 432.26 C627.03 431.6 627.03 430.94 627.03 430.26 C635.94 421.09 648.77 418.48 661.03 418.26 C664.1 411.97 666.63 405.64 668.85 399.01 C671.69 390.58 675.61 382.97 680.03 375.26 C680.69 375.26 681.35 375.26 682.03 375.26 C682.27 374.67 682.51 374.09 682.75 373.48 C686.84 366.41 696.57 362.64 704.03 360.26 C716.39 357.17 728.09 360.5 739.51 365.3 C742.11 366.29 744.64 366.95 747.35 367.57 C754.13 369.17 760.66 371.4 767.24 373.64 C773.03 375.62 773.03 375.62 778.89 377.36 C792.23 381.04 801.89 387.87 808.85 399.89 C812.46 406.51 813.42 412.38 813.41 419.82 C813.41 420.71 813.41 421.59 813.41 422.5 C813.3 429.07 812.24 434.38 809.98 440.57 C809.13 443 808.67 445.08 808.41 447.64 C807.92 452.33 806.64 456.56 805.06 461 C803.94 464.57 803.22 468.09 802.53 471.76 C801.66 476.43 800.55 480.77 799.03 485.26 C798.51 487.59 798.01 489.92 797.53 492.26 C796.85 495.67 796.14 498.94 795.03 502.23 C793.89 505.71 793.21 509.16 792.53 512.76 C791.86 516.35 791.19 519.79 790.03 523.26 C788.47 527.97 787.72 532.83 786.82 537.7 C786.14 540.78 785.22 543.37 784.03 546.26 C783.78 548.24 783.52 550.23 783.31 552.21 C782.76 556.29 781.43 560.14 780.06 564 C778.94 567.57 778.22 571.09 777.53 574.76 C776.66 579.43 775.55 583.77 774.03 588.26 C773.51 590.59 773.01 592.92 772.53 595.26 C771.85 598.67 771.14 601.94 770.03 605.23 C768.89 608.71 768.21 612.16 767.53 615.76 C766.86 619.35 766.19 622.79 765.03 626.26 C763.47 630.97 762.72 635.83 761.82 640.7 C761.14 643.78 760.22 646.37 759.03 649.26 C758.78 651.24 758.52 653.23 758.31 655.21 C757.76 659.29 756.43 663.14 755.06 667 C753.54 671.82 752.73 676.74 751.82 681.7 C751.14 684.78 750.23 687.37 749.03 690.26 C748.68 691.79 748.37 693.34 748.1 694.89 C747.42 698.47 746.6 701.94 745.6 705.45 C743.98 711.17 742.87 716.95 741.78 722.78 C741.08 726.06 740.1 729.09 739.03 732.26 C738.51 734.59 738.01 736.92 737.53 739.26 C736.85 742.67 736.14 745.94 735.03 749.23 C733.89 752.71 733.21 756.16 732.53 759.76 C731.86 763.35 731.19 766.79 730.03 770.26 C728.47 774.97 727.72 779.83 726.82 784.7 C726.14 787.78 725.22 790.37 724.03 793.26 C723.78 795.24 723.52 797.23 723.31 799.21 C722.76 803.29 721.43 807.14 720.06 811 C718.94 814.57 718.22 818.09 717.53 821.76 C716.86 825.36 716.2 828.77 715 832.23 C712.92 838.74 712.88 845.46 712.88 852.23 C712.87 853.1 712.87 853.97 712.86 854.87 C712.85 857.76 712.84 860.65 712.83 863.54 C712.82 865.62 712.81 867.7 712.8 869.78 C712.77 875.41 712.75 881.05 712.73 886.68 C712.71 892.57 712.68 898.46 712.65 904.36 C712.6 915.51 712.56 926.66 712.52 937.81 C712.47 950.51 712.41 963.21 712.36 975.91 C712.24 1002.03 712.14 1028.14 712.03 1054.26 C712.6 1054.27 713.17 1054.28 713.75 1054.29 C719.69 1054.37 725.63 1054.47 731.57 1054.58 C733.78 1054.62 735.99 1054.65 738.2 1054.68 C741.39 1054.73 744.58 1054.79 747.78 1054.85 C748.75 1054.86 749.73 1054.87 750.74 1054.88 C759.72 1055.07 767.78 1056.29 775.91 1060.26 C776.98 1060.78 778.05 1061.29 779.15 1061.82 C780.1 1062.3 781.05 1062.77 782.03 1063.26 C783.21 1063.85 783.21 1063.85 784.42 1064.45 C785.22 1064.85 785.22 1064.85 786.03 1065.26 C786.03 1065.92 786.03 1066.58 786.03 1067.26 C786.63 1067.39 787.23 1067.51 787.85 1067.64 C790.03 1068.26 790.03 1068.26 793.03 1070.26 C793.03 1070.92 793.03 1071.58 793.03 1072.26 C793.99 1072.66 793.99 1072.66 794.97 1073.07 C797.03 1074.26 797.03 1074.26 798.03 1077.26 C798.69 1077.26 799.35 1077.26 800.03 1077.26 C801.98 1079.53 801.98 1079.53 804.16 1082.51 C804.88 1083.49 805.61 1084.46 806.35 1085.46 C808.03 1088.26 808.03 1088.26 808.03 1092.26 C808.69 1092.26 809.35 1092.26 810.03 1092.26 C813.36 1099.67 815.34 1106.34 815.31 1114.55 C815.32 1115.74 815.32 1115.74 815.32 1116.97 C815.34 1119.58 815.34 1122.2 815.33 1124.82 C815.34 1126.65 815.34 1128.48 815.35 1130.32 C815.36 1134.15 815.35 1137.98 815.35 1141.81 C815.34 1146.71 815.36 1151.6 815.38 1156.5 C815.4 1160.28 815.4 1164.06 815.4 1167.84 C815.4 1169.65 815.4 1171.45 815.41 1173.26 C815.42 1175.79 815.42 1178.32 815.41 1180.85 C815.42 1181.95 815.42 1181.95 815.43 1183.08 C815.29 1197.44 805.74 1211.7 795.82 1221.44 C790.48 1226.26 790.48 1226.26 788.03 1226.26 C788.03 1226.92 788.03 1227.58 788.03 1228.26 C773.27 1239.88 754.46 1240.57 736.51 1240.52 C734.88 1240.52 733.25 1240.52 731.62 1240.53 C727.15 1240.53 722.68 1240.53 718.21 1240.52 C713.35 1240.52 708.48 1240.53 703.61 1240.53 C695.09 1240.54 686.57 1240.54 678.04 1240.54 C665.37 1240.53 652.69 1240.54 640.02 1240.55 C616.07 1240.56 592.12 1240.57 568.17 1240.56 C549.68 1240.56 531.19 1240.56 512.7 1240.57 C510.04 1240.57 507.38 1240.57 504.73 1240.57 C499.73 1240.57 499.73 1240.57 494.73 1240.57 C456.85 1240.58 418.97 1240.59 381.1 1240.58 C380.39 1240.58 379.69 1240.58 378.97 1240.58 C371.15 1240.58 363.34 1240.58 355.52 1240.58 C354.81 1240.58 354.11 1240.58 353.38 1240.58 C347.52 1240.58 347.52 1240.58 344.82 1240.58 C299.65 1240.57 254.49 1240.58 209.32 1240.6 C197.94 1240.6 186.55 1240.61 175.17 1240.61 C174.47 1240.61 173.77 1240.61 173.04 1240.61 C151.44 1240.62 129.84 1240.63 108.24 1240.63 C107.56 1240.63 106.88 1240.63 106.18 1240.63 C91.3 1240.63 76.42 1240.63 61.53 1240.63 C55.54 1240.62 49.56 1240.62 43.57 1240.62 C41.6 1240.62 41.6 1240.62 39.6 1240.62 C19.8 1240.62 0 1240.63 -19.8 1240.64 C-42.3 1240.65 -64.8 1240.65 -87.31 1240.64 C-99.91 1240.63 -112.51 1240.64 -125.11 1240.65 C-133.52 1240.66 -141.92 1240.66 -150.33 1240.64 C-155.13 1240.64 -159.93 1240.64 -164.72 1240.65 C-169.08 1240.66 -173.44 1240.65 -177.8 1240.64 C-179.37 1240.64 -180.94 1240.64 -182.51 1240.65 C-190.2 1240.68 -196.94 1240.7 -203.97 1237.26 C-205.2 1236.67 -205.2 1236.67 -206.47 1236.07 C-207.21 1235.67 -207.21 1235.67 -207.97 1235.26 C-207.97 1234.6 -207.97 1233.94 -207.97 1233.26 C-208.63 1233.26 -209.29 1233.26 -209.97 1233.26 C-212.8 1229.4 -213.13 1227.26 -213.97 1222.26 C-229.81 1221.93 -245.65 1221.6 -261.97 1221.26 C-262.3 1222.91 -262.63 1224.56 -262.97 1226.26 C-263.6 1227.94 -264.26 1229.61 -264.97 1231.26 C-265.63 1231.26 -266.29 1231.26 -266.97 1231.26 C-267.34 1232.16 -267.34 1232.16 -267.72 1233.07 C-270.07 1237.2 -273.26 1238.62 -277.76 1239.85 C-282.4 1240.72 -287.12 1240.54 -291.83 1240.52 C-293.01 1240.52 -294.19 1240.53 -295.4 1240.53 C-298.62 1240.54 -301.83 1240.54 -305.05 1240.53 C-308.44 1240.53 -311.82 1240.53 -315.21 1240.53 C-320.9 1240.54 -326.59 1240.53 -332.28 1240.52 C-338.82 1240.51 -345.36 1240.51 -351.91 1240.53 C-357.55 1240.53 -363.2 1240.54 -368.84 1240.53 C-372.2 1240.53 -375.56 1240.53 -378.92 1240.53 C-413.69 1240.58 -413.69 1240.58 -425.97 1234.26 C-427.21 1233.73 -428.46 1233.21 -429.72 1232.7 C-432.65 1231.4 -435.33 1230.1 -437.97 1228.26 C-437.97 1227.6 -437.97 1226.94 -437.97 1226.26 C-438.7 1226.01 -439.44 1225.76 -440.2 1225.5 C-443.17 1224.17 -444.88 1222.75 -447.15 1220.45 C-447.83 1219.78 -448.5 1219.12 -449.2 1218.43 C-451.07 1216.13 -452.01 1214.06 -452.97 1211.26 C-453.63 1211.26 -454.29 1211.26 -454.97 1211.26 C-456.26 1208.72 -457.55 1206.18 -458.84 1203.64 C-459.21 1202.92 -459.57 1202.21 -459.95 1201.48 C-460.3 1200.77 -460.66 1200.07 -461.02 1199.35 C-461.35 1198.71 -461.67 1198.07 -462 1197.41 C-464.5 1191.83 -465.25 1186.95 -465.19 1180.87 C-465.19 1180.05 -465.19 1179.23 -465.19 1178.38 C-465.19 1175.69 -465.18 1173 -465.16 1170.3 C-465.16 1168.43 -465.15 1166.55 -465.15 1164.68 C-465.15 1159.75 -465.13 1154.83 -465.1 1149.91 C-465.08 1144.88 -465.07 1139.86 -465.06 1134.83 C-465.04 1124.97 -465.01 1115.12 -464.97 1105.26 C-464.31 1105.26 -463.65 1105.26 -462.97 1105.26 C-463.06 1103.99 -463.06 1103.99 -463.16 1102.69 C-462.68 1094.19 -455.98 1083.26 -449.97 1077.26 C-449.31 1077.26 -448.65 1077.26 -447.97 1077.26 C-447.64 1076.27 -447.31 1075.28 -446.97 1074.26 C-446.31 1074.26 -445.65 1074.26 -444.97 1074.26 C-444.97 1073.6 -444.97 1072.94 -444.97 1072.26 C-444.31 1072.26 -443.65 1072.26 -442.97 1072.26 C-442.97 1071.6 -442.97 1070.94 -442.97 1070.26 C-440.4 1067.96 -439.49 1067.26 -435.97 1067.26 C-435.97 1066.6 -435.97 1065.94 -435.97 1065.26 C-434.07 1064.3 -432.18 1063.34 -430.28 1062.39 C-428.69 1061.59 -428.69 1061.59 -427.08 1060.77 C-417.51 1056.14 -408.26 1054.97 -397.71 1054.85 C-396.68 1054.83 -395.65 1054.81 -394.59 1054.79 C-391.34 1054.73 -388.09 1054.68 -384.84 1054.64 C-382.62 1054.6 -380.4 1054.56 -378.18 1054.52 C-372.78 1054.42 -367.37 1054.34 -361.97 1054.26 C-361.97 1052.48 -361.97 1052.48 -361.97 1050.66 C-362 998.34 -362.03 946.02 -362.05 893.7 C-362.05 892.91 -362.05 892.12 -362.05 891.3 C-362.06 874.09 -362.06 856.87 -362.07 839.65 C-362.07 831.21 -362.07 822.77 -362.08 814.33 C-362.08 813.49 -362.08 812.65 -362.08 811.78 C-362.09 784.55 -362.1 757.32 -362.12 730.09 C-362.14 702.11 -362.15 674.13 -362.15 646.14 C-362.15 642.19 -362.16 638.24 -362.16 634.28 C-362.16 633.12 -362.16 633.12 -362.16 631.93 C-362.16 619.41 -362.17 606.88 -362.18 594.36 C-362.19 581.77 -362.2 569.19 -362.19 556.6 C-362.19 549.78 -362.19 542.96 -362.2 536.14 C-362.21 529.89 -362.21 523.65 -362.21 517.4 C-362.21 515.14 -362.21 512.88 -362.22 510.63 C-362.22 507.55 -362.22 504.48 -362.21 501.41 C-362.22 500.53 -362.22 499.66 -362.23 498.76 C-362.18 490.77 -361.53 482.21 -357.65 475.07 C-357 473.87 -357 473.87 -356.33 472.63 C-355.66 471.46 -355.66 471.46 -354.97 470.26 C-354.29 469.07 -354.29 469.07 -353.6 467.86 C-351.18 463.78 -351.18 463.78 -349.97 462.26 C-349.31 462.26 -348.65 462.26 -347.97 462.26 C-347.97 461.6 -347.97 460.94 -347.97 460.26 C-336.25 449.18 -323.44 443.75 -307.34 443.9 C-306.33 443.9 -305.32 443.9 -304.28 443.89 C-300.93 443.89 -297.58 443.9 -294.23 443.92 C-291.81 443.92 -289.4 443.92 -286.98 443.92 C-281.8 443.92 -276.61 443.93 -271.43 443.94 C-263.94 443.97 -256.44 443.98 -248.95 443.98 C-236.78 443.99 -224.62 444.01 -212.46 444.04 C-200.65 444.06 -188.85 444.08 -177.04 444.1 C-176.31 444.1 -175.58 444.1 -174.83 444.1 C-171.17 444.1 -167.51 444.11 -163.86 444.11 C-133.56 444.14 -103.26 444.19 -72.97 444.26 C-73.31 443.23 -73.66 442.2 -74.02 441.14 C-74.48 439.78 -74.94 438.41 -75.4 437.05 C-75.63 436.37 -75.86 435.7 -76.09 435 C-77.68 430.27 -78.89 425.73 -79.72 420.82 C-79.94 419.57 -80.16 418.31 -80.39 417.02 C-82.18 404.06 -82.19 390.82 -82.53 377.76 C-82.57 376.15 -82.62 374.53 -82.66 372.92 C-82.76 369.03 -82.87 365.15 -82.97 361.26 C-83.53 361.27 -84.1 361.28 -84.68 361.29 C-90.62 361.38 -96.56 361.44 -102.5 361.48 C-104.71 361.5 -106.92 361.53 -109.13 361.56 C-112.32 361.61 -115.52 361.63 -118.71 361.65 C-120.17 361.68 -120.17 361.68 -121.67 361.71 C-130.98 361.72 -138.31 358.67 -146.09 353.64 C-147.02 353.05 -147.95 352.46 -148.91 351.85 C-149.59 351.32 -150.27 350.8 -150.97 350.26 C-150.97 349.6 -150.97 348.94 -150.97 348.26 C-151.63 348.26 -152.29 348.26 -152.97 348.26 C-161.19 339.82 -165.27 328.92 -165.26 317.21 C-165.26 316.43 -165.27 315.66 -165.28 314.86 C-165.3 312.32 -165.3 309.78 -165.3 307.25 C-165.31 305.47 -165.32 303.69 -165.32 301.91 C-165.33 298.18 -165.34 294.46 -165.34 290.73 C-165.34 285.98 -165.36 281.23 -165.4 276.49 C-165.42 272.81 -165.42 269.13 -165.42 265.46 C-165.43 263.71 -165.43 261.96 -165.45 260.21 C-165.58 244.42 -162.91 232.54 -151.57 220.78 C-143.95 213.61 -138.21 210.48 -127.97 209.26 C-127.97 208.69 -127.97 208.12 -127.97 207.53 C-128.04 193.52 -128.09 179.51 -128.12 165.5 C-128.14 158.72 -128.16 151.95 -128.19 145.17 C-128.23 138.63 -128.24 132.08 -128.25 125.53 C-128.26 123.04 -128.27 120.55 -128.28 118.07 C-128.37 104.78 -128.24 92.19 -124.97 79.26 C-124.68 78.11 -124.39 76.97 -124.09 75.79 C-119.4 58.27 -109.09 41.72 -95.97 29.26 C-95.31 29.26 -94.65 29.26 -93.97 29.26 C-93.97 28.6 -93.97 27.94 -93.97 27.26 C-90.5 24.26 -90.5 24.26 -87.97 24.26 C-87.97 23.6 -87.97 22.94 -87.97 22.26 C-83.53 18.82 -78.91 15.9 -73.97 13.26 C-72.71 12.57 -72.71 12.57 -71.42 11.86 C-48.64 -0.21 -25.23 -0.05 0 0 Z M-262.97 1218.26 C-262.97 1218.92 -262.97 1219.58 -262.97 1220.26 C-246.8 1220.26 -230.63 1220.26 -213.97 1220.26 C-213.97 1219.93 -213.97 1219.6 -213.97 1219.26 C-238.22 1218.77 -238.22 1218.77 -262.97 1218.26 Z " fill="#000002" transform="translate(464.96610891819,19.738550662994385)"/>
<path d="M0 0 C1.16 -0.01 2.33 -0.02 3.52 -0.04 C7.32 -0.07 11.12 -0.08 14.91 -0.09 C16.9 -0.1 18.88 -0.11 20.87 -0.12 C27.09 -0.14 33.31 -0.16 39.52 -0.16 C45.93 -0.16 52.32 -0.2 58.73 -0.26 C64.24 -0.31 69.76 -0.33 75.28 -0.33 C78.57 -0.33 81.86 -0.34 85.14 -0.38 C88.8 -0.42 92.46 -0.41 96.11 -0.39 C97.19 -0.41 98.27 -0.43 99.39 -0.45 C106.57 -0.35 106.57 -0.35 109.58 1.98 C111.1 3.74 112.37 5.49 113.6 7.45 C114.2 8.22 114.8 8.99 115.41 9.78 C115.9 10.46 116.39 11.14 116.9 11.83 C117.46 12.6 118.02 13.37 118.6 14.16 C119.18 14.96 119.76 15.76 120.35 16.58 C125.25 23.27 130.21 29.9 135.29 36.45 C138.44 40.53 141.52 44.66 144.6 48.8 C145.26 49.67 145.92 50.55 146.6 51.45 C147.5 52.73 147.5 52.73 148.42 54.03 C151.11 57.01 154.13 58.81 157.6 60.7 C158.22 61.05 158.84 61.4 159.47 61.76 C166.92 65.92 174.03 66.6 182.42 64.87 C195.1 60.91 201.83 51.27 208.6 40.45 C210.27 38.01 211.96 35.6 213.67 33.19 C215.19 31.04 216.68 28.88 218.16 26.72 C219.06 25.42 219.96 24.12 220.85 22.83 C221.28 22.2 221.7 21.57 222.14 20.92 C223.22 19.38 224.41 17.91 225.6 16.45 C226.59 16.45 227.58 16.45 228.6 16.45 C229.87 17.85 229.87 17.85 231.14 19.83 C231.61 20.56 232.09 21.29 232.58 22.04 C233.08 22.84 233.58 23.63 234.1 24.45 C235.18 26.1 236.25 27.76 237.33 29.41 C238.15 30.67 238.15 30.67 238.98 31.96 C241.43 35.72 243.94 39.43 246.48 43.14 C246.91 43.77 247.33 44.41 247.77 45.06 C254.54 54.95 262.33 62.95 274.6 65.45 C283.84 66.31 291.3 65.22 298.94 59.79 C303.93 55.64 307.69 50.93 311.39 45.62 C313.96 41.94 316.65 38.35 319.35 34.76 C320.39 33.39 321.42 32.02 322.45 30.65 C322.97 29.96 323.49 29.27 324.02 28.56 C325.61 26.45 327.18 24.34 328.76 22.22 C329.28 21.53 329.8 20.83 330.33 20.12 C331.3 18.81 332.27 17.51 333.24 16.21 C334.15 15 335.07 13.8 336.01 12.62 C337.67 10.46 337.67 10.46 338.98 7.92 C341.17 4.35 343.27 1.17 347.45 -0.12 C353.12 -1.02 358.85 -0.77 364.56 -0.63 C366.44 -0.62 368.31 -0.61 370.19 -0.61 C374.11 -0.59 378.04 -0.54 381.96 -0.47 C386.94 -0.37 391.92 -0.33 396.9 -0.31 C401.71 -0.29 406.51 -0.24 411.31 -0.19 C412.21 -0.19 413.1 -0.18 414.02 -0.17 C429.37 -0.02 444.25 1.66 459.1 5.7 C459.88 5.91 460.65 6.12 461.44 6.33 C473.9 9.81 485.76 14.33 496.6 21.45 C498.31 22.38 498.31 22.38 500.04 23.33 C508.13 27.94 515.25 33.86 522.06 40.16 C524.71 42.55 527.45 44.78 530.23 47.01 C534.32 50.32 538.06 53.8 541.72 57.56 C544.15 60 546.73 62.23 549.34 64.47 C552.14 66.92 554.87 69.43 557.6 71.95 C561.54 75.57 565.51 79.14 569.55 82.64 C572.09 84.88 574.6 87.17 577.1 89.45 C580.9 92.91 584.72 96.32 588.6 99.69 C594.9 105.22 601.08 110.88 607.23 116.58 C611.29 120.34 615.39 124.05 619.58 127.68 C622.12 129.9 624.61 132.18 627.1 134.45 C632.36 139.24 637.7 143.92 643.06 148.59 C643.88 149.31 644.7 150.02 645.54 150.76 C646.29 151.42 647.04 152.08 647.82 152.75 C649.6 154.45 649.6 154.45 650.6 156.45 C650.2 164.8 647.77 172.58 645.45 180.55 C645.02 182.04 644.6 183.52 644.17 185 C643.05 188.91 641.92 192.81 640.79 196.71 C639.67 200.57 638.56 204.43 637.46 208.28 C636.14 212.85 634.83 217.41 633.5 221.96 C631.53 228.75 629.57 235.53 627.7 242.34 C626.9 245.26 626.09 248.18 625.27 251.09 C624.89 252.46 624.52 253.84 624.15 255.21 C623.65 257.09 623.12 258.97 622.59 260.85 C622.3 261.91 622.02 262.98 621.72 264.07 C620.6 266.45 620.6 266.45 618.6 267.36 C615.83 267.49 614.75 266.54 612.54 264.89 C609.18 262.5 605.82 260.43 602.17 258.51 C598.45 256.54 595.02 254.41 591.6 251.95 C587.4 248.93 583.08 246.46 578.51 244.04 C571.93 240.45 565.64 236.34 559.28 232.37 C553.42 228.74 547.55 225.25 541.43 222.07 C538.99 220.67 536.7 219.19 534.38 217.62 C528.93 213.95 523.25 210.74 517.53 207.51 C512.67 204.73 508.14 201.75 503.6 198.45 C502.06 197.5 500.5 196.58 498.92 195.7 C498.19 195.29 497.46 194.89 496.72 194.47 C491.01 191.72 484.47 191.52 478.35 192.99 C473.31 195.03 470.9 198.13 468.63 202.96 C466.21 211.2 466.91 220.09 466.94 228.61 C466.94 230.87 466.93 233.12 466.91 235.38 C466.88 241.49 466.89 247.6 466.89 253.71 C466.9 260.1 466.87 266.49 466.85 272.88 C466.82 283.6 466.8 294.32 466.8 305.05 C466.8 316.08 466.78 327.12 466.76 338.16 C466.75 338.84 466.75 339.52 466.75 340.23 C466.74 343.65 466.73 347.06 466.73 350.48 C466.65 378.81 466.62 407.13 466.6 435.45 C462.06 435.48 457.53 435.49 452.99 435.51 C451.44 435.51 449.9 435.52 448.35 435.53 C446.13 435.54 443.92 435.54 441.7 435.55 C440.66 435.56 440.66 435.56 439.6 435.56 C437.93 435.57 436.27 435.51 434.6 435.45 C433.6 434.45 433.6 434.45 433.49 432.38 C433.49 431.47 433.49 430.56 433.49 429.62 C433.49 428.07 433.49 428.07 433.49 426.49 C433.49 425.36 433.5 424.23 433.5 423.07 C433.48 420.68 433.47 418.29 433.45 415.9 C433.43 412.13 433.42 408.37 433.43 404.6 C433.47 386.41 433.17 370.19 419.6 356.45 C418.59 355.87 417.57 355.28 416.53 354.68 C414.24 352.76 413.66 351.71 413.06 348.74 C412.86 345.12 412.85 341.54 412.91 337.92 C412.91 336.53 412.91 335.13 412.9 333.74 C412.9 330.74 412.91 327.74 412.94 324.74 C412.98 319.99 412.98 315.23 412.97 310.48 C412.96 301.22 412.99 291.97 413.03 282.71 C413.08 270.97 413.12 259.23 413.1 247.49 C413.1 243.55 413.1 239.6 413.13 235.66 C413.68 213.02 413.68 213.02 407.6 191.45 C407.25 190.66 406.89 189.86 406.52 189.04 C398.52 172.98 385.5 160.32 368.42 154.33 C354.83 150.09 341.58 150.02 327.47 150.06 C325.17 150.06 322.87 150.05 320.57 150.05 C314.35 150.03 308.14 150.04 301.92 150.05 C295.39 150.06 288.87 150.05 282.34 150.04 C270.68 150.04 259.02 150.05 247.36 150.06 C236.82 150.08 226.28 150.07 215.74 150.06 C203.46 150.04 191.18 150.04 178.9 150.05 C172.41 150.05 165.92 150.05 159.44 150.04 C153.34 150.03 147.24 150.04 141.14 150.06 C138.91 150.06 136.68 150.06 134.45 150.05 C118.15 150.01 103.87 151.2 88.6 157.45 C86.25 155.09 86.4 154.64 86.29 151.45 C85.76 145.78 83.8 141.15 80.6 136.45 C76.31 132.97 71.71 132.94 66.36 133.1 C60.53 133.84 56.85 135.91 53.17 140.45 C51.18 144.26 50.48 147.31 50.45 151.58 C50.44 152.39 50.43 153.2 50.42 154.04 C50.41 154.92 50.4 155.81 50.4 156.72 C50.39 157.66 50.38 158.59 50.37 159.56 C50.34 162.65 50.31 165.75 50.29 168.84 C50.27 170.99 50.25 173.14 50.22 175.28 C50.17 180.93 50.12 186.58 50.07 192.23 C50.02 197.99 49.97 203.76 49.91 209.52 C49.8 220.83 49.7 232.14 49.6 243.45 C33.71 243.47 17.82 243.49 1.94 243.5 C-5.44 243.51 -12.82 243.52 -20.2 243.53 C-26.62 243.54 -33.05 243.54 -39.48 243.55 C-42.89 243.55 -46.29 243.55 -49.7 243.56 C-53.49 243.56 -57.29 243.57 -61.08 243.57 C-62.22 243.57 -63.36 243.57 -64.53 243.58 C-65.56 243.57 -66.59 243.57 -67.64 243.57 C-68.54 243.57 -69.44 243.57 -70.37 243.57 C-72.4 243.45 -72.4 243.45 -73.4 242.45 C-74.75 234.81 -74.54 227.11 -74.54 219.37 C-74.54 217.85 -74.55 216.33 -74.55 214.8 C-74.56 210.68 -74.56 206.55 -74.56 202.43 C-74.56 199.84 -74.57 197.25 -74.57 194.67 C-74.58 185.61 -74.58 176.55 -74.58 167.5 C-74.58 159.11 -74.59 150.72 -74.61 142.33 C-74.62 135.09 -74.63 127.85 -74.63 120.61 C-74.62 116.3 -74.63 112 -74.64 107.69 C-74.79 42.05 -74.79 42.05 -53.45 20.31 C-38.81 6.16 -20.11 0 0 0 Z " fill="#0091F9" transform="translate(358.396240234375,639.54833984375)"/>
<path d="M0 0 C1.01 -0.01 1.01 -0.01 2.05 -0.01 C4.3 -0.02 6.56 -0.02 8.82 -0.01 C10.46 -0.02 12.09 -0.02 13.73 -0.03 C18.22 -0.04 22.72 -0.05 27.21 -0.05 C32.06 -0.05 36.91 -0.06 41.75 -0.07 C52.35 -0.09 62.94 -0.1 73.54 -0.11 C80.15 -0.11 86.76 -0.12 93.37 -0.12 C111.68 -0.14 129.98 -0.16 148.28 -0.16 C149.45 -0.16 150.62 -0.16 151.83 -0.16 C154.2 -0.16 156.57 -0.16 158.95 -0.16 C160.71 -0.17 160.71 -0.17 162.52 -0.17 C164.28 -0.17 164.28 -0.17 166.09 -0.17 C185.23 -0.17 204.37 -0.2 223.5 -0.23 C243.15 -0.27 262.79 -0.29 282.43 -0.29 C293.46 -0.29 304.49 -0.3 315.52 -0.33 C324.91 -0.35 334.3 -0.36 343.68 -0.35 C348.47 -0.34 353.27 -0.34 358.06 -0.36 C362.44 -0.38 366.82 -0.38 371.2 -0.36 C372.79 -0.36 374.38 -0.36 375.97 -0.38 C378.13 -0.39 380.28 -0.38 382.43 -0.36 C383.63 -0.36 384.82 -0.36 386.06 -0.36 C388.96 0.26 388.96 0.26 390.81 2.64 C391.98 5.3 392.89 7.91 393.71 10.7 C397.66 22.81 403.4 32.85 411.96 42.26 C412.51 42.89 413.07 43.53 413.63 44.18 C426.8 58.42 449.63 70.16 468.99 71.46 C470.12 71.5 471.25 71.53 472.41 71.57 C474.34 71.63 474.34 71.63 476.31 71.7 C477.72 71.74 479.13 71.78 480.54 71.81 C481.63 71.85 481.63 71.85 482.74 71.88 C499.27 72.35 515.81 72.41 532.35 72.39 C536.47 72.39 540.58 72.39 544.7 72.4 C551.6 72.4 558.5 72.4 565.39 72.39 C573.29 72.38 581.18 72.39 589.07 72.39 C595.95 72.4 602.82 72.4 609.7 72.39 C613.76 72.39 617.82 72.39 621.89 72.4 C636.8 72.41 651.71 72.38 666.62 71.86 C667.65 71.83 668.69 71.8 669.76 71.76 C677.94 71.43 685.23 70.07 692.96 67.26 C693.98 66.91 694.99 66.56 696.04 66.2 C716.86 58.33 735.29 42.03 744.78 21.82 C746.96 16.97 748.79 12.02 750.57 7 C750.8 6.35 751.03 5.7 751.27 5.03 C751.83 3.44 752.4 1.85 752.96 0.26 C803.51 0.19 854.06 0.14 904.61 0.11 C910.58 0.1 916.55 0.1 922.51 0.1 C923.7 0.09 924.89 0.09 926.11 0.09 C945.35 0.08 964.59 0.06 983.83 0.03 C1003.56 0 1023.3 -0.02 1043.04 -0.02 C1055.22 -0.03 1067.4 -0.04 1079.58 -0.06 C1087.93 -0.08 1096.29 -0.08 1104.64 -0.08 C1109.46 -0.08 1114.28 -0.08 1119.09 -0.1 C1123.51 -0.11 1127.92 -0.11 1132.34 -0.1 C1133.93 -0.1 1135.53 -0.11 1137.12 -0.11 C1146.45 -0.17 1154.7 -0.16 1162.79 5.1 C1165.22 7.52 1166.93 9.96 1168.71 12.89 C1169.6 14.33 1169.6 14.33 1170.51 15.8 C1172.85 19.76 1173.1 21.96 1173.14 26.6 C1173.15 27.25 1173.15 27.9 1173.16 28.57 C1173.18 30.73 1173.19 32.89 1173.2 35.05 C1173.2 35.79 1173.21 36.53 1173.21 37.29 C1173.23 41.2 1173.25 45.11 1173.26 49.02 C1173.27 53.05 1173.3 57.08 1173.34 61.11 C1173.37 64.22 1173.38 67.32 1173.38 70.43 C1173.39 71.91 1173.4 73.4 1173.42 74.88 C1173.53 84.19 1173.14 90.87 1167.25 98.47 C1160.53 104.95 1154.67 107.38 1145.37 107.39 C1144.71 107.39 1144.04 107.39 1143.35 107.39 C1141.11 107.4 1138.87 107.39 1136.62 107.39 C1135 107.39 1133.37 107.39 1131.75 107.4 C1127.25 107.4 1122.76 107.4 1118.26 107.4 C1113.38 107.4 1108.5 107.4 1103.62 107.41 C1095.06 107.41 1086.49 107.42 1077.93 107.42 C1065.2 107.42 1052.47 107.42 1039.73 107.43 C1019.63 107.44 999.53 107.45 979.42 107.46 C948.19 107.47 916.95 107.49 885.72 107.51 C873.46 107.52 861.21 107.53 848.95 107.53 C846.89 107.53 844.82 107.54 842.76 107.54 C811.01 107.56 779.26 107.58 747.51 107.6 C745.36 107.6 743.21 107.6 741.06 107.6 C707.9 107.62 674.75 107.64 641.59 107.65 C640.52 107.65 640.52 107.65 639.43 107.65 C631.52 107.65 623.61 107.66 615.7 107.66 C614.63 107.66 614.63 107.66 613.54 107.66 C609.96 107.66 606.37 107.66 602.78 107.66 C570.38 107.67 537.98 107.69 505.58 107.71 C504.9 107.71 504.22 107.71 503.52 107.71 C489.25 107.72 474.97 107.73 460.7 107.75 C454.01 107.75 447.33 107.76 440.64 107.76 C438.67 107.76 438.67 107.76 436.66 107.77 C415.45 107.78 394.25 107.79 373.05 107.79 C351.75 107.79 330.46 107.8 309.16 107.83 C296.5 107.84 283.83 107.84 271.17 107.84 C262.72 107.83 254.27 107.84 245.82 107.86 C241 107.86 236.18 107.87 231.36 107.86 C226.98 107.85 222.59 107.86 218.21 107.87 C216.63 107.88 215.06 107.87 213.48 107.87 C200.59 107.76 200.59 107.76 189.21 113.32 C187.1 116.08 186.06 118.24 184.82 121.44 C184.47 122.35 184.12 123.25 183.76 124.18 C183.5 124.86 183.23 125.55 182.96 126.26 C176.16 126.29 169.36 126.3 162.56 126.31 C160.25 126.32 157.94 126.33 155.62 126.34 C152.3 126.35 148.98 126.35 145.66 126.36 C144.1 126.37 144.1 126.37 142.51 126.37 C141.55 126.37 140.59 126.37 139.6 126.37 C138.75 126.38 137.9 126.38 137.03 126.38 C134.96 126.26 134.96 126.26 132.96 125.26 C131.96 123.37 131.96 123.37 130.96 121.01 C130.61 120.2 130.25 119.39 129.88 118.55 C128.96 116.26 128.96 116.26 128.28 113.39 C126.36 110.29 124.08 109.93 120.69 108.88 C115.65 107.74 110.62 107.87 105.47 107.92 C104.25 107.92 103.03 107.92 101.77 107.92 C99.13 107.92 96.5 107.93 93.86 107.94 C89.67 107.96 85.49 107.96 81.31 107.95 C69.42 107.93 57.52 107.94 45.63 107.98 C39.05 108 32.47 108 25.89 107.97 C21.75 107.96 17.6 107.97 13.45 108 C10.25 108.02 7.04 108 3.84 107.99 C2.14 108.01 2.14 108.01 0.42 108.04 C-9.98 107.92 -18.23 104.31 -25.66 97.01 C-32.27 89.81 -31.34 78.5 -31.3 69.35 C-31.3 68.14 -31.31 66.93 -31.31 65.69 C-31.31 63.15 -31.31 60.61 -31.3 58.07 C-31.29 54.21 -31.3 50.34 -31.31 46.47 C-31.31 43.99 -31.31 41.51 -31.3 39.04 C-31.31 37.32 -31.31 37.32 -31.32 35.56 C-31.25 25.03 -30.21 16.38 -23.04 8.26 C-16.12 2.37 -9.11 0.01 0 0 Z " fill="#7D9095" transform="translate(68.03743362426758,1112.7399377822876)"/>
<path d="M0 0 C3.47 0.44 5.03 1.71 7.36 4.25 C7.97 4.91 8.59 5.58 9.23 6.27 C9.87 6.98 10.52 7.7 11.19 8.44 C11.86 9.17 12.53 9.89 13.22 10.65 C15.15 12.76 17.08 14.88 19 17 C20.32 18.45 20.32 18.45 21.67 19.93 C23.79 22.28 25.9 24.64 28 27 C29.46 28.63 30.92 30.25 32.38 31.88 C33.11 32.69 33.84 33.5 34.59 34.34 C36.36 36.3 38.15 38.25 39.94 40.19 C40.69 41 40.69 41 41.45 41.83 C42.42 42.88 43.4 43.93 44.37 44.98 C48.78 49.75 50.25 52.22 50.27 58.76 C50.27 59.45 50.28 60.15 50.28 60.86 C50.29 63.18 50.29 65.5 50.29 67.83 C50.3 69.49 50.3 71.16 50.31 72.82 C50.33 77.35 50.33 81.88 50.33 86.41 C50.34 89.25 50.34 92.08 50.35 94.92 C50.36 104.84 50.37 114.75 50.37 124.67 C50.37 133.87 50.39 143.08 50.42 152.29 C50.45 160.21 50.46 168.14 50.46 176.06 C50.46 180.78 50.46 185.51 50.48 190.23 C50.5 194.69 50.5 199.15 50.49 203.6 C50.49 205.23 50.49 206.85 50.5 208.47 C50.65 229.04 46.29 250.48 35 268 C34.49 268.8 33.98 269.59 33.45 270.41 C19.93 290.52 1.54 304.47 -22.33 309.58 C-29.26 310.67 -36.35 310.74 -43.34 311.04 C-50.39 311.42 -57.04 311.86 -63 316 C-67.44 321.43 -68.08 326.78 -67.79 333.53 C-67.05 359.74 -67.05 359.74 -71.91 365.6 C-74.94 368.26 -78.33 370.14 -81.94 371.91 C-85.34 373.71 -88.17 376.17 -91.12 378.62 C-92.27 379.52 -93.41 380.42 -94.56 381.31 C-96.93 383.16 -99.28 385.03 -101.62 386.91 C-102.79 387.84 -103.96 388.76 -105.12 389.69 C-105.66 390.12 -106.19 390.56 -106.74 391 C-109.88 393.47 -110.83 394 -115 394 C-117.11 392.61 -118.99 391.21 -120.94 389.62 C-122.11 388.7 -123.28 387.77 -124.45 386.84 C-125.04 386.36 -125.64 385.89 -126.25 385.4 C-128.89 383.29 -131.57 381.24 -134.25 379.19 C-134.77 378.77 -135.28 378.35 -135.82 377.91 C-138.93 375.41 -141.99 373.44 -145.56 371.64 C-150.67 368.83 -155.07 366.19 -158 361 C-159.64 353.33 -159.39 345.63 -159.07 337.83 C-159.04 337.14 -159.02 336.45 -158.99 335.74 C-158.96 335.06 -158.93 334.38 -158.9 333.69 C-158.74 326.22 -160.83 320.66 -165.5 314.94 C-169.58 311.78 -173.35 311.84 -178.43 311.61 C-202.07 310.37 -223.62 307.31 -242 291 C-243.25 289.93 -243.25 289.93 -244.52 288.84 C-255.61 279.15 -263.55 268.75 -269 255 C-269.41 253.96 -269.82 252.92 -270.25 251.85 C-276.7 234.77 -278.16 217.99 -278.11 199.89 C-278.11 198.4 -278.11 196.91 -278.11 195.42 C-278.11 191.41 -278.11 187.4 -278.1 183.39 C-278.1 179.19 -278.09 174.99 -278.09 170.79 C-278.09 162.84 -278.08 154.9 -278.07 146.96 C-278.06 137.91 -278.06 128.86 -278.05 119.81 C-278.04 101.2 -278.02 82.6 -278 64 C-273.02 63.25 -268.16 62.83 -263.13 62.75 C-261.59 62.72 -260.04 62.69 -258.5 62.66 C-257.29 62.64 -257.29 62.64 -256.06 62.61 C-186.39 61.23 -99.6 57.08 -38 20 C-36.07 19.28 -34.13 18.56 -32.19 17.86 C-28.18 16.28 -24.42 14.22 -20.62 12.19 C-19.79 11.75 -18.96 11.3 -18.11 10.85 C-8.48 6.23 -8.48 6.23 0 0 Z " fill="#FBE4C1" transform="translate(699,202)"/>
<path d="M0 0 C0.91 -0.01 1.82 -0.02 2.76 -0.03 C3.76 -0.03 4.76 -0.04 5.79 -0.04 C7.38 -0.05 7.38 -0.05 9.01 -0.07 C12.58 -0.09 16.16 -0.11 19.74 -0.13 C22.29 -0.15 24.85 -0.17 27.41 -0.19 C50.76 -0.35 74.1 -0.43 97.45 -0.5 C100.57 -0.51 103.7 -0.52 106.82 -0.53 C107.99 -0.53 107.99 -0.53 109.18 -0.53 C121.75 -0.57 134.32 -0.65 146.9 -0.75 C159.81 -0.85 172.72 -0.9 185.64 -0.92 C192.89 -0.93 200.13 -0.96 207.38 -1.04 C214.21 -1.11 221.02 -1.13 227.85 -1.11 C230.35 -1.11 232.85 -1.13 235.35 -1.17 C255.29 -1.48 255.29 -1.48 260 2.58 C262.28 5.34 263.92 8 265.58 11.15 C283.81 31.11 312.48 43.61 338.94 46.7 C341.52 47.14 343.33 47.85 345.58 49.15 C346.47 55.24 347.07 60.78 343.69 66.16 C341.34 68.69 338.92 71.08 336.39 73.43 C332.88 76.77 329.63 80.36 326.33 83.9 C325.34 84.95 325.34 84.95 324.33 86.02 C323.68 86.7 323.04 87.38 322.38 88.08 C321.81 88.67 321.25 89.26 320.67 89.88 C318.61 92.02 318.61 92.02 317.24 94.09 C314.88 97.28 313 99.73 309.12 100.89 C306.15 101.16 303.27 101.17 300.29 101.11 C298.61 101.12 298.61 101.12 296.9 101.12 C293.2 101.14 289.51 101.09 285.82 101.05 C283.24 101.05 280.65 101.05 278.07 101.06 C271.95 101.07 265.83 101.05 259.71 101.01 C248.16 100.93 236.61 100.92 225.06 100.93 C221.29 100.92 217.53 100.9 213.77 100.87 C178.27 100.7 146.91 107.76 120.58 133.15 C94.67 160.05 90.09 193.6 90.19 229.26 C90.19 232.86 90.18 236.46 90.18 240.07 C90.16 247.1 90.17 254.13 90.17 261.16 C90.18 266.88 90.18 272.61 90.18 278.33 C90.18 279.56 90.18 279.56 90.18 280.81 C90.18 282.47 90.18 284.14 90.17 285.8 C90.17 301.35 90.18 316.91 90.19 332.46 C90.2 345.76 90.2 359.07 90.19 372.37 C90.17 387.87 90.17 403.37 90.18 418.87 C90.18 420.53 90.18 422.19 90.18 423.85 C90.18 424.66 90.18 425.48 90.18 426.32 C90.18 432.02 90.18 437.73 90.17 443.43 C90.16 450.4 90.16 457.37 90.18 464.33 C90.19 467.88 90.19 471.42 90.18 474.97 C90.14 494 90.32 513.04 96.89 531.15 C97.2 532.03 97.51 532.9 97.82 533.81 C103.05 548.37 110.88 560.2 120.58 572.15 C120.25 572.81 119.92 573.47 119.58 574.15 C52.75 573.66 52.75 573.66 -15.42 573.15 C-17.11 569.77 -16.56 565.92 -16.55 562.2 C-16.56 561.26 -16.56 560.31 -16.56 559.34 C-16.57 556.14 -16.57 552.94 -16.57 549.75 C-16.57 547.44 -16.57 545.14 -16.58 542.84 C-16.59 536.49 -16.59 530.13 -16.59 523.78 C-16.6 517.64 -16.61 511.5 -16.61 505.36 C-16.64 488.9 -16.65 472.45 -16.65 455.99 C-16.66 448.21 -16.66 440.43 -16.67 432.64 C-16.69 406.01 -16.7 379.38 -16.71 352.75 C-16.71 351.08 -16.71 349.41 -16.71 347.73 C-16.71 346.9 -16.71 346.07 -16.71 345.22 C-16.71 341.02 -16.71 336.81 -16.72 332.61 C-16.72 331.78 -16.72 330.94 -16.72 330.08 C-16.72 303.04 -16.75 276 -16.78 248.95 C-16.81 220.37 -16.83 191.79 -16.84 163.21 C-16.84 160.08 -16.84 156.94 -16.84 153.8 C-16.84 153.03 -16.84 152.26 -16.84 151.46 C-16.84 139.03 -16.86 126.59 -16.88 114.15 C-16.9 101.65 -16.9 89.15 -16.89 76.65 C-16.89 69.88 -16.89 63.11 -16.91 56.33 C-16.93 50.14 -16.93 43.94 -16.91 37.74 C-16.91 35.49 -16.91 33.25 -16.93 31 C-16.94 27.96 -16.93 24.91 -16.92 21.86 C-16.93 20.99 -16.94 20.11 -16.95 19.21 C-16.88 13.45 -15.74 8.94 -12.42 4.15 C-8.48 1.17 -4.9 0.03 0 0 Z " fill="#95E4F9" transform="translate(157.4201374053955,501.8462257385254)"/>
<path d="M0 0 C1.7 -0 3.41 -0.01 5.11 -0.01 C9.72 -0.02 14.32 -0.02 18.92 -0.01 C23.75 -0 28.59 -0.01 33.42 -0.01 C41.54 -0.02 49.66 -0.01 57.78 -0 C67.14 0.01 76.49 0.01 85.85 -0.01 C93.91 -0.01 101.98 -0.02 110.04 -0.01 C114.84 -0.01 119.64 -0.01 124.45 -0.01 C128.96 -0.02 133.48 -0.02 138 -0 C139.65 -0 141.3 -0 142.95 -0.01 C166.9 -0.07 166.9 -0.07 177.71 4.88 C178.7 5.33 179.7 5.78 180.73 6.24 C181.44 6.57 182.16 6.91 182.89 7.26 C182.89 7.92 182.89 8.58 182.89 9.26 C183.45 9.34 184.01 9.42 184.59 9.5 C193.95 12.58 202.33 24.47 206.8 32.94 C211.2 42.25 212.05 51.5 212.03 61.68 C212.03 62.48 212.03 63.28 212.03 64.1 C212.04 66.75 212.04 69.39 212.04 72.04 C212.04 73.95 212.04 75.85 212.05 77.76 C212.06 82.92 212.06 88.09 212.06 93.25 C212.06 96.48 212.06 99.71 212.07 102.94 C212.08 114.21 212.08 125.48 212.08 136.76 C212.08 147.25 212.09 157.75 212.1 168.24 C212.12 177.27 212.12 186.29 212.12 195.32 C212.12 200.7 212.12 206.08 212.14 211.47 C212.14 216.53 212.14 221.59 212.14 226.66 C212.14 228.51 212.14 230.36 212.14 232.22 C212.15 234.76 212.15 237.3 212.14 239.83 C212.15 240.56 212.15 241.29 212.16 242.04 C212.09 252.59 209.32 260.58 201.97 268.27 C194.44 275.23 187.02 277.23 176.89 277.26 C168 276.66 161.91 272.79 155.33 267.01 C153.89 265.26 153.89 265.26 153.89 263.26 C153.23 263.26 152.57 263.26 151.89 263.26 C150.1 261.17 148.42 259.08 146.77 256.88 C146.3 256.28 145.83 255.68 145.35 255.06 C141.89 250.52 141.89 250.52 141.89 248.26 C141.23 248.26 140.57 248.26 139.89 248.26 C138.39 246.8 138.39 246.8 136.77 244.88 C136.23 244.26 135.69 243.63 135.14 242.99 C133.89 241.26 133.89 241.26 133.89 239.26 C133.14 239.26 132.38 239.26 131.6 239.26 C113.13 239.28 94.65 239.3 76.18 239.31 C67.25 239.32 58.32 239.32 49.38 239.33 C41.59 239.34 33.8 239.35 26.01 239.35 C21.89 239.35 17.77 239.36 13.65 239.36 C9.76 239.37 5.88 239.37 1.99 239.37 C0.57 239.37 -0.85 239.37 -2.27 239.38 C-18.22 239.42 -32.34 238.99 -45.11 228.26 C-45.11 227.6 -45.11 226.94 -45.11 226.26 C-46.1 225.93 -47.09 225.6 -48.11 225.26 C-48.11 224.6 -48.11 223.94 -48.11 223.26 C-48.77 223.26 -49.43 223.26 -50.11 223.26 C-51.47 221.61 -51.47 221.61 -52.98 219.32 C-53.72 218.22 -53.72 218.22 -54.47 217.11 C-55.01 216.17 -55.55 215.23 -56.11 214.26 C-56.61 213.43 -56.61 213.43 -57.12 212.59 C-61.14 205.03 -60.67 197.11 -60.62 188.79 C-60.63 187.13 -60.64 185.47 -60.65 183.81 C-60.66 179.32 -60.66 174.84 -60.64 170.35 C-60.63 165.64 -60.64 160.93 -60.65 156.22 C-60.66 148.31 -60.65 140.4 -60.63 132.5 C-60.61 123.37 -60.61 114.25 -60.64 105.12 C-60.65 97.27 -60.66 89.42 -60.65 81.57 C-60.64 76.89 -60.64 72.21 -60.65 67.52 C-60.66 63.12 -60.66 58.72 -60.63 54.31 C-60.63 52.7 -60.63 51.09 -60.64 49.48 C-60.68 40.7 -60.31 33.16 -56.11 25.26 C-55.57 24.23 -55.03 23.2 -54.48 22.13 C-54.03 21.52 -53.57 20.9 -53.11 20.26 C-52.45 20.26 -51.79 20.26 -51.11 20.26 C-50.86 19.68 -50.61 19.1 -50.36 18.51 C-48.92 15.93 -47.32 14.2 -45.11 12.26 C-44.45 12.26 -43.79 12.26 -43.11 12.26 C-43.11 11.6 -43.11 10.94 -43.11 10.26 C-41.1 8.82 -41.1 8.82 -38.42 7.26 C-37.55 6.74 -36.68 6.23 -35.78 5.7 C-24.55 -0.34 -12.41 -0.03 0 0 Z " fill="#000002" transform="translate(60.10693359375,19.7412109375)"/>
<path d="M0 0 C1.26 -0 2.52 -0.01 3.81 -0.01 C7.26 -0.02 10.71 -0.01 14.17 -0 C17.9 0.01 21.64 -0 25.38 -0.01 C32.68 -0.02 39.99 -0.01 47.3 0 C55.81 0.01 64.33 0.01 72.85 0.01 C88.05 0.01 103.25 0.02 118.45 0.04 C133.18 0.06 147.91 0.06 162.64 0.06 C178.71 0.05 194.78 0.05 210.84 0.06 C212.56 0.07 214.27 0.07 215.99 0.07 C216.83 0.07 217.67 0.07 218.54 0.07 C224.47 0.07 230.4 0.07 236.33 0.07 C243.56 0.07 250.79 0.07 258.02 0.09 C261.71 0.1 265.39 0.1 269.08 0.1 C273.08 0.09 277.08 0.1 281.08 0.11 C282.24 0.11 283.39 0.11 284.58 0.1 C299.28 0.18 313.54 3.54 324.85 13.37 C325.85 14.18 325.85 14.18 326.86 15 C340.1 25.93 347.83 41.39 349.85 58.37 C350.38 66.91 350.2 75.48 350.14 84.02 C350.14 86.49 350.13 88.96 350.13 91.43 C350.12 97.88 350.09 104.34 350.06 110.79 C350.02 117.39 350.01 124 350 130.6 C349.96 143.53 349.91 156.45 349.85 169.37 C346.95 169.48 344.06 169.56 341.16 169.62 C340.34 169.66 339.53 169.69 338.69 169.73 C334.54 169.79 332.44 169.75 328.87 167.46 C327.12 165.65 325.4 163.87 323.79 161.94 C320.59 158.19 317.27 154.59 313.91 151 C309.54 146.31 305.46 141.49 301.51 136.45 C299.46 133.89 297.23 131.63 294.85 129.37 C289.09 123.77 283.83 117.83 278.58 111.75 C277.8 110.86 277.03 109.98 276.22 109.06 C275.51 108.24 274.8 107.42 274.06 106.57 C269.64 102.17 265.62 100.67 259.51 100.26 C251.46 100.6 244.96 105.44 238.44 109.74 C190.48 141.38 134.61 156.23 78.22 163.69 C76.29 163.94 76.29 163.94 74.33 164.21 C68.05 165 61.96 165.55 55.63 165.34 C53.82 165.17 53.82 165.17 52.85 166.37 C51 166.59 49.14 166.75 47.29 166.87 C46.09 166.96 44.9 167.04 43.67 167.12 C42.41 167.21 41.15 167.29 39.85 167.37 C38.68 167.46 37.51 167.54 36.31 167.62 C32.16 167.9 28 168.15 23.85 168.37 C23 168.42 22.15 168.47 21.27 168.51 C2.71 169.48 -15.82 169.5 -34.39 169.44 C-38.33 169.43 -42.26 169.43 -46.2 169.42 C-53.85 169.41 -61.5 169.4 -69.15 169.37 C-70.77 166.13 -70.29 162.58 -70.28 159.02 C-70.28 158.15 -70.28 157.29 -70.29 156.4 C-70.29 153.52 -70.29 150.64 -70.28 147.76 C-70.28 145.75 -70.29 143.73 -70.29 141.72 C-70.29 137.49 -70.29 133.25 -70.28 129.02 C-70.28 123.64 -70.28 118.27 -70.28 112.9 C-70.29 108.73 -70.29 104.56 -70.28 100.39 C-70.28 98.42 -70.28 96.44 -70.29 94.47 C-70.3 84.47 -70.2 74.48 -69.74 64.49 C-69.71 63.69 -69.68 62.89 -69.64 62.06 C-68.67 43.18 -60.5 27.97 -46.81 15.19 C-33.38 3.68 -17.34 -0.11 0 0 Z " fill="#D38853" transform="translate(445.1509246826172,58.62577819824219)"/>
<path d="M0 0 C0.95 -0.01 1.9 -0.02 2.88 -0.03 C3.92 -0.03 4.95 -0.04 6.02 -0.04 C7.61 -0.05 7.61 -0.05 9.22 -0.06 C11.46 -0.07 13.71 -0.08 15.95 -0.08 C19.38 -0.09 22.82 -0.12 26.25 -0.15 C28.42 -0.16 30.6 -0.16 32.77 -0.17 C33.8 -0.18 34.83 -0.19 35.9 -0.2 C36.85 -0.2 37.81 -0.2 38.8 -0.2 C39.64 -0.2 40.48 -0.2 41.35 -0.21 C44.02 0.25 44.89 1.04 46.53 3.16 C47.16 5.21 47.16 5.21 47.65 7.47 C49.19 12.58 52 14.42 56.47 17.07 C59.47 18.66 61.18 19.29 64.57 19.3 C65.84 19.31 65.84 19.31 67.15 19.32 C68.56 19.32 68.56 19.32 69.99 19.32 C70.99 19.32 71.98 19.33 73.01 19.33 C76.36 19.35 79.71 19.36 83.06 19.37 C85.46 19.38 87.85 19.39 90.24 19.4 C95.41 19.42 100.58 19.44 105.74 19.45 C113.21 19.47 120.68 19.5 128.15 19.53 C140.27 19.58 152.38 19.62 164.5 19.66 C176.27 19.7 188.04 19.74 199.82 19.79 C200.54 19.79 201.27 19.79 202.01 19.8 C205.65 19.81 209.29 19.82 212.93 19.84 C243.13 19.95 273.33 20.06 303.53 20.16 C305.36 23.58 305.77 25.88 305.77 29.78 C305.78 30.88 305.79 31.97 305.8 33.1 C305.82 34.25 305.83 35.41 305.84 36.6 C306.11 46.43 306.74 54.4 311.53 63.16 C311.94 63.94 312.36 64.72 312.79 65.53 C315.14 69.93 317.54 74.31 320 78.66 C320.66 79.83 320.66 79.83 321.33 81.03 C322.33 82.81 323.37 84.57 324.43 86.32 C326.86 92.61 323.8 98.53 321.28 104.35 C320.85 105.37 320.85 105.37 320.41 106.41 C319.79 107.86 319.17 109.31 318.55 110.75 C316.99 114.42 315.46 118.1 313.93 121.78 C312.67 124.81 311.41 127.84 310.14 130.87 C302.49 149.13 294.95 167.42 287.54 185.78 C284.25 193.93 280.92 202.06 277.53 210.16 C275.99 213.85 274.45 217.54 272.91 221.24 C272.05 223.31 271.18 225.38 270.32 227.45 C269.88 228.5 269.44 229.56 268.99 230.64 C268.1 232.77 267.21 234.9 266.33 237.03 C261.03 249.73 255.75 262.43 250.53 275.16 C246.74 273.74 244.49 272.44 241.72 269.47 C239.17 266.83 236.62 264.3 233.84 261.91 C230.28 258.85 226.84 255.68 223.4 252.47 C218.17 247.6 212.8 242.93 207.34 238.32 C203.82 235.31 200.51 232.21 197.29 228.86 C195.01 226.66 192.56 224.71 190.09 222.72 C185.93 219.38 182.13 215.88 178.41 212.06 C175.94 209.57 173.31 207.29 170.65 205 C168.29 202.96 165.97 200.88 163.65 198.79 C162.8 198.02 161.95 197.25 161.08 196.47 C159.45 194.99 157.82 193.52 156.2 192.04 C150.55 186.93 144.82 181.93 139.05 176.96 C135.51 173.91 132.06 170.8 128.65 167.6 C114.9 155.15 98.51 145.43 81.53 138.16 C80.88 137.88 80.23 137.6 79.57 137.32 C60.66 129.27 40.92 124.52 20.53 122.16 C19.8 122.07 19.07 121.99 18.32 121.89 C10.06 121.01 1.82 121.02 -6.48 121.02 C-10.98 121.02 -15.49 120.99 -19.99 120.96 C-25.69 120.93 -31.39 120.91 -37.09 120.91 C-41.73 120.91 -46.36 120.89 -51 120.85 C-52.76 120.84 -54.52 120.84 -56.28 120.84 C-58.73 120.85 -61.19 120.83 -63.64 120.8 C-64.73 120.82 -64.73 120.82 -65.83 120.84 C-69.75 120.75 -71.32 120.29 -74.36 117.72 C-75.06 116.88 -75.75 116.03 -76.47 115.16 C-77.5 114.14 -78.53 113.13 -79.56 112.11 C-84.84 106.88 -90.04 101.67 -94.85 96 C-97.32 93.2 -99.99 90.62 -102.68 88.02 C-107.36 83.17 -107.36 83.17 -107.8 79.22 C-107.77 78.17 -107.75 77.12 -107.72 76.04 C-107.71 74.98 -107.69 73.93 -107.68 72.84 C-107.47 70.16 -107.47 70.16 -106.47 68.16 C-104.62 67.66 -104.62 67.66 -102.19 67.3 C-101.3 67.16 -100.4 67.02 -99.48 66.87 C-98.51 66.72 -97.53 66.57 -96.53 66.41 C-61.28 60.45 -32.98 41.92 -12.27 12.85 C-10.11 9.61 -8.19 6.29 -6.38 2.84 C-4.68 -0.31 -3.49 0.03 0 0 Z " fill="#95E4F9" transform="translate(774.47216796875,481.8388671875)"/>
<path d="M0 0 C5.58 0.09 10.73 2.08 15.99 3.78 C18.3 4.52 20.61 5.25 22.92 5.98 C24.7 6.55 24.7 6.55 26.52 7.13 C30.18 8.28 33.85 9.38 37.52 10.45 C38.7 10.8 39.88 11.15 41.09 11.51 C43.36 12.18 45.63 12.84 47.9 13.49 C48.93 13.8 49.95 14.11 51.01 14.42 C51.91 14.69 52.82 14.95 53.75 15.22 C56.82 16.56 58.31 17.45 60.18 20.28 C60.08 28.14 57.77 35.81 55.93 43.41 C55.6 44.79 55.27 46.17 54.94 47.55 C54.06 51.22 53.18 54.89 52.29 58.56 C51.55 61.63 50.81 64.71 50.07 67.79 C46.05 84.54 41.97 101.27 37.75 117.97 C33.14 136.18 28.8 154.45 24.43 172.72 C19.05 195.19 13.65 217.66 8.11 240.09 C2.99 260.88 -2.09 281.67 -7.14 302.47 C-7.49 303.94 -7.85 305.41 -8.21 306.89 C-9.83 313.57 -11.45 320.26 -13.07 326.94 C-15.3 336.14 -17.54 345.34 -19.77 354.53 C-20.33 356.84 -20.89 359.15 -21.45 361.46 C-23.27 368.96 -25.09 376.45 -26.91 383.94 C-27.61 386.79 -28.3 389.64 -28.99 392.49 C-29.16 393.18 -29.33 393.86 -29.5 394.57 C-31.42 402.46 -33.33 410.36 -35.21 418.26 C-36.12 422.08 -37.04 425.9 -37.96 429.72 C-38.54 432.16 -39.12 434.6 -39.7 437.04 C-44.7 458.03 -52.38 475.04 -67.82 490.28 C-68.81 491.26 -68.81 491.26 -69.81 492.26 C-88.68 509.88 -112.94 516.88 -138.29 516.57 C-148.25 516.23 -158.02 514.03 -166.82 509.28 C-166.16 503.52 -164.78 498.16 -163.16 492.6 C-162.89 491.65 -162.62 490.7 -162.34 489.72 C-161.44 486.6 -160.53 483.47 -159.63 480.35 C-159 478.15 -158.36 475.95 -157.73 473.76 C-156.07 467.96 -154.39 462.17 -152.72 456.38 C-151.04 450.57 -149.37 444.76 -147.7 438.95 C-141.54 417.57 -141.54 417.57 -138.55 407.26 C-137.35 403.11 -136.16 398.96 -134.98 394.81 C-134.37 392.69 -133.76 390.56 -133.15 388.43 C-132.88 387.47 -132.61 386.51 -132.33 385.52 C-129.86 376.95 -126.56 368.82 -123 360.66 C-119.24 351.98 -115.65 343.24 -112.05 334.5 C-110.82 331.51 -109.58 328.53 -108.35 325.55 C-102.31 310.91 -96.31 296.25 -90.32 281.58 C-84.91 268.34 -79.45 255.12 -73.88 241.94 C-73.4 240.8 -72.92 239.67 -72.43 238.49 C-72.02 237.53 -71.61 236.56 -71.19 235.56 C-69.72 232.02 -68.29 228.46 -66.87 224.9 C-65.2 220.72 -63.49 216.55 -61.78 212.38 C-61.01 210.5 -60.24 208.62 -59.46 206.74 C-58.28 203.84 -57.09 200.94 -55.9 198.04 C-53.96 193.32 -52.03 188.6 -50.11 183.87 C-48.58 180.12 -47.03 176.39 -45.46 172.66 C-44.72 170.87 -43.98 169.09 -43.25 167.3 C-42.73 166.09 -42.73 166.09 -42.2 164.86 C-39.35 157.92 -39 152.36 -41.87 145.38 C-43.6 141.58 -45.53 137.9 -47.51 134.22 C-47.95 133.4 -48.38 132.58 -48.83 131.73 C-50.94 127.77 -53.07 123.82 -55.22 119.89 C-55.59 119.21 -55.96 118.54 -56.33 117.84 C-57.02 116.59 -57.7 115.34 -58.4 114.09 C-61.95 107.57 -61.98 101.72 -61.99 94.46 C-62 93.04 -62 93.04 -62 91.6 C-62.01 89.61 -62.01 87.63 -62.01 85.64 C-62.01 82.59 -62.03 79.55 -62.05 76.5 C-62.05 74.57 -62.05 72.64 -62.05 70.71 C-62.06 69.79 -62.07 68.88 -62.08 67.94 C-62.07 67.09 -62.07 66.25 -62.07 65.38 C-62.07 64.63 -62.07 63.89 -62.07 63.12 C-61.82 61.28 -61.82 61.28 -59.82 59.28 C-57.52 59.03 -57.52 59.03 -54.66 59.01 C-53.62 58.99 -52.58 58.97 -51.51 58.95 C-49.33 58.92 -47.14 58.9 -44.96 58.89 C-36.57 58.7 -31.13 57.51 -25.05 51.57 C-22.44 47.71 -20.82 43.94 -19.2 39.59 C-18.52 37.83 -17.84 36.07 -17.16 34.31 C-16.79 33.36 -16.42 32.4 -16.05 31.42 C-13.72 25.45 -11.3 19.53 -8.89 13.59 C-8.4 12.39 -7.92 11.19 -7.42 9.96 C-6.97 8.84 -6.51 7.73 -6.05 6.58 C-5.64 5.58 -5.24 4.58 -4.82 3.56 C-3.41 0.34 -3.41 0.34 0 0 Z " fill="#FBE4C1" transform="translate(1178.82421875,417.71875)"/>
<path d="M0 0 C15.74 -0.02 31.48 -0.04 47.23 -0.05 C54.53 -0.06 61.84 -0.06 69.15 -0.08 C75.52 -0.09 81.89 -0.09 88.26 -0.09 C91.63 -0.1 95.01 -0.1 98.38 -0.11 C102.14 -0.11 105.9 -0.11 109.67 -0.11 C110.79 -0.12 111.91 -0.12 113.07 -0.12 C114.6 -0.12 114.6 -0.12 116.17 -0.12 C117.06 -0.12 117.95 -0.12 118.86 -0.12 C121 0 121 0 123 1 C123.01 1.99 123.01 1.99 123.01 3 C123.05 9.88 123.12 16.75 123.21 23.63 C123.24 26.2 123.26 28.76 123.27 31.33 C123.29 35.02 123.34 38.71 123.39 42.41 C123.39 43.55 123.39 44.69 123.39 45.86 C123.51 52.24 123.94 57.83 128 63 C135.45 68.49 144.94 68.06 153.85 68.58 C155.62 68.69 157.38 68.8 159.15 68.91 C160.56 68.99 160.56 68.99 162 69.08 C181.29 70.26 200.58 71.6 219.86 73.02 C224.03 73.33 228.2 73.64 232.37 73.94 C233.77 74.05 235.17 74.15 236.57 74.25 C237.26 74.3 237.96 74.35 238.68 74.41 C239.72 74.48 239.72 74.48 240.79 74.56 C241.48 74.61 242.18 74.66 242.9 74.72 C250.79 75.29 258.68 75.88 266.57 76.47 C272.98 76.95 279.39 77.43 285.8 77.89 C289.16 78.13 292.51 78.38 295.86 78.64 C299.56 78.92 303.25 79.19 306.95 79.45 C308.03 79.54 309.11 79.62 310.22 79.71 C319.43 80.33 327.25 79.03 335.76 75.39 C336.95 74.89 338.15 74.38 339.38 73.86 C339.99 73.6 340.6 73.33 341.23 73.06 C344.44 71.68 347.66 70.33 350.88 68.98 C351.51 68.72 352.13 68.45 352.78 68.18 C359.78 65.23 366.87 62.6 374 60 C381.52 57.17 388.97 54.22 396.34 51.02 C398.9 50.04 401.31 49.45 404 49 C407.95 53.5 410.62 58.51 413.44 63.75 C414.84 66.33 416.24 68.91 417.65 71.48 C418.53 73.13 419.38 74.79 420.18 76.47 C420.57 77.25 420.95 78.03 421.35 78.83 C421.67 79.51 421.99 80.2 422.32 80.9 C426.77 86.45 433.78 88.93 440.33 91.16 C441.89 91.71 443.44 92.26 445 92.82 C447.42 93.67 449.84 94.51 452.26 95.34 C454.62 96.16 456.98 97 459.33 97.84 C460.06 98.09 460.78 98.33 461.53 98.58 C464.57 99.68 466.74 100.72 468.95 103.09 C470.47 107.31 470.45 111.26 470.43 115.72 C470.44 116.65 470.44 117.59 470.45 118.55 C470.46 120.53 470.45 122.5 470.45 124.47 C470.44 127.49 470.47 130.5 470.5 133.52 C470.5 135.44 470.5 137.36 470.5 139.28 C470.51 140.18 470.52 141.08 470.53 142.01 C470.52 143.27 470.52 143.27 470.5 144.56 C470.5 145.67 470.5 145.67 470.5 146.8 C469.76 150.05 468.34 151.65 466 154 C462.97 154.62 462.97 154.62 459.34 154.62 C458.34 154.63 458.34 154.63 457.31 154.64 C455.05 154.66 452.79 154.64 450.53 154.62 C448.9 154.63 447.27 154.63 445.64 154.64 C441.15 154.66 436.66 154.64 432.16 154.62 C427.32 154.61 422.48 154.62 417.64 154.63 C408.14 154.65 398.65 154.63 389.16 154.61 C378.11 154.59 367.05 154.59 356 154.59 C336.26 154.6 316.53 154.58 296.8 154.54 C277.66 154.51 258.52 154.49 239.38 154.5 C218.54 154.51 197.7 154.51 176.87 154.49 C175.21 154.48 175.21 154.48 173.52 154.48 C171.31 154.48 169.09 154.48 166.88 154.48 C159.18 154.47 151.48 154.47 143.78 154.47 C134.38 154.47 124.98 154.46 115.59 154.44 C110.8 154.43 106.01 154.42 101.21 154.42 C96.82 154.43 92.43 154.42 88.04 154.4 C86.45 154.4 84.87 154.4 83.29 154.4 C70.72 154.45 58.96 153.23 47.75 147.19 C47.07 146.83 46.4 146.48 45.7 146.12 C25.6 135.47 10.26 119.81 3 98 C-0.24 86.69 -0.4 75.92 -0.29 64.26 C-0.29 62.39 -0.28 60.53 -0.28 58.67 C-0.27 53.81 -0.24 48.96 -0.21 44.1 C-0.18 39.12 -0.16 34.15 -0.15 29.18 C-0.11 19.45 -0.06 9.73 0 0 Z " fill="#FBE4C1" transform="translate(285,921)"/>
<path d="M0 0 C4.19 0.74 6.96 1.97 10.58 4.25 C11.65 4.91 12.72 5.58 13.82 6.27 C14.38 6.62 14.94 6.98 15.52 7.34 C18.44 9.19 21.38 11.01 24.31 12.84 C24.89 13.2 25.47 13.56 26.06 13.94 C30.77 16.87 35.52 19.71 40.31 22.5 C46.08 25.86 51.78 29.31 57.45 32.82 C64.38 37.09 71.38 41.24 78.37 45.42 C81.83 47.5 85.3 49.58 88.77 51.66 C90.46 52.68 92.15 53.69 93.84 54.7 C97.57 56.94 101.3 59.18 105.03 61.44 C108.07 63.28 111.11 65.1 114.17 66.91 C115.42 67.66 116.67 68.41 117.92 69.16 C127.89 75.17 137.78 79.8 149 83 C149.73 83.21 150.45 83.42 151.2 83.64 C181.91 92.12 217.71 88.22 245.74 73.06 C255.04 67.78 263.66 61.59 271.34 54.15 C271.89 53.77 272.44 53.39 273 53 C273.99 53.33 274.98 53.66 276 54 C276 99.54 276 145.08 276 192 C207.32 192.33 207.32 192.33 178.7 192.45 C172.15 192.48 165.6 192.51 159.04 192.54 C158.22 192.54 157.4 192.54 156.56 192.55 C143.28 192.6 130.01 192.67 116.74 192.74 C103.13 192.8 89.52 192.87 75.9 192.92 C67.5 192.95 59.09 192.99 50.69 193.04 C44.93 193.07 39.17 193.09 33.42 193.11 C30.09 193.12 26.77 193.14 23.44 193.16 C19.84 193.18 16.24 193.19 12.64 193.2 C11.05 193.22 11.05 193.22 9.43 193.23 C7.99 193.23 7.99 193.23 6.53 193.23 C5.28 193.24 5.28 193.24 4.01 193.24 C2 193 2 193 0 191 C-0.19 188.47 -0.26 186.04 -0.24 183.51 C-0.24 182.73 -0.24 181.95 -0.25 181.14 C-0.25 178.51 -0.24 175.87 -0.23 173.24 C-0.23 171.36 -0.23 169.48 -0.23 167.59 C-0.23 162.47 -0.22 157.35 -0.2 152.23 C-0.19 146.88 -0.19 141.53 -0.19 136.19 C-0.18 126.05 -0.16 115.92 -0.14 105.79 C-0.12 94.25 -0.11 82.72 -0.1 71.19 C-0.08 47.46 -0.04 23.73 0 0 Z " fill="#95E4F9" transform="translate(862,883)"/>
<path d="M0 0 C0.97 -0.01 1.95 -0.01 2.95 -0.02 C6.18 -0.03 9.42 -0.02 12.66 -0.02 C14.99 -0.02 17.32 -0.03 19.65 -0.04 C25.96 -0.06 32.28 -0.05 38.59 -0.05 C44.54 -0.04 50.48 -0.05 56.42 -0.06 C68.92 -0.07 81.41 -0.07 93.9 -0.06 C105.31 -0.05 116.72 -0.06 128.13 -0.08 C139.87 -0.11 151.61 -0.12 163.34 -0.11 C169.93 -0.11 176.51 -0.11 183.09 -0.13 C189.28 -0.14 195.47 -0.14 201.66 -0.12 C203.93 -0.12 206.2 -0.12 208.46 -0.13 C211.57 -0.14 214.67 -0.13 217.77 -0.11 C218.66 -0.12 219.55 -0.13 220.47 -0.14 C227.87 -0.06 234.44 1.88 240.5 6.21 C249.86 16.11 253.27 25.38 253.18 38.9 C253.18 40.05 253.18 41.2 253.18 42.39 C253.18 46.19 253.16 49.99 253.14 53.79 C253.14 56.42 253.14 59.06 253.14 61.7 C253.13 67.92 253.11 74.15 253.09 80.37 C253.07 87.47 253.06 94.56 253.05 101.65 C253.03 116.23 252.99 130.81 252.95 145.39 C247.43 139.97 247.43 139.97 245.81 136.53 C245.47 135.83 245.12 135.13 244.77 134.41 C244.42 133.68 244.06 132.95 243.7 132.2 C239.07 123.07 233.14 112.95 222.95 109.39 C202.68 103.36 187.7 110.29 169.14 118.06 C163.55 120.39 157.94 122.67 152.32 124.95 C151.17 125.42 150.02 125.89 148.84 126.37 C133.97 132.43 133.97 132.43 128.95 134.39 C128.07 134.78 128.07 134.78 127.17 135.18 C122.05 137.34 118.05 137.67 112.56 137.15 C111.78 137.09 111 137.04 110.19 136.98 C108.57 136.85 106.94 136.72 105.32 136.59 C102.41 136.34 99.5 136.15 96.59 135.95 C92.79 135.7 89 135.41 85.2 135.14 C82.52 134.94 79.83 134.75 77.15 134.56 C75.16 134.41 73.17 134.27 71.18 134.13 C62.74 133.51 54.3 132.91 45.86 132.31 C43.55 132.15 41.24 131.98 38.93 131.82 C37.78 131.74 37.78 131.74 36.6 131.65 C35.04 131.54 33.49 131.43 31.93 131.32 C28.1 131.05 24.26 130.78 20.43 130.5 C18.95 130.4 17.48 130.29 16 130.19 C15.27 130.14 14.55 130.09 13.8 130.03 C8.18 129.63 2.56 129.23 -3.06 128.82 C-7.67 128.48 -12.28 128.17 -16.89 127.86 C-19.27 127.69 -21.66 127.53 -24.05 127.36 C-25.69 127.26 -25.69 127.26 -27.36 127.15 C-28.35 127.08 -29.34 127.01 -30.36 126.93 C-31.23 126.88 -32.09 126.82 -32.98 126.76 C-35.05 126.39 -35.05 126.39 -37.05 124.39 C-37.25 121.5 -37.33 118.7 -37.33 115.81 C-37.33 114.93 -37.34 114.04 -37.34 113.12 C-37.35 110.17 -37.35 107.22 -37.35 104.27 C-37.36 102.22 -37.36 100.16 -37.36 98.11 C-37.37 93.79 -37.37 89.48 -37.37 85.16 C-37.36 79.66 -37.38 74.15 -37.4 68.65 C-37.42 64.4 -37.42 60.15 -37.41 55.9 C-37.41 53.87 -37.42 51.85 -37.43 49.82 C-37.55 21.17 -37.55 21.17 -28.05 10.39 C-19.78 2.4 -11.31 -0.08 0 0 Z " fill="#EDF8FC" transform="translate(482.05039978027344,826.6123199462891)"/>
<path d="M0 0 C0.72 -0 1.44 -0.01 2.19 -0.01 C4.61 -0.02 7.04 -0.02 9.46 -0.01 C11.2 -0.02 12.93 -0.02 14.67 -0.03 C19.39 -0.04 24.11 -0.04 28.83 -0.04 C32.77 -0.04 36.71 -0.04 40.65 -0.05 C49.94 -0.06 59.24 -0.06 68.53 -0.05 C78.12 -0.05 87.71 -0.06 97.3 -0.08 C105.53 -0.1 113.76 -0.11 121.99 -0.1 C126.9 -0.1 131.82 -0.1 136.74 -0.12 C141.36 -0.13 145.99 -0.13 150.61 -0.12 C152.31 -0.11 154 -0.12 155.7 -0.12 C158.02 -0.13 160.34 -0.13 162.65 -0.11 C163.95 -0.11 165.25 -0.11 166.58 -0.11 C171.7 0.45 174.85 2.73 178.14 6.57 C178.87 7.4 178.87 7.4 179.62 8.25 C182.79 13.03 183.2 17.82 183.19 23.44 C183.2 24.14 183.2 24.83 183.2 25.56 C183.2 27.89 183.19 30.22 183.18 32.55 C183.18 34.22 183.18 35.9 183.18 37.57 C183.18 42.12 183.17 46.66 183.16 51.2 C183.14 55.95 183.14 60.69 183.14 65.44 C183.13 74.43 183.12 83.42 183.1 92.41 C183.07 102.64 183.06 112.88 183.05 123.11 C183.03 144.16 183 165.21 182.95 186.26 C182.29 185.93 181.63 185.6 180.95 185.26 C180.95 184.6 180.95 183.94 180.95 183.26 C180.14 182.98 180.14 182.98 179.3 182.69 C175.83 180.57 173.81 177.55 171.39 174.32 C170.43 173.06 169.47 171.8 168.51 170.55 C168.09 169.99 167.67 169.43 167.24 168.85 C164.43 165.37 162.27 163.68 157.95 162.26 C154.74 161.96 154.74 161.96 151.21 162.01 C150.55 162.01 149.88 162 149.2 162 C146.98 161.99 144.75 162 142.53 162.01 C140.94 162 139.34 162 137.75 161.99 C134.32 161.99 130.88 161.98 127.45 161.99 C122.02 161.99 116.59 161.97 111.16 161.96 C95.72 161.91 80.29 161.89 64.85 161.88 C56.32 161.88 47.79 161.86 39.26 161.82 C33.87 161.8 28.47 161.8 23.08 161.81 C19.72 161.82 16.36 161.8 13 161.78 C11.44 161.78 9.89 161.78 8.33 161.79 C-6.36 161.87 -6.36 161.87 -12.05 157.26 C-13.4 154.56 -13.18 152.46 -13.19 149.44 C-13.19 148.19 -13.2 146.95 -13.2 145.68 C-13.21 144.29 -13.21 142.91 -13.21 141.53 C-13.21 140.08 -13.22 138.63 -13.22 137.18 C-13.24 133.23 -13.24 129.28 -13.25 125.34 C-13.25 122.87 -13.25 120.41 -13.26 117.94 C-13.27 110.23 -13.28 102.52 -13.29 94.81 C-13.29 85.91 -13.31 77.01 -13.34 68.1 C-13.36 61.22 -13.37 54.35 -13.37 47.47 C-13.37 43.36 -13.38 39.25 -13.39 35.14 C-13.41 31.27 -13.41 27.4 -13.4 23.54 C-13.4 22.12 -13.41 20.7 -13.42 19.28 C-13.43 17.34 -13.42 15.41 -13.41 13.47 C-13.42 12.38 -13.42 11.3 -13.42 10.18 C-12.99 6.81 -12.06 4.97 -10.05 2.26 C-6.33 -0.22 -4.44 0.01 0 0 Z " fill="#FBF8E4" transform="translate(50.046722412109375,58.73930358886719)"/>
<path d="M0 0 C5.06 1.1 9.93 2.76 14.83 4.41 C15.92 4.76 17.01 5.11 18.14 5.48 C19.18 5.82 20.22 6.17 21.29 6.53 C22.23 6.84 23.18 7.15 24.15 7.48 C26.45 8.53 26.45 8.53 28.45 11.53 C28.09 19.43 26.06 27.01 24.21 34.66 C23.88 36.04 23.55 37.42 23.22 38.8 C22.34 42.47 21.45 46.14 20.57 49.81 C19.82 52.89 19.09 55.96 18.35 59.04 C14.33 75.79 10.25 92.53 6.02 109.23 C1.42 127.43 -2.93 145.71 -7.3 163.97 C-12.68 186.45 -18.08 208.91 -23.61 231.35 C-28.73 252.13 -33.81 272.92 -38.86 293.72 C-39.22 295.19 -39.57 296.67 -39.93 298.14 C-41.55 304.82 -43.18 311.51 -44.8 318.19 C-47.03 327.39 -49.26 336.59 -51.49 345.79 C-52.05 348.1 -52.61 350.41 -53.18 352.72 C-54.99 360.21 -56.82 367.7 -58.64 375.2 C-59.33 378.05 -60.02 380.89 -60.72 383.74 C-60.88 384.43 -61.05 385.12 -61.22 385.83 C-63.14 393.72 -65.05 401.61 -66.94 409.51 C-67.85 413.33 -68.77 417.15 -69.68 420.97 C-70.27 423.41 -70.84 425.85 -71.42 428.29 C-76.43 449.29 -84.1 466.3 -99.55 481.53 C-100.53 482.51 -100.53 482.51 -101.53 483.51 C-114.91 496 -134.96 507.03 -153.55 506.53 C-153.16 505.93 -152.77 505.32 -152.37 504.69 C-151.15 502.78 -149.94 500.88 -148.73 498.96 C-147.25 496.62 -145.74 494.3 -144.21 491.98 C-135.19 478.15 -127.81 463.67 -123.12 447.8 C-122.82 446.81 -122.53 445.82 -122.22 444.8 C-119.04 434.03 -116.28 423.16 -113.56 412.27 C-113.02 410.1 -112.47 407.92 -111.92 405.75 C-110.5 400.07 -109.08 394.39 -107.66 388.71 C-106.25 383.08 -104.83 377.44 -103.42 371.8 C-103.14 370.7 -102.86 369.6 -102.57 368.46 C-102.02 366.23 -101.46 364.01 -100.9 361.79 C-100.06 358.45 -99.22 355.11 -98.39 351.77 C-93.87 333.76 -89.28 315.77 -84.66 297.79 C-81.83 286.73 -79.01 275.67 -76.2 264.61 C-75.65 262.46 -75.1 260.3 -74.56 258.15 C-73.44 253.76 -72.32 249.38 -71.21 244.99 C-62.58 211.08 -53.93 177.17 -45.19 143.29 C-39.83 122.51 -34.57 101.7 -29.39 80.87 C-25.11 63.69 -20.75 46.54 -16.3 29.41 C-16.02 28.33 -15.74 27.25 -15.45 26.14 C-14.67 23.13 -13.88 20.11 -13.09 17.09 C-12.87 16.2 -12.64 15.32 -12.4 14.41 C-8.28 -1.29 -8.28 -1.29 0 0 Z " fill="#FAD1A3" transform="translate(1210.5478515625,426.4658203125)"/>
<path d="M0 0 C3.47 0.44 5.03 1.71 7.36 4.25 C7.97 4.91 8.59 5.58 9.23 6.27 C9.87 6.98 10.52 7.7 11.19 8.44 C12.19 9.53 12.19 9.53 13.22 10.65 C15.15 12.76 17.08 14.88 19 17 C19.88 17.97 20.76 18.94 21.67 19.93 C23.79 22.28 25.9 24.64 28 27 C29.46 28.63 30.92 30.25 32.38 31.88 C33.11 32.69 33.84 33.5 34.59 34.34 C36.36 36.3 38.15 38.25 39.94 40.19 C40.69 41 40.69 41 41.45 41.83 C42.42 42.88 43.4 43.93 44.37 44.98 C48.78 49.75 50.25 52.22 50.27 58.76 C50.27 59.45 50.28 60.15 50.28 60.86 C50.29 63.18 50.29 65.5 50.29 67.83 C50.3 69.49 50.3 71.16 50.31 72.82 C50.33 77.35 50.33 81.88 50.33 86.41 C50.34 89.25 50.34 92.08 50.35 94.92 C50.36 104.84 50.37 114.75 50.37 124.67 C50.37 133.87 50.39 143.08 50.42 152.29 C50.45 160.21 50.46 168.14 50.46 176.06 C50.46 180.78 50.46 185.51 50.48 190.23 C50.5 194.69 50.5 199.15 50.49 203.6 C50.49 205.23 50.49 206.85 50.5 208.47 C50.65 229.04 46.29 250.48 35 268 C34.49 268.8 33.98 269.59 33.45 270.41 C20.76 289.29 2.73 304.41 -20 309 C-22.33 309.04 -24.67 309.04 -27 309 C-26.57 303.68 -24.84 301.1 -21.44 297.06 C-1.52 272.25 4.24 239.24 4.08 208.18 C4.06 205.71 4.06 203.25 4.05 200.78 C4.04 195.56 4.02 190.34 4 185.12 C3.98 179.05 3.96 172.98 3.94 166.9 C3.94 164.48 3.93 162.06 3.91 159.63 C3.91 158.15 3.91 156.66 3.9 155.18 C3.89 153.24 3.89 153.24 3.89 151.26 C3.98 148.62 4.2 146.5 5 144 C4.01 144.33 3.02 144.66 2 145 C-5.9 145.91 -11.62 144.84 -18 140 C-24.31 133.69 -23.24 125.71 -23.31 117.31 C-23.34 116.18 -23.37 115.05 -23.4 113.88 C-23.46 105.91 -22.89 97.96 -17.04 92 C-10.95 86.99 -4.54 87.39 3 88 C3.33 88 3.66 88 4 88 C4.1 83.06 4.17 78.11 4.22 73.17 C4.24 71.49 4.27 69.81 4.3 68.14 C4.64 51.58 1.37 40.94 -10.31 28.55 C-11.82 27.05 -13.34 25.56 -14.88 24.07 C-17.82 21.2 -20.44 18.22 -23 15 C-23 14.34 -23 13.68 -23 13 C-22.25 12.64 -21.5 12.27 -20.73 11.9 C-9.69 6.99 -9.69 6.99 0 0 Z " fill="#FAD1A3" transform="translate(699,202)"/>
<path d="M0 0 C0.99 0.5 0.99 0.5 2 1 C3.34 0.69 4.67 0.35 6 0 C7.52 -0.09 9.03 -0.13 10.55 -0.13 C11.45 -0.13 12.34 -0.14 13.26 -0.14 C14.22 -0.14 15.18 -0.13 16.16 -0.13 C17.65 -0.13 17.65 -0.13 19.16 -0.14 C21.25 -0.14 23.33 -0.13 25.42 -0.13 C28.62 -0.13 31.82 -0.13 35.02 -0.14 C37.05 -0.14 39.08 -0.13 41.1 -0.13 C42.06 -0.13 43.02 -0.14 44.02 -0.14 C45.35 -0.13 45.35 -0.13 46.71 -0.13 C47.88 -0.13 47.88 -0.13 49.08 -0.13 C51 0 51 0 53 1 C53 75.25 53 149.5 53 226 C42.44 226 31.88 226 21 226 C20 225 20 225 19.88 222.93 C19.88 222.02 19.89 221.11 19.89 220.17 C19.89 218.62 19.89 218.62 19.89 217.04 C19.89 215.91 19.89 214.78 19.89 213.62 C19.88 211.23 19.87 208.84 19.85 206.45 C19.83 202.68 19.81 198.92 19.82 195.15 C19.87 176.96 19.57 160.74 6 147 C4.48 146.12 4.48 146.12 2.92 145.23 C0.63 143.3 0.05 142.25 -0.55 139.28 C-0.74 135.64 -0.74 132.04 -0.68 128.4 C-0.68 127 -0.68 125.6 -0.68 124.2 C-0.69 120.4 -0.65 116.61 -0.61 112.82 C-0.57 108.85 -0.57 104.89 -0.56 100.92 C-0.54 93.41 -0.49 85.9 -0.43 78.4 C-0.37 69.85 -0.33 61.3 -0.3 52.75 C-0.24 35.17 -0.13 17.58 0 0 Z " fill="#0081FB" transform="translate(772,849)"/>
<path d="M0 0 C35.76 -0.05 71.53 -0.08 107.29 -0.1 C111.51 -0.1 115.73 -0.11 119.95 -0.11 C120.79 -0.11 121.63 -0.11 122.49 -0.11 C136.11 -0.12 149.72 -0.14 163.33 -0.15 C177.29 -0.17 191.25 -0.18 205.21 -0.19 C213.83 -0.19 222.45 -0.2 231.07 -0.22 C236.98 -0.23 242.88 -0.23 248.79 -0.23 C252.2 -0.23 255.61 -0.23 259.02 -0.24 C262.71 -0.25 266.4 -0.25 270.09 -0.24 C271.18 -0.25 272.27 -0.25 273.39 -0.26 C274.37 -0.25 275.35 -0.25 276.37 -0.25 C277.64 -0.25 277.64 -0.25 278.95 -0.25 C281 0 281 0 283 2 C276.67 16.25 266.28 25.93 252 32 C244.45 34.6 236.88 35.15 228.95 35.13 C228.18 35.14 227.41 35.14 226.62 35.14 C224.06 35.15 221.51 35.15 218.95 35.15 C217.11 35.15 215.26 35.15 213.42 35.16 C208.43 35.16 203.44 35.17 198.45 35.17 C195.33 35.17 192.21 35.17 189.08 35.17 C178.18 35.18 167.27 35.19 156.36 35.19 C146.22 35.18 136.07 35.2 125.93 35.21 C117.2 35.22 108.47 35.23 99.75 35.23 C94.54 35.23 89.34 35.23 84.13 35.24 C79.23 35.25 74.33 35.25 69.43 35.24 C67.64 35.24 65.86 35.25 64.07 35.25 C45.37 35.31 30.24 33.68 15 22 C14.16 21.38 13.33 20.76 12.47 20.12 C9.77 17.8 7.87 15.4 5.81 12.5 C5.14 11.56 4.46 10.62 3.77 9.66 C0 4 0 4 0 0 Z " fill="#576A72" transform="translate(498,1113)"/>
<path d="M0 0 C0.99 0.33 1.98 0.66 3 1 C3 46.54 3 92.08 3 139 C-22.41 139 -47.82 139 -74 139 C-74 105.01 -74 71.02 -74 36 C-74.66 35.67 -75.32 35.34 -76 35 C-75.37 34.89 -74.74 34.77 -74.1 34.65 C-46.53 29.51 -22.24 21.08 -1.66 1.15 C-1.11 0.77 -0.56 0.39 0 0 Z " fill="#62DAF8" transform="translate(1135,936)"/>
<path d="M0 0 C1.88 -0.01 1.88 -0.01 3.79 -0.03 C5.17 -0.03 6.56 -0.04 7.94 -0.04 C9.35 -0.05 10.76 -0.05 12.17 -0.06 C15.14 -0.07 18.11 -0.08 21.08 -0.08 C24.86 -0.08 28.65 -0.11 32.43 -0.14 C35.36 -0.16 38.28 -0.16 41.2 -0.16 C42.59 -0.17 43.99 -0.17 45.38 -0.19 C54.43 -0.27 62.24 -0.03 69.98 5 C72.41 7.42 74.12 9.86 75.9 12.79 C76.79 14.23 76.79 14.23 77.7 15.7 C80.04 19.66 80.29 21.86 80.33 26.5 C80.34 27.15 80.34 27.8 80.35 28.48 C80.37 30.63 80.38 32.79 80.39 34.95 C80.4 35.69 80.4 36.43 80.4 37.19 C80.43 41.1 80.44 45.01 80.45 48.93 C80.46 52.95 80.49 56.98 80.53 61.01 C80.56 64.12 80.57 67.22 80.57 70.33 C80.58 71.82 80.59 73.3 80.61 74.78 C80.72 84.1 80.33 90.78 74.44 98.37 C67.9 104.68 62.09 107.29 53.01 107.27 C51.77 107.27 50.53 107.27 49.25 107.27 C47.9 107.27 46.55 107.26 45.2 107.26 C43.82 107.26 42.43 107.26 41.05 107.25 C37.41 107.25 33.78 107.24 30.14 107.23 C26.43 107.22 22.71 107.21 19 107.21 C11.72 107.2 4.44 107.18 -2.85 107.16 C-2.42 106.14 -2 105.11 -1.57 104.06 C-1.01 102.7 -0.46 101.33 0.09 99.97 C0.51 98.96 0.51 98.96 0.93 97.93 C1.2 97.27 1.47 96.61 1.74 95.93 C2.11 95.03 2.11 95.03 2.49 94.11 C4.02 89.63 4.29 85.4 4.32 80.69 C4.33 79.4 4.33 78.12 4.34 76.79 C4.35 75.39 4.35 73.99 4.36 72.59 C4.36 71.88 4.36 71.16 4.37 70.43 C4.38 66.67 4.39 62.9 4.39 59.14 C4.4 55.27 4.42 51.4 4.45 47.54 C4.47 44.55 4.48 41.55 4.48 38.56 C4.48 37.14 4.49 35.71 4.5 34.29 C4.6 22.75 3.61 12.43 -3.85 3.16 C-4.84 2.5 -5.83 1.84 -6.85 1.16 C-5.06 -0.62 -2.41 0.01 0 0 Z " fill="#6D8288" transform="translate(1160.845703125,1112.8388671875)"/>
<path d="M0 0 C5.75 -0.07 11.49 -0.13 17.24 -0.16 C19.2 -0.18 21.15 -0.2 23.11 -0.23 C25.92 -0.26 28.73 -0.28 31.54 -0.29 C32.41 -0.31 33.29 -0.32 34.18 -0.34 C39.99 -0.34 43.38 0.55 47.73 4.61 C48.21 5.17 48.69 5.73 49.19 6.31 C49.92 7.14 49.92 7.14 50.67 7.99 C53.83 12.77 54.25 17.56 54.24 23.18 C54.24 23.87 54.24 24.57 54.25 25.29 C54.25 27.63 54.24 29.96 54.23 32.29 C54.23 33.96 54.23 35.64 54.23 37.31 C54.23 41.85 54.22 46.4 54.2 50.94 C54.19 55.68 54.19 60.43 54.19 65.18 C54.18 74.17 54.16 83.16 54.14 92.15 C54.12 102.38 54.11 112.62 54.1 122.85 C54.08 143.9 54.04 164.95 54 186 C53.34 185.67 52.68 185.34 52 185 C52 184.34 52 183.68 52 183 C51.45 182.81 50.91 182.63 50.35 182.43 C46.88 180.31 44.85 177.29 42.44 174.06 C41.48 172.8 40.52 171.54 39.56 170.29 C39.14 169.73 38.72 169.17 38.29 168.59 C35.5 165.14 33.31 163.36 29 162 C26.43 161.69 26.43 161.69 23.77 161.69 C22.8 161.67 21.83 161.64 20.84 161.62 C18.81 161.58 16.78 161.55 14.75 161.52 C13.79 161.5 12.82 161.47 11.83 161.44 C10.95 161.43 10.07 161.41 9.17 161.4 C8.09 161.2 8.09 161.2 7 161 C2.15 153.73 3.66 143.14 4.98 134.85 C4.98 134.24 4.99 133.63 5 133 C4.34 132.34 3.68 131.68 3 131 C3.57 130.91 4.14 130.83 4.72 130.74 C11.49 129.51 16.53 127.38 20.66 121.72 C23.14 116.69 22.81 111.46 22 106 C19.87 101.23 17.34 97.89 13 95 C10.67 94.32 8.34 93.65 6 93 C1.64 88.64 3.8 70.3 3.74 64.42 C3.72 62.26 3.69 60.11 3.66 57.95 C3.59 52.61 3.53 47.27 3.47 41.93 C3.42 37.39 3.37 32.84 3.31 28.3 C3.28 26.2 3.26 24.09 3.24 21.99 C3.35 11.43 3.35 11.43 2 1 C1.34 0.67 0.68 0.34 0 0 Z " fill="#FCF2BB" transform="translate(179,59)"/>
<path d="M0 0 C17.9 -0.35 34.78 0.64 49 13 C49.67 13.53 50.33 14.07 51.02 14.62 C64.25 25.56 71.98 41.01 74 58 C74.53 66.53 74.35 75.1 74.29 83.65 C74.29 86.12 74.28 88.59 74.28 91.05 C74.27 97.51 74.24 103.96 74.21 110.42 C74.18 117.02 74.16 123.62 74.15 130.23 C74.11 143.15 74.06 156.08 74 169 C71.1 169.11 68.21 169.19 65.31 169.25 C64.5 169.28 63.68 169.32 62.84 169.35 C58.7 169.42 56.59 169.38 53.02 167.09 C51.27 165.28 49.55 163.49 47.94 161.56 C45.21 158.36 42.4 155.27 39.53 152.2 C36.99 149.49 34.49 146.75 32 144 C31.28 143.21 30.56 142.41 29.82 141.6 C29.26 140.93 28.7 140.25 28.12 139.56 C27.65 139.01 27.18 138.45 26.7 137.88 C26 136 26 136 26.94 133.32 C28.1 129.69 28.26 126.79 28.27 122.98 C28.28 122.3 28.28 121.63 28.29 120.93 C28.3 118.71 28.3 116.49 28.3 114.26 C28.3 112.7 28.31 111.13 28.31 109.57 C28.32 106.28 28.32 103 28.32 99.72 C28.31 95.56 28.33 91.41 28.35 87.25 C28.36 84.01 28.37 80.77 28.36 77.54 C28.36 76.01 28.37 74.48 28.38 72.95 C28.53 47.33 21.97 25.06 3.92 6.19 C2.16 4.18 1.05 2.44 0 0 Z " fill="#C27B44" transform="translate(721,59)"/>
<path d="M0 0 C0.99 -0 1.99 -0.01 3.01 -0.01 C6.29 -0.02 9.56 -0.01 12.83 -0.01 C15.11 -0.01 17.4 -0.01 19.68 -0.01 C24.46 -0.02 29.23 -0.01 34.01 -0 C40.13 0.01 46.24 0 52.36 -0.01 C57.07 -0.02 61.78 -0.01 66.5 -0.01 C68.75 -0.01 71.01 -0.01 73.26 -0.01 C76.41 -0.02 79.57 -0.01 82.72 0 C84.11 -0.01 84.11 -0.01 85.53 -0.01 C90.69 0.02 95.02 0.41 99.86 2.26 C104.97 7.48 108.29 12.17 108.42 19.57 C108.3 25.24 107.29 28.53 103.51 32.74 C97.12 38.63 90.4 38.41 82.17 38.42 C81.19 38.42 80.22 38.43 79.22 38.43 C76.01 38.45 72.8 38.46 69.6 38.46 C67.36 38.47 65.12 38.47 62.89 38.48 C58.2 38.49 53.51 38.5 48.83 38.5 C42.83 38.5 36.84 38.53 30.85 38.56 C26.23 38.58 21.61 38.58 16.99 38.58 C14.78 38.59 12.57 38.59 10.36 38.61 C7.27 38.62 4.17 38.62 1.08 38.62 C0.17 38.62 -0.73 38.63 -1.66 38.64 C-10.14 38.59 -17.5 36.76 -23.76 30.86 C-27.11 26.96 -27.6 22.36 -27.45 17.34 C-26.68 12.18 -24.15 7.88 -20.33 4.38 C-13.83 0.05 -7.58 -0.03 0 0 Z " fill="#000002" transform="translate(94.138671875,151.7412109375)"/>
<path d="M0 0 C0 31.02 0 62.04 0 94 C-14.52 94 -29.04 94 -44 94 C-44.68 89.24 -45.12 85.29 -45.09 80.58 C-45.08 79.35 -45.07 78.12 -45.06 76.86 C-45.05 75.55 -45.03 74.24 -45.02 72.89 C-45.01 72.21 -45.01 71.53 -45 70.84 C-44.96 67.26 -44.92 63.68 -44.87 60.1 C-44.82 56.44 -44.79 52.77 -44.77 49.1 C-44.75 46.26 -44.71 43.41 -44.67 40.56 C-44.65 38.56 -44.64 36.56 -44.63 34.56 C-44.45 24.84 -42.84 15.9 -35.94 8.6 C-27.83 1.91 -10.27 -5.14 0 0 Z " fill="#0081FB" transform="translate(408,789)"/>
<path d="M0 0 C5.57 2.07 8.54 10.46 10.97 15.57 C14.39 22.56 14.39 22.56 18.03 29.44 C18.62 30.53 18.62 30.53 19.22 31.64 C23.87 37.06 30.75 39.67 37.36 41.91 C38.92 42.46 40.47 43.02 42.03 43.57 C44.45 44.42 46.87 45.26 49.29 46.1 C51.65 46.92 54.01 47.76 56.36 48.6 C57.09 48.84 57.81 49.08 58.56 49.33 C61.6 50.43 63.77 51.47 65.98 53.84 C67.5 58.07 67.48 62.01 67.47 66.47 C67.47 67.41 67.48 68.34 67.48 69.31 C67.49 71.28 67.49 73.26 67.48 75.23 C67.47 78.24 67.5 81.26 67.53 84.27 C67.53 86.19 67.53 88.12 67.53 90.04 C67.54 90.93 67.55 91.83 67.56 92.76 C67.52 96.66 67.26 99.27 65.57 102.83 C61.78 105.7 58.52 105.38 53.89 105.24 C52.57 105.23 52.57 105.23 51.22 105.22 C48.4 105.19 45.59 105.13 42.78 105.07 C40.87 105.04 38.96 105.02 37.05 105 C32.38 104.94 27.71 104.86 23.03 104.75 C23.04 104.18 23.04 103.6 23.05 103 C23.12 96.93 23.16 90.86 23.2 84.8 C23.21 82.54 23.23 80.28 23.26 78.02 C23.29 74.75 23.31 71.49 23.32 68.23 C23.34 67.23 23.36 66.23 23.37 65.21 C23.37 56.24 21.85 47.61 15.96 40.55 C10.36 35.34 3.02 33.08 -4.06 30.59 C-5.71 30.02 -5.71 30.02 -7.4 29.42 C-9.62 28.66 -11.84 27.91 -14.07 27.18 C-20.27 25.07 -25.77 22.99 -29.97 17.75 C-31.41 14.38 -31.41 14.38 -31.97 11.75 C-30.95 11.38 -29.94 11 -28.89 10.62 C-0.21 -0.03 -0.21 -0.03 0 0 Z " fill="#FAD1A3" transform="translate(687.968505859375,970.245361328125)"/>
<path d="M0 0 C0.86 -0 1.71 -0 2.6 -0 C4.41 -0 6.22 -0 8.03 0 C10.8 0.01 13.58 0 16.35 -0 C18.11 -0 19.87 -0 21.62 0 C22.88 -0 22.88 -0 24.15 -0.01 C30.02 0.02 30.02 0.02 32.25 1.13 C32.27 10.76 32.29 20.4 32.3 30.03 C32.3 34.5 32.31 38.97 32.32 43.44 C32.33 47.75 32.34 52.06 32.34 56.38 C32.34 58.03 32.35 59.67 32.35 61.32 C32.36 63.62 32.36 65.93 32.36 68.23 C32.36 69.54 32.36 70.85 32.37 72.2 C32.25 75.13 32.25 75.13 31.25 76.13 C28.26 76.27 25.3 76.35 22.32 76.37 C21.42 76.38 20.52 76.39 19.6 76.4 C17.69 76.41 15.78 76.42 13.87 76.43 C10.96 76.45 8.04 76.49 5.12 76.53 C3.27 76.54 1.42 76.55 -0.43 76.56 C-1.74 76.58 -1.74 76.58 -3.08 76.61 C-3.89 76.61 -4.71 76.61 -5.55 76.6 C-6.27 76.61 -6.98 76.61 -7.72 76.62 C-10.76 75.89 -11.91 74.63 -13.75 72.13 C-14.25 69.09 -14.25 69.09 -14.24 65.48 C-14.24 64.83 -14.25 64.17 -14.25 63.49 C-14.26 61.32 -14.24 59.14 -14.21 56.97 C-14.21 55.46 -14.21 53.95 -14.21 52.44 C-14.21 49.27 -14.19 46.11 -14.17 42.94 C-14.13 38.89 -14.12 34.83 -14.13 30.77 C-14.12 27.65 -14.11 24.53 -14.1 21.41 C-14.09 19.91 -14.09 18.42 -14.09 16.92 C-14.08 14.83 -14.07 12.74 -14.04 10.65 C-14.03 8.87 -14.03 8.87 -14.02 7.05 C-13.75 4.13 -13.75 4.13 -11.75 1.13 C-7.83 -0.18 -4.09 -0.01 0 0 Z " fill="#FAD1A3" transform="translate(351.75390625,265.8671875)"/>
<path d="M0 0 C0.9 -0.01 1.8 -0.01 2.73 -0.02 C4.64 -0.03 6.56 -0.03 8.47 -0.04 C11.39 -0.05 14.32 -0.08 17.25 -0.11 C19.1 -0.12 20.96 -0.12 22.81 -0.12 C23.69 -0.14 24.57 -0.15 25.47 -0.16 C26.29 -0.16 27.11 -0.16 27.95 -0.15 C29.03 -0.16 29.03 -0.16 30.13 -0.16 C32.63 0.32 33.48 1.22 35.04 3.2 C36.14 6.49 36.19 8.97 36.22 12.43 C36.24 14.36 36.24 14.36 36.25 16.33 C36.26 17.73 36.27 19.13 36.28 20.54 C36.28 21.25 36.29 21.96 36.29 22.68 C36.31 26.43 36.32 30.18 36.33 33.93 C36.35 37.79 36.38 41.66 36.42 45.52 C36.45 48.5 36.45 51.48 36.46 54.45 C36.46 55.88 36.47 57.3 36.49 58.73 C36.52 60.72 36.51 62.72 36.51 64.72 C36.51 65.85 36.52 66.99 36.53 68.15 C35.92 71.93 34.79 73.58 32.04 76.2 C30 76.8 30 76.8 27.82 76.77 C26.59 76.77 26.59 76.77 25.33 76.77 C24.46 76.74 23.58 76.72 22.68 76.69 C21.32 76.68 21.32 76.68 19.94 76.67 C17.05 76.64 14.17 76.58 11.29 76.52 C9.33 76.49 7.38 76.47 5.42 76.45 C0.62 76.39 -4.17 76.31 -8.96 76.2 C-10.44 73.24 -10.09 70.59 -10.09 67.29 C-10.09 66.58 -10.09 65.87 -10.1 65.14 C-10.1 62.78 -10.1 60.43 -10.09 58.07 C-10.09 56.44 -10.1 54.81 -10.1 53.18 C-10.1 49.76 -10.1 46.34 -10.09 42.92 C-10.09 38.52 -10.09 34.13 -10.09 29.74 C-10.1 26.37 -10.1 23 -10.09 19.63 C-10.09 18.01 -10.09 16.39 -10.1 14.77 C-10.1 12.51 -10.1 10.25 -10.09 7.99 C-10.09 6.7 -10.09 5.41 -10.09 4.08 C-9.83 -1.85 -4.74 0.02 0 0 Z " fill="#F9D0A2" transform="translate(796.9609375,265.796875)"/>
<path d="M0 0 C5.94 0 11.88 0 18 0 C19.3 2.6 19.13 4.52 19.14 7.43 C19.21 24.84 19.21 24.84 25 41 C25.42 41.78 25.83 42.56 26.26 43.37 C28.62 47.77 31.02 52.15 33.48 56.5 C33.91 57.28 34.35 58.06 34.8 58.87 C35.8 60.65 36.85 62.41 37.9 64.16 C40.34 70.44 37.27 76.37 34.75 82.19 C34.46 82.87 34.18 83.54 33.88 84.24 C33.26 85.7 32.65 87.15 32.02 88.6 C30.47 92.23 28.96 95.89 27.44 99.53 C26.1 102.76 24.75 105.99 23.41 109.22 C22.14 112.26 20.87 115.31 19.6 118.35 C18.95 119.9 18.31 121.45 17.66 123 C17.02 124.53 16.38 126.06 15.74 127.6 C15.11 129.12 14.48 130.63 13.84 132.15 C12.21 136.05 10.61 139.96 9.07 143.9 C8.76 144.68 8.44 145.47 8.12 146.28 C7.53 147.78 6.94 149.29 6.36 150.8 C5.66 152.57 4.84 154.29 4 156 C3.01 156.33 2.02 156.66 1 157 C1 156.25 0.99 155.5 0.99 154.73 C0.88 136.46 0.78 118.19 0.66 99.92 C0.61 91.08 0.55 82.24 0.5 73.41 C0.46 65.71 0.41 58 0.36 50.3 C0.34 46.22 0.31 42.15 0.29 38.07 C0.27 34.23 0.25 30.39 0.22 26.55 C0.21 25.14 0.2 23.73 0.2 22.33 C0.2 13.75 0.2 13.75 -0.58 5.22 C-1 2 -1 2 0 0 Z " fill="#62DAF8" transform="translate(1061,504)"/>
<path d="M0 0 C4.79 4.93 7.37 10.19 7.4 17.08 C7.42 18.26 7.43 19.43 7.44 20.65 C7.44 21.91 7.44 23.17 7.43 24.46 C7.44 25.77 7.44 27.08 7.45 28.42 C7.46 31.18 7.46 33.94 7.45 36.7 C7.43 40.22 7.45 43.75 7.48 47.27 C7.51 50.65 7.5 54.02 7.5 57.4 C7.51 59.29 7.51 59.29 7.53 61.21 C7.46 69.53 6.44 73.9 1.06 80.31 C-3.54 84.08 -8.37 84.54 -14.14 84.46 C-20.09 83.51 -25.07 79.45 -29 75 C-30.06 71.83 -30.15 69.52 -30.18 66.19 C-30.19 64.99 -30.2 63.8 -30.22 62.56 C-30.22 61.27 -30.23 59.98 -30.24 58.64 C-30.24 57.98 -30.25 57.32 -30.25 56.64 C-30.27 53.15 -30.29 49.65 -30.3 46.15 C-30.31 42.55 -30.34 38.96 -30.38 35.36 C-30.41 32.58 -30.41 29.8 -30.42 27.03 C-30.43 25.06 -30.45 23.09 -30.48 21.13 C-30.46 13.93 -29.95 9.09 -26 3 C-18.52 -4.29 -9.04 -5.14 0 0 Z " fill="#000002" transform="translate(597,313)"/>
<path d="M0 0 C1.14 -0.01 2.28 -0.02 3.45 -0.03 C5.29 -0.04 5.29 -0.04 7.16 -0.04 C9.06 -0.05 9.06 -0.05 11 -0.06 C13.68 -0.07 16.35 -0.08 19.03 -0.08 C22.45 -0.08 25.86 -0.11 29.28 -0.14 C32.55 -0.16 35.83 -0.16 39.1 -0.17 C40.32 -0.18 41.54 -0.19 42.8 -0.2 C49.07 -0.19 53.85 -0.01 59.33 3.16 C63.94 8.33 66.44 14.28 66.33 21.16 C65.27 27.43 62.06 30.83 57.27 34.81 C53.83 37.21 50.83 37.31 46.75 37.39 C45.61 37.41 44.46 37.43 43.28 37.45 C38.02 37.53 32.76 37.58 27.5 37.62 C24.74 37.64 21.97 37.68 19.21 37.74 C15.21 37.83 11.21 37.86 7.21 37.88 C5.98 37.91 4.76 37.95 3.5 37.98 C-5.18 37.96 -11.05 35.88 -17.67 30.16 C-20.63 26.35 -21.18 21.85 -20.94 17.13 C-20.01 10.41 -16.63 6.78 -11.7 2.54 C-8 0.03 -4.4 0.03 0 0 Z " fill="#000002" transform="translate(87.667236328125,88.8388671875)"/>
<path d="M0 0 C4.15 8.3 2.69 24.02 1 33 C-1.77 38.45 -6.65 41.09 -11.92 43.84 C-15.3 45.72 -18.16 48.17 -21.12 50.62 C-22.27 51.52 -23.41 52.42 -24.56 53.31 C-26.93 55.16 -29.28 57.03 -31.62 58.91 C-32.79 59.84 -33.96 60.76 -35.12 61.69 C-35.66 62.12 -36.19 62.56 -36.74 63 C-39.88 65.47 -40.83 66 -45 66 C-44.96 59.31 -44.89 52.62 -44.79 45.93 C-44.76 43.66 -44.74 41.38 -44.73 39.11 C-44.71 35.83 -44.66 32.56 -44.61 29.28 C-44.61 28.27 -44.61 27.26 -44.61 26.22 C-44.46 19.01 -43.13 13.35 -38.11 7.98 C-37.47 7.53 -36.84 7.08 -36.19 6.62 C-35.56 6.16 -34.94 5.7 -34.29 5.23 C-27.85 1.78 -20.91 1.45 -13.75 0.88 C-12.76 0.79 -11.76 0.7 -10.74 0.61 C-3.56 0 -3.56 0 0 0 Z " fill="#FAD1A3" transform="translate(629,530)"/>
<path d="M0 0 C3.2 0.48 5.19 1.66 7.72 3.62 C8.42 4.16 9.12 4.7 9.84 5.25 C10.57 5.83 11.31 6.41 12.06 7 C12.82 7.59 13.57 8.17 14.35 8.78 C16.57 10.51 18.79 12.25 21 14 C21.91 14.71 21.91 14.71 22.83 15.43 C32.29 22.8 32.29 22.8 34 27 C34.66 27 35.32 27 36 27 C34.72 30.49 33.24 33.31 31.06 36.31 C27.3 41.56 23.64 46.87 20 52.2 C17.05 56.5 14.04 60.76 11 65 C5.69 63.59 3.43 60.31 0.25 56.12 C-0.27 55.45 -0.8 54.78 -1.33 54.09 C-2.9 52.07 -4.45 50.04 -6 48 C-6.43 47.43 -6.87 46.87 -7.32 46.28 C-9.22 43.8 -11.09 41.31 -12.95 38.79 C-14.33 36.91 -15.74 35.05 -17.18 33.21 C-17.84 32.34 -18.5 31.46 -19.19 30.56 C-19.78 29.8 -20.37 29.04 -20.98 28.25 C-22 26 -22 26 -21.53 23.58 C-19.57 20.28 -17.07 17.8 -14.31 15.19 C-13.23 14.13 -12.14 13.08 -11.06 12.02 C-10.54 11.51 -10.01 11 -9.47 10.47 C-6.47 7.47 -3.74 4.24 -1 1 C-0.67 0.67 -0.34 0.34 0 0 Z " fill="#C697E6" transform="translate(523,598)"/>
<path d="M0 0 C4.36 1.67 7.18 4.92 10.38 8.19 C10.95 8.77 11.53 9.36 12.12 9.96 C23 21.06 23 21.06 23 24 C23.66 24 24.32 24 25 24 C23.74 26.66 22.38 28.99 20.6 31.33 C19.89 32.27 19.89 32.27 19.17 33.23 C18.66 33.9 18.15 34.56 17.62 35.25 C16.54 36.68 15.46 38.11 14.38 39.54 C13.82 40.27 13.27 41.01 12.69 41.76 C11.02 43.97 9.37 46.18 7.71 48.4 C7.19 49.11 6.66 49.82 6.11 50.55 C5.11 51.89 4.1 53.24 3.1 54.59 C0.18 58.5 -2.85 62.28 -6 66 C-6.5 65.01 -6.5 65.01 -7 64 C-7.99 64 -8.98 64 -10 64 C-11.27 62.6 -11.27 62.6 -12.53 60.62 C-13.01 59.89 -13.48 59.16 -13.97 58.41 C-14.48 57.62 -14.98 56.82 -15.5 56 C-16.56 54.35 -17.63 52.7 -18.7 51.05 C-19.24 50.21 -19.79 49.37 -20.35 48.5 C-21.93 46.1 -23.58 43.75 -25.27 41.42 C-25.78 40.7 -26.29 39.99 -26.82 39.26 C-27.8 37.9 -28.79 36.55 -29.79 35.22 C-33.04 30.65 -33.04 30.65 -32.84 27.49 C-31.85 24.56 -30.92 23.66 -28.46 21.84 C-27.72 21.28 -26.98 20.72 -26.22 20.14 C-25.43 19.56 -24.63 18.97 -23.81 18.38 C-22.18 17.14 -20.54 15.91 -18.9 14.67 C-18.08 14.06 -17.26 13.45 -16.41 12.81 C-12.86 10.14 -9.36 7.39 -5.88 4.62 C-4.73 3.72 -3.58 2.82 -2.43 1.91 C-1.23 0.97 -1.23 0.97 0 0 Z " fill="#C697E6" transform="translate(645,598)"/>
<path d="M0 0 C7.96 8.16 8.7 16.44 8.75 27.31 C8.77 28.37 8.79 29.43 8.81 30.52 C8.85 38.23 8.27 44.28 3.12 50.38 C2.26 51.1 1.39 51.82 0.5 52.56 C-0.2 53.16 -0.9 53.76 -1.62 54.38 C-6.98 56.59 -12.63 56.62 -18.07 54.61 C-22.46 52.31 -25.91 49.89 -28.5 45.56 C-29.97 39.75 -29.76 33.84 -29.81 27.88 C-29.84 26.74 -29.87 25.61 -29.9 24.44 C-29.96 16.47 -29.38 8.53 -23.54 2.56 C-16.77 -3 -7.92 -3.25 0 0 Z " fill="#000002" transform="translate(705.5,291.4375)"/>
<path d="M0 0 C5.41 4.28 8.57 10.37 9.69 17.12 C9.92 20.71 9.92 24.29 9.94 27.88 C9.96 28.83 9.98 29.78 10 30.76 C10.04 37.98 9.48 44.77 4.71 50.5 C4.03 51.04 3.34 51.57 2.62 52.12 C1.93 52.68 1.24 53.24 0.53 53.81 C-4.05 57.08 -8.86 56.88 -14.31 56.12 C-19.64 53.88 -24.2 51.09 -27.31 46.12 C-29.14 40.49 -28.58 34.29 -28.62 28.44 C-28.65 27.2 -28.68 25.95 -28.71 24.67 C-28.76 17.49 -28.5 11.2 -24.31 5.12 C-17.37 -1.45 -9.02 -2.38 0 0 Z " fill="#000002" transform="translate(485.3125,290.875)"/>
<path d="M0 0 C0.33 0 0.66 0 1 0 C1 21.78 1 43.56 1 66 C0.34 66 -0.32 66 -1 66 C-1.75 62.01 -2.12 58.24 -2.11 54.18 C-2.11 53.06 -2.11 51.94 -2.11 50.78 C-2.11 49.59 -2.1 48.39 -2.1 47.16 C-2.1 45.93 -2.09 44.7 -2.09 43.42 C-2.09 39.49 -2.08 35.56 -2.06 31.62 C-2.06 28.95 -2.05 26.28 -2.05 23.61 C-2.04 17.08 -2.02 10.54 -2 4 C-1.34 4 -0.68 4 0 4 C0 2.68 0 1.36 0 0 Z " fill="#92B4BC" transform="translate(39,1135)"/>
</svg>
