<?xml version="1.0" encoding="UTF-8" standalone="no"?>
<!DOCTYPE svg PUBLIC "-//W3C//DTD SVG 1.1//EN" "http://www.w3.org/Graphics/SVG/1.1/DTD/svg11.dtd">
<svg xmlns="http://www.w3.org/2000/svg" version="1.1" viewBox="0.00 0.00 1519.00 1380.00">
<g stroke-width="2.00" fill="none" stroke-linecap="butt">
<path stroke="#250044" vector-effect="non-scaling-stroke" d="
  M 1053.18 262.77
  Q 1048.59 261.51 1044.18 259.21
  Q 1043.98 259.11 1043.80 259.10
  Q 1043.25 259.08 1043.44 259.39"
/>
<path stroke="#250044" vector-effect="non-scaling-stroke" d="
  M 843.05 429.69
  C 836.78 436.17 832.94 445.12 830.81 453.77
  Q 827.83 465.89 825.35 480.01
  Q 818.65 518.24 817.07 552.75
  Q 816.81 558.56 816.99 564.45
  C 817.39 577.14 821.98 590.75 834.91 595.37
  C 844.01 598.62 852.92 599.45 862.17 600.26
  Q 869.43 600.89 878.82 602.28
  Q 938.10 611.06 1002.50 615.22
  Q 1029.22 616.94 1057.38 616.41
  Q 1067.51 616.22 1078.68 615.39
  C 1097.98 613.95 1115.49 609.22 1125.30 591.98
  C 1131.86 580.45 1134.33 568.07 1136.50 554.36
  Q 1142.17 518.53 1144.49 481.52
  C 1145.21 470.07 1145.39 457.59 1139.38 447.39
  C 1134.24 438.67 1123.67 434.30 1114.46 431.23
  Q 1092.43 423.89 1068.73 419.39
  Q 1029.79 412.01 985.75 410.99
  Q 984.36 410.96 983.00 410.95
  Q 930.61 410.74 876.02 416.40
  C 864.02 417.64 851.16 421.30 843.05 429.69"
/>
<path stroke="#25b3c3" vector-effect="non-scaling-stroke" d="
  M 930.77 651.00
  Q 928.31 650.72 925.96 650.36
  Q 925.95 650.36 925.95 650.37
  L 925.93 650.62
  Q 925.92 650.93 926.22 650.90
  Q 927.26 650.82 928.39 651.20
  Q 929.41 651.55 930.55 651.71
  Q 953.27 654.76 979.72 656.65
  Q 986.42 657.13 993.74 657.45
  C 1000.07 657.73 1006.44 657.64 1013.03 657.84
  Q 1018.92 658.01 1028.49 657.83
  Q 1062.26 657.17 1089.77 651.80
  Q 1119.23 646.05 1145.79 634.53
  Q 1155.68 630.24 1166.58 623.45
  A 1.67 1.59 -2.6 0 0 1167.13 622.88
  Q 1168.36 620.81 1166.31 620.84
  A 1.22 1.20 -59.5 0 0 1165.71 621.00
  Q 1151.37 628.94 1136.77 635.16
  Q 1125.64 639.91 1111.54 643.81
  Q 1079.15 652.76 1044.47 654.27
  C 1041.32 654.41 1038.32 654.80 1035.16 654.85
  Q 1021.95 655.05 1007.84 654.92
  Q 1001.80 654.87 995.67 654.57
  Q 989.48 654.27 983.50 653.96
  Q 965.65 653.04 946.12 651.64
  Q 938.70 651.11 932.00 650.81
  Q 931.66 650.79 931.35 650.92
  A 1.11 1.10 -52.5 0 1 930.77 651.00"
/>
<path stroke="#25b3c3" vector-effect="non-scaling-stroke" d="
  M 882.61 646.17
  Q 889.80 647.46 897.61 648.27
  Q 900.79 648.59 904.66 648.24
  A 0.44 0.44 0.0 0 0 905.04 647.66
  L 904.92 647.33
  Q 904.62 646.47 903.71 646.41
  Q 883.89 645.18 869.84 641.29
  Q 863.92 639.66 857.62 637.72
  A 0.54 0.53 -67.2 0 0 856.99 637.98
  L 856.86 638.24
  A 0.47 0.47 0.0 0 0 857.06 638.88
  Q 859.15 639.97 861.11 640.64
  Q 871.48 644.17 882.61 646.17"
/>
<path stroke="#9081a0" vector-effect="non-scaling-stroke" d="
  M 888.32 475.58
  C 882.28 482.52 878.50 491.55 876.18 500.66
  A 1.99 1.98 -69.7 0 0 877.21 502.92
  L 877.64 503.14
  Q 878.96 503.80 879.55 502.45
  C 883.90 492.54 889.09 479.86 898.77 473.89
  C 904.30 470.47 912.38 470.04 917.70 473.35
  Q 929.04 480.41 930.00 495.12
  Q 930.36 500.72 930.00 506.92
  A 3.34 3.33 23.0 0 0 931.09 509.60
  Q 932.64 511.00 934.22 510.93
  Q 936.85 510.81 937.33 508.22
  Q 939.42 496.84 935.85 485.69
  C 931.94 473.50 922.78 463.87 909.34 464.49
  C 901.36 464.86 893.58 469.54 888.32 475.58"
/>
<path stroke="#9081a0" vector-effect="non-scaling-stroke" d="
  M 1017.66 475.09
  C 1005.37 480.98 996.37 494.61 998.57 508.56
  Q 998.74 509.66 999.26 510.66
  Q 999.49 511.12 999.97 511.30
  C 1001.56 511.89 1003.21 510.99 1003.32 509.24
  C 1004.19 495.71 1009.59 484.54 1022.24 479.86
  C 1030.73 476.71 1040.92 478.10 1048.21 483.40
  Q 1058.31 490.76 1059.55 504.21
  C 1059.85 507.53 1059.11 511.17 1058.55 514.48
  C 1058.30 516.00 1058.57 517.44 1059.87 518.42
  C 1063.93 521.44 1065.63 515.48 1066.16 512.71
  C 1068.98 497.91 1061.27 482.34 1048.13 475.59
  C 1038.83 470.82 1027.03 470.60 1017.66 475.09"
/>
<path stroke="#9081a0" vector-effect="non-scaling-stroke" d="
  M 964.78 569.22
  Q 961.90 554.72 959.23 536.13
  Q 958.92 533.97 956.74 534.13
  Q 954.89 534.27 953.24 536.32
  Q 948.54 542.17 944.86 547.19
  Q 943.97 548.40 943.36 549.69
  Q 943.14 550.15 942.63 550.12
  Q 921.25 548.51 902.21 547.10
  Q 899.55 546.90 896.57 547.33
  A 1.25 1.24 78.3 0 0 895.55 548.89
  Q 895.84 549.96 896.89 550.27
  C 898.02 550.61 899.25 550.99 900.44 551.08
  Q 914.39 552.13 929.25 553.32
  C 934.21 553.72 938.91 554.30 944.02 554.27
  Q 944.52 554.27 944.91 553.94
  C 949.11 550.32 952.30 545.99 955.65 541.69
  Q 956.14 541.06 956.24 541.85
  Q 958.15 556.88 960.76 572.34
  Q 960.99 573.65 961.47 574.80
  A 2.70 2.70 0.0 0 0 965.74 575.76
  Q 967.00 574.65 968.00 573.03
  Q 973.41 564.27 978.69 555.34
  Q 978.91 554.97 979.34 554.99
  Q 1005.04 555.88 1029.00 557.92
  A 1.64 1.64 0.0 0 0 1030.77 556.40
  L 1030.80 555.93
  Q 1030.94 553.86 1028.87 553.67
  Q 1009.69 551.91 991.26 551.24
  Q 984.58 551.00 977.93 551.33
  A 4.17 4.15 -76.1 0 0 974.55 553.38
  L 965.22 569.29
  Q 964.90 569.84 964.78 569.22"
/>
<path stroke="#250044" vector-effect="non-scaling-stroke" d="
  M 603.10 569.74
  Q 595.53 567.82 592.36 568.12
  Q 588.13 568.53 584.08 568.82"
/>
<path stroke="#250044" vector-effect="non-scaling-stroke" d="
  M 574.98 571.55
  Q 566.71 575.27 560.02 580.94"
/>
<path stroke="#250044" vector-effect="non-scaling-stroke" d="
  M 622.82 596.34
  Q 620.76 587.16 615.88 579.37"
/>
<path stroke="#250044" vector-effect="non-scaling-stroke" d="
  M 552.49 588.94
  C 552.29 589.69 552.26 590.43 551.86 591.10
  Q 548.10 597.50 546.43 604.84"
/>
<path stroke="#250044" vector-effect="non-scaling-stroke" d="
  M 1374.69 647.54
  Q 1366.54 647.21 1358.17 649.38"
/>
<path stroke="#250044" vector-effect="non-scaling-stroke" d="
  M 1399.28 659.27
  Q 1398.24 658.37 1395.54 655.71
  Q 1391.93 652.15 1386.08 650.00"
/>
<path stroke="#250044" vector-effect="non-scaling-stroke" d="
  M 1343.96 656.01
  Q 1336.16 661.32 1329.97 669.30"
/>
<path stroke="#f098a4" vector-effect="non-scaling-stroke" d="
  M 663.67 650.05
  A 0.94 0.94 0.0 0 0 662.73 649.11
  L 466.23 649.11
  A 0.94 0.94 0.0 0 0 465.29 650.05
  L 465.29 661.37
  A 0.94 0.94 0.0 0 0 466.23 662.31
  L 662.73 662.31
  A 0.94 0.94 0.0 0 0 663.67 661.37
  L 663.67 650.05"
/>
<path stroke="#250044" vector-effect="non-scaling-stroke" d="
  M 1407.94 679.74
  L 1404.26 667.68"
/>
<path stroke="#25b3c3" vector-effect="non-scaling-stroke" d="
  M 1381.98 755.32
  C 1381.34 728.75 1364.10 707.91 1338.00 703.82
  Q 1329.15 702.44 1321.15 706.12"
/>
<path stroke="#25b3c3" vector-effect="non-scaling-stroke" d="
  M 1390.14 732.23
  Q 1389.36 733.93 1388.39 735.62
  A 0.29 0.29 0.0 0 0 1388.50 736.02
  L 1388.73 736.14
  A 0.30 0.30 0.0 0 0 1389.13 736.03
  Q 1399.44 719.21 1400.41 698.98
  Q 1401.01 686.34 1397.18 675.67
  Q 1396.91 674.94 1396.19 675.09
  Q 1395.69 675.19 1395.75 675.70
  C 1396.47 681.43 1397.74 686.98 1397.95 692.78
  Q 1398.72 713.66 1390.14 732.23"
/>
<path stroke="#25b3c3" vector-effect="non-scaling-stroke" d="
  M 1377.23 765.98
  Q 1378.43 751.76 1373.43 739.83
  C 1364.14 717.68 1341.43 704.59 1317.25 709.75"
/>
<path stroke="#9d7184" vector-effect="non-scaling-stroke" d="
  M 978.11 1196.23
  Q 984.47 1181.28 991.88 1167.76"
/>
<path stroke="#25b3c3" vector-effect="non-scaling-stroke" d="
  M 991.88 1167.76
  Q 1016.06 1154.38 1034.12 1140.11
  Q 1035.56 1138.97 1034.86 1137.12
  Q 1034.68 1136.63 1034.27 1136.95
  Q 1015.40 1151.36 994.10 1163.26"
/>
<path stroke="#25b3c3" vector-effect="non-scaling-stroke" d="
  M 1010.02 1130.73
  Q 1025.72 1120.14 1034.61 1111.60
  Q 1035.34 1110.90 1034.91 1109.46
  Q 1034.76 1108.97 1034.38 1109.32
  Q 1023.86 1119.00 1011.30 1127.58"
/>
<path stroke="#25b3c3" vector-effect="non-scaling-stroke" d="
  M 640.77 761.68
  Q 652.82 774.14 666.30 784.65
  Q 669.17 786.89 672.17 788.90
  Q 672.28 788.98 672.36 788.87
  L 672.53 788.65
  Q 672.77 788.33 672.48 788.06
  Q 669.28 785.18 661.05 778.70
  Q 653.17 772.49 643.27 761.65"
/>
<path stroke="#25b3c3" vector-effect="non-scaling-stroke" d="
  M 704.10 742.42
  Q 697.93 750.98 694.81 762.00
  C 691.18 774.80 690.36 788.01 689.69 801.53
  Q 689.51 805.18 690.27 808.35
  Q 690.77 810.45 691.37 808.38
  C 691.66 807.42 692.00 806.13 692.01 805.15
  C 692.29 776.66 696.25 741.81 724.86 726.85
  Q 730.78 723.76 740.06 722.62
  Q 742.10 722.37 740.93 720.05"
/>
<path stroke="#25b3c3" vector-effect="non-scaling-stroke" d="
  M 757.24 717.08
  Q 757.40 717.49 757.75 717.48
  Q 798.12 716.62 838.50 716.28
  C 853.50 716.16 870.02 716.52 883.49 716.67
  Q 954.00 717.41 1024.26 723.45
  Q 1064.95 726.95 1096.14 731.60
  C 1121.17 735.34 1146.92 742.19 1169.26 754.28
  Q 1169.91 754.64 1170.14 753.98"
/>
<path stroke="#25b3c3" vector-effect="non-scaling-stroke" d="
  M 1252.76 853.16
  Q 1282.52 843.66 1306.71 830.45
  Q 1324.38 820.79 1339.88 807.52
  Q 1349.95 798.89 1358.48 787.36
  Q 1364.00 779.89 1367.31 771.84
  A 0.40 0.40 0.0 0 0 1366.92 771.29
  L 1366.58 771.31
  A 1.50 1.50 0.0 0 0 1365.33 772.10
  Q 1354.06 792.92 1336.09 808.07
  Q 1321.74 820.16 1305.12 828.88
  Q 1293.22 835.11 1280.81 840.34
  Q 1263.08 847.82 1245.25 854.93
  Q 1245.06 855.01 1245.13 855.20
  L 1245.21 855.45
  Q 1245.25 855.56 1245.36 855.53
  Q 1249.05 854.35 1252.76 853.16"
/>
<path stroke="#25b3c3" vector-effect="non-scaling-stroke" d="
  M 1306.56 816.37
  Q 1322.29 808.34 1334.59 794.59
  Q 1337.94 790.84 1340.21 787.07
  A 0.64 0.63 -68.6 0 0 1339.80 786.12
  Q 1339.41 786.04 1339.16 786.32
  Q 1335.61 790.37 1332.14 794.22
  Q 1320.95 806.64 1306.16 815.74
  Q 1306.01 815.84 1306.09 815.99
  L 1306.24 816.27
  Q 1306.35 816.47 1306.56 816.37"
/>
<path stroke="#25b3c3" vector-effect="non-scaling-stroke" d="
  M 1002.00 853.43
  Q 1002.00 852.77 1002.66 852.88
  C 1063.68 863.02 1123.89 879.31 1182.12 899.47
  Q 1185.57 900.67 1186.85 897.18
  Q 1187.12 896.45 1186.90 895.65
  Q 1186.12 892.87 1183.41 891.88
  C 1124.57 870.36 1063.96 855.39 1002.03 845.86
  Q 1001.33 845.75 1001.20 845.05
  Q 996.57 820.72 974.73 806.82
  C 943.72 787.10 905.68 801.97 891.48 834.17
  Q 891.24 834.71 890.65 834.68
  Q 821.03 831.41 747.11 838.13
  Q 732.17 839.48 719.44 842.65
  Q 718.95 842.78 718.80 843.26
  Q 718.57 844.02 718.75 844.87
  Q 718.85 845.38 719.36 845.47
  Q 720.54 845.68 721.75 845.67
  Q 731.54 845.60 740.13 844.73
  Q 813.21 837.32 888.75 840.73
  Q 889.35 840.76 889.21 841.34
  Q 884.95 858.75 891.07 874.19
  C 900.14 897.08 923.21 912.82 948.08 912.14
  Q 964.65 911.69 978.87 901.27
  C 993.99 890.19 1001.84 872.19 1002.00 853.43"
/>
<path stroke="#25b3c3" vector-effect="non-scaling-stroke" d="
  M 1219.85 864.49
  L 1220.11 864.35
  Q 1220.94 863.92 1220.94 862.98
  C 1220.96 856.21 1221.46 849.69 1221.45 843.14
  Q 1221.43 825.96 1221.98 808.69
  Q 1222.12 804.30 1221.63 800.28
  Q 1221.56 799.75 1221.08 799.54
  Q 1220.35 799.23 1219.75 799.66
  Q 1219.28 800.01 1219.19 801.02
  C 1218.49 808.57 1219.12 816.84 1219.00 823.16
  Q 1218.63 844.41 1219.16 864.08
  A 0.47 0.47 0.0 0 0 1219.85 864.49"
/>
<path stroke="#25b3c3" vector-effect="non-scaling-stroke" d="
  M 1151.37 979.07
  C 1154.30 970.38 1157.07 961.41 1159.00 952.40
  A 0.48 0.48 0.0 0 0 1158.57 951.82
  L 1158.27 951.78
  Q 1157.77 951.73 1157.61 952.21
  L 1148.78 979.33
  Q 1148.64 979.74 1149.08 979.74
  L 1150.45 979.73
  A 0.98 0.97 -80.3 0 0 1151.37 979.07"
/>
<path stroke="#25b3c3" vector-effect="non-scaling-stroke" d="
  M 1159.51 1038.54
  C 1113.50 1046.33 1076.48 1084.74 1071.65 1131.53
  C 1068.46 1162.44 1077.12 1194.52 1098.75 1217.01
  Q 1120.78 1239.91 1149.83 1240.18
  C 1160.35 1240.28 1172.09 1240.06 1182.50 1238.60
  Q 1182.97 1238.54 1183.41 1238.32
  Q 1183.88 1238.09 1184.38 1238.00
  Q 1189.30 1237.06 1194.20 1235.87
  Q 1195.10 1235.65 1196.01 1235.41
  Q 1223.58 1227.96 1244.59 1208.86
  C 1268.45 1187.16 1280.10 1156.12 1275.47 1123.88
  C 1271.61 1096.93 1258.26 1073.56 1236.52 1057.97
  Q 1222.50 1047.92 1206.79 1042.96
  Q 1203.58 1041.95 1200.28 1041.02
  Q 1196.90 1040.07 1193.55 1039.57
  Q 1185.67 1038.39 1178.11 1037.59
  C 1176.65 1037.44 1175.63 1038.14 1174.23 1037.82
  C 1172.03 1037.34 1169.26 1037.89 1167.04 1038.21
  C 1164.53 1038.58 1162.12 1038.10 1159.51 1038.54"
/>
<path stroke="#25b3c3" vector-effect="non-scaling-stroke" d="
  M 1478.70 1082.15
  L 1478.74 1060.13
  A 1.62 1.62 0.0 0 0 1477.12 1058.51
  L 1331.67 1058.25
  A 3.09 1.24 0.1 0 0 1328.58 1059.49
  L 1328.54 1082.27
  A 3.09 1.24 0.1 0 0 1331.63 1083.51
  L 1477.08 1083.77
  A 1.62 1.62 0.0 0 0 1478.70 1082.15"
/>
<path stroke="#25b3c3" vector-effect="non-scaling-stroke" d="
  M 1445.33 1133.33
  A 0.96 0.96 0.0 0 0 1444.37 1132.37
  L 1329.53 1132.37
  A 0.96 0.96 0.0 0 0 1328.57 1133.33
  L 1328.57 1156.53
  A 0.96 0.96 0.0 0 0 1329.53 1157.49
  L 1444.37 1157.49
  A 0.96 0.96 0.0 0 0 1445.33 1156.53
  L 1445.33 1133.33"
/>
<path stroke="#25b3c3" vector-effect="non-scaling-stroke" d="
  M 1478.7001 1207.3710
  A 0.96 0.96 0.0 0 0 1477.7418 1206.4093
  L 1329.5620 1206.1507
  A 0.96 0.96 0.0 0 0 1328.6004 1207.1090
  L 1328.5599 1230.3090
  A 0.96 0.96 0.0 0 0 1329.5182 1231.2707
  L 1477.6980 1231.5293
  A 0.96 0.96 0.0 0 0 1478.6596 1230.5710
  L 1478.7001 1207.3710"
/>
<path stroke="#ed8e8d" vector-effect="non-scaling-stroke" d="
  M 382.86 930.36
  Q 381.65 938.98 378.69 945.21
  C 365.45 973.08 337.91 991.88 306.80 994.44
  C 263.44 998.01 225.64 976.07 202.65 939.86
  Q 199.33 934.64 199.48 929.21"
/>
<path stroke="#8e778a" vector-effect="non-scaling-stroke" d="
  M 290.38 749.95
  L 290.38 750.27
  A 0.23 0.23 0.0 0 0 290.71 750.48
  C 296.01 747.93 300.07 747.25 305.36 746.38
  Q 307.20 746.07 305.37 745.70
  Q 298.47 744.31 290.66 749.45
  Q 290.39 749.63 290.38 749.95"
/>
<path stroke="#8e778a" vector-effect="non-scaling-stroke" d="
  M 255.73 753.62
  Q 261.01 752.32 267.26 752.67
  Q 267.55 752.69 267.76 752.48
  Q 267.91 752.32 267.83 752.17
  Q 267.56 751.68 267.00 751.54
  Q 259.36 749.66 252.00 753.81
  Q 251.02 754.37 252.14 754.25
  Q 253.96 754.05 255.73 753.62"
/>
<path stroke="#250044" vector-effect="non-scaling-stroke" d="
  M 898.04 850.72
  Q 897.31 856.73 898.68 863.45
  C 902.72 883.20 918.99 897.83 938.41 901.16
  C 963.49 905.46 985.55 888.60 990.48 864.31
  Q 993.95 847.28 985.95 832.69
  C 981.62 824.79 973.81 817.40 965.82 813.54
  Q 941.84 801.96 920.07 815.69
  Q 900.83 827.82 898.04 850.72"
/>
</g>
<path fill="#25b3c3" d="
  M 860.77 1.25
  C 861.60 1.22 862.21 0.87 862.99 0.87
  Q 870.50 0.88 878.03 0.85
  C 879.00 0.85 879.79 0.49 880.78 0.49
  Q 906.64 0.50 932.24 0.48
  C 933.84 0.48 935.57 1.04 937.00 0.96
  Q 944.73 0.55 952.43 1.30
  Q 953.02 1.35 953.02 1.94
  Q 953.03 7.22 952.98 12.54
  Q 952.96 14.19 952.79 15.84
  Q 952.52 18.48 952.52 19.18
  Q 952.54 27.70 952.33 37.50
  Q 952.31 38.37 952.30 39.25
  Q 952.11 49.13 951.94 59.00
  Q 951.91 60.27 951.90 61.50
  Q 951.70 78.06 951.65 82.25
  Q 951.65 82.58 951.48 82.87
  Q 951.18 83.38 951.19 83.97
  Q 951.35 93.53 951.19 103.35
  C 951.17 104.45 950.78 105.27 950.78 106.32
  Q 950.77 113.91 950.77 121.93
  A 0.38 0.38 0.0 0 1 950.42 122.31
  Q 937.77 123.30 925.00 123.47
  C 923.69 123.49 922.59 123.73 921.30 123.74
  Q 904.24 123.94 885.00 123.66
  Q 884.27 123.65 883.50 123.61
  Q 875.47 123.24 868.00 123.41
  Q 867.59 123.42 867.19 123.23
  Q 866.68 122.99 866.12 122.99
  Q 862.75 123.02 859.31 122.99
  Q 855.85 122.96 851.99 122.62
  C 848.39 122.30 844.78 122.65 841.06 122.29
  Q 836.26 121.83 830.87 122.05
  C 829.53 122.10 828.50 121.56 827.15 121.60
  Q 819.01 121.86 810.72 121.17
  Q 810.23 121.13 810.23 120.63
  Q 810.21 94.50 810.25 67.09
  C 810.25 66.08 810.62 65.24 810.62 64.25
  Q 810.65 37.27 810.61 9.21
  C 810.61 7.60 811.08 6.00 811.08 4.42
  Q 811.08 3.34 812.15 3.28
  Q 818.27 2.94 824.17 2.73
  Q 827.25 2.63 830.32 2.35
  C 833.10 2.11 835.72 2.30 838.55 1.98
  Q 842.88 1.49 847.26 1.76
  C 848.62 1.85 849.57 1.25 850.93 1.28
  Q 855.70 1.39 860.77 1.25
  Z
  M 903.79 72.59
  A 0.84 0.84 0.0 0 1 904.02 71.78
  L 925.14 51.47
  A 1.12 1.12 0.0 0 0 924.47 49.55
  Q 911.07 48.38 896.50 45.34
  A 1.49 1.49 0.0 0 1 895.39 44.37
  Q 891.62 33.76 886.06 23.88
  Q 884.33 20.80 881.81 17.66
  A 0.35 0.35 0.0 0 0 881.25 17.69
  Q 880.64 18.60 880.18 19.51
  Q 874.35 31.16 868.93 43.26
  A 2.55 2.55 0.0 0 1 866.90 44.75
  Q 850.80 46.67 838.00 49.16
  A 0.68 0.68 0.0 0 0 837.65 50.31
  L 858.78 71.11
  Q 859.17 71.49 859.12 72.03
  Q 857.83 85.83 854.22 100.58
  A 0.83 0.82 83.1 0 0 855.40 101.51
  L 880.91 87.98
  A 1.84 1.83 -45.2 0 1 882.63 87.97
  L 908.10 101.01
  A 0.80 0.79 -80.5 0 0 909.25 100.18
  Q 907.30 85.88 903.79 72.59
  Z"
/>
<path fill="#ffffff" d="
  M 903.79 72.59
  Q 907.30 85.88 909.25 100.18
  A 0.80 0.79 -80.5 0 1 908.10 101.01
  L 882.63 87.97
  A 1.84 1.83 -45.2 0 0 880.91 87.98
  L 855.40 101.51
  A 0.83 0.82 83.1 0 1 854.22 100.58
  Q 857.83 85.83 859.12 72.03
  Q 859.17 71.49 858.78 71.11
  L 837.65 50.31
  A 0.68 0.68 0.0 0 1 838.00 49.16
  Q 850.80 46.67 866.90 44.75
  A 2.55 2.55 0.0 0 0 868.93 43.26
  Q 874.35 31.16 880.18 19.51
  Q 880.64 18.60 881.25 17.69
  A 0.35 0.35 0.0 0 1 881.81 17.66
  Q 884.33 20.80 886.06 23.88
  Q 891.62 33.76 895.39 44.37
  A 1.49 1.49 0.0 0 0 896.50 45.34
  Q 911.07 48.38 924.47 49.55
  A 1.12 1.12 0.0 0 1 925.14 51.47
  L 904.02 71.78
  A 0.84 0.84 0.0 0 0 903.79 72.59
  Z"
/>
<path fill="#25b3c3" d="
  M 1167.98 249.07
  Q 1168.59 248.31 1167.61 248.33
  Q 1160.36 248.53 1153.61 247.36
  C 1149.13 246.58 1144.09 242.96 1145.81 237.92
  Q 1146.38 236.26 1146.44 234.53
  Q 1146.90 222.25 1146.80 209.99
  C 1146.77 207.30 1147.24 204.74 1147.22 202.08
  Q 1147.13 189.17 1147.36 175.50
  C 1147.37 175.01 1147.71 174.37 1147.71 173.81
  Q 1147.61 160.49 1147.85 147.16
  Q 1147.87 145.74 1147.92 144.35
  Q 1148.04 141.22 1148.03 137.99
  Q 1148.01 127.22 1148.69 119.99
  Q 1149.02 116.52 1151.93 113.93
  C 1155.96 110.34 1162.62 112.27 1167.48 112.26
  Q 1185.76 112.24 1205.07 112.13
  C 1207.01 112.12 1208.80 111.86 1210.74 111.86
  Q 1236.06 111.94 1256.12 111.57
  Q 1271.54 111.29 1286.81 111.35
  C 1288.41 111.36 1289.90 110.99 1291.51 110.98
  Q 1298.91 110.93 1307.18 110.89
  Q 1313.22 110.86 1319.26 110.68
  Q 1347.43 109.85 1375.75 109.72
  Q 1376.63 109.71 1377.50 109.70
  Q 1407.80 109.31 1434.50 109.37
  C 1439.94 109.38 1442.36 115.64 1442.09 120.32
  C 1441.78 125.80 1440.22 131.27 1439.47 136.86
  C 1436.94 155.72 1436.92 174.16 1437.47 193.22
  Q 1438.01 211.73 1437.70 231.12
  Q 1437.64 234.62 1437.00 237.41
  Q 1436.63 239.02 1435.03 240.30
  Q 1433.78 241.30 1432.19 241.29
  Q 1423.18 241.27 1414.50 241.27
  C 1413.05 241.27 1411.72 241.67 1410.24 241.67
  Q 1348.07 241.72 1286.12 241.71
  C 1278.54 241.71 1270.79 242.20 1263.13 242.17
  C 1259.19 242.16 1254.91 242.63 1250.78 242.54
  C 1246.46 242.44 1242.06 243.24 1237.70 243.02
  C 1236.06 242.93 1234.48 243.43 1232.82 243.44
  Q 1227.78 243.45 1222.52 243.92
  Q 1220.42 244.11 1218.63 245.29
  Q 1180.68 270.23 1140.34 294.64
  Q 1139.66 295.05 1138.90 295.32
  Q 1138.14 295.59 1138.48 294.86
  C 1145.72 279.52 1154.71 264.42 1165.62 251.64
  C 1166.38 250.76 1167.27 249.97 1167.98 249.07
  Z
  M 1200.32 170.85
  Q 1197.50 178.11 1201.10 184.70
  C 1204.40 190.73 1211.34 195.18 1218.11 195.27
  C 1229.53 195.42 1238.32 184.20 1235.92 173.19
  Q 1234.19 165.26 1227.94 161.11
  Q 1219.38 155.44 1209.03 160.70
  Q 1203.10 163.71 1200.32 170.85
  Z
  M 1273.74 171.65
  C 1270.29 181.61 1276.76 190.82 1286.08 194.16
  C 1299.84 199.09 1313.04 186.02 1309.37 172.26
  C 1304.30 153.23 1279.84 154.04 1273.74 171.65
  Z
  M 1383.1350 181.2457
  A 18.49 18.48 14.2 0 0 1369.7433 158.7946
  A 18.49 18.48 14.2 0 0 1347.2850 172.1743
  A 18.49 18.48 14.2 0 0 1360.6767 194.6254
  A 18.49 18.48 14.2 0 0 1383.1350 181.2457
  Z"
/>
<path fill="#25b3c3" d="
  M 624.00 124.58
  C 646.01 124.95 668.35 125.71 690.12 126.36
  Q 693.97 126.48 695.81 127.24
  C 703.75 130.50 705.04 143.57 705.21 150.93
  Q 705.38 158.59 705.12 170.71
  Q 704.53 198.85 704.84 219.23
  C 704.86 220.58 704.62 221.90 704.61 223.27
  C 704.48 241.34 704.48 259.42 704.26 277.50
  Q 703.93 303.75 703.83 330.00
  Q 703.83 330.99 703.82 332.00
  Q 703.64 367.88 703.14 403.52
  A 2.34 2.34 0.0 0 0 703.59 404.93
  Q 723.74 432.87 744.04 461.27
  C 746.87 465.24 747.11 471.39 741.20 472.93
  Q 737.08 474.00 732.71 471.90
  Q 698.00 455.21 659.69 433.59
  Q 655.65 431.31 650.93 429.12
  Q 649.75 428.58 648.46 428.57
  Q 637.15 428.48 626.24 428.57
  C 624.94 428.58 623.72 428.88 622.40 428.88
  Q 575.87 428.85 524.41 429.02
  C 523.66 429.02 522.97 429.25 522.19 429.25
  Q 475.15 429.27 423.26 429.49
  C 422.41 429.49 421.61 429.77 420.83 429.76
  Q 378.21 429.69 336.51 429.87
  C 333.66 429.88 330.16 430.39 327.50 430.23
  Q 319.89 429.78 312.10 429.64
  Q 309.87 429.60 302.79 428.65
  C 298.01 428.01 291.05 426.47 288.02 422.80
  Q 286.94 421.48 286.95 418.99
  Q 286.95 409.58 287.03 400.50
  Q 288.15 268.75 289.27 136.99
  A 2.30 2.25 -27.6 0 1 289.69 135.71
  C 297.11 125.22 313.38 123.74 325.50 123.53
  Q 430.34 121.70 519.25 122.68
  Q 546.31 122.98 596.66 123.86
  C 603.95 123.99 611.58 124.43 619.00 124.23
  C 620.70 124.19 622.31 124.55 624.00 124.58
  Z
  M 481.45 289.17
  Q 486.31 333.52 491.85 381.05
  C 492.24 384.38 496.61 384.74 497.01 381.27
  Q 502.47 334.59 507.86 289.73
  Q 507.95 289.01 508.67 289.01
  L 512.81 288.99
  Q 513.43 288.99 513.59 289.60
  Q 519.15 310.56 524.76 331.50
  C 525.47 334.12 528.93 334.46 529.61 331.79
  Q 534.64 312.06 540.07 290.01
  Q 540.20 289.48 540.75 289.48
  L 543.21 289.48
  Q 543.73 289.48 543.85 289.99
  Q 547.23 303.80 554.05 319.12
  Q 554.72 320.62 555.83 321.70
  Q 556.19 322.05 556.70 321.96
  Q 558.66 321.57 559.33 319.91
  Q 564.30 307.58 568.20 290.48
  Q 568.30 290.03 568.76 289.92
  Q 569.29 289.81 569.89 289.88
  Q 570.45 289.95 570.57 290.51
  L 573.14 303.00
  A 2.17 2.17 0.0 0 0 575.67 304.69
  Q 577.70 304.29 578.02 302.17
  Q 578.83 296.71 579.52 290.27
  A 0.44 0.43 3.5 0 1 579.97 289.88
  L 616.58 290.40
  Q 617.15 290.41 617.30 290.96
  Q 621.28 305.31 625.80 320.92
  C 626.68 323.97 630.56 324.20 631.22 320.69
  Q 633.98 306.07 636.62 291.31
  A 0.67 0.67 0.0 0 1 637.27 290.76
  L 638.20 290.75
  Q 638.92 290.73 639.07 291.44
  L 644.73 318.08
  Q 645.16 320.10 647.22 320.26
  Q 647.69 320.30 648.08 320.13
  Q 650.62 319.06 650.04 316.37
  L 644.73 291.43
  A 0.60 0.60 0.0 0 1 645.33 290.71
  L 669.08 291.11
  Q 671.95 291.16 672.40 288.33
  Q 672.48 287.85 672.27 287.37
  Q 671.40 285.34 669.20 285.30
  L 644.00 284.83
  Q 643.30 284.81 643.15 284.12
  Q 641.81 277.86 640.40 270.97
  C 639.97 268.84 638.05 267.60 635.96 268.83
  C 635.13 269.33 634.93 270.18 634.77 271.05
  Q 633.59 277.43 632.37 284.13
  Q 632.24 284.80 631.56 284.79
  L 621.47 284.57
  Q 620.84 284.56 620.66 283.96
  Q 605.62 232.88 591.94 185.31
  C 591.01 182.06 587.67 184.03 587.36 186.42
  Q 581.47 233.37 575.42 282.88
  A 0.58 0.57 -80.3 0 1 574.73 283.37
  Q 574.25 283.26 574.14 282.77
  Q 572.82 276.65 571.64 270.94
  C 571.03 267.97 567.01 267.64 566.59 270.95
  Q 565.79 277.25 564.56 283.36
  Q 564.46 283.87 563.94 283.86
  L 547.81 283.54
  Q 547.38 283.53 547.30 283.11
  Q 546.01 276.86 545.12 270.01
  C 544.74 267.10 540.93 265.67 540.04 269.15
  Q 538.28 276.01 536.62 282.84
  A 0.87 0.86 7.0 0 1 535.76 283.50
  L 517.76 283.19
  A 0.94 0.93 83.1 0 1 516.87 282.49
  L 511.01 260.54
  A 2.10 2.09 74.3 0 0 508.40 259.07
  Q 506.49 259.63 506.24 261.49
  Q 505.07 270.20 503.69 282.46
  Q 503.62 283.06 503.01 283.05
  L 486.01 282.74
  Q 485.66 282.73 485.62 282.39
  Q 481.09 244.29 476.02 200.97
  Q 475.73 198.51 473.68 198.26
  A 1.81 1.79 7.8 0 0 471.69 199.76
  L 458.86 281.75
  Q 458.75 282.48 458.01 282.47
  L 453.39 282.42
  A 0.56 0.56 0.0 0 1 452.86 281.99
  Q 449.71 269.05 446.53 255.79
  C 446.26 254.66 445.35 253.97 444.17 253.99
  A 2.12 2.12 0.0 0 0 442.17 255.53
  L 434.70 281.58
  A 0.80 0.79 7.9 0 1 433.92 282.16
  L 425.55 281.99
  Q 425.03 281.98 424.89 281.48
  L 416.11 251.51
  A 2.08 2.07 -9.5 0 0 414.03 250.03
  Q 412.35 250.10 411.83 251.65
  Q 407.11 265.88 404.05 280.80
  Q 403.95 281.30 403.50 281.54
  Q 402.76 281.93 401.97 281.64
  A 0.73 0.72 7.6 0 1 401.51 281.05
  Q 396.23 235.70 388.13 189.93
  A 1.95 1.92 3.0 0 0 386.74 188.41
  Q 384.27 187.71 383.87 190.41
  Q 377.07 237.18 366.98 280.28
  Q 366.83 280.95 366.14 280.95
  C 353.41 280.93 340.98 280.49 328.68 281.38
  Q 327.58 281.46 326.96 283.19
  Q 326.84 283.52 326.99 283.99
  Q 327.61 286.00 329.70 286.10
  L 345.54 286.88
  A 0.69 0.68 85.1 0 1 346.18 287.43
  Q 350.09 306.94 354.90 328.97
  C 355.28 330.72 357.35 331.53 358.66 330.22
  Q 359.38 329.49 359.73 328.25
  Q 365.27 308.32 369.92 287.97
  Q 370.05 287.39 370.65 287.40
  L 397.01 287.67
  Q 397.68 287.67 397.74 288.34
  Q 398.69 298.50 399.72 308.61
  A 2.40 2.14 77.4 0 0 402.65 310.72
  Q 404.12 310.16 404.31 308.50
  Q 405.48 298.22 407.21 288.33
  Q 407.32 287.69 407.97 287.69
  L 421.46 287.77
  Q 422.02 287.77 422.17 288.31
  Q 424.65 296.89 427.64 307.03
  Q 428.23 309.04 430.15 308.85
  A 2.23 2.23 0.0 0 0 432.07 307.25
  L 437.37 288.62
  A 0.66 0.66 0.0 0 1 438.00 288.15
  L 449.19 288.13
  Q 449.77 288.13 449.91 288.70
  L 454.81 308.84
  A 2.05 2.05 0.0 0 0 455.90 310.19
  C 457.80 311.10 459.03 309.76 459.28 308.06
  Q 460.87 297.65 462.23 288.85
  A 0.53 0.52 4.5 0 1 462.75 288.41
  L 480.81 288.59
  Q 481.39 288.60 481.45 289.17
  Z"
/>
<path fill="#ffffff" d="
  M 1200.32 170.85
  Q 1203.10 163.71 1209.03 160.70
  Q 1219.38 155.44 1227.94 161.11
  Q 1234.19 165.26 1235.92 173.19
  C 1238.32 184.20 1229.53 195.42 1218.11 195.27
  C 1211.34 195.18 1204.40 190.73 1201.10 184.70
  Q 1197.50 178.11 1200.32 170.85
  Z"
/>
<path fill="#ffffff" d="
  M 1273.74 171.65
  C 1279.84 154.04 1304.30 153.23 1309.37 172.26
  C 1313.04 186.02 1299.84 199.09 1286.08 194.16
  C 1276.76 190.82 1270.29 181.61 1273.74 171.65
  Z"
/>
<ellipse fill="#ffffff" cx="0.00" cy="0.00" transform="translate(1365.21,176.71) rotate(14.2)" rx="18.49" ry="18.48"/>
<path fill="#25b3c3" d="
  M 812.72 164.22
  Q 812.95 164.00 813.25 164.00
  C 816.23 163.97 818.99 164.10 821.92 163.68
  C 824.56 163.31 827.19 163.61 829.96 163.28
  C 833.02 162.92 836.16 163.17 839.30 162.89
  Q 842.19 162.64 845.30 162.64
  Q 848.12 162.64 851.21 162.40
  Q 856.47 161.98 861.75 162.31
  C 862.45 162.35 863.30 161.77 864.11 161.77
  Q 872.20 161.73 880.50 161.76
  C 881.36 161.76 882.26 161.32 883.25 161.32
  Q 908.01 161.31 930.71 161.31
  C 931.70 161.31 932.43 161.71 933.41 161.72
  Q 939.67 161.78 946.33 161.73
  Q 948.03 161.72 949.61 162.10
  Q 950.95 162.41 952.32 162.16
  A 0.64 0.63 -4.5 0 1 953.07 162.79
  L 950.68 282.61
  A 0.68 0.68 0.0 0 1 950.04 283.28
  Q 946.17 283.53 942.57 283.65
  Q 941.88 283.67 934.96 284.14
  Q 930.81 284.41 926.27 284.21
  C 925.07 284.16 923.84 284.74 922.54 284.74
  Q 903.16 284.75 884.26 284.73
  C 883.01 284.73 881.91 284.26 880.65 284.27
  Q 872.63 284.36 867.00 284.10
  Q 862.21 283.88 857.68 283.76
  Q 853.77 283.66 849.85 283.45
  Q 847.23 283.31 844.61 283.33
  Q 842.34 283.36 839.59 283.16
  Q 834.29 282.79 829.26 282.98
  C 828.30 283.01 827.54 282.52 826.53 282.51
  Q 820.77 282.49 814.90 282.53
  C 813.43 282.54 812.25 281.94 810.86 282.06
  Q 810.24 282.11 810.24 281.49
  Q 810.07 250.55 810.46 227.75
  Q 810.49 226.38 810.50 225.00
  Q 810.77 196.56 810.62 170.17
  C 810.61 168.35 811.19 166.70 811.01 164.93
  Q 810.96 164.36 811.53 164.43
  L 811.93 164.48
  Q 812.39 164.54 812.72 164.22
  Z
  M 876.63 221.36
  Q 864.92 230.19 853.42 239.52
  Q 843.24 247.79 834.78 257.39
  Q 833.31 259.05 833.57 261.21
  A 2.22 2.22 0.0 0 0 836.38 263.08
  Q 838.94 262.35 840.83 260.81
  Q 860.86 244.47 882.37 228.01
  A 0.70 0.69 42.4 0 1 883.16 227.98
  Q 888.30 231.35 895.03 232.56
  C 896.63 232.85 897.93 233.40 899.61 233.04
  C 902.65 232.38 905.96 231.94 908.64 230.34
  C 913.94 227.16 919.63 223.50 922.74 217.96
  Q 929.44 206.01 921.47 193.82
  Q 918.25 188.89 913.09 186.43
  C 905.23 182.68 895.44 181.63 888.00 186.76
  C 882.30 190.69 876.75 196.99 875.08 203.80
  Q 872.89 212.79 876.85 220.39
  Q 877.15 220.97 876.63 221.36
  Z"
/>
<path fill="#ffffff" d="
  M 876.85 220.39
  Q 872.89 212.79 875.08 203.80
  C 876.75 196.99 882.30 190.69 888.00 186.76
  C 895.44 181.63 905.23 182.68 913.09 186.43
  Q 918.25 188.89 921.47 193.82
  Q 929.44 206.01 922.74 217.96
  C 919.63 223.50 913.94 227.16 908.64 230.34
  C 905.96 231.94 902.65 232.38 899.61 233.04
  C 897.93 233.40 896.63 232.85 895.03 232.56
  Q 888.30 231.35 883.16 227.98
  A 0.70 0.69 42.4 0 0 882.37 228.01
  Q 860.86 244.47 840.83 260.81
  Q 838.94 262.35 836.38 263.08
  A 2.22 2.22 0.0 0 1 833.57 261.21
  Q 833.31 259.05 834.78 257.39
  Q 843.24 247.79 853.42 239.52
  Q 864.92 230.19 876.63 221.36
  Q 877.15 220.97 876.85 220.39
  Z
  M 900.69 221.55
  C 909.65 218.97 917.52 212.88 914.66 202.75
  C 913.87 199.97 911.05 198.00 909.05 196.01
  C 903.96 190.96 895.71 191.49 890.43 195.51
  Q 881.90 201.99 883.44 213.04
  C 884.09 217.72 890.97 221.08 894.81 221.90
  Q 897.47 222.47 900.69 221.55
  Z"
/>
<path fill="#ffffff" d="
  M 480.81 288.59
  L 462.75 288.41
  A 0.53 0.52 4.5 0 0 462.23 288.85
  Q 460.87 297.65 459.28 308.06
  C 459.03 309.76 457.80 311.10 455.90 310.19
  A 2.05 2.05 0.0 0 1 454.81 308.84
  L 449.91 288.70
  Q 449.77 288.13 449.19 288.13
  L 438.00 288.15
  A 0.66 0.66 0.0 0 0 437.37 288.62
  L 432.07 307.25
  A 2.23 2.23 0.0 0 1 430.15 308.85
  Q 428.23 309.04 427.64 307.03
  Q 424.65 296.89 422.17 288.31
  Q 422.02 287.77 421.46 287.77
  L 407.97 287.69
  Q 407.32 287.69 407.21 288.33
  Q 405.48 298.22 404.31 308.50
  Q 404.12 310.16 402.65 310.72
  A 2.40 2.14 77.4 0 1 399.72 308.61
  Q 398.69 298.50 397.74 288.34
  Q 397.68 287.67 397.01 287.67
  L 370.65 287.40
  Q 370.05 287.39 369.92 287.97
  Q 365.27 308.32 359.73 328.25
  Q 359.38 329.49 358.66 330.22
  C 357.35 331.53 355.28 330.72 354.90 328.97
  Q 350.09 306.94 346.18 287.43
  A 0.69 0.68 85.1 0 0 345.54 286.88
  L 329.70 286.10
  Q 327.61 286.00 326.99 283.99
  Q 326.84 283.52 326.96 283.19
  Q 327.58 281.46 328.68 281.38
  C 340.98 280.49 353.41 280.93 366.14 280.95
  Q 366.83 280.95 366.98 280.28
  Q 377.07 237.18 383.87 190.41
  Q 384.27 187.71 386.74 188.41
  A 1.95 1.92 3.0 0 1 388.13 189.93
  Q 396.23 235.70 401.51 281.05
  A 0.73 0.72 7.6 0 0 401.97 281.64
  Q 402.76 281.93 403.50 281.54
  Q 403.95 281.30 404.05 280.80
  Q 407.11 265.88 411.83 251.65
  Q 412.35 250.10 414.03 250.03
  A 2.08 2.07 -9.5 0 1 416.11 251.51
  L 424.89 281.48
  Q 425.03 281.98 425.55 281.99
  L 433.92 282.16
  A 0.80 0.79 7.9 0 0 434.70 281.58
  L 442.17 255.53
  A 2.12 2.12 0.0 0 1 444.17 253.99
  C 445.35 253.97 446.26 254.66 446.53 255.79
  Q 449.71 269.05 452.86 281.99
  A 0.56 0.56 0.0 0 0 453.39 282.42
  L 458.01 282.47
  Q 458.75 282.48 458.86 281.75
  L 471.69 199.76
  A 1.81 1.79 7.8 0 1 473.68 198.26
  Q 475.73 198.51 476.02 200.97
  Q 481.09 244.29 485.62 282.39
  Q 485.66 282.73 486.01 282.74
  L 503.01 283.05
  Q 503.62 283.06 503.69 282.46
  Q 505.07 270.20 506.24 261.49
  Q 506.49 259.63 508.40 259.07
  A 2.10 2.09 74.3 0 1 511.01 260.54
  L 516.87 282.49
  A 0.94 0.93 83.1 0 0 517.76 283.19
  L 535.76 283.50
  A 0.87 0.86 7.0 0 0 536.62 282.84
  Q 538.28 276.01 540.04 269.15
  C 540.93 265.67 544.74 267.10 545.12 270.01
  Q 546.01 276.86 547.30 283.11
  Q 547.38 283.53 547.81 283.54
  L 563.94 283.86
  Q 564.46 283.87 564.56 283.36
  Q 565.79 277.25 566.59 270.95
  C 567.01 267.64 571.03 267.97 571.64 270.94
  Q 572.82 276.65 574.14 282.77
  Q 574.25 283.26 574.73 283.37
  A 0.58 0.57 -80.3 0 0 575.42 282.88
  Q 581.47 233.37 587.36 186.42
  C 587.67 184.03 591.01 182.06 591.94 185.31
  Q 605.62 232.88 620.66 283.96
  Q 620.84 284.56 621.47 284.57
  L 631.56 284.79
  Q 632.24 284.80 632.37 284.13
  Q 633.59 277.43 634.77 271.05
  C 634.93 270.18 635.13 269.33 635.96 268.83
  C 638.05 267.60 639.97 268.84 640.40 270.97
  Q 641.81 277.86 643.15 284.12
  Q 643.30 284.81 644.00 284.83
  L 669.20 285.30
  Q 671.40 285.34 672.27 287.37
  Q 672.48 287.85 672.40 288.33
  Q 671.95 291.16 669.08 291.11
  L 645.33 290.71
  A 0.60 0.60 0.0 0 0 644.73 291.43
  L 650.04 316.37
  Q 650.62 319.06 648.08 320.13
  Q 647.69 320.30 647.22 320.26
  Q 645.16 320.10 644.73 318.08
  L 639.07 291.44
  Q 638.92 290.73 638.20 290.75
  L 637.27 290.76
  A 0.67 0.67 0.0 0 0 636.62 291.31
  Q 633.98 306.07 631.22 320.69
  C 630.56 324.20 626.68 323.97 625.80 320.92
  Q 621.28 305.31 617.30 290.96
  Q 617.15 290.41 616.58 290.40
  L 579.97 289.88
  A 0.44 0.43 3.5 0 0 579.52 290.27
  Q 578.83 296.71 578.02 302.17
  Q 577.70 304.29 575.67 304.69
  A 2.17 2.17 0.0 0 1 573.14 303.00
  L 570.57 290.51
  Q 570.45 289.95 569.89 289.88
  Q 569.29 289.81 568.76 289.92
  Q 568.30 290.03 568.20 290.48
  Q 564.30 307.58 559.33 319.91
  Q 558.66 321.57 556.70 321.96
  Q 556.19 322.05 555.83 321.70
  Q 554.72 320.62 554.05 319.12
  Q 547.23 303.80 543.85 289.99
  Q 543.73 289.48 543.21 289.48
  L 540.75 289.48
  Q 540.20 289.48 540.07 290.01
  Q 534.64 312.06 529.61 331.79
  C 528.93 334.46 525.47 334.12 524.76 331.50
  Q 519.15 310.56 513.59 289.60
  Q 513.43 288.99 512.81 288.99
  L 508.67 289.01
  Q 507.95 289.01 507.86 289.73
  Q 502.47 334.59 497.01 381.27
  C 496.61 384.74 492.24 384.38 491.85 381.05
  Q 486.31 333.52 481.45 289.17
  Q 481.39 288.60 480.81 288.59
  Z"
/>
<path fill="#25b3c3" d="
  M 914.66 202.75
  C 917.52 212.88 909.65 218.97 900.69 221.55
  Q 897.47 222.47 894.81 221.90
  C 890.97 221.08 884.09 217.72 883.44 213.04
  Q 881.90 201.99 890.43 195.51
  C 895.71 191.49 903.96 190.96 909.05 196.01
  C 911.05 198.00 913.87 199.97 914.66 202.75
  Z"
/>
<path fill="#250044" d="
  M 1053.18 262.77
  Q 1048.59 261.51 1044.18 259.21
  Q 1043.98 259.11 1043.80 259.10
  Q 1043.25 259.08 1043.44 259.39
  Q 1043.33 258.89 1043.20 258.79
  C 1035.12 252.11 1031.76 242.18 1033.73 231.95
  C 1036.15 219.45 1046.14 209.52 1058.35 205.96
  C 1070.68 202.37 1081.87 206.89 1086.27 219.67
  C 1090.65 232.35 1086.83 246.64 1076.49 255.48
  Q 1066.48 264.04 1053.18 262.77
  Z"
/>
<path fill="#250044" d="
  M 1053.18 262.77
  Q 1032.59 297.22 1028.25 337.03
  Q 1028.20 337.53 1027.81 337.83
  L 1026.96 338.49
  Q 1018.78 336.16 1009.34 336.02
  Q 1017.22 301.18 1035.87 270.85
  Q 1038.58 266.44 1043.44 259.39
  Q 1043.25 259.08 1043.80 259.10
  Q 1043.98 259.11 1044.18 259.21
  Q 1048.59 261.51 1053.18 262.77
  Z"
/>
<path fill="#ffffff" d="
  M 1009.34 336.02
  Q 1018.78 336.16 1026.96 338.49
  Q 1050.37 342.70 1072.64 350.90
  C 1073.66 351.28 1074.98 351.09 1075.68 351.84
  Q 1076.03 352.20 1076.50 352.39
  Q 1113.94 366.88 1145.53 393.72
  Q 1146.31 394.38 1145.73 395.56
  Q 1144.55 396.07 1143.80 395.45
  C 1104.43 362.46 1056.96 342.59 1005.78 338.46
  C 961.56 334.89 917.21 344.19 877.75 364.12
  C 869.17 368.46 860.57 373.97 852.02 378.73
  Q 851.48 379.03 850.85 379.11
  Q 847.72 379.49 849.72 378.14
  C 853.18 375.77 856.61 372.97 860.00 370.92
  Q 911.35 339.89 971.23 335.79
  Q 976.21 335.45 983.27 335.46
  Q 988.92 335.46 995.33 335.46
  C 997.99 335.45 1001.08 335.97 1004.04 335.91
  Q 1004.86 335.89 1006.63 336.24
  Q 1008.07 336.53 1009.34 336.02
  Z"
/>
<path fill="#25b3c3" d="
  M 1465.89 383.78
  C 1465.71 389.11 1465.87 394.41 1465.52 400.03
  Q 1465.30 403.55 1465.33 407.09
  Q 1465.36 411.04 1465.06 414.89
  C 1464.78 418.40 1465.01 421.87 1464.71 425.42
  C 1464.34 429.92 1464.62 434.33 1464.17 438.98
  C 1463.88 441.86 1464.07 444.76 1463.89 447.67
  Q 1463.65 451.75 1463.50 455.49
  Q 1463.18 463.64 1461.65 494.80
  Q 1461.49 497.96 1460.52 499.56
  C 1458.70 502.56 1454.44 503.44 1451.16 503.47
  Q 1442.96 503.53 1434.94 503.51
  C 1434.30 503.51 1433.74 503.89 1433.10 503.89
  Q 1410.59 504.01 1388.70 503.88
  C 1387.89 503.87 1387.23 503.51 1386.40 503.51
  Q 1376.52 503.53 1366.55 503.47
  C 1365.66 503.46 1364.86 503.08 1363.98 503.08
  Q 1359.99 503.06 1356.00 503.04
  Q 1353.84 503.04 1348.02 502.70
  Q 1345.28 502.54 1342.17 502.60
  Q 1339.27 502.66 1336.34 502.39
  Q 1332.09 502.00 1327.67 502.20
  C 1325.79 502.29 1324.14 501.60 1322.28 501.72
  Q 1318.69 501.95 1315.21 501.60
  Q 1311.77 501.26 1308.19 501.24
  Q 1304.74 501.23 1301.10 501.00
  Q 1292.46 500.47 1282.79 500.35
  A 2.04 2.03 80.3 0 1 1280.89 499.00
  C 1279.59 495.36 1278.63 491.25 1278.35 487.41
  Q 1277.06 470.24 1276.43 453.13
  Q 1276.28 449.12 1276.07 445.13
  Q 1275.85 440.85 1276.00 436.25
  C 1276.05 434.53 1275.53 432.97 1275.52 431.24
  Q 1275.49 422.07 1275.50 412.60
  C 1275.50 411.35 1275.12 410.25 1275.11 408.98
  Q 1275.02 392.87 1275.11 375.93
  Q 1275.11 375.48 1275.31 375.07
  Q 1275.47 374.72 1275.48 374.35
  Q 1275.51 365.61 1275.51 356.36
  C 1275.50 352.74 1276.68 349.23 1275.39 345.76
  C 1274.09 342.22 1276.92 340.00 1280.18 339.75
  Q 1306.25 337.72 1322.33 337.00
  Q 1323.84 336.93 1325.35 336.76
  C 1328.73 336.37 1332.13 336.68 1335.53 336.38
  C 1339.94 336.00 1344.21 336.27 1348.51 336.05
  C 1361.42 335.39 1374.54 335.64 1387.46 335.79
  Q 1387.75 335.80 1387.99 335.95
  Q 1388.12 336.03 1388.26 336.03
  Q 1405.14 336.26 1420.01 337.24
  Q 1438.38 338.45 1458.34 340.38
  Q 1461.17 340.65 1463.61 341.62
  C 1466.36 342.71 1466.00 344.81 1466.44 347.17
  Q 1466.68 348.40 1466.69 349.61
  Q 1466.76 356.29 1466.69 362.74
  C 1466.68 363.68 1466.28 364.47 1466.27 365.35
  Q 1466.26 374.05 1466.24 382.75
  Q 1466.24 383.03 1466.07 383.27
  Q 1465.90 383.51 1465.89 383.78
  Z
  M 1401.86 412.47
  C 1404.29 433.71 1394.08 455.15 1377.12 467.97
  C 1372.41 471.53 1366.89 473.69 1361.90 476.86
  C 1359.97 478.08 1358.98 480.52 1361.01 482.29
  A 1.49 1.48 63.2 0 0 1362.07 482.64
  C 1372.95 481.81 1383.43 473.26 1390.56 465.27
  Q 1407.73 446.01 1409.16 420.91
  C 1409.34 417.64 1408.92 414.53 1408.63 411.30
  Q 1408.29 407.49 1407.37 403.90
  Q 1399.59 373.39 1371.47 357.57
  Q 1369.11 356.24 1367.01 357.96
  Q 1366.59 358.31 1366.37 358.81
  Q 1365.02 361.92 1367.73 363.40
  C 1386.29 373.52 1399.45 391.43 1401.86 412.47
  Z
  M 1351.19 454.55
  L 1349.80 454.47
  A 1.32 1.30 20.1 0 0 1348.68 454.98
  Q 1347.40 456.60 1345.97 458.21
  C 1343.97 460.44 1344.51 463.92 1347.95 464.15
  A 3.67 3.64 34.4 0 0 1349.76 463.82
  C 1370.58 454.25 1381.95 428.69 1374.80 406.90
  Q 1368.03 386.24 1347.17 376.55
  Q 1344.29 375.21 1342.24 377.64
  Q 1341.76 378.21 1341.76 379.04
  Q 1341.76 381.25 1343.74 382.24
  Q 1354.19 387.46 1360.31 394.80
  C 1376.42 414.11 1371.75 439.47 1352.17 454.25
  Q 1351.74 454.58 1351.19 454.55
  Z
  M 1341.17 412.82
  C 1345.20 421.26 1342.18 428.88 1335.50 435.03
  C 1333.60 436.78 1332.83 439.90 1335.73 441.22
  Q 1336.92 441.76 1338.20 441.15
  C 1355.84 432.74 1351.22 408.28 1337.60 399.17
  Q 1335.52 397.77 1333.76 399.55
  Q 1333.41 399.90 1333.20 400.33
  Q 1331.81 403.20 1334.40 405.07
  Q 1339.09 408.47 1341.17 412.82
  Z"
/>
<path fill="#25b3c3" d="
  M 1145.73 395.56
  Q 1179.12 428.58 1192.68 474.27
  Q 1199.89 498.59 1202.41 522.98
  Q 1205.18 549.85 1204.16 579.68
  C 1203.50 598.84 1198.88 614.72 1184.76 627.43
  C 1169.17 641.47 1150.60 649.35 1130.19 655.43
  C 1087.39 668.18 1042.74 670.65 998.00 668.55
  C 977.37 667.58 954.03 665.82 930.90 664.23
  Q 895.67 661.82 861.04 655.01
  Q 850.66 652.97 841.60 650.33
  C 829.42 646.80 817.50 642.71 806.01 637.29
  C 791.64 630.51 779.66 619.27 770.95 606.04
  Q 759.27 588.30 753.98 568.37
  Q 750.29 542.09 752.33 518.50
  C 756.93 465.42 787.45 418.29 833.22 390.35
  Q 833.65 390.08 833.77 389.60
  Q 833.93 388.93 833.45 388.13
  Q 840.57 382.77 848.31 378.30
  C 848.80 378.02 849.19 378.10 849.72 378.14
  Q 847.72 379.49 850.85 379.11
  Q 851.48 379.03 852.02 378.73
  C 860.57 373.97 869.17 368.46 877.75 364.12
  C 917.21 344.19 961.56 334.89 1005.78 338.46
  C 1056.96 342.59 1104.43 362.46 1143.80 395.45
  Q 1144.55 396.07 1145.73 395.56
  Z
  M 843.05 429.69
  C 836.78 436.17 832.94 445.12 830.81 453.77
  Q 827.83 465.89 825.35 480.01
  Q 818.65 518.24 817.07 552.75
  Q 816.81 558.56 816.99 564.45
  C 817.39 577.14 821.98 590.75 834.91 595.37
  C 844.01 598.62 852.92 599.45 862.17 600.26
  Q 869.43 600.89 878.82 602.28
  Q 938.10 611.06 1002.50 615.22
  Q 1029.22 616.94 1057.38 616.41
  Q 1067.51 616.22 1078.68 615.39
  C 1097.98 613.95 1115.49 609.22 1125.30 591.98
  C 1131.86 580.45 1134.33 568.07 1136.50 554.36
  Q 1142.17 518.53 1144.49 481.52
  C 1145.21 470.07 1145.39 457.59 1139.38 447.39
  C 1134.24 438.67 1123.67 434.30 1114.46 431.23
  Q 1092.43 423.89 1068.73 419.39
  Q 1029.79 412.01 985.75 410.99
  Q 984.36 410.96 983.00 410.95
  Q 930.61 410.74 876.02 416.40
  C 864.02 417.64 851.16 421.30 843.05 429.69
  Z
  M 930.77 651.00
  Q 928.31 650.72 925.96 650.36
  Q 925.95 650.36 925.95 650.37
  L 925.93 650.62
  Q 925.92 650.93 926.22 650.90
  Q 927.26 650.82 928.39 651.20
  Q 929.41 651.55 930.55 651.71
  Q 953.27 654.76 979.72 656.65
  Q 986.42 657.13 993.74 657.45
  C 1000.07 657.73 1006.44 657.64 1013.03 657.84
  Q 1018.92 658.01 1028.49 657.83
  Q 1062.26 657.17 1089.77 651.80
  Q 1119.23 646.05 1145.79 634.53
  Q 1155.68 630.24 1166.58 623.45
  A 1.67 1.59 -2.6 0 0 1167.13 622.88
  Q 1168.36 620.81 1166.31 620.84
  A 1.22 1.20 -59.5 0 0 1165.71 621.00
  Q 1151.37 628.94 1136.77 635.16
  Q 1125.64 639.91 1111.54 643.81
  Q 1079.15 652.76 1044.47 654.27
  C 1041.32 654.41 1038.32 654.80 1035.16 654.85
  Q 1021.95 655.05 1007.84 654.92
  Q 1001.80 654.87 995.67 654.57
  Q 989.48 654.27 983.50 653.96
  Q 965.65 653.04 946.12 651.64
  Q 938.70 651.11 932.00 650.81
  Q 931.66 650.79 931.35 650.92
  A 1.11 1.10 -52.5 0 1 930.77 651.00
  Z
  M 882.61 646.17
  Q 889.80 647.46 897.61 648.27
  Q 900.79 648.59 904.66 648.24
  A 0.44 0.44 0.0 0 0 905.04 647.66
  L 904.92 647.33
  Q 904.62 646.47 903.71 646.41
  Q 883.89 645.18 869.84 641.29
  Q 863.92 639.66 857.62 637.72
  A 0.54 0.53 -67.2 0 0 856.99 637.98
  L 856.86 638.24
  A 0.47 0.47 0.0 0 0 857.06 638.88
  Q 859.15 639.97 861.11 640.64
  Q 871.48 644.17 882.61 646.17
  Z"
/>
<path fill="#ffffff" d="
  M 1377.12 467.97
  C 1394.08 455.15 1404.29 433.71 1401.86 412.47
  C 1399.45 391.43 1386.29 373.52 1367.73 363.40
  Q 1365.02 361.92 1366.37 358.81
  Q 1366.59 358.31 1367.01 357.96
  Q 1369.11 356.24 1371.47 357.57
  Q 1399.59 373.39 1407.37 403.90
  Q 1408.29 407.49 1408.63 411.30
  C 1408.92 414.53 1409.34 417.64 1409.16 420.91
  Q 1407.73 446.01 1390.56 465.27
  C 1383.43 473.26 1372.95 481.81 1362.07 482.64
  A 1.49 1.48 63.2 0 1 1361.01 482.29
  C 1358.98 480.52 1359.97 478.08 1361.90 476.86
  C 1366.89 473.69 1372.41 471.53 1377.12 467.97
  Z"
/>
<path fill="#ffffff" d="
  M 1352.17 454.25
  C 1371.75 439.47 1376.42 414.11 1360.31 394.80
  Q 1354.19 387.46 1343.74 382.24
  Q 1341.76 381.25 1341.76 379.04
  Q 1341.76 378.21 1342.24 377.64
  Q 1344.29 375.21 1347.17 376.55
  Q 1368.03 386.24 1374.80 406.90
  C 1381.95 428.69 1370.58 454.25 1349.76 463.82
  A 3.67 3.64 34.4 0 1 1347.95 464.15
  C 1344.51 463.92 1343.97 460.44 1345.97 458.21
  Q 1347.40 456.60 1348.68 454.98
  A 1.32 1.30 20.1 0 1 1349.80 454.47
  L 1351.19 454.55
  Q 1351.74 454.58 1352.17 454.25
  Z"
/>
<path fill="#ffffff" d="
  M 833.45 388.13
  Q 833.93 388.93 833.77 389.60
  Q 833.65 390.08 833.22 390.35
  C 787.45 418.29 756.93 465.42 752.33 518.50
  Q 750.29 542.09 753.98 568.37
  Q 753.17 568.28 752.70 568.10
  Q 752.22 567.91 752.04 567.15
  Q 749.87 557.91 749.02 548.03
  C 748.90 546.61 749.20 544.84 748.81 543.54
  Q 748.54 542.65 748.52 541.77
  Q 747.15 478.49 785.20 429.47
  Q 804.24 404.92 831.50 388.20
  Q 831.95 387.93 832.46 388.05
  Q 833.07 388.21 833.45 388.13
  Z"
/>
<path fill="#ffffff" d="
  M 1341.17 412.82
  Q 1339.09 408.47 1334.40 405.07
  Q 1331.81 403.20 1333.20 400.33
  Q 1333.41 399.90 1333.76 399.55
  Q 1335.52 397.77 1337.60 399.17
  C 1351.22 408.28 1355.84 432.74 1338.20 441.15
  Q 1336.92 441.76 1335.73 441.22
  C 1332.83 439.90 1333.60 436.78 1335.50 435.03
  C 1342.18 428.88 1345.20 421.26 1341.17 412.82
  Z"
/>
<path fill="#250044" d="
  M 843.05 429.69
  C 851.16 421.30 864.02 417.64 876.02 416.40
  Q 930.61 410.74 983.00 410.95
  Q 984.36 410.96 985.75 410.99
  Q 1029.79 412.01 1068.73 419.39
  Q 1092.43 423.89 1114.46 431.23
  C 1123.67 434.30 1134.24 438.67 1139.38 447.39
  C 1145.39 457.59 1145.21 470.07 1144.49 481.52
  Q 1142.17 518.53 1136.50 554.36
  C 1134.33 568.07 1131.86 580.45 1125.30 591.98
  C 1115.49 609.22 1097.98 613.95 1078.68 615.39
  Q 1067.51 616.22 1057.38 616.41
  Q 1029.22 616.94 1002.50 615.22
  Q 938.10 611.06 878.82 602.28
  Q 869.43 600.89 862.17 600.26
  C 852.92 599.45 844.01 598.62 834.91 595.37
  C 821.98 590.75 817.39 577.14 816.99 564.45
  Q 816.81 558.56 817.07 552.75
  Q 818.65 518.24 825.35 480.01
  Q 827.83 465.89 830.81 453.77
  C 832.94 445.12 836.78 436.17 843.05 429.69
  Z
  M 888.32 475.58
  C 882.28 482.52 878.50 491.55 876.18 500.66
  A 1.99 1.98 -69.7 0 0 877.21 502.92
  L 877.64 503.14
  Q 878.96 503.80 879.55 502.45
  C 883.90 492.54 889.09 479.86 898.77 473.89
  C 904.30 470.47 912.38 470.04 917.70 473.35
  Q 929.04 480.41 930.00 495.12
  Q 930.36 500.72 930.00 506.92
  A 3.34 3.33 23.0 0 0 931.09 509.60
  Q 932.64 511.00 934.22 510.93
  Q 936.85 510.81 937.33 508.22
  Q 939.42 496.84 935.85 485.69
  C 931.94 473.50 922.78 463.87 909.34 464.49
  C 901.36 464.86 893.58 469.54 888.32 475.58
  Z
  M 1017.66 475.09
  C 1005.37 480.98 996.37 494.61 998.57 508.56
  Q 998.74 509.66 999.26 510.66
  Q 999.49 511.12 999.97 511.30
  C 1001.56 511.89 1003.21 510.99 1003.32 509.24
  C 1004.19 495.71 1009.59 484.54 1022.24 479.86
  C 1030.73 476.71 1040.92 478.10 1048.21 483.40
  Q 1058.31 490.76 1059.55 504.21
  C 1059.85 507.53 1059.11 511.17 1058.55 514.48
  C 1058.30 516.00 1058.57 517.44 1059.87 518.42
  C 1063.93 521.44 1065.63 515.48 1066.16 512.71
  C 1068.98 497.91 1061.27 482.34 1048.13 475.59
  C 1038.83 470.82 1027.03 470.60 1017.66 475.09
  Z
  M 964.78 569.22
  Q 961.90 554.72 959.23 536.13
  Q 958.92 533.97 956.74 534.13
  Q 954.89 534.27 953.24 536.32
  Q 948.54 542.17 944.86 547.19
  Q 943.97 548.40 943.36 549.69
  Q 943.14 550.15 942.63 550.12
  Q 921.25 548.51 902.21 547.10
  Q 899.55 546.90 896.57 547.33
  A 1.25 1.24 78.3 0 0 895.55 548.89
  Q 895.84 549.96 896.89 550.27
  C 898.02 550.61 899.25 550.99 900.44 551.08
  Q 914.39 552.13 929.25 553.32
  C 934.21 553.72 938.91 554.30 944.02 554.27
  Q 944.52 554.27 944.91 553.94
  C 949.11 550.32 952.30 545.99 955.65 541.69
  Q 956.14 541.06 956.24 541.85
  Q 958.15 556.88 960.76 572.34
  Q 960.99 573.65 961.47 574.80
  A 2.70 2.70 0.0 0 0 965.74 575.76
  Q 967.00 574.65 968.00 573.03
  Q 973.41 564.27 978.69 555.34
  Q 978.91 554.97 979.34 554.99
  Q 1005.04 555.88 1029.00 557.92
  A 1.64 1.64 0.0 0 0 1030.77 556.40
  L 1030.80 555.93
  Q 1030.94 553.86 1028.87 553.67
  Q 1009.69 551.91 991.26 551.24
  Q 984.58 551.00 977.93 551.33
  A 4.17 4.15 -76.1 0 0 974.55 553.38
  L 965.22 569.29
  Q 964.90 569.84 964.78 569.22
  Z"
/>
<path fill="#ffffff" d="
  M 876.18 500.66
  C 878.50 491.55 882.28 482.52 888.32 475.58
  C 893.58 469.54 901.36 464.86 909.34 464.49
  C 922.78 463.87 931.94 473.50 935.85 485.69
  Q 939.42 496.84 937.33 508.22
  Q 936.85 510.81 934.22 510.93
  Q 932.64 511.00 931.09 509.60
  A 3.34 3.33 23.0 0 1 930.00 506.92
  Q 930.36 500.72 930.00 495.12
  Q 929.04 480.41 917.70 473.35
  C 912.38 470.04 904.30 470.47 898.77 473.89
  C 889.09 479.86 883.90 492.54 879.55 502.45
  Q 878.96 503.80 877.64 503.14
  L 877.21 502.92
  A 1.99 1.98 -69.7 0 1 876.18 500.66
  Z"
/>
<path fill="#ffffff" d="
  M 998.57 508.56
  C 996.37 494.61 1005.37 480.98 1017.66 475.09
  C 1027.03 470.60 1038.83 470.82 1048.13 475.59
  C 1061.27 482.34 1068.98 497.91 1066.16 512.71
  C 1065.63 515.48 1063.93 521.44 1059.87 518.42
  C 1058.57 517.44 1058.30 516.00 1058.55 514.48
  C 1059.11 511.17 1059.85 507.53 1059.55 504.21
  Q 1058.31 490.76 1048.21 483.40
  C 1040.92 478.10 1030.73 476.71 1022.24 479.86
  C 1009.59 484.54 1004.19 495.71 1003.32 509.24
  C 1003.21 510.99 1001.56 511.89 999.97 511.30
  Q 999.49 511.12 999.26 510.66
  Q 998.74 509.66 998.57 508.56
  Z"
/>
<path fill="#ff0044" d="
  M 368.02 529.32
  C 360.45 525.83 355.51 517.84 354.50 509.76
  C 353.00 497.68 361.23 487.83 372.63 485.01
  C 385.25 481.88 396.48 490.61 399.73 502.42
  C 400.41 504.88 400.37 507.53 400.33 510.09
  A 0.50 0.49 -84.5 0 1 399.75 510.57
  L 387.96 508.54
  Q 387.25 508.42 387.26 507.70
  C 387.33 503.17 385.80 498.72 381.36 496.88
  Q 375.07 494.27 370.21 498.41
  C 366.69 501.41 365.70 506.37 367.76 510.46
  C 370.48 515.85 376.27 518.60 382.03 519.75
  Q 382.68 519.88 382.62 520.54
  Q 381.44 533.93 378.69 546.62
  A 0.64 0.64 0.0 0 1 377.97 547.11
  L 368.89 545.73
  A 0.83 0.83 0.0 0 1 368.19 544.90
  L 368.43 529.98
  A 0.71 0.70 -77.5 0 0 368.02 529.32
  Z"
/>
<path fill="#250044" d="
  M 603.10 569.74
  Q 595.53 567.82 592.36 568.12
  Q 588.13 568.53 584.08 568.82
  Q 583.70 559.73 583.51 550.88
  Q 583.16 535.46 584.99 521.75
  Q 585.53 517.70 587.53 513.27
  C 589.27 509.40 594.00 504.17 598.73 505.74
  Q 602.28 506.93 603.19 510.96
  Q 606.12 523.99 605.63 539.00
  Q 605.13 554.38 603.10 569.74
  Z"
/>
<path fill="#250044" d="
  M 574.98 571.55
  Q 566.71 575.27 560.02 580.94
  Q 550.34 570.76 543.19 556.79
  Q 536.20 543.15 534.76 527.79
  C 534.34 523.34 535.97 517.80 540.49 516.18
  Q 544.62 514.69 548.25 517.85
  Q 551.58 520.76 554.26 525.03
  Q 567.74 546.54 574.98 571.55
  Z"
/>
<path fill="#ffffff" d="
  M 964.78 569.22
  Q 964.90 569.84 965.22 569.29
  L 974.55 553.38
  A 4.17 4.15 -76.1 0 1 977.93 551.33
  Q 984.58 551.00 991.26 551.24
  Q 1009.69 551.91 1028.87 553.67
  Q 1030.94 553.86 1030.80 555.93
  L 1030.77 556.40
  A 1.64 1.64 0.0 0 1 1029.00 557.92
  Q 1005.04 555.88 979.34 554.99
  Q 978.91 554.97 978.69 555.34
  Q 973.41 564.27 968.00 573.03
  Q 967.00 574.65 965.74 575.76
  A 2.70 2.70 0.0 0 1 961.47 574.80
  Q 960.99 573.65 960.76 572.34
  Q 958.15 556.88 956.24 541.85
  Q 956.14 541.06 955.65 541.69
  C 952.30 545.99 949.11 550.32 944.91 553.94
  Q 944.52 554.27 944.02 554.27
  C 938.91 554.30 934.21 553.72 929.25 553.32
  Q 914.39 552.13 900.44 551.08
  C 899.25 550.99 898.02 550.61 896.89 550.27
  Q 895.84 549.96 895.55 548.89
  A 1.25 1.24 78.3 0 1 896.57 547.33
  Q 899.55 546.90 902.21 547.10
  Q 921.25 548.51 942.63 550.12
  Q 943.14 550.15 943.36 549.69
  Q 943.97 548.40 944.86 547.19
  Q 948.54 542.17 953.24 536.32
  Q 954.89 534.27 956.74 534.13
  Q 958.92 533.97 959.23 536.13
  Q 961.90 554.72 964.78 569.22
  Z"
/>
<path fill="#250044" d="
  M 622.82 596.34
  Q 620.76 587.16 615.88 579.37
  C 628.14 567.76 641.87 557.93 657.50 551.21
  Q 663.03 548.83 666.45 549.40
  C 673.29 550.54 674.40 558.81 671.20 563.94
  Q 667.50 569.85 661.47 575.23
  Q 644.75 590.14 622.82 596.34
  Z"
/>
<ellipse fill="#ff0044" cx="0.00" cy="0.00" transform="translate(370.85,557.66) rotate(-14.3)" rx="6.95" ry="6.59"/>
<path fill="#250044" d="
  M 552.49 588.94
  C 552.29 589.69 552.26 590.43 551.86 591.10
  Q 548.10 597.50 546.43 604.84
  Q 517.23 597.63 497.76 575.49
  Q 496.15 573.67 494.76 570.39
  C 491.39 562.48 494.98 554.88 504.08 554.84
  Q 508.03 554.82 512.54 557.61
  Q 517.43 560.63 523.74 565.55
  Q 537.96 576.63 551.58 588.44
  Q 551.98 588.79 552.49 588.94
  Z"
/>
<path fill="#25b3c3" d="
  M 603.10 569.74
  Q 611.07 572.46 615.88 579.37
  Q 620.76 587.16 622.82 596.34
  Q 624.33 604.06 624.61 612.00
  Q 624.71 614.74 624.13 617.46
  L 545.73 616.51
  Q 545.12 610.32 546.43 604.84
  Q 548.10 597.50 551.86 591.10
  C 552.26 590.43 552.29 589.69 552.49 588.94
  L 552.80 588.75
  Q 553.08 588.57 553.31 588.32
  L 560.02 580.94
  Q 566.71 575.27 574.98 571.55
  L 584.08 568.82
  Q 588.13 568.53 592.36 568.12
  Q 595.53 567.82 603.10 569.74
  Z"
/>
<path fill="#250044" d="
  M 1374.69 647.54
  Q 1366.54 647.21 1358.17 649.38
  C 1357.41 644.58 1357.74 639.34 1357.35 635.21
  C 1356.08 621.75 1355.20 607.81 1356.77 594.62
  C 1357.45 588.87 1362.48 582.72 1368.73 585.78
  C 1373.06 587.90 1374.33 593.71 1374.50 598.25
  Q 1374.91 609.12 1374.91 620.00
  Q 1374.93 633.70 1374.69 647.54
  Z"
/>
<path fill="#250044" d="
  M 1399.28 659.27
  Q 1398.24 658.37 1395.54 655.71
  Q 1391.93 652.15 1386.08 650.00
  Q 1387.81 645.72 1389.55 641.53
  C 1392.74 633.84 1396.59 626.66 1400.03 619.09
  C 1403.70 611.04 1409.64 602.24 1417.44 597.74
  C 1421.27 595.52 1428.44 594.49 1429.53 600.25
  Q 1430.02 602.85 1428.27 606.11
  Q 1414.03 632.59 1399.28 659.27
  Z"
/>
<path fill="#250044" d="
  M 1343.96 656.01
  Q 1336.16 661.32 1329.97 669.30
  Q 1319.48 660.73 1311.68 650.03
  Q 1301.77 636.45 1297.81 620.44
  Q 1296.12 613.60 1299.33 608.78
  C 1302.25 604.41 1307.52 604.10 1311.60 607.07
  Q 1314.73 609.34 1317.02 613.00
  Q 1330.40 634.39 1343.96 656.01
  Z"
/>
<path fill="#250044" d="
  M 320.71 717.24
  Q 296.64 728.00 271.59 725.91
  Q 258.91 724.85 248.03 720.12
  Q 247.13 719.72 246.83 720.66
  Q 240.54 740.67 219.70 746.35
  Q 219.01 746.53 219.06 747.24
  Q 220.53 767.08 225.33 786.91
  Q 228.93 801.80 233.22 817.50
  Q 234.38 821.72 233.10 825.66
  A 0.65 0.65 0.0 0 1 232.11 825.99
  Q 213.68 813.01 205.23 792.23
  C 204.34 790.03 201.84 788.95 199.63 788.62
  C 190.89 787.31 185.72 794.68 185.99 802.69
  C 186.42 815.34 195.75 825.95 207.35 830.29
  Q 207.82 830.46 207.97 830.94
  Q 211.61 842.90 217.77 854.21
  Q 197.05 839.43 182.55 823.98
  Q 164.50 804.75 153.62 780.50
  C 143.37 757.68 137.90 728.57 148.80 705.15
  C 155.84 690.03 169.77 678.79 185.07 671.47
  Q 187.05 670.52 188.65 668.88
  C 222.12 634.53 267.42 611.66 316.08 612.54
  C 329.22 612.77 342.34 615.91 352.32 624.15
  C 369.65 638.47 367.90 662.57 358.22 680.71
  Q 344.97 705.54 320.71 717.24
  Z"
/>
<path fill="#ff0044" d="
  M 545.73 616.51
  L 624.13 617.46
  L 696.70 619.68
  Q 697.20 619.70 697.20 620.20
  Q 697.28 632.10 696.95 642.00
  Q 695.72 678.48 693.62 713.76
  Q 693.53 715.36 693.64 715.24
  L 691.18 760.93
  Q 691.15 761.43 690.65 761.43
  L 643.27 761.65
  Q 642.83 762.04 640.77 761.68
  L 619.18 761.58
  Q 617.99 761.57 616.50 761.55
  Q 598.79 761.31 580.90 761.10
  Q 523.56 760.42 459.75 762.23
  C 456.43 762.33 453.60 762.34 450.42 763.63
  Q 412.08 779.12 373.66 794.50
  Q 373.45 794.59 373.24 794.48
  A 0.42 0.41 -54.8 0 1 373.13 793.82
  Q 395.49 770.40 422.39 748.81
  Q 423.03 748.30 423.02 747.48
  L 422.58 620.60
  Q 422.58 619.97 423.21 619.94
  Q 470.30 617.24 512.52 616.50
  Q 514.98 616.46 517.00 616.47
  Q 531.41 616.55 545.73 616.51
  Z
  M 663.67 650.05
  A 0.94 0.94 0.0 0 0 662.73 649.11
  L 466.23 649.11
  A 0.94 0.94 0.0 0 0 465.29 650.05
  L 465.29 661.37
  A 0.94 0.94 0.0 0 0 466.23 662.31
  L 662.73 662.31
  A 0.94 0.94 0.0 0 0 663.67 661.37
  L 663.67 650.05
  Z
  M 607.80 683.82
  A 0.72 0.72 0.0 0 0 607.08 683.10
  L 466.00 683.10
  A 0.72 0.72 0.0 0 0 465.28 683.82
  L 465.28 695.54
  A 0.72 0.72 0.0 0 0 466.00 696.26
  L 607.08 696.26
  A 0.72 0.72 0.0 0 0 607.80 695.54
  L 607.80 683.82
  Z
  M 635.15 717.98
  A 0.88 0.88 0.0 0 0 634.27 717.10
  L 466.17 717.10
  A 0.88 0.88 0.0 0 0 465.29 717.98
  L 465.29 729.36
  A 0.88 0.88 0.0 0 0 466.17 730.24
  L 634.27 730.24
  A 0.88 0.88 0.0 0 0 635.15 729.36
  L 635.15 717.98
  Z"
/>
<path fill="#250044" d="
  M 931.35 650.92
  Q 931.66 650.79 932.00 650.81
  Q 938.70 651.11 946.12 651.64
  Q 965.65 653.04 983.50 653.96
  Q 989.48 654.27 995.67 654.57
  Q 1001.80 654.87 1007.84 654.92
  Q 1021.95 655.05 1035.16 654.85
  C 1038.32 654.80 1041.32 654.41 1044.47 654.27
  Q 1079.15 652.76 1111.54 643.81
  Q 1125.64 639.91 1136.77 635.16
  Q 1151.37 628.94 1165.71 621.00
  A 1.22 1.20 -59.5 0 1 1166.31 620.84
  Q 1168.36 620.81 1167.13 622.88
  A 1.67 1.59 -2.6 0 1 1166.58 623.45
  Q 1155.68 630.24 1145.79 634.53
  Q 1119.23 646.05 1089.77 651.80
  Q 1062.26 657.17 1028.49 657.83
  Q 1018.92 658.01 1013.03 657.84
  C 1006.44 657.64 1000.07 657.73 993.74 657.45
  Q 986.42 657.13 979.72 656.65
  Q 953.27 654.76 930.55 651.71
  Q 929.41 651.55 928.39 651.20
  Q 927.26 650.82 926.22 650.90
  Q 925.92 650.93 925.93 650.62
  L 925.95 650.37
  Q 925.95 650.36 925.96 650.36
  Q 928.31 650.72 930.77 651.00
  A 1.11 1.10 -52.5 0 0 931.35 650.92
  Z"
/>
<path fill="#250044" d="
  M 1407.94 679.74
  L 1404.26 667.68
  Q 1427.84 648.09 1456.21 637.65
  C 1459.32 636.50 1463.56 636.54 1465.69 639.47
  C 1471.22 647.06 1453.99 656.37 1448.50 659.28
  Q 1422.52 673.03 1407.94 679.74
  Z"
/>
<path fill="#250044" d="
  M 882.61 646.17
  Q 871.48 644.17 861.11 640.64
  Q 859.15 639.97 857.06 638.88
  A 0.47 0.47 0.0 0 1 856.86 638.24
  L 856.99 637.98
  A 0.54 0.53 -67.2 0 1 857.62 637.72
  Q 863.92 639.66 869.84 641.29
  Q 883.89 645.18 903.71 646.41
  Q 904.62 646.47 904.92 647.33
  L 905.04 647.66
  A 0.44 0.44 0.0 0 1 904.66 648.24
  Q 900.79 648.59 897.61 648.27
  Q 889.80 647.46 882.61 646.17
  Z"
/>
<path fill="#25b3c3" d="
  M 1374.69 647.54
  Q 1380.80 647.88 1386.08 650.00
  Q 1391.93 652.15 1395.54 655.71
  Q 1398.24 658.37 1399.28 659.27
  L 1404.26 667.68
  L 1407.94 679.74
  Q 1411.71 696.33 1409.33 713.48
  C 1406.92 730.82 1397.57 746.74 1381.98 755.32
  C 1381.34 728.75 1364.10 707.91 1338.00 703.82
  Q 1329.15 702.44 1321.15 706.12
  Q 1320.14 700.03 1320.50 695.50
  Q 1321.64 681.15 1329.97 669.30
  Q 1336.16 661.32 1343.96 656.01
  Q 1350.88 651.64 1358.17 649.38
  Q 1366.54 647.21 1374.69 647.54
  Z
  M 1390.14 732.23
  Q 1389.36 733.93 1388.39 735.62
  A 0.29 0.29 0.0 0 0 1388.50 736.02
  L 1388.73 736.14
  A 0.30 0.30 0.0 0 0 1389.13 736.03
  Q 1399.44 719.21 1400.41 698.98
  Q 1401.01 686.34 1397.18 675.67
  Q 1396.91 674.94 1396.19 675.09
  Q 1395.69 675.19 1395.75 675.70
  C 1396.47 681.43 1397.74 686.98 1397.95 692.78
  Q 1398.72 713.66 1390.14 732.23
  Z"
/>
<rect fill="#ffffff" x="465.29" y="649.11" width="198.38" height="13.20" rx="0.94"/>
<path fill="#250044" d="
  M 1390.14 732.23
  Q 1398.72 713.66 1397.95 692.78
  C 1397.74 686.98 1396.47 681.43 1395.75 675.70
  Q 1395.69 675.19 1396.19 675.09
  Q 1396.91 674.94 1397.18 675.67
  Q 1401.01 686.34 1400.41 698.98
  Q 1399.44 719.21 1389.13 736.03
  A 0.30 0.30 0.0 0 1 1388.73 736.14
  L 1388.50 736.02
  A 0.29 0.29 0.0 0 1 1388.39 735.62
  Q 1389.36 733.93 1390.14 732.23
  Z"
/>
<rect fill="#ffffff" x="465.28" y="683.10" width="142.52" height="13.16" rx="0.72"/>
<path fill="#250044" d="
  M 1381.98 755.32
  Q 1381.60 758.02 1380.79 760.76
  Q 1379.85 763.96 1377.23 765.98
  Q 1378.43 751.76 1373.43 739.83
  C 1364.14 717.68 1341.43 704.59 1317.25 709.75
  Q 1318.71 707.56 1321.15 706.12
  Q 1329.15 702.44 1338.00 703.82
  C 1364.10 707.91 1381.34 728.75 1381.98 755.32
  Z"
/>
<path fill="#25b3c3" d="
  M 1377.23 765.98
  Q 1375.01 784.59 1363.52 799.52
  Q 1357.75 807.02 1353.35 810.94
  Q 1352.16 812.00 1351.24 813.03
  Q 1350.62 813.72 1349.93 814.33
  Q 1341.43 821.74 1333.94 826.78
  Q 1291.70 855.26 1238.04 870.23
  Q 1228.05 873.02 1218.84 872.01
  Q 1218.28 871.95 1218.22 872.51
  Q 1211.36 927.13 1188.80 979.36
  A 0.31 0.31 0.0 0 0 1189.09 979.79
  Q 1257.50 979.82 1326.00 979.57
  Q 1327.06 979.56 1328.12 979.55
  Q 1359.44 979.26 1387.00 979.21
  Q 1387.33 979.21 1387.65 979.12
  Q 1388.12 978.99 1388.62 978.98
  Q 1429.02 978.77 1458.25 978.14
  Q 1490.19 977.46 1498.75 977.63
  Q 1504.94 977.76 1511.10 982.43
  C 1517.08 986.96 1517.60 991.74 1519.00 998.62
  L 1519.00 1012.49
  Q 1517.00 1049.64 1516.78 1079.25
  Q 1516.64 1097.30 1516.38 1114.38
  Q 1516.03 1137.30 1516.61 1207.50
  Q 1516.91 1242.74 1516.50 1286.00
  Q 1516.49 1286.55 1516.19 1287.02
  C 1511.01 1295.06 1505.06 1301.63 1495.17 1301.89
  Q 1472.01 1302.51 1449.73 1302.62
  C 1436.61 1302.68 1424.36 1303.24 1411.42 1303.29
  Q 1398.77 1303.34 1389.00 1303.52
  Q 1352.84 1304.19 1318.00 1304.37
  Q 1288.02 1304.53 1257.88 1304.86
  Q 1208.25 1305.42 1161.50 1304.36
  Q 1160.37 1304.34 1159.25 1304.33
  Q 1119.29 1304.21 1082.00 1302.26
  Q 1069.04 1301.58 1056.96 1300.30
  Q 1048.72 1299.43 1042.61 1297.58
  Q 1039.70 1296.70 1038.43 1293.42
  Q 1035.84 1286.78 1035.86 1278.75
  Q 1035.93 1255.73 1035.69 1233.87
  Q 1035.35 1203.06 1035.54 1165.83
  A 0.36 0.36 0.0 0 0 1034.99 1165.53
  Q 1007.89 1183.11 978.11 1196.23
  Q 984.47 1181.28 991.88 1167.76
  Q 1016.06 1154.38 1034.12 1140.11
  Q 1035.56 1138.97 1034.86 1137.12
  Q 1034.68 1136.63 1034.27 1136.95
  Q 1015.40 1151.36 994.10 1163.26
  Q 1001.53 1145.76 1010.02 1130.73
  Q 1025.72 1120.14 1034.61 1111.60
  Q 1035.34 1110.90 1034.91 1109.46
  Q 1034.76 1108.97 1034.38 1109.32
  Q 1023.86 1119.00 1011.30 1127.58
  L 1021.02 1106.96
  A 1.09 1.09 0.0 0 0 1021.04 1106.09
  L 1019.87 1103.16
  L 1013.28 1090.93
  Q 1013.04 1090.48 1012.54 1090.48
  L 752.85 1091.55
  Q 708.81 1012.79 695.01 923.74
  Q 690.11 892.16 689.48 863.00
  Q 689.11 845.97 689.91 822.79
  Q 689.93 822.22 689.40 822.03
  C 678.33 817.99 668.72 811.00 659.57 803.18
  Q 637.62 784.39 619.18 761.58
  L 640.77 761.68
  Q 652.82 774.14 666.30 784.65
  Q 669.17 786.89 672.17 788.90
  Q 672.28 788.98 672.36 788.87
  L 672.53 788.65
  Q 672.77 788.33 672.48 788.06
  Q 669.28 785.18 661.05 778.70
  Q 653.17 772.49 643.27 761.65
  L 690.65 761.43
  Q 691.15 761.43 691.18 760.93
  L 693.64 715.24
  Q 699.71 728.33 704.10 742.42
  Q 697.93 750.98 694.81 762.00
  C 691.18 774.80 690.36 788.01 689.69 801.53
  Q 689.51 805.18 690.27 808.35
  Q 690.77 810.45 691.37 808.38
  C 691.66 807.42 692.00 806.13 692.01 805.15
  C 692.29 776.66 696.25 741.81 724.86 726.85
  Q 730.78 723.76 740.06 722.62
  Q 742.10 722.37 740.93 720.05
  L 757.24 717.08
  Q 757.40 717.49 757.75 717.48
  Q 798.12 716.62 838.50 716.28
  C 853.50 716.16 870.02 716.52 883.49 716.67
  Q 954.00 717.41 1024.26 723.45
  Q 1064.95 726.95 1096.14 731.60
  C 1121.17 735.34 1146.92 742.19 1169.26 754.28
  Q 1169.91 754.64 1170.14 753.98
  Q 1170.12 754.18 1170.25 754.44
  Q 1170.36 754.64 1170.56 754.75
  Q 1191.50 765.93 1208.52 781.97
  Q 1213.83 786.98 1218.33 792.66
  A 0.77 0.77 0.0 0 0 1219.56 792.62
  Q 1237.05 767.72 1259.28 746.43
  Q 1271.81 734.43 1288.22 723.21
  Q 1301.95 713.81 1317.25 709.75
  C 1341.43 704.59 1364.14 717.68 1373.43 739.83
  Q 1378.43 751.76 1377.23 765.98
  Z
  M 1252.76 853.16
  Q 1282.52 843.66 1306.71 830.45
  Q 1324.38 820.79 1339.88 807.52
  Q 1349.95 798.89 1358.48 787.36
  Q 1364.00 779.89 1367.31 771.84
  A 0.40 0.40 0.0 0 0 1366.92 771.29
  L 1366.58 771.31
  A 1.50 1.50 0.0 0 0 1365.33 772.10
  Q 1354.06 792.92 1336.09 808.07
  Q 1321.74 820.16 1305.12 828.88
  Q 1293.22 835.11 1280.81 840.34
  Q 1263.08 847.82 1245.25 854.93
  Q 1245.06 855.01 1245.13 855.20
  L 1245.21 855.45
  Q 1245.25 855.56 1245.36 855.53
  Q 1249.05 854.35 1252.76 853.16
  Z
  M 1306.56 816.37
  Q 1322.29 808.34 1334.59 794.59
  Q 1337.94 790.84 1340.21 787.07
  A 0.64 0.63 -68.6 0 0 1339.80 786.12
  Q 1339.41 786.04 1339.16 786.32
  Q 1335.61 790.37 1332.14 794.22
  Q 1320.95 806.64 1306.16 815.74
  Q 1306.01 815.84 1306.09 815.99
  L 1306.24 816.27
  Q 1306.35 816.47 1306.56 816.37
  Z
  M 1002.00 853.43
  Q 1002.00 852.77 1002.66 852.88
  C 1063.68 863.02 1123.89 879.31 1182.12 899.47
  Q 1185.57 900.67 1186.85 897.18
  Q 1187.12 896.45 1186.90 895.65
  Q 1186.12 892.87 1183.41 891.88
  C 1124.57 870.36 1063.96 855.39 1002.03 845.86
  Q 1001.33 845.75 1001.20 845.05
  Q 996.57 820.72 974.73 806.82
  C 943.72 787.10 905.68 801.97 891.48 834.17
  Q 891.24 834.71 890.65 834.68
  Q 821.03 831.41 747.11 838.13
  Q 732.17 839.48 719.44 842.65
  Q 718.95 842.78 718.80 843.26
  Q 718.57 844.02 718.75 844.87
  Q 718.85 845.38 719.36 845.47
  Q 720.54 845.68 721.75 845.67
  Q 731.54 845.60 740.13 844.73
  Q 813.21 837.32 888.75 840.73
  Q 889.35 840.76 889.21 841.34
  Q 884.95 858.75 891.07 874.19
  C 900.14 897.08 923.21 912.82 948.08 912.14
  Q 964.65 911.69 978.87 901.27
  C 993.99 890.19 1001.84 872.19 1002.00 853.43
  Z
  M 1219.85 864.49
  L 1220.11 864.35
  Q 1220.94 863.92 1220.94 862.98
  C 1220.96 856.21 1221.46 849.69 1221.45 843.14
  Q 1221.43 825.96 1221.98 808.69
  Q 1222.12 804.30 1221.63 800.28
  Q 1221.56 799.75 1221.08 799.54
  Q 1220.35 799.23 1219.75 799.66
  Q 1219.28 800.01 1219.19 801.02
  C 1218.49 808.57 1219.12 816.84 1219.00 823.16
  Q 1218.63 844.41 1219.16 864.08
  A 0.47 0.47 0.0 0 0 1219.85 864.49
  Z
  M 1151.37 979.07
  C 1154.30 970.38 1157.07 961.41 1159.00 952.40
  A 0.48 0.48 0.0 0 0 1158.57 951.82
  L 1158.27 951.78
  Q 1157.77 951.73 1157.61 952.21
  L 1148.78 979.33
  Q 1148.64 979.74 1149.08 979.74
  L 1150.45 979.73
  A 0.98 0.97 -80.3 0 0 1151.37 979.07
  Z
  M 1159.51 1038.54
  C 1113.50 1046.33 1076.48 1084.74 1071.65 1131.53
  C 1068.46 1162.44 1077.12 1194.52 1098.75 1217.01
  Q 1120.78 1239.91 1149.83 1240.18
  C 1160.35 1240.28 1172.09 1240.06 1182.50 1238.60
  Q 1182.97 1238.54 1183.41 1238.32
  Q 1183.88 1238.09 1184.38 1238.00
  Q 1189.30 1237.06 1194.20 1235.87
  Q 1195.10 1235.65 1196.01 1235.41
  Q 1223.58 1227.96 1244.59 1208.86
  C 1268.45 1187.16 1280.10 1156.12 1275.47 1123.88
  C 1271.61 1096.93 1258.26 1073.56 1236.52 1057.97
  Q 1222.50 1047.92 1206.79 1042.96
  Q 1203.58 1041.95 1200.28 1041.02
  Q 1196.90 1040.07 1193.55 1039.57
  Q 1185.67 1038.39 1178.11 1037.59
  C 1176.65 1037.44 1175.63 1038.14 1174.23 1037.82
  C 1172.03 1037.34 1169.26 1037.89 1167.04 1038.21
  C 1164.53 1038.58 1162.12 1038.10 1159.51 1038.54
  Z
  M 1478.70 1082.15
  L 1478.74 1060.13
  A 1.62 1.62 0.0 0 0 1477.12 1058.51
  L 1331.67 1058.25
  A 3.09 1.24 0.1 0 0 1328.58 1059.49
  L 1328.54 1082.27
  A 3.09 1.24 0.1 0 0 1331.63 1083.51
  L 1477.08 1083.77
  A 1.62 1.62 0.0 0 0 1478.70 1082.15
  Z
  M 1445.33 1133.33
  A 0.96 0.96 0.0 0 0 1444.37 1132.37
  L 1329.53 1132.37
  A 0.96 0.96 0.0 0 0 1328.57 1133.33
  L 1328.57 1156.53
  A 0.96 0.96 0.0 0 0 1329.53 1157.49
  L 1444.37 1157.49
  A 0.96 0.96 0.0 0 0 1445.33 1156.53
  L 1445.33 1133.33
  Z
  M 1478.7001 1207.3710
  A 0.96 0.96 0.0 0 0 1477.7418 1206.4093
  L 1329.5620 1206.1507
  A 0.96 0.96 0.0 0 0 1328.6004 1207.1090
  L 1328.5599 1230.3090
  A 0.96 0.96 0.0 0 0 1329.5182 1231.2707
  L 1477.6980 1231.5293
  A 0.96 0.96 0.0 0 0 1478.6596 1230.5710
  L 1478.7001 1207.3710
  Z"
/>
<path fill="#ffffff" d="
  M 1170.14 753.98
  Q 1169.91 754.64 1169.26 754.28
  C 1146.92 742.19 1121.17 735.34 1096.14 731.60
  Q 1064.95 726.95 1024.26 723.45
  Q 954.00 717.41 883.49 716.67
  C 870.02 716.52 853.50 716.16 838.50 716.28
  Q 798.12 716.62 757.75 717.48
  Q 757.40 717.49 757.24 717.08
  Q 761.17 715.25 766.00 715.71
  C 767.54 715.86 768.62 715.34 770.06 715.39
  Q 773.33 715.51 776.31 715.20
  Q 779.27 714.89 782.16 714.94
  Q 785.01 714.98 788.00 714.91
  C 788.86 714.89 789.41 714.45 790.36 714.48
  Q 796.45 714.65 802.76 714.30
  Q 803.67 714.25 804.50 714.24
  Q 818.25 714.00 832.00 713.80
  Q 832.76 713.79 833.50 713.77
  Q 847.32 713.58 860.00 713.61
  Q 860.45 713.62 860.85 713.80
  Q 861.30 714.00 861.79 714.00
  L 891.25 714.00
  Q 891.72 714.00 892.14 714.22
  Q 892.27 714.30 892.40 714.38
  Q 892.53 714.46 892.69 714.47
  Q 900.27 714.51 907.74 714.48
  Q 908.49 714.48 909.24 714.62
  C 911.94 715.16 914.83 714.91 917.59 714.95
  C 921.53 715.01 925.45 715.42 929.42 715.39
  Q 932.49 715.37 935.57 715.66
  C 938.33 715.91 940.97 715.65 943.79 716.00
  Q 947.75 716.50 951.75 716.22
  Q 952.32 716.18 952.83 716.39
  Q 953.33 716.60 953.88 716.62
  Q 964.20 716.97 967.64 717.24
  Q 970.58 717.47 973.15 717.50
  Q 975.02 717.52 976.83 717.81
  C 979.14 718.19 981.42 717.74 983.73 718.25
  C 986.00 718.74 988.25 718.21 990.58 718.72
  C 991.99 719.03 993.61 718.86 995.11 718.97
  Q 1016.35 720.58 1037.00 722.36
  Q 1055.78 723.98 1073.50 725.97
  Q 1086.18 727.40 1099.25 729.45
  C 1124.12 733.34 1147.94 739.87 1170.05 751.85
  Q 1170.50 752.10 1170.50 752.61
  Q 1170.50 753.28 1170.14 753.98
  Z"
/>
<rect fill="#ffffff" x="465.29" y="717.10" width="169.86" height="13.14" rx="0.88"/>
<path fill="#faebd2" d="
  M 320.71 717.24
  Q 319.41 718.64 319.58 719.24
  Q 326.50 744.01 327.60 769.86
  Q 327.62 770.32 327.92 770.67
  Q 332.79 776.35 336.24 783.57
  Q 342.38 796.41 343.61 809.04
  Q 344.23 815.47 342.56 821.94
  Q 339.32 834.53 334.41 843.26
  Q 328.10 854.49 320.72 863.06
  Q 319.03 865.02 317.45 866.94
  Q 315.62 869.16 313.81 871.04
  Q 313.47 871.39 313.44 871.88
  Q 313.32 874.01 313.93 876.12
  Q 319.93 896.69 325.40 915.26
  Q 325.54 915.74 326.03 915.81
  Q 329.69 916.37 333.28 917.01
  Q 359.02 921.66 382.86 930.36
  Q 381.65 938.98 378.69 945.21
  C 365.45 973.08 337.91 991.88 306.80 994.44
  C 263.44 998.01 225.64 976.07 202.65 939.86
  Q 199.33 934.64 199.48 929.21
  L 229.30 920.60
  Q 229.81 920.45 229.72 919.93
  Q 223.51 883.93 219.27 858.41
  Q 219.05 857.10 219.13 855.13
  Q 219.15 854.62 218.65 854.51
  Q 217.85 854.34 217.77 854.21
  Q 211.61 842.90 207.97 830.94
  Q 207.82 830.46 207.35 830.29
  C 195.75 825.95 186.42 815.34 185.99 802.69
  C 185.72 794.68 190.89 787.31 199.63 788.62
  C 201.84 788.95 204.34 790.03 205.23 792.23
  Q 213.68 813.01 232.11 825.99
  A 0.65 0.65 0.0 0 0 233.10 825.66
  Q 234.38 821.72 233.22 817.50
  Q 228.93 801.80 225.33 786.91
  Q 220.53 767.08 219.06 747.24
  Q 219.01 746.53 219.70 746.35
  Q 240.54 740.67 246.83 720.66
  Q 247.13 719.72 248.03 720.12
  Q 258.91 724.85 271.59 725.91
  Q 296.64 728.00 320.71 717.24
  Z
  M 290.38 749.95
  L 290.38 750.27
  A 0.23 0.23 0.0 0 0 290.71 750.48
  C 296.01 747.93 300.07 747.25 305.36 746.38
  Q 307.20 746.07 305.37 745.70
  Q 298.47 744.31 290.66 749.45
  Q 290.39 749.63 290.38 749.95
  Z
  M 255.73 753.62
  Q 261.01 752.32 267.26 752.67
  Q 267.55 752.69 267.76 752.48
  Q 267.91 752.32 267.83 752.17
  Q 267.56 751.68 267.00 751.54
  Q 259.36 749.66 252.00 753.81
  Q 251.02 754.37 252.14 754.25
  Q 253.96 754.05 255.73 753.62
  Z
  M 305.0521 777.5091
  A 7.06 3.56 76.3 0 0 306.8387 769.8069
  A 7.06 3.56 76.3 0 0 301.7079 763.7909
  A 7.06 3.56 76.3 0 0 299.9213 771.4931
  A 7.06 3.56 76.3 0 0 305.0521 777.5091
  Z
  M 268.7473 786.4597
  A 7.04 3.50 76.3 0 0 270.4804 778.7911
  A 7.04 3.50 76.3 0 0 265.4127 772.7803
  A 7.04 3.50 76.3 0 0 263.6796 780.4489
  A 7.04 3.50 76.3 0 0 268.7473 786.4597
  Z
  M 306.20 808.40
  L 298.86 811.49
  A 0.11 0.11 0.0 0 0 298.80 811.63
  L 298.82 811.69
  A 3.90 2.27 -22.8 0 0 303.30 812.27
  L 303.65 812.12
  A 3.90 2.27 -22.8 0 0 306.36 808.52
  L 306.34 808.46
  A 0.11 0.11 0.0 0 0 306.20 808.40
  Z
  M 284.52 844.74
  C 294.75 849.42 303.01 841.45 307.80 832.68
  Q 308.15 832.04 307.44 832.20
  Q 289.58 836.27 275.04 827.37
  A 0.63 0.63 0.0 0 0 274.08 827.95
  Q 274.85 840.32 284.52 844.74
  Z"
/>
<path fill="#ffffff" d="
  M 740.93 720.05
  Q 742.10 722.37 740.06 722.62
  Q 730.78 723.76 724.86 726.85
  C 696.25 741.81 692.29 776.66 692.01 805.15
  C 692.00 806.13 691.66 807.42 691.37 808.38
  Q 690.77 810.45 690.27 808.35
  Q 689.51 805.18 689.69 801.53
  C 690.36 788.01 691.18 774.80 694.81 762.00
  Q 697.93 750.98 704.10 742.42
  Q 709.97 735.16 716.11 730.14
  Q 726.95 721.29 740.93 720.05
  Z"
/>
<path fill="#250044" d="
  M 290.66 749.45
  Q 298.47 744.31 305.37 745.70
  Q 307.20 746.07 305.36 746.38
  C 300.07 747.25 296.01 747.93 290.71 750.48
  A 0.23 0.23 0.0 0 1 290.38 750.27
  L 290.38 749.95
  Q 290.39 749.63 290.66 749.45
  Z"
/>
<path fill="#250044" d="
  M 255.73 753.62
  Q 253.96 754.05 252.14 754.25
  Q 251.02 754.37 252.00 753.81
  Q 259.36 749.66 267.00 751.54
  Q 267.56 751.68 267.83 752.17
  Q 267.91 752.32 267.76 752.48
  Q 267.55 752.69 267.26 752.67
  Q 261.01 752.32 255.73 753.62
  Z"
/>
<path fill="#ff0044" d="
  M 0.00 794.88
  L 0.00 788.01
  Q 1.66 776.15 8.86 766.85
  Q 15.57 758.18 25.04 755.03
  C 46.84 747.78 72.19 761.91 74.81 785.36
  C 76.39 799.59 70.37 815.73 57.98 823.81
  Q 57.19 824.33 57.33 825.27
  L 61.13 850.05
  Q 61.21 850.56 60.72 850.71
  L 45.51 855.22
  A 0.62 0.61 -18.4 0 1 44.76 854.85
  Q 37.31 835.15 32.13 813.01
  A 0.89 0.89 0.0 0 1 32.69 811.97
  C 40.36 809.16 48.28 804.53 52.31 797.31
  C 61.35 781.08 43.92 764.52 28.30 774.38
  C 21.68 778.56 20.02 785.77 21.48 793.87
  Q 21.58 794.45 21.02 794.64
  L 2.30 800.73
  A 1.28 1.28 0.0 0 1 0.63 799.68
  L 0.00 794.88
  Z"
/>
<path fill="#250044" d="
  M 640.77 761.68
  Q 642.83 762.04 643.27 761.65
  Q 653.17 772.49 661.05 778.70
  Q 669.28 785.18 672.48 788.06
  Q 672.77 788.33 672.53 788.65
  L 672.36 788.87
  Q 672.28 788.98 672.17 788.90
  Q 669.17 786.89 666.30 784.65
  Q 652.82 774.14 640.77 761.68
  Z"
/>
<ellipse fill="#250044" cx="0.00" cy="0.00" transform="translate(303.38,770.65) rotate(76.3)" rx="7.06" ry="3.56"/>
<path fill="#250044" d="
  M 1252.76 853.16
  Q 1249.05 854.35 1245.36 855.53
  Q 1245.25 855.56 1245.21 855.45
  L 1245.13 855.20
  Q 1245.06 855.01 1245.25 854.93
  Q 1263.08 847.82 1280.81 840.34
  Q 1293.22 835.11 1305.12 828.88
  Q 1321.74 820.16 1336.09 808.07
  Q 1354.06 792.92 1365.33 772.10
  A 1.50 1.50 0.0 0 1 1366.58 771.31
  L 1366.92 771.29
  A 0.40 0.40 0.0 0 1 1367.31 771.84
  Q 1364.00 779.89 1358.48 787.36
  Q 1349.95 798.89 1339.88 807.52
  Q 1324.38 820.79 1306.71 830.45
  Q 1282.52 843.66 1252.76 853.16
  Z"
/>
<ellipse fill="#250044" cx="0.00" cy="0.00" transform="translate(267.08,779.62) rotate(76.3)" rx="7.04" ry="3.50"/>
<path fill="#250044" d="
  M 1306.56 816.37
  Q 1306.35 816.47 1306.24 816.27
  L 1306.09 815.99
  Q 1306.01 815.84 1306.16 815.74
  Q 1320.95 806.64 1332.14 794.22
  Q 1335.61 790.37 1339.16 786.32
  Q 1339.41 786.04 1339.80 786.12
  A 0.64 0.63 -68.6 0 1 1340.21 787.07
  Q 1337.94 790.84 1334.59 794.59
  Q 1322.29 808.34 1306.56 816.37
  Z"
/>
<path fill="#250044" d="
  M 1002.00 853.43
  C 1001.84 872.19 993.99 890.19 978.87 901.27
  Q 964.65 911.69 948.08 912.14
  C 923.21 912.82 900.14 897.08 891.07 874.19
  Q 884.95 858.75 889.21 841.34
  Q 889.35 840.76 888.75 840.73
  Q 813.21 837.32 740.13 844.73
  Q 731.54 845.60 721.75 845.67
  Q 720.54 845.68 719.36 845.47
  Q 718.85 845.38 718.75 844.87
  Q 718.57 844.02 718.80 843.26
  Q 718.95 842.78 719.44 842.65
  Q 732.17 839.48 747.11 838.13
  Q 821.03 831.41 890.65 834.68
  Q 891.24 834.71 891.48 834.17
  C 905.68 801.97 943.72 787.10 974.73 806.82
  Q 996.57 820.72 1001.20 845.05
  Q 1001.33 845.75 1002.03 845.86
  C 1063.96 855.39 1124.57 870.36 1183.41 891.88
  Q 1186.12 892.87 1186.90 895.65
  Q 1187.12 896.45 1186.85 897.18
  Q 1185.57 900.67 1182.12 899.47
  C 1123.89 879.31 1063.68 863.02 1002.66 852.88
  Q 1002.00 852.77 1002.00 853.43
  Z
  M 898.04 850.72
  Q 897.31 856.73 898.68 863.45
  C 902.72 883.20 918.99 897.83 938.41 901.16
  C 963.49 905.46 985.55 888.60 990.48 864.31
  Q 993.95 847.28 985.95 832.69
  C 981.62 824.79 973.81 817.40 965.82 813.54
  Q 941.84 801.96 920.07 815.69
  Q 900.83 827.82 898.04 850.72
  Z"
/>
<path fill="#ffffff" d="
  M 1219.85 864.49
  A 0.47 0.47 0.0 0 1 1219.16 864.08
  Q 1218.63 844.41 1219.00 823.16
  C 1219.12 816.84 1218.49 808.57 1219.19 801.02
  Q 1219.28 800.01 1219.75 799.66
  Q 1220.35 799.23 1221.08 799.54
  Q 1221.56 799.75 1221.63 800.28
  Q 1222.12 804.30 1221.98 808.69
  Q 1221.43 825.96 1221.45 843.14
  C 1221.46 849.69 1220.96 856.21 1220.94 862.98
  Q 1220.94 863.92 1220.11 864.35
  L 1219.85 864.49
  Z"
/>
<path fill="#250044" d="
  M 898.04 850.72
  Q 900.83 827.82 920.07 815.69
  Q 941.84 801.96 965.82 813.54
  C 973.81 817.40 981.62 824.79 985.95 832.69
  Q 993.95 847.28 990.48 864.31
  C 985.55 888.60 963.49 905.46 938.41 901.16
  C 918.99 897.83 902.72 883.20 898.68 863.45
  Q 897.31 856.73 898.04 850.72
  Z
  M 935.1312 833.0801
  A 5.94 5.10 133.9 0 0 942.9248 832.3363
  A 5.94 5.10 133.9 0 0 943.3688 824.5199
  A 5.94 5.10 133.9 0 0 935.5752 825.2637
  A 5.94 5.10 133.9 0 0 935.1312 833.0801
  Z
  M 920.2887 846.9745
  A 3.96 3.41 111.5 0 0 924.9127 844.5398
  A 3.96 3.41 111.5 0 0 923.1913 839.6055
  A 3.96 3.41 111.5 0 0 918.5673 842.0402
  A 3.96 3.41 111.5 0 0 920.2887 846.9745
  Z"
/>
<path fill="#250044" d="
  M 306.20 808.40
  A 0.11 0.11 0.0 0 1 306.34 808.46
  L 306.36 808.52
  A 3.90 2.27 -22.8 0 1 303.65 812.12
  L 303.30 812.27
  A 3.90 2.27 -22.8 0 1 298.82 811.69
  L 298.80 811.63
  A 0.11 0.11 0.0 0 1 298.86 811.49
  L 306.20 808.40
  Z"
/>
<ellipse fill="#ffffff" cx="0.00" cy="0.00" transform="translate(939.25,828.80) rotate(133.9)" rx="5.94" ry="5.10"/>
<path fill="#250044" d="
  M 284.52 844.74
  Q 274.85 840.32 274.08 827.95
  A 0.63 0.63 0.0 0 1 275.04 827.37
  Q 289.58 836.27 307.44 832.20
  Q 308.15 832.04 307.80 832.68
  C 303.01 841.45 294.75 849.42 284.52 844.74
  Z"
/>
<ellipse fill="#ffffff" cx="0.00" cy="0.00" transform="translate(921.74,843.29) rotate(111.5)" rx="3.96" ry="3.41"/>
<ellipse fill="#ff0044" cx="0.00" cy="0.00" transform="translate(59.85,870.76) rotate(3.0)" rx="11.25" ry="10.69"/>
<path fill="#ff0044" d="
  M 199.48 929.21
  Q 199.33 934.64 202.65 939.86
  C 225.64 976.07 263.44 998.01 306.80 994.44
  C 337.91 991.88 365.45 973.08 378.69 945.21
  Q 381.65 938.98 382.86 930.36
  Q 392.91 934.33 401.87 939.24
  Q 403.93 940.37 406.27 941.35
  Q 409.81 942.83 411.81 946.20
  Q 436.74 988.12 447.64 1040.25
  Q 454.18 1071.54 458.28 1099.75
  Q 466.88 1158.97 475.43 1216.73
  Q 475.50 1217.24 475.94 1217.52
  Q 502.21 1233.97 525.48 1252.02
  Q 535.81 1260.04 544.54 1266.02
  L 520.98 1316.79
  Q 520.76 1317.27 520.23 1317.27
  L 515.19 1317.26
  Q 514.49 1317.26 514.21 1316.63
  Q 505.89 1297.79 490.69 1283.84
  Q 487.33 1280.76 484.02 1277.80
  Q 483.53 1277.36 484.15 1277.14
  C 489.70 1275.14 502.28 1268.64 503.44 1262.37
  Q 504.10 1258.84 502.29 1256.24
  A 2.15 2.14 -26.8 0 0 499.85 1255.44
  Q 481.48 1261.53 462.33 1259.46
  A 3.57 3.56 66.7 0 1 460.58 1258.76
  C 432.31 1237.46 391.30 1233.89 357.93 1243.82
  Q 357.08 1244.07 356.59 1244.84
  C 342.73 1266.51 334.89 1291.37 335.30 1317.15
  Q 247.69 1327.92 159.76 1335.28
  Q 117.15 1338.84 67.51 1342.56
  C 66.06 1342.67 64.73 1342.83 63.50 1341.89
  Q 30.83 1316.61 14.27 1279.83
  A 3.05 3.01 40.6 0 1 14.10 1277.82
  Q 55.91 1119.39 117.77 967.76
  Q 118.12 966.91 118.92 966.43
  Q 156.99 943.25 199.48 929.21
  Z
  M 141.51 1251.63
  Q 142.27 1251.60 142.04 1250.87
  Q 136.07 1232.47 131.38 1213.37
  Q 131.18 1212.56 130.76 1213.28
  L 108.34 1252.20
  A 0.40 0.40 0.0 0 0 108.70 1252.80
  L 141.51 1251.63
  Z"
/>
<path fill="#250044" d="
  M 1159.00 952.40
  C 1157.07 961.41 1154.30 970.38 1151.37 979.07
  A 0.98 0.97 -80.3 0 1 1150.45 979.73
  L 1149.08 979.74
  Q 1148.64 979.74 1148.78 979.33
  L 1157.61 952.21
  Q 1157.77 951.73 1158.27 951.78
  L 1158.57 951.82
  A 0.48 0.48 0.0 0 1 1159.00 952.40
  Z"
/>
<path fill="#ffffff" d="
  M 1071.65 1131.53
  C 1076.48 1084.74 1113.50 1046.33 1159.51 1038.54
  C 1162.12 1038.10 1164.53 1038.58 1167.04 1038.21
  C 1169.26 1037.89 1172.03 1037.34 1174.23 1037.82
  C 1175.63 1038.14 1176.65 1037.44 1178.11 1037.59
  Q 1185.67 1038.39 1193.55 1039.57
  Q 1196.90 1040.07 1200.28 1041.02
  Q 1203.58 1041.95 1206.79 1042.96
  Q 1222.50 1047.92 1236.52 1057.97
  C 1258.26 1073.56 1271.61 1096.93 1275.47 1123.88
  C 1280.10 1156.12 1268.45 1187.16 1244.59 1208.86
  Q 1223.58 1227.96 1196.01 1235.41
  Q 1195.10 1235.65 1194.20 1235.87
  Q 1189.30 1237.06 1184.38 1238.00
  Q 1183.88 1238.09 1183.41 1238.32
  Q 1182.97 1238.54 1182.50 1238.60
  C 1172.09 1240.06 1160.35 1240.28 1149.83 1240.18
  Q 1120.78 1239.91 1098.75 1217.01
  C 1077.12 1194.52 1068.46 1162.44 1071.65 1131.53
  Z"
/>
<path fill="#ffffff" d="
  M 1478.70 1082.15
  A 1.62 1.62 0.0 0 1 1477.08 1083.77
  L 1331.63 1083.51
  A 3.09 1.24 0.1 0 1 1328.54 1082.27
  L 1328.58 1059.49
  A 3.09 1.24 0.1 0 1 1331.67 1058.25
  L 1477.12 1058.51
  A 1.62 1.62 0.0 0 1 1478.74 1060.13
  L 1478.70 1082.15
  Z"
/>
<path fill="#faebd2" d="
  M 1019.87 1103.16
  C 1017.19 1103.15 1014.46 1103.64 1012.04 1103.64
  Q 906.04 1103.68 805.75 1103.78
  Q 804.25 1103.78 802.75 1103.79
  Q 721.35 1104.07 634.60 1104.07
  A 1.40 1.38 -77.1 0 0 633.35 1104.86
  L 525.78 1331.42
  L 419.15 1330.77
  Q 397.25 1324.38 374.78 1319.28
  Q 372.32 1318.72 370.17 1318.73
  C 368.04 1318.74 366.10 1318.80 363.96 1318.53
  Q 359.75 1318.00 355.50 1318.32
  C 354.51 1318.40 353.59 1317.83 352.48 1317.82
  Q 343.88 1317.74 335.30 1317.15
  C 334.89 1291.37 342.73 1266.51 356.59 1244.84
  Q 357.08 1244.07 357.93 1243.82
  C 391.30 1233.89 432.31 1237.46 460.58 1258.76
  A 3.57 3.56 66.7 0 0 462.33 1259.46
  Q 481.48 1261.53 499.85 1255.44
  A 2.15 2.14 -26.8 0 1 502.29 1256.24
  Q 504.10 1258.84 503.44 1262.37
  C 502.28 1268.64 489.70 1275.14 484.15 1277.14
  Q 483.53 1277.36 484.02 1277.80
  Q 487.33 1280.76 490.69 1283.84
  Q 505.89 1297.79 514.21 1316.63
  Q 514.49 1317.26 515.19 1317.26
  L 520.23 1317.27
  Q 520.76 1317.27 520.98 1316.79
  L 544.54 1266.02
  Q 547.02 1262.48 548.71 1258.38
  Q 551.48 1251.68 551.50 1251.63
  Q 587.49 1174.20 619.53 1104.83
  Q 622.35 1098.72 625.31 1092.68
  Q 625.55 1092.18 626.11 1092.19
  Q 680.11 1092.39 733.47 1092.09
  Q 734.23 1092.09 735.18 1091.89
  Q 735.87 1091.74 736.35 1091.75
  Q 744.55 1091.90 752.85 1091.55
  L 1012.54 1090.48
  Q 1013.04 1090.48 1013.28 1090.93
  L 1019.87 1103.16
  Z"
/>
<path fill="#ff0044" d="
  M 1019.87 1103.16
  L 1021.04 1106.09
  A 1.09 1.09 0.0 0 1 1021.02 1106.96
  L 1011.30 1127.58
  Q 1011.65 1127.99 1010.02 1130.73
  Q 1001.53 1145.76 994.10 1163.26
  Q 994.01 1164.63 991.88 1167.76
  Q 984.47 1181.28 978.11 1196.23
  L 915.47 1325.95
  C 915.02 1326.16 914.58 1326.40 914.37 1326.88
  Q 912.83 1330.26 911.23 1333.61
  A 1.13 1.10 12.5 0 1 910.22 1334.24
  Q 869.57 1333.99 825.49 1333.83
  Q 688.59 1333.33 540.28 1331.50
  C 536.35 1331.45 530.72 1331.18 525.78 1331.42
  L 633.35 1104.86
  A 1.40 1.38 -77.1 0 1 634.60 1104.07
  Q 721.35 1104.07 802.75 1103.79
  Q 804.25 1103.78 805.75 1103.78
  Q 906.04 1103.68 1012.04 1103.64
  C 1014.46 1103.64 1017.19 1103.15 1019.87 1103.16
  Z
  M 807.59 1198.69
  C 792.10 1191.91 771.99 1202.56 769.53 1219.54
  C 767.56 1233.14 779.49 1243.87 792.37 1243.37
  C 806.60 1242.82 816.53 1229.66 817.84 1216.51
  Q 819.11 1203.72 807.59 1198.69
  Z"
/>
<path fill="#250044" d="
  M 1010.02 1130.73
  Q 1011.65 1127.99 1011.30 1127.58
  Q 1023.86 1119.00 1034.38 1109.32
  Q 1034.76 1108.97 1034.91 1109.46
  Q 1035.34 1110.90 1034.61 1111.60
  Q 1025.72 1120.14 1010.02 1130.73
  Z"
/>
<rect fill="#ffffff" x="1328.57" y="1132.37" width="116.76" height="25.12" rx="0.96"/>
<path fill="#250044" d="
  M 991.88 1167.76
  Q 994.01 1164.63 994.10 1163.26
  Q 1015.40 1151.36 1034.27 1136.95
  Q 1034.68 1136.63 1034.86 1137.12
  Q 1035.56 1138.97 1034.12 1140.11
  Q 1016.06 1154.38 991.88 1167.76
  Z"
/>
<path fill="#ffffff" d="
  M 807.59 1198.69
  Q 819.11 1203.72 817.84 1216.51
  C 816.53 1229.66 806.60 1242.82 792.37 1243.37
  C 779.49 1243.87 767.56 1233.14 769.53 1219.54
  C 771.99 1202.56 792.10 1191.91 807.59 1198.69
  Z"
/>
<rect fill="#ffffff" x="-75.05" y="-12.56" transform="translate(1403.63,1218.84) rotate(0.1)" width="150.10" height="25.12" rx="0.96"/>
<path fill="#250044" d="
  M 915.47 1325.95
  Q 915.55 1326.05 915.67 1326.15
  Q 915.76 1326.23 915.89 1326.23
  Q 923.65 1326.21 931.74 1326.29
  C 932.58 1326.30 933.25 1326.70 934.10 1326.70
  Q 941.06 1326.68 948.06 1326.71
  C 948.70 1326.71 949.14 1327.11 949.75 1327.10
  C 955.83 1326.95 961.84 1327.36 967.93 1327.54
  Q 1039.13 1329.59 1109.86 1333.63
  Q 1111.89 1333.75 1110.03 1334.57
  Q 1094.59 1341.41 1077.82 1346.65
  Q 1047.66 1356.09 1016.57 1362.21
  Q 957.48 1373.85 897.00 1377.54
  Q 871.26 1379.12 845.44 1380.00
  L 788.71 1380.00
  Q 783.26 1379.37 777.66 1379.44
  Q 774.49 1379.47 771.37 1379.27
  Q 768.22 1379.07 765.04 1379.06
  Q 761.55 1379.05 757.53 1378.79
  C 754.17 1378.58 750.93 1378.76 747.51 1378.44
  Q 743.10 1378.02 738.48 1378.29
  C 737.56 1378.34 736.85 1377.91 735.92 1377.88
  Q 687.49 1376.20 626.00 1370.50
  Q 562.02 1364.57 501.01 1352.16
  Q 460.60 1343.93 419.15 1330.77
  L 525.78 1331.42
  C 530.72 1331.18 536.35 1331.45 540.28 1331.50
  Q 688.59 1333.33 825.49 1333.83
  Q 869.57 1333.99 910.22 1334.24
  A 1.13 1.10 12.5 0 0 911.23 1333.61
  Q 912.83 1330.26 914.37 1326.88
  C 914.58 1326.40 915.02 1326.16 915.47 1325.95
  Z"
/>
</svg>
