<?xml version="1.0" encoding="utf-8"?>
<!-- Uploaded to: SVG Repo, www.svgrepo.com, Generator: SVG Repo Mixer Tools -->
<svg width="800px" height="800px" viewBox="0 0 1024 1024" class="icon"  version="1.1" xmlns="http://www.w3.org/2000/svg">
<path d="M782.812549 782.322108h-540.406674c-11.479802 0-20.784872 9.30507-20.784873 20.784872 0 11.478778 9.30507 20.784872 20.784873 20.784872h540.406674c11.479802 0 20.784872-9.306094 20.784872-20.784872 0-11.479802-9.30507-20.784872-20.784872-20.784872zM719.629609 363.886797c16.234726-16.234726 16.234726-42.555746 0-58.788424-16.234726-16.234726-42.553698-16.234726-58.788423 0L337.504344 628.435215l-44.091574 102.878974 102.879997-44.09055 323.336842-323.336842z" fill="#25b3c3" /><path d="M865.952037 96.421329h-706.685651c-34.384117 0-62.354616 27.970499-62.354616 62.354616v706.685651c0 34.384117 27.970499 62.354616 62.354616 62.354617h706.685651c34.384117 0 62.354616-27.970499 62.354617-62.354617v-706.685651c0-34.384117-27.970499-62.354616-62.354617-62.354616z m20.784872 769.040267c0 11.458301-9.316333 20.784872-20.784872 20.784872h-706.685651c-11.458301 0-20.784872-9.326571-20.784872-20.784872v-706.685651c0-11.458301 9.326571-20.784872 20.784872-20.784872h706.685651c11.46854 0 20.784872 9.326571 20.784872 20.784872v706.685651z" fill="#25b3c3" /><path d="M646.146384 437.379238l-58.788424-58.788424 44.091574-44.091574 58.787399 58.788424z" fill="#22C67F" /></svg>