<?xml version="1.0" encoding="UTF-8"?>
<!DOCTYPE svg PUBLIC "-//W3C//DTD SVG 1.1//EN" "http://www.w3.org/Graphics/SVG/1.1/DTD/svg11.dtd">
<svg xmlns="http://www.w3.org/2000/svg" version="1.1" width="135px" height="95px" style="shape-rendering:geometricPrecision; text-rendering:geometricPrecision; image-rendering:optimizeQuality; fill-rule:evenodd; clip-rule:evenodd" xmlns:xlink="http://www.w3.org/1999/xlink">
<g><path fill="#25b3c3" d="M -0.5,-0.5 C 19.5,-0.5 39.5,-0.5 59.5,-0.5C 59.6666,18.8362 59.5,38.1695 59,57.5C 51.2474,69.7364 43.7474,82.0697 36.5,94.5C 24.1667,94.5 11.8333,94.5 -0.5,94.5C -0.5,93.5 -0.5,92.5 -0.5,91.5C 6.57555,79.9063 13.9089,68.4063 21.5,57C 14.1742,56.5003 6.8409,56.3337 -0.5,56.5C -0.5,37.5 -0.5,18.5 -0.5,-0.5 Z"/></g>
<g><path fill="#25b3c3" d="M 74.5,-0.5 C 94.1667,-0.5 113.833,-0.5 133.5,-0.5C 133.5,0.166667 133.833,0.5 134.5,0.5C 134.5,19.1667 134.5,37.8333 134.5,56.5C 126.514,69.1304 118.514,81.7971 110.5,94.5C 98.5,94.5 86.5,94.5 74.5,94.5C 74.372,92.3453 74.872,90.3453 76,88.5C 82.5,78.1667 89,67.8333 95.5,57.5C 88.1968,56.5027 80.8635,56.1694 73.5,56.5C 73.18,37.4238 73.5133,18.4238 74.5,-0.5 Z"/></g>
</svg>
