<?xml version="1.0" encoding="UTF-8"?>
<svg version="1.1" xmlns="http://www.w3.org/2000/svg" width="180" height="214">
<style>
@media (prefers-color-scheme: dark){
    path{
        fill: #FFF;
    }
}
</style>
<path d="M0 0 C6.33180106 -0.06927011 12.66226107 -0.12888363 18.99414062 -0.16479492 C21.14327476 -0.17978213 23.29237883 -0.20017887 25.44140625 -0.22631836 C45.41384443 -0.46298061 62.56985802 0.99710735 77.74609375 15.515625 C86.01241625 24.62720405 92.14646386 36.49019569 92.11352539 48.97387695 C92.11341209 50.41480461 92.11341209 50.41480461 92.11329651 51.88484192 C92.10813522 52.9089769 92.10297394 53.93311188 92.09765625 54.98828125 C92.0962413 56.04661667 92.09482635 57.10495209 92.09336853 58.19535828 C92.08778159 61.56776789 92.07523144 64.94011054 92.0625 68.3125 C92.05748331 70.60221258 92.0529207 72.89192621 92.04882812 75.18164062 C92.03866835 80.78780682 92.01909025 86.39382866 92 92 C82.1 92 72.2 92 62 92 C62 71.21 62 50.42 62 29 C41.54 29 21.08 29 0 29 C0 19.43 0 9.86 0 0 Z " fill="#000000" transform="translate(13,97)"/>
<path d="M0 0 C9.9 0 19.8 0 30 0 C30 15.84 30 31.68 30 48 C20.1 48 10.2 48 0 48 C0 32.16 0 16.32 0 0 Z " fill="#0063F1" transform="translate(75,35)"/>
<path d="M0 0 C15.84 0 31.68 0 48 0 C48 9.57 48 19.14 48 29 C32.16 29 16.32 29 0 29 C0 19.43 0 9.86 0 0 Z " fill="#0063F1" transform="translate(119,97)"/>
</svg>
