<?xml version="1.0" encoding="UTF-8"?>
<svg version="1.1" xmlns="http://www.w3.org/2000/svg" width="1500" height="406">
<style>
@media (prefers-color-scheme: dark){
    path{
        fill: #FFF;
    }
}
</style>
<path d="M0 0 C7.59 0 15.18 0 23 0 C23 16.17 23 32.34 23 49 C43.79 49 64.58 49 86 49 C86 32.83 86 16.66 86 0 C93.59 0 101.18 0 109 0 C109 40.59 109 81.18 109 123 C101.41 123 93.82 123 86 123 C86 105.84 86 88.68 86 71 C65.21 71 44.42 71 23 71 C23 88.16 23 105.32 23 123 C15.41 123 7.82 123 0 123 C0 82.41 0 41.82 0 0 Z " fill="#0063F3" transform="translate(1266,146)"/>
<path d="M0 0 C7.59 0 15.18 0 23 0 C23 16.17 23 32.34 23 49 C43.79 49 64.58 49 86 49 C86 32.83 86 16.66 86 0 C93.59 0 101.18 0 109 0 C109 40.59 109 81.18 109 123 C101.41 123 93.82 123 86 123 C86 105.84 86 88.68 86 71 C65.21 71 44.42 71 23 71 C23 88.16 23 105.32 23 123 C15.41 123 7.82 123 0 123 C0 82.41 0 41.82 0 0 Z " fill="#000000" transform="translate(140,146)"/>
<path d="M0 0 C28.71 0 57.42 0 87 0 C87 7.26 87 14.52 87 22 C66.21 22 45.42 22 24 22 C24 30.91 24 39.82 24 49 C43.47 49 62.94 49 83 49 C83 56.26 83 63.52 83 71 C63.53 71 44.06 71 24 71 C24 80.9 24 90.8 24 101 C44.79 101 65.58 101 87 101 C87 108.26 87 115.52 87 123 C58.29 123 29.58 123 0 123 C0 82.41 0 41.82 0 0 Z " fill="#000000" transform="translate(298,146)"/>
<path d="M0 0 C28.71 0 57.42 0 87 0 C87 7.26 87 14.52 87 22 C65.88 22 44.76 22 23 22 C23 30.91 23 39.82 23 49 C42.47 49 61.94 49 82 49 C82 56.26 82 63.52 82 71 C62.53 71 43.06 71 23 71 C23 80.9 23 90.8 23 101 C44.12 101 65.24 101 87 101 C87 108.26 87 115.52 87 123 C58.29 123 29.58 123 0 123 C0 82.41 0 41.82 0 0 Z " fill="#0064F3" transform="translate(988,146)"/>
<path d="M0 0 C1.5631897 0.00785522 1.5631897 0.00785522 3.15795898 0.01586914 C4.28266602 0.0190918 5.40737305 0.02231445 6.56616211 0.02563477 C7.75016602 0.03401367 8.93416992 0.04239258 10.15405273 0.05102539 C11.34192383 0.05553711 12.52979492 0.06004883 13.75366211 0.06469727 C16.69967499 0.07652864 19.64558954 0.09301252 22.59155273 0.11352539 C30.79084369 20.54768041 38.94066149 41.00086094 47.02270508 61.48168945 C47.73835328 63.29516971 48.45401089 65.10864625 49.16967773 66.92211914 C49.52627472 67.82580231 49.8828717 68.72948547 50.25027466 69.66055298 C52.56836754 75.53172192 54.89565761 81.39917146 57.22895813 87.26431274 C58.82205165 91.26913776 60.41271962 95.27492428 62.00326538 99.28076172 C62.7672186 101.20279013 63.53236571 103.12434445 64.29873657 105.04541016 C65.3590395 107.70362866 66.41519918 110.36345792 67.47045898 113.02368164 C67.7883136 113.81734634 68.10616821 114.61101105 68.43365479 115.4287262 C70.59155273 120.88578385 70.59155273 120.88578385 70.59155273 123.11352539 C62.67155273 123.11352539 54.75155273 123.11352539 46.59155273 123.11352539 C43.27540876 116.48123745 40.1286118 109.93732717 37.27905273 103.11352539 C36.92004883 102.26918945 36.56104492 101.42485352 36.19116211 100.55493164 C35.8527832 99.74926758 35.5144043 98.94360352 35.16577148 98.11352539 C34.86243896 97.39165039 34.55910645 96.66977539 34.24658203 95.92602539 C33.59155273 94.11352539 33.59155273 94.11352539 33.59155273 92.11352539 C17.42155273 92.11352539 1.25155273 92.11352539 -15.40844727 92.11352539 C-16.39844727 95.08352539 -17.38844727 98.05352539 -18.40844727 101.11352539 C-19.12373933 102.93680699 -19.86192427 104.7514873 -20.63500977 106.55102539 C-21.02688477 107.4649707 -21.41875977 108.37891602 -21.82250977 109.32055664 C-22.22211914 110.24223633 -22.62172852 111.16391602 -23.03344727 112.11352539 C-23.44079102 113.06614258 -23.84813477 114.01875977 -24.26782227 115.00024414 C-27.27469492 121.97977304 -27.27469492 121.97977304 -28.40844727 123.11352539 C-30.04317608 123.20052881 -31.68158782 123.22053602 -33.31860352 123.21118164 C-34.30795898 123.20795898 -35.29731445 123.20473633 -36.31665039 123.20141602 C-37.35756836 123.19303711 -38.39848633 123.1846582 -39.47094727 123.17602539 C-40.51573242 123.17151367 -41.56051758 123.16700195 -42.63696289 123.16235352 C-45.22751386 123.15052452 -47.81795285 123.13404228 -50.40844727 123.11352539 C-49.81498277 118.76468372 -48.74692041 115.02286308 -47.11791992 110.9519043 C-46.63812683 109.74427933 -46.15833374 108.53665436 -45.66400146 107.29243469 C-45.13360012 105.97494715 -44.6030999 104.65749941 -44.07250977 103.34008789 C-43.51933746 101.95380307 -42.96671716 100.56729787 -42.41461182 99.18058777 C-40.93381171 95.46537913 -39.44588063 91.75306562 -37.95656586 88.04126358 C-36.416977 84.20072771 -34.88379089 80.35763899 -33.3503418 76.51464844 C-31.49448899 71.86449938 -29.63822501 67.21451825 -27.77914429 62.56565857 C-23.97133962 53.04232939 -20.18510193 43.51090058 -16.42407227 33.96899414 C-15.97756317 32.83675415 -15.53105408 31.70451416 -15.0710144 30.53796387 C-13.40036219 26.30047478 -11.73024638 22.06278127 -10.06402588 17.82354736 C-8.94931323 14.98832378 -7.83154762 12.15432216 -6.71313477 9.32055664 C-6.38839172 8.49162399 -6.06364868 7.66269135 -5.72906494 6.80863953 C-3.0945668 0.14586655 -3.0945668 0.14586655 0 0 Z M8.59155273 29.11352539 C6.45106217 34.6294633 4.31492773 40.1470602 2.18286133 45.66625977 C1.45652661 47.54465559 0.72899125 49.4225876 0.00024414 51.30004883 C-1.04537856 53.99448338 -2.08671066 56.69054153 -3.12719727 59.38696289 C-3.45530396 60.22971771 -3.78341064 61.07247253 -4.12145996 61.94076538 C-4.42177124 62.72142365 -4.72208252 63.50208191 -5.03149414 64.30639648 C-5.29796753 64.99478607 -5.56444092 65.68317566 -5.83898926 66.39242554 C-6.51315429 68.12784277 -6.51315429 68.12784277 -6.40844727 70.11352539 C3.82155273 70.11352539 14.05155273 70.11352539 24.59155273 70.11352539 C22.77146019 64.04655025 20.98286162 58.21277501 18.67358398 52.35571289 C18.28042244 51.34482101 18.28042244 51.34482101 17.87931824 50.31350708 C17.05784104 48.20374953 16.23106726 46.09611758 15.40405273 43.98852539 C14.83924416 42.54074734 14.27478837 41.09283161 13.71069336 39.64477539 C12.3417047 36.13275968 10.96796859 32.62263655 9.59155273 29.11352539 C9.26155273 29.11352539 8.93155273 29.11352539 8.59155273 29.11352539 Z " fill="#000000" transform="translate(467.408447265625,145.886474609375)"/>
<path d="M0 0 C0.66136963 0.15299561 1.32273926 0.30599121 2.00415039 0.46362305 C7.38657293 1.83173724 11.63577718 3.85895652 16.875 6.1875 C13.41 16.0875 13.41 16.0875 9.875 26.1875 C7.4825 25.56875 5.09 24.95 2.625 24.3125 C-16.22668468 19.5770885 -35.04259392 17.0405728 -52.6171875 27.390625 C-60.9814427 33.38370505 -66.62795148 41.95728114 -68.80859375 51.99609375 C-70.60287365 64.42314346 -67.5742227 75.13104935 -60.125 85.1875 C-51.17385136 95.27717193 -38.19907175 99.0588247 -25.125 100.1875 C-15.10348163 100.592942 -5.84497349 98.95640017 3.703125 96.02734375 C6.60662249 95.25856055 8.89568791 95.01389347 11.875 95.1875 C12.88358422 97.60089796 13.88202673 100.01768675 14.875 102.4375 C15.16117188 103.11941406 15.44734375 103.80132812 15.7421875 104.50390625 C17.16845494 108.00165735 17.875 110.35650189 17.875 114.1875 C-9.21477041 123.80012311 -35.09791396 127.89131008 -62.125 115.1875 C-65.32119147 113.4041536 -68.22526319 111.4163608 -71.125 109.1875 C-71.78886719 108.71054687 -72.45273438 108.23359375 -73.13671875 107.7421875 C-84.80164886 98.62108301 -91.17255115 84.14123629 -93.4375 69.875 C-95.35041348 52.84834671 -92.36664393 36.20337937 -82.125 22.1875 C-70.55208751 8.64435241 -55.80089558 0.73353132 -38.125 -1.8125 C-37.40828125 -1.93496094 -36.6915625 -2.05742187 -35.953125 -2.18359375 C-24.13165799 -3.83452276 -11.57562929 -2.69173425 0 0 Z " fill="#0064F4" transform="translate(1212.125,147.8125)"/>
<path d="M0 0 C36.63 0 73.26 0 111 0 C111 7.26 111 14.52 111 22 C96.48 22 81.96 22 67 22 C67 55.33 67 88.66 67 123 C59.41 123 51.82 123 44 123 C44 89.67 44 56.34 44 22 C29.48 22 14.96 22 0 22 C0 14.74 0 7.48 0 0 Z " fill="#0063F3" transform="translate(845,146)"/>
<path d="M0 0 C7.59 0 15.18 0 23 0 C23 33.66 23 67.32 23 102 C43.13 102 63.26 102 84 102 C84 108.93 84 115.86 84 123 C56.28 123 28.56 123 0 123 C0 82.41 0 41.82 0 0 Z " fill="#000000" transform="translate(571,146)"/>
<path d="M0 0 C6.33180106 -0.06927011 12.66226107 -0.12888363 18.99414062 -0.16479492 C21.14327476 -0.17978213 23.29237883 -0.20017887 25.44140625 -0.22631836 C45.41384443 -0.46298061 62.56985802 0.99710735 77.74609375 15.515625 C86.01241625 24.62720405 92.14646386 36.49019569 92.11352539 48.97387695 C92.11341209 50.41480461 92.11341209 50.41480461 92.11329651 51.88484192 C92.10813522 52.9089769 92.10297394 53.93311188 92.09765625 54.98828125 C92.0962413 56.04661667 92.09482635 57.10495209 92.09336853 58.19535828 C92.08778159 61.56776789 92.07523144 64.94011054 92.0625 68.3125 C92.05748331 70.60221258 92.0529207 72.89192621 92.04882812 75.18164062 C92.03866835 80.78780682 92.01909025 86.39382866 92 92 C82.1 92 72.2 92 62 92 C62 71.21 62 50.42 62 29 C41.54 29 21.08 29 0 29 C0 19.43 0 9.86 0 0 Z " fill="#000000" transform="translate(670,193)"/>
<path d="M0 0 C9.9 0 19.8 0 30 0 C30 15.84 30 31.68 30 48 C20.1 48 10.2 48 0 48 C0 32.16 0 16.32 0 0 Z " fill="#0063F1" transform="translate(732,131)"/>
<path d="M0 0 C15.84 0 31.68 0 48 0 C48 9.57 48 19.14 48 29 C32.16 29 16.32 29 0 29 C0 19.43 0 9.86 0 0 Z " fill="#0063F1" transform="translate(776,193)"/>
</svg>
