<?xml version="1.0" encoding="UTF-8" standalone="no"?>
<!DOCTYPE svg PUBLIC "-//W3C//DTD SVG 1.1//EN" "http://www.w3.org/Graphics/SVG/1.1/DTD/svg11.dtd">
<svg xmlns="http://www.w3.org/2000/svg" version="1.1" viewBox="0.00 0.00 384.00 347.00">
<path fill="#25b3c3" d="
  M 38.43 202.61
  Q 43.05 190.46 48.95 179.29
  C 50.11 177.09 53.33 176.53 55.64 177.18
  C 59.11 178.15 62.64 179.00 66.20 179.41
  C 87.31 181.85 108.35 171.15 120.24 153.52
  C 136.46 129.46 132.91 93.90 109.22 75.77
  C 106.95 74.03 105.95 70.99 107.17 68.41
  Q 114.10 53.71 121.24 38.56
  Q 121.47 38.07 121.08 37.69
  L 116.33 32.93
  A 1.38 1.36 67.4 0 0 115.40 32.54
  Q 105.72 32.52 96.21 32.57
  C 93.84 32.59 92.04 32.29 90.31 30.52
  Q 80.81 20.80 70.28 10.44
  C 64.58 4.82 72.77 -3.65 78.55 2.12
  Q 87.83 11.37 96.87 20.44
  Q 97.23 20.80 97.74 20.80
  Q 107.72 20.80 117.83 20.80
  C 121.72 20.80 123.99 23.86 126.40 26.44
  A 0.36 0.35 -54.5 0 0 126.98 26.34
  Q 128.84 22.30 130.65 18.60
  Q 132.71 14.38 137.61 15.06
  Q 159.85 18.14 179.08 29.30
  C 209.16 46.76 225.35 76.51 229.12 110.56
  Q 231.55 132.46 228.72 154.06
  C 227.25 165.29 224.43 176.01 217.99 185.54
  C 210.10 197.21 210.33 210.94 216.41 223.96
  C 219.46 230.48 223.08 237.99 224.11 244.63
  C 225.29 252.19 222.34 259.00 213.64 259.17
  Q 204.48 259.35 195.65 259.23
  A 0.64 0.63 1.4 0 0 195.00 259.84
  C 194.69 267.02 196.26 274.32 188.60 278.43
  Q 185.53 280.08 180.45 279.88
  Q 175.19 279.68 170.60 279.87
  Q 169.98 279.89 170.31 280.43
  Q 174.09 286.63 177.89 293.10
  C 179.28 295.46 178.87 298.31 176.98 300.22
  Q 164.25 313.15 151.47 325.62
  C 143.06 333.83 130.93 335.41 121.24 328.56
  Q 119.12 327.06 114.53 322.48
  Q 87.60 295.61 58.67 266.69
  Q 48.76 256.79 45.76 252.17
  Q 35.86 236.93 36.16 218.29
  Q 36.17 217.74 35.78 217.35
  Q 29.66 211.17 23.87 205.47
  C 22.29 203.91 21.23 202.39 21.23 200.06
  Q 21.27 189.65 21.24 179.74
  A 1.21 1.19 -67.8 0 0 20.89 178.89
  Q 12.27 170.23 2.71 160.74
  C -3.26 154.82 5.09 146.41 11.12 152.48
  Q 21.76 163.19 31.21 172.58
  C 32.48 173.85 32.98 175.50 32.99 177.25
  Q 33.03 187.23 32.99 197.23
  Q 32.99 197.94 33.49 198.43
  L 37.81 202.74
  Q 38.22 203.15 38.43 202.61
  Z
  M 119.93 69.41
  C 142.47 90.28 148.09 123.68 135.06 151.21
  C 121.50 179.87 88.64 197.25 57.54 189.76
  Q 56.89 189.61 56.60 190.21
  Q 52.97 197.55 50.96 202.72
  C 44.51 219.41 48.00 239.38 61.00 252.39
  Q 92.89 284.33 124.62 316.05
  C 128.50 319.93 132.75 322.45 138.49 320.44
  Q 141.17 319.50 146.17 314.49
  Q 155.76 304.86 165.07 295.57
  Q 165.47 295.16 165.18 294.67
  Q 160.58 286.99 154.83 277.43
  C 152.37 273.33 154.68 268.18 159.67 268.18
  Q 171.30 268.18 182.51 268.21
  Q 183.07 268.21 183.09 267.65
  Q 183.22 264.74 183.14 261.93
  C 182.97 256.10 185.14 251.09 190.69 248.65
  Q 193.84 247.26 199.42 247.43
  Q 206.03 247.62 212.12 247.45
  Q 212.66 247.43 212.57 246.90
  C 210.93 236.77 204.12 227.73 201.72 217.81
  Q 196.53 196.32 208.59 178.41
  C 214.32 169.89 216.46 159.38 217.52 149.06
  C 220.17 123.11 218.04 95.92 206.11 73.33
  C 192.74 47.99 168.08 31.59 139.83 27.20
  A 0.36 0.35 16.2 0 0 139.45 27.40
  L 119.85 69.03
  Q 119.75 69.24 119.93 69.41
  Z"
/>
<path fill="#25b3c3" d="
  M 29.21 107.77
  C 33.51 93.67 44.61 83.11 58.54 78.64
  A 0.21 0.21 0.0 0 0 58.63 78.29
  Q 47.58 67.11 35.51 55.18
  C 28.91 48.66 37.38 40.46 43.49 46.55
  Q 58.51 61.55 73.36 76.43
  A 1.74 1.73 -19.7 0 0 74.42 76.93
  Q 93.89 78.72 105.81 93.55
  C 122.26 114.03 116.85 143.95 95.07 157.99
  C 80.25 167.55 60.71 167.41 46.15 157.07
  Q 29.44 145.19 27.29 124.02
  A 1.74 1.73 -70.3 0 0 26.79 122.96
  Q 15.06 111.18 2.63 98.80
  C -3.15 93.06 5.08 84.62 10.94 90.52
  Q 20.73 100.36 28.38 107.98
  Q 28.97 108.56 29.21 107.77
  Z
  M 103.67 120.90
  A 32.38 32.38 0.0 0 0 71.29 88.52
  A 32.38 32.38 0.0 0 0 38.91 120.90
  A 32.38 32.38 0.0 0 0 71.29 153.28
  A 32.38 32.38 0.0 0 0 103.67 120.90
  Z"
/>
<path fill="#25b3c3" d="
  M 298.84 124.57
  C 283.05 106.60 261.92 93.76 238.64 88.56
  C 230.05 86.64 233.07 75.19 240.51 76.90
  Q 280.33 86.08 307.80 116.94
  C 312.97 122.75 304.23 130.71 298.84 124.57
  Z"
/>
<path fill="#25b3c3" d="
  M 332.85 191.07
  C 306.43 177.28 308.77 146.46 324.28 125.71
  Q 337.88 107.52 362.19 95.44
  C 366.86 93.12 371.63 95.49 371.57 100.76
  Q 371.45 112.79 371.60 122.19
  C 371.69 127.81 373.44 133.79 376.72 138.55
  C 389.30 156.78 383.32 181.00 363.29 190.88
  Q 362.68 191.18 363.01 191.77
  Q 365.41 196.20 366.39 201.03
  Q 368.43 211.05 368.46 221.28
  Q 368.54 251.64 368.55 292.80
  Q 368.55 303.45 367.19 313.43
  C 365.84 323.34 361.31 334.86 349.56 335.71
  C 336.39 336.67 331.93 324.55 330.13 313.78
  Q 328.22 302.34 327.99 290.75
  Q 327.31 256.94 327.58 221.26
  Q 327.66 211.00 329.69 200.90
  C 330.33 197.70 331.50 194.62 333.04 191.70
  A 0.47 0.47 0.0 0 0 332.85 191.07
  Z
  M 324.57 156.37
  Q 323.80 166.09 328.99 173.07
  C 337.94 185.12 356.31 186.34 366.04 174.31
  Q 374.39 163.98 370.14 151.15
  C 369.09 147.95 366.89 145.17 365.23 142.24
  C 359.63 132.44 359.53 121.98 359.85 110.88
  Q 359.87 110.12 359.22 110.51
  C 342.21 120.57 326.16 136.39 324.57 156.37
  Z
  M 356.80 227.19
  C 356.82 218.62 356.58 209.47 354.37 201.21
  Q 353.66 198.58 352.15 196.53
  C 350.04 193.67 345.83 193.76 343.74 196.72
  Q 342.39 198.63 341.93 200.34
  Q 339.43 209.60 339.35 220.42
  Q 339.08 252.96 339.61 284.24
  C 339.71 290.37 340.10 322.23 347.32 323.87
  C 357.11 326.11 356.85 297.60 356.83 291.77
  Q 356.70 260.49 356.80 227.19
  Z"
/>
<path fill="#25b3c3" d="
  M 168.73 176.81
  Q 167.90 176.81 168.49 177.40
  Q 175.55 184.47 182.07 190.97
  C 183.57 192.47 184.80 194.16 184.54 196.43
  C 184.09 200.34 179.99 203.27 176.27 201.25
  Q 174.97 200.55 173.93 199.50
  Q 161.69 187.20 149.72 175.24
  C 145.77 171.30 148.62 165.11 154.02 165.10
  Q 171.52 165.06 188.80 165.08
  C 196.88 165.09 196.94 176.81 188.63 176.81
  Q 178.36 176.81 168.73 176.81
  Z"
/>
<path fill="#25b3c3" d="
  M 300.87 197.44
  A 32.33 32.33 0.0 0 1 268.54 229.77
  A 32.33 32.33 0.0 0 1 236.21 197.44
  A 32.33 32.33 0.0 0 1 268.54 165.11
  A 32.33 32.33 0.0 0 1 300.87 197.44
  Z
  M 289.15 197.44
  A 20.61 20.61 0.0 0 0 268.54 176.83
  A 20.61 20.61 0.0 0 0 247.93 197.44
  A 20.61 20.61 0.0 0 0 268.54 218.05
  A 20.61 20.61 0.0 0 0 289.15 197.44
  Z"
/>
<path fill="#25b3c3" d="
  M 306.76 276.93
  A 32.33 32.33 0.0 0 1 274.43 309.26
  A 32.33 32.33 0.0 0 1 242.10 276.93
  A 32.33 32.33 0.0 0 1 274.43 244.60
  A 32.33 32.33 0.0 0 1 306.76 276.93
  Z
  M 295.04 276.93
  A 20.61 20.61 0.0 0 0 274.43 256.32
  A 20.61 20.61 0.0 0 0 253.82 276.93
  A 20.61 20.61 0.0 0 0 274.43 297.54
  A 20.61 20.61 0.0 0 0 295.04 276.93
  Z"
/>
<path fill="#25b3c3" d="
  M 240.90 322.28
  C 260.08 338.33 289.11 338.35 308.23 322.08
  Q 310.15 320.45 312.29 320.29
  C 316.48 319.99 319.83 324.23 318.13 328.21
  Q 317.36 330.03 315.03 331.80
  Q 306.50 338.29 298.54 341.40
  C 263.86 354.93 225.70 337.61 213.28 302.59
  Q 210.18 293.85 209.65 282.85
  C 209.19 273.35 221.19 273.28 221.40 281.46
  Q 222.04 306.51 240.90 322.28
  Z"
/>
</svg>
