<?xml version="1.0" encoding="UTF-8"?>
<!-- Generator: visioncortex VTracer 0.6.3 -->
<svg version="1.1" xmlns="http://www.w3.org/2000/svg" width="1280" height="1280">
<path d="M0 0 C1.26 -0 2.51 -0.01 3.8 -0.01 C7.28 -0.02 10.76 -0.02 14.24 -0 C18.03 0 21.82 -0 25.6 -0.01 C32.24 -0.02 38.87 -0.02 45.51 -0.01 C55.38 0 65.24 0 75.11 -0.01 C92.73 -0.02 110.36 -0.01 127.98 -0 C143.4 0.01 158.82 0.01 174.24 0.01 C175.27 0.01 176.29 0.01 177.34 0.01 C181.49 0.01 185.64 0.01 189.79 0.01 C228.74 0.01 267.69 0.02 306.63 0.04 C341.24 0.06 375.85 0.06 410.46 0.06 C412.68 0.06 414.9 0.06 417.12 0.06 C418.22 0.06 419.32 0.06 420.45 0.06 C425.98 0.06 431.51 0.06 437.04 0.06 C438.13 0.05 439.22 0.05 440.35 0.05 C469.26 0.05 498.17 0.06 527.08 0.06 C530.19 0.07 533.3 0.07 536.41 0.07 C538.48 0.07 540.54 0.07 542.6 0.07 C556.99 0.07 571.38 0.07 585.78 0.07 C604.32 0.07 622.87 0.07 641.41 0.09 C651.22 0.1 661.03 0.1 670.84 0.09 C677.39 0.09 683.94 0.1 690.49 0.11 C694.22 0.11 697.96 0.11 701.69 0.11 C705.71 0.1 709.73 0.11 713.75 0.12 C714.91 0.12 716.07 0.11 717.27 0.11 C723.59 0.14 729.27 0.74 735.38 2.37 C736.96 2.67 738.54 2.97 740.13 3.25 C752.4 5.69 763.92 10.31 775.28 15.44 C777.22 16.3 779.17 17.12 781.13 17.94 C784.07 19.24 786.64 20.7 789.38 22.37 C791 23.35 792.63 24.33 794.25 25.31 C795.55 26.1 795.55 26.1 796.88 26.9 C798.96 28.13 801.06 29.29 803.19 30.44 C806.46 32.43 808.72 34.64 811.38 37.37 C812.13 37.8 812.89 38.23 813.67 38.68 C816.91 40.71 819.39 43.24 822 46 C825.64 49.96 825.64 49.96 830.38 52.37 C831.56 54.44 831.56 54.44 832.38 56.37 C833.04 56.37 833.7 56.37 834.38 56.37 C835.38 58.04 836.38 59.71 837.38 61.37 C839.5 63.61 841.7 65.73 843.93 67.85 C847 70.83 849.25 73.61 851.38 77.37 C852.1 78.26 852.82 79.15 853.56 80.06 C855.38 82.37 855.38 82.37 855.38 84.37 C856.04 84.37 856.7 84.37 857.38 84.37 C858.03 85.98 858.03 85.98 858.69 87.62 C859.94 90.55 861.39 92.87 863.38 95.37 C865.24 98.51 865.38 99.5 865.38 103.37 C866.37 103.7 867.36 104.03 868.38 104.37 C870.08 107.7 870.38 109.56 870.38 113.37 C871.04 113.37 871.7 113.37 872.38 113.37 C873.73 116.08 873.44 118.38 873.38 121.37 C874.04 121.37 874.7 121.37 875.38 121.37 C875.43 122.01 875.47 122.65 875.52 123.31 C875.6 124.13 875.67 124.96 875.75 125.81 C875.82 126.64 875.89 127.46 875.96 128.31 C876.1 128.99 876.24 129.67 876.38 130.37 C877.04 130.7 877.7 131.03 878.38 131.37 C879.93 134.4 880.53 137.16 880.88 140.5 C881.09 144.43 881.09 144.43 883.38 147.37 C883.83 149.78 883.83 149.78 884.06 152.44 C884.15 153.32 884.24 154.19 884.33 155.1 C884.38 157.37 884.38 157.37 883.38 159.37 C884.04 159.37 884.7 159.37 885.38 159.37 C885.71 163 886.04 166.63 886.38 170.37 C886.71 170.37 887.04 170.37 887.38 170.37 C887.38 263.43 887.38 356.49 887.38 452.37 C922.36 452.37 957.34 452.37 993.38 452.37 C995.03 453.03 996.68 453.69 998.38 454.37 C998.38 455.03 998.38 455.69 998.38 456.37 C999.35 456.64 1000.32 456.91 1001.31 457.19 C1002.32 457.58 1003.34 457.97 1004.38 458.37 C1004.71 459.36 1005.04 460.35 1005.38 461.37 C1005.95 461.66 1006.53 461.95 1007.13 462.25 C1012.41 464.89 1015 468.84 1016.82 474.25 C1017.7 477.6 1018.02 480.93 1018.38 484.37 C1018.71 485.03 1019.04 485.69 1019.38 486.37 C1019.05 487.36 1018.72 488.35 1018.38 489.37 C1019.04 489.37 1019.7 489.37 1020.38 489.37 C1020.38 505.87 1020.38 522.37 1020.38 539.37 C1021.37 539.37 1022.36 539.37 1023.38 539.37 C1023.38 540.03 1023.38 540.69 1023.38 541.37 C1024.1 541.5 1024.82 541.62 1025.56 541.75 C1028.33 542.37 1030.77 543.26 1033.38 544.37 C1033.38 545.03 1033.38 545.69 1033.38 546.37 C1038.33 547.86 1038.33 547.86 1043.38 549.37 C1043.38 550.03 1043.38 550.69 1043.38 551.37 C1045.03 551.7 1046.68 552.03 1048.38 552.37 C1048.38 553.03 1048.38 553.69 1048.38 554.37 C1049.37 554.37 1050.36 554.37 1051.38 554.37 C1052.04 555.03 1052.7 555.69 1053.38 556.37 C1054.37 556.7 1055.36 557.03 1056.38 557.37 C1057.12 558.18 1057.86 558.98 1058.63 559.81 C1061.87 562.83 1064.01 563.75 1068.38 564.37 C1070.74 563.13 1070.74 563.13 1073.38 561.37 C1074.59 560.72 1075.81 560.07 1077.04 559.44 C1077.69 559.1 1078.33 558.76 1079 558.41 C1080.34 557.72 1081.68 557.03 1083.02 556.34 C1086.28 554.63 1088.82 552.98 1091.38 550.37 C1093.37 549.3 1095.39 548.28 1097.44 547.31 C1101.74 545.32 1101.74 545.32 1105.38 542.37 C1106.7 542.37 1108.02 542.37 1109.38 542.37 C1109.38 541.71 1109.38 541.05 1109.38 540.37 C1116.06 537.36 1121.72 536.92 1129 537 C1130.01 536.99 1131.02 536.98 1132.06 536.96 C1138.32 536.99 1143.27 537.39 1148 541.94 C1148.46 542.41 1148.91 542.89 1149.38 543.37 C1150.69 544.07 1152.03 544.74 1153.38 545.37 C1156.38 547.37 1156.38 547.37 1157.06 549.5 C1157.17 550.12 1157.27 550.74 1157.38 551.37 C1158.04 551.04 1158.7 550.71 1159.38 550.37 C1159.56 551.33 1159.56 551.33 1159.75 552.31 C1160.06 553.33 1160.06 553.33 1160.38 554.37 C1161.37 554.87 1161.37 554.87 1162.38 555.37 C1163.08 557.02 1163.74 558.7 1164.38 560.37 C1164.91 561.43 1165.45 562.48 1166 563.56 C1167.38 566.37 1167.38 566.37 1167.38 568.37 C1168.37 568.7 1169.36 569.03 1170.38 569.37 C1170.52 569.97 1170.67 570.57 1170.81 571.19 C1171.56 574.1 1173.25 575.32 1175.38 577.37 C1175.38 578.03 1175.38 578.69 1175.38 579.37 C1176.03 579.99 1176.03 579.99 1176.69 580.62 C1178.92 582.94 1180.01 585.47 1181.38 588.37 C1181.73 589.08 1182.08 589.78 1182.44 590.5 C1189.38 604.37 1189.38 604.37 1190.31 606.56 C1191.31 608.72 1191.31 608.72 1194.38 609.37 C1194.5 610.16 1194.62 610.94 1194.75 611.75 C1195.17 614.52 1195.17 614.52 1197.38 616.37 C1197.67 616.97 1197.95 617.57 1198.25 618.19 C1199.35 620.54 1199.35 620.54 1201.5 622.81 C1203.68 625.8 1203.38 626.83 1203.38 630.37 C1204.69 631.73 1206.02 633.06 1207.38 634.37 C1208.13 637.12 1208.13 637.12 1208.38 639.37 C1209.04 639.37 1209.7 639.37 1210.38 639.37 C1211.04 641.35 1211.7 643.33 1212.38 645.37 C1213.04 645.37 1213.7 645.37 1214.38 645.37 C1214.83 646.34 1215.28 647.31 1215.75 648.31 C1217.03 651.45 1217.03 651.45 1219.38 652.37 C1219.75 653.7 1220.08 655.03 1220.38 656.37 C1221.54 659.91 1221.54 659.91 1223.86 662.71 C1226.32 665.41 1226.63 668.7 1227.44 672.2 C1227.75 672.91 1228.06 673.63 1228.38 674.37 C1230.34 675.03 1230.34 675.03 1232.38 675.37 C1234.21 678.13 1234.68 679.31 1235.38 682.37 C1236.11 685.5 1236.11 685.5 1237.38 688.37 C1238.7 689.03 1240.02 689.69 1241.38 690.37 C1241.38 699.61 1241.38 708.85 1241.38 718.37 C1240.72 718.37 1240.06 718.37 1239.38 718.37 C1239.09 719.49 1238.8 720.6 1238.5 721.75 C1237.38 725.37 1237.38 725.37 1235.38 727.37 C1234.72 727.7 1234.06 728.03 1233.38 728.37 C1233.31 728.99 1233.25 729.61 1233.19 730.25 C1232.38 732.37 1232.38 732.37 1228.94 734.19 C1227.18 734.78 1227.18 734.78 1225.38 735.37 C1224.72 735.04 1224.06 734.71 1223.38 734.37 C1223.71 735.36 1224.04 736.35 1224.38 737.37 C1223.06 737.37 1221.74 737.37 1220.38 737.37 C1220.38 738.03 1220.38 738.69 1220.38 739.37 C1218.73 739.37 1217.08 739.37 1215.38 739.37 C1215.05 741.02 1214.72 742.67 1214.38 744.37 C1213.72 744.37 1213.06 744.37 1212.38 744.37 C1212.05 745.03 1211.72 745.69 1211.38 746.37 C1208.38 745.37 1208.38 745.37 1207.38 744.37 C1207.32 744.98 1207.27 745.58 1207.22 746.2 C1206.38 748.37 1206.38 748.37 1203.94 749.89 C1202.95 750.32 1201.96 750.75 1200.94 751.19 C1199.95 751.63 1198.96 752.07 1197.94 752.52 C1197.1 752.8 1196.25 753.08 1195.38 753.37 C1194.72 753.04 1194.06 752.71 1193.38 752.37 C1193.71 753.36 1194.04 754.35 1194.38 755.37 C1192.78 756.24 1191.17 757.09 1189.56 757.94 C1188.67 758.41 1187.78 758.89 1186.86 759.38 C1184.38 760.37 1184.38 760.37 1181.38 759.37 C1181.35 763.31 1181.33 767.25 1181.31 771.19 C1181.31 772.31 1181.3 773.43 1181.29 774.58 C1181.28 776.19 1181.28 776.19 1181.28 777.83 C1181.27 778.82 1181.27 779.81 1181.26 780.83 C1181.27 783.5 1181.27 783.5 1182.38 786.37 C1182.47 788.08 1182.51 789.79 1182.5 791.5 C1182.5 792.39 1182.51 793.28 1182.51 794.2 C1182.38 796.37 1182.38 796.37 1181.38 797.37 C1181.29 798.94 1181.27 800.5 1181.28 802.07 C1181.28 803.01 1181.29 803.95 1181.29 804.93 C1181.3 805.92 1181.31 806.91 1181.31 807.94 C1181.32 808.93 1181.32 809.93 1181.33 810.96 C1181.34 813.43 1181.36 815.9 1181.38 818.37 C1182.58 818.56 1182.58 818.56 1183.81 818.75 C1184.66 818.96 1185.51 819.16 1186.38 819.37 C1186.71 820.03 1187.04 820.69 1187.38 821.37 C1189.04 822.05 1190.71 822.71 1192.38 823.37 C1193.72 824.36 1195.06 825.35 1196.38 826.37 C1198.71 827.65 1200.84 828.53 1203.38 829.37 C1203.38 830.03 1203.38 830.69 1203.38 831.37 C1204.28 831.64 1205.19 831.91 1206.13 832.19 C1209.18 833.3 1210.83 834.45 1213.38 836.37 C1215.68 837.47 1218.01 838.42 1220.38 839.37 C1220.38 840.03 1220.38 840.69 1220.38 841.37 C1221.1 841.44 1221.82 841.5 1222.56 841.56 C1226.24 842.62 1227.8 844.6 1230.38 847.37 C1231.37 848.03 1232.36 848.69 1233.38 849.37 C1234.56 852.5 1234.56 852.5 1235.38 855.37 C1236.04 855.37 1236.7 855.37 1237.38 855.37 C1237.48 855.97 1237.58 856.57 1237.69 857.19 C1238.18 859.45 1238.18 859.45 1239.9 860.64 C1242.05 863.17 1241.72 865.08 1241.67 868.36 C1241.66 869.52 1241.65 870.68 1241.64 871.88 C1241.62 873.1 1241.59 874.31 1241.56 875.56 C1241.55 876.79 1241.54 878.02 1241.52 879.28 C1241.49 882.31 1241.44 885.34 1241.38 888.37 C1240.72 888.37 1240.06 888.37 1239.38 888.37 C1239.23 889.16 1239.09 889.94 1238.94 890.75 C1238.38 893.37 1238.38 893.37 1237.38 895.37 C1236.72 895.37 1236.06 895.37 1235.38 895.37 C1235.05 896.36 1234.72 897.35 1234.38 898.37 C1233.39 898.04 1232.4 897.71 1231.38 897.37 C1231.38 899.02 1231.38 900.67 1231.38 902.37 C1232.37 902.87 1232.37 902.87 1233.38 903.37 C1232.72 904.03 1232.06 904.69 1231.38 905.37 C1230.39 905.04 1229.4 904.71 1228.38 904.37 C1228.71 905.36 1229.04 906.35 1229.38 907.37 C1228.06 909.81 1228.06 909.81 1226.38 912.37 C1226.03 913.1 1225.68 913.82 1225.31 914.56 C1224.38 916.37 1224.38 916.37 1222.38 918.37 C1221.72 918.04 1221.06 917.71 1220.38 917.37 C1220.38 918.69 1220.38 920.01 1220.38 921.37 C1219.72 921.37 1219.06 921.37 1218.38 921.37 C1218.7 922.2 1218.7 922.2 1219.03 923.05 C1219.51 926.25 1218.46 927.81 1216.94 930.62 C1216.23 931.96 1216.23 931.96 1215.51 933.33 C1215.13 934 1214.76 934.68 1214.38 935.37 C1213.06 935.04 1211.74 934.71 1210.38 934.37 C1210.71 935.69 1211.04 937.01 1211.38 938.37 C1210.39 938.7 1209.4 939.03 1208.38 939.37 C1208.71 940.36 1209.04 941.35 1209.38 942.37 C1207.6 945.86 1206.13 948.62 1203.38 951.37 C1203.25 952.32 1203.13 953.27 1203 954.25 C1202.26 957.95 1201.37 959.13 1198.38 961.37 C1195.63 962.12 1195.63 962.12 1193.38 962.37 C1193.71 963.36 1194.04 964.35 1194.38 965.37 C1194.05 966.03 1193.72 966.69 1193.38 967.37 C1194.37 967.87 1194.37 967.87 1195.38 968.37 C1193.79 970.75 1192.5 972.52 1190.38 974.37 C1189.72 974.37 1189.06 974.37 1188.38 974.37 C1188.71 975.36 1189.04 976.35 1189.38 977.37 C1188.44 980.56 1188.44 980.56 1187.38 983.37 C1186.39 983.37 1185.4 983.37 1184.38 983.37 C1183.72 985.68 1183.06 987.99 1182.38 990.37 C1181.72 990.37 1181.06 990.37 1180.38 990.37 C1180.27 991.01 1180.17 991.65 1180.06 992.31 C1179.84 992.99 1179.61 993.67 1179.38 994.37 C1178.39 994.7 1177.4 995.03 1176.38 995.37 C1176.38 996.03 1176.38 996.69 1176.38 997.37 C1177.37 997.87 1177.37 997.87 1178.38 998.37 C1177.72 999.03 1177.06 999.69 1176.38 1000.37 C1175.39 1000.04 1174.4 999.71 1173.38 999.37 C1173.71 1000.36 1174.04 1001.35 1174.38 1002.37 C1173.3 1004.89 1171.83 1007.04 1170.38 1009.37 C1169.72 1009.37 1169.06 1009.37 1168.38 1009.37 C1168.05 1010.69 1167.72 1012.01 1167.38 1013.37 C1166.72 1013.04 1166.06 1012.71 1165.38 1012.37 C1165.5 1013.95 1165.5 1013.95 1165.63 1015.56 C1165.34 1019.91 1164.35 1021.31 1161.38 1024.37 C1160.39 1023.71 1159.4 1023.05 1158.38 1022.37 C1158.38 1024.68 1158.38 1026.99 1158.38 1029.37 C1157.39 1029.37 1156.4 1029.37 1155.38 1029.37 C1155.17 1029.91 1154.96 1030.45 1154.75 1031 C1152.22 1035.38 1148.27 1039.74 1143.38 1041.37 C1136.94 1042.63 1130.66 1042.38 1124.13 1042.12 C1123.04 1042.1 1121.95 1042.07 1120.83 1042.04 C1119.79 1042 1118.75 1041.96 1117.67 1041.92 C1116.73 1041.89 1115.78 1041.86 1114.81 1041.82 C1111.97 1041.3 1111.25 1040.49 1109.38 1038.37 C1108.39 1038.04 1107.4 1037.71 1106.38 1037.37 C1104.19 1035.94 1104.19 1035.94 1102.38 1034.37 C1102.38 1033.71 1102.38 1033.05 1102.38 1032.37 C1101.69 1032.18 1101 1031.99 1100.29 1031.79 C1099.39 1031.53 1098.49 1031.27 1097.56 1031 C1096.67 1030.74 1095.78 1030.49 1094.86 1030.23 C1091.84 1029.19 1089.84 1028.3 1088.38 1025.37 C1087.39 1025.04 1086.4 1024.71 1085.38 1024.37 C1085.38 1023.71 1085.38 1023.05 1085.38 1022.37 C1084.7 1022.2 1084.03 1022.03 1083.33 1021.86 C1078.09 1020.44 1075.18 1019.32 1071.38 1015.37 C1069.01 1015.5 1069.01 1015.5 1066.38 1016.37 C1064.94 1016.58 1063.5 1016.77 1062.06 1016.94 C1060.85 1017.08 1059.63 1017.23 1058.38 1017.37 C1058.71 1018.36 1059.04 1019.35 1059.38 1020.37 C1058.39 1020.04 1057.4 1019.71 1056.38 1019.37 C1056.05 1020.36 1055.72 1021.35 1055.38 1022.37 C1054.39 1022.7 1053.4 1023.03 1052.38 1023.37 C1051.72 1023.04 1051.06 1022.71 1050.38 1022.37 C1050.05 1023.36 1049.72 1024.35 1049.38 1025.37 C1048.39 1025.04 1047.4 1024.71 1046.38 1024.37 C1046.71 1025.36 1047.04 1026.35 1047.38 1027.37 C1044.88 1029.87 1042.54 1030.48 1039.25 1031.59 C1037.18 1032.32 1037.18 1032.32 1035.38 1034.37 C1033.36 1035.21 1031.32 1035.89 1029.25 1036.59 C1027.18 1037.32 1027.18 1037.32 1025.38 1039.37 C1022.75 1039.5 1022.75 1039.5 1020.38 1039.37 C1020.38 1040.34 1020.38 1040.34 1020.39 1041.32 C1020.43 1047.98 1020.46 1054.65 1020.49 1061.32 C1020.5 1063.8 1020.51 1066.29 1020.53 1068.78 C1020.55 1072.36 1020.56 1075.93 1020.57 1079.51 C1020.58 1080.62 1020.59 1081.73 1020.6 1082.88 C1020.6 1083.92 1020.6 1084.96 1020.6 1086.03 C1020.61 1086.95 1020.61 1087.86 1020.62 1088.8 C1020.35 1091.64 1019.44 1093.75 1018.38 1096.37 C1018.68 1099.6 1018.68 1099.6 1019.38 1102.37 C1018.72 1102.37 1018.06 1102.37 1017.38 1102.37 C1016.72 1104.68 1016.06 1106.99 1015.38 1109.37 C1014.06 1109.7 1012.74 1110.03 1011.38 1110.37 C1011.09 1111.51 1010.8 1112.64 1010.5 1113.81 C1010.13 1114.99 1009.76 1116.16 1009.38 1117.37 C1008.72 1117.7 1008.06 1118.03 1007.38 1118.37 C1006.72 1118.04 1006.06 1117.71 1005.38 1117.37 C1005.05 1118.36 1004.72 1119.35 1004.38 1120.37 C1003.39 1120.04 1002.4 1119.71 1001.38 1119.37 C1001.71 1120.36 1002.04 1121.35 1002.38 1122.37 C998.2 1126.56 993.73 1126.63 988.02 1126.68 C986.94 1126.69 986.94 1126.69 985.83 1126.7 C983.45 1126.73 981.07 1126.74 978.69 1126.75 C977.02 1126.77 975.35 1126.79 973.68 1126.81 C969.29 1126.85 964.89 1126.89 960.5 1126.92 C953.5 1126.97 946.49 1127.04 939.49 1127.11 C937.06 1127.13 934.63 1127.14 932.2 1127.16 C925.95 1127.21 919.75 1127.27 913.53 1127.89 C904.83 1128.58 896.09 1128.37 887.38 1128.37 C887.38 1169.29 887.38 1210.21 887.38 1252.37 C887.05 1252.37 886.72 1252.37 886.38 1252.37 C886.38 1211.12 886.38 1169.87 886.38 1127.37 C885.14 1128.39 885.14 1128.39 885.26 1130.48 C885.27 1131.42 885.27 1132.35 885.28 1133.31 C885.28 1134.38 885.28 1135.45 885.29 1136.56 C885.29 1137.74 885.3 1138.92 885.31 1140.14 C885.32 1141.38 885.32 1142.62 885.32 1143.9 C885.34 1146.6 885.35 1149.3 885.36 1152 C885.39 1156.28 885.4 1160.55 885.41 1164.82 C885.44 1176.98 885.49 1189.13 885.55 1201.29 C885.58 1208 885.61 1214.71 885.62 1221.41 C885.62 1224.97 885.64 1228.52 885.66 1232.07 C885.69 1236.03 885.7 1239.99 885.7 1243.96 C885.71 1245.13 885.73 1246.31 885.74 1247.52 C885.72 1254 885.54 1259.08 880.81 1264 C880.34 1264.45 879.87 1264.91 879.38 1265.37 C878.2 1267.47 878.2 1267.47 877.38 1269.37 C876.06 1268.71 874.74 1268.05 873.38 1267.37 C873.38 1268.03 873.38 1268.69 873.38 1269.37 C874.04 1270.03 874.7 1270.69 875.38 1271.37 C874.43 1271.99 873.48 1272.61 872.5 1273.25 C869.43 1275.19 869.43 1275.19 867.38 1277.37 C865.72 1278.06 864.05 1278.73 862.38 1279.37 C862.05 1279.7 861.72 1280.03 861.38 1280.37 C859.47 1280.47 857.56 1280.5 855.66 1280.5 C854.41 1280.51 853.15 1280.51 851.86 1280.52 C850.45 1280.51 849.04 1280.51 847.63 1280.51 C846.14 1280.51 844.65 1280.52 843.16 1280.52 C839.03 1280.53 834.9 1280.53 830.77 1280.53 C826.29 1280.53 821.82 1280.54 817.34 1280.54 C808.44 1280.55 799.54 1280.56 790.64 1280.56 C779.99 1280.57 769.33 1280.58 758.68 1280.59 C732.93 1280.61 707.17 1280.63 681.42 1280.64 C672.89 1280.65 664.36 1280.65 655.83 1280.66 C610.52 1280.68 565.21 1280.7 519.89 1280.72 C509.39 1280.72 498.89 1280.72 488.38 1280.72 C486.42 1280.73 486.42 1280.73 484.43 1280.73 C442.11 1280.74 399.79 1280.77 357.46 1280.81 C313.98 1280.85 270.5 1280.88 227.01 1280.89 C220.88 1280.89 214.74 1280.89 208.6 1280.89 C206.79 1280.89 206.79 1280.89 204.94 1280.89 C185.47 1280.89 166.01 1280.91 146.54 1280.94 C126.98 1280.96 107.42 1280.97 87.87 1280.96 C76.24 1280.96 64.61 1280.96 52.99 1280.99 C45.22 1281.01 37.46 1281.01 29.7 1280.99 C25.27 1280.98 20.85 1280.98 16.42 1281 C12.4 1281.02 8.37 1281.02 4.34 1281 C2.9 1280.99 1.45 1281 0 1281.01 C-8.57 1281.09 -14.59 1280.43 -21.62 1275.37 C-22.62 1274.75 -23.62 1274.13 -24.65 1273.5 C-25.47 1272.94 -26.28 1272.38 -27.12 1271.81 C-28.38 1270.97 -28.38 1270.97 -29.65 1270.12 C-31.86 1268.17 -32.17 1267.21 -32.62 1264.37 C-33.61 1263.03 -34.61 1261.7 -35.62 1260.37 C-38.59 1255.49 -39.05 1251.35 -39 1245.76 C-39 1244.9 -39.01 1244.04 -39.01 1243.16 C-39.02 1240.27 -39.01 1237.37 -39 1234.48 C-39 1232.38 -39.01 1230.28 -39.01 1228.18 C-39.02 1222.38 -39.01 1216.58 -39 1210.78 C-38.99 1204.48 -39 1198.18 -39.01 1191.88 C-39.02 1180.84 -39.02 1169.79 -39.01 1158.74 C-39 1146.88 -38.99 1135.02 -39 1123.16 C-39 1122.04 -39 1122.04 -39 1120.9 C-39 1117.85 -39 1114.8 -39 1111.75 C-39.02 1083.34 -39.01 1054.94 -39 1026.53 C-38.99 999.16 -38.98 971.78 -38.99 944.4 C-38.99 942.68 -38.99 940.96 -38.99 939.24 C-38.99 932.34 -38.99 925.44 -38.99 918.53 C-38.99 899.23 -38.99 879.93 -38.99 860.63 C-38.99 859.75 -38.99 858.87 -38.99 857.96 C-38.99 829.94 -38.98 801.93 -38.97 773.91 C-38.97 773 -38.97 772.09 -38.97 771.16 C-38.97 756.39 -38.96 741.63 -38.96 726.87 C-38.94 668.32 -38.93 609.78 -38.94 551.23 C-38.94 547.53 -38.94 543.83 -38.94 540.13 C-38.94 539.22 -38.94 538.3 -38.94 537.36 C-38.94 527.23 -38.94 517.1 -38.94 506.97 C-38.94 506.06 -38.94 505.16 -38.94 504.22 C-38.95 455.2 -38.94 406.18 -38.93 357.16 C-38.93 355.43 -38.93 353.71 -38.93 351.98 C-38.93 351.12 -38.93 350.27 -38.93 349.39 C-38.93 347.67 -38.93 345.94 -38.93 344.22 C-38.93 339.93 -38.93 335.63 -38.93 331.34 C-38.93 312.51 -38.92 293.68 -38.93 274.86 C-38.93 274.01 -38.93 273.16 -38.93 272.28 C-38.93 268.01 -38.93 263.73 -38.93 259.46 C-38.93 228.58 -38.92 197.71 -38.91 166.84 C-38.91 163.8 -38.91 160.76 -38.9 157.72 C-38.9 156.97 -38.9 156.23 -38.9 155.46 C-38.9 143.63 -38.9 131.8 -38.9 119.98 C-38.91 108.36 -38.9 96.74 -38.89 85.12 C-38.89 78.9 -38.88 72.68 -38.89 66.46 C-38.9 60.8 -38.89 55.15 -38.88 49.5 C-38.88 47.46 -38.88 45.42 -38.89 43.39 C-38.89 40.63 -38.88 37.87 -38.88 35.11 C-38.88 34.32 -38.88 33.53 -38.89 32.71 C-38.85 26.4 -38.21 20.15 -33.62 15.37 C-32.96 15.37 -32.3 15.37 -31.62 15.37 C-31.47 14.2 -31.47 14.2 -31.31 13 C-30.62 10.37 -30.62 10.37 -27.62 8.37 C-26.94 8.25 -26.26 8.13 -25.56 8 C-24.92 7.79 -24.28 7.59 -23.62 7.37 C-23.33 6.74 -23.04 6.1 -22.74 5.44 C-21.36 2.89 -20.51 2.54 -17.79 1.65 C-11.89 -0.08 -6.1 -0.04 0 0 Z M845.38 71.37 C846.38 73.37 846.38 73.37 846.38 73.37 Z M878.38 137.37 C878.38 139.35 878.38 141.33 878.38 143.37 C878.71 143.37 879.04 143.37 879.38 143.37 C879.38 141.39 879.38 139.41 879.38 137.37 C879.05 137.37 878.72 137.37 878.38 137.37 Z M883.38 161.37 C883.38 166.98 883.38 172.59 883.38 178.37 C883.71 178.37 884.04 178.37 884.38 178.37 C884.38 172.76 884.38 167.15 884.38 161.37 C884.05 161.37 883.72 161.37 883.38 161.37 Z M883.38 180.37 C884.38 183.37 884.38 183.37 884.38 183.37 Z M1011.38 468.37 C1012.04 469.03 1012.7 469.69 1013.38 470.37 C1013.38 469.71 1013.38 469.05 1013.38 468.37 C1012.72 468.37 1012.06 468.37 1011.38 468.37 Z M1013.38 471.37 C1014.38 473.37 1014.38 473.37 1014.38 473.37 Z M1015.38 476.37 C1015.38 478.35 1015.38 480.33 1015.38 482.37 C1015.71 482.37 1016.04 482.37 1016.38 482.37 C1016.38 480.39 1016.38 478.41 1016.38 476.37 C1016.05 476.37 1015.72 476.37 1015.38 476.37 Z M1163.38 561.37 C1164.38 563.37 1164.38 563.37 1164.38 563.37 Z M1198.38 621.37 C1199.38 623.37 1199.38 623.37 1199.38 623.37 Z M1218.38 656.37 C1219.38 658.37 1219.38 658.37 1219.38 658.37 Z M873.38 669.37 C873.38 670.03 873.38 670.69 873.38 671.37 C872.45 671.46 871.52 671.54 870.56 671.62 C862.84 672.72 855.46 676.22 848.38 679.37 C848.38 680.03 848.38 680.69 848.38 681.37 C847.32 681.44 846.27 681.5 845.19 681.56 C840.07 682.65 838.22 685.21 834.94 689.06 C833.38 690.37 833.38 690.37 830.63 691.06 C826.66 692.66 825.16 694.63 822.51 697.89 C819.42 701.49 816 704.73 812.55 707.99 C809.27 711.17 807.19 714.19 805.38 718.37 C804.72 718.37 804.06 718.37 803.38 718.37 C802.72 719.03 802.06 719.69 801.38 720.37 C800.72 721.03 800.06 721.69 799.38 722.37 C800.04 723.03 800.7 723.69 801.38 724.37 C800.72 725.14 800.06 725.9 799.38 726.69 C797.08 729.22 797.08 729.22 797.38 732.37 C796.72 732.37 796.06 732.37 795.38 732.37 C793.95 735.69 792.99 738.82 792.38 742.37 C791.72 742.37 791.06 742.37 790.38 742.37 C790.38 744.35 790.38 746.33 790.38 748.37 C789.39 748.87 789.39 748.87 788.38 749.37 C785.99 754.69 785.01 758.58 785.38 764.37 C784.72 764.37 784.06 764.37 783.38 764.37 C782.15 769.15 782.23 773.81 782.24 778.7 C782.24 779.6 782.24 780.5 782.24 781.43 C782.24 783.34 782.24 785.24 782.25 787.15 C782.25 790.03 782.25 792.92 782.24 795.81 C782.24 797.67 782.24 799.53 782.24 801.39 C782.24 802.24 782.24 803.09 782.24 803.97 C782.02 815.06 782.02 815.06 785.38 825.37 C787.07 828.56 788.38 831.38 789.31 834.87 C790.46 838.66 792.15 841.13 794.38 844.37 C795.41 846.69 796.42 849.02 797.38 851.37 C798.35 853.57 799.05 855.06 800.79 856.71 C803.12 859.16 804.39 862.03 805.9 865.02 C807.72 867.93 809.9 870 812.38 872.37 C813.46 873.48 814.54 874.6 815.61 875.71 C823.15 883.46 830.1 890.46 840.38 894.37 C840.38 895.03 840.38 895.69 840.38 896.37 C841.62 897.05 842.87 897.72 844.13 898.37 C845.17 898.93 845.17 898.93 846.24 899.5 C848.61 900.63 848.61 900.63 852.38 900.37 C852.38 901.03 852.38 901.69 852.38 902.37 C855.46 904.14 856.61 904.37 860.38 904.37 C860.38 905.03 860.38 905.69 860.38 906.37 C860.95 906.51 861.52 906.64 862.1 906.78 C864.37 907.37 866.54 908.1 868.75 908.87 C872.28 910.06 875.65 911.01 879.38 911.37 C880.04 911.04 880.7 910.71 881.38 910.37 C881.38 911.03 881.38 911.69 881.38 912.37 C898.48 915.42 898.48 915.42 915.38 913.37 C918.11 913.15 920.83 912.96 923.56 912.81 C924.31 912.77 925.06 912.73 925.84 912.68 C927.68 912.58 929.53 912.47 931.38 912.37 C931.38 911.71 931.38 911.05 931.38 910.37 C932.03 910.36 932.69 910.35 933.36 910.33 C941.2 909.92 947.29 907.63 954.38 904.37 C956.04 903.7 957.7 903.03 959.38 902.37 C959.38 901.71 959.38 901.05 959.38 900.37 C960.1 900.25 960.82 900.13 961.56 900 C964.33 899.38 966.77 898.49 969.38 897.37 C969.38 896.71 969.38 896.05 969.38 895.37 C970.1 895.11 970.82 894.84 971.56 894.56 C974.36 893.38 976.81 891.97 979.38 890.37 C980.04 890.04 980.7 889.71 981.38 889.37 C981.38 888.71 981.38 888.05 981.38 887.37 C982.23 887.01 982.23 887.01 983.11 886.63 C985.75 885.17 987.56 883.45 989.7 881.31 C990.5 880.52 991.3 879.72 992.13 878.9 C992.95 878.07 993.78 877.23 994.63 876.37 C995.47 875.54 996.31 874.71 997.17 873.85 C997.97 873.05 998.76 872.26 999.58 871.44 C1000.67 870.34 1000.67 870.34 1001.79 869.22 C1003.59 867.53 1003.59 867.53 1003.38 865.37 C1004.04 865.37 1004.7 865.37 1005.38 865.37 C1005.81 864.45 1006.24 863.52 1006.69 862.56 C1008.13 859.84 1009.27 858.48 1011.38 856.37 C1011.38 855.38 1011.38 854.39 1011.38 853.37 C1012.04 853.37 1012.7 853.37 1013.38 853.37 C1015.41 849.65 1016.38 847.71 1016.38 843.37 C1017.04 843.37 1017.7 843.37 1018.38 843.37 C1018.38 841.72 1018.38 840.07 1018.38 838.37 C1019.04 838.37 1019.7 838.37 1020.38 838.37 C1024.38 831.52 1026.68 823.32 1026.38 815.37 C1027.04 815.37 1027.7 815.37 1028.38 815.37 C1028.44 814.45 1028.5 813.52 1028.56 812.56 C1029.27 802.02 1029.27 802.02 1029.94 797.81 C1031.02 789.29 1030.45 780.82 1029.5 772.31 C1029.42 771.59 1029.34 770.86 1029.26 770.11 C1028.82 766.46 1028.17 763.59 1026.38 760.37 C1025.99 758.05 1025.65 755.72 1025.38 753.37 C1024.72 753.37 1024.06 753.37 1023.38 753.37 C1023.42 752.26 1023.46 751.15 1023.5 750 C1023.79 746.33 1023.79 746.33 1021.38 744.37 C1020.75 742.25 1020.75 742.25 1020.38 740.37 C1019.72 740.37 1019.06 740.37 1018.38 740.37 C1018.25 739.47 1018.13 738.56 1018 737.62 C1017.46 734.79 1016.8 732.85 1015.38 730.37 C1014.72 730.37 1014.06 730.37 1013.38 730.37 C1013.05 728.39 1012.72 726.41 1012.38 724.37 C1011.72 724.37 1011.06 724.37 1010.38 724.37 C1010.05 722.72 1009.72 721.07 1009.38 719.37 C1008.72 719.37 1008.06 719.37 1007.38 719.37 C1007.31 718.84 1007.25 718.3 1007.19 717.75 C1005.98 714.2 1003.93 712.12 1001.38 709.37 C1000.72 709.37 1000.06 709.37 999.38 709.37 C999.38 708.71 999.38 708.05 999.38 707.37 C998.72 707.37 998.06 707.37 997.38 707.37 C996.98 706.47 996.98 706.47 996.58 705.55 C995.32 703.27 994.22 702.21 992.19 700.62 C989.37 698.33 987.07 695.92 984.75 693.12 C982.16 690.06 980.28 688.57 976.38 687.37 C975.93 686.92 975.48 686.47 975.02 686 C973.11 684.11 971.17 682.98 968.81 681.69 C968.03 681.25 967.24 680.81 966.44 680.36 C964.46 679.23 964.46 679.23 962.38 679.37 C962.38 678.71 962.38 678.05 962.38 677.37 C958.4 676.2 954.46 675.12 950.38 674.37 C950.38 673.71 950.38 673.05 950.38 672.37 C944.93 670.33 939.95 669.02 934.13 668.68 C933.55 668.58 932.97 668.48 932.38 668.37 C932.05 667.71 931.72 667.05 931.38 666.37 C925.37 666.3 919.36 666.25 913.35 666.21 C911.31 666.19 909.27 666.17 907.23 666.15 C895.53 666 884.71 666.11 873.38 669.37 Z M1231.38 678.37 C1232.04 679.03 1232.7 679.69 1233.38 680.37 C1233.38 679.71 1233.38 679.05 1233.38 678.37 C1232.72 678.37 1232.06 678.37 1231.38 678.37 Z M1235.38 856.37 C1236.38 858.37 1236.38 858.37 1236.38 858.37 Z M1215.38 927.37 C1216.38 929.37 1216.38 929.37 1216.38 929.37 Z M1198.38 957.37 C1199.38 959.37 1199.38 959.37 1199.38 959.37 Z M1163.38 1017.37 C1164.38 1019.37 1164.38 1019.37 1164.38 1019.37 Z M1008.38 1114.37 C1009.38 1116.37 1009.38 1116.37 1009.38 1116.37 Z M983.38 1124.37 C983.38 1124.7 983.38 1125.03 983.38 1125.37 C987.34 1125.37 991.3 1125.37 995.38 1125.37 C995.38 1125.04 995.38 1124.71 995.38 1124.37 C991.42 1124.37 987.46 1124.37 983.38 1124.37 Z M887.38 1126.37 C887.38 1126.7 887.38 1127.03 887.38 1127.37 C893.98 1127.37 900.58 1127.37 907.38 1127.37 C907.38 1127.04 907.38 1126.71 907.38 1126.37 C900.78 1126.37 894.18 1126.37 887.38 1126.37 Z M879.38 1259.37 C879.05 1260.36 878.72 1261.35 878.38 1262.37 C879.37 1262.04 880.36 1261.71 881.38 1261.37 C881.38 1260.71 881.38 1260.05 881.38 1259.37 C880.72 1259.37 880.06 1259.37 879.38 1259.37 Z " fill="#9CE1F8" transform="translate(38.62352752685547,-0.37473011016845703)"/>
<path d="M0 0 C1.81 -0 3.62 -0 5.43 -0.01 C10.39 -0.01 15.36 -0 20.32 0.01 C25.67 0.03 31.03 0.02 36.38 0.02 C45.66 0.02 54.93 0.03 64.21 0.04 C77.62 0.07 91.03 0.08 104.44 0.08 C126.2 0.09 147.96 0.11 169.71 0.13 C190.85 0.16 211.98 0.18 233.12 0.2 C234.42 0.2 235.72 0.2 237.06 0.2 C243.6 0.2 250.14 0.21 256.67 0.21 C310.89 0.24 365.11 0.29 419.33 0.36 C419.44 38.38 419.53 76.41 419.58 114.43 C419.59 118.92 419.6 123.4 419.6 127.89 C419.6 128.78 419.6 129.67 419.61 130.59 C419.63 145.07 419.67 159.54 419.71 174.01 C419.76 188.86 419.79 203.7 419.8 218.54 C419.8 227.71 419.83 236.87 419.87 246.03 C419.89 252.31 419.9 258.59 419.9 264.87 C419.89 268.5 419.9 272.12 419.92 275.75 C419.95 279.68 419.94 283.6 419.93 287.53 C419.94 288.68 419.96 289.83 419.97 291.02 C419.9 298.49 419.9 298.49 417.54 302.07 C412.51 304.09 407.71 303.9 402.34 303.85 C401.11 303.86 399.88 303.86 398.61 303.87 C395.2 303.88 391.79 303.87 388.38 303.85 C384.7 303.84 381.02 303.85 377.34 303.86 C370.96 303.86 364.58 303.86 358.21 303.85 C348.97 303.83 339.74 303.83 330.51 303.85 C315.52 303.87 300.52 303.88 285.53 303.87 C284.63 303.87 283.73 303.87 282.81 303.87 C275.53 303.87 268.25 303.86 260.97 303.86 C254.62 303.86 248.26 303.85 241.91 303.85 C241.02 303.85 240.12 303.85 239.2 303.85 C224.27 303.85 209.34 303.86 194.41 303.88 C185.2 303.89 176 303.89 166.79 303.87 C160.48 303.86 154.17 303.86 147.86 303.87 C144.22 303.88 140.58 303.88 136.94 303.86 C132.99 303.84 129.03 303.85 125.08 303.87 C123.94 303.86 122.8 303.85 121.63 303.84 C110.83 303.93 101.26 306.8 93.33 314.36 C85.06 323.32 81.9 332.11 82.33 344.36 C84.24 355.43 89.09 363.37 97.95 370.17 C107.67 376.39 117.93 377.96 129.27 377.87 C131.12 377.88 131.12 377.88 133.01 377.88 C136.4 377.9 139.78 377.89 143.17 377.88 C146.84 377.87 150.51 377.89 154.17 377.9 C160.52 377.91 166.86 377.92 173.2 377.91 C182.37 377.9 191.54 377.91 200.71 377.93 C215.6 377.96 230.49 377.98 245.37 377.98 C246.26 377.98 247.15 377.98 248.07 377.98 C248.96 377.98 249.85 377.98 250.77 377.98 C263.42 377.98 276.07 377.99 288.72 378 C289.61 378 290.5 378 291.42 378 C306.27 378.02 321.11 378.04 335.96 378.07 C345.11 378.08 354.27 378.09 363.42 378.09 C369.68 378.08 375.94 378.09 382.21 378.1 C385.82 378.1 389.44 378.11 393.05 378.1 C396.96 378.09 400.87 378.1 404.79 378.11 C406.51 378.1 406.51 378.1 408.28 378.1 C409.32 378.1 410.36 378.11 411.43 378.11 C412.34 378.11 413.24 378.11 414.17 378.11 C416.33 378.36 416.33 378.36 418.33 380.36 C419.78 388.71 419.5 397.45 419.53 405.9 C419.54 407.14 419.54 408.38 419.55 409.66 C419.56 412.26 419.56 414.86 419.57 417.45 C419.57 420.12 419.59 422.78 419.61 425.44 C419.64 429.3 419.65 433.16 419.66 437.02 C419.67 438.21 419.68 439.41 419.69 440.64 C419.69 441.74 419.69 442.84 419.68 443.98 C419.69 444.95 419.69 445.92 419.69 446.92 C419.33 449.36 419.33 449.36 417.99 451.13 C414.87 453.44 412.03 453.49 408.29 453.49 C407.24 453.49 406.19 453.49 405.11 453.5 C403.96 453.5 402.8 453.49 401.61 453.49 C400.39 453.49 399.17 453.5 397.9 453.5 C395.21 453.5 392.52 453.5 389.83 453.5 C385.45 453.5 381.07 453.51 376.69 453.51 C370.33 453.52 363.96 453.53 357.6 453.53 C347.54 453.53 337.48 453.55 327.42 453.57 C323.98 453.58 320.54 453.58 317.1 453.59 C315.81 453.59 315.81 453.59 314.49 453.59 C304.7 453.61 294.9 453.63 285.1 453.64 C283.76 453.65 283.76 453.65 282.39 453.65 C267.89 453.67 253.39 453.68 238.89 453.69 C224 453.7 209.11 453.72 194.22 453.76 C185.04 453.78 175.86 453.79 166.67 453.78 C160.38 453.78 154.08 453.79 147.78 453.81 C144.15 453.83 140.52 453.83 136.89 453.82 C132.94 453.81 129 453.83 125.06 453.85 C123.92 453.84 122.78 453.83 121.61 453.82 C110.83 453.93 101.25 456.81 93.33 464.36 C85.06 473.32 81.9 482.11 82.33 494.36 C84.24 505.43 89.09 513.37 97.95 520.17 C107.67 526.39 117.93 527.96 129.27 527.87 C131.12 527.88 131.12 527.88 133.01 527.88 C136.4 527.9 139.78 527.89 143.17 527.88 C146.84 527.87 150.51 527.89 154.17 527.9 C160.52 527.91 166.86 527.92 173.2 527.91 C182.37 527.9 191.54 527.91 200.71 527.93 C215.6 527.96 230.49 527.98 245.37 527.98 C246.26 527.98 247.15 527.98 248.07 527.98 C248.96 527.98 249.85 527.98 250.77 527.98 C263.42 527.98 276.07 527.99 288.72 528 C289.61 528 290.5 528 291.42 528 C306.27 528.02 321.11 528.04 335.96 528.07 C345.11 528.08 354.27 528.09 363.42 528.09 C369.68 528.08 375.94 528.09 382.21 528.1 C385.82 528.1 389.44 528.11 393.05 528.1 C396.96 528.09 400.87 528.1 404.79 528.11 C406.51 528.1 406.51 528.1 408.28 528.1 C409.32 528.1 410.36 528.11 411.43 528.11 C412.34 528.11 413.24 528.11 414.17 528.11 C416.33 528.36 416.33 528.36 418.33 530.36 C420.19 541.9 419.63 553.79 419.68 565.45 C419.69 568.28 419.72 571.1 419.76 573.92 C419.82 578 419.84 582.08 419.85 586.16 C419.87 587.43 419.9 588.69 419.92 589.99 C419.92 591.16 419.91 592.33 419.91 593.54 C419.92 594.57 419.93 595.6 419.94 596.66 C419.33 599.36 419.33 599.36 417.54 601.5 C412.61 604.36 407.94 603.9 402.34 603.85 C400.49 603.86 400.49 603.86 398.61 603.87 C395.2 603.88 391.79 603.87 388.38 603.85 C384.7 603.84 381.02 603.85 377.34 603.86 C370.96 603.86 364.58 603.86 358.21 603.85 C348.97 603.83 339.74 603.83 330.51 603.85 C315.52 603.87 300.52 603.88 285.53 603.87 C284.63 603.87 283.73 603.87 282.81 603.87 C275.53 603.87 268.25 603.86 260.97 603.86 C254.62 603.86 248.26 603.85 241.91 603.85 C241.02 603.85 240.12 603.85 239.2 603.85 C224.27 603.85 209.34 603.86 194.41 603.88 C185.2 603.89 176 603.89 166.79 603.87 C160.48 603.86 154.17 603.86 147.86 603.87 C144.22 603.88 140.58 603.88 136.94 603.86 C132.99 603.84 129.03 603.85 125.08 603.87 C123.94 603.86 122.8 603.85 121.63 603.84 C110.83 603.93 101.26 606.8 93.33 614.36 C85.06 623.32 81.9 632.11 82.33 644.36 C84.24 655.43 89.09 663.37 97.95 670.17 C107.67 676.39 117.93 677.96 129.27 677.87 C131.12 677.88 131.12 677.88 133.01 677.88 C136.4 677.9 139.78 677.89 143.17 677.88 C146.84 677.87 150.51 677.89 154.17 677.9 C160.52 677.91 166.86 677.92 173.2 677.91 C182.37 677.9 191.54 677.91 200.71 677.93 C215.6 677.96 230.49 677.98 245.37 677.98 C246.26 677.98 247.15 677.98 248.07 677.98 C248.96 677.98 249.85 677.98 250.77 677.98 C263.42 677.98 276.07 677.99 288.72 678 C289.61 678 290.5 678 291.42 678 C306.27 678.02 321.11 678.04 335.96 678.07 C345.11 678.08 354.27 678.09 363.42 678.09 C369.68 678.08 375.94 678.09 382.21 678.1 C385.82 678.1 389.44 678.11 393.05 678.1 C396.96 678.09 400.87 678.1 404.79 678.11 C406.51 678.1 406.51 678.1 408.28 678.1 C409.32 678.1 410.36 678.11 411.43 678.11 C412.34 678.11 413.24 678.11 414.17 678.11 C416.33 678.36 416.33 678.36 418.33 680.36 C420.43 691.59 419.63 703.41 419.68 714.81 C419.69 717.68 419.72 720.56 419.76 723.44 C419.81 726.93 419.83 730.42 419.84 733.91 C419.85 735.88 419.89 737.84 419.92 739.81 C419.92 741.01 419.91 742.2 419.91 743.43 C419.92 744.48 419.93 745.54 419.94 746.62 C419.33 749.36 419.33 749.36 417.54 751.5 C412.61 754.36 407.93 753.9 402.34 753.85 C400.49 753.86 400.49 753.86 398.61 753.87 C395.2 753.88 391.79 753.87 388.38 753.85 C384.7 753.84 381.02 753.85 377.34 753.86 C370.96 753.86 364.58 753.86 358.21 753.85 C348.97 753.83 339.74 753.83 330.51 753.85 C315.52 753.87 300.52 753.88 285.53 753.87 C284.63 753.87 283.73 753.87 282.81 753.87 C275.53 753.87 268.25 753.86 260.97 753.86 C254.62 753.86 248.26 753.85 241.91 753.85 C241.02 753.85 240.12 753.85 239.2 753.85 C224.27 753.85 209.34 753.86 194.41 753.88 C185.2 753.89 176 753.89 166.79 753.87 C160.48 753.86 154.17 753.86 147.86 753.87 C144.22 753.88 140.58 753.88 136.94 753.86 C132.99 753.84 129.03 753.85 125.08 753.87 C123.94 753.86 122.8 753.85 121.63 753.84 C110.83 753.93 101.26 756.8 93.33 764.36 C85.06 773.32 81.9 782.11 82.33 794.36 C84.24 805.43 89.09 813.37 97.95 820.17 C107.67 826.39 117.93 827.96 129.27 827.87 C131.12 827.88 131.12 827.88 133.01 827.88 C136.4 827.9 139.78 827.89 143.17 827.88 C146.84 827.87 150.51 827.89 154.17 827.9 C160.52 827.91 166.86 827.92 173.2 827.91 C182.37 827.9 191.54 827.91 200.71 827.93 C215.6 827.96 230.49 827.98 245.37 827.98 C246.26 827.98 247.15 827.98 248.07 827.98 C248.96 827.98 249.85 827.98 250.77 827.98 C263.42 827.98 276.07 827.99 288.72 828 C289.61 828 290.5 828 291.42 828 C306.27 828.02 321.11 828.04 335.96 828.07 C345.11 828.08 354.27 828.09 363.42 828.09 C369.68 828.08 375.94 828.09 382.21 828.1 C385.82 828.1 389.44 828.11 393.05 828.1 C396.96 828.09 400.87 828.1 404.79 828.11 C406.51 828.1 406.51 828.1 408.28 828.1 C409.32 828.1 410.36 828.11 411.43 828.11 C412.34 828.11 413.24 828.11 414.17 828.11 C416.33 828.36 416.33 828.36 418.33 830.36 C420.43 841.59 419.63 853.41 419.68 864.81 C419.69 867.68 419.72 870.56 419.76 873.44 C419.81 876.93 419.83 880.42 419.84 883.91 C419.85 885.88 419.89 887.84 419.92 889.81 C419.92 891.01 419.91 892.2 419.91 893.43 C419.92 894.48 419.93 895.54 419.94 896.62 C419.33 899.36 419.33 899.36 417.54 901.5 C412.61 904.36 407.93 903.9 402.34 903.85 C400.49 903.86 400.49 903.86 398.61 903.87 C395.2 903.88 391.79 903.87 388.38 903.85 C384.7 903.84 381.02 903.85 377.34 903.86 C370.96 903.86 364.58 903.86 358.21 903.85 C348.97 903.83 339.74 903.83 330.51 903.85 C315.52 903.87 300.52 903.88 285.53 903.87 C284.63 903.87 283.73 903.87 282.81 903.87 C275.53 903.87 268.25 903.86 260.97 903.86 C254.62 903.86 248.26 903.85 241.91 903.85 C241.02 903.85 240.12 903.85 239.2 903.85 C224.27 903.85 209.34 903.86 194.41 903.88 C185.2 903.89 176 903.89 166.79 903.87 C160.48 903.86 154.17 903.86 147.86 903.87 C144.22 903.88 140.58 903.88 136.94 903.86 C132.99 903.84 129.03 903.85 125.08 903.87 C123.94 903.86 122.8 903.85 121.63 903.84 C110.83 903.93 101.26 906.8 93.33 914.36 C85.06 923.32 81.9 932.11 82.33 944.36 C84.24 955.43 89.09 963.37 97.95 970.17 C107.67 976.39 117.93 977.96 129.27 977.87 C131.12 977.88 131.12 977.88 133.01 977.88 C136.4 977.9 139.78 977.89 143.17 977.88 C146.84 977.87 150.51 977.89 154.17 977.9 C160.52 977.91 166.86 977.92 173.2 977.91 C182.37 977.9 191.54 977.91 200.71 977.93 C215.6 977.96 230.49 977.98 245.37 977.98 C246.26 977.98 247.15 977.98 248.07 977.98 C248.96 977.98 249.85 977.98 250.77 977.98 C263.42 977.98 276.07 977.99 288.72 978 C289.61 978 290.5 978 291.42 978 C306.27 978.02 321.11 978.04 335.96 978.07 C345.11 978.08 354.27 978.09 363.42 978.09 C369.68 978.08 375.94 978.09 382.21 978.1 C385.82 978.1 389.44 978.11 393.05 978.1 C396.96 978.09 400.87 978.1 404.79 978.11 C406.51 978.1 406.51 978.1 408.28 978.1 C409.32 978.1 410.36 978.11 411.43 978.11 C412.34 978.11 413.24 978.11 414.17 978.11 C416.33 978.36 416.33 978.36 418.33 980.36 C419.57 987.96 419.5 995.58 419.53 1003.26 C419.54 1004.57 419.54 1005.88 419.55 1007.23 C419.56 1009.99 419.56 1012.75 419.57 1015.51 C419.57 1019.04 419.6 1022.58 419.63 1026.11 C419.65 1029.49 419.65 1032.88 419.66 1036.26 C419.67 1037.53 419.68 1038.8 419.69 1040.1 C419.69 1041.28 419.69 1042.45 419.68 1043.66 C419.69 1044.69 419.69 1045.72 419.69 1046.78 C419.33 1049.36 419.33 1049.36 417.99 1051.15 C414.86 1053.43 412.02 1053.49 408.29 1053.49 C407.24 1053.49 406.19 1053.49 405.11 1053.5 C403.96 1053.5 402.8 1053.49 401.61 1053.49 C400.39 1053.49 399.17 1053.5 397.9 1053.5 C395.21 1053.5 392.52 1053.5 389.83 1053.5 C385.45 1053.5 381.07 1053.51 376.69 1053.51 C370.33 1053.52 363.96 1053.53 357.6 1053.53 C347.54 1053.53 337.48 1053.55 327.42 1053.57 C323.98 1053.58 320.54 1053.58 317.1 1053.59 C316.24 1053.59 315.38 1053.59 314.49 1053.59 C304.7 1053.61 294.9 1053.63 285.1 1053.64 C284.21 1053.65 283.31 1053.65 282.39 1053.65 C267.89 1053.67 253.39 1053.68 238.89 1053.69 C224 1053.7 209.11 1053.72 194.22 1053.76 C185.04 1053.78 175.86 1053.79 166.67 1053.78 C160.38 1053.78 154.08 1053.79 147.78 1053.81 C144.15 1053.83 140.52 1053.83 136.89 1053.82 C132.94 1053.81 129 1053.83 125.06 1053.85 C123.35 1053.84 123.35 1053.84 121.61 1053.82 C110.83 1053.93 101.25 1056.81 93.33 1064.36 C85.06 1073.32 81.9 1082.11 82.33 1094.36 C84.24 1105.43 89.09 1113.37 97.95 1120.17 C107.67 1126.39 117.93 1127.96 129.27 1127.87 C130.5 1127.87 131.74 1127.88 133.01 1127.88 C136.4 1127.9 139.78 1127.89 143.17 1127.88 C146.84 1127.87 150.51 1127.89 154.17 1127.9 C160.52 1127.91 166.86 1127.92 173.2 1127.91 C182.37 1127.9 191.54 1127.91 200.71 1127.93 C215.6 1127.96 230.49 1127.98 245.37 1127.98 C246.26 1127.98 247.15 1127.98 248.07 1127.98 C248.96 1127.98 249.85 1127.98 250.77 1127.98 C263.42 1127.98 276.07 1127.99 288.72 1128 C289.61 1128 290.5 1128 291.42 1128 C306.27 1128.02 321.11 1128.04 335.96 1128.07 C345.11 1128.08 354.27 1128.09 363.42 1128.09 C369.68 1128.08 375.94 1128.09 382.21 1128.1 C385.82 1128.1 389.44 1128.11 393.05 1128.1 C396.96 1128.09 400.87 1128.1 404.79 1128.11 C405.94 1128.1 407.09 1128.1 408.28 1128.1 C409.32 1128.1 410.36 1128.11 411.43 1128.11 C412.34 1128.11 413.24 1128.11 414.17 1128.11 C416.33 1128.36 416.33 1128.36 418.33 1130.36 C420.01 1138.11 419.46 1146.47 419.44 1154.35 C419.44 1155.73 419.44 1157.11 419.44 1158.49 C419.44 1162.21 419.44 1165.93 419.43 1169.64 C419.42 1173.54 419.42 1177.44 419.42 1181.34 C419.42 1188.7 419.41 1196.07 419.4 1203.43 C419.39 1211.83 419.38 1220.22 419.38 1228.61 C419.37 1245.86 419.35 1263.11 419.33 1280.36 C363.81 1280.48 308.29 1280.56 252.77 1280.62 C246.22 1280.62 239.67 1280.63 233.12 1280.64 C231.81 1280.64 230.51 1280.64 229.16 1280.64 C208.03 1280.66 186.9 1280.7 165.77 1280.75 C144.1 1280.79 122.42 1280.82 100.74 1280.83 C87.36 1280.84 73.98 1280.86 60.61 1280.9 C51.43 1280.93 42.26 1280.93 33.09 1280.93 C27.8 1280.93 22.51 1280.93 17.21 1280.96 C12.37 1280.98 7.52 1280.98 2.67 1280.97 C0.92 1280.96 -0.83 1280.97 -2.58 1280.99 C-11.64 1281.06 -19.16 1281.1 -26.67 1275.36 C-27.67 1274.74 -28.67 1274.12 -29.7 1273.48 C-30.52 1272.93 -31.33 1272.37 -32.17 1271.8 C-33.43 1270.96 -33.43 1270.96 -34.7 1270.11 C-36.91 1268.15 -37.22 1267.2 -37.67 1264.36 C-38.66 1263.02 -39.66 1261.68 -40.67 1260.36 C-43.64 1255.48 -44.1 1251.34 -44.05 1245.75 C-44.05 1244.89 -44.06 1244.03 -44.06 1243.14 C-44.07 1240.25 -44.06 1237.36 -44.05 1234.46 C-44.05 1232.36 -44.05 1230.27 -44.06 1228.17 C-44.07 1222.37 -44.06 1216.57 -44.05 1210.77 C-44.04 1204.47 -44.05 1198.17 -44.06 1191.87 C-44.07 1180.82 -44.07 1169.77 -44.06 1158.72 C-44.05 1146.86 -44.04 1135.01 -44.05 1123.15 C-44.05 1122.03 -44.05 1122.03 -44.05 1120.88 C-44.05 1117.83 -44.05 1114.78 -44.05 1111.74 C-44.07 1083.33 -44.06 1054.93 -44.05 1026.52 C-44.04 999.14 -44.03 971.76 -44.04 944.38 C-44.04 942.67 -44.04 940.95 -44.04 939.23 C-44.04 932.33 -44.04 925.42 -44.04 918.52 C-44.04 899.22 -44.04 879.91 -44.04 860.61 C-44.04 859.73 -44.04 858.85 -44.04 857.95 C-44.04 829.93 -44.03 801.91 -44.02 773.9 C-44.02 772.99 -44.02 772.08 -44.02 771.14 C-44.02 756.38 -44.01 741.62 -44.01 726.86 C-43.99 668.31 -43.98 609.76 -43.99 551.22 C-43.99 547.52 -43.99 543.82 -43.99 540.12 C-43.99 539.2 -43.99 538.29 -43.99 537.35 C-43.99 527.22 -43.99 517.09 -43.99 506.96 C-43.99 506.05 -43.99 505.14 -43.99 504.21 C-44 455.19 -43.99 406.17 -43.98 357.15 C-43.98 355.42 -43.98 353.69 -43.98 351.96 C-43.98 351.11 -43.98 350.26 -43.98 349.38 C-43.98 347.65 -43.98 345.93 -43.98 344.21 C-43.98 339.91 -43.98 335.62 -43.98 331.33 C-43.97 312.5 -43.97 293.67 -43.97 274.84 C-43.97 273.99 -43.97 273.14 -43.97 272.27 C-43.97 267.99 -43.97 263.72 -43.98 259.44 C-43.98 228.57 -43.97 197.7 -43.96 166.82 C-43.96 163.78 -43.96 160.74 -43.95 157.7 C-43.95 156.96 -43.95 156.21 -43.95 155.44 C-43.95 143.62 -43.95 131.79 -43.95 119.96 C-43.96 108.34 -43.95 96.72 -43.94 85.1 C-43.94 78.88 -43.93 72.66 -43.94 66.44 C-43.94 60.79 -43.94 55.14 -43.93 49.49 C-43.93 47.45 -43.93 45.41 -43.93 43.37 C-43.94 40.61 -43.93 37.86 -43.92 35.1 C-43.93 34.31 -43.93 33.51 -43.94 32.7 C-43.9 26.38 -43.26 20.14 -38.67 15.36 C-38.01 15.36 -37.35 15.36 -36.67 15.36 C-36.52 14.19 -36.52 14.19 -36.36 12.99 C-35.67 10.36 -35.67 10.36 -32.67 8.36 C-31.99 8.24 -31.31 8.11 -30.61 7.99 C-29.97 7.78 -29.33 7.57 -28.67 7.36 C-28.38 6.72 -28.08 6.09 -27.77 5.43 C-26.67 3.36 -26.67 3.36 -23.15 1.63 C-15.67 -0.56 -7.73 -0.04 0 0 Z " fill="#B5EAFC" transform="translate(43.67250061035156,-0.3607635498046875)"/>
<path d="M0 0 C0.33 0 0.66 0 1 0 C1 93.06 1 186.12 1 282 C35.98 282 70.96 282 107 282 C108.65 282.66 110.3 283.32 112 284 C112 284.66 112 285.32 112 286 C112.97 286.27 113.94 286.54 114.94 286.81 C115.95 287.2 116.96 287.6 118 288 C118.33 288.99 118.66 289.98 119 291 C119.58 291.29 120.15 291.58 120.75 291.88 C126.03 294.51 128.62 298.46 130.45 303.87 C131.32 307.22 131.64 310.56 132 314 C132.33 314.66 132.66 315.32 133 316 C132.67 316.99 132.34 317.98 132 319 C132.66 319 133.32 319 134 319 C134 335.5 134 352 134 369 C134.99 369 135.98 369 137 369 C137 369.66 137 370.32 137 371 C137.72 371.12 138.44 371.25 139.19 371.38 C141.96 371.99 144.4 372.88 147 374 C147 374.66 147 375.32 147 376 C151.95 377.49 151.95 377.49 157 379 C157 379.66 157 380.32 157 381 C158.65 381.33 160.3 381.66 162 382 C162 382.66 162 383.32 162 384 C162.99 384 163.98 384 165 384 C165.66 384.66 166.32 385.32 167 386 C167.99 386.33 168.98 386.66 170 387 C170.74 387.8 171.49 388.61 172.25 389.44 C175.49 392.46 177.63 393.38 182 394 C184.37 392.75 184.37 392.75 187 391 C188.21 390.34 189.44 389.7 190.66 389.06 C191.31 388.72 191.96 388.39 192.62 388.04 C193.96 387.34 195.31 386.65 196.65 385.96 C199.91 384.25 202.44 382.6 205 380 C206.99 378.93 209.02 377.91 211.06 376.94 C215.37 374.94 215.37 374.94 219 372 C220.32 372 221.64 372 223 372 C223 371.34 223 370.68 223 370 C229.68 366.99 235.34 366.54 242.62 366.62 C243.64 366.61 244.65 366.6 245.69 366.59 C251.94 366.61 256.89 367.01 261.62 371.56 C262.08 372.04 262.53 372.51 263 373 C264.32 373.7 265.65 374.37 267 375 C270 377 270 377 270.69 379.12 C270.84 380.05 270.84 380.05 271 381 C271.66 380.67 272.32 380.34 273 380 C273.19 380.96 273.19 380.96 273.38 381.94 C273.58 382.62 273.79 383.3 274 384 C274.66 384.33 275.32 384.66 276 385 C276.71 386.65 277.37 388.32 278 390 C278.8 391.58 278.8 391.58 279.62 393.19 C281 396 281 396 281 398 C281.99 398.33 282.98 398.66 284 399 C284.14 399.6 284.29 400.2 284.44 400.81 C285.19 403.73 286.87 404.94 289 407 C289 407.66 289 408.32 289 409 C289.43 409.41 289.87 409.83 290.31 410.25 C292.55 412.57 293.64 415.1 295 418 C295.35 418.7 295.7 419.4 296.06 420.12 C303 434 303 434 303.94 436.19 C304.93 438.34 304.93 438.34 308 439 C308.19 440.18 308.19 440.18 308.38 441.38 C308.79 444.14 308.79 444.14 311 446 C311.29 446.6 311.58 447.2 311.88 447.81 C312.98 450.17 312.98 450.17 315.12 452.44 C317.31 455.42 317 456.45 317 460 C318.31 461.35 319.65 462.69 321 464 C321.75 466.75 321.75 466.75 322 469 C322.66 469 323.32 469 324 469 C324.66 470.98 325.32 472.96 326 475 C326.66 475 327.32 475 328 475 C328.45 475.97 328.91 476.94 329.38 477.94 C330.66 481.07 330.66 481.07 333 482 C333.38 483.32 333.7 484.66 334 486 C335.16 489.53 335.16 489.53 337.48 492.33 C339.94 495.03 340.25 498.33 341.06 501.82 C341.52 502.9 341.52 502.9 342 504 C343.96 504.66 343.96 504.66 346 505 C347.83 507.75 348.3 508.94 349 512 C349.74 515.13 349.74 515.13 351 518 C352.32 518.66 353.64 519.32 355 520 C355 529.24 355 538.48 355 548 C354.34 548 353.68 548 353 548 C352.71 549.11 352.42 550.23 352.12 551.38 C351 555 351 555 349 557 C348.34 557.33 347.68 557.66 347 558 C346.94 558.62 346.88 559.24 346.81 559.88 C346 562 346 562 342.56 563.81 C341.39 564.2 340.21 564.6 339 565 C338.34 564.67 337.68 564.34 337 564 C337.33 564.99 337.66 565.98 338 567 C336.68 567 335.36 567 334 567 C334 567.66 334 568.32 334 569 C332.35 569 330.7 569 329 569 C328.67 570.65 328.34 572.3 328 574 C327.34 574 326.68 574 326 574 C325.67 574.66 325.34 575.32 325 576 C322 575 322 575 321 574 C320.95 574.6 320.89 575.2 320.84 575.82 C320 578 320 578 317.57 579.52 C316.58 579.95 315.58 580.37 314.56 580.81 C313.57 581.25 312.59 581.69 311.57 582.14 C310.72 582.43 309.87 582.71 309 583 C308.34 582.67 307.68 582.34 307 582 C307.33 582.99 307.66 583.98 308 585 C306.4 585.87 304.8 586.72 303.19 587.56 C302.29 588.04 301.4 588.51 300.48 589 C298 590 298 590 295 589 C294.97 592.94 294.95 596.87 294.94 600.81 C294.93 601.93 294.92 603.05 294.91 604.21 C294.91 605.28 294.91 606.35 294.9 607.46 C294.9 608.45 294.89 609.44 294.89 610.46 C294.89 613.12 294.89 613.12 296 616 C296.09 617.71 296.13 619.42 296.12 621.12 C296.13 622.01 296.13 622.9 296.13 623.82 C296 626 296 626 295 627 C294.91 628.56 294.89 630.13 294.9 631.69 C294.91 632.64 294.91 633.58 294.91 634.55 C294.92 635.55 294.93 636.54 294.94 637.56 C294.94 639.06 294.94 639.06 294.95 640.58 C294.96 643.06 294.98 645.53 295 648 C295.8 648.12 296.61 648.25 297.44 648.38 C298.28 648.58 299.13 648.79 300 649 C300.33 649.66 300.66 650.32 301 651 C302.66 651.67 304.33 652.34 306 653 C307.35 653.98 308.68 654.98 310 656 C312.34 657.28 314.46 658.15 317 659 C317 659.66 317 660.32 317 661 C317.91 661.27 318.82 661.54 319.75 661.81 C322.8 662.93 324.46 664.07 327 666 C329.3 667.1 331.63 668.04 334 669 C334 669.66 334 670.32 334 671 C335.08 671.09 335.08 671.09 336.19 671.19 C339.87 672.25 341.43 674.22 344 677 C344.99 677.66 345.98 678.32 347 679 C348.19 682.13 348.19 682.13 349 685 C349.66 685 350.32 685 351 685 C351.15 685.9 351.15 685.9 351.31 686.81 C351.8 689.07 351.8 689.07 353.52 690.26 C355.68 692.8 355.34 694.7 355.29 697.98 C355.28 699.73 355.28 699.73 355.26 701.51 C355.24 702.72 355.21 703.94 355.19 705.19 C355.17 706.41 355.16 707.64 355.15 708.9 C355.11 711.94 355.06 714.97 355 718 C354.34 718 353.68 718 353 718 C352.86 718.78 352.71 719.57 352.56 720.38 C352 723 352 723 351 725 C350.34 725 349.68 725 349 725 C348.67 725.99 348.34 726.98 348 728 C347.01 727.67 346.02 727.34 345 727 C345 728.65 345 730.3 345 732 C345.66 732.33 346.32 732.66 347 733 C346.34 733.66 345.68 734.32 345 735 C344.01 734.67 343.02 734.34 342 734 C342.33 734.99 342.66 735.98 343 737 C341.69 739.44 341.69 739.44 340 742 C339.65 742.72 339.3 743.44 338.94 744.19 C338 746 338 746 336 748 C335.34 747.67 334.68 747.34 334 747 C334 748.32 334 749.64 334 751 C333.34 751 332.68 751 332 751 C332.22 751.55 332.43 752.1 332.65 752.67 C333.13 755.87 332.08 757.43 330.56 760.25 C330.09 761.14 329.62 762.03 329.13 762.95 C328.76 763.63 328.38 764.3 328 765 C326.68 764.67 325.36 764.34 324 764 C324.33 765.32 324.66 766.64 325 768 C324.01 768.33 323.02 768.66 322 769 C322.33 769.99 322.66 770.98 323 772 C321.22 775.49 319.76 778.24 317 781 C316.88 781.95 316.75 782.9 316.62 783.88 C315.88 787.58 315 788.75 312 791 C309.25 791.75 309.25 791.75 307 792 C307.33 792.99 307.66 793.98 308 795 C307.67 795.66 307.34 796.32 307 797 C307.66 797.33 308.32 797.66 309 798 C307.41 800.38 306.12 802.14 304 804 C303.34 804 302.68 804 302 804 C302.33 804.99 302.66 805.98 303 807 C302.06 810.19 302.06 810.19 301 813 C300.01 813 299.02 813 298 813 C297.34 815.31 296.68 817.62 296 820 C295.34 820 294.68 820 294 820 C293.9 820.64 293.79 821.28 293.69 821.94 C293.46 822.62 293.23 823.3 293 824 C292.01 824.33 291.02 824.66 290 825 C290 825.66 290 826.32 290 827 C290.66 827.33 291.32 827.66 292 828 C291.34 828.66 290.68 829.32 290 830 C289.01 829.67 288.02 829.34 287 829 C287.33 829.99 287.66 830.98 288 832 C286.93 834.52 285.45 836.67 284 839 C283.34 839 282.68 839 282 839 C281.67 840.32 281.34 841.64 281 843 C280.34 842.67 279.68 842.34 279 842 C279.12 843.58 279.12 843.58 279.25 845.19 C278.96 849.54 277.98 850.93 275 854 C274.01 853.34 273.02 852.68 272 852 C272 854.31 272 856.62 272 859 C271.01 859 270.02 859 269 859 C268.79 859.54 268.59 860.07 268.38 860.62 C265.84 865 261.89 869.37 257 871 C250.56 872.26 244.28 872.01 237.75 871.75 C236.12 871.71 236.12 871.71 234.45 871.67 C233.41 871.63 232.37 871.59 231.3 871.55 C230.35 871.51 229.41 871.48 228.43 871.45 C225.59 870.92 224.87 870.11 223 868 C222.01 867.67 221.02 867.34 220 867 C217.81 865.56 217.81 865.56 216 864 C216 863.34 216 862.68 216 862 C215.31 861.81 214.63 861.61 213.92 861.41 C213.02 861.15 212.12 860.89 211.19 860.62 C210.29 860.37 209.4 860.11 208.48 859.85 C205.47 858.82 203.46 857.92 202 855 C201.01 854.67 200.02 854.34 199 854 C199 853.34 199 852.68 199 852 C198.32 851.83 197.65 851.66 196.95 851.48 C191.72 850.06 188.8 848.94 185 845 C182.63 845.12 182.63 845.12 180 846 C178.57 846.21 177.13 846.39 175.69 846.56 C174.47 846.71 173.25 846.85 172 847 C172.33 847.99 172.66 848.98 173 850 C172.01 849.67 171.02 849.34 170 849 C169.67 849.99 169.34 850.98 169 852 C168.01 852.33 167.02 852.66 166 853 C165.34 852.67 164.68 852.34 164 852 C163.67 852.99 163.34 853.98 163 855 C162.01 854.67 161.02 854.34 160 854 C160.33 854.99 160.66 855.98 161 857 C158.51 859.49 156.16 860.11 152.88 861.22 C150.8 861.94 150.8 861.94 149 864 C146.99 864.84 144.94 865.52 142.88 866.22 C140.8 866.94 140.8 866.94 139 869 C136.37 869.12 136.37 869.12 134 869 C134 869.64 134.01 870.28 134.01 870.94 C134.06 877.61 134.09 884.27 134.11 890.94 C134.12 893.43 134.13 895.92 134.15 898.41 C134.18 901.98 134.19 905.56 134.2 909.14 C134.21 910.25 134.22 911.36 134.23 912.51 C134.23 913.55 134.23 914.59 134.23 915.66 C134.23 916.57 134.24 917.48 134.24 918.42 C133.98 921.26 133.07 923.37 132 926 C132.3 929.23 132.3 929.23 133 932 C132.34 932 131.68 932 131 932 C130.34 934.31 129.68 936.62 129 939 C127.68 939.33 126.36 939.66 125 940 C124.71 941.13 124.42 942.27 124.12 943.44 C123.75 944.61 123.38 945.79 123 947 C122.34 947.33 121.68 947.66 121 948 C120.34 947.67 119.68 947.34 119 947 C118.67 947.99 118.34 948.98 118 950 C117.01 949.67 116.02 949.34 115 949 C115.33 949.99 115.66 950.98 116 952 C111.82 956.18 107.35 956.26 101.65 956.3 C100.56 956.32 100.56 956.32 99.46 956.33 C97.07 956.35 94.69 956.37 92.31 956.38 C90.64 956.4 88.97 956.41 87.3 956.43 C82.91 956.48 78.52 956.51 74.13 956.54 C67.12 956.59 60.11 956.66 53.11 956.73 C50.68 956.75 48.25 956.77 45.82 956.79 C39.57 956.84 33.37 956.9 27.15 957.52 C18.46 958.2 9.72 958 1 958 C1 998.92 1 1039.84 1 1082 C0.67 1082 0.34 1082 0 1082 C0 1040.75 0 999.5 0 957 C-19.8 957 -39.6 957 -60 957 C-72.26 953.32 -80.99 948.94 -88.75 938.69 C-92.68 930.24 -93.43 922.34 -93.41 913.1 C-93.42 911.9 -93.43 910.7 -93.44 909.46 C-93.48 904.37 -93.5 899.27 -93.51 894.18 C-93.53 890.44 -93.56 886.71 -93.59 882.97 C-93.59 881.82 -93.59 880.66 -93.58 879.47 C-93.59 878.4 -93.6 877.33 -93.62 876.23 C-93.62 875.29 -93.62 874.35 -93.62 873.38 C-94.08 870.53 -94.73 869.73 -97 868 C-99.53 866.64 -102.04 865.36 -104.62 864.12 C-106.08 863.41 -107.54 862.69 -109 861.97 C-109.7 861.63 -110.39 861.29 -111.11 860.93 C-120.88 856.1 -129.94 850.04 -139 844 C-144.8 844.14 -149.12 847.09 -153.94 850 C-154.77 850.49 -155.61 850.99 -156.46 851.49 C-161.06 854.21 -165.62 856.98 -170.18 859.74 C-183.93 868.05 -195.46 874.33 -211.88 870.94 C-222.57 868.08 -230.46 860.67 -237 852 C-238.03 850.07 -239.01 848.11 -239.94 846.12 C-241.92 842.04 -243.98 838.43 -246.72 834.83 C-248.93 831.66 -250.65 828.23 -252.46 824.82 C-253.91 822.17 -255.43 819.58 -257 817 C-260.18 811.76 -263.09 806.39 -266 801 C-269.01 795.48 -272.14 790.05 -275.4 784.67 C-277.73 780.78 -280 776.86 -282.28 772.94 C-283.85 770.26 -285.45 767.6 -287.06 764.94 C-289.07 761.61 -290.97 758.24 -292.81 754.81 C-294.84 751.03 -296.98 747.35 -299.22 743.69 C-302.88 737.72 -306.3 731.7 -309.44 725.44 C-309.77 724.78 -310.1 724.13 -310.44 723.45 C-315.16 713.86 -316.66 705.11 -314.2 694.55 C-309.64 681.28 -300.37 673.08 -288.12 667.06 C-287.09 666.56 -286.05 666.06 -284.99 665.54 C-281.51 663.75 -278.36 661.66 -275.14 659.44 C-271.57 657.04 -267.78 655.04 -264 653 C-262.31 652.06 -260.62 651.13 -258.94 650.19 C-257.62 649.46 -256.31 648.73 -255 648 C-255.07 646.91 -255.14 645.82 -255.22 644.7 C-255.71 636.84 -256.11 629 -256.12 621.12 C-256.13 620.4 -256.13 619.67 -256.13 618.93 C-256.11 614.79 -255.92 610.69 -255.6 606.56 C-255.53 605.66 -255.46 604.75 -255.4 603.82 C-255.26 602.06 -255.1 600.3 -254.92 598.55 C-254.86 597.75 -254.79 596.95 -254.73 596.13 C-254.63 595.08 -254.63 595.08 -254.52 594 C-255.47 590.03 -259.44 588.35 -262.72 586.31 C-263.68 585.76 -264.65 585.21 -265.65 584.64 C-266.73 584.03 -267.81 583.41 -268.92 582.77 C-270.06 582.12 -271.2 581.48 -272.38 580.81 C-274.72 579.47 -277.07 578.12 -279.41 576.78 C-280.55 576.13 -281.68 575.48 -282.84 574.81 C-286.83 572.52 -290.8 570.22 -294.75 567.88 C-295.84 567.23 -296.93 566.59 -298.05 565.93 C-303.85 562.14 -307.99 558.35 -311 552 C-311.37 551.28 -311.75 550.56 -312.13 549.82 C-315.89 541.81 -316.58 533.31 -314.05 524.79 C-312.82 521.78 -311.47 518.9 -310 516 C-309.59 515.14 -309.19 514.27 -308.77 513.38 C-306.38 508.41 -303.68 503.68 -300.8 498.97 C-298.48 495.15 -296.21 491.29 -293.94 487.44 C-293.53 486.74 -293.11 486.05 -292.69 485.33 C-290.17 481.04 -287.72 476.71 -285.31 472.36 C-282.93 468.07 -280.49 463.82 -278.06 459.56 C-277.56 458.69 -277.06 457.81 -276.55 456.9 C-274.02 452.47 -271.45 448.06 -268.81 443.68 C-266.79 440.33 -264.84 436.96 -263 433.5 C-260.7 429.24 -258.28 425.08 -255.77 420.94 C-253.45 417.08 -251.16 413.2 -248.88 409.31 C-248.46 408.6 -248.04 407.89 -247.6 407.15 C-244.45 401.8 -241.32 396.44 -238.36 390.97 C-231.8 379.11 -224.72 372.71 -212.09 367.89 C-202.56 365.15 -192.19 366.66 -183.55 371.32 C-181.87 372.33 -180.2 373.36 -178.55 374.4 C-176 376 -173.4 377.45 -170.75 378.88 C-166.42 381.21 -162.14 383.62 -157.88 386.06 C-157.28 386.4 -156.68 386.74 -156.07 387.09 C-153.45 388.57 -150.87 390.08 -148.32 391.69 C-143.96 394.46 -143.96 394.46 -138.94 394.69 C-135.74 392.85 -132.9 390.78 -130 388.51 C-127.74 386.8 -125.36 385.4 -122.88 384.05 C-121.54 383.3 -120.23 382.52 -118.94 381.7 C-113.52 378.3 -107.94 375.49 -102.15 372.8 C-101.36 372.43 -100.58 372.06 -99.77 371.69 C-97.85 370.79 -95.92 369.89 -94 369 C-93.99 368.33 -93.99 367.67 -93.98 366.98 C-93.92 360 -93.83 353.03 -93.74 346.05 C-93.7 343.45 -93.68 340.85 -93.65 338.25 C-93.62 334.5 -93.57 330.76 -93.51 327.01 C-93.51 325.86 -93.5 324.7 -93.49 323.52 C-93.25 310.13 -89.57 300.18 -79.94 290.75 C-57.05 273.37 -29.13 282 -1 282 C-0.67 188.94 -0.34 95.88 0 0 Z M125 298 C125.66 298.66 126.32 299.32 127 300 C127 299.34 127 298.68 127 298 C126.34 298 125.68 298 125 298 Z M127 301 C128 303 128 303 128 303 Z M129 306 C129 307.98 129 309.96 129 312 C129.33 312 129.66 312 130 312 C130 310.02 130 308.04 130 306 C129.67 306 129.34 306 129 306 Z M277 391 C278 393 278 393 278 393 Z M312 451 C313 453 313 453 313 453 Z M332 486 C333 488 333 488 333 488 Z M-13 499 C-13 499.66 -13 500.32 -13 501 C-13.93 501.08 -14.86 501.16 -15.81 501.25 C-23.54 502.35 -30.91 505.85 -38 509 C-38 509.66 -38 510.32 -38 511 C-39.05 511.06 -40.1 511.12 -41.19 511.19 C-46.31 512.28 -48.15 514.83 -51.44 518.69 C-53 520 -53 520 -55.75 520.69 C-59.71 522.29 -61.21 524.26 -63.87 527.52 C-66.96 531.11 -70.38 534.36 -73.82 537.61 C-77.1 540.79 -79.19 543.81 -81 548 C-81.66 548 -82.32 548 -83 548 C-83.66 548.66 -84.32 549.32 -85 550 C-85.66 550.66 -86.32 551.32 -87 552 C-86.34 552.66 -85.68 553.32 -85 554 C-85.66 554.76 -86.32 555.53 -87 556.31 C-89.3 558.84 -89.3 558.84 -89 562 C-89.66 562 -90.32 562 -91 562 C-92.42 565.32 -93.39 568.44 -94 572 C-94.66 572 -95.32 572 -96 572 C-96 573.98 -96 575.96 -96 578 C-96.99 578.5 -96.99 578.5 -98 579 C-100.38 584.31 -101.36 588.21 -101 594 C-101.66 594 -102.32 594 -103 594 C-104.22 598.77 -104.14 603.43 -104.13 608.32 C-104.13 609.23 -104.13 610.13 -104.14 611.06 C-104.14 612.96 -104.13 614.87 -104.13 616.77 C-104.13 619.66 -104.13 622.55 -104.14 625.44 C-104.14 627.29 -104.13 629.15 -104.13 631.01 C-104.13 631.86 -104.14 632.71 -104.14 633.59 C-104.35 644.68 -104.35 644.68 -101 655 C-99.3 658.18 -98 661.01 -97.06 664.5 C-95.91 668.28 -94.23 670.76 -92 674 C-90.96 676.32 -89.96 678.65 -89 681 C-88.02 683.2 -87.33 684.69 -85.59 686.34 C-83.25 688.78 -81.99 691.65 -80.48 694.65 C-78.65 697.55 -76.48 699.62 -74 702 C-72.92 703.11 -71.84 704.22 -70.77 705.34 C-63.23 713.09 -56.27 720.08 -46 724 C-46 724.66 -46 725.32 -46 726 C-44.76 726.68 -43.5 727.34 -42.25 728 C-41.21 728.56 -41.21 728.56 -40.14 729.12 C-37.77 730.25 -37.77 730.25 -34 730 C-34 730.66 -34 731.32 -34 732 C-30.91 733.76 -29.77 734 -26 734 C-26 734.66 -26 735.32 -26 736 C-25.43 736.13 -24.86 736.27 -24.27 736.41 C-22.01 737 -19.83 737.72 -17.62 738.5 C-14.1 739.69 -10.72 740.64 -7 741 C-6.34 740.67 -5.68 740.34 -5 740 C-5 740.66 -5 741.32 -5 742 C12.1 745.05 12.1 745.05 29 743 C31.73 742.77 34.45 742.58 37.19 742.44 C37.94 742.39 38.69 742.35 39.46 742.31 C41.31 742.2 43.15 742.1 45 742 C45 741.34 45 740.68 45 740 C45.65 739.99 46.31 739.97 46.98 739.96 C54.83 739.55 60.92 737.26 68 734 C69.66 733.32 71.33 732.65 73 732 C73 731.34 73 730.68 73 730 C73.72 729.88 74.44 729.75 75.19 729.62 C77.96 729.01 80.4 728.12 83 727 C83 726.34 83 725.68 83 725 C83.72 724.73 84.44 724.46 85.19 724.19 C87.98 723.01 90.43 721.6 93 720 C93.66 719.67 94.32 719.34 95 719 C95 718.34 95 717.68 95 717 C95.86 716.63 95.86 716.63 96.73 716.25 C99.38 714.79 101.19 713.07 103.33 710.94 C104.13 710.14 104.93 709.34 105.75 708.52 C106.58 707.69 107.4 706.86 108.25 706 C109.09 705.17 109.93 704.33 110.8 703.48 C111.59 702.68 112.38 701.88 113.2 701.06 C114.3 699.97 114.3 699.97 115.41 698.85 C117.22 697.15 117.22 697.15 117 695 C117.66 695 118.32 695 119 695 C119.43 694.07 119.87 693.14 120.31 692.19 C121.76 689.46 122.9 688.1 125 686 C125 685.01 125 684.02 125 683 C125.66 683 126.32 683 127 683 C129.03 679.27 130 677.33 130 673 C130.66 673 131.32 673 132 673 C132 671.35 132 669.7 132 668 C132.66 668 133.32 668 134 668 C138 661.14 140.31 652.95 140 645 C140.66 645 141.32 645 142 645 C142.06 644.07 142.12 643.14 142.18 642.18 C142.9 631.65 142.9 631.65 143.56 627.44 C144.65 618.92 144.08 610.44 143.12 601.94 C143.05 601.21 142.97 600.49 142.89 599.74 C142.44 596.08 141.79 593.21 140 590 C139.61 587.68 139.27 585.34 139 583 C138.34 583 137.68 583 137 583 C137.04 581.89 137.08 580.77 137.12 579.62 C137.41 575.96 137.41 575.96 135 574 C134.38 571.88 134.38 571.88 134 570 C133.34 570 132.68 570 132 570 C131.88 569.09 131.75 568.18 131.62 567.25 C131.08 564.41 130.43 562.47 129 560 C128.34 560 127.68 560 127 560 C126.67 558.02 126.34 556.04 126 554 C125.34 554 124.68 554 124 554 C123.67 552.35 123.34 550.7 123 549 C122.34 549 121.68 549 121 549 C120.94 548.46 120.88 547.93 120.81 547.38 C119.6 543.83 117.55 541.74 115 539 C114.34 539 113.68 539 113 539 C113 538.34 113 537.68 113 537 C112.34 537 111.68 537 111 537 C110.6 536.1 110.6 536.1 110.2 535.17 C108.94 532.9 107.85 531.83 105.81 530.25 C103 527.95 100.69 525.55 98.38 522.75 C95.78 519.68 93.9 518.19 90 517 C89.55 516.55 89.11 516.09 88.64 515.62 C86.73 513.74 84.79 512.6 82.44 511.31 C81.65 510.88 80.87 510.44 80.06 509.99 C78.08 508.86 78.08 508.86 76 509 C76 508.34 76 507.68 76 507 C72.02 505.83 68.08 504.74 64 504 C64 503.34 64 502.68 64 502 C58.55 499.95 53.57 498.64 47.75 498.31 C47.17 498.21 46.6 498.1 46 498 C45.67 497.34 45.34 496.68 45 496 C38.99 495.93 32.98 495.87 26.97 495.84 C24.93 495.82 22.89 495.8 20.85 495.77 C9.16 495.63 -1.67 495.74 -13 499 Z M345 508 C345.66 508.66 346.32 509.32 347 510 C347 509.34 347 508.68 347 508 C346.34 508 345.68 508 345 508 Z M349 686 C350 688 350 688 350 688 Z M329 757 C330 759 330 759 330 759 Z M312 787 C313 789 313 789 313 789 Z M277 847 C278 849 278 849 278 849 Z M122 944 C123 946 123 946 123 946 Z M97 954 C97 954.33 97 954.66 97 955 C100.96 955 104.92 955 109 955 C109 954.67 109 954.34 109 954 C105.04 954 101.08 954 97 954 Z M1 956 C1 956.33 1 956.66 1 957 C7.6 957 14.2 957 21 957 C21 956.67 21 956.34 21 956 C14.4 956 7.8 956 1 956 Z " fill="#5C54AE" transform="translate(925,170)"/>
<path d="M0 0 C0 0.66 0 1.32 0 2 C0.97 2.27 1.94 2.54 2.94 2.81 C3.95 3.2 4.96 3.6 6 4 C6.49 5.49 6.49 5.49 7 7 C7.87 7.43 7.87 7.43 8.75 7.88 C14.03 10.51 16.62 14.46 18.45 19.87 C19.32 23.22 19.64 26.56 20 30 C20.49 30.99 20.49 30.99 21 32 C20.67 32.99 20.34 33.98 20 35 C20.66 35 21.32 35 22 35 C22 51.5 22 68 22 85 C22.99 85 23.98 85 25 85 C25 85.66 25 86.32 25 87 C25.72 87.12 26.44 87.25 27.19 87.38 C29.96 87.99 32.4 88.88 35 90 C35 90.66 35 91.32 35 92 C38.3 92.99 41.6 93.98 45 95 C45 95.66 45 96.32 45 97 C46.65 97.33 48.3 97.66 50 98 C50 98.66 50 99.32 50 100 C50.99 100 51.98 100 53 100 C53.66 100.66 54.32 101.32 55 102 C55.99 102.33 56.98 102.66 58 103 C58.74 103.8 59.49 104.61 60.25 105.44 C63.49 108.46 65.63 109.38 70 110 C72.37 108.75 72.37 108.75 75 107 C76.21 106.34 77.44 105.7 78.66 105.06 C79.31 104.72 79.96 104.39 80.62 104.04 C81.96 103.34 83.31 102.65 84.65 101.96 C87.91 100.25 90.44 98.6 93 96 C94.99 94.93 97.02 93.91 99.06 92.94 C103.37 90.94 103.37 90.94 107 88 C108.32 88 109.64 88 111 88 C111 87.34 111 86.68 111 86 C117.68 82.99 123.34 82.54 130.62 82.62 C131.64 82.61 132.65 82.6 133.69 82.59 C139.94 82.61 144.89 83.01 149.62 87.56 C150.08 88.04 150.53 88.51 151 89 C152.32 89.7 153.65 90.37 155 91 C158 93 158 93 158.69 95.12 C158.79 95.74 158.89 96.36 159 97 C159.66 96.67 160.32 96.34 161 96 C161.12 96.64 161.25 97.28 161.38 97.94 C161.68 98.96 161.68 98.96 162 100 C162.66 100.33 163.32 100.66 164 101 C164.71 102.65 165.37 104.32 166 106 C166.8 107.58 166.8 107.58 167.62 109.19 C169 112 169 112 169 114 C169.99 114.33 170.98 114.66 172 115 C172.14 115.6 172.29 116.2 172.44 116.81 C173.19 119.73 174.87 120.94 177 123 C177 123.66 177 124.32 177 125 C177.43 125.41 177.87 125.83 178.31 126.25 C180.55 128.57 181.64 131.1 183 134 C183.35 134.7 183.7 135.4 184.06 136.12 C191 150 191 150 191.94 152.19 C192.93 154.34 192.93 154.34 196 155 C196.12 155.78 196.25 156.57 196.38 157.38 C196.79 160.14 196.79 160.14 199 162 C199.29 162.6 199.58 163.2 199.88 163.81 C200.98 166.17 200.98 166.17 203.12 168.44 C205.31 171.42 205 172.45 205 176 C206.31 177.35 207.65 178.69 209 180 C209.75 182.75 209.75 182.75 210 185 C210.66 185 211.32 185 212 185 C212.66 186.98 213.32 188.96 214 191 C214.66 191 215.32 191 216 191 C216.68 192.45 216.68 192.45 217.38 193.94 C218.66 197.07 218.66 197.07 221 198 C221.38 199.32 221.7 200.66 222 202 C223.16 205.53 223.16 205.53 225.48 208.33 C227.94 211.03 228.25 214.33 229.06 217.82 C229.52 218.9 229.52 218.9 230 220 C231.96 220.66 231.96 220.66 234 221 C235.83 223.75 236.3 224.94 237 228 C237.74 231.13 237.74 231.13 239 234 C240.32 234.66 241.64 235.32 243 236 C243 245.24 243 254.48 243 264 C242.34 264 241.68 264 241 264 C240.57 265.67 240.57 265.67 240.12 267.38 C239 271 239 271 237 273 C236.34 273.33 235.68 273.66 235 274 C234.91 274.93 234.91 274.93 234.81 275.88 C234 278 234 278 230.56 279.81 C229.39 280.2 228.21 280.6 227 281 C226.34 280.67 225.68 280.34 225 280 C225.33 280.99 225.66 281.98 226 283 C224.68 283 223.36 283 222 283 C222 283.66 222 284.32 222 285 C220.35 285 218.7 285 217 285 C216.67 286.65 216.34 288.3 216 290 C215.34 290 214.68 290 214 290 C213.67 290.66 213.34 291.32 213 292 C210 291 210 291 209 290 C208.95 290.6 208.89 291.2 208.84 291.82 C208 294 208 294 205.57 295.52 C204.58 295.95 203.58 296.37 202.56 296.81 C201.08 297.47 201.08 297.47 199.57 298.14 C198.72 298.43 197.87 298.71 197 299 C196.34 298.67 195.68 298.34 195 298 C195.33 298.99 195.66 299.98 196 301 C194.4 301.87 192.8 302.72 191.19 303.56 C190.29 304.04 189.4 304.51 188.48 305 C186 306 186 306 183 305 C182.97 308.94 182.95 312.87 182.94 316.81 C182.93 317.93 182.92 319.05 182.91 320.21 C182.91 321.28 182.91 322.35 182.9 323.46 C182.9 324.45 182.89 325.44 182.89 326.46 C182.89 329.12 182.89 329.12 184 332 C184.09 333.71 184.13 335.42 184.12 337.12 C184.13 338.01 184.13 338.9 184.13 339.82 C184 342 184 342 183 343 C182.91 344.56 182.89 346.13 182.9 347.69 C182.91 349.11 182.91 349.11 182.91 350.55 C182.92 351.55 182.93 352.54 182.94 353.56 C182.94 355.06 182.94 355.06 182.95 356.58 C182.96 359.06 182.98 361.53 183 364 C183.8 364.12 184.61 364.25 185.44 364.38 C186.28 364.58 187.13 364.79 188 365 C188.33 365.66 188.66 366.32 189 367 C190.66 367.67 192.33 368.34 194 369 C195.35 369.98 196.68 370.98 198 372 C200.34 373.28 202.46 374.15 205 375 C205 375.66 205 376.32 205 377 C205.91 377.27 206.82 377.54 207.75 377.81 C210.8 378.93 212.46 380.07 215 382 C217.3 383.1 219.63 384.04 222 385 C222 385.66 222 386.32 222 387 C222.72 387.06 223.44 387.12 224.19 387.19 C227.87 388.25 229.43 390.22 232 393 C232.99 393.66 233.98 394.32 235 395 C236.19 398.12 236.19 398.12 237 401 C237.66 401 238.32 401 239 401 C239.1 401.6 239.21 402.2 239.31 402.81 C239.8 405.07 239.8 405.07 241.52 406.26 C243.68 408.8 243.34 410.7 243.29 413.98 C243.28 415.14 243.27 416.31 243.26 417.51 C243.23 419.33 243.23 419.33 243.19 421.19 C243.17 423.03 243.17 423.03 243.15 424.9 C243.11 427.94 243.06 430.97 243 434 C242.34 434 241.68 434 241 434 C240.86 434.78 240.71 435.57 240.56 436.38 C240 439 240 439 239 441 C238.34 441 237.68 441 237 441 C236.67 441.99 236.34 442.98 236 444 C235.01 443.67 234.02 443.34 233 443 C233 444.65 233 446.3 233 448 C233.66 448.33 234.32 448.66 235 449 C234.34 449.66 233.68 450.32 233 451 C232.01 450.67 231.02 450.34 230 450 C230.33 450.99 230.66 451.98 231 453 C229.69 455.44 229.69 455.44 228 458 C227.65 458.72 227.3 459.44 226.94 460.19 C226 462 226 462 224 464 C223.34 463.67 222.68 463.34 222 463 C222 464.32 222 465.64 222 467 C221.34 467 220.68 467 220 467 C220.22 467.55 220.43 468.1 220.65 468.67 C221.13 471.87 220.08 473.43 218.56 476.25 C217.85 477.59 217.85 477.59 217.13 478.95 C216.76 479.63 216.38 480.3 216 481 C214.68 480.67 213.36 480.34 212 480 C212.33 481.32 212.66 482.64 213 484 C212.01 484.33 211.02 484.66 210 485 C210.33 485.99 210.66 486.98 211 488 C209.22 491.49 207.76 494.24 205 497 C204.88 497.95 204.75 498.9 204.62 499.88 C203.88 503.58 203 504.75 200 507 C197.25 507.75 197.25 507.75 195 508 C195.33 508.99 195.66 509.98 196 511 C195.67 511.66 195.34 512.32 195 513 C195.66 513.33 196.32 513.66 197 514 C195.41 516.38 194.12 518.14 192 520 C191.34 520 190.68 520 190 520 C190.33 520.99 190.66 521.98 191 523 C190.06 526.19 190.06 526.19 189 529 C188.01 529 187.02 529 186 529 C185.34 531.31 184.68 533.62 184 536 C183.34 536 182.68 536 182 536 C181.9 536.64 181.79 537.28 181.69 537.94 C181.46 538.62 181.23 539.3 181 540 C180.01 540.33 179.02 540.66 178 541 C178 541.66 178 542.32 178 543 C178.66 543.33 179.32 543.66 180 544 C179.34 544.66 178.68 545.32 178 546 C177.01 545.67 176.02 545.34 175 545 C175.33 545.99 175.66 546.98 176 548 C174.93 550.52 173.45 552.67 172 555 C171.34 555 170.68 555 170 555 C169.67 556.32 169.34 557.64 169 559 C168.34 558.67 167.68 558.34 167 558 C167.08 559.05 167.16 560.1 167.25 561.19 C166.96 565.54 165.98 566.93 163 570 C162.01 569.34 161.02 568.68 160 568 C160 570.31 160 572.62 160 575 C159.01 575 158.02 575 157 575 C156.69 575.8 156.69 575.8 156.38 576.62 C153.84 581 149.89 585.37 145 587 C138.56 588.26 132.28 588.01 125.75 587.75 C124.66 587.72 123.57 587.7 122.45 587.67 C121.41 587.63 120.37 587.59 119.3 587.55 C118.35 587.51 117.41 587.48 116.43 587.45 C113.59 586.92 112.87 586.11 111 584 C110.01 583.67 109.02 583.34 108 583 C105.81 581.56 105.81 581.56 104 580 C104 579.34 104 578.68 104 578 C103.31 577.81 102.63 577.61 101.92 577.41 C100.57 577.02 100.57 577.02 99.19 576.62 C98.29 576.37 97.4 576.11 96.48 575.85 C93.47 574.82 91.46 573.92 90 571 C89.01 570.67 88.02 570.34 87 570 C87 569.34 87 568.68 87 568 C86.32 567.83 85.65 567.66 84.95 567.48 C79.72 566.06 76.8 564.94 73 561 C70.63 561.12 70.63 561.12 68 562 C66.57 562.21 65.13 562.39 63.69 562.56 C62.47 562.71 61.25 562.85 60 563 C60.33 563.99 60.66 564.98 61 566 C60.01 565.67 59.02 565.34 58 565 C57.67 565.99 57.34 566.98 57 568 C56.01 568.33 55.02 568.66 54 569 C53.34 568.67 52.68 568.34 52 568 C51.67 568.99 51.34 569.98 51 571 C50.01 570.67 49.02 570.34 48 570 C48.33 570.99 48.66 571.98 49 573 C46.51 575.49 44.16 576.11 40.88 577.22 C38.8 577.94 38.8 577.94 37 580 C34.99 580.84 32.94 581.52 30.88 582.22 C28.8 582.94 28.8 582.94 27 585 C24.37 585.12 24.37 585.12 22 585 C22 585.64 22.01 586.28 22.01 586.94 C22.06 593.61 22.09 600.27 22.11 606.94 C22.12 609.43 22.13 611.92 22.15 614.41 C22.18 617.98 22.19 621.56 22.2 625.14 C22.21 626.25 22.22 627.36 22.23 628.51 C22.23 629.55 22.23 630.59 22.23 631.66 C22.23 632.57 22.24 633.48 22.24 634.42 C21.98 637.26 21.07 639.37 20 642 C20.3 645.23 20.3 645.23 21 648 C20.34 648 19.68 648 19 648 C18.34 650.31 17.68 652.62 17 655 C15.68 655.33 14.36 655.66 13 656 C12.71 657.13 12.42 658.27 12.12 659.44 C11.75 660.61 11.38 661.79 11 663 C10.34 663.33 9.68 663.66 9 664 C8.34 663.67 7.68 663.34 7 663 C6.67 663.99 6.34 664.98 6 666 C5.01 665.67 4.02 665.34 3 665 C3.49 666.49 3.49 666.49 4 668 C-0.46 672.46 -5.65 672.3 -11.65 672.32 C-12.5 672.33 -13.36 672.34 -14.25 672.35 C-17.08 672.38 -19.91 672.4 -22.74 672.41 C-24.7 672.43 -26.67 672.45 -28.64 672.47 C-33.8 672.52 -38.97 672.56 -44.14 672.6 C-49.41 672.64 -54.69 672.69 -59.96 672.74 C-70.31 672.84 -80.65 672.92 -91 673 C-92.6 669.8 -92.13 666.34 -92.12 662.83 C-92.12 661.97 -92.12 661.11 -92.12 660.23 C-92.12 657.35 -92.12 654.47 -92.11 651.59 C-92.11 649.53 -92.11 647.47 -92.11 645.41 C-92.11 639.8 -92.11 634.2 -92.1 628.59 C-92.1 622.74 -92.09 616.89 -92.09 611.04 C-92.09 599.95 -92.08 588.86 -92.07 577.77 C-92.06 565.15 -92.06 552.53 -92.05 539.91 C-92.04 513.94 -92.02 487.97 -92 462 C-96.29 462 -100.58 462 -105 462 C-105 461.67 -105 461.34 -105 461 C-103.83 460.95 -102.66 460.9 -101.46 460.85 C-99.91 460.78 -98.36 460.7 -96.81 460.62 C-95.66 460.58 -95.66 460.58 -94.48 460.53 C-91.2 460.36 -88.53 460.22 -85.47 458.97 C-81.92 457.57 -78.44 457.79 -74.69 457.88 C-73.95 457.88 -73.21 457.89 -72.44 457.9 C-70.63 457.93 -68.81 457.96 -67 458 C-67 457.34 -67 456.68 -67 456 C-66.35 455.91 -65.69 455.83 -65.02 455.74 C-58.43 454.72 -52.79 452.88 -46.73 450.12 C-44.13 449.06 -41.76 448.45 -39 448 C-39 447.34 -39 446.68 -39 446 C-32.38 443 -32.38 443 -29 443 C-29 442.34 -29 441.68 -29 441 C-25.18 438.09 -21.6 436.32 -17 435 C-17 434.34 -17 433.68 -17 433 C-15.71 431.73 -15.71 431.73 -13.81 430.19 C-9.7 426.7 -5.87 422.99 -2.06 419.19 C-1.48 418.61 -0.9 418.04 -0.31 417.44 C2.72 414.5 2.72 414.5 5 411 C5.66 411 6.32 411 7 411 C7.27 410.03 7.54 409.06 7.81 408.06 C8.2 407.05 8.6 406.04 9 405 C9.99 404.67 10.98 404.34 12 404 C12.33 402.35 12.66 400.7 13 399 C13.66 399 14.32 399 15 399 C15.12 398.28 15.25 397.56 15.38 396.81 C15.99 394.04 16.88 391.6 18 389 C18.66 389 19.32 389 20 389 C20 387.35 20 385.7 20 384 C20.66 384 21.32 384 22 384 C22.19 383.29 22.39 382.57 22.59 381.84 C24.97 373.08 24.97 373.08 26.12 369.12 C26.88 366.42 27.5 363.76 28 361 C28.66 361 29.32 361 30 361 C29.99 360.07 29.98 359.14 29.96 358.18 C29.92 351.98 30.11 346.14 31 340 C31.37 332.59 30.95 325.3 30.12 317.94 C30.05 317.21 29.97 316.49 29.89 315.74 C29.44 312.07 28.75 309.24 27 306 C26.92 303.67 26.91 301.33 27 299 C26.34 299 25.68 299 25 299 C24.88 297.89 24.75 296.77 24.62 295.62 C24.35 291.97 24.35 291.97 22 290 C22 288.68 22 287.36 22 286 C21.34 286 20.68 286 20 286 C19.81 285.36 19.61 284.72 19.41 284.07 C19.15 283.24 18.89 282.41 18.62 281.56 C18.37 280.74 18.11 279.92 17.85 279.07 C17.19 276.82 17.19 276.82 15 276 C14.38 272.94 14.38 272.94 14 270 C13.34 270 12.68 270 12 270 C11.67 268.35 11.34 266.7 11 265 C10.34 265 9.68 265 9 265 C8.42 263.91 7.85 262.81 7.25 261.69 C5.54 258.66 3.89 256.96 1 255 C1 254.34 1 253.68 1 253 C0.34 253 -0.32 253 -1 253 C-2.86 251.03 -4.53 248.94 -6.25 246.85 C-7.96 244.75 -7.96 244.75 -11 244 C-12.04 242.36 -13.04 240.69 -14 239 C-15.77 236.83 -16.88 236.05 -19.5 235 C-22 234 -22 234 -23.3 232.64 C-25.53 230.49 -27.96 229.26 -30.69 227.81 C-31.68 227.28 -32.68 226.75 -33.7 226.21 C-34.46 225.81 -35.22 225.41 -36 225 C-36 224.34 -36 223.68 -36 223 C-37.05 222.88 -38.1 222.75 -39.19 222.62 C-42.46 222.09 -45.01 221.36 -48 220 C-48 219.34 -48 218.68 -48 218 C-49.3 217.86 -50.6 217.71 -51.94 217.56 C-55.88 217.12 -55.88 217.12 -57 216 C-58.51 215.77 -60.04 215.59 -61.56 215.44 C-62.39 215.35 -63.22 215.27 -64.07 215.18 C-64.7 215.12 -65.34 215.06 -66 215 C-66.33 213.68 -66.66 212.36 -67 211 C-75.25 211 -83.5 211 -92 211 C-92 142.03 -92 73.06 -92 2 C-96.95 2 -101.9 2 -107 2 C-107 1.67 -107 1.34 -107 1 C-93.49 0.87 -79.98 0.74 -66.48 0.61 C-60.2 0.55 -53.93 0.49 -47.66 0.43 C-41.61 0.37 -35.56 0.31 -29.51 0.25 C-27.2 0.23 -24.89 0.21 -22.58 0.19 C-19.35 0.15 -16.12 0.12 -12.89 0.09 C-11.44 0.08 -11.44 0.08 -9.97 0.06 C-8.65 0.05 -8.65 0.05 -7.31 0.04 C-6.54 0.03 -5.78 0.02 -4.99 0.02 C-3.33 0 -1.66 0 0 0 Z M13 14 C13.66 14.66 14.32 15.32 15 16 C15 15.34 15 14.68 15 14 C14.34 14 13.68 14 13 14 Z M15 17 C16 19 16 19 16 19 Z M17 22 C17 23.98 17 25.96 17 28 C17.33 28 17.66 28 18 28 C18 26.02 18 24.04 18 22 C17.67 22 17.34 22 17 22 Z M165 107 C166 109 166 109 166 109 Z M200 167 C201 169 201 169 201 169 Z M220 202 C221 204 221 204 221 204 Z M233 224 C233.66 224.66 234.32 225.32 235 226 C235 225.34 235 224.68 235 224 C234.34 224 233.68 224 233 224 Z M237 402 C238 404 238 404 238 404 Z M217 473 C218 475 218 475 218 475 Z M200 503 C201 505 201 505 201 505 Z M165 563 C166 565 166 565 166 565 Z M10 660 C11 662 11 662 11 662 Z M-15 670 C-15 670.33 -15 670.66 -15 671 C-11.04 671 -7.08 671 -3 671 C-3 670.67 -3 670.34 -3 670 C-6.96 670 -10.92 670 -15 670 Z " fill="#433C82" transform="translate(1037,454)"/>
<path d="M0 0 C4.48 -0.06 8.96 -0.09 13.44 -0.12 C14.7 -0.14 15.96 -0.16 17.26 -0.18 C24.19 -0.21 30.3 0.17 37 2 C38.58 2.3 40.17 2.59 41.75 2.88 C54.02 5.31 65.55 9.93 76.9 15.06 C78.84 15.93 80.79 16.75 82.75 17.56 C85.69 18.86 88.26 20.32 91 22 C92.62 22.98 94.25 23.96 95.88 24.94 C96.74 25.46 97.61 25.98 98.5 26.52 C100.59 27.75 102.68 28.92 104.81 30.06 C108.09 32.05 110.34 34.27 113 37 C113.76 37.43 114.52 37.86 115.3 38.3 C118.54 40.34 121.01 42.87 123.62 45.62 C127.26 49.59 127.26 49.59 132 52 C133.19 54.06 133.19 54.06 134 56 C134.66 56 135.32 56 136 56 C137 57.67 138 59.33 139 61 C141.12 63.23 143.32 65.35 145.55 67.47 C148.63 70.46 150.88 73.24 153 77 C153.72 77.89 154.44 78.77 155.19 79.69 C157 82 157 82 157 84 C157.66 84 158.32 84 159 84 C159.43 85.07 159.87 86.14 160.31 87.25 C161.56 90.18 163.01 92.5 165 95 C166.86 98.14 167 99.13 167 103 C167.99 103.33 168.98 103.66 170 104 C171.71 107.32 172 109.18 172 113 C172.66 113 173.32 113 174 113 C175.35 115.71 175.07 118.01 175 121 C175.66 121 176.32 121 177 121 C177.05 121.64 177.1 122.28 177.15 122.93 C177.26 124.17 177.26 124.17 177.38 125.44 C177.48 126.67 177.48 126.67 177.59 127.93 C177.72 128.62 177.86 129.3 178 130 C178.66 130.33 179.32 130.66 180 131 C181.56 134.02 182.15 136.79 182.5 140.12 C182.72 144.05 182.72 144.05 185 147 C185.45 149.41 185.45 149.41 185.69 152.06 C185.82 153.38 185.82 153.38 185.95 154.72 C186 157 186 157 185 159 C185.66 159.33 186.32 159.66 187 160 C186.34 160 185.68 160 185 160 C185.33 168.91 185.66 177.82 186 187 C165.64 187.03 145.28 187.03 124.92 186.97 C115.47 186.95 106.02 186.94 96.56 186.96 C88.32 186.97 80.07 186.96 71.82 186.93 C67.46 186.91 63.1 186.9 58.74 186.93 C54.63 186.95 50.51 186.93 46.39 186.9 C44.89 186.89 43.39 186.89 41.89 186.91 C29.11 187.05 19.09 183.87 9.44 175.19 C2.95 168.05 -0.13 160.09 -0.12 150.56 C-0.12 149.91 -0.12 149.27 -0.12 148.61 C-0.12 146.45 -0.12 144.29 -0.11 142.13 C-0.11 140.59 -0.11 139.04 -0.11 137.49 C-0.11 133.29 -0.11 129.09 -0.1 124.89 C-0.1 120.5 -0.09 116.11 -0.09 111.72 C-0.09 103.41 -0.08 95.1 -0.07 86.79 C-0.06 77.32 -0.06 67.86 -0.05 58.4 C-0.04 38.93 -0.02 19.47 0 0 Z M147 71 C148 73 148 73 148 73 Z M180 137 C180 138.98 180 140.96 180 143 C180.33 143 180.66 143 181 143 C181 141.02 181 139.04 181 137 C180.67 137 180.34 137 180 137 Z " fill="#86BEEA" transform="translate(737,0)"/>
<path d="M0 0 C39.03 -0.11 78.07 -0.2 117.1 -0.26 C121.71 -0.26 126.32 -0.27 130.93 -0.27 C131.85 -0.28 132.77 -0.28 133.71 -0.28 C148.57 -0.3 163.42 -0.34 178.27 -0.39 C193.52 -0.43 208.76 -0.46 224.01 -0.47 C233.41 -0.48 242.82 -0.5 252.22 -0.54 C258.67 -0.57 265.12 -0.57 271.58 -0.57 C275.3 -0.56 279.02 -0.57 282.74 -0.6 C286.78 -0.63 290.82 -0.61 294.86 -0.6 C296.03 -0.62 297.19 -0.63 298.39 -0.65 C309.68 -0.54 318.94 3 327.1 10.91 C334.26 18.79 337.75 28.64 337.34 39.33 C335.84 50.97 331.3 59.92 322.19 67.31 C313.45 73.22 305.53 74.58 295.1 74.48 C293.84 74.48 292.57 74.49 291.27 74.49 C287.78 74.5 284.29 74.48 280.8 74.46 C277.03 74.45 273.26 74.45 269.48 74.46 C262.96 74.46 256.43 74.45 249.9 74.42 C240.47 74.39 231.03 74.38 221.59 74.37 C206.28 74.37 190.97 74.34 175.65 74.3 C160.78 74.27 145.91 74.24 131.04 74.22 C130.13 74.22 129.21 74.22 128.26 74.22 C123.66 74.21 119.06 74.21 114.46 74.2 C76.3 74.16 38.15 74.09 0 74 C0 49.58 0 25.16 0 0 Z " fill="#86BFEB" transform="translate(463,303)"/>
<path d="M0 0 C32.87 -0.2 32.87 -0.2 46.69 -0.24 C56.22 -0.27 65.74 -0.31 75.27 -0.38 C82.21 -0.43 89.15 -0.46 96.09 -0.47 C99.76 -0.48 103.43 -0.49 107.1 -0.53 C111.21 -0.57 115.32 -0.57 119.43 -0.57 C120.63 -0.59 121.83 -0.6 123.07 -0.62 C134.52 -0.55 143.82 2.88 152.1 10.91 C159.26 18.79 162.75 28.64 162.34 39.33 C160.84 50.97 156.3 59.92 147.19 67.31 C138.29 73.32 130.27 74.58 119.66 74.45 C117.71 74.45 117.71 74.45 115.72 74.46 C112.19 74.46 108.66 74.43 105.13 74.41 C101.43 74.38 97.73 74.38 94.03 74.37 C87.03 74.36 80.04 74.33 73.04 74.29 C63.58 74.23 54.12 74.21 44.66 74.19 C29.77 74.15 14.89 74.07 0 74 C0 49.58 0 25.16 0 0 Z " fill="#86BFEB" transform="translate(463,1053)"/>
<path d="M0 0 C32.87 -0.2 32.87 -0.2 46.69 -0.24 C56.22 -0.27 65.74 -0.31 75.27 -0.38 C82.21 -0.43 89.15 -0.46 96.09 -0.47 C99.76 -0.48 103.43 -0.49 107.1 -0.53 C111.21 -0.57 115.32 -0.57 119.43 -0.57 C120.63 -0.59 121.83 -0.6 123.07 -0.62 C134.52 -0.55 143.82 2.88 152.1 10.91 C159.26 18.79 162.75 28.64 162.34 39.33 C160.84 50.97 156.3 59.92 147.19 67.31 C138.29 73.32 130.27 74.58 119.66 74.45 C117.71 74.45 117.71 74.45 115.72 74.46 C112.19 74.46 108.66 74.43 105.13 74.41 C101.43 74.38 97.73 74.38 94.03 74.37 C87.03 74.36 80.04 74.33 73.04 74.29 C63.58 74.23 54.12 74.21 44.66 74.19 C29.77 74.15 14.89 74.07 0 74 C0 49.58 0 25.16 0 0 Z " fill="#86BFEB" transform="translate(463,453)"/>
<path d="M0 0 C40.85 0 40.85 0 52.1 10.91 C59.26 18.79 62.75 28.64 62.34 39.33 C60.84 50.97 56.3 59.92 47.19 67.31 C30.96 77.72 22.1 74 0 74 C0 49.58 0 25.16 0 0 Z " fill="#86BFEB" transform="translate(463,903)"/>
<path d="M0 0 C40.85 0 40.85 0 52.1 10.91 C59.26 18.79 62.75 28.64 62.34 39.33 C60.84 50.97 56.3 59.92 47.19 67.31 C30.96 77.72 22.1 74 0 74 C0 49.58 0 25.16 0 0 Z " fill="#86BFEB" transform="translate(463,753)"/>
<path d="M0 0 C40.85 0 40.85 0 52.1 10.91 C59.26 18.79 62.75 28.64 62.34 39.33 C60.84 50.97 56.3 59.92 47.19 67.31 C30.96 77.72 22.1 74 0 74 C0 49.58 0 25.16 0 0 Z " fill="#86BFEB" transform="translate(463,603)"/>
<path d="M0 0 C0.66 0 1.32 0 2 0 C2 96.36 2 192.72 2 292 C1.34 292 0.68 292 0 292 C-0.33 204.55 -0.66 117.1 -1 27 C-0.34 27 0.32 27 1 27 C0.67 18.09 0.34 9.18 0 0 Z " fill="#B5EAFC" transform="translate(922,160)"/>
<path d="M0 0 C1.32 0.33 2.64 0.66 4 1 C4.07 17.59 4.12 34.17 4.16 50.76 C4.17 58.46 4.19 66.16 4.23 73.86 C4.26 80.57 4.28 87.29 4.28 94 C4.29 97.55 4.3 101.11 4.32 104.66 C4.34 108.63 4.34 112.6 4.34 116.57 C4.36 118.33 4.36 118.33 4.37 120.13 C4.34 130.17 4.34 130.17 1 135 C-1.19 136.88 -1.19 136.88 -3 138 C-3 137.01 -3 136.02 -3 135 C-2.34 134.67 -1.68 134.34 -1 134 C-1 132.68 -1 131.36 -1 130 C-0.34 129.67 0.32 129.34 1 129 C1 88.08 1 47.16 1 5 C0.67 5 0.34 5 0 5 C0 3.35 0 1.7 0 0 Z " fill="#B5EAFC" transform="translate(920,1127)"/>
<path d="M0 0 C0.68 0 1.36 0 2.06 0 C11.98 0.02 21.86 0.23 31.75 1.12 C31.75 1.45 31.75 1.79 31.75 2.12 C21.89 2.96 12.14 3.28 2.25 3.25 C0.95 3.25 -0.35 3.26 -1.68 3.26 C-10.26 3.25 -18.71 2.85 -27.25 2.12 C-27.25 1.8 -27.25 1.46 -27.25 1.12 C-18.15 0.19 -9.14 -0.03 0 0 Z " fill="#423B81" transform="translate(892.25,451.875)"/>
<path d="M0 0 C24.42 0 48.84 0 74 0 C74 0.33 74 0.66 74 1 C49.58 1 25.16 1 0 1 C0 0.67 0 0.34 0 0 Z " fill="#000002" transform="translate(958,1127)"/>
<path d="M0 0 C3.27 -0.09 6.54 -0.14 9.81 -0.19 C10.74 -0.21 11.67 -0.24 12.63 -0.26 C13.52 -0.27 14.41 -0.28 15.33 -0.29 C16.57 -0.32 16.57 -0.32 17.82 -0.34 C20 0 20 0 23 3 C13.76 3 4.52 3 -5 3 C-5 2.67 -5 2.34 -5 2 C-3.35 2 -1.7 2 0 2 C0 1.34 0 0.68 0 0 Z " fill="#474288" transform="translate(1159,537)"/>
<path d="M0 0 C0 3 0 3 -1.46 4.82 C-2.09 5.44 -2.72 6.05 -3.38 6.69 C-4 7.31 -4.63 7.93 -5.27 8.57 C-7 10 -7 10 -9 10 C-9 10.66 -9 11.32 -9 12 C-9.66 12 -10.32 12 -11 12 C-11.33 12.99 -11.66 13.98 -12 15 C-12.66 15 -13.32 15 -14 15 C-14 15.66 -14 16.32 -14 17 C-14.66 17 -15.32 17 -16 17 C-16 17.66 -16 18.32 -16 19 C-16.99 18.67 -17.98 18.34 -19 18 C-19 16 -19 16 -17.46 14.41 C-13.45 10.97 -9.4 7.93 -5 5 C-3.3 3.37 -1.62 1.71 0 0 Z M-21 18 C-20.34 18.33 -19.68 18.66 -19 19 C-19.33 19.66 -19.66 20.32 -20 21 C-20.99 20.67 -21.98 20.34 -23 20 C-22.34 19.34 -21.68 18.68 -21 18 Z " fill="#5867A2" transform="translate(1039,871)"/>
<path d="M0 0 C0.45 0.4 0.89 0.8 1.36 1.21 C4.1 3.61 6.64 5.79 9.81 7.62 C12.26 9.16 12.99 10.33 14 13 C14.66 13 15.32 13 16 13 C17 14.67 18 16.33 19 18 C20.65 19.69 22.31 21.36 24 23 C24.33 23.66 24.66 24.32 25 25 C21.26 23.44 18.87 21.13 16.02 18.28 C14.61 16.88 14.61 16.88 13.18 15.46 C12.7 14.97 12.22 14.49 11.73 13.99 C10.25 12.5 8.76 11.02 7.27 9.54 C6.34 8.61 5.41 7.68 4.45 6.72 C3.6 5.86 2.74 5.01 1.86 4.12 C0 2 0 2 0 0 Z " fill="#ADE7FB" transform="translate(857,43)"/>
<path d="M0 0 C0.75 0 1.5 0.01 2.27 0.01 C4.12 0.03 5.97 0.04 7.81 0.06 C7.81 1.05 7.81 2.04 7.81 3.06 C0.88 3.06 -6.05 3.06 -13.19 3.06 C-9.39 -0.73 -5.03 -0.06 0 0 Z " fill="#474186" transform="translate(962.1875,911.9375)"/>
<path d="M0 0 C4.06 0.53 5.95 2.58 8.75 5.44 C9.55 6.24 10.35 7.04 11.17 7.87 C13 10 13 10 13 12 C14.32 12.66 15.64 13.32 17 14 C17 14.99 17 15.98 17 17 C16.34 17 15.68 17 15 17 C15 16.34 15 15.68 15 15 C14.34 15 13.68 15 13 15 C11.14 13.03 9.47 10.94 7.75 8.85 C6.04 6.75 6.04 6.75 3 6 C1.31 2.94 1.31 2.94 0 0 Z " fill="#495F90" transform="translate(1023,692)"/>
<path d="M0 0 C0.33 0 0.66 0 1 0 C1 6.93 1 13.86 1 21 C0.67 20.34 0.34 19.68 0 19 C-0.66 19 -1.32 19 -2 19 C-2.2 12.29 -2.31 6.35 0 0 Z " fill="#4A438B" transform="translate(1069,794)"/>
<path d="M0 0 C-1.66 4.33 -4.87 7.09 -8.12 10.25 C-8.69 10.8 -9.25 11.36 -9.83 11.93 C-11.22 13.29 -12.61 14.65 -14 16 C-14.99 15.67 -15.98 15.34 -17 15 C-14.55 12.49 -12.09 9.99 -9.62 7.5 C-8.58 6.43 -8.58 6.43 -7.51 5.33 C-6.84 4.66 -6.17 3.98 -5.48 3.28 C-4.86 2.65 -4.24 2.02 -3.6 1.38 C-2 0 -2 0 0 0 Z " fill="#4A598F" transform="translate(865,693)"/>
<path d="M0 0 C0.33 1.32 0.66 2.64 1 4 C0.01 4.5 0.01 4.5 -1 5 C-0.67 3.35 -0.34 1.7 0 0 Z M-3 5 C-2.34 5 -1.68 5 -1 5 C-0.38 6.88 -0.38 6.88 0 9 C-2 11 -2 11 -4.25 11.75 C-8.05 13.48 -10.16 15.96 -13 19 C-13.66 18.67 -14.32 18.34 -15 18 C-14.22 17.23 -13.44 16.46 -12.63 15.66 C-11.61 14.65 -10.58 13.64 -9.56 12.62 C-9.05 12.12 -8.53 11.61 -8 11.09 C-5.14 8.31 -5.14 8.31 -3 5 Z " fill="#36366C" transform="translate(1045,860)"/>
<path d="M0 0 C0.33 0 0.66 0 1 0 C1 6.93 1 13.86 1 21 C0.67 21 0.34 21 0 21 C0 14.07 0 7.14 0 0 Z " fill="#000002" transform="translate(1220,797)"/>
<path d="M0 0 C0.33 0 0.66 0 1 0 C1 6.93 1 13.86 1 21 C0.67 21 0.34 21 0 21 C0 14.07 0 7.14 0 0 Z " fill="#010105" transform="translate(1220,762)"/>
<path d="M0 0 C4.95 0 9.9 0 15 0 C15 0.33 15 0.66 15 1 C10.05 1 5.1 1 0 1 C0 0.67 0 0.34 0 0 Z " fill="#000002" transform="translate(1156,1042)"/>
<path d="M0 0 C4.29 0 8.58 0 13 0 C13 0.33 13 0.66 13 1 C8.71 1 4.42 1 0 1 C0 0.67 0 0.34 0 0 Z " fill="#000002" transform="translate(956,667)"/>
<path d="M0 0 C0.33 0 0.66 0 1 0 C1 2.31 1 4.62 1 7 C0.67 7 0.34 7 0 7 C0 4.69 0 2.38 0 0 Z " fill="#000002" transform="translate(822,804)"/>
<path d="M0 0 C0.33 0 0.66 0 1 0 C1 2.31 1 4.62 1 7 C0.67 7 0.34 7 0 7 C0 4.69 0 2.38 0 0 Z " fill="#000002" transform="translate(822,769)"/>
<path d="M0 0 C0.33 0 0.66 0 1 0 C1 1.98 1 3.96 1 6 C0.67 6 0.34 6 0 6 C0 4.02 0 2.04 0 0 Z " fill="#000002" transform="translate(1057,478)"/>
<path d="M0 0 C1.65 0 3.3 0 5 0 C5 0.33 5 0.66 5 1 C3.35 1 1.7 1 0 1 C0 0.67 0 0.34 0 0 Z " fill="#000002" transform="translate(982,672)"/>
<path d="M0 0 C1 4 1 4 1 4 Z " fill="#000002" transform="translate(1057,1096)"/>
<path d="M0 0 C0.33 0.99 0.66 1.98 1 3 C0.34 2.67 -0.32 2.34 -1 2 C-0.67 1.34 -0.34 0.68 0 0 Z " fill="#504898" transform="translate(1235,962)"/>
<path d="M0 0 C4 1 4 1 4 1 Z " fill="#49428D" transform="translate(940,912)"/>
<path d="M0 0 C4 1 4 1 4 1 Z " fill="#000002" transform="translate(975,670)"/>
<path d="M0 0 C4 1 4 1 4 1 Z " fill="#000002" transform="translate(926,667)"/>
<path d="M0 0 C0.99 1.49 0.99 1.49 2 3 C1.34 3 0.68 3 0 3 C0 2.01 0 1.02 0 0 Z " fill="#000002" transform="translate(1242,627)"/>
<path d="M0 0 C0.99 0.49 0.99 0.49 2 1 C1.01 1.49 1.01 1.49 0 2 C0 1.34 0 0.68 0 0 Z " fill="#0A091B" transform="translate(1050,1112)"/>
<path d="M0 0 C3 1 3 1 3 1 Z " fill="#000002" transform="translate(1066,1037)"/>
<path d="M0 0 C3 1 3 1 3 1 Z " fill="#000002" transform="translate(1236,752)"/>
<path d="M0 0 C3 1 3 1 3 1 Z " fill="#000002" transform="translate(990,675)"/>
<path d="" fill="#000002" transform="translate(0,0)"/>
<path d="" fill="#B6EBFD" transform="translate(0,0)"/>
<path d="M0 0 C2 1 2 1 2 1 Z " fill="#86BFEB" transform="translate(1050,1110)"/>
<path d="M0 0 C2 1 2 1 2 1 Z " fill="#000002" transform="translate(1175,1042)"/>
<path d="M0 0 C2 1 2 1 2 1 Z " fill="#000002" transform="translate(1060,1040)"/>
<path d="M0 0 C2 1 2 1 2 1 Z " fill="#000002" transform="translate(1137,1032)"/>
<path d="M0 0 C2 1 2 1 2 1 Z " fill="#000002" transform="translate(1076,1032)"/>
<path d="M0 0 C2 1 2 1 2 1 Z " fill="#000002" transform="translate(1133,1030)"/>
<path d="M0 0 C2 1 2 1 2 1 Z " fill="#000002" transform="translate(1125,1025)"/>
<path d="M0 0 C2 1 2 1 2 1 Z " fill="#000002" transform="translate(1088,1025)"/>
<path d="" fill="#000002" transform="translate(0,0)"/>
<path d="M0 0 C2 1 2 1 2 1 Z " fill="#000002" transform="translate(1120,1022)"/>
<path d="M0 0 C2 1 2 1 2 1 Z " fill="#000002" transform="translate(1116,1020)"/>
<path d="" fill="#000002" transform="translate(0,0)"/>
<path d="M0 0 C2 1 2 1 2 1 Z " fill="#000002" transform="translate(1107,1015)"/>
<path d="" fill="#000002" transform="translate(0,0)"/>
<path d="M0 0 C2 1 2 1 2 1 Z " fill="#86BFEB" transform="translate(1215,995)"/>
<path d="" fill="#000002" transform="translate(0,0)"/>
<path d="" fill="#000002" transform="translate(0,0)"/>
<path d="" fill="#86BFEB" transform="translate(0,0)"/>
<path d="" fill="#000002" transform="translate(0,0)"/>
<path d="" fill="#9ED5F4" transform="translate(0,0)"/>
<path d="" fill="#000002" transform="translate(0,0)"/>
<path d="M0 0 C2 1 2 1 2 1 Z " fill="#86BFEB" transform="translate(1270,900)"/>
<path d="" fill="#000002" transform="translate(0,0)"/>
<path d="" fill="#000002" transform="translate(0,0)"/>
<path d="" fill="#000002" transform="translate(0,0)"/>
<path d="" fill="#000002" transform="translate(0,0)"/>
<path d="M0 0 C2 1 2 1 2 1 Z " fill="#000002" transform="translate(1223,760)"/>
<path d="" fill="#000002" transform="translate(0,0)"/>
<path d="" fill="#000002" transform="translate(0,0)"/>
<path d="M0 0 C2 1 2 1 2 1 Z " fill="#000002" transform="translate(1254,742)"/>
<path d="M0 0 C2 1 2 1 2 1 Z " fill="#0F0E28" transform="translate(1257,740)"/>
<path d="" fill="#000002" transform="translate(0,0)"/>
<path d="" fill="#000002" transform="translate(0,0)"/>
<path d="" fill="#000002" transform="translate(0,0)"/>
<path d="" fill="#000002" transform="translate(0,0)"/>
<path d="" fill="#000002" transform="translate(0,0)"/>
<path d="" fill="#000002" transform="translate(0,0)"/>
<path d="" fill="#000002" transform="translate(0,0)"/>
<path d="" fill="#000002" transform="translate(0,0)"/>
<path d="" fill="#000002" transform="translate(0,0)"/>
<path d="" fill="#000002" transform="translate(0,0)"/>
<path d="" fill="#000002" transform="translate(0,0)"/>
<path d="M0 0 C2 1 2 1 2 1 Z " fill="#718ACD" transform="translate(915,129)"/>
<path d="" fill="#000002" transform="translate(0,0)"/>
<path d="" fill="#B6EBFD" transform="translate(0,0)"/>
<path d="" fill="#433C82" transform="translate(0,0)"/>
<path d="" fill="#000002" transform="translate(0,0)"/>
<path d="" fill="#5D55AF" transform="translate(0,0)"/>
<path d="" fill="#000002" transform="translate(0,0)"/>
<path d="" fill="#000002" transform="translate(0,0)"/>
<path d="" fill="#86BFEB" transform="translate(0,0)"/>
<path d="" fill="#9DE2F9" transform="translate(0,0)"/>
<path d="" fill="#433C82" transform="translate(0,0)"/>
<path d="" fill="#000002" transform="translate(0,0)"/>
<path d="" fill="#000002" transform="translate(0,0)"/>
<path d="" fill="#000002" transform="translate(0,0)"/>
<path d="" fill="#000002" transform="translate(0,0)"/>
<path d="" fill="#000002" transform="translate(0,0)"/>
<path d="" fill="#000002" transform="translate(0,0)"/>
<path d="" fill="#000002" transform="translate(0,0)"/>
<path d="" fill="#000002" transform="translate(0,0)"/>
<path d="" fill="#86BFEB" transform="translate(0,0)"/>
<path d="" fill="#000002" transform="translate(0,0)"/>
<path d="" fill="#000002" transform="translate(0,0)"/>
<path d="" fill="#000002" transform="translate(0,0)"/>
<path d="" fill="#86BFEB" transform="translate(0,0)"/>
<path d="" fill="#86BFEB" transform="translate(0,0)"/>
<path d="" fill="#433C82" transform="translate(0,0)"/>
<path d="" fill="#1E1C4F" transform="translate(0,0)"/>
<path d="" fill="#000002" transform="translate(0,0)"/>
<path d="" fill="#9DE2F9" transform="translate(0,0)"/>
<path d="" fill="#000002" transform="translate(0,0)"/>
<path d="" fill="#86BFEB" transform="translate(0,0)"/>
<path d="" fill="#B6EBFD" transform="translate(0,0)"/>
<path d="" fill="#000002" transform="translate(0,0)"/>
<path d="" fill="#000002" transform="translate(0,0)"/>
<path d="" fill="#000002" transform="translate(0,0)"/>
<path d="" fill="#86BFEB" transform="translate(0,0)"/>
<path d="" fill="#9DE2F9" transform="translate(0,0)"/>
<path d="" fill="#000002" transform="translate(0,0)"/>
<path d="" fill="#000002" transform="translate(0,0)"/>
<path d="" fill="#B6EBFD" transform="translate(0,0)"/>
<path d="" fill="#433C82" transform="translate(0,0)"/>
<path d="" fill="#000002" transform="translate(0,0)"/>
<path d="" fill="#000002" transform="translate(0,0)"/>
<path d="" fill="#86BFEB" transform="translate(0,0)"/>
<path d="" fill="#000002" transform="translate(0,0)"/>
<path d="" fill="#9DE2F9" transform="translate(0,0)"/>
<path d="" fill="#000002" transform="translate(0,0)"/>
<path d="" fill="#86BFEB" transform="translate(0,0)"/>
<path d="" fill="#1E1C4F" transform="translate(0,0)"/>
<path d="" fill="#000002" transform="translate(0,0)"/>
<path d="" fill="#000002" transform="translate(0,0)"/>
<path d="" fill="#000002" transform="translate(0,0)"/>
<path d="" fill="#86BFEB" transform="translate(0,0)"/>
<path d="" fill="#000002" transform="translate(0,0)"/>
<path d="" fill="#000002" transform="translate(0,0)"/>
<path d="" fill="#86BFEB" transform="translate(0,0)"/>
<path d="" fill="#000002" transform="translate(0,0)"/>
<path d="" fill="#000002" transform="translate(0,0)"/>
<path d="" fill="#000002" transform="translate(0,0)"/>
<path d="" fill="#9DE2F9" transform="translate(0,0)"/>
<path d="" fill="#433C82" transform="translate(0,0)"/>
<path d="" fill="#1E1C4F" transform="translate(0,0)"/>
<path d="" fill="#86BFEB" transform="translate(0,0)"/>
<path d="" fill="#000002" transform="translate(0,0)"/>
<path d="" fill="#000002" transform="translate(0,0)"/>
<path d="" fill="#000002" transform="translate(0,0)"/>
<path d="" fill="#000002" transform="translate(0,0)"/>
<path d="" fill="#86BFEB" transform="translate(0,0)"/>
<path d="" fill="#000002" transform="translate(0,0)"/>
<path d="" fill="#86BFEB" transform="translate(0,0)"/>
<path d="" fill="#000002" transform="translate(0,0)"/>
<path d="" fill="#000002" transform="translate(0,0)"/>
<path d="" fill="#86BFEB" transform="translate(0,0)"/>
<path d="" fill="#000002" transform="translate(0,0)"/>
<path d="" fill="#000002" transform="translate(0,0)"/>
<path d="" fill="#000002" transform="translate(0,0)"/>
<path d="" fill="#86BFEB" transform="translate(0,0)"/>
<path d="" fill="#B6EBFD" transform="translate(0,0)"/>
<path d="" fill="#000002" transform="translate(0,0)"/>
<path d="" fill="#000002" transform="translate(0,0)"/>
<path d="" fill="#000002" transform="translate(0,0)"/>
<path d="" fill="#86BFEB" transform="translate(0,0)"/>
<path d="" fill="#000002" transform="translate(0,0)"/>
<path d="" fill="#000002" transform="translate(0,0)"/>
<path d="" fill="#000002" transform="translate(0,0)"/>
<path d="" fill="#000002" transform="translate(0,0)"/>
<path d="" fill="#000002" transform="translate(0,0)"/>
<path d="" fill="#000002" transform="translate(0,0)"/>
<path d="" fill="#000002" transform="translate(0,0)"/>
<path d="" fill="#000002" transform="translate(0,0)"/>
<path d="" fill="#000002" transform="translate(0,0)"/>
<path d="" fill="#000002" transform="translate(0,0)"/>
<path d="" fill="#000002" transform="translate(0,0)"/>
<path d="" fill="#B6EBFD" transform="translate(0,0)"/>
<path d="" fill="#000002" transform="translate(0,0)"/>
<path d="" fill="#000002" transform="translate(0,0)"/>
<path d="" fill="#000002" transform="translate(0,0)"/>
<path d="" fill="#000002" transform="translate(0,0)"/>
<path d="" fill="#000002" transform="translate(0,0)"/>
<path d="" fill="#000002" transform="translate(0,0)"/>
<path d="" fill="#000002" transform="translate(0,0)"/>
<path d="" fill="#000002" transform="translate(0,0)"/>
<path d="" fill="#000002" transform="translate(0,0)"/>
<path d="" fill="#000002" transform="translate(0,0)"/>
<path d="" fill="#000002" transform="translate(0,0)"/>
<path d="" fill="#B6EBFD" transform="translate(0,0)"/>
<path d="" fill="#000002" transform="translate(0,0)"/>
<path d="" fill="#000002" transform="translate(0,0)"/>
<path d="" fill="#86BFEB" transform="translate(0,0)"/>
<path d="" fill="#86BFEB" transform="translate(0,0)"/>
<path d="" fill="#5D55AF" transform="translate(0,0)"/>
</svg>
