<?xml version="1.0" encoding="UTF-8"?>
<!-- Generator: visioncortex VTracer 0.6.3 -->
<svg version="1.1" xmlns="http://www.w3.org/2000/svg" width="1280" height="1280">
<path d="M0 0 C64.63 -0.03 129.27 -0.07 193.9 -0.08 C194.86 -0.08 195.82 -0.09 196.8 -0.09 C217.58 -0.09 238.36 -0.1 259.14 -0.1 C269.33 -0.1 279.53 -0.11 289.72 -0.11 C290.73 -0.11 291.74 -0.11 292.79 -0.11 C325.67 -0.12 358.56 -0.13 391.44 -0.15 C425.23 -0.17 459.01 -0.18 492.8 -0.19 C497.57 -0.19 502.33 -0.19 507.1 -0.19 C508.04 -0.19 508.98 -0.19 509.95 -0.19 C525.07 -0.19 540.2 -0.2 555.32 -0.21 C570.52 -0.23 585.72 -0.23 600.91 -0.23 C609.95 -0.23 618.98 -0.23 628.02 -0.24 C634.05 -0.25 640.08 -0.25 646.11 -0.24 C649.55 -0.24 652.99 -0.24 656.43 -0.25 C660.13 -0.26 663.83 -0.25 667.53 -0.25 C668.61 -0.25 669.68 -0.26 670.78 -0.26 C676.27 -0.24 680.82 0.18 686 2 C687.17 2.35 687.17 2.35 688.37 2.71 C693.53 4.37 698.26 6.39 703 9 C704.16 9.63 704.16 9.63 705.34 10.27 C711.2 13.62 716.29 17.54 721.45 21.89 C723.59 23.67 725.75 25.26 728.06 26.81 C730.91 28.93 731.62 29.91 733 33 C733.64 33.31 734.28 33.62 734.94 33.94 C737.71 35.36 738.44 37.36 740 40 C740.99 40.33 741.98 40.66 743 41 C743.67 42.33 744.33 43.67 745 45 C745.99 45.33 746.98 45.66 748 46 C748.33 46.66 748.66 47.32 749 48 C749.66 48.66 750.32 49.32 751 50 C755.33 54.33 759.67 58.67 764 63 C764.68 63.66 765.36 64.32 766.06 65 C768 67 768 67 770 70 C770.99 70.66 771.98 71.32 773 72 C775.7 74.57 777.93 76.9 780 80 C780.99 80.66 781.98 81.32 783 82 C785.7 84.57 787.93 86.9 790 90 C790.99 90.66 791.98 91.32 793 92 C794.02 92.98 795.02 93.98 796 95 C796.66 95.66 797.32 96.32 798 97 C798.66 97.99 799.32 98.98 800 100 C800.99 100.66 801.98 101.32 803 102 C804.02 102.98 805.02 103.98 806 105 C806.66 105.66 807.32 106.32 808 107 C808.66 107.99 809.32 108.98 810 110 C810.99 110.66 811.98 111.32 813 112 C813.66 112.99 814.32 113.98 815 115 C815.99 115.66 816.98 116.32 818 117 C818.66 117.99 819.32 118.98 820 120 C820.99 120.66 821.98 121.32 823 122 C823.66 122.99 824.32 123.98 825 125 C825.99 125.66 826.98 126.32 828 127 C828.66 127.99 829.32 128.98 830 130 C830.99 130.66 831.98 131.32 833 132 C833.66 132.99 834.32 133.98 835 135 C835.99 135.66 836.98 136.32 838 137 C838.66 137.99 839.32 138.98 840 140 C840.99 140.66 841.98 141.32 843 142 C843.66 142.99 844.32 143.98 845 145 C845.99 145.66 846.98 146.32 848 147 C848.66 147.99 849.32 148.98 850 150 C850.99 150.66 851.98 151.32 853 152 C853.66 152.99 854.32 153.98 855 155 C855.99 155.66 856.98 156.32 858 157 C858.66 157.99 859.32 158.98 860 160 C860.99 160.66 861.98 161.32 863 162 C863.66 162.99 864.32 163.98 865 165 C865.99 165.66 866.98 166.32 868 167 C868.66 167.99 869.32 168.98 870 170 C870.99 170.66 871.98 171.32 873 172 C874.02 172.98 875.02 173.98 876 175 C876.66 175.66 877.32 176.32 878 177 C878.66 177.99 879.32 178.98 880 180 C880.99 180.66 881.98 181.32 883 182 C884.02 182.98 885.02 183.98 886 185 C886.66 185.66 887.32 186.32 888 187 C888.66 187.99 889.32 188.98 890 190 C890.99 190.66 891.98 191.32 893 192 C894.02 192.98 895.02 193.98 896 195 C896.66 195.66 897.32 196.32 898 197 C898.66 197.99 899.32 198.98 900 200 C900.99 200.66 901.98 201.32 903 202 C904.02 202.98 905.02 203.98 906 205 C906.66 205.66 907.32 206.32 908 207 C908.66 207.99 909.32 208.98 910 210 C910.99 210.66 911.98 211.32 913 212 C914.02 212.98 915.02 213.98 916 215 C916.66 215.66 917.32 216.32 918 217 C918.66 217.99 919.32 218.98 920 220 C920.99 220.66 921.98 221.32 923 222 C924.9 223.74 926.41 225.53 928 227.56 C929.94 230.17 929.94 230.17 933 232 C933.66 232.99 934.32 233.98 935 235 C935.99 235.66 936.98 236.32 938 237 C938.66 237.99 939.32 238.98 940 240 C940.99 240.66 941.98 241.32 943 242 C943.33 242.66 943.66 243.32 944 244 C944.66 244.33 945.32 244.66 946 245 C948 246 948 246 949 248 C949.66 248.66 950.32 249.32 951 250 C954.72 254.12 957.99 258.33 961 263 C961.84 264.08 961.84 264.08 962.69 265.19 C964 267 964 267 965 270 C965.66 270.33 966.32 270.66 967 271 C968.63 274.35 969 276.19 969 280 C969.66 280 970.32 280 971 280 C971.46 282.02 971.91 284.04 972.37 286.05 C972.9 288.21 972.9 288.21 975 290 C974.62 292.62 974.62 292.62 974 295 C974.66 295 975.32 295 976 295 C977.22 298.67 977.39 302.23 977.62 306.06 C977.68 306.8 977.73 307.53 977.78 308.28 C978.12 313.75 978.12 313.75 977 316 C977.66 316 978.32 316 979 316 C979.02 398.49 979.03 480.98 979.04 563.47 C979.04 564.69 979.04 565.91 979.04 567.17 C979.05 593.69 979.05 620.2 979.05 646.71 C979.05 659.72 979.05 672.72 979.05 685.72 C979.06 687.66 979.06 687.66 979.06 689.64 C979.06 731.61 979.07 773.58 979.08 815.54 C979.09 858.66 979.09 901.77 979.09 944.88 C979.09 950.97 979.09 957.05 979.09 963.14 C979.09 964.33 979.1 965.53 979.1 966.76 C979.1 986.07 979.1 1005.38 979.11 1024.68 C979.11 1044.07 979.11 1063.46 979.11 1082.86 C979.11 1094.39 979.11 1105.92 979.12 1117.45 C979.12 1125.15 979.12 1132.84 979.12 1140.53 C979.12 1144.92 979.12 1149.31 979.12 1153.7 C979.13 1157.69 979.13 1161.68 979.12 1165.67 C979.12 1167.11 979.12 1168.55 979.13 1169.99 C979.13 1171.93 979.13 1173.88 979.12 1175.83 C979.12 1176.91 979.12 1177.99 979.12 1179.1 C979.01 1181.85 978.58 1184.32 978 1187 C977.7 1190.87 977.49 1194.73 977.28 1198.6 C977 1202 977 1202 976 1205 C975.34 1205 974.68 1205 974 1205 C974 1207.31 974 1209.62 974 1212 C973.34 1212 972.68 1212 972 1212 C972.02 1212.95 972.04 1213.9 972.06 1214.88 C972 1218 972 1218 971 1220 C970.34 1220 969.68 1220 969 1220 C968.88 1220.72 968.75 1221.44 968.62 1222.19 C968.01 1224.96 967.12 1227.4 966 1230 C965.34 1230 964.68 1230 964 1230 C963.9 1230.76 963.79 1231.53 963.69 1232.31 C962.91 1235.35 962.2 1235.88 960 1238 C959.44 1239.07 958.89 1240.14 958.31 1241.25 C956.21 1245.08 953.42 1247.42 950.07 1250.18 C947.97 1252.02 946.27 1253.96 944.5 1256.12 C941.15 1260.09 937.49 1262.48 933 1265 C932.01 1265.66 931.02 1266.32 930 1267 C929.01 1267 928.02 1267 927 1267 C927 1267.66 927 1268.32 927 1269 C925.35 1269 923.7 1269 922 1269 C921.67 1269.99 921.34 1270.98 921 1272 C917.29 1274.01 914.17 1274.19 910 1274 C910 1274.66 910 1275.32 910 1276 C909.3 1276.2 908.6 1276.41 907.88 1276.62 C906.97 1276.89 906.06 1277.16 905.12 1277.44 C903.77 1277.84 903.77 1277.84 902.38 1278.25 C900.02 1278.93 900.02 1278.93 898 1280 C896 1280.1 894.01 1280.13 892.01 1280.13 C890.72 1280.13 889.43 1280.13 888.1 1280.13 C886.66 1280.13 885.21 1280.13 883.77 1280.13 C882.24 1280.13 880.71 1280.13 879.18 1280.13 C874.94 1280.14 870.7 1280.14 866.46 1280.13 C861.86 1280.13 857.27 1280.14 852.67 1280.14 C844.6 1280.15 836.53 1280.15 828.46 1280.15 C816.46 1280.14 804.46 1280.15 792.46 1280.15 C769.79 1280.16 747.11 1280.17 724.44 1280.17 C706.94 1280.17 689.44 1280.17 671.93 1280.17 C666.9 1280.17 661.87 1280.17 656.84 1280.18 C654.96 1280.18 654.96 1280.18 653.05 1280.18 C617.86 1280.18 582.66 1280.19 547.47 1280.19 C546.13 1280.19 544.79 1280.19 543.44 1280.19 C537.39 1280.19 531.33 1280.19 525.28 1280.19 C522.58 1280.19 519.87 1280.19 517.17 1280.19 C515.82 1280.19 514.47 1280.19 513.12 1280.19 C470.36 1280.18 427.61 1280.19 384.85 1280.21 C374.08 1280.21 363.31 1280.21 352.53 1280.22 C351.54 1280.22 351.54 1280.22 350.52 1280.22 C314.73 1280.23 278.95 1280.23 243.16 1280.23 C238.13 1280.23 233.1 1280.23 228.07 1280.23 C226.21 1280.23 226.21 1280.23 224.31 1280.23 C204.33 1280.23 184.35 1280.24 164.37 1280.24 C144.31 1280.25 124.24 1280.25 104.18 1280.25 C92.24 1280.24 80.31 1280.24 68.37 1280.25 C60.42 1280.26 52.46 1280.26 44.5 1280.25 C39.96 1280.25 35.41 1280.25 30.87 1280.26 C26.74 1280.26 22.62 1280.26 18.49 1280.25 C17 1280.25 15.51 1280.25 14.02 1280.26 C12.01 1280.26 10 1280.26 7.99 1280.25 C6.87 1280.25 5.76 1280.25 4.61 1280.25 C2 1280 2 1280 0 1278 C-2.43 1277.32 -2.43 1277.32 -5.12 1276.88 C-6.04 1276.71 -6.95 1276.54 -7.88 1276.37 C-8.58 1276.25 -9.28 1276.12 -10 1276 C-10 1275.34 -10 1274.68 -10 1274 C-11.58 1273.81 -11.58 1273.81 -13.19 1273.62 C-16.46 1273.09 -19.01 1272.36 -22 1271 C-22 1270.34 -22 1269.68 -22 1269 C-22.7 1268.9 -23.4 1268.79 -24.12 1268.69 C-34.72 1266.15 -42.7 1257.65 -50.12 1250.19 C-50.9 1249.43 -51.67 1248.68 -52.46 1247.9 C-60.95 1239.42 -66.84 1230.38 -70.25 1218.86 C-70.84 1216.8 -70.84 1216.8 -73 1216 C-75.13 1210.82 -76.44 1205.62 -76 1200 C-76.66 1199.67 -77.32 1199.34 -78 1199 C-78.01 1164.79 -78.02 1130.58 -78.03 1096.37 C-78.03 1095.71 -78.03 1095.04 -78.03 1094.35 C-78.05 1022.63 -78.07 950.92 -78.08 879.21 C-78.08 877.62 -78.09 876.02 -78.09 874.43 C-78.09 841 -78.1 807.58 -78.1 774.15 C-78.1 757.36 -78.11 740.56 -78.11 723.77 C-78.11 721.24 -78.11 718.71 -78.11 716.17 C-78.12 677.16 -78.12 638.15 -78.14 599.14 C-78.14 598.3 -78.14 597.46 -78.14 596.6 C-78.14 583.07 -78.15 569.54 -78.15 556.01 C-78.16 517.05 -78.18 478.1 -78.18 439.14 C-78.18 438.34 -78.18 437.54 -78.18 436.71 C-78.18 419.13 -78.19 401.56 -78.19 383.98 C-78.19 376.91 -78.19 369.83 -78.19 362.76 C-78.19 361.99 -78.19 361.21 -78.19 360.42 C-78.19 335.46 -78.2 310.5 -78.21 285.55 C-78.22 260.41 -78.23 235.28 -78.23 210.15 C-78.23 206.68 -78.23 203.21 -78.23 199.74 C-78.23 199.06 -78.23 198.38 -78.23 197.68 C-78.23 186.24 -78.23 174.79 -78.24 163.35 C-78.25 153.41 -78.25 143.47 -78.24 133.53 C-78.24 127.85 -78.24 122.18 -78.25 116.51 C-78.26 111.35 -78.26 106.2 -78.25 101.04 C-78.25 99.18 -78.25 97.32 -78.25 95.47 C-78.26 92.95 -78.26 90.44 -78.25 87.92 C-78.25 87.2 -78.26 86.47 -78.26 85.73 C-78.23 81.43 -77.5 78.02 -76 74 C-75.62 71.67 -75.28 69.34 -75 67 C-74.34 67 -73.68 67 -73 67 C-73.06 65.86 -73.06 65.86 -73.12 64.69 C-73 62 -73 62 -71 59 C-70.69 58.22 -70.38 57.43 -70.06 56.62 C-68.95 53.88 -67.55 51.52 -66 49 C-65.69 48.36 -65.38 47.72 -65.06 47.06 C-63.6 44.22 -61.77 41.66 -60 39 C-59.71 38.36 -59.41 37.72 -59.11 37.06 C-56.86 32.88 -53.09 29.76 -49.75 26.44 C-49 25.67 -48.25 24.9 -47.47 24.11 C-43.56 20.19 -40.19 17.16 -35 15 C-34.28 14.44 -33.56 13.89 -32.81 13.31 C-31 12 -31 12 -28 12 C-28 11.34 -28 10.68 -28 10 C-26.35 10 -24.7 10 -23 10 C-22.67 9.01 -22.34 8.02 -22 7 C-20.68 7 -19.36 7 -18 7 C-18 6.34 -18 5.68 -18 5 C-16.91 4.88 -15.81 4.75 -14.69 4.62 C-10.93 4.25 -10.93 4.25 -8 2 C-5.96 1.8 -5.96 1.8 -3.81 1.88 C-2.55 1.92 -1.3 1.96 0 2 C0 1.34 0 0.68 0 0 Z M969 281 C970 283 970 283 970 283 Z M974 296 C974 300.29 974 304.58 974 309 C974.33 309 974.66 309 975 309 C975 304.71 975 300.42 975 296 C974.67 296 974.34 296 974 296 Z M977 325 C977 340.84 977 356.68 977 373 C977.33 373 977.66 373 978 373 C978 357.16 978 341.32 978 325 C977.67 325 977.34 325 977 325 Z M975 1185 C976 1187 976 1187 976 1187 Z M970 1209 C970.33 1209.99 970.66 1210.98 971 1212 C971.33 1211.01 971.66 1210.02 972 1209 C971.34 1209 970.68 1209 970 1209 Z M969 1214 C968.67 1215.32 968.34 1216.64 968 1218 C968.99 1218.49 968.99 1218.49 970 1219 C970 1217.35 970 1215.7 970 1214 C969.67 1214 969.34 1214 969 1214 Z M965 1222 C966 1224 966 1224 966 1224 Z M957 1236 C956.67 1236.66 956.34 1237.32 956 1238 C956.66 1238 957.32 1238 958 1238 C957.67 1237.34 957.34 1236.68 957 1236 Z M937 1257 C937 1257.99 937 1258.98 937 1260 C937.66 1259.67 938.32 1259.34 939 1259 C939 1258.34 939 1257.68 939 1257 C938.34 1257 937.68 1257 937 1257 Z M930 1262 C930.66 1262.66 931.32 1263.32 932 1264 C932 1263.34 932 1262.68 932 1262 C931.34 1262 930.68 1262 930 1262 Z M907 1273 C906.01 1273.66 905.02 1274.32 904 1275 C905.65 1275 907.3 1275 909 1275 C908.34 1274.34 907.68 1273.68 907 1273 Z " fill="#DDEEF0" transform="translate(190,0)"/>
<path d="M0 0 C2.09 0.03 4.18 0.02 6.26 0.01 C40.89 0.86 75.75 18.1 102.5 39.03 C103.38 39.71 104.25 40.38 105.15 41.08 C107.24 42.82 108.91 44.51 110.63 46.6 C113.45 49.92 116.46 52.91 119.63 55.91 C131.29 67.27 140.21 81.57 147.5 96.03 C147.85 96.71 148.19 97.39 148.55 98.09 C153.02 107.11 156.43 116.33 159.32 125.97 C159.6 126.89 159.87 127.8 160.16 128.74 C164.98 145.65 165.91 162.17 165.63 179.66 C165.59 182.59 165.56 185.52 165.54 188.45 C165.52 190.25 165.5 192.05 165.47 193.85 C165.44 195.91 165.47 197.97 165.5 200.03 C165.83 200.36 166.16 200.69 166.5 201.03 C166.62 204.06 166.66 207.07 166.67 210.1 C166.67 211.05 166.68 212 166.68 212.99 C166.7 216.17 166.7 219.35 166.71 222.53 C166.71 224.75 166.72 226.98 166.73 229.2 C166.74 233.89 166.74 238.57 166.75 243.26 C166.75 249.19 166.77 255.12 166.8 261.05 C166.82 265.66 166.83 270.27 166.83 274.88 C166.83 277.06 166.84 279.24 166.85 281.42 C166.97 301.61 166.29 322.6 160.32 342.03 C159.87 343.57 159.87 343.57 159.4 345.13 C151.86 369.86 138.76 392.69 120.95 411.41 C118.5 413.97 118.5 413.97 116.45 416.65 C113.98 419.67 111.14 421.94 108.11 424.38 C106.16 426.01 106.16 426.01 106.5 429.03 C108.23 430.74 109.96 432.29 111.82 433.85 C118.69 439.89 124.1 446.68 129.5 454.03 C129.95 454.64 130.4 455.24 130.86 455.86 C142.27 471.34 151.52 487.69 157.5 506.03 C157.91 507.24 158.32 508.45 158.75 509.7 C164.28 526.34 167.12 543.44 166.5 561.03 C164.95 562.58 163.5 562.16 161.34 562.16 C159.99 562.16 159.99 562.16 158.61 562.17 C157.6 562.16 156.6 562.16 155.56 562.16 C153.98 562.16 153.98 562.16 152.36 562.16 C148.77 562.17 145.19 562.17 141.61 562.16 C139.05 562.16 136.5 562.17 133.94 562.17 C127.67 562.17 121.41 562.17 115.14 562.17 C110.01 562.17 104.87 562.17 99.74 562.17 C99 562.17 98.27 562.17 97.52 562.17 C96.02 562.17 94.53 562.17 93.04 562.17 C79.01 562.17 64.97 562.17 50.93 562.16 C39.06 562.16 27.19 562.16 15.32 562.16 C-105.59 562.21 -105.59 562.21 -150.33 561.62 C-152.7 561.59 -155.06 561.56 -157.43 561.53 C-161.6 561.48 -165.77 561.41 -169.94 561.34 C-171.12 561.33 -172.31 561.31 -173.54 561.3 C-175.12 561.27 -175.12 561.27 -176.73 561.24 C-177.63 561.22 -178.54 561.21 -179.47 561.19 C-181.5 561.03 -181.5 561.03 -182.5 560.03 C-184.63 529.19 -173.96 492.81 -155.5 468.03 C-154.8 466.68 -154.11 465.33 -153.43 463.97 C-146.06 450.5 -133.36 439.63 -122.5 429.03 C-123.76 425.3 -124.99 423.24 -128.06 420.78 C-141.56 409.44 -153.7 394.91 -161.5 379.03 C-162.33 377.53 -162.33 377.53 -163.19 376 C-172.94 357.91 -180.27 336.64 -182.28 316.14 C-182.48 314.14 -182.75 312.14 -183.01 310.15 C-183.71 303.83 -183.63 297.5 -183.62 291.15 C-183.63 289.76 -183.63 288.38 -183.63 287 C-183.63 283.27 -183.63 279.54 -183.63 275.81 C-183.63 271.9 -183.63 267.99 -183.63 264.08 C-183.63 257.51 -183.63 250.95 -183.63 244.39 C-183.62 236.8 -183.62 229.22 -183.63 221.64 C-183.63 215.12 -183.63 208.59 -183.63 202.07 C-183.63 198.18 -183.63 194.29 -183.63 190.4 C-183.63 186.74 -183.63 183.09 -183.63 179.44 C-183.62 177.46 -183.63 175.48 -183.63 173.5 C-183.63 172.32 -183.63 171.14 -183.62 169.93 C-183.62 168.9 -183.62 167.88 -183.62 166.82 C-183.5 164.12 -183.05 161.68 -182.5 159.03 C-182.47 155.78 -182.52 152.54 -182.62 149.3 C-182.65 147.54 -182.58 145.79 -182.5 144.03 C-181.51 143.04 -181.51 143.04 -180.5 142.03 C-180.11 139.7 -180.11 139.7 -180 137.1 C-179.78 133.41 -179.61 132.21 -177.5 129.03 C-177.02 127.48 -176.56 125.92 -176.14 124.35 C-175.28 121.24 -174.32 118.17 -173.37 115.1 C-172.84 113.38 -172.84 113.38 -172.3 111.63 C-172.03 110.77 -171.77 109.92 -171.5 109.03 C-170.84 109.03 -170.18 109.03 -169.5 109.03 C-169.37 108.15 -169.25 107.26 -169.12 106.35 C-168.55 103.33 -167.73 100.83 -166.5 98.03 C-165.84 98.03 -165.18 98.03 -164.5 98.03 C-164.37 97.29 -164.25 96.55 -164.13 95.79 C-162.3 87.81 -156.31 79.52 -151.5 73.03 C-150.84 73.03 -150.18 73.03 -149.5 73.03 C-149.19 72.25 -148.88 71.47 -148.56 70.66 C-147.5 68.03 -147.5 68.03 -146.5 66.03 C-145.84 66.03 -145.18 66.03 -144.5 66.03 C-144.27 65.49 -144.05 64.95 -143.82 64.4 C-142.07 61.27 -139.74 58.81 -137.31 56.22 C-136.81 55.69 -136.31 55.15 -135.8 54.6 C-134.81 53.54 -133.81 52.49 -132.82 51.43 C-131.76 50.31 -130.71 49.18 -129.67 48.04 C-124.24 42.31 -117.8 37.75 -111.5 33.03 C-110.75 32.44 -110 31.85 -109.23 31.24 C-107.5 30.03 -107.5 30.03 -105.5 30.03 C-105.5 29.37 -105.5 28.71 -105.5 28.03 C-99.75 25.03 -99.75 25.03 -97.5 25.03 C-97.5 24.37 -97.5 23.71 -97.5 23.03 C-96.18 23.03 -94.86 23.03 -93.5 23.03 C-93.5 22.37 -93.5 21.71 -93.5 21.03 C-70.74 10.03 -70.74 10.03 -65.5 10.03 C-65.5 9.37 -65.5 8.71 -65.5 8.03 C-63.98 7.85 -63.98 7.85 -62.43 7.66 C-57.8 6.92 -53.45 5.86 -49.12 4.03 C-34.2 -1.65 -15.73 -0.24 0 0 Z " fill="#FBCFA6" transform="translate(401.4951171875,123.96728515625)"/>
<path d="M0 0 C0.74 0 1.48 0 2.24 0.01 C3.41 0 3.41 0 4.61 0 C7.24 -0 9.87 0 12.51 0 C14.39 0 16.27 0 18.15 -0 C23.27 -0.01 28.39 -0 33.51 -0 C38.86 0 44.21 -0 49.56 -0 C58.54 -0 67.52 -0 76.5 0 C86.9 0.01 97.3 0.01 107.7 0 C116.61 -0 125.53 -0 134.44 -0 C139.77 0 145.1 0 150.43 -0 C155.44 -0.01 160.45 -0 165.46 0 C167.3 0 169.15 0 170.99 0 C173.5 -0 176.01 0 178.51 0.01 C179.62 0 179.62 0 180.75 0 C185.76 0.02 185.76 0.02 186.88 1.13 C186.97 3.33 187 5.53 187 7.72 C187 8.42 187 9.12 187 9.84 C187.01 12.22 187 14.6 187 16.97 C187 18.68 187 20.39 187 22.1 C187 26.81 187 31.53 186.99 36.25 C186.99 41.33 186.99 46.41 186.99 51.49 C186.99 60.3 186.99 69.1 186.98 77.91 C186.97 90.64 186.97 103.38 186.97 116.11 C186.97 136.77 186.96 157.43 186.95 178.09 C186.94 198.16 186.94 218.24 186.93 238.31 C186.93 239.55 186.93 240.78 186.93 242.06 C186.93 248.26 186.93 254.46 186.93 260.66 C186.92 312.15 186.9 363.64 186.88 415.13 C162.01 415.18 137.14 415.22 112.27 415.24 C100.72 415.25 89.18 415.26 77.63 415.28 C67.57 415.3 57.51 415.32 47.45 415.32 C42.12 415.32 36.79 415.33 31.46 415.35 C26.45 415.36 21.44 415.36 16.43 415.36 C14.58 415.36 12.74 415.36 10.89 415.37 C8.39 415.38 5.88 415.38 3.37 415.37 C2.63 415.38 1.89 415.39 1.13 415.39 C-3.9 415.36 -3.9 415.36 -6.12 413.13 C-6.37 410.24 -6.37 410.24 -6.37 406.46 C-6.37 405.76 -6.38 405.06 -6.38 404.34 C-6.39 401.98 -6.38 399.62 -6.37 397.26 C-6.37 395.56 -6.37 393.86 -6.38 392.16 C-6.38 387.47 -6.38 382.78 -6.37 378.08 C-6.36 373.03 -6.37 367.98 -6.37 362.93 C-6.38 353.03 -6.37 343.12 -6.36 333.22 C-6.35 321.7 -6.35 310.18 -6.35 298.66 C-6.35 278.11 -6.34 257.56 -6.33 237.01 C-6.32 217.05 -6.31 197.09 -6.31 177.12 C-6.31 175.9 -6.31 174.67 -6.31 173.4 C-6.31 172.17 -6.31 170.94 -6.31 169.68 C-6.31 146.99 -6.3 124.29 -6.29 101.6 C-6.29 93.56 -6.29 85.52 -6.29 77.48 C-6.29 67.69 -6.29 57.9 -6.28 48.11 C-6.27 43.11 -6.27 38.11 -6.27 33.1 C-6.27 28.53 -6.27 23.96 -6.26 19.4 C-6.26 17.73 -6.26 16.07 -6.26 14.41 C-6.26 12.17 -6.26 9.93 -6.25 7.69 C-6.25 6.44 -6.25 5.19 -6.25 3.9 C-6.03 -0.81 -4.24 0.02 0 0 Z " fill="#56C7F3" transform="translate(549.1234841346741,759.8662565946579)"/>
<path d="M0 0 C1.11 0 1.11 0 2.24 0 C3.02 0 3.8 0 4.6 -0 C7.23 -0.01 9.86 -0.01 12.5 -0.01 C14.37 -0.01 16.25 -0.01 18.13 -0.02 C23.25 -0.03 28.37 -0.03 33.49 -0.03 C37.75 -0.03 42.01 -0.03 46.28 -0.04 C56.34 -0.05 66.39 -0.05 76.45 -0.05 C86.84 -0.05 97.24 -0.06 107.63 -0.07 C116.53 -0.09 125.44 -0.09 134.35 -0.09 C139.67 -0.09 145 -0.09 150.33 -0.1 C155.34 -0.11 160.34 -0.11 165.35 -0.11 C167.19 -0.11 169.04 -0.11 170.88 -0.11 C173.38 -0.12 175.89 -0.12 178.4 -0.11 C179.13 -0.11 179.87 -0.12 180.63 -0.12 C185.65 -0.09 185.65 -0.09 187.88 2.14 C188.13 4.44 188.13 4.44 188.13 7.38 C188.13 8.5 188.14 9.62 188.14 10.77 C188.14 12.63 188.14 12.63 188.13 14.52 C188.13 15.83 188.13 17.14 188.14 18.48 C188.14 22.13 188.14 25.77 188.13 29.41 C188.12 33.33 188.13 37.26 188.13 41.18 C188.13 48.87 188.13 56.56 188.12 64.25 C188.11 73.19 188.11 82.14 188.11 91.09 C188.11 107.04 188.1 123 188.09 138.95 C188.07 154.45 188.07 169.95 188.07 185.45 C188.07 186.41 188.07 187.36 188.07 188.35 C188.07 189.3 188.07 190.25 188.07 191.24 C188.07 208.86 188.06 226.48 188.05 244.1 C188.05 250.34 188.05 256.59 188.05 262.83 C188.05 270.43 188.04 278.04 188.03 285.64 C188.03 289.52 188.03 293.4 188.03 297.29 C188.03 301.49 188.02 305.68 188.01 309.88 C188.02 311.12 188.02 312.36 188.02 313.64 C188.01 315.32 188.01 315.32 188.01 317.02 C188.01 317.99 188.01 318.96 188.01 319.96 C187.88 322.14 187.88 322.14 186.88 323.14 C184.42 323.24 181.99 323.28 179.52 323.27 C178.74 323.27 177.96 323.28 177.16 323.28 C174.53 323.29 171.9 323.28 169.27 323.28 C167.39 323.29 165.51 323.29 163.63 323.29 C158.51 323.3 153.39 323.31 148.28 323.31 C144.01 323.31 139.75 323.31 135.48 323.31 C125.43 323.32 115.37 323.32 105.31 323.32 C94.92 323.32 84.53 323.33 74.13 323.35 C65.23 323.36 56.32 323.37 47.41 323.37 C42.09 323.37 36.76 323.37 31.43 323.38 C26.43 323.39 21.42 323.39 16.41 323.38 C14.57 323.38 12.73 323.38 10.88 323.39 C8.38 323.4 5.87 323.39 3.37 323.39 C2.26 323.39 2.26 323.39 1.13 323.4 C-3.89 323.37 -3.89 323.37 -6.12 321.14 C-6.37 318.84 -6.37 318.84 -6.37 315.9 C-6.37 314.78 -6.38 313.66 -6.38 312.51 C-6.38 311.27 -6.37 310.03 -6.37 308.76 C-6.37 307.45 -6.37 306.14 -6.37 304.79 C-6.38 301.15 -6.37 297.51 -6.37 293.87 C-6.36 289.94 -6.36 286.02 -6.37 282.1 C-6.37 274.41 -6.37 266.72 -6.36 259.03 C-6.35 250.08 -6.35 241.14 -6.35 232.19 C-6.35 216.24 -6.34 200.28 -6.32 184.32 C-6.31 168.82 -6.3 153.32 -6.3 137.82 C-6.3 136.87 -6.3 135.91 -6.3 134.93 C-6.3 133.98 -6.3 133.02 -6.3 132.04 C-6.31 114.42 -6.3 96.8 -6.29 79.18 C-6.29 72.93 -6.29 66.69 -6.29 60.45 C-6.29 52.84 -6.28 45.24 -6.27 37.64 C-6.27 33.76 -6.26 29.87 -6.26 25.99 C-6.27 21.79 -6.26 17.59 -6.25 13.39 C-6.25 12.15 -6.26 10.91 -6.26 9.63 C-6.25 8.52 -6.25 7.4 -6.25 6.25 C-6.25 5.28 -6.25 4.31 -6.25 3.31 C-6 -0.88 -3.64 0.02 0 0 Z " fill="#FA3460" transform="translate(823.1188220381737,851.8615944981575)"/>
<path d="M0 0 C2.09 0.03 4.18 0.02 6.26 0.01 C40.89 0.86 75.75 18.1 102.5 39.03 C103.38 39.71 104.25 40.38 105.15 41.08 C107.24 42.82 108.91 44.51 110.63 46.6 C113.45 49.92 116.46 52.91 119.63 55.91 C131.29 67.27 140.21 81.57 147.5 96.03 C147.85 96.71 148.19 97.39 148.55 98.09 C153.02 107.11 156.43 116.33 159.32 125.97 C159.6 126.89 159.87 127.8 160.16 128.74 C164.98 145.65 165.93 162.23 165.69 179.72 C165.68 181.71 165.66 183.69 165.65 185.68 C165.62 190.46 165.57 195.25 165.5 200.03 C91.95 201.53 13.31 190.29 -52.55 156.04 C-54.47 155.05 -56.38 154.07 -58.3 153.1 C-75.19 144.43 -90.94 133.43 -104.79 120.43 C-106.39 118.82 -106.39 118.82 -108.5 119.03 C-108.59 119.84 -108.69 120.65 -108.79 121.49 C-110.6 134.91 -114.95 144.8 -122.5 156.03 C-122.99 156.78 -123.49 157.53 -124.01 158.29 C-132.23 169.62 -143.43 180.9 -155.5 188.03 C-156.62 188.71 -157.74 189.38 -158.9 190.08 C-175.75 200.03 -175.75 200.03 -182.5 200.03 C-184.01 197.01 -183.64 193.89 -183.63 190.58 C-183.63 189.84 -183.63 189.1 -183.63 188.33 C-183.63 186.77 -183.63 185.2 -183.63 183.63 C-183.62 181.24 -183.63 178.85 -183.63 176.46 C-183.63 174.94 -183.63 173.41 -183.63 171.89 C-183.63 171.18 -183.63 170.46 -183.63 169.73 C-183.62 166.03 -183.29 162.65 -182.5 159.03 C-182.47 155.78 -182.52 152.54 -182.62 149.3 C-182.65 147.54 -182.58 145.79 -182.5 144.03 C-181.51 143.04 -181.51 143.04 -180.5 142.03 C-180.11 139.7 -180.11 139.7 -180 137.1 C-179.78 133.41 -179.61 132.21 -177.5 129.03 C-177.02 127.48 -176.56 125.92 -176.14 124.35 C-175.28 121.24 -174.32 118.17 -173.37 115.1 C-172.84 113.38 -172.84 113.38 -172.3 111.63 C-172.03 110.77 -171.77 109.92 -171.5 109.03 C-170.84 109.03 -170.18 109.03 -169.5 109.03 C-169.37 108.15 -169.25 107.26 -169.12 106.35 C-168.55 103.33 -167.73 100.83 -166.5 98.03 C-165.84 98.03 -165.18 98.03 -164.5 98.03 C-164.37 97.29 -164.25 96.55 -164.13 95.79 C-162.3 87.81 -156.31 79.52 -151.5 73.03 C-150.84 73.03 -150.18 73.03 -149.5 73.03 C-149.19 72.25 -148.88 71.47 -148.56 70.66 C-147.5 68.03 -147.5 68.03 -146.5 66.03 C-145.84 66.03 -145.18 66.03 -144.5 66.03 C-144.27 65.49 -144.05 64.95 -143.82 64.4 C-142.07 61.27 -139.74 58.81 -137.31 56.22 C-136.81 55.69 -136.31 55.15 -135.8 54.6 C-134.81 53.54 -133.81 52.49 -132.82 51.43 C-131.76 50.31 -130.71 49.18 -129.67 48.04 C-124.24 42.31 -117.8 37.75 -111.5 33.03 C-110.75 32.44 -110 31.85 -109.23 31.24 C-107.5 30.03 -107.5 30.03 -105.5 30.03 C-105.5 29.37 -105.5 28.71 -105.5 28.03 C-99.75 25.03 -99.75 25.03 -97.5 25.03 C-97.5 24.37 -97.5 23.71 -97.5 23.03 C-96.18 23.03 -94.86 23.03 -93.5 23.03 C-93.5 22.37 -93.5 21.71 -93.5 21.03 C-70.74 10.03 -70.74 10.03 -65.5 10.03 C-65.5 9.37 -65.5 8.71 -65.5 8.03 C-63.98 7.85 -63.98 7.85 -62.43 7.66 C-57.8 6.92 -53.45 5.86 -49.12 4.03 C-34.2 -1.65 -15.73 -0.24 0 0 Z " fill="#585A66" transform="translate(401.4951171875,123.96728515625)"/>
<path d="M0 0 C8.88 -0.05 17.75 -0.08 26.63 -0.1 C30.75 -0.11 34.87 -0.13 38.99 -0.15 C42.97 -0.17 46.95 -0.18 50.94 -0.19 C52.45 -0.19 53.97 -0.2 55.48 -0.21 C57.61 -0.23 59.74 -0.23 61.87 -0.23 C63.08 -0.23 64.29 -0.24 65.54 -0.24 C69.27 0.02 72.45 0.86 76 2 C76.78 2.23 77.56 2.47 78.37 2.71 C83.53 4.37 88.26 6.39 93 9 C93.77 9.42 94.54 9.84 95.34 10.27 C101.2 13.62 106.29 17.54 111.45 21.89 C113.59 23.67 115.75 25.26 118.06 26.81 C120.91 28.93 121.62 29.91 123 33 C123.64 33.31 124.28 33.62 124.94 33.94 C127.71 35.36 128.44 37.36 130 40 C130.99 40.33 131.98 40.66 133 41 C133.67 42.33 134.33 43.67 135 45 C135.99 45.33 136.98 45.66 138 46 C138.33 46.66 138.66 47.32 139 48 C139.66 48.66 140.32 49.32 141 50 C145.33 54.33 149.67 58.67 154 63 C154.68 63.66 155.36 64.32 156.06 65 C158 67 158 67 160 70 C160.99 70.66 161.98 71.32 163 72 C165.7 74.57 167.93 76.9 170 80 C170.99 80.66 171.98 81.32 173 82 C175.7 84.57 177.93 86.9 180 90 C180.99 90.66 181.98 91.32 183 92 C184.02 92.98 185.02 93.98 186 95 C186.66 95.66 187.32 96.32 188 97 C188.99 98.48 188.99 98.48 190 100 C190.99 100.66 191.98 101.32 193 102 C194.02 102.98 195.02 103.98 196 105 C196.66 105.66 197.32 106.32 198 107 C198.99 108.48 198.99 108.48 200 110 C200.99 110.66 201.98 111.32 203 112 C203.99 113.48 203.99 113.48 205 115 C205.99 115.66 206.98 116.32 208 117 C208.99 118.48 208.99 118.48 210 120 C210.99 120.66 211.98 121.32 213 122 C213.99 123.48 213.99 123.48 215 125 C215.99 125.66 216.98 126.32 218 127 C218.99 128.48 218.99 128.48 220 130 C220.99 130.66 221.98 131.32 223 132 C223.66 132.99 224.32 133.98 225 135 C225.99 135.66 226.98 136.32 228 137 C228.66 137.99 229.32 138.98 230 140 C230.99 140.66 231.98 141.32 233 142 C233.66 142.99 234.32 143.98 235 145 C235.99 145.66 236.98 146.32 238 147 C238.66 147.99 239.32 148.98 240 150 C240.99 150.66 241.98 151.32 243 152 C243.66 152.99 244.32 153.98 245 155 C245.99 155.66 246.98 156.32 248 157 C248.66 157.99 249.32 158.98 250 160 C250.99 160.66 251.98 161.32 253 162 C253.66 162.99 254.32 163.98 255 165 C255.99 165.66 256.98 166.32 258 167 C258.66 167.99 259.32 168.98 260 170 C260.99 170.66 261.98 171.32 263 172 C264.02 172.98 265.02 173.98 266 175 C266.66 175.66 267.32 176.32 268 177 C268.66 177.99 269.32 178.98 270 180 C270.99 180.66 271.98 181.32 273 182 C274.02 182.98 275.02 183.98 276 185 C276.66 185.66 277.32 186.32 278 187 C278.66 187.99 279.32 188.98 280 190 C280.99 190.66 281.98 191.32 283 192 C284.02 192.98 285.02 193.98 286 195 C286.66 195.66 287.32 196.32 288 197 C288.66 197.99 289.32 198.98 290 200 C290.99 200.66 291.98 201.32 293 202 C294.02 202.98 295.02 203.98 296 205 C296.66 205.66 297.32 206.32 298 207 C298.66 207.99 299.32 208.98 300 210 C300.99 210.66 301.98 211.32 303 212 C304.02 212.98 305.02 213.98 306 215 C306.66 215.66 307.32 216.32 308 217 C308.66 217.99 309.32 218.98 310 220 C310.99 220.66 311.98 221.32 313 222 C314.9 223.74 316.41 225.53 318 227.56 C319.94 230.17 319.94 230.17 323 232 C323.66 232.99 324.32 233.98 325 235 C325.99 235.66 326.98 236.32 328 237 C328.66 237.99 329.32 238.98 330 240 C330.99 240.66 331.98 241.32 333 242 C333.33 242.66 333.66 243.32 334 244 C334.66 244.33 335.32 244.66 336 245 C338 246 338 246 339 248 C339.66 248.66 340.32 249.32 341 250 C344.72 254.12 347.99 258.33 351 263 C351.84 264.08 351.84 264.08 352.69 265.19 C354 267 354 267 355 270 C355.66 270.33 356.32 270.66 357 271 C358.63 274.35 359 276.19 359 280 C359.66 280 360.32 280 361 280 C361.46 282.02 361.91 284.04 362.37 286.05 C362.9 288.21 362.9 288.21 365 290 C364.62 292.62 364.62 292.62 364 295 C364.66 295 365.32 295 366 295 C367.22 298.67 367.39 302.23 367.62 306.06 C367.7 307.16 367.7 307.16 367.78 308.28 C368.12 313.75 368.12 313.75 367 316 C367.66 316 368.32 316 369 316 C369.02 398.49 369.03 480.98 369.04 563.47 C369.04 564.69 369.04 565.91 369.04 567.17 C369.05 593.69 369.05 620.2 369.05 646.71 C369.05 659.72 369.05 672.72 369.05 685.72 C369.06 687.01 369.06 688.31 369.06 689.64 C369.06 731.61 369.07 773.58 369.08 815.54 C369.09 858.66 369.09 901.77 369.09 944.88 C369.09 950.97 369.09 957.05 369.09 963.14 C369.09 964.33 369.1 965.53 369.1 966.76 C369.1 986.07 369.1 1005.38 369.11 1024.68 C369.11 1044.07 369.11 1063.46 369.11 1082.86 C369.11 1094.39 369.11 1105.92 369.12 1117.45 C369.12 1125.15 369.12 1132.84 369.12 1140.53 C369.12 1144.92 369.12 1149.31 369.12 1153.7 C369.13 1157.69 369.13 1161.68 369.12 1165.67 C369.12 1167.11 369.12 1168.55 369.13 1169.99 C369.13 1171.93 369.13 1173.88 369.12 1175.83 C369.12 1176.91 369.12 1177.99 369.12 1179.1 C369.01 1181.84 368.62 1184.33 368 1187 C367.34 1187 366.68 1187 366 1187 C364.68 1184.36 364.88 1182.4 364.88 1179.45 C364.87 1177.66 364.87 1177.66 364.87 1175.84 C364.87 1174.51 364.87 1173.17 364.88 1171.84 C364.88 1170.43 364.88 1169.01 364.87 1167.6 C364.87 1163.69 364.87 1159.77 364.88 1155.86 C364.88 1151.62 364.88 1147.37 364.88 1143.12 C364.88 1135.67 364.88 1128.22 364.88 1120.77 C364.89 1109.69 364.89 1098.61 364.89 1087.53 C364.88 1068.9 364.89 1050.27 364.89 1031.63 C364.9 1013.17 364.9 994.71 364.91 976.26 C364.91 975.11 364.91 973.96 364.91 972.78 C364.91 966.96 364.91 961.14 364.91 955.32 C364.91 914.05 364.92 872.78 364.92 831.52 C364.93 791.42 364.94 751.32 364.95 711.22 C364.95 709.99 364.95 708.75 364.95 707.48 C364.95 695.07 364.95 682.67 364.95 670.26 C364.95 644.99 364.95 619.72 364.96 594.45 C364.96 593.28 364.96 592.12 364.96 590.92 C364.97 513.28 364.98 435.64 365 358 C364.34 357.67 363.68 357.34 363 357 C362.06 354.61 361.2 352.24 360.38 349.81 C350.43 322.2 330.23 301.39 303.89 288.85 C287.03 281.29 270.1 279.56 251.88 279.56 C249.97 279.55 248.06 279.53 246.15 279.52 C241.16 279.48 236.16 279.46 231.17 279.45 C223.19 279.42 215.2 279.38 207.22 279.33 C204.47 279.31 201.71 279.31 198.96 279.3 C185.26 279.25 170.89 279.1 157.88 274.38 C157.14 274.12 156.4 273.86 155.63 273.59 C134.34 265.82 118.02 252.44 105 234 C104.18 232.85 104.18 232.85 103.34 231.67 C99.92 226.45 97.56 220.86 95.31 215.06 C95.03 214.35 94.74 213.65 94.45 212.92 C89.17 198.63 88.56 183.07 88.59 168 C88.59 165.15 88.58 162.3 88.56 159.45 C88.52 152.38 88.51 145.32 88.49 138.25 C88.48 132.24 88.46 126.23 88.42 120.22 C88.41 117.45 88.41 114.67 88.42 111.89 C88.33 82.67 79.17 57.12 60 35 C59.02 33.86 59.02 33.86 58.02 32.71 C42.41 16.01 21.2 7.87 0 1 C0 0.67 0 0.34 0 0 Z M359 281 C360 283 360 283 360 283 Z M364 296 C364 300.29 364 304.58 364 309 C364.33 309 364.66 309 365 309 C365 304.71 365 300.42 365 296 C364.67 296 364.34 296 364 296 Z M367 325 C367 340.84 367 356.68 367 373 C367.33 373 367.66 373 368 373 C368 357.16 368 341.32 368 325 C367.67 325 367.34 325 367 325 Z " fill="#BAD8DD" transform="translate(800,0)"/>
<path d="M0 0 C5.01 2.74 9.48 5.78 14 9.25 C30.16 21.29 49.16 29.46 68.5 34.94 C69.16 35.12 69.81 35.31 70.49 35.5 C84.48 39.2 98.57 39.44 112.94 39.44 C113.94 39.44 114.94 39.44 115.97 39.44 C130.96 39.41 144.64 38.6 159 34 C160.82 33.46 162.64 32.93 164.46 32.39 C175.56 29.01 185.84 24.57 196 19 C196.71 18.63 197.41 18.25 198.14 17.87 C204.48 14.46 210.19 10.4 215.96 6.11 C223.37 0.73 223.37 0.73 227 1 C229.33 2.61 231.13 4.1 233.12 6.06 C233.98 6.88 233.98 6.88 234.84 7.71 C240.89 13.63 246.01 20.18 251 27 C251.45 27.6 251.89 28.2 252.35 28.82 C263.77 44.3 273.02 60.65 279 79 C279.41 80.21 279.82 81.42 280.24 82.66 C285.77 99.3 288.62 116.41 288 134 C286.45 135.55 285 135.13 282.84 135.13 C281.48 135.13 281.48 135.13 280.1 135.13 C279.1 135.13 278.09 135.13 277.06 135.13 C276 135.13 274.94 135.13 273.85 135.13 C270.27 135.14 266.69 135.13 263.11 135.13 C260.55 135.13 257.99 135.13 255.43 135.13 C249.17 135.14 242.9 135.14 236.63 135.14 C231.5 135.13 226.37 135.13 221.23 135.13 C220.5 135.13 219.77 135.13 219.01 135.13 C217.52 135.13 216.03 135.13 214.54 135.14 C200.5 135.14 186.47 135.13 172.43 135.13 C160.56 135.13 148.69 135.13 136.81 135.13 C15.91 135.18 15.91 135.18 -28.84 134.59 C-31.2 134.56 -33.57 134.53 -35.93 134.5 C-40.1 134.44 -44.27 134.38 -48.44 134.31 C-50.22 134.29 -50.22 134.29 -52.04 134.26 C-53.09 134.24 -54.15 134.22 -55.23 134.2 C-56.14 134.19 -57.05 134.17 -57.98 134.16 C-60 134 -60 134 -61 133 C-63.14 102.15 -52.46 65.78 -34 41 C-33.3 39.65 -32.61 38.3 -31.94 36.94 C-25.69 25.51 -15.39 16.17 -6.17 7.15 C-5.51 6.51 -4.85 5.87 -4.18 5.2 C-3.59 4.63 -3 4.06 -2.39 3.47 C-0.9 2.03 -0.9 2.03 0 0 Z " fill="#F9335F" transform="translate(280,551)"/>
<path d="M0 0 C0.74 0 1.49 0.01 2.25 0.01 C3.43 0.01 3.43 0.01 4.63 0.01 C7.28 0 9.93 0.01 12.58 0.02 C14.48 0.02 16.37 0.02 18.26 0.02 C23.41 0.01 28.56 0.02 33.72 0.03 C39.1 0.03 44.47 0.03 49.85 0.04 C60.05 0.04 70.24 0.05 80.43 0.06 C92.03 0.07 103.63 0.07 115.23 0.08 C139.1 0.09 162.97 0.11 186.85 0.13 C188.02 3.64 187.97 6.38 187.97 10.09 C187.97 10.8 187.98 11.51 187.98 12.25 C187.98 14.64 187.98 17.03 187.98 19.43 C187.98 21.14 187.98 22.85 187.98 24.57 C187.98 29.22 187.98 33.88 187.98 38.54 C187.98 43.4 187.98 48.27 187.98 53.13 C187.98 61.3 187.98 69.47 187.98 77.64 C187.97 87.1 187.97 96.56 187.98 106.02 C187.98 114.13 187.98 122.24 187.98 130.35 C187.98 135.19 187.98 140.04 187.98 144.89 C187.98 149.45 187.98 154 187.98 158.56 C187.98 160.23 187.98 161.91 187.98 163.59 C187.98 165.87 187.98 168.14 187.97 170.42 C187.97 172.34 187.97 172.34 187.97 174.3 C187.85 177.13 187.85 177.13 186.85 178.13 C184.38 178.23 181.95 178.26 179.49 178.26 C178.71 178.26 177.93 178.26 177.13 178.26 C174.49 178.26 171.86 178.26 169.23 178.26 C167.35 178.26 165.47 178.26 163.59 178.26 C158.48 178.27 153.36 178.27 148.24 178.26 C142.9 178.26 137.55 178.26 132.21 178.26 C123.23 178.27 114.25 178.26 105.28 178.26 C94.88 178.25 84.49 178.26 74.1 178.26 C65.19 178.27 56.29 178.27 47.38 178.26 C42.05 178.26 36.73 178.26 31.4 178.27 C26.39 178.27 21.38 178.27 16.38 178.26 C14.53 178.26 12.69 178.26 10.85 178.26 C8.34 178.26 5.84 178.26 3.33 178.26 C2.23 178.26 2.23 178.26 1.1 178.26 C-3.93 178.24 -3.93 178.24 -6.15 177.13 C-6.18 154.2 -6.2 131.27 -6.21 108.34 C-6.21 97.69 -6.22 87.05 -6.23 76.4 C-6.24 67.12 -6.25 57.85 -6.25 48.57 C-6.25 43.66 -6.25 38.74 -6.26 33.83 C-6.27 29.21 -6.27 24.59 -6.27 19.97 C-6.27 18.27 -6.27 16.57 -6.27 14.87 C-6.28 12.55 -6.28 10.24 -6.27 7.93 C-6.28 6.63 -6.28 5.34 -6.28 4 C-6.07 -0.82 -4.35 0.01 0 0 Z " fill="#FCD464" transform="translate(275.1543193459511,997.8709186911583)"/>
<path d="M0 0 C1.26 3.65 0.78 6.49 0.12 10.25 C-1.51 19.88 -2.15 28.96 -2.15 38.73 C-2.15 40.11 -2.15 41.49 -2.16 42.87 C-2.16 46.6 -2.17 50.33 -2.17 54.06 C-2.17 56.4 -2.17 58.74 -2.17 61.08 C-2.18 69.27 -2.19 77.46 -2.19 85.66 C-2.18 93.24 -2.2 100.83 -2.21 108.42 C-2.22 114.97 -2.23 121.52 -2.23 128.07 C-2.23 131.96 -2.23 135.86 -2.24 139.75 C-2.57 168.63 -2.57 168.63 2.19 197 C2.4 197.82 2.62 198.64 2.84 199.48 C11.02 229.61 25.75 255.21 47 278 C47.74 278.8 48.47 279.6 49.23 280.43 C70.73 302.97 100.38 317.51 130 326 C130 326.99 130 327.98 130 329 C127.17 329.8 124.63 330.13 121.68 330.16 C120.84 330.17 119.99 330.18 119.12 330.19 C118.21 330.19 117.3 330.2 116.36 330.2 C115.41 330.21 114.46 330.21 113.48 330.22 C111.45 330.23 109.43 330.24 107.41 330.24 C104.37 330.25 101.33 330.28 98.29 330.31 C80.25 330.41 64.14 327.65 47 322 C46.01 321.68 46.01 321.68 45.01 321.35 C28.66 315.91 13.83 307.89 0.18 297.41 C-2.37 295.48 -4.88 293.76 -7.62 292.12 C-10.99 290.01 -13.23 287.84 -16 285 C-17.06 283.97 -18.13 282.93 -19.2 281.91 C-26.92 274.4 -33.71 266.75 -40 258 C-40.68 257.07 -41.36 256.14 -42.06 255.18 C-45.13 250.9 -47.68 246.73 -50 242 C-50.84 240.5 -50.84 240.5 -51.69 238.97 C-61.45 220.88 -68.76 199.62 -70.78 179.12 C-70.92 177.75 -71.08 176.39 -71.25 175.02 C-72.01 169.05 -72.14 163.17 -72.11 157.16 C-72.11 156.11 -72.11 155.07 -72.11 153.99 C-72.11 150.56 -72.11 147.14 -72.1 143.71 C-72.1 141.33 -72.09 138.94 -72.09 136.56 C-72.09 130.3 -72.08 124.04 -72.07 117.78 C-72.06 111.39 -72.05 104.99 -72.05 98.6 C-72.04 86.06 -72.02 73.53 -72 61 C-71.67 61.66 -71.34 62.32 -71 63 C-61.28 59.64 -52.7 55.42 -44 50 C-43.1 49.44 -42.2 48.88 -41.27 48.3 C-26.28 38.19 -11.42 23.08 -4.35 6.19 C-3.15 3.36 -2.34 1.9 0 0 Z " fill="#E4B283" transform="translate(290,261)"/>
<path d="M0 0 C1.97 -0.01 1.97 -0.01 3.97 -0.01 C5.43 -0.01 6.88 -0.01 8.33 -0.01 C9.88 -0.01 11.43 -0.01 12.97 -0.02 C17.22 -0.03 21.47 -0.03 25.72 -0.03 C30.3 -0.03 34.88 -0.04 39.46 -0.04 C49.48 -0.06 59.5 -0.06 69.52 -0.07 C75.77 -0.07 82.03 -0.08 88.28 -0.08 C105.6 -0.09 122.91 -0.1 140.23 -0.11 C141.34 -0.11 142.44 -0.11 143.59 -0.11 C144.7 -0.11 145.81 -0.11 146.95 -0.11 C149.2 -0.11 151.45 -0.11 153.71 -0.11 C154.82 -0.11 155.94 -0.11 157.09 -0.11 C175.19 -0.11 193.28 -0.13 211.38 -0.15 C229.96 -0.18 248.54 -0.19 267.11 -0.19 C277.55 -0.19 287.98 -0.2 298.41 -0.22 C307.29 -0.23 316.17 -0.24 325.05 -0.23 C329.59 -0.22 334.12 -0.23 338.65 -0.24 C342.8 -0.25 346.95 -0.25 351.1 -0.24 C352.6 -0.24 354.1 -0.24 355.6 -0.25 C369.73 -0.33 369.73 -0.33 376.55 3.13 C378.61 5.29 378.61 5.29 379.99 7.63 C380.46 8.4 380.93 9.18 381.42 9.98 C384.15 15.19 384.13 20.37 383.55 26.13 C381.15 31.21 377.1 34.89 372.55 38.13 C369.24 39.23 366.79 39.26 363.3 39.27 C361.99 39.27 360.67 39.28 359.31 39.28 C357.84 39.28 356.37 39.28 354.9 39.29 C353.34 39.29 351.79 39.29 350.23 39.3 C345.95 39.31 341.66 39.32 337.38 39.32 C332.76 39.33 328.14 39.34 323.52 39.35 C312.37 39.37 301.21 39.39 290.05 39.4 C286.9 39.4 283.75 39.41 280.6 39.41 C261.04 39.44 241.48 39.46 221.92 39.47 C217.38 39.48 212.85 39.48 208.32 39.48 C206.63 39.48 206.63 39.48 204.91 39.48 C186.66 39.5 168.41 39.53 150.16 39.57 C131.43 39.61 112.7 39.64 93.97 39.64 C83.45 39.65 72.93 39.66 62.41 39.69 C53.46 39.72 44.5 39.73 35.54 39.72 C30.97 39.71 26.4 39.72 21.83 39.74 C17.64 39.76 13.46 39.76 9.27 39.74 C7.76 39.74 6.25 39.75 4.74 39.76 C-5.69 39.86 -12.49 38.47 -20.45 31.51 C-23.76 25.93 -24.07 20.12 -22.76 13.82 C-19.92 8 -17.19 4.3 -11.45 1.13 C-7.6 0.13 -3.97 0 0 0 Z " fill="#3C3F4B" transform="translate(677.4494066238403,513.8685722351074)"/>
<path d="M0 0 C1.15 -0.01 2.29 -0.01 3.47 -0.02 C5.35 -0.01 5.35 -0.01 7.27 -0.01 C8.62 -0.01 9.97 -0.01 11.32 -0.02 C15.02 -0.03 18.73 -0.03 22.43 -0.02 C26.43 -0.02 30.43 -0.03 34.42 -0.04 C42.25 -0.05 50.08 -0.05 57.91 -0.05 C64.27 -0.05 70.64 -0.05 77 -0.05 C78.36 -0.05 78.36 -0.05 79.74 -0.05 C81.58 -0.06 83.42 -0.06 85.26 -0.06 C102.51 -0.07 119.75 -0.07 137 -0.06 C152.79 -0.05 168.57 -0.07 184.35 -0.09 C200.56 -0.1 216.76 -0.11 232.96 -0.11 C242.06 -0.11 251.16 -0.11 260.25 -0.12 C268 -0.14 275.74 -0.14 283.49 -0.13 C287.44 -0.12 291.39 -0.12 295.34 -0.13 C298.96 -0.14 302.58 -0.14 306.2 -0.12 C308.13 -0.12 310.06 -0.13 311.98 -0.14 C322.55 -0.08 322.55 -0.08 327.29 3.25 C329.16 5.41 329.16 5.41 330.61 7.75 C331.1 8.53 331.59 9.3 332.1 10.1 C334.91 15.16 335.22 20.79 333.73 26.36 C332.98 28.25 332.98 28.25 331.29 31.25 C330.3 31.58 329.31 31.91 328.29 32.25 C327.96 33.24 327.63 34.23 327.29 35.25 C322.03 38.29 317.86 39.38 311.84 39.39 C310.73 39.39 309.61 39.39 308.47 39.4 C307.24 39.4 306.02 39.4 304.76 39.39 C303.46 39.4 302.16 39.4 300.82 39.4 C297.2 39.41 293.59 39.41 289.98 39.41 C286.08 39.42 282.19 39.42 278.29 39.43 C269.77 39.44 261.26 39.45 252.74 39.45 C247.42 39.46 242.1 39.46 236.78 39.47 C222.05 39.48 207.33 39.49 192.6 39.49 C191.19 39.49 191.19 39.49 189.75 39.49 C188.33 39.49 188.33 39.49 186.88 39.49 C184.97 39.49 183.06 39.49 181.14 39.49 C180.19 39.49 179.24 39.5 178.26 39.5 C162.88 39.5 147.49 39.52 132.1 39.54 C116.3 39.56 100.5 39.58 84.71 39.58 C75.84 39.58 66.97 39.58 58.1 39.6 C50.54 39.62 42.99 39.62 35.44 39.61 C31.58 39.61 27.73 39.61 23.88 39.63 C19.7 39.64 15.52 39.63 11.34 39.62 C10.13 39.63 8.91 39.64 7.66 39.65 C-1.01 39.6 -8.19 38.2 -15.22 32.82 C-18.62 29.22 -19.65 24.73 -19.76 19.88 C-19.18 12.4 -16.44 7.17 -10.71 2.25 C-7.02 0.46 -4.08 0 0 0 Z " fill="#3C3F4A" transform="translate(673.7053594589233,414.7455244064331)"/>
<path d="M0 0 C0 0.66 0 1.32 0 2 C1.98 2.5 1.98 2.5 4 3 C3.07 2.92 2.14 2.84 1.19 2.75 C-4.31 2.79 -8.96 4.99 -14 7 C-15.5 7.57 -16.99 8.13 -18.49 8.7 C-65.24 26.54 -100.66 58.38 -121.34 104.08 C-123.31 108.6 -124.87 113.2 -126 118 C-127.98 117.5 -127.98 117.5 -130 117 C-130.1 117.81 -130.2 118.62 -130.3 119.46 C-132.11 132.88 -136.46 142.77 -144 154 C-144.5 154.75 -145 155.49 -145.51 156.26 C-153.73 167.59 -164.94 178.87 -177 186 C-178.12 186.67 -179.25 187.35 -180.4 188.04 C-197.26 198 -197.26 198 -204 198 C-205.51 194.98 -205.14 191.86 -205.13 188.54 C-205.13 187.8 -205.13 187.06 -205.14 186.3 C-205.14 184.73 -205.13 183.17 -205.13 181.6 C-205.13 179.21 -205.13 176.82 -205.14 174.43 C-205.14 172.9 -205.13 171.38 -205.13 169.86 C-205.13 169.14 -205.14 168.43 -205.14 167.7 C-205.12 163.99 -204.8 160.61 -204 157 C-203.98 153.75 -204.02 150.51 -204.13 147.26 C-204.16 145.51 -204.09 143.75 -204 142 C-203.01 141.01 -203.01 141.01 -202 140 C-201.61 137.67 -201.61 137.67 -201.5 135.06 C-201.28 131.38 -201.12 130.18 -199 127 C-198.53 125.44 -198.06 123.89 -197.64 122.32 C-196.78 119.21 -195.83 116.14 -194.88 113.06 C-194.35 111.35 -194.35 111.35 -193.8 109.6 C-193.54 108.74 -193.27 107.88 -193 107 C-192.34 107 -191.68 107 -191 107 C-190.88 106.11 -190.75 105.23 -190.62 104.31 C-190.06 101.3 -189.23 98.8 -188 96 C-187.34 96 -186.68 96 -186 96 C-185.88 95.26 -185.76 94.52 -185.63 93.76 C-183.8 85.78 -177.82 77.49 -173 71 C-172.34 71 -171.68 71 -171 71 C-170.69 70.22 -170.38 69.43 -170.06 68.62 C-169 66 -169 66 -168 64 C-167.34 64 -166.68 64 -166 64 C-165.78 63.46 -165.55 62.92 -165.32 62.36 C-163.57 59.24 -161.25 56.78 -158.81 54.19 C-158.31 53.65 -157.81 53.12 -157.3 52.57 C-156.31 51.51 -155.32 50.45 -154.32 49.4 C-153.26 48.28 -152.22 47.15 -151.18 46.01 C-145.75 40.28 -139.3 35.71 -133 31 C-132.25 30.41 -131.5 29.81 -130.73 29.2 C-129 28 -129 28 -127 28 C-127 27.34 -127 26.68 -127 26 C-121.25 23 -121.25 23 -119 23 C-119 22.34 -119 21.68 -119 21 C-117.68 21 -116.36 21 -115 21 C-115 20.34 -115 19.68 -115 19 C-92.24 8 -92.24 8 -87 8 C-87 7.34 -87 6.68 -87 6 C-85.48 5.81 -85.48 5.81 -83.94 5.62 C-79.3 4.89 -74.96 3.82 -70.62 2 C-52.28 -4.99 -19.04 -5.53 0 0 Z " fill="#3C3F4B" transform="translate(423,126)"/>
<path d="M0 0 C5.01 2.74 9.48 5.78 14 9.25 C24.14 16.85 34.9 22.5 46.8 26.89 C49 28 49 28 50 31 C48.85 32.99 48.85 32.99 47.06 35.31 C28.79 60.46 18.07 91.22 15.88 122.12 C15.75 123.85 15.75 123.85 15.61 125.6 C15.4 128.4 15.2 131.2 15 134 C5.24 134.02 -4.52 134.04 -14.28 134.05 C-18.82 134.06 -23.35 134.06 -27.88 134.08 C-32.25 134.09 -36.62 134.09 -40.99 134.09 C-42.66 134.1 -44.33 134.1 -46 134.11 C-48.34 134.11 -50.67 134.11 -53 134.11 C-53.7 134.12 -54.4 134.12 -55.12 134.12 C-59.89 134.11 -59.89 134.11 -61 133 C-63.14 102.15 -52.46 65.78 -34 41 C-33.3 39.65 -32.61 38.3 -31.94 36.94 C-25.69 25.51 -15.39 16.17 -6.17 7.15 C-5.51 6.51 -4.85 5.87 -4.18 5.2 C-3.59 4.63 -3 4.06 -2.39 3.47 C-0.9 2.03 -0.9 2.03 0 0 Z " fill="#D21D4E" transform="translate(280,551)"/>
<path d="M0 0 C0.77 -0 1.54 -0 2.33 -0.01 C4.9 -0.01 7.47 -0.01 10.05 -0.01 C11.89 -0.01 13.74 -0.02 15.58 -0.02 C20.59 -0.03 25.61 -0.03 30.62 -0.03 C34.8 -0.03 38.98 -0.04 43.17 -0.04 C53.03 -0.05 62.9 -0.05 72.76 -0.05 C82.95 -0.05 93.13 -0.06 103.31 -0.08 C112.05 -0.09 120.79 -0.1 129.53 -0.1 C134.75 -0.09 139.97 -0.1 145.19 -0.11 C150.1 -0.12 155.01 -0.12 159.92 -0.11 C161.72 -0.11 163.52 -0.11 165.33 -0.12 C167.79 -0.13 170.24 -0.12 172.7 -0.11 C173.78 -0.12 173.78 -0.12 174.87 -0.13 C179.63 -0.1 183.42 0.43 187.11 3.58 C192.05 9.38 194.82 14.49 194.35 22.26 C193.45 28.42 191.09 31.67 186.41 35.76 C179.54 39.9 170.89 38.85 163.13 38.81 C161.27 38.82 159.4 38.83 157.53 38.85 C152.48 38.88 147.42 38.88 142.37 38.87 C138.14 38.87 133.91 38.88 129.68 38.89 C119.71 38.91 109.73 38.91 99.76 38.9 C89.48 38.88 79.2 38.9 68.93 38.95 C60.09 38.99 51.25 39 42.42 39 C37.14 38.99 31.87 39 26.6 39.03 C21.64 39.05 16.68 39.05 11.72 39.02 C9.91 39.01 8.09 39.02 6.28 39.04 C-2.96 39.12 -10.36 39.09 -17.85 32.93 C-22.43 28.19 -22.62 23.47 -22.58 17.13 C-21.7 10.42 -18.74 6.71 -13.62 2.45 C-9.37 -0.29 -4.91 -0.01 0 0 Z " fill="#3C3F4B" transform="translate(676.5845794677734,613.8662872314453)"/>
<path d="M0 0 C0.68 -0 1.36 -0.01 2.06 -0.01 C4.34 -0.03 6.61 -0.02 8.88 -0.02 C10.51 -0.03 12.14 -0.04 13.78 -0.04 C18.2 -0.06 22.63 -0.07 27.06 -0.07 C29.83 -0.07 32.6 -0.07 35.36 -0.08 C45.03 -0.1 54.69 -0.1 64.36 -0.1 C73.35 -0.1 82.35 -0.12 91.35 -0.15 C99.09 -0.18 106.82 -0.19 114.56 -0.19 C119.17 -0.19 123.79 -0.2 128.4 -0.22 C132.74 -0.24 137.09 -0.24 141.43 -0.22 C143.02 -0.22 144.61 -0.22 146.2 -0.24 C161.21 -0.34 161.21 -0.34 167.99 4.27 C172.64 9.7 174.89 15.92 174.38 23.05 C173.33 29.08 169.77 33.61 164.99 37.27 C160.94 39.25 157.61 39.52 153.12 39.54 C152.1 39.55 152.1 39.55 151.06 39.56 C148.79 39.57 146.52 39.57 144.25 39.57 C142.62 39.58 140.99 39.59 139.36 39.6 C134.94 39.62 130.52 39.63 126.09 39.63 C123.33 39.64 120.56 39.64 117.79 39.65 C108.13 39.68 98.47 39.69 88.81 39.69 C79.82 39.7 70.83 39.73 61.84 39.77 C54.12 39.8 46.39 39.82 38.66 39.82 C34.05 39.82 29.44 39.83 24.82 39.86 C20.48 39.88 16.14 39.89 11.8 39.87 C10.21 39.87 8.63 39.87 7.04 39.89 C-3.24 39.99 -11.83 39.31 -19.51 31.83 C-23.23 25.47 -23.4 20.38 -22.01 13.27 C-20.16 8.1 -17.47 5.42 -13.01 2.27 C-8.55 0.45 -4.79 0.01 0 0 Z " fill="#3C3F4B" transform="translate(677.0076599121094,314.7325744628906)"/>
<path d="M0 0 C0.33 0 0.66 0 1 0 C2.13 10.3 2.14 20.54 2.12 30.89 C2.12 32.81 2.12 34.72 2.13 36.64 C2.13 41.9 2.13 47.16 2.12 52.42 C2.12 58.15 2.12 63.88 2.12 69.6 C2.12 79.64 2.12 89.67 2.12 99.7 C2.11 110.47 2.11 121.23 2.11 131.99 C2.11 132.68 2.11 133.36 2.11 134.06 C2.11 137.53 2.11 141 2.11 144.47 C2.12 169.56 2.11 194.66 2.11 219.76 C2.1 244.62 2.1 269.47 2.09 294.32 C2.09 295.09 2.09 295.87 2.09 296.66 C2.09 303.71 2.09 310.76 2.09 317.82 C2.09 335.35 2.09 352.87 2.09 370.4 C2.09 371.2 2.09 372 2.09 372.82 C2.09 411.64 2.08 450.46 2.08 489.28 C2.07 502.75 2.07 516.23 2.07 529.7 C2.07 530.53 2.07 531.37 2.07 532.23 C2.06 571.07 2.06 609.91 2.06 648.76 C2.05 651.28 2.05 653.8 2.05 656.32 C2.05 673.04 2.05 689.75 2.05 706.46 C2.05 739.72 2.05 772.97 2.04 806.23 C2.04 807.81 2.04 809.4 2.04 810.98 C2.04 882.27 2.03 953.55 2.02 1024.84 C2.02 1025.5 2.02 1026.17 2.02 1026.86 C2.01 1060.24 2.01 1093.62 2 1127 C1.34 1127.33 0.68 1127.66 0 1128 C0 1126.02 0 1124.04 0 1122 C-0.66 1121.67 -1.32 1121.34 -2 1121 C-2 751.73 -2 382.46 -2 2 C-1.34 2 -0.68 2 0 2 C0 1.34 0 0.68 0 0 Z " fill="#EFF9FB" transform="translate(114,78)"/>
<path d="M0 0 C2.84 1.78 5.2 3.66 7.75 5.81 C18.72 14.77 32.06 19.26 46.19 18 C60.1 16.05 70.43 11.01 81.01 1.86 C84.64 -1.23 87.23 -1.34 91.87 -1.29 C96.35 -0.73 99.11 1.78 102 5.06 C104.43 9.03 104.57 12.44 104.19 17 C99.67 28.61 86.07 35.95 75.19 41 C55.97 48.86 32.59 50.63 13.06 42.79 C12.44 42.53 11.82 42.27 11.19 42 C10.55 41.73 9.92 41.46 9.27 41.19 C-1.88 36.32 -13.66 29.15 -20.31 18.62 C-21.2 13.99 -21.11 9.37 -18.8 5.16 C-13.93 -1.11 -7.45 -2.65 0 0 Z " fill="#E5B283" transform="translate(351.8125,453)"/>
<path d="M0 0 C3 2.19 3 2.19 5 5 C5.53 5.64 6.05 6.29 6.59 6.95 C8.79 11.72 8.49 16.43 8.5 21.62 C8.51 22.75 8.52 23.88 8.53 25.04 C8.55 27.43 8.56 29.82 8.56 32.21 C8.56 35.86 8.62 39.5 8.67 43.14 C8.68 45.47 8.69 47.79 8.69 50.12 C8.71 51.2 8.73 52.29 8.76 53.41 C8.7 59.66 8 63.24 3.52 67.74 C-0.04 70.69 -2.25 71.02 -6.88 70.88 C-11.19 70.15 -14.69 68.9 -18 66 C-20.92 59.86 -21.44 54.65 -21.4 47.91 C-21.4 46.97 -21.4 46.02 -21.41 45.05 C-21.41 43.06 -21.4 41.08 -21.39 39.09 C-21.38 36.07 -21.39 33.06 -21.41 30.04 C-21.41 28.1 -21.4 26.16 -21.4 24.22 C-21.4 23.33 -21.41 22.44 -21.42 21.52 C-21.35 15.66 -20.57 10.33 -18 5 C-12.52 -0.35 -7.46 -0.96 0 0 Z " fill="#3D404C" transform="translate(323,349)"/>
<path d="M0 0 C4.4 2.39 6.28 5.35 8 10 C9.04 16.62 9.13 23.27 9.02 29.95 C9.01 30.86 8.99 31.76 8.98 32.69 C8.94 34.58 8.91 36.48 8.87 38.37 C8.81 41.26 8.78 44.14 8.76 47.03 C8.72 48.88 8.68 50.73 8.64 52.58 C8.64 53.43 8.64 54.29 8.63 55.17 C8.48 60.55 7.62 63.76 4 68 C-0.5 70.68 -3.95 71.48 -9.01 70.58 C-13.71 69.21 -17.24 67.14 -20 63 C-20.27 60.63 -20.27 60.63 -20.29 57.8 C-20.3 56.74 -20.32 55.67 -20.33 54.58 C-20.33 53.43 -20.33 52.29 -20.34 51.11 C-20.34 49.93 -20.35 48.75 -20.36 47.53 C-20.37 45.03 -20.37 42.53 -20.37 40.03 C-20.37 36.21 -20.41 32.4 -20.45 28.58 C-20.46 26.15 -20.46 23.72 -20.46 21.29 C-20.48 20.15 -20.49 19.01 -20.5 17.84 C-20.47 11.58 -20.24 7.74 -16 3 C-11.5 -1.09 -5.74 -0.77 0 0 Z " fill="#3D404C" transform="translate(475,349)"/>
<path d="M0 0 C0.66 0.33 1.32 0.66 2 1 C1.01 2.48 1.01 2.48 0 4 C0.66 4.66 1.32 5.32 2 6 C0.06 7.79 -1.87 9.59 -3.81 11.38 C-4.63 12.14 -4.63 12.14 -5.47 12.91 C-12.08 19 -12.08 19 -16 19 C-16.99 19.66 -17.98 20.32 -19 21 C-17.54 17.64 -15.69 15.45 -13.09 12.89 C-12.33 12.14 -11.56 11.38 -10.78 10.61 C-9.99 9.83 -9.19 9.05 -8.38 8.25 C-7.57 7.46 -6.77 6.66 -5.95 5.85 C-3.97 3.89 -1.99 1.94 0 0 Z " fill="#BFC9CE" transform="translate(149,18)"/>
<path d="M0 0 C0.66 0.33 1.32 0.66 2 1 C2.63 3.29 3.16 5.61 3.62 7.94 C3.89 9.2 4.15 10.47 4.41 11.78 C5 15 5 15 5 17 C4.34 17 3.68 17 3 17 C3 16.34 3 15.68 3 15 C2.34 14.67 1.68 14.34 1 14 C-1.35 8.93 -0.92 5.34 0 0 Z " fill="#D5E0E4" transform="translate(116,1202)"/>
<path d="M0 0 C6.31 1.1 12.06 2.58 18 5 C18 5.33 18 5.66 18 6 C15.75 5.91 13.5 5.8 11.25 5.69 C9.37 5.6 9.37 5.6 7.45 5.51 C3.97 5 2.44 4.49 0 2 C0 1.34 0 0.68 0 0 Z " fill="#B8C3C7" transform="translate(867,0)"/>
<path d="M0 0 C2.45 3.68 2.23 6.44 2.12 10.69 C2.12 11.39 2.11 12.09 2.1 12.81 C2.07 14.54 2.04 16.27 2 18 C1.34 18 0.68 18 0 18 C-1.3 14.18 -0.89 10.72 -0.56 6.75 C-0.46 5.49 -0.36 4.22 -0.25 2.92 C-0.17 1.96 -0.09 0.99 0 0 Z " fill="#F0FAFC" transform="translate(1165,295)"/>
<path d="M0 0 C0.33 1.32 0.66 2.64 1 4 C-1.96 5.48 -4.74 5.06 -8 5 C-8 4.01 -8 3.02 -8 2 C-5.36 2 -2.72 2 0 2 C0 1.34 0 0.68 0 0 Z " fill="#DDE9EC" transform="translate(190,0)"/>
<path d="" fill="#000102" transform="translate(0,0)"/>
<path d="" fill="#DEEFF1" transform="translate(0,0)"/>
<path d="" fill="#000102" transform="translate(0,0)"/>
<path d="" fill="#000102" transform="translate(0,0)"/>
<path d="" fill="#000102" transform="translate(0,0)"/>
<path d="" fill="#F1FBFD" transform="translate(0,0)"/>
<path d="" fill="#F1FBFD" transform="translate(0,0)"/>
<path d="" fill="#F1FBFD" transform="translate(0,0)"/>
<path d="" fill="#000102" transform="translate(0,0)"/>
<path d="" fill="#000102" transform="translate(0,0)"/>
<path d="" fill="#000102" transform="translate(0,0)"/>
<path d="" fill="#DEEFF1" transform="translate(0,0)"/>
<path d="" fill="#000102" transform="translate(0,0)"/>
<path d="" fill="#B9D8DD" transform="translate(0,0)"/>
<path d="" fill="#000102" transform="translate(0,0)"/>
</svg>
