<?xml version="1.0" encoding="UTF-8"?>
<!-- Generator: visioncortex VTracer 0.6.3 -->
<svg version="1.1" xmlns="http://www.w3.org/2000/svg" width="1280" height="1280">
<path d="M0 0 C337.92 0 675.84 0 1024 0 C1025.17 308.55 1025.17 308.55 1025.11 446.17 C1025.11 452.48 1025.11 458.79 1025.11 465.1 C1025.11 473.02 1025.11 480.93 1025.1 488.84 C1025.1 516.48 1025.1 544.11 1025.09 571.75 C1025.09 644 1025.08 716.25 1025.06 788.5 C1025.04 950.7 1025.02 1112.89 1025 1280 C686.75 1280 348.5 1280 0 1280 C0 857.6 0 435.2 0 0 Z " fill="#CBEDFC" transform="translate(127,0)"/>
<path d="M0 0 C0.33 0 0.66 0 1 0 C1 86.79 1 173.58 1 263 C33.6 262.99 66.21 262.98 99.8 262.96 C120.52 262.96 141.25 262.95 161.98 262.95 C172.18 262.95 182.39 262.95 192.6 262.95 C193.98 262.95 195.36 262.94 196.75 262.94 C218.69 262.94 240.64 262.93 262.58 262.92 C285.84 262.91 309.1 262.91 332.35 262.91 C346.24 262.9 360.13 262.9 374.01 262.89 C383.59 262.89 393.16 262.89 402.74 262.89 C408.23 262.89 413.72 262.89 419.21 262.88 C420.24 262.88 421.28 262.88 422.34 262.88 C424.21 262.88 426.07 262.87 427.94 262.87 C456.31 262.85 484.62 263.45 513 264 C513.33 321.09 513.66 378.18 514 437 C468.46 437.33 422.92 437.66 376 438 C375.98 449.86 375.96 461.72 375.94 473.94 C375.92 479.56 375.92 479.56 375.91 485.3 C375.91 488.65 375.91 488.65 375.9 492 C375.9 493.5 375.9 494.99 375.89 496.49 C375.89 498.75 375.89 501.02 375.89 503.28 C375.88 504.55 375.88 505.83 375.88 507.15 C375.67 509.9 375.67 509.9 377 511 C378.74 511.11 380.49 511.14 382.23 511.15 C383.37 511.16 384.5 511.17 385.67 511.18 C386.93 511.18 388.18 511.19 389.47 511.19 C391.49 511.2 393.51 511.21 395.52 511.23 C397.7 511.24 399.87 511.25 402.05 511.26 C406.57 511.28 411.1 511.31 415.62 511.34 C425.23 511.4 434.83 511.45 444.44 511.5 C454.8 511.56 465.17 511.61 475.53 511.68 C480.03 511.71 484.54 511.73 489.04 511.75 C491.16 511.76 493.29 511.77 495.41 511.79 C498.01 511.8 500.6 511.81 503.19 511.82 C504.33 511.83 505.47 511.84 506.64 511.85 C507.63 511.85 508.63 511.86 509.65 511.86 C512 512 512 512 514 513 C514 545.67 514 578.34 514 612 C468.46 612.33 422.92 612.66 376 613 C375.98 624.86 375.96 636.72 375.94 648.94 C375.92 654.56 375.92 654.56 375.91 660.3 C375.91 663.65 375.91 663.65 375.9 667 C375.9 668.5 375.9 669.99 375.89 671.49 C375.89 673.75 375.89 676.02 375.89 678.28 C375.88 679.55 375.88 680.83 375.88 682.15 C375.67 684.9 375.67 684.9 377 686 C378.74 686.11 380.49 686.14 382.23 686.15 C383.37 686.16 384.5 686.17 385.67 686.18 C386.93 686.18 388.18 686.19 389.47 686.19 C391.49 686.2 393.51 686.21 395.52 686.23 C397.7 686.24 399.87 686.25 402.05 686.26 C406.57 686.28 411.1 686.31 415.62 686.34 C425.23 686.4 434.83 686.45 444.44 686.5 C454.8 686.56 465.17 686.61 475.53 686.68 C480.03 686.71 484.54 686.73 489.04 686.75 C491.16 686.76 493.29 686.77 495.41 686.79 C498.01 686.8 500.6 686.81 503.19 686.82 C504.33 686.83 505.47 686.84 506.64 686.85 C507.63 686.85 508.63 686.86 509.65 686.86 C512 687 512 687 514 688 C514 720.67 514 753.34 514 787 C468.46 787.33 422.92 787.66 376 788 C375.98 799.86 375.96 811.72 375.94 823.94 C375.92 829.56 375.92 829.56 375.91 835.3 C375.91 838.65 375.91 838.65 375.9 842 C375.9 843.5 375.9 844.99 375.89 846.49 C375.89 848.75 375.89 851.02 375.89 853.28 C375.88 854.55 375.88 855.83 375.88 857.15 C375.67 859.9 375.67 859.9 377 861 C380.01 861.26 382.99 861.44 386 861.59 C387.42 861.66 387.42 861.66 388.87 861.74 C397.72 862.17 406.57 862.43 415.43 862.64 C421.36 862.78 427.28 862.98 433.21 863.32 C462.82 865.79 462.82 865.79 488.89 854.18 C495.06 848.58 500.53 842.27 505.43 835.52 C506.56 833.97 507.77 832.48 509 831 C509.99 831 510.98 831 512 831 C512.87 836.27 513.16 841.35 513.19 846.69 C513.2 847.53 513.21 848.37 513.21 849.23 C513.23 851.04 513.25 852.86 513.26 854.67 C513.28 857.54 513.31 860.41 513.34 863.28 C513.41 870.41 513.47 877.54 513.53 884.67 C513.58 890.7 513.63 896.73 513.69 902.76 C513.72 905.59 513.74 908.41 513.76 911.24 C513.78 912.97 513.79 914.71 513.81 916.44 C513.81 917.22 513.82 918.01 513.82 918.81 C513.86 922.08 514.03 925.18 514.57 928.42 C515 931 515 931 514.07 932.87 C511.29 935.77 508.46 938.51 505.4 941.11 C500.41 945.46 495.74 950.11 491.07 954.79 C490.1 955.75 489.13 956.72 488.16 957.69 C485.55 960.29 482.94 962.9 480.33 965.5 C478.7 967.13 477.06 968.77 475.43 970.4 C469.72 976.09 464.02 981.79 458.32 987.5 C453.02 992.8 447.71 998.1 442.4 1003.39 C437.82 1007.95 433.25 1012.52 428.69 1017.09 C425.96 1019.81 423.24 1022.53 420.51 1025.25 C417.95 1027.8 415.39 1030.35 412.84 1032.92 C411.46 1034.3 410.08 1035.67 408.69 1037.05 C402.77 1043 398.26 1047.78 396.13 1056.09 C395.82 1057.28 395.51 1058.47 395.18 1059.7 C394.86 1060.98 394.54 1062.26 394.21 1063.57 C393.86 1064.93 393.51 1066.28 393.15 1067.64 C392.22 1071.24 391.3 1074.85 390.38 1078.46 C389.43 1082.17 388.48 1085.88 387.52 1089.59 C386.2 1094.71 384.89 1099.83 383.58 1104.96 C381.7 1112.31 379.79 1119.65 377.85 1126.98 C377.21 1129.39 376.58 1131.79 375.95 1134.2 C375.57 1135.64 375.19 1137.08 374.8 1138.53 C374.28 1140.46 373.78 1142.4 373.27 1144.34 C373 1145.37 372.73 1146.41 372.44 1147.48 C371.77 1150.11 371.77 1150.11 373 1153 C393.02 1147.86 413.04 1142.7 433.06 1137.53 C437.17 1136.47 441.27 1135.41 445.38 1134.36 C449.5 1133.3 453.62 1132.24 457.73 1131.17 C459.11 1130.81 460.48 1130.45 461.86 1130.1 C463.71 1129.63 465.55 1129.15 467.39 1128.66 C468.37 1128.41 469.35 1128.16 470.36 1127.9 C476.7 1125.74 480.61 1121.62 485.16 1116.93 C486.55 1115.52 487.93 1114.12 489.31 1112.72 C491.48 1110.51 493.64 1108.29 495.8 1106.08 C497.9 1103.94 500 1101.81 502.1 1099.68 C502.75 1099.01 503.4 1098.34 504.06 1097.65 C504.67 1097.04 505.27 1096.43 505.89 1095.8 C506.42 1095.26 506.95 1094.71 507.5 1094.16 C509 1093 509 1093 512 1093 C519.73 1154.85 513 1217.67 513 1280 C343.71 1280 174.42 1280 0 1280 C0 857.6 0 435.2 0 0 Z " fill="#E4F7FD" transform="translate(127,0)"/>
<path d="M0 0 C168.96 0 337.92 0 512 0 C512.33 86.46 512.66 172.92 513 262 C384.4 262.04 384.4 262.04 335.22 262.05 C322.36 262.05 309.5 262.05 296.64 262.05 C295.09 262.05 293.53 262.06 291.98 262.06 C267.15 262.06 242.33 262.07 217.51 262.08 C192.01 262.09 166.51 262.09 141.01 262.09 C137.41 262.09 133.81 262.09 130.21 262.09 C129.5 262.09 128.8 262.1 128.07 262.1 C116.64 262.1 105.22 262.1 93.8 262.11 C82.33 262.11 70.86 262.11 59.39 262.11 C53.17 262.11 46.96 262.11 40.74 262.12 C35.05 262.12 29.37 262.12 23.68 262.12 C21.62 262.12 19.55 262.12 17.49 262.12 C14.7 262.13 11.91 262.13 9.12 262.12 C8.3 262.13 7.48 262.13 6.64 262.13 C1.11 262.11 1.11 262.11 0 261 C-0.1 259.6 -0.12 258.2 -0.12 256.8 C-0.13 255.89 -0.13 254.98 -0.13 254.04 C-0.13 253.03 -0.12 252.01 -0.12 250.97 C-0.12 249.91 -0.12 248.84 -0.12 247.75 C-0.12 244.14 -0.12 240.53 -0.11 236.93 C-0.11 234.31 -0.11 231.7 -0.11 229.09 C-0.11 222.78 -0.11 216.46 -0.1 210.15 C-0.1 202.86 -0.1 195.56 -0.09 188.26 C-0.09 168.99 -0.08 149.71 -0.06 130.44 C-0.04 87.39 -0.02 44.35 0 0 Z " fill="#83D6F3" transform="translate(639,0)"/>
<path d="M0 0 C168.63 0 337.26 0 511 0 C511 86.46 511 172.92 511 262 C342.37 262 173.74 262 0 262 C0 175.54 0 89.08 0 0 Z " fill="#ABE3FD" transform="translate(128,0)"/>
<path d="M0 0 C2.8 0.84 4.07 1.48 6.11 3.52 C6.69 4.09 7.27 4.66 7.87 5.25 C8.48 5.88 9.1 6.51 9.73 7.15 C10.4 7.81 11.07 8.48 11.75 9.16 C13.95 11.34 16.13 13.54 18.3 15.74 C19.83 17.27 21.35 18.8 22.88 20.32 C26.08 23.52 29.27 26.73 32.46 29.95 C36.53 34.06 40.61 38.15 44.71 42.24 C47.86 45.39 51.01 48.55 54.16 51.71 C55.66 53.22 57.17 54.73 58.67 56.24 C60.79 58.36 62.89 60.48 64.99 62.61 C65.61 63.22 66.23 63.84 66.86 64.47 C70.88 68.57 73.95 72.85 76.8 77.83 C76.16 78.46 75.52 79.09 74.86 79.74 C73.99 80.6 73.13 81.45 72.24 82.33 C71.39 83.17 70.54 84 69.67 84.87 C67.66 86.89 65.8 88.99 63.96 91.17 C58.39 97.55 52.32 103.45 46.33 109.43 C44.95 110.81 43.57 112.19 42.2 113.57 C38.42 117.35 34.64 121.12 30.87 124.9 C26.79 128.97 22.71 133.05 18.63 137.13 C10.65 145.12 2.67 153.1 -5.32 161.08 C-11.81 167.57 -18.29 174.06 -24.78 180.55 C-26.17 181.93 -26.17 181.93 -27.58 183.35 C-29.46 185.23 -31.34 187.1 -33.21 188.98 C-50.3 206.07 -67.4 223.17 -84.49 240.26 C-100.09 255.85 -115.69 271.45 -131.28 287.05 C-148.81 304.58 -166.34 322.11 -183.88 339.64 C-185.75 341.51 -187.62 343.38 -189.49 345.25 C-190.41 346.17 -191.33 347.09 -192.27 348.04 C-198.76 354.52 -205.24 361 -211.71 367.48 C-219.61 375.38 -227.51 383.28 -235.41 391.18 C-239.44 395.2 -243.47 399.23 -247.5 403.26 C-251.19 406.96 -254.88 410.64 -258.57 414.33 C-259.9 415.66 -261.24 417 -262.57 418.33 C-274.64 430.42 -274.64 430.42 -280.68 435.54 C-284.96 439.18 -288.66 443.41 -292.44 447.56 C-295.29 450.67 -298.2 453.72 -301.1 456.78 C-302.61 458.38 -304.09 459.99 -305.56 461.63 C-317.24 474.59 -327.25 479.55 -344.21 482.98 C-351.22 484.43 -358.11 486.38 -365.02 488.21 C-369.3 489.35 -373.58 490.45 -377.86 491.56 C-379.59 492.01 -381.33 492.46 -383.06 492.91 C-384.36 493.24 -384.36 493.24 -385.68 493.59 C-390.15 494.75 -394.63 495.91 -399.1 497.07 C-407.8 499.32 -416.5 501.58 -425.2 503.83 C-426.48 501.7 -427.24 500.36 -427.07 497.84 C-426.88 497.14 -426.7 496.44 -426.51 495.71 C-426.31 494.9 -426.11 494.08 -425.9 493.25 C-425.66 492.36 -425.42 491.48 -425.18 490.57 C-424.94 489.63 -424.7 488.7 -424.46 487.73 C-423.66 484.63 -422.85 481.53 -422.03 478.44 C-421.48 476.28 -420.92 474.13 -420.37 471.97 C-419.2 467.45 -418.02 462.93 -416.84 458.42 C-415.32 452.64 -413.82 446.85 -412.33 441.06 C-411.18 436.61 -410.03 432.16 -408.87 427.71 C-408.31 425.58 -407.76 423.44 -407.21 421.31 C-406.44 418.32 -405.65 415.34 -404.87 412.36 C-404.64 411.48 -404.42 410.6 -404.18 409.69 C-403.97 408.87 -403.75 408.05 -403.53 407.21 C-403.25 406.15 -403.25 406.15 -402.97 405.08 C-401.22 399.97 -398.79 396.04 -395.14 392.09 C-393.94 390.8 -393.94 390.8 -392.72 389.48 C-388.6 385.15 -384.4 380.9 -380.17 376.67 C-379.2 375.7 -378.23 374.73 -377.27 373.76 C-374.67 371.16 -372.07 368.56 -369.46 365.96 C-366.73 363.23 -363.99 360.49 -361.26 357.75 C-356.67 353.17 -352.09 348.58 -347.5 344 C-342.2 338.71 -336.91 333.42 -331.62 328.12 C-327.06 323.56 -322.5 319 -317.94 314.44 C-315.22 311.72 -312.51 309 -309.79 306.29 C-307.24 303.73 -304.69 301.18 -302.14 298.64 C-300.76 297.26 -299.38 295.88 -298.01 294.5 C-297.18 293.68 -296.35 292.86 -295.5 292.01 C-294.43 290.94 -294.43 290.94 -293.34 289.84 C-291.2 287.83 -291.2 287.83 -288.87 286.07 C-286.66 284.22 -284.96 282.48 -283.09 280.3 C-278.32 274.72 -273.11 269.58 -267.92 264.39 C-266.78 263.24 -265.64 262.1 -264.5 260.95 C-261.38 257.82 -258.26 254.69 -255.14 251.56 C-252.46 248.87 -249.79 246.18 -247.11 243.49 C-237.53 233.87 -227.94 224.25 -218.35 214.64 C-217.6 213.88 -216.84 213.13 -216.06 212.34 C-201.04 197.28 -186.01 182.22 -170.98 167.17 C-167.68 163.86 -164.38 160.56 -161.08 157.26 C-160.26 156.43 -159.44 155.61 -158.6 154.77 C-145.29 141.44 -132 128.09 -118.71 114.75 C-105.06 101.04 -91.41 87.35 -77.73 73.67 C-70.06 65.99 -62.39 58.3 -54.74 50.6 C-48.22 44.05 -41.7 37.51 -35.16 30.98 C-31.83 27.65 -28.49 24.31 -25.18 20.96 C-22.15 17.9 -19.1 14.85 -16.04 11.81 C-14.93 10.71 -13.83 9.6 -12.73 8.48 C-11.25 6.97 -9.74 5.48 -8.23 4 C-6.98 2.75 -6.98 2.75 -5.71 1.47 C-3.2 -0.17 -3.2 -0.17 0 0 Z " fill="#6A73E5" transform="translate(925.2017005681992,650.1660437583923)"/>
<path d="M0 0 C0.71 0 1.43 0 2.16 0.01 C2.92 0 3.67 0 4.45 0 C7.02 -0 9.58 -0 12.14 0 C13.98 -0 15.83 -0 17.67 -0.01 C22.76 -0.01 27.85 -0.01 32.94 -0.01 C38.42 -0.01 43.9 -0.02 49.38 -0.02 C60.13 -0.03 70.87 -0.03 81.62 -0.03 C90.35 -0.03 99.08 -0.03 107.81 -0.04 C128.5 -0.05 149.19 -0.05 169.89 -0.05 C170.55 -0.05 171.21 -0.05 171.9 -0.05 C175.25 -0.05 178.61 -0.05 181.97 -0.05 C182.63 -0.05 183.3 -0.05 183.99 -0.05 C185.34 -0.05 186.68 -0.05 188.03 -0.05 C209.02 -0.05 230 -0.06 250.99 -0.07 C274.55 -0.09 298.1 -0.09 321.66 -0.09 C334.14 -0.09 346.62 -0.1 359.1 -0.11 C369.73 -0.12 380.35 -0.12 390.98 -0.11 C396.4 -0.11 401.83 -0.11 407.25 -0.12 C412.21 -0.12 417.17 -0.12 422.13 -0.11 C423.93 -0.11 425.74 -0.12 427.54 -0.12 C429.97 -0.13 432.41 -0.12 434.84 -0.11 C435.91 -0.12 435.91 -0.12 437 -0.13 C441.84 -0.09 441.84 -0.09 444.07 2.13 C444.31 5.1 444.31 5.1 444.31 8.96 C444.31 9.66 444.31 10.36 444.31 11.08 C444.32 13.4 444.31 15.72 444.3 18.05 C444.29 19.65 444.29 21.26 444.29 22.87 C444.29 26.25 444.28 29.62 444.27 32.99 C444.25 37.33 444.25 41.66 444.25 45.99 C444.25 49.32 444.25 52.64 444.24 55.96 C444.23 57.56 444.23 59.16 444.23 60.76 C444.23 62.99 444.22 65.21 444.21 67.44 C444.21 68.71 444.2 69.99 444.2 71.29 C444.07 74.13 444.07 74.13 443.07 75.13 C440.69 75.24 438.34 75.27 435.97 75.26 C435.21 75.27 434.46 75.27 433.68 75.27 C431.11 75.27 428.55 75.27 425.99 75.27 C424.15 75.27 422.3 75.27 420.46 75.28 C415.37 75.28 410.28 75.28 405.19 75.28 C399.71 75.28 394.23 75.29 388.75 75.29 C378 75.3 367.26 75.3 356.51 75.3 C347.78 75.3 339.05 75.3 330.32 75.31 C309.63 75.31 288.94 75.32 268.24 75.32 C267.58 75.32 266.92 75.32 266.23 75.32 C262.88 75.32 259.52 75.32 256.16 75.32 C255.5 75.32 254.83 75.32 254.14 75.32 C252.79 75.32 251.45 75.32 250.1 75.32 C229.11 75.32 208.13 75.33 187.14 75.34 C163.58 75.36 140.03 75.36 116.47 75.36 C103.99 75.36 91.51 75.37 79.03 75.38 C68.4 75.39 57.78 75.39 47.15 75.38 C41.73 75.38 36.3 75.38 30.88 75.39 C25.92 75.39 20.96 75.39 16 75.38 C14.2 75.38 12.39 75.38 10.59 75.39 C8.16 75.4 5.72 75.39 3.29 75.38 C2.58 75.39 1.87 75.39 1.13 75.4 C-3.71 75.36 -3.71 75.36 -5.93 73.13 C-6.18 70.17 -6.18 70.17 -6.18 66.31 C-6.18 65.26 -6.18 65.26 -6.18 64.19 C-6.19 61.87 -6.18 59.55 -6.17 57.22 C-6.16 55.62 -6.16 54.01 -6.16 52.4 C-6.16 49.02 -6.15 45.65 -6.14 42.28 C-6.12 37.94 -6.12 33.61 -6.12 29.28 C-6.12 25.95 -6.11 22.63 -6.11 19.31 C-6.1 17.71 -6.1 16.11 -6.1 14.51 C-6.1 12.28 -6.09 10.06 -6.08 7.83 C-6.08 6.56 -6.07 5.28 -6.07 3.98 C-5.85 -0.72 -4.26 0.02 0 0 Z " fill="#6972E5" transform="translate(507.9349600970745,436.865137308836)"/>
<path d="M0 0 C1.82 -0 1.82 -0 3.68 -0.01 C5.05 -0.01 6.42 -0.01 7.78 -0.01 C9.22 -0.01 10.66 -0.01 12.1 -0.01 C16.07 -0.02 20.04 -0.02 24.01 -0.02 C28.29 -0.02 32.56 -0.02 36.84 -0.03 C45.22 -0.04 53.61 -0.04 61.99 -0.04 C68.8 -0.04 75.61 -0.04 82.42 -0.04 C101.72 -0.05 121.01 -0.06 140.3 -0.06 C141.34 -0.06 142.38 -0.06 143.45 -0.06 C144.5 -0.06 145.54 -0.06 146.61 -0.06 C163.51 -0.06 180.41 -0.07 197.31 -0.08 C214.64 -0.09 231.97 -0.1 249.3 -0.1 C259.04 -0.1 268.78 -0.1 278.51 -0.11 C286.81 -0.12 295.1 -0.12 303.39 -0.12 C307.62 -0.11 311.85 -0.11 316.09 -0.12 C319.96 -0.13 323.83 -0.13 327.7 -0.12 C329.1 -0.12 330.51 -0.12 331.91 -0.13 C333.82 -0.13 335.72 -0.13 337.62 -0.12 C338.68 -0.12 339.74 -0.12 340.83 -0.12 C343.43 0.13 343.43 0.13 346.43 2.13 C345.75 2.63 345.75 2.63 345.04 3.13 C340.37 6.83 336.99 10.95 333.73 15.91 C316.47 42.02 293.54 71.18 261.43 78.02 C242.95 81.27 224.19 81.68 205.47 81.64 C204.33 81.64 204.33 81.64 203.18 81.64 C184.37 81.6 165.6 80.98 146.82 80.11 C134.65 79.54 122.49 79.15 110.31 78.91 C109.5 78.89 108.69 78.87 107.86 78.86 C103.79 78.78 99.73 78.7 95.67 78.62 C70.45 78.14 45.25 77.44 20.04 76.4 C18.78 76.35 17.52 76.31 16.22 76.26 C12.73 76.12 9.24 75.97 5.75 75.81 C4.72 75.77 3.69 75.73 2.64 75.69 C1.71 75.65 0.78 75.61 -0.18 75.56 C-1.38 75.51 -1.38 75.51 -2.62 75.45 C-4.57 75.13 -4.57 75.13 -6.57 73.13 C-6.81 70.16 -6.81 70.16 -6.81 66.31 C-6.81 65.26 -6.81 65.26 -6.81 64.18 C-6.82 61.86 -6.81 59.54 -6.8 57.22 C-6.79 55.61 -6.79 54 -6.79 52.39 C-6.79 49.02 -6.78 45.64 -6.77 42.27 C-6.75 37.94 -6.75 33.6 -6.75 29.27 C-6.75 25.95 -6.75 22.63 -6.74 19.3 C-6.73 17.7 -6.73 16.11 -6.73 14.51 C-6.73 12.28 -6.72 10.05 -6.71 7.82 C-6.71 6.55 -6.7 5.28 -6.7 3.97 C-6.47 -0.96 -4.42 0 0 0 Z " fill="#6973E5" transform="translate(508.56513023376465,611.8713655471802)"/>
<path d="M0 0 C0.99 0.5 0.99 0.5 2 1 C2.32 20.96 2.59 40.92 2.81 60.87 C2.91 70.14 3.02 79.41 3.18 88.68 C3.31 96.75 3.41 104.83 3.48 112.91 C3.52 117.19 3.57 121.46 3.66 125.74 C3.74 129.77 3.78 133.79 3.8 137.82 C3.81 139.3 3.84 140.77 3.88 142.25 C4.17 153.4 4.17 153.4 1.28 157.35 C-0.73 159.11 -2.77 160.53 -5 162 C-6.12 163.11 -7.2 164.26 -8.25 165.44 C-8.77 166.01 -9.28 166.59 -9.81 167.19 C-10.35 167.79 -10.88 168.38 -11.43 169 C-13.28 170.99 -15.13 172.98 -16.99 174.96 C-18.23 176.3 -19.46 177.66 -20.66 179.04 C-31.3 191.13 -41.44 194.8 -56.97 198.1 C-63.98 199.63 -70.89 201.55 -77.82 203.38 C-82.1 204.51 -86.38 205.62 -90.66 206.72 C-92.39 207.17 -94.13 207.62 -95.86 208.07 C-96.72 208.3 -97.59 208.52 -98.48 208.75 C-102.95 209.91 -107.43 211.07 -111.9 212.23 C-120.6 214.49 -129.3 216.75 -138 219 C-139.28 216.87 -140.04 215.53 -139.86 213.01 C-139.68 212.31 -139.5 211.6 -139.31 210.88 C-139.11 210.06 -138.91 209.25 -138.7 208.41 C-138.46 207.53 -138.22 206.65 -137.98 205.74 C-137.74 204.8 -137.5 203.86 -137.26 202.9 C-136.46 199.79 -135.65 196.7 -134.83 193.6 C-134.27 191.45 -133.72 189.29 -133.16 187.14 C-132 182.62 -130.82 178.1 -129.63 173.58 C-128.12 167.8 -126.62 162.02 -125.13 156.23 C-123.98 151.78 -122.82 147.32 -121.67 142.88 C-121.11 140.74 -120.56 138.61 -120.01 136.48 C-119.23 133.49 -118.45 130.51 -117.67 127.52 C-117.33 126.2 -117.33 126.2 -116.98 124.86 C-116.76 124.04 -116.55 123.22 -116.32 122.38 C-116.14 121.67 -115.95 120.97 -115.77 120.24 C-114.02 115.14 -111.59 111.21 -107.94 107.26 C-106.74 105.97 -106.74 105.97 -105.52 104.64 C-101.39 100.31 -97.19 96.05 -92.95 91.82 C-91.98 90.85 -91.01 89.88 -90.04 88.91 C-87.44 86.3 -84.83 83.7 -82.23 81.09 C-79.49 78.36 -76.75 75.62 -74.01 72.88 C-69.43 68.29 -64.84 63.7 -60.24 59.11 C-54.94 53.81 -49.64 48.51 -44.34 43.21 C-39.78 38.64 -35.21 34.07 -30.64 29.51 C-27.92 26.79 -25.2 24.07 -22.48 21.35 C-19.93 18.79 -17.38 16.24 -14.82 13.69 C-13.44 12.31 -12.06 10.93 -10.68 9.54 C-9.85 8.72 -9.03 7.9 -8.18 7.05 C-7.46 6.34 -6.75 5.62 -6.01 4.89 C-4.1 3.09 -2.13 1.53 0 0 Z " fill="#7A8AFC" transform="translate(638,935)"/>
<path d="M0 0 C0.71 -0 1.42 -0 2.15 -0.01 C4.54 -0.01 6.94 -0.01 9.33 -0.01 C11.04 -0.01 12.75 -0.02 14.46 -0.02 C19.12 -0.03 23.78 -0.03 28.43 -0.03 C32.31 -0.03 36.2 -0.04 40.08 -0.04 C49.23 -0.05 58.39 -0.05 67.55 -0.05 C77 -0.05 86.46 -0.06 95.92 -0.08 C104.03 -0.09 112.13 -0.1 120.24 -0.1 C125.09 -0.09 129.94 -0.1 134.78 -0.11 C139.34 -0.12 143.9 -0.12 148.46 -0.11 C150.14 -0.11 151.81 -0.11 153.49 -0.12 C155.77 -0.13 158.05 -0.12 160.33 -0.11 C161.61 -0.11 162.89 -0.11 164.21 -0.12 C167.29 0.13 167.29 0.13 170.29 2.13 C169.8 2.56 169.31 2.98 168.8 3.42 C164.06 7.51 159.54 11.76 155.13 16.2 C154.48 16.85 153.84 17.49 153.18 18.16 C151.15 20.19 149.13 22.22 147.11 24.26 C145.74 25.63 144.37 27 143.01 28.37 C140 31.39 136.99 34.42 133.98 37.44 C132.65 38.78 131.3 40.08 129.93 41.38 C127.48 43.94 125.44 46.53 123.35 49.37 C114.06 61.76 103.33 74.63 87.38 77.34 C73.97 78.9 60.44 78.16 47 77.38 C41.07 77.07 35.15 76.96 29.21 76.82 C20.6 76.59 12 76.31 3.39 75.85 C2.49 75.81 1.6 75.77 0.67 75.73 C-5.47 75.37 -5.47 75.37 -7.71 73.13 C-7.95 70.17 -7.95 70.17 -7.95 66.31 C-7.95 65.26 -7.95 65.26 -7.95 64.19 C-7.96 61.87 -7.95 59.55 -7.94 57.22 C-7.94 55.61 -7.93 54.01 -7.93 52.4 C-7.93 49.02 -7.92 45.65 -7.91 42.28 C-7.89 37.94 -7.89 33.61 -7.89 29.28 C-7.89 25.95 -7.89 22.63 -7.88 19.31 C-7.88 17.71 -7.87 16.11 -7.87 14.51 C-7.87 12.28 -7.86 10.05 -7.85 7.82 C-7.85 6.55 -7.84 5.28 -7.84 3.97 C-7.59 -1.33 -4.69 0.01 0 0 Z " fill="#7989FC" transform="translate(509.7057800292969,786.8662872314453)"/>
<path d="M0 0 C1.7 -0 1.7 -0 3.44 -0.01 C4.7 -0.01 5.96 -0 7.25 -0 C8.57 -0 9.88 -0.01 11.24 -0.01 C14.85 -0.01 18.47 -0.01 22.09 -0.01 C25.87 -0 29.65 -0.01 33.42 -0.01 C39.77 -0.01 46.11 -0.01 52.46 -0 C59.81 0 67.15 0 74.5 -0.01 C80.8 -0.01 87.09 -0.01 93.39 -0.01 C97.15 -0.01 100.92 -0.01 104.68 -0.01 C108.88 -0.01 113.08 -0.01 117.27 -0 C119.16 -0.01 119.16 -0.01 121.08 -0.01 C122.22 -0.01 123.35 -0 124.52 0 C125.52 0 126.51 0 127.53 0 C129.76 0.13 129.76 0.13 130.76 1.13 C130.86 3.22 130.89 5.32 130.89 7.42 C130.89 8.4 130.89 8.4 130.9 9.41 C130.9 11.59 130.9 13.78 130.89 15.96 C130.89 17.47 130.9 18.99 130.9 20.5 C130.9 23.68 130.9 26.86 130.89 30.04 C130.89 34.11 130.89 38.18 130.9 42.25 C130.9 45.38 130.9 48.51 130.9 51.64 C130.89 53.14 130.9 54.64 130.9 56.14 C130.9 58.24 130.9 60.34 130.89 62.45 C130.89 63.64 130.89 64.84 130.89 66.07 C130.78 68.65 130.43 70.67 129.76 73.13 C112.47 73.17 95.18 73.21 77.89 73.23 C69.87 73.24 61.84 73.25 53.81 73.28 C46.82 73.3 39.82 73.31 32.83 73.32 C29.12 73.32 25.41 73.32 21.71 73.34 C17.58 73.35 13.44 73.35 9.31 73.35 C8.08 73.36 6.85 73.37 5.57 73.38 C4.45 73.37 3.33 73.37 2.17 73.37 C1.19 73.37 0.22 73.37 -0.79 73.37 C-3.24 73.13 -3.24 73.13 -6.24 71.13 C-6.61 68.24 -6.61 68.24 -6.6 64.49 C-6.6 63.81 -6.6 63.13 -6.6 62.43 C-6.6 60.17 -6.59 57.91 -6.57 55.65 C-6.56 54.09 -6.56 52.53 -6.56 50.96 C-6.56 47.68 -6.54 44.4 -6.52 41.12 C-6.49 36.91 -6.48 32.7 -6.48 28.49 C-6.47 25.26 -6.46 22.03 -6.45 18.8 C-6.44 17.24 -6.44 15.69 -6.44 14.14 C-6.43 11.97 -6.42 9.8 -6.4 7.63 C-6.39 6.4 -6.39 5.16 -6.38 3.89 C-6.14 -0.85 -4.26 0 0 0 Z " fill="#7989FC" transform="translate(510.2386474609375,613.8730163574219)"/>
<path d="M0 0 C1.7 -0 1.7 -0 3.44 -0.01 C4.7 -0.01 5.96 -0 7.25 -0 C8.57 -0 9.88 -0.01 11.24 -0.01 C14.85 -0.01 18.47 -0.01 22.09 -0.01 C25.87 -0 29.65 -0.01 33.42 -0.01 C39.77 -0.01 46.11 -0.01 52.46 -0 C59.81 0 67.15 0 74.5 -0.01 C80.8 -0.01 87.09 -0.01 93.39 -0.01 C97.15 -0.01 100.92 -0.01 104.68 -0.01 C108.88 -0.01 113.08 -0.01 117.27 -0 C119.16 -0.01 119.16 -0.01 121.08 -0.01 C122.22 -0.01 123.35 -0 124.52 0 C125.52 0 126.51 0 127.53 0 C129.76 0.13 129.76 0.13 130.76 1.13 C130.86 3.22 130.89 5.32 130.89 7.42 C130.89 8.4 130.89 8.4 130.9 9.41 C130.9 11.59 130.9 13.78 130.89 15.96 C130.89 17.47 130.9 18.99 130.9 20.5 C130.9 23.68 130.9 26.86 130.89 30.04 C130.89 34.11 130.89 38.18 130.9 42.25 C130.9 45.38 130.9 48.51 130.9 51.64 C130.89 53.14 130.9 54.64 130.9 56.14 C130.9 58.24 130.9 60.34 130.89 62.45 C130.89 63.64 130.89 64.84 130.89 66.07 C130.78 68.65 130.43 70.67 129.76 73.13 C112.47 73.17 95.18 73.21 77.89 73.23 C69.87 73.24 61.84 73.25 53.81 73.28 C46.82 73.3 39.82 73.31 32.83 73.32 C29.12 73.32 25.41 73.32 21.71 73.34 C17.58 73.35 13.44 73.35 9.31 73.35 C8.08 73.36 6.85 73.37 5.57 73.38 C4.45 73.37 3.33 73.37 2.17 73.37 C1.19 73.37 0.22 73.37 -0.79 73.37 C-3.24 73.13 -3.24 73.13 -6.24 71.13 C-6.61 68.24 -6.61 68.24 -6.6 64.49 C-6.6 63.81 -6.6 63.13 -6.6 62.43 C-6.6 60.17 -6.59 57.91 -6.57 55.65 C-6.56 54.09 -6.56 52.53 -6.56 50.96 C-6.56 47.68 -6.54 44.4 -6.52 41.12 C-6.49 36.91 -6.48 32.7 -6.48 28.49 C-6.47 25.26 -6.46 22.03 -6.45 18.8 C-6.44 17.24 -6.44 15.69 -6.44 14.14 C-6.43 11.97 -6.42 9.8 -6.4 7.63 C-6.39 6.4 -6.39 5.16 -6.38 3.89 C-6.14 -0.85 -4.26 0 0 0 Z " fill="#7989FC" transform="translate(510.2386474609375,438.8730163574219)"/>
<path d="M0 0 C10.49 10.63 16.91 23.62 17.03 38.63 C16.47 52.83 11.87 65.91 1.25 75.81 C-8.52 83.69 -19.72 88.6 -32.31 88.44 C-33.14 88.43 -33.97 88.42 -34.82 88.41 C-49.89 88 -62.53 80.6 -73 70 C-81.47 59.83 -83.91 46 -83.23 33.18 C-82.22 23.51 -77.94 14.58 -72 7 C-70.92 5.45 -70.92 5.45 -69.81 3.88 C-62.51 -4.5 -49.8 -10.06 -39 -11.88 C-24.97 -12.82 -10.79 -9.36 0 0 Z " fill="#7A8AFD" transform="translate(410,786)"/>
<path d="M0 0 C10.49 10.63 16.91 23.62 17.03 38.63 C16.47 52.83 11.87 65.91 1.25 75.81 C-8.52 83.69 -19.72 88.6 -32.31 88.44 C-33.14 88.43 -33.97 88.42 -34.82 88.41 C-49.89 88 -62.53 80.6 -73 70 C-81.47 59.83 -83.91 46 -83.23 33.18 C-82.22 23.51 -77.94 14.58 -72 7 C-70.92 5.45 -70.92 5.45 -69.81 3.88 C-62.51 -4.5 -49.8 -10.06 -39 -11.88 C-24.97 -12.82 -10.79 -9.36 0 0 Z " fill="#7A8AFD" transform="translate(410,611)"/>
<path d="M0 0 C10.49 10.63 16.91 23.62 17.03 38.63 C16.47 52.83 11.87 65.91 1.25 75.81 C-8.52 83.69 -19.72 88.6 -32.31 88.44 C-33.14 88.43 -33.97 88.42 -34.82 88.41 C-49.89 88 -62.53 80.6 -73 70 C-81.47 59.83 -83.91 46 -83.23 33.18 C-82.22 23.51 -77.94 14.58 -72 7 C-70.92 5.45 -70.92 5.45 -69.81 3.88 C-62.51 -4.5 -49.8 -10.06 -39 -11.88 C-24.97 -12.82 -10.79 -9.36 0 0 Z " fill="#7A8AFD" transform="translate(410,436)"/>
<path d="M0 0 C0.66 0.66 1.32 1.32 2 2 C-86.77 90.77 -175.54 179.54 -267 271 C-267.66 270.34 -268.32 269.68 -269 269 C-180.23 180.23 -91.46 91.46 0 0 Z " fill="#5E68DF" transform="translate(919,653)"/>
<path d="M0 0 C-12.67 12.67 -25.33 25.33 -38 38 C-40.49 34.26 -40.25 31.37 -40.2 27.05 C-40.19 26.28 -40.19 25.51 -40.19 24.71 C-40.18 22.24 -40.15 19.78 -40.12 17.31 C-40.11 15.64 -40.11 13.97 -40.1 12.29 C-40.08 8.2 -40.04 4.1 -40 0 C-35.43 -0.17 -30.86 -0.33 -26.29 -0.48 C-24.73 -0.54 -23.18 -0.59 -21.63 -0.65 C-19.39 -0.73 -17.14 -0.81 -14.9 -0.88 C-13.87 -0.92 -13.87 -0.92 -12.82 -0.96 C-8.4 -1.1 -4.35 -0.73 0 0 Z " fill="#6770E4" transform="translate(680,788)"/>
<path d="M0 0 C0.71 0 1.42 0.01 2.16 0.01 C2.91 0.01 3.66 0.01 4.44 0 C6.99 0 9.54 0.01 12.1 0.01 C13.93 0.01 15.77 0.01 17.61 0.01 C22.68 0.01 27.75 0.01 32.82 0.01 C38.28 0.02 43.74 0.02 49.2 0.02 C58.67 0.02 68.13 0.02 77.6 0.03 C91.29 0.03 104.98 0.04 118.67 0.04 C140.87 0.04 163.08 0.05 185.28 0.06 C206.86 0.06 228.44 0.07 250.01 0.08 C251.01 0.08 251.01 0.08 252.03 0.08 C259.37 0.08 266.7 0.08 274.04 0.08 C329.39 0.09 384.74 0.11 440.08 0.13 C440.08 0.46 440.08 0.79 440.08 1.13 C439.18 1.13 439.18 1.13 438.26 1.14 C401.93 1.24 365.6 1.35 329.26 1.46 C324.81 1.48 320.36 1.49 315.91 1.5 C315.02 1.51 314.14 1.51 313.22 1.51 C300.96 1.55 288.69 1.59 276.42 1.62 C255.16 1.68 233.9 1.75 212.64 1.81 C211.38 1.82 211.38 1.82 210.1 1.82 C139.09 2.05 68.09 2.53 -2.92 3.13 C-2.92 4.74 -2.93 6.34 -2.93 7.95 C-2.94 9.38 -2.94 10.82 -2.95 12.26 C-2.96 16.23 -2.98 20.21 -2.99 24.19 C-3.02 31.69 -3.05 39.19 -3.09 46.69 C-3.1 49.64 -3.11 52.59 -3.11 55.53 C-3.11 56.99 -3.12 58.44 -3.13 59.89 C-3.14 62.09 -3.15 64.28 -3.14 66.48 C-3.15 67.72 -3.15 68.96 -3.16 70.23 C-3.22 73.26 -3.22 73.26 -0.92 75.13 C-4.79 74.26 -4.79 74.26 -5.92 73.13 C-6.02 70.9 -6.05 68.66 -6.05 66.42 C-6.05 65.72 -6.05 65.02 -6.05 64.3 C-6.06 61.97 -6.05 59.65 -6.05 57.32 C-6.05 55.71 -6.05 54.1 -6.05 52.49 C-6.05 49.11 -6.05 45.73 -6.05 42.35 C-6.04 38.01 -6.05 33.67 -6.05 29.32 C-6.05 26 -6.05 22.67 -6.05 19.34 C-6.05 17.74 -6.05 16.14 -6.05 14.54 C-6.06 12.31 -6.05 10.07 -6.05 7.84 C-6.05 6.56 -6.05 5.29 -6.04 3.98 C-5.83 -0.72 -4.26 0.01 0 0 Z " fill="#6F7AEC" transform="translate(507.9173028767109,436.8689915239811)"/>
<path d="M0 0 C1.57 0 1.57 0 3.17 0 C4.98 -0 4.98 -0 6.82 -0 C8.18 -0 9.53 0 10.88 0 C12.31 0 13.73 0 15.15 0 C19.08 -0 23.02 0 26.95 0.01 C31.18 0.01 35.41 0.01 39.64 0.01 C46.98 0.01 54.32 0.01 61.66 0.02 C72.27 0.03 82.88 0.03 93.5 0.03 C110.71 0.03 127.92 0.04 145.14 0.05 C161.87 0.06 178.59 0.07 195.32 0.07 C196.35 0.07 197.38 0.07 198.44 0.07 C203.61 0.07 208.78 0.07 213.95 0.07 C256.85 0.08 299.76 0.1 342.66 0.12 C342.66 0.45 342.66 0.78 342.66 1.12 C341.72 1.13 340.77 1.13 339.79 1.14 C308.9 1.28 278 1.42 247.1 1.56 C245.92 1.57 244.74 1.57 243.53 1.58 C180.41 1.87 117.28 2.2 54.16 2.69 C53.45 2.69 52.73 2.7 51.99 2.7 C34.55 2.84 17.1 2.98 -0.34 3.12 C-0.38 12.22 -0.42 21.31 -0.44 30.4 C-0.45 34.62 -0.46 38.84 -0.49 43.07 C-0.51 47.14 -0.52 51.21 -0.53 55.28 C-0.53 56.84 -0.54 58.39 -0.55 59.95 C-0.56 62.12 -0.56 64.3 -0.56 66.47 C-0.57 67.71 -0.57 68.95 -0.58 70.23 C-0.64 73.25 -0.64 73.25 1.66 75.12 C-2.21 74.25 -2.21 74.25 -3.34 73.12 C-3.44 70.89 -3.46 68.65 -3.47 66.42 C-3.47 65.72 -3.47 65.02 -3.47 64.29 C-3.48 61.97 -3.47 59.64 -3.47 57.31 C-3.47 55.7 -3.47 54.09 -3.47 52.48 C-3.47 49.1 -3.47 45.72 -3.47 42.34 C-3.46 38 -3.46 33.66 -3.47 29.32 C-3.47 25.99 -3.47 22.66 -3.47 19.34 C-3.47 17.74 -3.47 16.13 -3.47 14.53 C-3.48 12.3 -3.47 10.07 -3.47 7.83 C-3.46 6.56 -3.46 5.28 -3.46 3.97 C-3.29 0.18 -3.29 0.18 0 0 Z " fill="#6F7BED" transform="translate(505.336348593235,611.8758015036583)"/>
<path d="M0 0 C1.25 0 2.51 0 3.8 0 C4.49 0 5.19 0 5.9 0 C8.25 -0 10.59 0 12.94 0.01 C14.62 0.01 16.29 0.01 17.97 0.01 C22.53 0.01 27.09 0.01 31.65 0.02 C36.41 0.03 41.18 0.03 45.94 0.03 C54.96 0.03 63.99 0.04 73.01 0.05 C83.28 0.06 93.55 0.07 103.82 0.07 C124.95 0.08 146.09 0.1 167.22 0.12 C167.22 0.45 167.22 0.78 167.22 1.12 C146.02 1.86 124.83 2.3 103.62 2.43 C99.92 2.45 96.22 2.48 92.53 2.5 C85.59 2.55 78.66 2.6 71.72 2.64 C63.8 2.69 55.87 2.75 47.95 2.8 C31.71 2.91 15.46 3.02 -0.78 3.12 C-0.82 12.22 -0.86 21.31 -0.88 30.4 C-0.89 34.62 -0.91 38.84 -0.93 43.06 C-0.95 47.14 -0.96 51.21 -0.97 55.28 C-0.97 56.84 -0.98 58.39 -0.99 59.95 C-1 62.12 -1.01 64.3 -1.01 66.47 C-1.01 67.71 -1.01 68.95 -1.02 70.23 C-1.08 73.25 -1.08 73.25 1.22 75.12 C-2.65 74.25 -2.65 74.25 -3.78 73.12 C-3.88 70.89 -3.91 68.65 -3.91 66.42 C-3.91 65.72 -3.91 65.01 -3.91 64.29 C-3.92 61.97 -3.91 59.64 -3.91 57.31 C-3.91 55.7 -3.91 54.09 -3.91 52.48 C-3.92 49.1 -3.91 45.72 -3.91 42.34 C-3.9 38 -3.91 33.66 -3.91 29.32 C-3.92 25.99 -3.91 22.66 -3.91 19.34 C-3.91 17.73 -3.91 16.13 -3.91 14.53 C-3.92 12.3 -3.91 10.06 -3.91 7.83 C-3.91 6.56 -3.91 5.28 -3.9 3.97 C-3.74 0.17 -3.74 0.17 0 0 Z " fill="#717DF0" transform="translate(505.778000831604,786.8769521713257)"/>
<path d="M0 0 C0.33 0 0.66 0 1 0 C1 86.13 1 172.26 1 261 C0.67 261 0.34 261 0 261 C0 174.87 0 88.74 0 0 Z " fill="#FAFDFF" transform="translate(1152,0)"/>
<path d="M0 0 C0.66 0 1.32 0 2 0 C2.23 3.96 2.43 7.92 2.62 11.88 C2.69 13 2.75 14.13 2.82 15.29 C2.87 16.37 2.92 17.45 2.98 18.55 C3.03 19.55 3.08 20.54 3.14 21.57 C3 24 3 24 1 26 C-0.02 22.94 -0.12 20.88 -0.1 17.68 C-0.09 16.65 -0.09 15.62 -0.09 14.56 C-0.08 13.49 -0.07 12.42 -0.06 11.31 C-0.06 10.23 -0.05 9.15 -0.05 8.03 C-0.04 5.35 -0.02 2.68 0 0 Z " fill="#5863DD" transform="translate(640,1063)"/>
<path d="" fill="#E4F7FD" transform="translate(0,0)"/>
</svg>
