<?xml version="1.0" encoding="UTF-8" standalone="no"?>
<!DOCTYPE svg PUBLIC "-//W3C//DTD SVG 1.1//EN" "http://www.w3.org/Graphics/SVG/1.1/DTD/svg11.dtd">
<svg xmlns="http://www.w3.org/2000/svg" version="1.1" viewBox="0.00 0.00 1000.00 1000.00">
<g stroke-width="2.00" fill="none" stroke-linecap="butt">
<path stroke="#25b3c3" vector-effect="non-scaling-stroke" d="
  M 897.90 269.40
  L 500.82 40.15
  A 1.75 1.75 0.0 0 0 499.08 40.15
  Q 294.15 158.66 103.18 268.67
  C 101.73 269.50 101.35 270.49 101.35 272.26
  Q 101.34 292.26 101.42 438.50
  Q 101.56 728.49 101.47 728.96
  A 1.85 1.72 19.6 0 0 102.45 730.84
  Q 107.26 733.33 288.43 838.38
  Q 305.86 848.48 326.16 860.11
  Q 412.87 909.77 499.15 959.91
  A 1.54 1.54 0.0 0 0 500.71 959.91
  L 897.69 730.71
  A 2.10 1.84 76.8 0 0 898.61 728.97
  L 898.62 270.58
  Q 898.62 269.81 897.90 269.40"
/>
<path stroke="#25b3c3" vector-effect="non-scaling-stroke" d="
  M 329.71 288.46
  A 1.29 1.29 0.0 0 1 329.71 286.22
  L 584.78 138.92
  A 1.33 1.33 0.0 0 0 584.78 136.62
  L 502.11 88.80
  A 4.15 4.15 0.0 0 0 497.97 88.80
  L 156.01 286.23
  A 1.28 1.27 -39.3 0 0 155.80 288.29
  Q 156.25 288.70 157.23 289.26
  Q 263.11 349.88 369.61 410.92
  A 3.62 3.59 -44.9 0 0 373.22 410.91
  L 628.98 263.24
  A 2.43 2.42 -44.8 0 1 631.39 263.24
  Q 652.73 275.53 671.15 286.24
  A 1.82 1.75 13.6 0 1 672.04 287.64
  Q 672.08 288.03 671.41 288.41
  Q 565.14 349.84 458.81 411.16
  C 446.45 418.28 431.36 427.29 417.34 435.07
  Q 416.16 435.73 415.91 436.60
  Q 415.70 437.32 416.35 437.69
  L 499.63 485.40
  A 3.37 3.36 -45.1 0 0 502.97 485.39
  L 843.99 288.50
  A 1.32 1.32 0.0 0 0 843.99 286.21
  L 631.66 163.66
  A 3.40 3.40 0.0 0 0 628.26 163.66
  L 372.56 311.31
  A 3.06 3.05 44.7 0 1 369.53 311.32
  Q 349.42 299.91 329.71 288.46"
/>
<path stroke="#25b3c3" vector-effect="non-scaling-stroke" d="
  M 225.67 613.41
  A 0.92 0.92 0.0 0 1 227.00 612.92
  Q 363.05 691.84 482.93 761.43
  Q 483.49 761.75 484.13 761.75
  A 1.06 1.06 0.0 0 0 485.18 760.69
  Q 485.24 716.25 485.22 667.44
  C 485.22 664.05 485.66 662.91 482.83 661.28
  Q 368.04 594.95 252.16 527.77
  Q 239.80 520.60 226.69 512.94
  A 2.60 2.58 -75.2 0 1 225.41 510.72
  Q 225.33 488.96 225.45 464.66
  Q 225.45 464.06 225.98 463.69
  A 1.04 1.04 0.0 0 1 227.09 463.65
  L 482.79 611.58
  Q 484.67 612.66 485.15 610.55
  Q 485.23 610.21 485.23 609.83
  Q 485.19 557.71 485.24 514.90
  A 3.30 3.29 14.9 0 0 483.58 512.04
  Q 312.39 413.19 141.31 314.43
  Q 140.36 313.88 139.57 314.61
  A 1.14 1.11 69.4 0 0 139.21 315.44
  L 139.20 709.51
  A 2.80 2.80 0.0 0 0 140.59 711.93
  Q 181.59 735.91 223.31 760.18
  Q 224.45 760.84 224.95 760.18
  A 2.60 2.38 65.6 0 0 225.44 758.67
  Q 225.39 687.35 225.40 615.05
  Q 225.40 614.19 225.67 613.41"
/>
<path stroke="#25b3c3" vector-effect="non-scaling-stroke" d="
  M 525.36 906.39
  Q 560.69 885.86 600.47 862.52
  A 2.59 2.58 74.8 0 0 601.74 860.29
  L 601.74 763.53
  A 2.40 2.39 -14.9 0 1 602.95 761.45
  L 859.02 612.75
  A 3.52 3.50 75.1 0 0 860.77 609.71
  Q 860.76 462.91 860.77 315.28
  Q 860.77 314.19 859.54 314.20
  A 1.75 1.66 -58.7 0 0 858.69 314.43
  L 516.25 512.12
  A 2.94 2.93 -15.1 0 0 514.78 514.66
  L 514.79 910.22
  A 1.03 1.02 -75.8 0 0 515.32 911.12
  Q 516.14 911.57 517.22 910.98
  Q 521.29 908.75 525.36 906.39"
/>
<path stroke="#ff0044" vector-effect="non-scaling-stroke" d="
  M 774.15 562.70
  A 1.56 1.56 0.0 0 0 774.93 561.35
  L 774.97 464.92
  A 1.56 1.56 0.0 0 0 772.63 463.57
  L 602.00 562.04
  A 1.56 1.56 0.0 0 0 601.22 563.39
  L 601.50 660.06
  A 1.56 1.56 0.0 0 0 603.84 661.41
  L 774.15 562.70"
/>
</g>
<path fill="#000000" d="
  M 930.73 750.04
  L 500.48 998.47
  A 1.12 1.03 -43.6 0 1 499.42 998.49
  C 440.14 964.02 380.89 930.06 321.70 895.73
  Q 314.17 891.36 304.33 885.82
  Q 289.06 877.20 273.90 868.41
  Q 113.67 775.50 69.06 749.98
  A 2.41 2.35 16.2 0 1 67.85 747.84
  Q 67.92 746.14 67.82 448.75
  Q 67.79 350.25 67.88 252.06
  A 2.35 2.33 75.2 0 1 69.04 250.05
  L 499.50 1.54
  A 1.02 1.01 44.5 0 1 500.51 1.54
  L 930.98 250.07
  A 2.78 2.77 -74.8 0 1 932.37 252.51
  Q 932.32 257.14 932.31 261.50
  Q 931.90 469.50 932.18 747.52
  A 2.92 2.91 75.0 0 1 930.73 750.04
  Z
  M 897.90 269.40
  L 500.82 40.15
  A 1.75 1.75 0.0 0 0 499.08 40.15
  Q 294.15 158.66 103.18 268.67
  C 101.73 269.50 101.35 270.49 101.35 272.26
  Q 101.34 292.26 101.42 438.50
  Q 101.56 728.49 101.47 728.96
  A 1.85 1.72 19.6 0 0 102.45 730.84
  Q 107.26 733.33 288.43 838.38
  Q 305.86 848.48 326.16 860.11
  Q 412.87 909.77 499.15 959.91
  A 1.54 1.54 0.0 0 0 500.71 959.91
  L 897.69 730.71
  A 2.10 1.84 76.8 0 0 898.61 728.97
  L 898.62 270.58
  Q 898.62 269.81 897.90 269.40
  Z"
/>
<path fill="#25b3c3" d="
  M 500.82 40.15
  L 897.90 269.40
  Q 898.62 269.81 898.62 270.58
  L 898.61 728.97
  A 2.10 1.84 76.8 0 1 897.69 730.71
  L 500.71 959.91
  A 1.54 1.54 0.0 0 1 499.15 959.91
  Q 412.87 909.77 326.16 860.11
  Q 305.86 848.48 288.43 838.38
  Q 107.26 733.33 102.45 730.84
  A 1.85 1.72 19.6 0 1 101.47 728.96
  Q 101.56 728.49 101.42 438.50
  Q 101.34 292.26 101.35 272.26
  C 101.35 270.49 101.73 269.50 103.18 268.67
  Q 294.15 158.66 499.08 40.15
  A 1.75 1.75 0.0 0 1 500.82 40.15
  Z
  M 329.71 288.46
  A 1.29 1.29 0.0 0 1 329.71 286.22
  L 584.78 138.92
  A 1.33 1.33 0.0 0 0 584.78 136.62
  L 502.11 88.80
  A 4.15 4.15 0.0 0 0 497.97 88.80
  L 156.01 286.23
  A 1.28 1.27 -39.3 0 0 155.80 288.29
  Q 156.25 288.70 157.23 289.26
  Q 263.11 349.88 369.61 410.92
  A 3.62 3.59 -44.9 0 0 373.22 410.91
  L 628.98 263.24
  A 2.43 2.42 -44.8 0 1 631.39 263.24
  Q 652.73 275.53 671.15 286.24
  A 1.82 1.75 13.6 0 1 672.04 287.64
  Q 672.08 288.03 671.41 288.41
  Q 565.14 349.84 458.81 411.16
  C 446.45 418.28 431.36 427.29 417.34 435.07
  Q 416.16 435.73 415.91 436.60
  Q 415.70 437.32 416.35 437.69
  L 499.63 485.40
  A 3.37 3.36 -45.1 0 0 502.97 485.39
  L 843.99 288.50
  A 1.32 1.32 0.0 0 0 843.99 286.21
  L 631.66 163.66
  A 3.40 3.40 0.0 0 0 628.26 163.66
  L 372.56 311.31
  A 3.06 3.05 44.7 0 1 369.53 311.32
  Q 349.42 299.91 329.71 288.46
  Z
  M 225.67 613.41
  A 0.92 0.92 0.0 0 1 227.00 612.92
  Q 363.05 691.84 482.93 761.43
  Q 483.49 761.75 484.13 761.75
  A 1.06 1.06 0.0 0 0 485.18 760.69
  Q 485.24 716.25 485.22 667.44
  C 485.22 664.05 485.66 662.91 482.83 661.28
  Q 368.04 594.95 252.16 527.77
  Q 239.80 520.60 226.69 512.94
  A 2.60 2.58 -75.2 0 1 225.41 510.72
  Q 225.33 488.96 225.45 464.66
  Q 225.45 464.06 225.98 463.69
  A 1.04 1.04 0.0 0 1 227.09 463.65
  L 482.79 611.58
  Q 484.67 612.66 485.15 610.55
  Q 485.23 610.21 485.23 609.83
  Q 485.19 557.71 485.24 514.90
  A 3.30 3.29 14.9 0 0 483.58 512.04
  Q 312.39 413.19 141.31 314.43
  Q 140.36 313.88 139.57 314.61
  A 1.14 1.11 69.4 0 0 139.21 315.44
  L 139.20 709.51
  A 2.80 2.80 0.0 0 0 140.59 711.93
  Q 181.59 735.91 223.31 760.18
  Q 224.45 760.84 224.95 760.18
  A 2.60 2.38 65.6 0 0 225.44 758.67
  Q 225.39 687.35 225.40 615.05
  Q 225.40 614.19 225.67 613.41
  Z
  M 525.36 906.39
  Q 560.69 885.86 600.47 862.52
  A 2.59 2.58 74.8 0 0 601.74 860.29
  L 601.74 763.53
  A 2.40 2.39 -14.9 0 1 602.95 761.45
  L 859.02 612.75
  A 3.52 3.50 75.1 0 0 860.77 609.71
  Q 860.76 462.91 860.77 315.28
  Q 860.77 314.19 859.54 314.20
  A 1.75 1.66 -58.7 0 0 858.69 314.43
  L 516.25 512.12
  A 2.94 2.93 -15.1 0 0 514.78 514.66
  L 514.79 910.22
  A 1.03 1.02 -75.8 0 0 515.32 911.12
  Q 516.14 911.57 517.22 910.98
  Q 521.29 908.75 525.36 906.39
  Z"
/>
<path fill="#000000" d="
  M 329.71 288.46
  Q 349.42 299.91 369.53 311.32
  A 3.06 3.05 44.7 0 0 372.56 311.31
  L 628.26 163.66
  A 3.40 3.40 0.0 0 1 631.66 163.66
  L 843.99 286.21
  A 1.32 1.32 0.0 0 1 843.99 288.50
  L 502.97 485.39
  A 3.37 3.36 -45.1 0 1 499.63 485.40
  L 416.35 437.69
  Q 415.70 437.32 415.91 436.60
  Q 416.16 435.73 417.34 435.07
  C 431.36 427.29 446.45 418.28 458.81 411.16
  Q 565.14 349.84 671.41 288.41
  Q 672.08 288.03 672.04 287.64
  A 1.82 1.75 13.6 0 0 671.15 286.24
  Q 652.73 275.53 631.39 263.24
  A 2.43 2.42 -44.8 0 0 628.98 263.24
  L 373.22 410.91
  A 3.62 3.59 -44.9 0 1 369.61 410.92
  Q 263.11 349.88 157.23 289.26
  Q 156.25 288.70 155.80 288.29
  A 1.28 1.27 -39.3 0 1 156.01 286.23
  L 497.97 88.80
  A 4.15 4.15 0.0 0 1 502.11 88.80
  L 584.78 136.62
  A 1.33 1.33 0.0 0 1 584.78 138.92
  L 329.71 286.22
  A 1.29 1.29 0.0 0 0 329.71 288.46
  Z"
/>
<path fill="#000000" d="
  M 225.67 613.41
  Q 225.40 614.19 225.40 615.05
  Q 225.39 687.35 225.44 758.67
  A 2.60 2.38 65.6 0 1 224.95 760.18
  Q 224.45 760.84 223.31 760.18
  Q 181.59 735.91 140.59 711.93
  A 2.80 2.80 0.0 0 1 139.20 709.51
  L 139.21 315.44
  A 1.14 1.11 69.4 0 1 139.57 314.61
  Q 140.36 313.88 141.31 314.43
  Q 312.39 413.19 483.58 512.04
  A 3.30 3.29 14.9 0 1 485.24 514.90
  Q 485.19 557.71 485.23 609.83
  Q 485.23 610.21 485.15 610.55
  Q 484.67 612.66 482.79 611.58
  L 227.09 463.65
  A 1.04 1.04 0.0 0 0 225.98 463.69
  Q 225.45 464.06 225.45 464.66
  Q 225.33 488.96 225.41 510.72
  A 2.60 2.58 -75.2 0 0 226.69 512.94
  Q 239.80 520.60 252.16 527.77
  Q 368.04 594.95 482.83 661.28
  C 485.66 662.91 485.22 664.05 485.22 667.44
  Q 485.24 716.25 485.18 760.69
  A 1.06 1.06 0.0 0 1 484.13 761.75
  Q 483.49 761.75 482.93 761.43
  Q 363.05 691.84 227.00 612.92
  A 0.92 0.92 0.0 0 0 225.67 613.41
  Z"
/>
<path fill="#000000" d="
  M 525.36 906.39
  Q 521.29 908.75 517.22 910.98
  Q 516.14 911.57 515.32 911.12
  A 1.03 1.02 -75.8 0 1 514.79 910.22
  L 514.78 514.66
  A 2.94 2.93 -15.1 0 1 516.25 512.12
  L 858.69 314.43
  A 1.75 1.66 -58.7 0 1 859.54 314.20
  Q 860.77 314.19 860.77 315.28
  Q 860.76 462.91 860.77 609.71
  A 3.52 3.50 75.1 0 1 859.02 612.75
  L 602.95 761.45
  A 2.40 2.39 -14.9 0 0 601.74 763.53
  L 601.74 860.29
  A 2.59 2.58 74.8 0 1 600.47 862.52
  Q 560.69 885.86 525.36 906.39
  Z
  M 774.15 562.70
  A 1.56 1.56 0.0 0 0 774.93 561.35
  L 774.97 464.92
  A 1.56 1.56 0.0 0 0 772.63 463.57
  L 602.00 562.04
  A 1.56 1.56 0.0 0 0 601.22 563.39
  L 601.50 660.06
  A 1.56 1.56 0.0 0 0 603.84 661.41
  L 774.15 562.70
  Z"
/>
<path fill="#ff0044" d="
  M 774.15 562.70
  L 603.84 661.41
  A 1.56 1.56 0.0 0 1 601.50 660.06
  L 601.22 563.39
  A 1.56 1.56 0.0 0 1 602.00 562.04
  L 772.63 463.57
  A 1.56 1.56 0.0 0 1 774.97 464.92
  L 774.93 561.35
  A 1.56 1.56 0.0 0 1 774.15 562.70
  Z"
/>
</svg>
