<?xml version="1.0" encoding="UTF-8" standalone="no"?>
<!DOCTYPE svg PUBLIC "-//W3C//DTD SVG 1.1//EN" "http://www.w3.org/Graphics/SVG/1.1/DTD/svg11.dtd">
<svg xmlns="http://www.w3.org/2000/svg" version="1.1" viewBox="0.00 0.00 512.00 512.00">
<path fill="#ff0044" d="
  M 96.01 0.00
  L 105.00 0.00
  Q 118.01 1.50 128.67 8.11
  Q 134.68 11.85 142.25 19.49
  Q 174.99 52.58 206.32 83.67
  Q 220.88 98.12 221.60 118.18
  Q 221.80 123.66 220.71 128.65
  Q 215.03 154.62 190.51 163.77
  Q 188.62 164.47 186.82 165.23
  Q 170.95 171.89 162.52 186.96
  Q 159.45 192.47 157.97 198.97
  Q 155.72 208.86 158.61 219.27
  Q 162.16 232.06 166.61 241.43
  Q 174.45 257.91 186.07 273.30
  C 206.24 300.01 232.28 323.90 261.65 340.37
  Q 275.80 348.29 291.05 352.42
  Q 293.06 352.96 294.95 353.05
  C 297.50 353.17 299.93 353.81 302.49 353.48
  C 305.40 353.10 308.11 353.31 311.04 352.68
  Q 332.72 348.02 343.47 330.14
  Q 345.89 326.12 347.71 320.95
  C 354.90 300.44 374.43 288.46 396.00 290.04
  Q 413.91 291.34 427.32 304.74
  Q 462.97 340.37 497.46 374.92
  Q 504.34 381.81 508.22 391.13
  Q 508.87 392.70 509.28 394.38
  C 509.96 397.24 511.06 399.70 511.03 402.71
  C 511.01 405.05 511.76 407.15 511.66 409.53
  Q 511.01 425.27 503.65 437.16
  Q 499.65 443.61 493.11 450.09
  Q 470.85 472.11 451.14 491.94
  Q 436.52 506.66 416.08 510.36
  Q 410.66 511.35 405.13 512.00
  L 387.17 512.00
  Q 371.45 510.04 360.31 507.37
  Q 343.22 503.26 322.37 494.90
  Q 316.33 492.48 302.36 485.86
  Q 281.92 476.17 257.44 460.81
  Q 234.91 446.66 211.67 428.55
  Q 185.62 408.24 166.35 390.31
  C 149.25 374.41 132.61 357.96 117.02 340.54
  Q 98.70 320.08 83.86 300.80
  Q 65.53 277.00 51.08 253.81
  Q 36.80 230.90 26.58 209.48
  Q 23.39 202.80 20.23 195.54
  C 16.82 187.69 14.03 179.92 11.25 171.96
  C 8.94 165.35 7.22 158.47 5.40 151.73
  Q 4.60 148.77 4.07 145.53
  Q 3.57 142.48 2.89 139.28
  Q 1.89 134.56 1.39 130.21
  Q 0.90 125.89 0.50 120.66
  Q -0.08 113.17 0.61 106.84
  Q 0.97 103.49 1.18 100.30
  Q 1.27 98.94 1.58 97.55
  Q 1.93 95.97 2.22 94.37
  Q 4.70 80.76 12.00 69.55
  Q 15.73 63.83 24.75 55.01
  Q 42.08 38.08 60.59 19.16
  Q 69.13 10.44 75.22 6.77
  Q 84.61 1.13 96.01 0.00
  Z"
/>
</svg>
