<?xml version="1.0" encoding="UTF-8" standalone="no"?>
<!DOCTYPE svg PUBLIC "-//W3C//DTD SVG 1.1//EN" "http://www.w3.org/Graphics/SVG/1.1/DTD/svg11.dtd">
<svg xmlns="http://www.w3.org/2000/svg" version="1.1" viewBox="0.00 0.00 380.00 334.00">
<path fill="#25b3c3" d="
  M 169.79 280.35
  A 0.18 0.18 0.0 0 0 169.64 280.62
  Q 173.27 286.66 177.10 293.08
  Q 179.68 297.40 176.21 300.91
  Q 164.14 313.12 151.26 325.78
  Q 142.66 334.24 131.70 333.19
  C 123.55 332.40 118.54 327.54 113.04 322.03
  Q 86.45 295.37 59.00 268.13
  Q 49.30 258.50 45.80 253.40
  Q 36.27 239.50 35.65 222.05
  Q 35.59 220.38 35.55 218.64
  Q 35.54 218.09 35.14 217.69
  L 22.28 204.83
  A 5.26 5.26 0.0 0 1 20.74 201.11
  L 20.74 180.02
  A 0.59 0.58 23.8 0 0 20.58 179.62
  Q 12.96 171.84 3.68 162.79
  Q 1.03 160.21 0.47 158.42
  Q -0.78 154.40 2.74 151.90
  C 5.72 149.77 8.73 151.05 11.04 153.38
  Q 21.23 163.67 30.48 172.85
  Q 32.49 174.85 32.50 177.71
  Q 32.51 187.70 32.49 197.75
  Q 32.49 198.43 32.97 198.91
  L 37.21 203.13
  Q 37.69 203.61 37.93 202.98
  Q 41.77 192.79 47.90 180.62
  C 50.49 175.49 55.66 177.82 59.71 178.80
  C 80.90 183.92 103.55 174.69 116.94 157.78
  C 136.49 133.10 133.57 95.76 108.35 75.92
  C 105.55 73.72 105.78 70.57 107.17 67.65
  Q 114.30 52.75 120.71 38.97
  Q 120.92 38.52 120.56 38.16
  L 115.84 33.42
  A 1.41 1.40 67.0 0 0 114.86 33.02
  Q 104.79 33.03 94.53 33.02
  Q 91.87 33.02 89.87 31.01
  Q 81.01 22.09 70.27 11.49
  C 63.81 5.13 72.22 -3.13 77.89 2.48
  Q 86.97 11.46 96.33 20.90
  A 1.26 1.25 67.3 0 0 97.22 21.27
  Q 105.90 21.24 115.19 21.28
  C 118.26 21.29 120.28 21.14 122.57 23.51
  Q 124.12 25.13 125.77 26.76
  Q 126.27 27.26 126.56 26.61
  Q 128.28 22.80 130.24 18.83
  C 132.15 14.98 135.90 15.17 139.63 15.82
  C 176.66 22.29 206.94 43.93 220.87 79.21
  C 230.14 102.69 231.39 129.69 228.15 154.86
  C 226.92 164.39 224.23 176.45 218.73 183.94
  C 212.40 192.55 210.07 203.21 212.10 213.50
  Q 213.09 218.53 216.62 226.02
  C 221.47 236.31 232.88 260.00 210.21 259.77
  Q 202.86 259.70 195.13 259.75
  Q 194.52 259.75 194.48 260.37
  Q 194.31 262.98 194.42 265.84
  C 194.79 275.14 189.71 280.69 180.25 280.34
  Q 175.10 280.15 169.79 280.35
  Z
  M 161.18 268.49
  Q 171.80 268.59 182.01 268.51
  Q 182.55 268.50 182.56 267.97
  C 182.84 259.91 181.62 252.93 190.57 248.88
  Q 192.87 247.84 200.81 247.94
  Q 206.22 248.01 211.49 247.95
  Q 212.17 247.94 212.07 247.26
  Q 211.66 244.54 210.61 241.83
  C 208.07 235.27 204.64 228.49 202.47 222.29
  Q 194.52 199.55 208.17 178.67
  Q 210.74 174.74 212.09 171.32
  Q 215.38 162.97 216.66 152.29
  C 221.72 109.95 213.48 64.39 174.35 40.48
  Q 158.48 30.79 139.37 27.65
  A 0.45 0.44 16.7 0 0 138.90 27.90
  L 119.46 69.21
  Q 119.24 69.69 119.62 70.04
  C 146.64 95.58 148.65 137.83 125.17 166.24
  C 109.00 185.81 82.48 196.36 56.92 190.21
  Q 56.39 190.08 56.15 190.58
  Q 54.34 194.45 52.64 197.91
  Q 42.41 218.77 51.46 239.68
  Q 54.60 246.94 59.99 252.35
  Q 91.95 284.45 125.29 317.64
  Q 130.40 322.73 136.93 321.20
  C 140.56 320.34 144.25 316.39 147.01 313.62
  Q 155.73 304.88 164.64 295.95
  Q 164.93 295.66 164.72 295.32
  Q 159.86 287.03 154.47 278.24
  C 152.69 275.33 152.75 271.84 155.67 269.76
  Q 157.50 268.45 161.18 268.49
  Z"
/>
<path fill="#25b3c3" d="
  M 58.13 78.73
  Q 46.31 66.88 34.40 55.02
  C 28.70 49.33 36.86 40.92 42.97 47.03
  Q 58.15 62.17 73.02 77.01
  A 1.45 1.43 69.3 0 0 73.93 77.43
  C 108.59 80.27 126.30 118.72 106.69 146.85
  C 92.21 167.62 62.75 171.61 43.15 155.67
  Q 28.63 143.86 26.77 124.44
  Q 26.72 123.90 26.35 123.52
  Q 13.93 110.93 2.29 99.52
  C -3.81 93.54 4.41 85.04 10.49 91.10
  Q 19.44 100.01 27.89 108.49
  Q 28.47 109.08 28.69 108.28
  C 32.54 94.23 44.56 83.45 58.04 79.11
  Q 58.39 78.99 58.13 78.73
  Z
  M 103.14 121.36
  A 32.38 32.38 0.0 0 0 70.76 88.98
  A 32.38 32.38 0.0 0 0 38.38 121.36
  A 32.38 32.38 0.0 0 0 70.76 153.74
  A 32.38 32.38 0.0 0 0 103.14 121.36
  Z"
/>
<path fill="#25b3c3" d="
  M 262.05 92.41
  Q 272.11 102.47 283.49 113.81
  C 289.61 119.91 281.20 128.18 275.30 122.25
  Q 261.93 108.79 249.20 96.11
  C 246.74 93.65 246.94 89.91 249.37 87.51
  Q 262.32 74.70 274.91 61.95
  C 281.27 55.51 289.43 64.03 283.86 69.65
  Q 273.61 80.01 262.05 91.46
  Q 261.58 91.93 262.05 92.41
  Z"
/>
<rect fill="#25b3c3" x="-5.86" y="-36.87" transform="translate(313.65,91.93) rotate(31.4)" width="11.72" height="73.74" rx="5.79"/>
<path fill="#25b3c3" d="
  M 365.28 91.54
  Q 355.10 81.16 343.80 70.04
  C 337.65 63.99 346.07 55.62 352.05 61.65
  Q 364.42 74.11 377.66 87.24
  C 380.72 90.27 380.42 93.86 377.58 96.69
  Q 363.80 110.42 351.88 122.38
  C 346.14 128.14 337.74 119.93 343.76 113.88
  Q 354.17 103.43 365.27 92.38
  Q 365.69 91.96 365.28 91.54
  Z"
/>
<rect fill="#25b3c3" x="273.96" y="150.87" width="11.70" height="52.86" rx="5.71"/>
<path fill="#25b3c3" d="
  M 347.49 191.86
  A 11.91 11.91 0.0 0 1 335.58 203.77
  L 318.20 203.77
  A 11.91 11.91 0.0 0 1 306.29 191.86
  L 306.29 162.72
  A 11.91 11.91 0.0 0 1 318.20 150.81
  L 335.58 150.81
  A 11.91 11.91 0.0 0 1 347.49 162.72
  L 347.49 191.86
  Z
  M 335.74 162.89
  A 0.35 0.35 0.0 0 0 335.39 162.54
  L 318.37 162.54
  A 0.35 0.35 0.0 0 0 318.02 162.89
  L 318.02 191.65
  A 0.35 0.35 0.0 0 0 318.37 192.00
  L 335.39 192.00
  A 0.35 0.35 0.0 0 0 335.74 191.65
  L 335.74 162.89
  Z"
/>
<path fill="#25b3c3" d="
  M 380.00 156.88
  L 380.00 197.73
  Q 378.93 203.98 373.64 203.66
  Q 371.21 203.51 369.77 201.95
  Q 368.15 200.20 368.15 197.87
  Q 368.10 177.56 368.13 156.99
  C 368.15 149.22 378.77 148.46 380.00 156.88
  Z"
/>
<path fill="#25b3c3" d="
  M 241.52 191.38
  Q 241.54 177.47 241.48 163.47
  C 241.44 154.45 253.40 154.78 253.31 162.97
  Q 253.17 176.14 253.32 189.88
  Q 253.36 194.24 252.11 196.98
  C 249.84 201.90 245.02 204.03 239.76 203.80
  C 236.72 203.67 232.43 204.40 229.82 202.97
  C 225.99 200.87 225.86 195.49 229.42 193.11
  C 232.22 191.24 237.48 192.10 240.91 192.00
  Q 241.51 191.99 241.52 191.38
  Z"
/>
<path fill="#25b3c3" d="
  M 167.96 177.32
  A 0.21 0.21 0.0 0 0 167.81 177.67
  Q 174.02 184.09 180.76 190.59
  C 183.32 193.06 185.27 195.86 183.22 199.40
  C 181.16 202.96 176.59 203.17 173.76 200.33
  Q 161.50 188.02 149.23 175.72
  C 146.21 172.69 147.00 167.31 151.19 166.01
  Q 153.13 165.41 155.47 165.44
  Q 171.43 165.62 187.73 165.51
  C 196.60 165.45 196.55 177.43 187.66 177.32
  Q 177.77 177.21 167.96 177.32
  Z"
/>
<path fill="#25b3c3" d="
  M 241.52 253.06
  L 241.51 224.98
  Q 241.51 224.39 240.92 224.37
  C 238.52 224.31 235.53 224.78 233.33 223.84
  C 228.41 221.72 228.65 214.70 233.75 213.09
  Q 236.02 212.37 240.51 212.57
  C 248.48 212.91 253.45 217.66 253.32 225.83
  Q 253.13 237.70 253.35 250.95
  C 253.47 258.38 250.82 264.14 242.92 265.49
  C 235.01 266.84 232.57 255.86 240.87 253.88
  Q 241.52 253.72 241.52 253.06
  Z"
/>
<path fill="#25b3c3" d="
  M 347.4745 253.7359
  A 11.86 11.86 0.0 0 1 335.5938 265.5752
  L 318.0938 265.5447
  A 11.86 11.86 0.0 0 1 306.2545 253.6640
  L 306.3055 224.4641
  A 11.86 11.86 0.0 0 1 318.1862 212.6248
  L 335.6862 212.6553
  A 11.86 11.86 0.0 0 1 347.5255 224.5360
  L 347.4745 253.7359
  Z
  M 335.74 224.72
  A 0.34 0.34 0.0 0 0 335.40 224.38
  L 318.36 224.38
  A 0.34 0.34 0.0 0 0 318.02 224.72
  L 318.02 253.54
  A 0.34 0.34 0.0 0 0 318.36 253.88
  L 335.40 253.88
  A 0.34 0.34 0.0 0 0 335.74 253.54
  L 335.74 224.72
  Z"
/>
<rect fill="#25b3c3" x="273.96" y="212.73" width="11.70" height="52.80" rx="5.71"/>
<path fill="#25b3c3" d="
  M 380.00 218.65
  L 380.00 259.72
  Q 378.88 265.67 373.81 265.49
  C 370.57 265.38 368.16 262.96 368.15 259.71
  Q 368.09 238.87 368.15 218.71
  C 368.17 211.06 378.82 210.37 380.00 218.65
  Z"
/>
<rect fill="#25b3c3" x="226.82" y="274.52" width="11.70" height="52.86" rx="5.71"/>
<path fill="#25b3c3" d="
  M 300.37 315.59
  A 11.87 11.87 0.0 0 1 288.50 327.46
  L 271.10 327.46
  A 11.87 11.87 0.0 0 1 259.23 315.59
  L 259.23 286.35
  A 11.87 11.87 0.0 0 1 271.10 274.48
  L 288.50 274.48
  A 11.87 11.87 0.0 0 1 300.37 286.35
  L 300.37 315.59
  Z
  M 288.68 286.55
  A 0.35 0.35 0.0 0 0 288.33 286.20
  L 271.31 286.20
  A 0.35 0.35 0.0 0 0 270.96 286.55
  L 270.96 315.37
  A 0.35 0.35 0.0 0 0 271.31 315.72
  L 288.33 315.72
  A 0.35 0.35 0.0 0 0 288.68 315.37
  L 288.68 286.55
  Z"
/>
<rect fill="#25b3c3" x="321.02" y="274.53" width="11.72" height="52.84" rx="5.72"/>
<path fill="#25b3c3" d="
  M 380.00 280.64
  L 380.00 321.72
  Q 378.65 328.59 372.50 327.28
  Q 368.17 326.35 368.15 320.61
  Q 368.08 300.88 368.15 280.58
  C 368.17 272.78 379.01 272.18 380.00 280.64
  Z"
/>
</svg>
