<?xml version="1.0" encoding="UTF-8"?>
<!DOCTYPE svg PUBLIC "-//W3C//DTD SVG 1.1//EN" "http://www.w3.org/Graphics/SVG/1.1/DTD/svg11.dtd">
<svg xmlns="http://www.w3.org/2000/svg" version="1.1" width="384px" height="342px" style="shape-rendering:geometricPrecision; text-rendering:geometricPrecision; image-rendering:optimizeQuality; fill-rule:evenodd; clip-rule:evenodd" xmlns:xlink="http://www.w3.org/1999/xlink">
<g><path fill="#fcba28" d="M 205.5,-0.5 C 210.5,-0.5 215.5,-0.5 220.5,-0.5C 227.732,1.28101 234.399,4.44768 240.5,9C 285.333,53.8333 330.167,98.6667 375,143.5C 378.69,149.208 381.523,155.208 383.5,161.5C 383.5,167.5 383.5,173.5 383.5,179.5C 381.523,185.792 378.69,191.792 375,197.5C 330.167,242.333 285.333,287.167 240.5,332C 234.399,336.552 227.732,339.719 220.5,341.5C 215.5,341.5 210.5,341.5 205.5,341.5C 178.453,333.591 166.953,315.591 171,287.5C 172.53,282.108 174.863,277.108 178,272.5C 197.5,253 217,233.5 236.5,214C 169.167,213.667 101.833,213.333 34.5,213C 16.0883,208.753 4.42163,197.586 -0.5,179.5C -0.5,173.167 -0.5,166.833 -0.5,160.5C 4.86203,142.974 16.5287,132.141 34.5,128C 101.833,127.667 169.167,127.333 236.5,127C 217,107.5 197.5,88 178,68.5C 164.714,46.0506 167.547,25.884 186.5,8C 192.446,4.02179 198.779,1.18845 205.5,-0.5 Z"/></g>
</svg>
