<?xml version="1.0" encoding="UTF-8"?>
<!-- Generator: visioncortex VTracer 0.6.3 -->
<svg version="1.1" xmlns="http://www.w3.org/2000/svg" width="1280" height="1280">
<path d="M0 0 C2.65 -0 5.3 -0 7.95 -0 C9.25 -0 9.25 -0 10.58 -0 C12.16 -0 13.73 -0 15.31 -0 C162.21 -0.02 309.11 0.03 456.01 0.07 C456.01 224.47 456.01 448.87 456.01 680.07 C431.26 680.07 406.51 680.07 381.01 680.07 C380.68 729.57 380.35 779.07 380.01 830.07 C355.59 830.07 331.17 830.07 306.01 830.07 C305.68 879.57 305.35 929.07 305.01 980.07 C260.3 980.07 260.3 980.07 242.96 980.08 C241.34 980.08 241.34 980.08 239.69 980.08 C168.25 980.09 96.81 980.1 25.37 980.11 C23.98 980.11 22.59 980.11 21.19 980.11 C-8.03 980.11 -37.25 980.11 -66.48 980.12 C-81.16 980.12 -95.84 980.12 -110.52 980.12 C-112.73 980.12 -114.95 980.12 -117.16 980.12 C-151.27 980.12 -185.38 980.13 -219.49 980.13 C-220.59 980.13 -220.59 980.13 -221.72 980.14 C-233.55 980.14 -245.38 980.14 -257.21 980.14 C-291.28 980.15 -325.34 980.15 -359.4 980.16 C-360.1 980.16 -360.81 980.16 -361.53 980.16 C-376.89 980.16 -392.26 980.16 -407.62 980.16 C-413.81 980.16 -419.99 980.16 -426.17 980.16 C-427.19 980.16 -427.19 980.16 -428.22 980.16 C-450.05 980.16 -471.87 980.17 -493.69 980.17 C-516.28 980.18 -538.86 980.18 -561.44 980.18 C-574.47 980.18 -587.51 980.18 -600.54 980.19 C-609.23 980.19 -617.92 980.19 -626.61 980.19 C-631.57 980.19 -636.53 980.19 -641.49 980.19 C-646 980.19 -650.5 980.19 -655.01 980.19 C-656.63 980.19 -658.26 980.19 -659.89 980.19 C-662.09 980.2 -664.28 980.19 -666.48 980.19 C-668.31 980.19 -668.31 980.19 -670.17 980.19 C-672.99 980.07 -672.99 980.07 -674.99 979.07 C-675.32 930.23 -675.65 881.39 -675.99 831.07 C-699.75 830.74 -723.51 830.41 -747.99 830.07 C-748.65 829.74 -749.31 829.41 -749.99 829.07 C-750.49 755.81 -750.49 755.81 -750.99 681.07 C-774.08 673.37 -799.66 680.07 -823.99 680.07 C-823.99 456 -823.99 231.93 -823.99 1.07 C-463.71 0.43 -463.71 0.43 -377.78 0.3 C-376.05 0.3 -374.32 0.3 -372.59 0.3 C-371.72 0.29 -370.86 0.29 -369.97 0.29 C-367.26 0.29 -364.56 0.28 -361.86 0.28 C-266.03 0.14 -170.2 0.04 0 0 Z M303.01 977.07 C302.35 977.73 301.69 978.39 301.01 979.07 C302 979.07 302.99 979.07 304.01 979.07 C303.68 978.41 303.35 977.75 303.01 977.07 Z " fill="#51A4FC" transform="translate(823.9945891499519,148.9339498989284)"/>
<path d="M0 0 C1.16 -0.01 1.16 -0.01 2.34 -0.01 C4.96 -0.02 7.57 -0.01 10.18 0 C12.07 0 13.95 -0 15.84 -0.01 C21.03 -0.01 26.22 -0 31.42 0.01 C37.01 0.02 42.61 0.01 48.2 0.01 C59.17 0 70.14 0.01 81.11 0.03 C93.87 0.05 106.64 0.05 119.4 0.05 C142.17 0.05 164.94 0.07 187.71 0.09 C209.82 0.11 231.93 0.13 254.04 0.13 C254.72 0.13 255.41 0.13 256.11 0.13 C258.85 0.13 261.6 0.13 264.34 0.13 C265.71 0.13 267.08 0.13 268.45 0.13 C269.81 0.13 271.18 0.13 272.54 0.13 C294.27 0.14 316 0.15 337.73 0.16 C345.36 0.17 353 0.17 360.64 0.17 C372.75 0.18 384.86 0.19 396.98 0.2 C402.52 0.21 408.05 0.21 413.59 0.21 C418.66 0.21 423.72 0.22 428.79 0.23 C430.62 0.23 432.46 0.23 434.3 0.23 C436.79 0.23 439.27 0.23 441.76 0.24 C442.48 0.24 443.2 0.24 443.94 0.24 C446.72 0.25 449.33 0.33 452.05 0.91 C455.31 1.52 458.22 1.22 461.52 0.94 C471.46 0.21 481.37 0.24 491.34 0.25 C493.41 0.25 495.47 0.25 497.54 0.25 C503.18 0.25 508.83 0.25 514.47 0.26 C520.57 0.26 526.67 0.26 532.77 0.26 C543.32 0.26 553.87 0.26 564.43 0.27 C575.49 0.27 586.55 0.28 597.61 0.28 C598.65 0.28 598.65 0.28 599.7 0.28 C603.2 0.28 606.7 0.28 610.2 0.28 C634.96 0.28 659.72 0.29 684.48 0.3 C708.53 0.31 732.57 0.31 756.62 0.32 C757.73 0.32 757.73 0.32 758.87 0.32 C766.32 0.32 773.77 0.32 781.22 0.32 C796.4 0.32 811.57 0.33 826.75 0.33 C827.8 0.33 827.8 0.33 828.87 0.33 C875.41 0.34 921.96 0.36 968.51 0.37 C969.89 3.15 969.63 5.39 969.63 8.49 C969.63 9.8 969.63 11.12 969.64 12.47 C969.63 13.94 969.63 15.41 969.63 16.89 C969.63 18.44 969.63 19.99 969.63 21.54 C969.63 25.83 969.63 30.11 969.62 34.39 C969.62 39 969.62 43.62 969.62 48.23 C969.62 56.22 969.62 64.22 969.61 72.22 C969.61 83.78 969.6 95.34 969.6 106.9 C969.6 125.66 969.59 144.41 969.58 163.17 C969.57 181.39 969.57 199.61 969.56 217.84 C969.56 218.96 969.56 220.08 969.56 221.24 C969.56 226.87 969.56 232.5 969.56 238.13 C969.55 284.88 969.53 331.63 969.51 378.37 C968.53 378.37 967.55 378.37 966.54 378.37 C908.57 378.35 850.59 378.33 792.61 378.32 C785.65 378.32 778.68 378.32 771.72 378.32 C770.68 378.32 770.68 378.32 769.62 378.32 C747.18 378.31 724.73 378.3 702.29 378.3 C678.57 378.29 654.84 378.28 631.11 378.28 C616.91 378.28 602.7 378.27 588.49 378.26 C578.75 378.26 569 378.26 559.25 378.26 C553.63 378.26 548.01 378.26 542.39 378.25 C537.24 378.25 532.09 378.25 526.93 378.25 C525.08 378.25 523.22 378.25 521.36 378.25 C511.53 378.23 501.77 378.43 491.96 379.15 C484.75 379.62 477.54 379.56 470.33 379.14 C450.23 378 430.1 378.24 409.98 378.27 C404.35 378.28 398.73 378.28 393.11 378.28 C383.39 378.28 373.67 378.29 363.95 378.3 C349.89 378.31 335.84 378.32 321.78 378.32 C298.97 378.33 276.16 378.34 253.35 378.35 C252.33 378.35 252.33 378.35 251.29 378.35 C241.62 378.36 231.95 378.36 222.27 378.37 C210.49 378.38 198.71 378.39 186.93 378.39 C186.24 378.39 185.56 378.39 184.86 378.39 C161.41 378.41 137.96 378.42 114.52 378.43 C100.49 378.43 86.45 378.44 72.42 378.45 C62.83 378.46 53.24 378.46 43.65 378.47 C38.11 378.47 32.57 378.47 27.03 378.48 C21.97 378.48 16.9 378.49 11.84 378.49 C10 378.49 8.16 378.49 6.33 378.49 C3.84 378.5 1.36 378.49 -1.13 378.49 C-2.22 378.5 -2.22 378.5 -3.33 378.5 C-8.26 378.49 -8.26 378.49 -10.49 377.37 C-10.56 329.78 -10.61 282.18 -10.65 234.59 C-10.65 228.97 -10.65 223.36 -10.66 217.75 C-10.66 216.63 -10.66 215.51 -10.66 214.36 C-10.67 196.24 -10.7 178.13 -10.72 160.01 C-10.75 141.43 -10.77 122.85 -10.77 104.27 C-10.78 92.8 -10.79 81.33 -10.82 69.86 C-10.83 62 -10.84 54.14 -10.83 46.28 C-10.83 41.75 -10.83 37.21 -10.85 32.67 C-10.86 28.52 -10.87 24.37 -10.86 20.22 C-10.85 18.71 -10.86 17.2 -10.87 15.7 C-10.88 13.66 -10.87 11.62 -10.86 9.58 C-10.86 8.45 -10.86 7.31 -10.86 6.14 C-10.49 3.37 -10.49 3.37 -9.44 1.51 C-6.42 -0.25 -3.39 -0.04 0 0 Z " fill="#B8DBFC" transform="translate(159.4923152923584,299.6280632019043)"/>
<path d="M0 0 C1.39 -0 1.39 -0 2.8 -0.01 C4.32 -0 4.32 -0 5.87 0 C6.95 -0 8.03 -0 9.15 -0 C12.8 -0.01 16.46 -0 20.11 0 C22.74 0 25.37 0 28 0 C33.74 -0 39.48 0 45.22 0 C53.86 0.01 62.5 0.01 71.15 0.01 C85.63 0.01 100.12 0.01 114.6 0.02 C134.19 0.03 153.77 0.03 173.36 0.03 C220.46 0.03 267.56 0.05 314.66 0.06 C472.44 0.09 472.44 0.09 633.41 0.12 C633.41 224.52 633.41 448.92 633.41 680.12 C545.03 680.12 545.03 680.12 504.73 680.06 C499.43 680.05 494.12 680.04 488.82 680.04 C488.13 680.04 487.44 680.03 486.72 680.03 C485.31 680.03 483.89 680.03 482.47 680.03 C463.87 680 445.26 679.97 426.65 679.94 C425.89 679.94 425.12 679.94 424.34 679.94 C393.92 679.89 363.5 679.84 333.08 679.79 C325.64 679.78 318.21 679.76 310.77 679.75 C309.95 679.75 309.12 679.75 308.28 679.75 C281.44 679.7 254.6 679.66 227.76 679.62 C200.01 679.58 172.26 679.54 144.5 679.49 C140.6 679.48 136.69 679.48 132.78 679.47 C132.01 679.47 131.24 679.47 130.45 679.47 C118.08 679.45 105.72 679.43 93.35 679.41 C80.98 679.4 68.61 679.38 56.24 679.35 C49.54 679.34 42.85 679.33 36.15 679.32 C30.03 679.31 23.91 679.3 17.8 679.29 C15.57 679.28 13.35 679.28 11.13 679.28 C8.13 679.28 5.13 679.27 2.13 679.26 C1.25 679.26 0.37 679.26 -0.54 679.27 C-6.47 679.24 -6.47 679.24 -7.59 678.12 C-7.68 676.24 -7.71 674.36 -7.7 672.47 C-7.7 671.25 -7.7 670.02 -7.7 668.76 C-7.7 667.38 -7.69 666.01 -7.69 664.64 C-7.68 663.2 -7.68 661.77 -7.68 660.33 C-7.68 657.24 -7.67 654.14 -7.66 651.04 C-7.65 646.15 -7.64 641.25 -7.64 636.36 C-7.63 625.08 -7.6 613.81 -7.58 602.53 C-7.56 592.21 -7.54 581.88 -7.53 571.55 C-7.53 566.68 -7.52 561.81 -7.51 556.94 C-7.5 553.92 -7.5 550.89 -7.49 547.87 C-7.49 546.46 -7.49 545.05 -7.48 543.65 C-7.47 541.73 -7.47 539.82 -7.47 537.9 C-7.47 536.83 -7.47 535.75 -7.47 534.65 C-7.42 532.13 -7.42 532.13 -8.59 530.12 C14.16 527.64 36.89 527.88 59.74 527.98 C65.43 528 71.12 528.01 76.8 528.02 C86.63 528.04 96.45 528.07 106.28 528.1 C120.48 528.15 134.68 528.18 148.89 528.21 C171.94 528.27 194.99 528.33 218.04 528.4 C240.42 528.47 262.8 528.53 285.17 528.59 C286.58 528.59 287.99 528.59 289.4 528.6 C300.32 528.63 311.24 528.65 322.16 528.68 C375.58 528.81 429 528.97 482.41 529.12 C482.08 404.38 481.75 279.64 481.41 151.12 C446.69 151.21 411.96 151.29 376.19 151.38 C354.25 151.43 332.31 151.48 310.37 151.53 C299.58 151.55 288.8 151.58 278.01 151.6 C276.55 151.6 275.08 151.61 273.62 151.61 C250.29 151.66 226.95 151.72 203.62 151.78 C179.64 151.84 155.67 151.89 131.69 151.94 C128.3 151.95 124.92 151.96 121.53 151.97 C120.87 151.97 120.2 151.97 119.51 151.97 C109.45 151.99 99.38 152.02 89.31 152.04 C77.86 152.07 66.41 152.1 54.96 152.12 C49.11 152.14 43.27 152.15 37.42 152.17 C32.07 152.18 26.73 152.19 21.38 152.2 C19.44 152.2 17.5 152.21 15.56 152.22 C12.94 152.23 10.31 152.23 7.68 152.23 C6.92 152.24 6.16 152.24 5.38 152.24 C1.3 152.24 -2.61 152.09 -6.59 151.12 C-7.92 148.45 -7.71 146.42 -7.71 143.43 C-7.72 142.22 -7.72 141.01 -7.72 139.76 C-7.72 138.41 -7.72 137.06 -7.72 135.71 C-7.72 134.29 -7.72 132.88 -7.72 131.46 C-7.73 127.61 -7.73 123.76 -7.72 119.91 C-7.72 115.89 -7.72 111.86 -7.72 107.84 C-7.73 101.08 -7.72 94.32 -7.72 87.56 C-7.71 79.74 -7.71 71.92 -7.72 64.09 C-7.72 57.39 -7.73 50.68 -7.72 43.97 C-7.72 39.96 -7.72 35.95 -7.72 31.94 C-7.73 28.17 -7.72 24.4 -7.72 20.64 C-7.72 19.25 -7.72 17.86 -7.72 16.48 C-7.72 14.59 -7.72 12.7 -7.71 10.82 C-7.71 9.76 -7.71 8.7 -7.71 7.61 C-7.59 5.12 -7.59 5.12 -6.59 3.12 C-7.25 2.46 -7.91 1.8 -8.59 1.12 C-5.65 0.28 -3.05 -0 0 0 Z " fill="#008AFD" transform="translate(646.5876686573029,148.8758015036583)"/>
<path d="M0 0 C0.95 -0 1.9 -0.01 2.87 -0.01 C6.08 -0.02 9.29 -0.01 12.5 -0 C14.81 -0 17.12 -0.01 19.43 -0.01 C25.14 -0.02 30.84 -0.02 36.55 -0.01 C43.38 -0.01 50.21 -0.01 57.04 -0.02 C70.42 -0.03 83.8 -0.03 97.19 -0.02 C108.9 -0.01 120.61 -0.01 132.32 -0.02 C133.1 -0.02 133.87 -0.02 134.67 -0.02 C137.82 -0.02 140.97 -0.02 144.12 -0.02 C173.68 -0.02 203.24 -0.02 232.8 -0.01 C259.08 0 285.36 0 311.65 -0.01 C341.15 -0.02 370.66 -0.02 400.17 -0.02 C403.31 -0.02 406.45 -0.02 409.6 -0.02 C410.76 -0.02 410.76 -0.02 411.94 -0.02 C423.65 -0.01 435.35 -0.02 447.06 -0.02 C460.37 -0.03 473.67 -0.03 486.98 -0.01 C493.77 -0.01 500.57 -0.01 507.36 -0.01 C513.57 -0.02 519.78 -0.02 525.99 -0.01 C528.25 -0 530.51 -0 532.76 -0.01 C535.81 -0.02 538.86 -0.01 541.91 0 C542.8 -0 543.69 -0.01 544.61 -0.01 C550.66 0.02 550.66 0.02 552.89 2.25 C553.13 4.79 553.13 4.79 553.12 8.07 C553.13 9.92 553.13 9.92 553.13 11.82 C553.12 13.2 553.11 14.58 553.1 15.96 C553.1 17.4 553.1 18.85 553.1 20.3 C553.09 23.42 553.09 26.54 553.07 29.66 C553.05 34.58 553.04 39.51 553.04 44.44 C553.02 52.23 553 60.02 552.98 67.81 C552.93 81.77 552.9 95.73 552.88 109.69 C552.87 114.59 552.86 119.5 552.84 124.4 C552.83 127.45 552.82 130.49 552.81 133.53 C552.81 134.95 552.81 136.37 552.8 137.79 C552.79 139.71 552.79 141.64 552.78 143.56 C552.78 144.64 552.78 145.73 552.77 146.84 C552.62 149.2 552.62 149.2 553.89 150.25 C556.47 150.35 559.02 150.38 561.6 150.37 C562.42 150.37 563.24 150.37 564.09 150.37 C566.87 150.37 569.66 150.36 572.45 150.36 C574.45 150.36 576.46 150.36 578.46 150.36 C584 150.36 589.53 150.35 595.07 150.34 C601.02 150.33 606.98 150.33 612.94 150.32 C623.27 150.32 633.61 150.31 643.94 150.3 C659.57 150.28 675.2 150.27 690.83 150.26 C697.1 150.26 703.37 150.25 709.63 150.25 C710.33 150.25 711.03 150.25 711.74 150.25 C728.33 150.24 744.91 150.23 761.5 150.22 C762.59 150.22 762.59 150.22 763.7 150.22 C780.64 150.2 797.58 150.19 814.52 150.17 C815.25 150.17 815.98 150.17 816.73 150.17 C820.4 150.17 824.08 150.16 827.75 150.16 C828.84 150.16 828.84 150.16 829.95 150.16 C831.42 150.16 832.89 150.16 834.35 150.15 C858.55 150.13 882.74 150.11 906.94 150.1 C910.35 150.1 913.77 150.1 917.18 150.1 C917.85 150.1 918.52 150.1 919.22 150.1 C930.05 150.1 940.89 150.08 951.72 150.07 C962.6 150.05 973.48 150.05 984.36 150.04 C990.26 150.04 996.16 150.04 1002.06 150.03 C1007.45 150.02 1012.85 150.01 1018.24 150.02 C1020.2 150.02 1022.16 150.01 1024.12 150.01 C1026.76 150 1029.41 150 1032.06 150.01 C1033.22 150 1033.22 150 1034.4 149.99 C1039.66 150.02 1039.66 150.02 1041.89 152.25 C1042.14 154.82 1042.14 154.82 1042.13 158.15 C1042.13 159.41 1042.14 160.66 1042.14 161.96 C1042.13 163.36 1042.13 164.76 1042.12 166.16 C1042.12 167.62 1042.12 169.09 1042.12 170.56 C1042.12 174.55 1042.11 178.55 1042.09 182.54 C1042.08 186.71 1042.08 190.88 1042.08 195.05 C1042.07 202.96 1042.05 210.86 1042.03 218.76 C1042.01 227.75 1042 236.75 1041.99 245.74 C1041.97 264.24 1041.94 282.75 1041.89 301.25 C953.52 301.27 865.16 301.28 762.26 301.29 C760.86 301.29 759.47 301.29 758.08 301.29 C728.86 301.3 699.63 301.3 670.41 301.3 C655.73 301.3 641.05 301.31 626.37 301.31 C624.15 301.31 621.94 301.31 619.72 301.31 C585.61 301.31 551.5 301.31 517.39 301.32 C516.29 301.32 516.29 301.32 515.17 301.32 C503.34 301.32 491.51 301.33 479.67 301.33 C445.61 301.33 411.55 301.34 377.48 301.34 C376.78 301.34 376.08 301.34 375.36 301.34 C359.99 301.34 344.63 301.35 329.26 301.35 C323.08 301.35 316.9 301.35 310.71 301.35 C309.7 301.35 309.7 301.35 308.66 301.35 C286.84 301.35 265.02 301.35 243.19 301.36 C220.61 301.36 198.03 301.37 175.44 301.37 C162.41 301.36 149.38 301.37 136.35 301.37 C127.66 301.38 118.97 301.38 110.28 301.37 C105.32 301.37 100.35 301.37 95.39 301.38 C90.89 301.38 86.38 301.38 81.88 301.38 C80.25 301.38 78.62 301.38 76.99 301.38 C74.8 301.38 72.6 301.38 70.41 301.38 C68.58 301.38 68.58 301.38 66.71 301.38 C63.89 301.25 63.89 301.25 61.89 300.25 C61.4 226.99 61.4 226.99 60.89 152.25 C37.13 151.92 13.37 151.59 -11.11 151.25 C-11.77 150.92 -12.43 150.59 -13.11 150.25 C-13.13 132.43 -13.15 114.61 -13.16 96.79 C-13.17 88.52 -13.17 80.24 -13.18 71.97 C-13.19 64.75 -13.2 57.53 -13.2 50.32 C-13.2 46.5 -13.21 42.68 -13.22 38.87 C-13.22 35.27 -13.22 31.67 -13.22 28.07 C-13.22 26.13 -13.23 24.19 -13.23 22.25 C-13.22 6.38 -13.22 6.38 -12.11 2.25 C-8.12 -0.41 -4.64 -0.02 0 0 Z M1039.89 298.25 C1039.23 298.91 1038.57 299.57 1037.89 300.25 C1038.88 300.25 1039.87 300.25 1040.89 300.25 C1040.56 299.59 1040.23 298.93 1039.89 298.25 Z " fill="#83BEFB" transform="translate(87.10928440093994,827.7483177185059)"/>
<path d="M0 0 C0.78 -0 1.56 -0 2.37 -0 C4.97 -0.01 7.58 -0 10.19 0 C12.08 0 13.97 0 15.87 0 C21.06 -0 26.25 0 31.44 0.01 C37.04 0.01 42.65 0.01 48.25 0.01 C57.95 0.01 67.66 0.01 77.36 0.02 C91.39 0.03 105.42 0.03 119.45 0.03 C142.21 0.03 164.97 0.04 187.73 0.05 C209.84 0.06 231.96 0.06 254.07 0.07 C254.75 0.07 255.43 0.07 256.13 0.07 C262.98 0.07 269.82 0.07 276.67 0.07 C334.07 0.08 391.48 0.1 448.88 0.12 C450.27 2.9 450 5.14 450 8.24 C450 9.56 450.01 10.87 450.01 12.22 C450 13.7 450 15.17 450 16.64 C450 18.19 450 19.74 450 21.28 C450 25.57 450 29.85 449.99 34.13 C449.99 38.8 449.99 43.48 449.99 48.16 C449.99 57.25 449.99 66.34 449.98 75.43 C449.97 85.94 449.97 96.45 449.97 106.96 C449.97 134.72 449.95 162.49 449.94 190.25 C449.92 252.25 449.9 314.25 449.88 378.12 C298.41 378.12 146.94 378.12 -9.12 378.12 C-9.12 377.46 -9.12 376.8 -9.12 376.12 C-8.16 375.89 -7.21 375.66 -6.22 375.42 C-1.84 374.36 2.52 373.25 6.88 372.12 C7.58 371.94 8.29 371.76 9.01 371.57 C32.63 365.37 55.63 354.15 74.88 339.12 C75.63 338.55 76.38 337.97 77.15 337.38 C83.52 332.41 89.31 327.03 95 321.31 C95.85 320.48 96.69 319.66 97.55 318.81 C103.36 313 108.23 306.88 112.88 300.12 C113.59 299.12 113.59 299.12 114.31 298.11 C120.83 288.89 126.14 279.35 130.88 269.12 C131.41 268 131.95 266.87 132.5 265.71 C141.52 245.77 147.32 223.03 147.88 201.12 C147.9 200.34 147.92 199.57 147.94 198.76 C148.7 165.11 142.67 132.75 126.8 102.87 C126 101.35 125.22 99.81 124.46 98.28 C108.1 66.39 80.54 39.53 48.88 23.12 C47.95 22.64 47.95 22.64 47.01 22.15 C27.11 11.83 5.84 6.12 -16.12 2.12 C-16.12 1.79 -16.12 1.46 -16.12 1.12 C-10.72 0.36 -5.46 -0.02 0 0 Z " fill="#83BEFC" transform="translate(679.1215209960938,299.8769521713257)"/>
<path d="M0 0 C4.02 -0.04 8.03 -0 12.05 0.08 C13.36 0.1 14.66 0.12 16 0.13 C50.18 1.04 88.03 14.17 115.05 35.08 C116.5 36.09 116.5 36.09 117.98 37.12 C135.5 49.71 150.34 66.04 162.05 84.08 C162.44 84.67 162.83 85.26 163.23 85.86 C168.96 94.53 173.67 103.68 178.05 113.08 C178.36 113.74 178.67 114.39 178.99 115.06 C199.18 158.62 198.94 211.46 182.68 256.14 C166.24 299.37 134.28 336.01 93.05 357.08 C92.31 357.46 91.57 357.84 90.8 358.24 C74.45 366.52 58.02 371.99 40.08 375.64 C38.04 376.09 36.03 376.61 34.01 377.15 C19.94 380.72 3.91 379.31 -10.45 378.71 C-11.72 378.66 -11.72 378.66 -13.02 378.61 C-17.7 378.39 -21.52 377.73 -25.95 376.08 C-27.98 375.64 -30.02 375.22 -32.07 374.83 C-67.19 367.41 -99.13 351.25 -124.95 326.08 C-125.5 325.56 -126.05 325.04 -126.61 324.5 C-155.35 297.29 -173.6 261.95 -180.95 223.08 C-181.12 222.19 -181.3 221.3 -181.48 220.37 C-183.24 210.47 -183.34 200.67 -183.32 190.64 C-183.32 189.32 -183.32 189.32 -183.32 187.96 C-183.28 174.28 -182.46 161.36 -178.95 148.08 C-178.62 146.79 -178.62 146.79 -178.3 145.48 C-171.83 119.73 -161.22 96.12 -144.95 75.08 C-144.37 74.33 -143.79 73.58 -143.19 72.8 C-112.87 34 -66.73 7.45 -17.74 0.78 C-11.84 0.15 -5.93 0.12 0 0 Z " fill="#F9FCFE" transform="translate(633.9453125,299.91796875)"/>
<path d="M0 0 C0.33 0.99 0.66 1.98 1 3 C1.82 3 2.64 3 3.48 2.99 C11.24 2.97 18.99 2.96 26.74 2.95 C30.73 2.94 34.71 2.94 38.7 2.92 C42.55 2.91 46.4 2.91 50.25 2.91 C51.71 2.9 53.18 2.9 54.64 2.89 C56.7 2.89 58.77 2.89 60.83 2.89 C62.58 2.88 62.58 2.88 64.37 2.88 C67.05 2.97 69.54 3.17 72.18 3.5 C76.7 4.01 81.14 4.14 85.68 4.12 C86.51 4.12 87.34 4.12 88.19 4.12 C90.96 4.12 93.72 4.12 96.49 4.11 C98.5 4.11 100.5 4.11 102.51 4.11 C108.02 4.11 113.53 4.11 119.03 4.1 C124.98 4.1 130.92 4.09 136.86 4.09 C147.15 4.09 157.45 4.08 167.74 4.08 C182.62 4.06 197.51 4.06 212.39 4.05 C219.33 4.05 226.26 4.05 233.2 4.05 C234.24 4.05 234.24 4.05 235.3 4.04 C251.81 4.04 268.33 4.03 284.84 4.02 C285.92 4.02 285.92 4.02 287.03 4.02 C298.02 4.01 309.01 4.01 320 4 C331.73 3.99 343.47 3.99 355.2 3.98 C355.93 3.98 356.65 3.98 357.4 3.98 C373.9 3.97 390.4 3.96 406.9 3.95 C407.94 3.95 407.94 3.95 409 3.95 C415.91 3.95 422.83 3.95 429.74 3.95 C444.61 3.94 459.49 3.94 474.36 3.92 C485.19 3.91 496.02 3.91 506.85 3.91 C512.73 3.9 518.6 3.9 524.47 3.89 C529.84 3.89 535.21 3.89 540.58 3.89 C542.53 3.89 544.48 3.88 546.43 3.88 C549.06 3.88 551.69 3.88 554.33 3.88 C555.1 3.88 555.87 3.87 556.67 3.87 C561.89 3.89 561.89 3.89 563 5 C563.11 6.89 563.15 8.77 563.16 10.66 C563.17 11.89 563.18 13.12 563.19 14.39 C563.19 15.77 563.2 17.14 563.21 18.52 C563.21 19.95 563.22 21.39 563.24 22.83 C563.26 26.75 563.28 30.67 563.3 34.58 C563.33 38.67 563.35 42.76 563.38 46.85 C563.43 54.6 563.47 62.35 563.52 70.1 C563.57 78.92 563.62 87.74 563.68 96.56 C563.79 114.7 563.9 132.85 564 151 C565.32 151.33 566.64 151.66 568 152 C568 152.66 568 153.32 568 154 C568.66 154 569.32 154 570 154 C570 153.34 570 152.68 570 152 C570.66 152 571.32 152 572 152 C572 152.66 572 153.32 572 154 C573.65 154 575.3 154 577 154 C577 153.34 577 152.68 577 152 C731.44 152 885.88 152 1045 152 C1045 152.66 1045 153.32 1045 154 C1047.31 154 1049.62 154 1052 154 C1051.67 153.01 1051.34 152.02 1051 151 C1050.91 149.06 1050.88 147.12 1050.88 145.17 C1050.88 143.96 1050.88 142.74 1050.88 141.49 C1050.88 140.14 1050.88 138.79 1050.89 137.44 C1050.89 136.02 1050.89 134.6 1050.89 133.18 C1050.89 129.33 1050.89 125.47 1050.9 121.62 C1050.9 117.59 1050.91 113.56 1050.91 109.53 C1050.91 101.91 1050.92 94.28 1050.93 86.65 C1050.94 77.96 1050.94 69.28 1050.95 60.6 C1050.96 42.73 1050.98 24.87 1051 7 C1051.66 6.67 1052.32 6.34 1053 6 C1053 55.17 1053 104.34 1053 155 C1008.3 155.01 1008.3 155.01 990.96 155.01 C989.34 155.01 989.34 155.01 987.69 155.01 C916.25 155.02 844.81 155.04 773.37 155.04 C771.97 155.04 770.58 155.04 769.19 155.04 C739.96 155.05 710.74 155.05 681.52 155.05 C666.84 155.05 652.16 155.05 637.48 155.05 C635.26 155.05 633.05 155.06 630.83 155.06 C596.72 155.06 562.61 155.06 528.5 155.07 C527.4 155.07 527.4 155.07 526.28 155.07 C514.45 155.07 502.62 155.07 490.78 155.08 C456.72 155.08 422.65 155.09 388.59 155.09 C387.89 155.09 387.19 155.09 386.47 155.09 C371.1 155.09 355.74 155.09 340.37 155.09 C334.19 155.09 328.01 155.09 321.82 155.09 C320.81 155.09 320.81 155.09 319.77 155.09 C297.95 155.1 276.13 155.1 254.3 155.11 C231.72 155.11 209.14 155.12 186.55 155.11 C173.52 155.11 160.49 155.11 147.46 155.12 C138.77 155.12 130.08 155.12 121.39 155.12 C116.42 155.12 111.46 155.12 106.5 155.12 C102 155.13 97.49 155.13 92.99 155.12 C91.36 155.12 89.73 155.12 88.1 155.13 C85.91 155.13 83.71 155.13 81.52 155.12 C79.69 155.12 79.69 155.12 77.82 155.12 C75 155 75 155 73 154 C72.5 80.74 72.5 80.74 72 6 C48.24 5.67 24.48 5.34 0 5 C-0.33 3.68 -0.66 2.36 -1 1 C-0.67 0.67 -0.34 0.34 0 0 Z " fill="#B7DAFA" transform="translate(76,974)"/>
<path d="M0 0 C38.95 0.25 79.74 10.81 111 35 C112.45 36.01 112.45 36.01 113.92 37.04 C131.44 49.62 146.29 65.96 158 84 C158.39 84.59 158.78 85.17 159.18 85.78 C164.91 94.44 169.62 103.6 174 113 C174.31 113.65 174.62 114.31 174.93 114.98 C195.13 158.54 194.89 211.38 178.62 256.06 C162.19 299.29 130.23 335.93 89 357 C88.26 357.38 87.51 357.76 86.75 358.16 C70.4 366.44 53.95 371.95 36.01 375.56 C34.08 375.98 32.18 376.52 30.29 377.07 C24.62 378.51 18.81 378.47 13 378.62 C11.84 378.66 10.69 378.7 9.5 378.74 C6.66 378.84 3.83 378.92 1 379 C1.07 377.96 1.14 376.92 1.22 375.86 C2.25 359.42 2.11 342.98 2.05 326.53 C2.03 322.16 2.02 317.8 2.01 313.44 C1.99 304.93 1.97 296.41 1.94 287.9 C1.92 280.98 1.9 274.07 1.88 267.15 C1.88 266.16 1.88 265.18 1.87 264.16 C1.87 262.15 1.86 260.15 1.86 258.14 C1.81 239.38 1.75 220.63 1.69 201.87 C1.64 185.78 1.6 169.68 1.56 153.58 C1.51 134.86 1.46 116.14 1.4 97.42 C1.4 95.43 1.39 93.43 1.39 91.44 C1.38 90.46 1.38 89.48 1.38 88.47 C1.36 81.55 1.34 74.63 1.32 67.72 C1.3 59.3 1.28 50.89 1.25 42.47 C1.23 38.18 1.22 33.89 1.21 29.59 C1.2 25.67 1.19 21.74 1.17 17.82 C1.17 16.39 1.16 14.97 1.16 13.54 C1.16 11.62 1.15 9.69 1.14 7.77 C1.14 6.69 1.14 5.62 1.13 4.51 C1.17 2 1.17 2 0 0 Z " fill="#E9EFF5" transform="translate(638,300)"/>
<path d="M0 0 C1.02 0.03 2.05 0.06 3.1 0.09 C4.04 0.13 4.98 0.17 5.94 0.21 C7.18 0.26 7.18 0.26 8.44 0.31 C10.44 0.62 10.44 0.62 12.44 2.62 C12.68 5.59 12.68 5.59 12.68 9.45 C12.68 10.15 12.68 10.85 12.69 11.57 C12.69 13.89 12.68 16.21 12.67 18.54 C12.67 20.14 12.67 21.75 12.67 23.36 C12.67 26.74 12.66 30.11 12.64 33.48 C12.63 37.82 12.62 42.15 12.62 46.48 C12.62 49.81 12.62 53.13 12.61 56.45 C12.61 58.05 12.61 59.65 12.6 61.25 C12.6 63.48 12.59 65.7 12.58 67.93 C12.58 69.2 12.58 70.48 12.57 71.78 C12.44 74.62 12.44 74.62 11.44 75.62 C9.18 75.72 6.92 75.75 4.65 75.75 C3.95 75.76 3.24 75.76 2.51 75.76 C0.15 75.76 -2.2 75.76 -4.56 75.76 C-6.19 75.76 -7.82 75.76 -9.45 75.76 C-12.87 75.76 -16.29 75.76 -19.72 75.76 C-24.11 75.75 -28.5 75.75 -32.9 75.76 C-36.26 75.76 -39.63 75.76 -43 75.76 C-44.62 75.76 -46.24 75.76 -47.86 75.76 C-50.12 75.76 -52.39 75.76 -54.65 75.75 C-55.94 75.75 -57.23 75.75 -58.56 75.75 C-61.56 75.62 -61.56 75.62 -63.56 74.62 C-63.59 65.86 -63.6 57.1 -63.61 48.34 C-63.62 44.27 -63.63 40.2 -63.64 36.13 C-63.65 32.2 -63.65 28.27 -63.66 24.34 C-63.66 22.85 -63.66 21.35 -63.67 19.85 C-63.68 17.75 -63.68 15.65 -63.68 13.55 C-63.68 12.35 -63.68 11.16 -63.68 9.93 C-63.57 6.74 -63.16 3.75 -62.56 0.62 C-41.7 -0.56 -20.88 -0.73 0 0 Z " fill="#008AFD" transform="translate(1004.5625,451.375)"/>
<path d="M0 0 C9.48 -0.02 18.97 -0.04 28.45 -0.05 C32.85 -0.06 37.26 -0.06 41.66 -0.08 C45.91 -0.09 50.15 -0.09 54.4 -0.09 C56.02 -0.1 57.65 -0.1 59.27 -0.11 C61.54 -0.11 63.8 -0.11 66.07 -0.11 C67.36 -0.12 68.66 -0.12 69.99 -0.12 C73 0 73 0 75 1 C75 25.42 75 49.84 75 75 C50.58 75 26.16 75 1 75 C-0.48 72.04 -0.12 69.38 -0.11 66.07 C-0.11 65.36 -0.11 64.65 -0.11 63.91 C-0.11 61.55 -0.11 59.2 -0.1 56.84 C-0.1 55.2 -0.09 53.57 -0.09 51.93 C-0.09 47.63 -0.08 43.33 -0.07 39.02 C-0.06 34.63 -0.05 30.24 -0.05 25.85 C-0.04 17.23 -0.02 8.62 0 0 Z " fill="#51A5FD" transform="translate(262,452)"/>
<path d="M0 0 C0.33 0 0.66 0 1 0 C1 49.17 1 98.34 1 149 C-160.37 149 -321.74 149 -488 149 C-487.67 148.01 -487.34 147.02 -487 146 C-486.01 146 -485.02 146 -484 146 C-484 146.66 -484 147.32 -484 148 C-483.34 148 -482.68 148 -482 148 C-482 147.34 -482 146.68 -482 146 C-481.34 146 -480.68 146 -480 146 C-480 146.66 -480 147.32 -480 148 C-478.35 148 -476.7 148 -475 148 C-475 147.34 -475 146.68 -475 146 C-320.56 146 -166.12 146 -7 146 C-7 146.66 -7 147.32 -7 148 C-4.69 148 -2.38 148 0 148 C-0.33 147.01 -0.66 146.02 -1 145 C-1.09 143.06 -1.13 141.12 -1.13 139.18 C-1.13 137.96 -1.13 136.75 -1.14 135.5 C-1.13 134.15 -1.13 132.8 -1.13 131.46 C-1.13 130.04 -1.13 128.62 -1.13 127.2 C-1.14 123.35 -1.14 119.5 -1.13 115.65 C-1.13 111.63 -1.13 107.6 -1.14 103.58 C-1.14 96.82 -1.14 90.06 -1.13 83.31 C-1.12 75.48 -1.13 67.66 -1.13 59.84 C-1.14 53.13 -1.14 46.42 -1.13 39.71 C-1.13 35.7 -1.13 31.69 -1.14 27.68 C-1.14 23.91 -1.14 20.15 -1.13 16.38 C-1.13 14.99 -1.13 13.61 -1.13 12.22 C-1.14 10.34 -1.13 8.45 -1.13 6.57 C-1.13 5.51 -1.13 4.45 -1.13 3.36 C-1 1 -1 1 0 0 Z " fill="#B8DBFC" transform="translate(1128,980)"/>
<path d="M0 0 C0.66 0.33 1.32 0.66 2 1 C2 48.52 2 96.04 2 145 C10.41 145.49 10.41 145.49 19 146 C19 146.66 19 147.32 19 148 C148.69 148 278.38 148 412 148 C412 147.34 412 146.68 412 146 C413.98 146 415.96 146 418 146 C418 146.66 418 147.32 418 148 C422.29 148 426.58 148 431 148 C431 147.34 431 146.68 431 146 C433.97 146 436.94 146 440 146 C440 146.66 440 147.32 440 148 C451.22 148 462.44 148 474 148 C474 147.34 474 146.68 474 146 C475.75 145.95 477.5 145.91 479.25 145.88 C480.22 145.85 481.2 145.83 482.2 145.8 C485.02 146 486.61 146.55 489 148 C489 148.33 489 148.66 489 149 C327.63 149 166.26 149 0 149 C-1.35 146.31 -1.13 144.24 -1.13 141.22 C-1.13 139.99 -1.13 138.76 -1.14 137.5 C-1.13 136.13 -1.13 134.76 -1.13 133.39 C-1.13 131.95 -1.13 130.51 -1.13 129.08 C-1.14 125.17 -1.14 121.26 -1.13 117.35 C-1.13 113.27 -1.13 109.18 -1.14 105.1 C-1.14 98.24 -1.14 91.38 -1.13 84.53 C-1.12 76.59 -1.13 68.65 -1.13 60.71 C-1.14 53.9 -1.14 47.1 -1.13 40.29 C-1.13 36.22 -1.13 32.15 -1.14 28.08 C-1.14 24.26 -1.14 20.44 -1.13 16.61 C-1.13 15.2 -1.13 13.8 -1.13 12.39 C-1.14 10.48 -1.13 8.56 -1.13 6.65 C-1.13 5.58 -1.13 4.5 -1.13 3.4 C-1 1 -1 1 0 0 Z " fill="#EAF0F5" transform="translate(151,980)"/>
<path d="M0 0 C0.66 0.33 1.32 0.66 2 1 C2.02 17.89 2.04 34.78 2.05 51.67 C2.06 59.51 2.06 67.36 2.08 75.2 C2.09 82.04 2.09 88.88 2.09 95.72 C2.1 99.34 2.1 102.96 2.11 106.58 C2.11 110.63 2.11 114.68 2.11 118.73 C2.12 119.91 2.12 121.1 2.12 122.32 C2.11 137.51 2.11 137.51 1 143 C0.34 143.33 -0.32 143.66 -1 144 C-1.02 125.37 -1.04 106.74 -1.05 88.12 C-1.06 79.47 -1.06 70.82 -1.08 62.17 C-1.09 54.64 -1.09 47.1 -1.09 39.57 C-1.1 35.57 -1.1 31.58 -1.11 27.59 C-1.11 23.84 -1.11 20.08 -1.11 16.33 C-1.11 14.95 -1.12 13.57 -1.12 12.18 C-1.12 10.31 -1.12 8.43 -1.12 6.55 C-1.12 5.5 -1.12 4.44 -1.12 3.36 C-1 1 -1 1 0 0 Z " fill="#D5E7F7" transform="translate(151,980)"/>
<path d="M0 0 C0.33 0 0.66 0 1 0 C1 48.51 1 97.02 1 147 C0.67 147 0.34 147 0 147 C0 98.49 0 49.98 0 0 Z " fill="#000102" transform="translate(1130,981)"/>
<path d="M0 0 C0.33 0 0.66 0 1 0 C1 48.51 1 97.02 1 147 C0.67 147 0.34 147 0 147 C0 98.49 0 49.98 0 0 Z " fill="#000102" transform="translate(1205,831)"/>
<path d="M0 0 C2 2 2 2 2.14 3.88 C2.08 4.62 2.03 5.37 1.98 6.13 C1.9 7.34 1.9 7.34 1.82 8.57 C1.76 9.42 1.69 10.26 1.62 11.12 C1.57 11.97 1.51 12.82 1.45 13.7 C1.31 15.8 1.16 17.9 1 20 C0.34 20.33 -0.32 20.66 -1 21 C-1.03 17.69 -1.05 14.38 -1.06 11.06 C-1.07 10.12 -1.08 9.17 -1.09 8.2 C-1.09 7.3 -1.09 6.4 -1.1 5.47 C-1.1 4.64 -1.11 3.81 -1.11 2.95 C-1 1 -1 1 0 0 Z " fill="#DCEAF6" transform="translate(151,1103)"/>
</svg>
